<?xml version="1.0" encoding="utf-8"?>
<!-- Generator: Adobe Illustrator 16.0.0, SVG Export Plug-In . SVG Version: 6.00 Build 0)  -->
<!DOCTYPE svg PUBLIC "-//W3C//DTD SVG 1.1//EN" "http://www.w3.org/Graphics/SVG/1.1/DTD/svg11.dtd">
<svg version="1.1" id="Calque_1" xmlns="http://www.w3.org/2000/svg" xmlns:xlink="http://www.w3.org/1999/xlink" x="0px" y="0px"
	 width="1000px" height="342.393px" viewBox="0 328.804 1000 342.393" enable-background="new 0 328.804 1000 342.393"
	 xml:space="preserve">
<path fill="#0BBBEF" d="M352.726,508.335v55.509c0,5.001,2.667,6.835,7.501,6.835c5.668,0,17.836-3.335,26.339-7.835v-54.509h8.168
	v68.679h-7.168l-0.5-6.169c-7.334,3.5-19.669,7.669-27.839,7.669c-10.669,0-14.502-6.001-14.502-15.502v-54.677H352.726
	L352.726,508.335z M470.579,577.014v-54.511c0-9.501-3.834-15.502-14.502-15.502c-8.335,0-20.504,4.168-27.838,7.669l-0.5-6.168
	h-7.168v68.677h8.168v-54.508c8.668-4.501,20.67-7.835,26.337-7.835c4.834,0,7.502,1.833,7.502,6.835v55.508h8.001V577.014z
	 M492.082,523.004h8.167v-15.003h-8.167V523.004z M492.082,577.014h8.167v-45.841h-8.167V577.014z M575.762,508.335h-8.334
	l-21.337,62.843l-21.17-62.843h-8.335l23.338,68.679h12.502L575.762,508.335z M612.436,571.178
	c-13.669,0-17.836-5.167-17.836-17.502v-8.667h42.508v-13.17c0-14.169-5.668-25.004-25.006-25.004
	c-19.336,0-25.671,10.835-25.671,25.004v21.504c0,15.001,6.168,25.004,25.504,25.004c8.335,0,17.337-1.501,23.672-3.834
	l-1.333-6.667C627.438,569.68,619.438,571.178,612.436,571.178 M594.6,531.506c0-11.503,4.667-17.671,17.503-17.671
	c12.835,0,16.837,6.001,16.837,17.671v6.167H594.6V531.506z M686.114,506.835c-6.501,2.333-13.835,7-21.17,11.835l-0.334-10.501
	h-7.335v68.677h8.169v-49.341c6.667-4.333,14.502-9.502,21.67-12.669L686.114,506.835z M721.12,578.347
	c18.337,0,22.837-6.335,22.837-18.67c0-12.836-1.166-16.003-21.337-21.17c-12.668-3.167-13.168-4.167-13.168-13.669
	c0-7.502,1.666-10.502,13.668-10.502c5.668,0,13.67,0.834,19.171,2l0.833-6.834c-5.335-1.501-13.169-2.334-19.503-2.334
	c-16.837,0-22.338,6.167-22.338,17.67c0,12.501,1.334,16.836,18.67,20.837c15.67,3.666,15.837,4.666,15.837,14.503
	c0,8.667-2.501,11.168-15.17,11.168c-5.001,0-12.335-1-18.169-2.834l-1.334,6.668C706.118,577.014,714.285,578.347,721.12,578.347
	 M763.794,523.004h8.168v-15.003h-8.168V523.004z M763.794,577.014h8.168v-45.841h-8.168V577.014z M829.472,569.845
	c-4.001,1.333-6.835,1.501-10.669,1.501c-7,0-7.835-2.501-7.835-8.667v-47.343h17.837l0.834-7.001h-18.671v-15.002l-8.167,1.166
	v13.836h-13.17v7.001h13.17v48.175c0,10.834,4.667,14.836,15.503,14.836c5.001,0,8.834-0.499,12.835-2.168L829.472,569.845z
	 M868.813,571.178c-13.67,0-17.836-5.167-17.836-17.502v-8.667h42.507v-13.17c0-14.169-5.669-25.004-25.005-25.004
	s-25.671,10.835-25.671,25.004v21.504c0,15.001,6.167,25.004,25.503,25.004c8.336,0,17.338-1.501,23.672-3.834l-1.334-6.667
	C883.646,569.68,875.813,571.178,868.813,571.178 M850.809,531.506c0-11.503,4.668-17.671,17.502-17.671
	c12.838,0,17.005,6.001,17.005,17.671v6.167h-34.339v-6.167H850.809z M861.645,502.167c6.334-1.667,14.168-4.001,21.004-6.835
	l-2.502-7.001c-7.168,2.668-14.502,5.168-20.836,7.168L861.645,502.167z"/>
<path d="M226.205,479.996h-14.502l-9.168-26.671h-47.341l-9.002,26.671H131.69l37.673-111.352H188.7L226.205,479.996z
	 M178.863,379.146l-19.836,61.677h39.84L178.863,379.146z M241.04,365.311h14.002v20.171H241.04V365.311z M241.04,398.649h14.002
	v81.347H241.04V398.649z M283.047,479.996l19.503-30.338l19.67,30.338h14.668L310.05,438.99l26.338-40.507h-14.503l-19.336,30.005
	l-19.336-30.005h-14.502l26.338,40.507l-26.672,41.006H283.047z M476.08,465.66h19.336l28.338-75.846l2.334,90.182h13.836
	l-3.835-111.352h-18.17l-32.171,86.182l-32.172-86.182h-18.17l-3.833,111.352h13.835l2.167-90.348L476.08,465.66z M614.769,479.996
	h-11.835l-0.834-6.001c-7.167,5.002-16.502,7.669-26.337,7.669c-15.17,0-21.504-9.002-21.504-23.338
	c0-16.836,8.501-22.837,24.838-22.837h21.67V422.82c0-10.168-4.501-13.67-17.669-13.67c-7.836,0-15.503,0.835-21.837,2.168
	l-1.501-11.168c7.668-2.001,15.502-3.002,24.171-3.002c23.171,0,31.005,9.003,31.005,26.338v56.51H614.769z M600.767,447.157h-20.67
	c-8.668,0-11.835,2.668-11.835,10.836c0,8.335,1.499,11.669,11.502,11.669c7.001,0,14.836-2.667,21.003-6.669V447.157z
	 M670.445,396.983c-8.002,3.334-16.337,8.334-22.338,13.002l-0.833-11.336h-12.169v81.347h14.003v-56.175
	c6.668-4.668,15.502-10.336,23.171-14.003L670.445,396.983z M707.451,481.664c23.171,0,28.004-7.669,28.004-23.504
	c0-16.169-1.833-19.003-25.17-24.838c-13.669-3.333-13.836-5.001-13.836-14.002c0-7.336,1.667-10.17,13.669-10.17
	c6.668,0,15.669,1.001,22.504,2.336l1-11.504c-6.667-1.833-15.169-2.834-23.004-2.834c-21.337,0-28.004,6.836-28.004,21.838
	c0,16.837,1.834,21.004,22.003,26.005c16.337,4,17.003,5,17.003,13.669c0,8.668-2.167,11.002-15.002,11.002
	c-7.001,0-16.169-1.334-23.171-3.334l-1.833,11.001C688.115,479.83,699.116,481.664,707.451,481.664 M783.964,469.662
	c8.001,0,16.836-1.501,25.671-3.835l1.834,11.169c-7.668,2.834-18.503,4.668-28.839,4.668c-24.004,0-32.339-11.502-32.339-30.005
	v-24.338c0-16.836,7.669-30.506,32.006-30.506c24.004,0,30.672,13.836,30.672,30.84v17.002h-48.508v6.835
	C764.627,464.494,768.128,469.662,783.964,469.662 M764.627,433.156h35.007v-6.669c0-11.336-3.835-17.67-17.004-17.67
	c-13.168,0-17.836,6.334-17.836,17.67v6.669H764.627z M829.972,365.311h14.002v20.171h-14.002V365.311z M829.972,398.649h14.002
	v81.347h-14.002V398.649z M883.146,479.996V363.31l-14.002,2.001v114.686L883.146,479.996L883.146,479.996z M922.32,479.996V363.31
	l-14.002,2.001v114.686L922.32,479.996L922.32,479.996z M970.995,469.662c8.001,0,16.836-1.501,25.671-3.835l1.833,11.169
	c-7.667,2.834-18.502,4.668-28.837,4.668c-24.005,0-32.34-11.502-32.34-30.005v-24.338c0-16.836,7.669-30.506,32.006-30.506
	c24.004,0,30.672,13.836,30.672,30.84v17.002h-48.508v6.835C951.658,464.494,955.159,469.662,970.995,469.662 M951.658,433.156
	h35.007v-6.669c0-11.336-3.835-17.67-17.003-17.67c-13.17,0-17.837,6.334-17.837,17.67v6.669H951.658z"/>
<path fill="#FBBA00" d="M413.569,454.326l-22.004-12.67c0,0-0.333-0.166-1-0.666c0.333-0.167,0.667-0.334,1-0.667l22.004-12.668
	c1-0.5,1.333-1.501,1.5-2.168c0.167-0.833,0.167-1.5,0.167-2.167c0-0.833-0.167-1.666-0.167-1.666v-0.5l-0.5-0.334
	c-0.167,0-2.334-2-4.667-2c-0.5,0-0.834,0.166-1.334,0.333l-22.003,12.669c-0.333,0.166-0.667,0.333-1,0.666v-1.166v-46.175
	c-0.167-1.834-1.5-2.667-2.5-3.333c-1-0.667-2-1-2-1.168l-0.5-0.167l-0.5,0.167c0,0-1.001,0.501-2,1.168
	c-1,0.666-2.335,1.499-2.5,3.333v46.175v1.166c-0.333-0.167-0.667-0.333-1-0.666l-22.003-12.669
	c-0.502-0.333-1.002-0.333-1.334-0.333c-2.5,0.166-4.668,2-4.668,2l-0.501,0.334v0.5c0,0-0.167,0.666-0.167,1.666
	c0,0.667,0,1.501,0.167,2.167c0.167,0.833,0.501,1.668,1.501,2.168l22.004,12.668c0.332,0.167,0.666,0.333,1,0.667
	c-0.668,0.333-1,0.666-1,0.666l-22.004,12.67c-1,0.5-1.332,1.5-1.501,2.166c-0.167,0.834-0.167,1.501-0.167,2.168
	c0,0.999,0.167,1.667,0.167,1.667v0.5l0.501,0.333c0.168,0,2.334,2.001,4.668,2.001l0,0c0.5,0,0.832-0.168,1.334-0.334
	l22.003-12.669l0,0c0,0,0.333-0.167,1-0.667v1.167v25.505c0.167,1.833,1.5,2.667,2.5,3.334c1,0.666,2,0.999,2,1.166l0.5,0.167
	l0.5-0.167c0,0,1-0.5,2-1.166c1-0.667,2.334-1.501,2.5-3.334v-25.505v-1.167c0.667,0.334,1,0.667,1,0.667l22.003,12.669
	c0.5,0.334,1,0.334,1.334,0.334c2.333-0.168,4.667-2.001,4.667-2.001l0.5-0.333v-0.5c0,0,0.167-0.668,0.167-1.667
	c0-0.667,0-1.5-0.167-2.168C414.902,455.659,414.569,454.826,413.569,454.326"/>
<path fill="#0070BA" d="M0,500c0-18.003,1.5-34.673,4.667-50.342s7.834-31.005,14.002-46.174
	c6.334-15.169,14.002-30.339,23.337-45.509c5.501-9.334,10.501-15.668,14.002-20.003c3.667-4.5,7.501-9.168,12.835-9.168
	c5.834,0,8.668,1.667,8.668,4.834c0,1-2.667,7.501-8.167,19.337c-5.501,11.835-10.669,24.171-15.336,37.173
	c-4.834,13.001-9.335,29.172-13.335,48.508c-4.167,19.337-6.168,39.841-6.168,61.511c0,21.337,2,41.675,6.001,60.843
	c4.001,19.171,9.835,35.673,15.002,49.675c5.168,14.005,9.168,26.506,14.336,37.676c5.167,11.167,7.834,17.168,7.834,18.003
	c0,3.167-2.833,4.833-8.668,4.833c-5.5,0-9.168-5.5-12.835-9.669c-3.667-4.167-8.335-10.835-14.002-20.003
	c-9.335-15.67-17.17-30.84-23.337-45.341c-6.168-14.502-10.835-29.672-14.002-45.342C1.667,535.006,0,518.17,0,500 M131.522,654.693
	c3.833,1.666,9.335,2.5,13.335,2.5c12.669,0,15.336-4.169,16.836-12.668c0.333-1.834,0.5-3.503,0.5-4.669
	c0-4.668-2.5-6.835-11.001-9.168c-6.501-1.667-8.168-2.501-8.168-5.502c0-0.833,0.167-2.166,0.5-3.834c1-5.5,2.5-6.833,10.335-6.833
	c2.833,0,7.668,0.499,11.502,1.333l1-5.001c-3.667-1-8.668-1.667-12.168-1.667c-11.169,0-14.836,2.501-16.503,11.835
	c-0.333,1.666-0.5,3.334-0.5,4.667c0,4.834,2.501,7.502,10.502,9.502c6.834,1.666,8.501,2.502,8.501,5.5
	c0,0.834-0.167,2.168-0.5,3.669c-1,5.5-3,7.668-10.335,7.668c-4.001,0-8.168-0.832-12.502-2.168L131.522,654.693 M184.364,644.357
	c-1.334,7.334,1.833,12.836,11.501,12.836c10.502,0,14.502-4.502,15.836-12.169l1.833-10.67c0.167-1.166,0.167-1.831,0.167-2.332
	c0-5.834-4-10.169-11.835-10.169c-9.834,0-14.502,4.335-16.002,12.501L184.364,644.357 M206.201,644.69
	c-0.833,5.167-3.5,7.668-9.334,7.668c-6.334,0-7.501-3-6.668-7.668l1.667-9.834c0.833-5.336,3.834-8.001,9.501-8.001
	c4.834,0,7.001,1.831,7.001,5.5c0,0.501,0,1.333-0.167,2L206.201,644.69z M258.876,623.521c-2.5-1-5.668-1.5-8.168-1.5
	c-9.001,0-13.002,3.002-14.669,12.503l-2.167,12.669c-0.167,1.168-0.334,2.167-0.334,2.666c0,4.668,2.667,7.67,9.168,7.67
	c4.334,0,8.501-1,12.002-2.501l-0.833-4.668c-3.333,1.333-7.501,2.333-10.501,2.333s-4.001-0.832-4.001-2.999
	c0-0.501,0-1,0.167-1.501l2.167-12.669c1.167-6.334,3.334-8.334,8.835-8.334c2.167,0,4.834,0.499,7.334,1.166L258.876,623.521z
	 M276.213,656.527h5.667l6.001-34.341l-5.834,0.834L276.213,656.527z M283.047,617.354l5.834-0.836l1.501-8.667l-5.834,0.832
	L283.047,617.354z M337.723,624.188c-3.333-1.334-8.001-2.334-12.168-2.334c-10.669,0-13.836,4.336-15.336,12.502l-2.334,13.503
	c-0.167,0.834-0.333,1.834-0.333,2.668c0,3.834,2,6.833,7.167,6.833c4.335,0,9.002-1.501,12.669-4.833l-0.167,4.167h4.668
	L337.723,624.188z M328.054,646.357c-3.834,3.5-7.667,6.001-12.002,6.001c-2.167,0-2.833-0.832-2.833-2.501
	c0-0.666,0.167-1.498,0.333-2.333l2.166-12.336c1.167-6.668,3.835-8.334,9.001-8.334c2.334,0,4.668,0.334,6.501,0.832
	L328.054,646.357z M357.393,656.527h5.668l8.668-48.676l-5.834,0.832L357.393,656.527z M395.566,644.024
	c3-0.834,4.333-1.333,8.335-2.666c9.501-3.167,12.169-6.001,12.169-11.838c0-5-4.001-7.666-9.669-7.666
	c-9.668,0-13.501,4.335-15.001,12.834l-2,11.503c-0.167,1.168-0.333,2.333-0.333,3.167c0,4.668,2.667,7.835,9.501,7.835
	c5.668,0,10.168-1.668,14.503-4.169l-1.334-4.332c-4.667,2.167-8.834,3.5-12.502,3.5c-3.667,0-4.667-1.333-4.667-3.5
	c0-0.333,0-0.834,0.167-1.501L395.566,644.024z M410.735,630.188c0,2.834-2.334,5-8.002,6.666c-3.333,1-4.333,1.337-6.335,1.834
	l0.834-4.668c1.001-5.5,3.335-7.499,8.668-7.499C409.068,626.522,410.735,628.021,410.735,630.188 M475.412,656.527h5.668
	l4.501-25.673c0.167-1.165,0.333-2.168,0.333-3c0-3.668-1.834-6-6.001-6c-4.001,0-10.669,2.5-14.336,5.166
	c-0.333-3.168-2.167-5.166-6.001-5.166c-4,0-11.002,2.666-14.336,5.166l0.5-4.834l-5,0.834l-6.001,33.507h5.668l4.333-24.173
	c4.168-2.5,9.501-5.166,12.835-5.166c1.667,0,2.334,0.498,2.334,1.834c0,0.334,0,0.832-0.167,1.166l-4.668,26.171h5.668
	l4.334-24.169c3.667-2.501,9.335-5.17,12.835-5.17c1.667,0,2.334,0.502,2.334,1.834c0,0.334,0,0.834-0.167,1.168L475.412,656.527z
	 M513.086,644.024c3-0.834,4.333-1.333,8.335-2.666c9.501-3.167,12.168-6.001,12.168-11.838c0-5-4.001-7.666-9.669-7.666
	c-9.668,0-13.502,4.335-15.002,12.834l-2,11.503c-0.166,1.168-0.333,2.333-0.333,3.167c0,4.668,2.667,7.835,9.501,7.835
	c5.668,0,10.168-1.668,14.503-4.169l-1.334-4.332c-4.667,2.167-8.835,3.5-12.502,3.5s-4.667-1.333-4.667-3.5
	c0-0.333,0-0.834,0.167-1.501L513.086,644.024z M528.255,630.188c0,2.834-2.334,5-8.002,6.666c-3.334,1-4.333,1.337-6.334,1.834
	l0.833-4.668c1.001-5.5,3.334-7.499,8.668-7.499C526.588,626.522,528.255,628.021,528.255,630.188 M583.098,627.854
	c0-3.668-1.835-6-6.001-6c-4.001,0-11.003,2.666-14.337,5.166l0.5-4.834l-5,0.834l-6.001,33.507h5.668l4.334-24.173
	c4.166-2.5,9.501-5.166,12.835-5.166c1.667,0,2.334,0.498,2.334,1.834c0,0.334,0,0.832-0.167,1.166l-4.668,26.171h5.668l4.501-25.67
	C582.931,629.689,583.098,628.688,583.098,627.854 M606.269,651.859c0,2.999,1.999,5.5,6.167,5.5c3.334,0,6.336-0.832,9.168-2.333
	l-1.334-4.001c-2.332,1-4.332,1.501-6.334,1.501c-1.332,0-2-0.501-2-1.501c0-0.166,0-0.334,0-0.832l4.002-22.839h9.168l1-4.668
	h-9.336l1.668-9.169l-5.834,0.834l-1.502,8.334h-6l-0.834,4.669h6.002l-4,23.004C606.269,651.025,606.269,651.526,606.269,651.859
	 M685.614,644.024c3.001-0.834,4.334-1.333,8.335-2.666c9.502-3.167,12.169-6.001,12.169-11.838c0-5-4.002-7.666-9.669-7.666
	c-9.668,0-13.502,4.335-15.002,12.834l-2.001,11.503c-0.166,1.168-0.333,2.333-0.333,3.167c0,4.668,2.667,7.835,9.502,7.835
	c5.667,0,10.168-1.668,14.502-4.169l-1.334-4.332c-4.667,2.167-8.835,3.5-12.335,3.5c-3.667,0-4.667-1.333-4.667-3.5
	c0-0.333,0-0.834,0.167-1.501L685.614,644.024z M700.95,630.188c0,2.834-2.334,5-8.002,6.666c-3.334,1-4.333,1.337-6.334,1.834
	l0.834-4.668c1-5.5,3.501-7.499,8.667-7.499C699.282,626.522,700.95,628.021,700.95,630.188 M755.626,627.854
	c0-3.668-1.833-6-6.001-6c-4.001,0-11.002,2.666-14.336,5.166l0.333-4.834l-5,0.834l-6.001,33.507h5.668l4.333-24.173
	c4.167-2.5,9.502-5.166,12.836-5.166c1.667,0,2.333,0.498,2.333,1.834c0,0.334,0,0.832-0.166,1.166l-4.667,26.171h5.667l4.501-25.67
	C755.626,629.689,755.626,628.688,755.626,627.854 M806.468,624.354c-3.667-1.5-8.835-2.5-12.169-2.5
	c-10.669,0-14.169,4.335-15.502,12.668l-2.167,12.003c-0.167,0.834-0.334,1.834-0.334,2.666c0,3.836,2.001,6.835,7.168,6.835
	c4.334,0,8.668-1.333,12.502-4.335l-1.667,9.835c-0.666,3.668-1.667,5.001-6.001,5.001c-4,0-8.335-0.832-13.002-2.5l-1.167,4.334
	c3.5,1.501,9.501,2.834,14.003,2.834c7.834,0,10.668-2.167,12.002-9.336L806.468,624.354z M797.133,645.525
	c-3.667,2.999-8.501,5.5-12.169,5.5c-2.167,0-2.833-0.832-2.833-2.501c0-0.666,0.166-1.333,0.333-2.167l2.001-10.835
	c1.166-6.667,3.333-8.501,9.001-8.501c2.333,0,5,0.501,6.834,0.834L797.133,645.525z M856.645,624.188
	c-3.336-1.334-8.003-2.334-12.17-2.334c-10.669,0-13.836,4.336-15.337,12.502l-2.333,13.503c-0.167,0.834-0.333,1.834-0.333,2.668
	c0,3.834,2,6.833,7.167,6.833c4.334,0,9.002-1.501,12.669-4.833l-0.167,4.167h4.668L856.645,624.188z M846.974,646.357
	c-3.833,3.5-7.667,6.001-12.002,6.001c-2.166,0-2.833-0.832-2.833-2.501c0-0.666,0.166-1.498,0.334-2.333l2.166-12.336
	c1.168-6.668,3.835-8.334,9.002-8.334c2.334,0,4.668,0.334,6.501,0.832L846.974,646.357z M906.984,624.354
	c-3.667-1.5-8.836-2.5-12.17-2.5c-10.668,0-14.168,4.335-15.502,12.668l-2.168,12.003c-0.166,0.834-0.332,1.834-0.332,2.666
	c0,3.836,2,6.835,7.168,6.835c4.334,0,8.668-1.333,12.502-4.335l-1.668,9.835c-0.666,3.668-1.666,5.001-6,5.001
	c-4,0-8.334-0.832-13.002-2.5l-1.168,4.334c3.502,1.501,9.502,2.834,14.002,2.834c7.836,0,10.67-2.167,12.004-9.336L906.984,624.354
	z M897.482,645.525c-3.668,2.999-8.502,5.5-12.168,5.5c-2.168,0-2.834-0.832-2.834-2.501c0-0.666,0.166-1.333,0.332-2.167
	l2.002-10.835c1.166-6.667,3.334-8.501,9-8.501c2.334,0,5.002,0.501,6.836,0.834L897.482,645.525z M933.655,644.024
	c3.001-0.834,4.335-1.333,8.335-2.666c9.502-3.167,12.169-6.001,12.169-11.838c0-5-4.001-7.666-9.668-7.666
	c-9.668,0-13.503,4.335-15.003,12.834l-2,11.503c-0.167,1.168-0.334,2.333-0.334,3.167c0,4.668,2.668,7.835,9.502,7.835
	c5.668,0,10.168-1.668,14.503-4.169l-1.167-4.332c-4.668,2.167-8.835,3.5-12.503,3.5c-3.667,0-4.667-1.333-4.667-3.5
	c0-0.333,0-0.834,0.167-1.501L933.655,644.024z M948.825,630.188c0,2.834-2.334,5-8.001,6.666c-3.335,1-4.335,1.337-6.335,1.834
	l0.834-4.668c1-5.5,3.5-7.499,8.668-7.499C947.158,626.522,948.825,628.021,948.825,630.188 M942.657,618.187
	c4.501-2.168,7.002-3.5,10.502-6l-2.167-3.834c-3.501,2.5-7.001,4.5-10.336,6.169L942.657,618.187z M979.496,644.024
	c3.001-0.834,4.335-1.333,8.335-2.666c9.502-3.167,12.169-6.001,12.169-11.838c0-5-4-7.666-9.668-7.666
	c-9.668,0-13.503,4.335-15.003,12.834l-2,11.503c-0.167,1.168-0.334,2.333-0.334,3.167c0,4.668,2.668,7.835,9.502,7.835
	c5.668,0,10.169-1.668,14.502-4.169l-1.333-4.332c-4.668,2.167-8.835,3.5-12.502,3.5c-3.668,0-4.668-1.333-4.668-3.5
	c0-0.333,0-0.834,0.167-1.501L979.496,644.024z M994.832,630.188c0,2.834-2.334,5-8.001,6.666c-3.333,1-4.334,1.337-6.334,1.834
	l0.833-4.668c1-5.5,3.501-7.499,8.669-7.499C993.166,626.522,994.832,628.021,994.832,630.188"/>
</svg>
