<?xml version="1.0" encoding="utf-8"?>
<!-- Generator: Adobe Illustrator 27.3.1, SVG Export Plug-In . SVG Version: 6.00 Build 0)  -->
<svg version="1.1" id="Calque_1" xmlns="http://www.w3.org/2000/svg" xmlns:xlink="http://www.w3.org/1999/xlink" x="0px" y="0px"
	 viewBox="0 0 256 256" style="enable-background:new 0 0 256 256;" xml:space="preserve">
<style type="text/css">
	.st0{fill:#221F20;}
</style>
<path class="st0" d="M128,0C57.3,0,0,57.3,0,128s57.3,128,128,128c70.7,0,128-57.3,128-128S198.7,0,128,0z M208,123
	c-2.9,4.3-8.4,5.4-12.5,2.5l0,0.7l-4.8-4v18.3v14.5v1v8.9v20.3c0,5.6-4.6,10.2-10.2,10.2h-36.4v-58.5h-32.3v58.5H75.5
	c-5.6,0-10.2-4.6-10.2-10.2v-20.3v-8.9v-1v-14.5v-17.8l-4.2,3.5l0-0.8c-4.1,3.3-9.9,2.3-13-2.2c-3-4.5-2.2-10.9,2-14.2l78.5-63.2
	l31.7,25.8V57.6c0-0.4,0.3-0.7,0.7-0.7h17c0.4,0,0.7,0.3,0.7,0.7v28.8l27.4,22.3C210.1,112.1,211,118.5,208,123z"/>
</svg>
