<?xml version="1.0" encoding="utf-8"?>
<!-- Generator: Adobe Illustrator 16.0.0, SVG Export Plug-In . SVG Version: 6.00 Build 0)  -->
<!DOCTYPE svg PUBLIC "-//W3C//DTD SVG 1.1//EN" "http://www.w3.org/Graphics/SVG/1.1/DTD/svg11.dtd">
<svg version="1.1" id="Calque_1" xmlns="http://www.w3.org/2000/svg" xmlns:xlink="http://www.w3.org/1999/xlink" x="0px" y="0px"
	 width="1000px" height="279.349px" viewBox="0 360.317 1000 279.349" enable-background="new 0 360.317 1000 279.349"
	 xml:space="preserve">
<g>
	<g>
		<g>
			<path fill="#008EBF" d="M362.262,534.05c0,0.212,0,0.424,0,0.639c0,0.213,0,0.213-0.213,0.427c0,0.212-0.213,0.212-0.213,0.212
				s-0.214,0-0.425,0h-10.004v30.227v0.212l-0.214,0.216c-0.213,0-0.213,0-0.427,0.214c-0.213,0-0.425,0-0.852,0
				c-0.212,0-0.639,0-0.853,0s-0.426,0-0.426-0.214c-0.212,0-0.212-0.216-0.212-0.216v-0.212v-30.227h-10.006
				c-0.213,0-0.213,0-0.426,0l-0.213-0.212c0-0.217-0.213-0.217-0.213-0.427c0-0.213,0-0.427,0-0.639c0-0.214,0-0.429,0-0.638
				c0-0.215,0-0.427,0.213-0.427c0-0.212,0.213-0.212,0.213-0.212s0.214,0,0.426,0h23.201c0.214,0,0.214,0,0.426,0l0.213,0.212
				c0,0.215,0.215,0.215,0.215,0.427C362.262,533.621,362.262,533.836,362.262,534.05z"/>
			<path fill="#008EBF" d="M399.087,553.845c0,2.131-0.213,3.831-0.854,5.531c-0.639,1.493-1.489,2.981-2.554,4.048
				c-1.062,1.063-2.341,1.917-3.832,2.553c-1.49,0.642-3.192,0.854-5.109,0.854c-1.701,0-3.193-0.212-4.683-0.854
				c-1.489-0.636-2.768-1.275-3.831-2.341c-1.063-1.062-1.917-2.341-2.342-3.829c-0.637-1.489-0.853-3.406-0.853-5.323v-21.285
				v-0.214l0.216-0.212c0.213,0,0.213,0,0.425-0.216c0.212,0,0.425,0,0.854,0c0.211,0,0.637,0,0.852,0c0.211,0,0.424,0,0.424,0.216
				c0.214,0,0.214,0.212,0.214,0.212v0.214v20.646c0,1.7,0.214,3.193,0.64,4.473c0.426,1.275,1.063,2.339,1.701,3.192
				c0.854,0.851,1.703,1.488,2.77,1.914c1.063,0.424,2.339,0.639,3.831,0.639c1.489,0,2.555-0.215,3.831-0.639
				c1.063-0.426,2.129-1.063,2.767-1.914c0.853-0.854,1.278-1.917,1.704-3.192c0.424-1.278,0.639-2.771,0.639-4.259v-20.86v-0.214
				l0.214-0.212c0.213,0,0.213,0,0.427-0.216c0.211,0,0.423,0,0.85,0c0.213,0,0.64,0,0.853,0c0.215,0,0.427,0,0.427,0.216
				c0.213,0,0.213,0.212,0.213,0.212v0.214v20.646H399.087L399.087,553.845z"/>
			<path fill="#008EBF" d="M437.402,565.553c0,0.212,0,0.212,0,0.212l-0.213,0.215c-0.213,0-0.213,0.215-0.426,0.215
				c-0.212,0-0.428,0-0.852,0c-0.214,0-0.641,0-0.641,0c-0.213,0-0.426,0-0.426-0.215c-0.213,0-0.213-0.215-0.424-0.215
				c0-0.212-0.215-0.212-0.215-0.422l-3.192-8.088c-0.426-0.853-0.852-1.703-1.063-2.556c-0.425-0.854-0.854-1.49-1.492-2.129
				c-0.638-0.641-1.277-1.064-2.128-1.49c-0.851-0.427-1.916-0.427-2.98-0.427h-3.405v15.112v0.215l-0.212,0.215
				c-0.215,0-0.215,0-0.427,0.215c-0.214,0-0.428,0-0.852,0c-0.216,0-0.639,0-0.854,0c-0.213,0-0.423,0-0.423-0.215
				c-0.216,0-0.216-0.215-0.216-0.215v-0.215v-31.502c0-0.639,0.216-1.063,0.426-1.276c0.428-0.211,0.64-0.425,1.065-0.425h6.386
				c0.853,0,1.489,0,2.129,0s1.063,0,1.489,0.216c1.276,0.212,2.342,0.638,3.407,1.062c0.852,0.425,1.702,1.063,2.34,1.917
				c0.639,0.639,1.064,1.488,1.492,2.555c0.213,0.852,0.424,1.915,0.424,2.978c0,1.063-0.212,2.132-0.424,2.98
				c-0.216,0.852-0.854,1.703-1.277,2.342c-0.64,0.639-1.278,1.275-2.132,1.699c-0.851,0.428-1.701,0.854-2.555,1.276
				c0.64,0.217,1.064,0.639,1.493,1.064c0.423,0.424,0.851,0.853,1.275,1.275c0.425,0.642,0.852,1.064,1.063,1.917
				c0.427,0.638,0.64,1.49,1.063,2.341l3.194,7.877c0.211,0.639,0.426,1.063,0.426,1.278
				C437.402,565.341,437.402,565.553,437.402,565.553z M431.655,541.713c0-1.491-0.423-2.556-0.852-3.62
				c-0.639-1.062-1.704-1.7-3.192-2.129c-0.429-0.211-1.065-0.211-1.704-0.211s-1.277,0-2.339,0h-4.047v12.344h4.896
				c1.277,0,2.342-0.212,3.406-0.424c0.854-0.424,1.704-0.851,2.342-1.279c0.638-0.636,1.063-1.274,1.276-1.914
				C431.655,543.201,431.655,542.563,431.655,541.713z"/>
			<path fill="#008EBF" d="M455.283,565.765v0.216l-0.212,0.212c-0.216,0-0.216,0-0.428,0.214c-0.212,0-0.425,0-0.852,0
				c-0.214,0-0.639,0-0.854,0c-0.212,0-0.424,0-0.424-0.214c-0.215,0-0.215-0.212-0.215-0.212v-0.216V533.2v-0.217l0.215-0.212
				c0.213,0,0.213,0,0.424-0.212c0.216,0,0.428,0,0.641,0c0.214,0,0.638,0,0.854,0c0.213,0,0.424,0,0.424,0.212
				c0.216,0,0.216,0.212,0.216,0.212v0.217v32.563L455.283,565.765L455.283,565.765z"/>
			<path fill="#008EBF" d="M496.579,564.7c0,0.215,0,0.641-0.213,0.853c0,0.212-0.214,0.425-0.427,0.425
				c-0.211,0.215-0.211,0.215-0.423,0.215c-0.216,0-0.428,0-0.428,0h-0.639c-0.426,0-0.64,0-0.852-0.215
				c-0.216,0-0.64-0.215-0.854-0.425c-0.213-0.212-0.64-0.426-0.852-0.853c-0.213-0.426-0.639-0.854-0.851-1.49l-11.921-20.861
				c-0.64-1.063-1.278-2.129-1.702-3.192c-0.64-1.064-1.063-2.129-1.701-3.193l0,0c0,1.276,0,2.555,0,3.832c0,1.278,0,2.555,0,3.831
				v21.714v0.212l-0.216,0.212c-0.213,0-0.213,0-0.424,0.214c-0.216,0-0.428,0-0.854,0c-0.213,0-0.638,0-0.853,0
				c-0.213,0-0.426,0-0.426-0.214c-0.213,0-0.213-0.212-0.213-0.212v-0.212v-31.506c0-0.638,0.213-1.062,0.427-1.276
				c0.424-0.216,0.64-0.426,1.063-0.426h1.275c0.426,0,0.853,0,1.064,0c0.211,0,0.426,0.212,0.853,0.426
				c0.215,0.216,0.424,0.425,0.638,0.64c0.216,0.214,0.426,0.638,0.641,1.062l9.154,15.964c0.64,1.064,1.063,1.917,1.7,2.981
				c0.428,0.853,1.064,1.916,1.492,2.769c0.424,0.85,1.063,1.7,1.489,2.552c0.428,0.853,0.852,1.705,1.492,2.555l0,0
				c0-1.488,0-2.979,0-4.467c0-1.491,0-3.193,0-4.473v-18.944v-0.214l0.213-0.213c0.213,0,0.213,0,0.425-0.214
				c0.216,0,0.426,0,0.854,0c0.214,0,0.423,0,0.639,0c0.213,0,0.425,0,0.425,0.214c0.214,0,0.214,0.213,0.214,0.213v0.214v31.504
				h-0.217v0.001H496.579z"/>
			<path fill="#008EBF" d="M538.088,536.816c0,0.212,0,0.425,0,0.636c0,0.217,0,0.427-0.215,0.427c0,0.214-0.213,0.214-0.213,0.214
				h-0.214c-0.216,0-0.639-0.214-1.063-0.424c-0.427-0.426-1.063-0.641-1.916-1.064c-0.852-0.426-1.703-0.852-2.979-1.063
				c-1.063-0.421-2.556-0.421-4.045-0.421c-1.917,0-3.833,0.421-5.322,1.06c-1.489,0.642-2.769,1.702-4.044,2.981
				c-1.064,1.275-1.917,2.767-2.554,4.469c-0.642,1.703-0.855,3.62-0.855,5.746c0,2.341,0.426,4.258,1.064,5.96
				c0.639,1.703,1.49,3.193,2.556,4.472c1.062,1.276,2.555,2.129,4.044,2.769c1.492,0.638,3.192,1.063,5.108,1.063
				c1.275,0,2.343-0.212,3.617-0.427c1.278-0.212,2.339-0.636,3.405-1.276v-10.854h-8.514c-0.212,0-0.426-0.214-0.641-0.426
				c-0.214-0.213-0.214-0.64-0.214-1.064c0-0.214,0-0.424,0-0.639c0-0.214,0-0.424,0.214-0.424c0-0.215,0.215-0.215,0.215-0.215
				s0.216,0,0.426,0h10.218c0.213,0,0.213,0,0.424,0c0.214,0,0.425,0.215,0.425,0.215c0.213,0.212,0.213,0.212,0.428,0.424
				c0,0.215,0.212,0.425,0.212,0.853v12.56c0,0.426,0,0.853-0.212,1.063c-0.217,0.212-0.428,0.64-0.854,0.851
				c-0.424,0.215-1.063,0.641-1.917,0.854c-0.852,0.424-1.489,0.636-2.339,0.851c-0.854,0.215-1.703,0.427-2.554,0.427
				c-0.854,0.214-1.703,0.214-2.556,0.214c-2.555,0-4.896-0.426-6.813-1.276c-1.916-0.854-3.616-1.917-5.107-3.407
				c-1.277-1.492-2.34-3.192-3.193-5.321c-0.639-2.131-1.063-4.255-1.063-6.811s0.425-4.896,1.277-7.241
				c0.853-2.127,1.916-4.043,3.406-5.53c1.49-1.491,3.192-2.769,5.109-3.617c1.914-0.854,4.253-1.279,6.599-1.279
				c1.275,0,2.343,0.215,3.404,0.427c1.063,0.215,2.132,0.425,2.98,0.854c0.852,0.424,1.702,0.638,2.127,1.063
				c0.641,0.424,1.065,0.641,1.278,0.853c0.216,0.212,0.426,0.427,0.426,0.639C537.662,536.177,538.088,536.391,538.088,536.816z"/>
			<path fill="#008EBF" d="M595.987,561.722c0,0.212,0,0.424,0,0.424c0,0.215,0,0.215,0,0.427s0,0.215-0.216,0.424
				c0,0-0.215,0.215-0.426,0.427c-0.214,0.212-0.425,0.424-1.063,0.852c-0.639,0.426-1.279,0.64-2.129,1.065
				c-0.854,0.422-1.704,0.636-2.98,0.851c-1.062,0.215-2.338,0.427-3.615,0.427c-2.132,0-4.047-0.427-5.749-1.064
				c-1.701-0.639-3.19-1.703-4.469-3.192c-1.278-1.49-2.133-3.193-2.77-5.322c-0.641-2.128-1.063-4.469-1.063-7.024
				c0-2.769,0.424-5.106,1.063-7.45c0.637-2.127,1.703-4.044,2.979-5.531c1.278-1.492,2.77-2.77,4.472-3.409
				c1.703-0.851,3.619-1.276,5.746-1.276c1.065,0,1.916,0,2.98,0.217c0.852,0.213,1.917,0.425,2.553,0.639
				c0.854,0.215,1.493,0.639,2.131,1.063c0.639,0.427,1.064,0.639,1.276,0.854c0.213,0.212,0.424,0.422,0.424,0.422
				s0.214,0.217,0.214,0.426c0,0.212,0,0.212,0,0.427s0,0.425,0,0.639c0,0.212,0,0.424,0,0.639c0,0.214,0,0.424-0.214,0.424
				c0,0.216-0.213,0.216-0.213,0.216h-0.213c-0.215,0-0.639-0.216-1.063-0.64c-0.428-0.427-1.063-0.853-1.7-1.276
				c-0.642-0.427-1.493-0.854-2.555-1.275c-1.063-0.427-2.343-0.427-3.62-0.427c-1.488,0-2.979,0.212-4.256,0.851
				c-1.275,0.638-2.34,1.492-3.406,2.771c-0.853,1.273-1.702,2.766-2.129,4.466c-0.427,1.705-0.854,3.834-0.854,6.174
				c0,2.129,0.215,4.258,0.638,5.963c0.427,1.702,1.277,3.19,2.132,4.467c0.851,1.279,2.128,2.134,3.404,2.771
				c1.278,0.641,2.981,0.853,4.686,0.853c1.491,0,2.555-0.212,3.617-0.639c1.065-0.426,1.915-0.638,2.769-1.278
				c0.637-0.424,1.276-0.85,1.916-1.273c0.425-0.429,0.851-0.641,1.063-0.641h0.214l0.213,0.212c0,0.216,0,0.216,0,0.429
				C595.987,561.081,595.987,561.295,595.987,561.722z"/>
			<path fill="#008EBF" d="M627.914,564.7c0,0.215,0,0.424,0,0.641c0,0.212,0,0.422-0.213,0.422c0,0.214-0.212,0.214-0.212,0.214
				s-0.215,0-0.427,0H611.31c-0.213,0-0.635-0.214-1.061-0.424c-0.427-0.212-0.427-0.638-0.427-1.277V534.05
				c0-0.638,0.217-1.063,0.427-1.275c0.426-0.215,0.638-0.43,1.061-0.43h15.542c0.214,0,0.214,0,0.425,0l0.216,0.217
				c0,0.216,0.212,0.216,0.212,0.425c0,0.215,0,0.427,0,0.639c0,0.214,0,0.426,0,0.638c0,0.217,0,0.217-0.212,0.428
				c0,0.212-0.216,0.212-0.216,0.212s-0.214,0-0.425,0h-13.837v11.708h11.921c0.213,0,0.213,0,0.423,0l0.216,0.217
				c0,0.212,0.214,0.212,0.214,0.424s0,0.424,0,0.636c0,0.214,0,0.426,0,0.642c0,0.214,0,0.214-0.214,0.424
				c-0.216,0.214-0.216,0.214-0.216,0.214s-0.212,0-0.423,0h-11.921v13.411h14.05c0.213,0,0.213,0,0.426,0l0.212,0.214
				c0,0.212,0.214,0.212,0.214,0.424C627.914,564.274,627.914,564.486,627.914,564.7z"/>
			<path fill="#008EBF" d="M667.296,564.7c0,0.215,0,0.641-0.216,0.853c0,0.212-0.213,0.425-0.424,0.425
				c-0.213,0.215-0.213,0.215-0.424,0.215s-0.429,0-0.429,0h-0.638c-0.422,0-0.638,0-0.852-0.215c-0.214,0-0.639-0.215-0.853-0.425
				c-0.216-0.212-0.638-0.426-0.854-0.853c-0.214-0.426-0.639-0.854-0.854-1.49l-11.919-20.861c-0.639-1.063-1.278-2.129-1.7-3.192
				c-0.641-1.064-1.064-2.129-1.702-3.193l0,0c0,1.276,0,2.555,0,3.832c0,1.278,0,2.555,0,3.831v21.714v0.212l-0.215,0.212
				c-0.215,0-0.215,0-0.426,0.214c-0.212,0-0.425,0-0.849,0c-0.216,0-0.642,0-0.855,0c-0.213,0-0.425,0-0.425-0.214
				c-0.215,0-0.215-0.212-0.215-0.212v-0.212v-31.506c0-0.638,0.215-1.062,0.427-1.276c0.425-0.216,0.639-0.426,1.065-0.426h1.274
				c0.425,0,0.853,0,1.063,0c0.214,0,0.425,0.212,0.854,0.426c0.212,0.216,0.422,0.425,0.637,0.64
				c0.216,0.214,0.425,0.638,0.641,1.062l9.152,15.964c0.639,1.064,1.064,1.917,1.702,2.981c0.423,0.853,1.063,1.916,1.489,2.769
				c0.428,0.85,1.066,1.7,1.49,2.552c0.427,0.853,0.854,1.705,1.495,2.555l0,0c0-1.488,0-2.979,0-4.467c0-1.491,0-3.193,0-4.473
				v-18.944v-0.214l0.21-0.213c0.214,0,0.214,0,0.427-0.214c0.213,0,0.423,0,0.854,0c0.213,0,0.424,0,0.637,0s0.427,0,0.427,0.214
				c0.213,0,0.213,0.213,0.213,0.213v0.214v31.504h-0.213v0.001H667.296z"/>
			<path fill="#008EBF" d="M704.973,534.05c0,0.212,0,0.424,0,0.639c0,0.213,0,0.213-0.214,0.427c0,0.212-0.212,0.212-0.212,0.212
				s-0.216,0-0.426,0h-10.005v30.227v0.212l-0.214,0.216c-0.213,0-0.213,0-0.424,0.214c-0.214,0-0.426,0-0.853,0
				c-0.214,0-0.639,0-0.851,0c-0.218,0-0.429,0-0.429-0.214c-0.212,0-0.212-0.216-0.212-0.216v-0.212v-30.227h-10.006
				c-0.212,0-0.212,0-0.424,0l-0.214-0.212c0-0.217-0.212-0.217-0.212-0.427c0-0.213,0-0.427,0-0.639c0-0.214,0-0.429,0-0.638
				c0-0.215,0-0.427,0.212-0.427c0-0.212,0.214-0.212,0.214-0.212s0.215,0,0.424,0h23.203c0.212,0,0.212,0,0.425,0l0.214,0.212
				c0,0.215,0.217,0.215,0.217,0.427C704.973,533.621,704.973,533.836,704.973,534.05z"/>
			<path fill="#008EBF" d="M738.817,565.553c0,0.212,0,0.212,0,0.212l-0.217,0.215c-0.214,0-0.214,0.215-0.422,0.215
				c-0.215,0-0.427,0-0.853,0c-0.216,0-0.639,0-0.639,0c-0.215,0-0.426,0-0.426-0.215c-0.215,0-0.215-0.215-0.425-0.215
				c0-0.212-0.214-0.212-0.214-0.422l-3.192-8.088c-0.428-0.853-0.854-1.703-1.064-2.556c-0.422-0.854-0.853-1.49-1.489-2.129
				c-0.639-0.641-1.278-1.064-2.13-1.49c-0.854-0.427-1.914-0.427-2.979-0.427h-3.405v15.112v0.215l-0.216,0.215
				c-0.212,0-0.212,0-0.423,0.215c-0.216,0-0.426,0-0.854,0c-0.214,0-0.639,0-0.854,0s-0.425,0-0.425-0.215
				c-0.213,0-0.213-0.215-0.213-0.215v-0.215v-31.502c0-0.639,0.213-1.063,0.424-1.276c0.426-0.211,0.641-0.425,1.063-0.425h6.386
				c0.854,0,1.489,0,2.13,0c0.638,0,1.063,0,1.491,0.216c1.276,0.212,2.34,0.638,3.406,1.062c0.852,0.425,1.703,1.063,2.341,1.917
				c0.64,0.639,1.063,1.488,1.489,2.555c0.215,0.852,0.428,1.915,0.428,2.978c0,1.063-0.216,2.132-0.428,2.98
				c-0.213,0.852-0.851,1.703-1.274,2.342c-0.641,0.639-1.279,1.275-2.13,1.699c-0.854,0.428-1.704,0.854-2.556,1.276
				c0.639,0.217,1.063,0.639,1.491,1.064c0.425,0.424,0.851,0.853,1.276,1.275c0.425,0.642,0.853,1.064,1.064,1.917
				c0.423,0.638,0.638,1.49,1.062,2.341l3.193,7.877c0.214,0.639,0.425,1.063,0.425,1.278
				C738.604,565.341,738.817,565.553,738.817,565.553z M733.069,541.713c0-1.491-0.425-2.556-0.851-3.62
				c-0.64-1.062-1.704-1.7-3.192-2.129c-0.428-0.211-1.065-0.211-1.702-0.211c-0.641,0-1.278,0-2.344,0h-4.044v12.344h4.896
				c1.276,0,2.339-0.212,3.405-0.424c0.852-0.424,1.704-0.851,2.341-1.279c0.64-0.636,1.063-1.274,1.276-1.914
				C733.069,543.201,733.069,542.563,733.069,541.713z"/>
			<path fill="#008EBF" d="M771.385,564.7c0,0.215,0,0.424,0,0.641c0,0.212,0,0.422-0.213,0.422c0,0.214-0.214,0.214-0.214,0.214
				s-0.214,0-0.424,0h-15.752c-0.214,0-0.638-0.214-1.064-0.424c-0.426-0.212-0.426-0.638-0.426-1.277V534.05
				c0-0.638,0.215-1.063,0.426-1.275c0.428-0.215,0.641-0.43,1.064-0.43h15.54c0.213,0,0.213,0,0.424,0l0.213,0.217
				c0,0.216,0.214,0.216,0.214,0.425c0,0.215,0,0.427,0,0.639c0,0.214,0,0.426,0,0.638c0,0.217,0,0.217-0.214,0.428
				c0,0.212-0.213,0.212-0.213,0.212s-0.214,0-0.424,0h-13.836v11.708h11.92c0.213,0,0.213,0,0.426,0l0.214,0.217
				c0,0.212,0.21,0.212,0.21,0.424s0,0.424,0,0.636c0,0.214,0,0.426,0,0.642c0,0.214,0,0.214-0.21,0.424l-0.214,0.214
				c0,0-0.215,0-0.426,0h-11.92v13.411h14.049c0.214,0,0.214,0,0.424,0l0.214,0.214c0,0.212,0.215,0.212,0.215,0.424
				C771.385,564.274,771.385,564.486,771.385,564.7z"/>
			<path fill="#008EBF" d="M359.069,594.501c0,0.214,0,0.426,0,0.641c0,0.212,0,0.212-0.214,0.427c0,0.212-0.213,0.212-0.213,0.212
				s-0.215,0-0.426,0h-12.984v12.771h12.348c0.21,0,0.21,0,0.425,0l0.213,0.212c0,0,0.213,0.212,0.213,0.427
				c0,0.213,0,0.425,0,0.639c0,0.212,0,0.424,0,0.641c0,0.21,0,0.21-0.213,0.422c0,0.214-0.213,0.214-0.213,0.214s-0.216,0-0.425,0
				h-12.348v14.688v0.214l-0.213,0.215c-0.214,0-0.214,0-0.427,0.214c-0.214,0-0.425,0-0.852,0c-0.213,0-0.64,0-0.853,0
				c-0.212,0-0.425,0-0.425-0.214c-0.213,0-0.213-0.215-0.213-0.215v-0.214v-31.503c0-0.639,0.213-1.064,0.426-1.276
				c0.425-0.217,0.64-0.427,1.063-0.427h14.688c0.215,0,0.215,0,0.426,0l0.215,0.212c0,0.217,0.214,0.217,0.214,0.427
				C359.069,594.074,359.069,594.289,359.069,594.501z"/>
			<path fill="#008EBF" d="M400.365,609.402c0,2.77-0.215,5.109-0.854,7.235c-0.638,2.135-1.489,4.048-2.768,5.536
				c-1.276,1.49-2.767,2.768-4.684,3.617c-1.917,0.853-4.046,1.278-6.601,1.278s-4.683-0.427-6.387-1.278
				c-1.7-0.853-3.192-1.915-4.47-3.407c-1.063-1.487-1.917-3.192-2.556-5.319c-0.638-2.132-0.853-4.473-0.853-7.238
				c0-2.555,0.215-5.107,0.853-7.239c0.639-2.128,1.491-4.045,2.771-5.533c1.275-1.487,2.766-2.768,4.682-3.619
				c1.917-0.851,4.044-1.275,6.599-1.275c2.34,0,4.471,0.426,6.387,1.063c1.701,0.854,3.193,1.917,4.471,3.405
				c1.063,1.495,2.13,3.196,2.555,5.324C400.151,604.507,400.365,606.85,400.365,609.402z M396.958,609.828
				c0-1.914-0.213-3.831-0.638-5.533c-0.426-1.703-1.063-3.193-1.917-4.472c-0.853-1.277-1.917-2.339-3.406-2.978
				s-3.193-1.063-5.32-1.063c-2.132,0-3.833,0.426-5.323,1.063c-1.49,0.853-2.556,1.699-3.405,3.19
				c-0.853,1.281-1.489,2.77-1.917,4.472c-0.423,1.7-0.64,3.617-0.64,5.531c0,2.134,0.217,4.046,0.429,5.748
				c0.424,1.703,0.852,3.192,1.701,4.685c0.853,1.276,1.913,2.342,3.405,2.979c1.489,0.638,3.193,1.063,5.321,1.063
				c2.13,0,3.831-0.427,5.321-1.277c1.491-0.854,2.556-1.915,3.407-3.191c0.851-1.275,1.489-2.77,1.915-4.686
				C396.745,613.448,396.958,611.745,396.958,609.828z"/>
			<path fill="#008EBF" d="M436.552,626.006c0,0.215,0,0.215,0,0.215l-0.215,0.214c-0.213,0-0.213,0.213-0.424,0.213
				c-0.214,0-0.428,0-0.854,0c-0.214,0-0.638,0-0.638,0c-0.215,0-0.427,0-0.427-0.213c-0.214,0-0.214-0.214-0.426-0.214
				c0-0.215-0.214-0.215-0.214-0.427l-3.192-8.086c-0.428-0.854-0.853-1.701-1.065-2.556c-0.423-0.854-0.852-1.49-1.488-2.128
				c-0.64-0.642-1.278-1.064-2.129-1.491c-0.854-0.427-1.916-0.427-2.98-0.427h-3.405v15.113v0.214l-0.215,0.216
				c-0.211,0-0.211,0-0.423,0.214c-0.216,0-0.426,0-0.854,0c-0.214,0-0.64,0-0.853,0s-0.425,0-0.425-0.214
				c-0.214,0-0.214-0.216-0.214-0.216v-0.214v-31.506c0-0.636,0.214-1.06,0.426-1.276c0.424-0.214,0.639-0.424,1.062-0.424h6.388
				c0.854,0,1.493,0,2.132,0s1.062,0,1.49,0.215c1.274,0.212,2.34,0.639,3.403,1.064c0.854,0.421,1.704,1.062,2.343,1.916
				c0.64,0.637,1.063,1.488,1.489,2.553c0.215,0.854,0.427,1.917,0.427,2.978c0,1.066-0.214,2.131-0.427,2.98
				c-0.212,0.852-0.852,1.702-1.277,2.344c-0.639,0.637-1.277,1.275-2.128,1.699c-0.854,0.426-1.704,0.854-2.557,1.276
				c0.641,0.215,1.064,0.639,1.491,1.063c0.425,0.425,0.854,0.854,1.276,1.276c0.427,0.642,0.853,1.064,1.064,1.915
				c0.425,0.641,0.639,1.492,1.063,2.341l3.192,7.879c0.213,0.639,0.426,1.061,0.426,1.276
				C436.552,625.792,436.552,626.006,436.552,626.006z M431.018,601.951c0-1.49-0.425-2.553-1.063-3.619
				c-0.638-1.063-1.702-1.702-3.192-2.126c-0.427-0.217-1.064-0.217-1.702-0.217c-0.641,0-1.277,0-2.343,0h-4.043v12.349h4.896
				c1.276,0,2.339-0.214,3.405-0.424c0.852-0.429,1.703-0.854,2.343-1.278c0.638-0.639,1.062-1.276,1.275-1.915
				C430.805,603.654,431.018,603.016,431.018,601.951z"/>
			<path fill="#008EBF" d="M487.426,625.153c0,0.215,0,0.424,0,0.639c0,0.214,0,0.426-0.213,0.426c0,0.215-0.215,0.215-0.215,0.215
				s-0.213,0-0.422,0H472.1c-0.213,0-0.639-0.215-1.064-0.427c-0.424-0.214-0.424-0.638-0.424-1.275v-31.506v-0.212l0.213-0.217
				c0.212,0,0.212,0,0.427-0.212c0.213,0,0.426,0,0.851,0c0.215,0,0.64,0,0.853,0c0.216,0,0.427,0,0.427,0.212
				c0.212,0,0.212,0.217,0.212,0.217v0.212v30.228h12.772c0.215,0,0.215,0,0.425,0l0.213,0.214c0,0.215,0.216,0.215,0.216,0.424
				C487.426,624.729,487.426,624.941,487.426,625.153z"/>
			<path fill="#008EBF" d="M503.604,626.006v0.215l-0.214,0.214c-0.214,0-0.214,0-0.424,0.213c-0.213,0-0.425,0-0.853,0
				c-0.215,0-0.639,0-0.854,0c-0.212,0-0.424,0-0.424-0.213c-0.212,0-0.212-0.214-0.212-0.214v-0.215v-32.569v-0.212l0.212-0.212
				c0.214,0,0.214,0,0.424-0.217c0.216,0,0.425,0,0.64,0s0.639,0,0.854,0c0.213,0,0.423,0,0.423,0.217
				c0.214,0,0.214,0.212,0.214,0.212v0.212v32.569H503.604z"/>
			<path fill="#008EBF" d="M532.553,626.006c0,0.215-0.212,0.215-0.212,0.427c0,0-0.216,0.212-0.427,0.212s-0.423,0-0.638,0.215
				c-0.214,0-0.427,0-0.853,0c-0.216,0-0.427,0-0.638,0c-0.213,0-0.427,0-0.427,0c-0.215,0-0.215,0-0.425,0c0,0-0.215,0-0.215-0.215
				l-0.213-0.212c0,0,0-0.215-0.217-0.215l-11.49-31.929c0-0.215-0.214-0.424-0.214-0.639c0-0.217,0-0.217,0.214-0.427
				c0.213,0,0.213-0.212,0.641-0.212c0.21,0,0.638,0,1.061,0c0.426,0,0.637,0,0.853,0c0.215,0,0.426,0,0.426,0.212
				c0.213,0,0.213,0.212,0.213,0.212l0.215,0.218l10.431,29.586l0,0l10.217-29.586c0-0.218,0-0.218,0.214-0.218l0.215-0.212
				c0.213,0,0.213,0,0.64-0.212c0.213,0,0.423,0,0.853,0c0.425,0,0.638,0,0.851,0c0.216,0,0.427,0,0.427,0.212
				c0,0,0.213,0.212,0.213,0.427s0,0.424-0.213,0.639L532.553,626.006z"/>
			<path fill="#008EBF" d="M560.864,626.006v0.215l-0.215,0.214c-0.21,0-0.21,0-0.425,0.213c-0.213,0-0.425,0-0.853,0
				c-0.215,0-0.637,0-0.852,0s-0.427,0-0.427-0.213c-0.212,0-0.212-0.214-0.212-0.214v-0.215v-32.569v-0.212l0.212-0.212
				c0.215,0,0.215,0,0.427-0.217c0.215,0,0.424,0,0.637,0c0.215,0,0.641,0,0.854,0s0.424,0,0.424,0.217
				c0.214,0,0.214,0.212,0.214,0.212v0.212v32.569H560.864z"/>
			<path fill="#008EBF" d="M602.157,625.153c0,0.215,0,0.639-0.213,0.853c0,0.215-0.211,0.427-0.425,0.427
				c-0.213,0.213-0.213,0.213-0.424,0.213c-0.215,0-0.427,0-0.427,0h-0.638c-0.428,0-0.64,0-0.853-0.213
				c-0.216,0-0.638-0.215-0.853-0.427c-0.214-0.214-0.64-0.426-0.854-0.853c-0.213-0.427-0.639-0.853-0.853-1.49l-11.92-20.861
				c-0.64-1.063-1.276-2.129-1.7-3.192c-0.641-1.064-1.063-2.13-1.703-3.193l0,0c0,1.279,0,2.556,0,3.832c0,1.278,0,2.555,0,3.831
				v21.712v0.214l-0.212,0.214c-0.216,0-0.216,0-0.427,0.215c-0.213,0-0.424,0-0.853,0c-0.215,0-0.638,0-0.854,0
				c-0.213,0-0.423,0-0.423-0.215c-0.216,0-0.216-0.214-0.216-0.214v-0.214v-31.504c0-0.638,0.216-1.064,0.426-1.275
				c0.427-0.217,0.64-0.427,1.063-0.427h1.277c0.424,0,0.853,0,1.062,0c0.216,0,0.427,0.212,0.854,0.427
				c0.213,0.211,0.424,0.421,0.639,0.638c0.211,0.215,0.422,0.639,0.639,1.063l9.153,15.964c0.638,1.066,1.063,1.917,1.7,2.981
				c0.425,0.853,1.064,1.914,1.491,2.767c0.423,0.854,1.063,1.703,1.491,2.556c0.426,0.851,0.851,1.702,1.488,2.554l0,0
				c0-1.489,0-2.979,0-4.468c0-1.493,0-2.981,0-4.473V593.01v-0.217l0.217-0.212c0.213,0,0.213,0,0.424-0.212
				c0.214,0,0.425,0,0.854,0c0.213,0,0.424,0,0.639,0c0.211,0,0.423,0,0.423,0.212c0.217,0,0.217,0.212,0.217,0.212v0.217v32.143
				h-0.217v0.001H602.157z"/>
			<path fill="#008EBF" d="M643.667,597.268c0,0.218,0,0.428,0,0.642s0,0.424-0.213,0.424c0,0.212-0.213,0.212-0.213,0.212h-0.214
				c-0.216,0-0.639-0.212-1.065-0.422c-0.423-0.426-1.063-0.638-1.915-1.064c-0.852-0.426-1.7-0.85-2.979-1.063
				c-1.064-0.425-2.556-0.425-4.045-0.425c-1.916,0-3.832,0.425-5.322,1.063c-1.489,0.639-2.767,1.703-4.044,2.981
				c-1.063,1.275-1.916,2.765-2.556,4.47c-0.638,1.702-0.854,3.617-0.854,5.745c0,2.344,0.428,4.256,1.064,5.963
				c0.64,1.702,1.49,3.19,2.769,4.47c1.063,1.275,2.555,2.128,4.047,2.768c1.49,0.638,3.19,1.063,5.107,1.063
				c1.274,0,2.341-0.215,3.616-0.427c1.277-0.212,2.343-0.638,3.406-1.276v-10.854h-8.516c-0.212,0-0.423-0.214-0.639-0.424
				c-0.214-0.212-0.214-0.639-0.214-1.064c0-0.214,0-0.424,0-0.638c0-0.215,0-0.427,0.214-0.427c0-0.213,0.216-0.213,0.216-0.213
				s0.214,0,0.424,0h10.217c0.213,0,0.428,0,0.428,0c0.212,0,0.423,0.213,0.423,0.213c0.216,0.214,0.216,0.214,0.427,0.427
				c0,0.214,0.211,0.424,0.211,0.852v12.56c0,0.424,0,0.851-0.211,1.063c-0.213,0.214-0.427,0.642-0.853,0.854
				c-0.427,0.214-1.063,0.638-1.917,0.85c-0.854,0.429-1.489,0.641-2.342,0.854c-0.85,0.215-1.701,0.424-2.554,0.424
				c-0.854,0.215-1.7,0.215-2.556,0.215c-2.554,0-4.894-0.424-6.809-1.276c-1.917-0.853-3.619-1.917-5.109-3.406
				c-1.276-1.491-2.342-3.193-3.191-5.322c-0.854-2.129-1.063-4.255-1.063-6.812c0-2.555,0.425-4.896,1.275-7.237
				c0.852-2.129,1.916-4.043,3.406-5.531c1.492-1.493,3.192-2.771,5.108-3.619c1.916-0.853,4.258-1.277,6.601-1.277
				c1.275,0,2.341,0.214,3.406,0.426c1.063,0.212,2.129,0.424,2.979,0.853c0.854,0.426,1.704,0.638,2.13,1.063
				c0.641,0.425,1.064,0.639,1.278,0.851c0.214,0.214,0.422,0.429,0.422,0.641C643.667,596.63,643.667,596.844,643.667,597.268z"/>
			<path fill="#008EBF" d="M696.67,617.491c0,1.49-0.213,2.767-0.852,4.043c-0.639,1.279-1.276,2.131-2.342,2.98
				c-1.063,0.851-2.13,1.49-3.406,1.917c-1.277,0.425-2.768,0.639-4.255,0.639c-1.064,0-2.131,0-2.979-0.214
				c-0.854-0.216-1.704-0.425-2.555-0.64c-0.641-0.214-1.277-0.641-1.917-0.853c-0.425-0.214-0.854-0.426-1.065-0.639
				c-0.211-0.215-0.421-0.426-0.421-0.641c0-0.212-0.216-0.638-0.216-1.063c0-0.212,0-0.639,0-0.639c0-0.212,0-0.424,0.216-0.424
				c0-0.215,0.213-0.215,0.213-0.215h0.211c0.215,0,0.641,0.215,1.065,0.427c0.427,0.212,1.063,0.638,1.702,1.063
				c0.64,0.427,1.489,0.641,2.555,1.063c1.063,0.214,2.128,0.427,3.406,0.427c1.063,0,2.128-0.215,2.979-0.427
				c0.854-0.214,1.701-0.638,2.339-1.278c0.641-0.639,1.064-1.275,1.492-1.914c0.425-0.854,0.639-1.7,0.639-2.768
				c0-1.066-0.214-1.917-0.639-2.77c-0.425-0.639-1.063-1.488-1.701-1.914c-0.641-0.642-1.488-1.064-2.555-1.488
				c-0.852-0.427-1.917-0.854-2.769-1.279c-1.064-0.424-1.917-0.854-2.77-1.492c-0.852-0.639-1.7-1.063-2.554-1.916
				c-0.641-0.637-1.278-1.488-1.7-2.554c-0.427-1.062-0.639-2.129-0.639-3.405c0-1.277,0.212-2.555,0.639-3.404
				c0.422-1.066,1.062-1.916,1.915-2.556c0.851-0.641,1.915-1.277,2.979-1.701c1.275-0.43,2.555-0.642,3.83-0.642
				c0.64,0,1.489,0,2.134,0.212c0.636,0.217,1.488,0.217,2.128,0.43c0.638,0.212,1.274,0.424,1.701,0.636
				c0.424,0.214,0.854,0.426,1.063,0.641c0.21,0.212,0.211,0.212,0.211,0.426c0,0,0,0.213,0.216,0.213c0,0.212,0,0.212,0,0.427
				c0,0.212,0,0.421,0,0.638c0,0.212,0,0.424,0,0.639s0,0.425-0.216,0.425c0,0.216-0.211,0.216-0.211,0.216h-0.214
				c-0.216,0-0.427-0.216-0.854-0.426c-0.425-0.215-0.853-0.642-1.489-0.854c-0.641-0.217-1.277-0.638-2.129-0.854
				c-0.854-0.213-1.704-0.423-2.771-0.423c-1.062,0-1.917,0.212-2.767,0.423c-0.854,0.217-1.489,0.638-1.917,1.063
				c-0.425,0.426-0.853,1.066-1.063,1.704c-0.216,0.639-0.426,1.273-0.426,1.915c0,1.062,0.212,1.914,0.639,2.767
				c0.425,0.64,1.063,1.491,1.701,1.917c0.639,0.64,1.49,1.064,2.555,1.491c0.853,0.424,1.915,0.853,2.979,1.275
				c1.064,0.427,1.916,0.853,2.98,1.493c0.852,0.422,1.7,1.06,2.556,1.915c0.638,0.641,1.273,1.489,1.7,2.553
				C696.458,615.15,696.67,616.215,696.67,617.491z"/>
			<path fill="#008EBF" d="M720.086,613.448v12.77v0.215l-0.215,0.215c-0.214,0-0.214,0-0.423,0.212c-0.216,0-0.429,0-0.854,0
				c-0.213,0-0.639,0-0.851,0c-0.214,0-0.428,0-0.428-0.212c-0.214,0-0.214-0.215-0.214-0.215v-0.215v-12.77l-9.576-19.374
				c-0.214-0.212-0.214-0.421-0.214-0.639c0-0.215,0-0.215,0.214-0.424c0,0,0.216-0.215,0.424-0.215c0.213,0,0.424,0,0.853,0
				c0.43,0,0.641,0,0.853,0c0.214,0,0.426,0,0.638,0.215c0.216,0,0.216,0.212,0.427,0.212l0.214,0.214l5.107,10.433
				c0.427,1.063,1.063,1.917,1.492,2.979c0.424,1.064,0.853,2.129,1.489,3.193l0,0c0.428-1.064,0.853-2.129,1.277-2.977
				c0.426-1.067,0.852-2.135,1.491-3.196l5.107-10.433c0-0.214,0.216-0.214,0.216-0.214l0.213-0.212c0.213,0,0.213,0,0.426-0.215
				c0.211,0,0.423,0,0.639,0c0.424,0,0.853,0,1.061,0c0.217,0,0.428,0,0.641,0.215c0,0,0.214,0.212,0.214,0.424
				c0,0.218,0,0.427-0.214,0.639L720.086,613.448z"/>
			<path fill="#008EBF" d="M759.893,617.491c0,1.49-0.216,2.767-0.854,4.043c-0.639,1.279-1.277,2.131-2.34,2.98
				c-1.063,0.854-2.129,1.49-3.406,1.917c-1.278,0.425-2.768,0.639-4.255,0.639c-1.065,0-2.132,0-2.982-0.214
				c-0.85-0.216-1.702-0.425-2.554-0.64c-0.638-0.214-1.277-0.641-1.914-0.853c-0.424-0.214-0.853-0.426-1.065-0.639
				c-0.212-0.215-0.424-0.426-0.424-0.641c0-0.212-0.211-0.638-0.211-1.063c0-0.212,0-0.639,0-0.639c0-0.212,0-0.424,0.211-0.424
				c0-0.215,0.213-0.215,0.213-0.215h0.216c0.214,0,0.64,0.215,1.063,0.427s1.063,0.638,1.703,1.063
				c0.638,0.427,1.489,0.641,2.554,1.063c1.063,0.214,2.129,0.427,3.407,0.427c1.063,0,1.913-0.215,2.979-0.427
				c0.852-0.214,1.699-0.638,2.34-1.278c0.637-0.639,1.063-1.275,1.492-1.914c0.424-0.854,0.637-1.7,0.637-2.768
				c0-1.066-0.213-1.917-0.637-2.77c-0.427-0.639-1.066-1.488-1.703-1.914c-0.64-0.642-1.49-1.064-2.556-1.488
				c-0.851-0.427-1.916-0.854-2.766-1.279c-1.065-0.424-1.917-0.854-2.771-1.492c-0.853-0.639-1.701-1.063-2.554-1.916
				c-0.639-0.637-1.275-1.488-1.704-2.554c-0.424-1.062-0.637-2.129-0.637-3.405c0-1.277,0.213-2.555,0.637-3.404
				c0.429-1.066,1.065-1.916,1.917-2.556c0.853-0.641,1.916-1.277,2.979-1.701c1.279-0.43,2.554-0.642,3.834-0.642
				c0.636,0,1.49,0,2.129,0.212c0.638,0.217,1.49,0.217,2.127,0.43c0.641,0.212,1.279,0.424,1.703,0.636
				c0.425,0.214,0.853,0.426,1.063,0.641c0.217,0.212,0.217,0.212,0.217,0.426c0,0,0,0.213,0.214,0.213c0,0.212,0,0.212,0,0.427
				c0,0.212,0,0.421,0,0.638c0,0.212,0,0.424,0,0.639s0,0.425-0.214,0.425c0,0.216-0.217,0.216-0.217,0.216h-0.214
				c-0.212,0-0.425-0.216-0.852-0.426c-0.425-0.215-0.853-0.642-1.492-0.854c-0.637-0.217-1.276-0.638-2.128-0.854
				c-0.851-0.213-1.703-0.423-2.767-0.423c-1.064,0-1.917,0.212-2.77,0.423c-0.853,0.217-1.492,0.638-1.916,1.063
				c-0.425,0.426-0.853,1.066-1.063,1.704c-0.212,0.639-0.426,1.273-0.426,1.915c0,1.062,0.214,1.914,0.639,2.767
				c0.426,0.64,1.063,1.491,1.704,1.917c0.638,0.64,1.488,1.064,2.555,1.491c0.851,0.424,1.913,0.853,2.977,1.275
				c1.064,0.427,1.916,0.853,2.979,1.493c0.854,0.422,1.702,1.06,2.556,1.915c0.642,0.641,1.277,1.489,1.703,2.553
				C759.678,615.15,759.893,616.215,759.893,617.491z"/>
			<path fill="#008EBF" d="M794.588,594.501c0,0.214,0,0.426,0,0.641c0,0.212,0,0.212-0.215,0.427c0,0.212-0.213,0.212-0.213,0.212
				s-0.216,0-0.426,0H783.73v30.227v0.215l-0.216,0.214c-0.212,0-0.212,0-0.422,0.212c-0.215,0-0.426,0-0.854,0
				c-0.213,0-0.64,0-0.852,0c-0.213,0-0.427,0-0.427-0.212c-0.213,0-0.213-0.214-0.213-0.214v-0.215V595.78h-10.006
				c-0.211,0-0.211,0-0.421,0l-0.217-0.212c0-0.218-0.213-0.218-0.213-0.427c0-0.212,0-0.427,0-0.641c0-0.212,0-0.424,0-0.636
				c0-0.215,0-0.43,0.213-0.43c0-0.212,0.217-0.212,0.217-0.212s0.213,0,0.421,0h23.205c0.214,0,0.214,0,0.425,0l0.214,0.212
				c0,0.218,0.214,0.218,0.214,0.43C794.588,594.074,794.588,594.289,794.588,594.501z"/>
			<path fill="#008EBF" d="M825.24,625.153c0,0.215,0,0.424,0,0.639c0,0.214,0,0.426-0.213,0.426c0,0.215-0.215,0.215-0.215,0.215
				s-0.214,0-0.424,0h-15.754c-0.213,0-0.639-0.215-1.062-0.427c-0.429-0.214-0.429-0.638-0.429-1.275v-30.229
				c0-0.636,0.216-1.064,0.429-1.276c0.423-0.212,0.638-0.427,1.062-0.427h15.542c0.213,0,0.213,0,0.423,0l0.215,0.217
				c0,0.212,0.214,0.212,0.214,0.422c0,0.218,0,0.43,0,0.642c0,0.214,0,0.424,0,0.638c0,0.215,0,0.215-0.214,0.427
				c0,0.212-0.215,0.212-0.215,0.212s-0.212,0-0.423,0h-13.836v11.711h11.919c0.214,0,0.214,0,0.425,0l0.216,0.212
				c0,0.212,0.212,0.212,0.212,0.425c0,0.216,0,0.426,0,0.64c0,0.215,0,0.424,0,0.636c0,0.218,0,0.218-0.212,0.428l-0.216,0.214
				c0,0-0.214,0-0.425,0h-11.919v13.408h14.049c0.214,0,0.214,0,0.423,0l0.216,0.215c0,0.214,0.213,0.214,0.213,0.426
				C825.24,624.729,825.24,624.941,825.24,625.153z"/>
			<path fill="#008EBF" d="M875.688,626.006v0.215l-0.215,0.214c-0.213,0-0.213,0-0.424,0.213c-0.214,0-0.425,0-0.854,0
				c-0.213,0-0.424,0-0.64,0c-0.213,0-0.423,0-0.423-0.213c-0.215,0-0.215-0.214-0.215-0.214v-0.215v-30.227l0,0l-13.197,30.44
				c0,0,0,0.214-0.215,0.214l-0.213,0.212c-0.213,0-0.213,0-0.426,0s-0.424,0-0.639,0c-0.213,0-0.425,0-0.641,0
				c-0.212,0-0.212,0-0.423,0c-0.214,0-0.214,0-0.214-0.212l-0.212-0.214l-12.559-30.44l0,0v30.227v0.215l-0.215,0.214
				c-0.214,0-0.214,0-0.428,0.213c-0.212,0-0.423,0-0.853,0c-0.211,0-0.638,0-0.638,0c-0.212,0-0.423,0-0.423-0.213
				c-0.216,0-0.216-0.214-0.216-0.214v-0.215v-31.505c0-0.636,0.216-1.064,0.427-1.276c0.425-0.212,0.639-0.427,1.063-0.427h1.7
				c0.429,0,0.854,0,1.066,0.217c0.423,0,0.638,0.212,0.851,0.422c0.215,0.218,0.427,0.43,0.64,0.642
				c0.213,0.214,0.426,0.638,0.426,0.853l11.069,26.606h0.213l11.494-26.606c0.215-0.427,0.425-0.853,0.639-1.063
				c0.216-0.214,0.427-0.43,0.638-0.642c0.214-0.212,0.427-0.212,0.642-0.426c0.214,0,0.425,0,0.854,0h1.913
				c0.214,0,0.425,0,0.425,0c0.214,0,0.426,0.217,0.426,0.217c0.215,0.212,0.215,0.212,0.427,0.421c0,0.218,0.214,0.43,0.214,0.855
				v31.717h-0.85v-0.005H875.688L875.688,626.006z"/>
			<path fill="#008EBF" d="M909.96,617.491c0,1.49-0.212,2.767-0.852,4.043c-0.64,1.279-1.277,2.131-2.343,2.98
				c-1.064,0.854-2.128,1.49-3.404,1.917c-1.277,0.425-2.771,0.639-4.258,0.639c-1.063,0-2.129,0-2.979-0.214
				c-0.853-0.216-1.7-0.425-2.555-0.64c-0.639-0.214-1.275-0.641-1.916-0.853c-0.423-0.214-0.852-0.426-1.062-0.639
				c-0.216-0.215-0.428-0.426-0.428-0.641c0-0.212-0.213-0.638-0.213-1.063c0-0.212,0-0.639,0-0.639c0-0.212,0-0.424,0.213-0.424
				c0-0.215,0.217-0.215,0.217-0.215h0.213c0.212,0,0.64,0.215,1.063,0.427s1.063,0.638,1.7,1.063
				c0.638,0.427,1.492,0.641,2.555,1.063c1.064,0.214,2.129,0.427,3.405,0.427c1.063,0,2.133-0.215,2.979-0.427
				c0.853-0.214,1.702-0.638,2.344-1.278c0.638-0.639,1.06-1.275,1.488-1.914c0.425-0.854,0.639-1.7,0.639-2.768
				c0-1.066-0.214-1.917-0.639-2.77c-0.428-0.639-1.063-1.488-1.703-1.914c-0.635-0.642-1.49-1.064-2.552-1.488
				c-0.854-0.427-1.917-0.854-2.771-1.279c-1.062-0.424-1.915-0.854-2.767-1.492c-0.853-0.639-1.703-1.063-2.556-1.916
				c-0.639-0.637-1.277-1.488-1.702-2.554c-0.424-1.062-0.64-2.129-0.64-3.405c0-1.277,0.217-2.555,0.64-3.404
				c0.425-1.066,1.063-1.916,1.916-2.556c0.854-0.641,1.915-1.277,2.979-1.701c1.277-0.43,2.556-0.642,3.83-0.642
				c0.641,0,1.49,0,2.129,0.212c0.641,0.217,1.49,0.217,2.132,0.43c0.635,0.212,1.274,0.424,1.7,0.636
				c0.428,0.214,0.852,0.426,1.064,0.641c0.211,0.212,0.213,0.212,0.213,0.426c0,0,0,0.213,0.212,0.213c0,0.212,0,0.212,0,0.427
				c0,0.212,0,0.421,0,0.638c0,0.212,0,0.424,0,0.639s0,0.425-0.212,0.425c0,0.216-0.213,0.216-0.213,0.216h-0.216
				c-0.212,0-0.423-0.216-0.853-0.426c-0.425-0.215-0.853-0.642-1.488-0.854c-0.64-0.217-1.278-0.638-2.131-0.854
				c-0.854-0.213-1.7-0.423-2.77-0.423c-1.063,0-1.914,0.212-2.767,0.423c-0.854,0.217-1.49,0.638-1.916,1.063
				c-0.427,0.426-0.852,1.066-1.063,1.704c-0.213,0.639-0.424,1.273-0.424,1.915c0,1.062,0.213,1.914,0.638,2.767
				c0.423,0.64,1.063,1.491,1.7,1.917c0.641,0.64,1.49,1.064,2.554,1.491c0.854,0.424,1.917,0.853,2.981,1.275
				c1.063,0.427,1.914,0.853,2.979,1.493c0.853,0.422,1.701,1.06,2.554,1.915c0.639,0.641,1.276,1.489,1.703,2.553
				C909.748,615.15,909.96,616.215,909.96,617.491z"/>
		</g>
		<g>
			<path fill="#008EBF" d="M414.413,395.687l-13.409,15.541c-5.534-6.386-13.197-11.495-23.842-11.495
				c-18.945,0-31.289,14.049-31.289,33.632c0,19.585,12.345,33.846,31.289,33.846c10.643,0,18.518-5.11,24.055-11.708l13.196,15.54
				c-10.216,11.282-22.351,15.751-37.464,15.751c-30.866,0-52.789-22.778-52.789-53.43c0-30.439,21.923-53.213,52.789-53.213
				C393.34,380.361,404.409,385.469,414.413,395.687z"/>
			<path fill="#008EBF" d="M506.371,401.647h-45.128v22.351h38.954v18.092h-38.954v23.628h46.19v19.371h-67.689V382.063h66.414
				v19.584H506.371z"/>
			<path fill="#008EBF" d="M619.401,486.792h-0.64l-60.667-59.175v57.472h-21.5V380.361h0.639l60.88,59.174v-57.472h21.5v104.729
				H619.401z"/>
			<path fill="#008EBF" d="M734.135,401.009h-33.42v84.081h-21.286v-84.081h-33.42v-18.946h88.126V401.009L734.135,401.009z"/>
			<path fill="#008EBF" d="M838.439,448.052c0,23.416-13.627,38.743-39.595,38.743c-25.97,0-39.591-15.328-39.591-38.743v-65.986
				h21.499v64.5c0,12.345,5.961,20.646,18.095,20.646c12.133,0,18.309-8.302,18.309-20.646v-64.5h21.287v65.986H838.439z"/>
			<path fill="#008EBF" d="M948.488,415.483c0,14.475-7.877,24.693-18.946,29.588l23.84,39.806h-24.692l-21.5-36.188h-14.049v36.188
				h-21.287V382.063h40.229C931.672,382.063,948.488,394.198,948.488,415.483z M892.932,400.584v29.586h17.029
				c10.001,0,16.817-5.106,16.817-14.9c0-9.58-6.813-14.9-16.817-14.9h-17.029V400.584z"/>
			<path fill="#008EBF" d="M1000,485.09h-21.5V382.063h21.5V485.09z"/>
		</g>
	</g>
	<g>
		<path fill="#008EBF" d="M84.476,418.889L84.476,418.889L84.476,418.889z"/>
		<path fill="#008EBF" d="M29.344,431.023c1.277-1.279,2.342-2.768,3.193-4.046c1.065-1.702,2.129-3.616,2.981-5.533
			c1.063-2.128,2.127-3.832,3.193-5.322c3.191-4.256,6.385-6.386,10.217-7.45c2.129-0.638,4.897,0.425,5.959,2.128l0.427,0.639
			c0.852,1.277,1.49,2.342,2.341,3.409c2.555,3.405,5.96,5.746,10.856,7.024c1.065,0.424,2.129,0.638,2.769,1.063
			c2.127,1.063,4.044,2.131,5.748,3.193c2.127,1.277,4.47,2.342,6.81,2.98c2.768,0.853,5.322,1.702,7.45,3.192
			c2.342,1.705,3.619,3.831,3.619,6.6c0,1.063,0.214,2.34,0.638,3.404c0.852,2.769,2.555,5.109,5.11,7.026
			c0.638,0.638,1.49,1.062,2.341,1.49l0.214,0.214c0.214,0.212,0.638,0.426,0.852,0.638c2.555,1.703,5.535,2.129,7.875,2.341
			c0.427,0,0.852,0,1.491-0.213c0.424,0,0.852-0.213,1.063-0.213c1.704,0,3.406-0.641,5.322-1.917
			c1.278-0.85,2.769-1.915,4.044-2.767l0.852-0.639c1.917-1.491,3.619-2.979,5.109-4.472c0.638-0.638,1.49-1.49,1.703-2.555
			c0.212-1.276,0.424-2.556-0.213-3.617c-0.425-0.638-1.276-1.064-2.768-1.277c-0.212,0-0.212,0-0.425,0
			c-0.214,0-0.426-0.213-0.638-0.213c-3.406-0.425-5.748,0.213-7.45,2.129l-0.427,0.424c-0.424,0.427-0.852,0.854-1.276,1.279
			l-0.639,0.638c-0.852,0.854-1.701,1.491-2.554,1.917c-1.063,0.639-2.128,0.853-4.045,0.853c-2.342,0-4.256-0.853-5.748-2.342
			c-0.425-0.641-1.063-1.064-1.704-1.703c-0.852-0.639-1.276-1.703-1.702-2.556l-0.212-0.212c-0.638-1.491-1.064-3.194-0.852-5.534
			c0-0.853,0.426-1.703,0.852-2.342c1.277-1.489,2.98-2.34,5.11-2.978c2.341-0.638,4.682-1.278,7.023-2.343
			c1.704-0.639,3.407-1.703,4.895-2.554c0.852-0.426,1.703-0.852,2.555-1.278c1.703-0.853,3.193-1.277,4.896-1.277h0.427
			c3.832,0,6.386,2.339,7.663,4.256c1.917,2.768,2.98,6.172,3.194,9.792v0.854c0,0.852,0,1.489,0,2.34
			c-0.214,1.917,0.638,3.62,1.276,5.109c0,0.214,0.213,0.214,0.424,0.639c1.491,2.128,2.342,4.256,3.406,6.81v0.214
			c0.639,1.488,0.852,2.979,0.639,4.47c-0.213,2.767-1.277,4.472-3.407,5.533c-1.917,0.851-3.833,1.49-5.534,2.128l-2.128,0.854
			c-2.128,0.851-4.471,1.489-6.174,3.406c-1.063,1.063-2.128,1.916-3.193,2.768c-1.064,0.853-2.128,1.703-2.979,2.555
			c-1.703,1.49-3.62,2.555-5.961,3.192c-1.917,0.426-3.619,0-4.683-1.49c-0.213-0.426-0.638-0.852-0.852-1.276
			c-0.638-0.852-1.065-1.489-1.703-2.34c-1.065-1.917-2.768-2.77-5.109-3.407c-1.917-0.427-3.832-0.853-5.748-0.853
			c-0.852,0-1.917-0.425-2.768-0.638h-0.212c-1.916-0.638-2.981-2.131-3.833-3.832c-0.426-0.641-0.64-1.279-0.853-1.917
			c-0.212-0.853-0.638-1.49-0.852-2.128c-0.424-0.854-0.851-1.491-1.276-2.129c-0.638-1.064-1.277-1.917-1.702-2.979
			c-0.638-1.492-1.703-2.555-2.769-3.618c-0.851-0.854-1.277-1.491-1.917-2.13c-0.424-0.638-1.063-1.063-1.49-1.275
			c-0.212-0.214-0.426-0.214-0.639-0.426l-0.212-0.852c-0.853-0.64-1.916-1.493-2.766-2.131c-0.852-0.638-1.917-1.064-2.769-1.703
			l-1.063-0.638c-0.213,0-0.213-0.214-0.426-0.214c-0.638-0.425-1.064-0.639-1.703-0.852c-2.555-0.638-4.682-1.704-6.811-2.979
			c-0.638-0.427-1.49-0.854-2.342-1.279l-0.639-0.212c-0.852-0.426-1.917-0.854-2.767-1.491c-1.703-1.276-3.831-2.129-6.599-2.767
			c-2.128-0.427-4.044-0.214-5.535,0.853c-1.277,0.853-1.917,1.7-2.129,2.766c-0.425,2.343,1.491,6.387,3.619,7.449
			c0.213,0.214,0.424,0.214,0.638,0.214l1.489,0.212c1.277,0.215,2.555,0.215,3.833,0.215c2.767,0,5.109,0.853,7.663,2.13
			c0.639,0.213,1.277,0.638,1.702,1.063h0.213c0.852,0.425,1.702,1.064,2.554,1.492c4.896,2.342,9.154,6.173,12.559,11.281
			c1.917,2.555,3.619,5.109,5.748,7.877c1.276,1.702,2.128,3.405,2.34,5.106c0.214,1.279,0,2.342-0.638,3.407
			c-0.851,1.278-1.917,2.341-2.767,3.405c-0.426,0.426-0.852,1.064-1.277,1.493c-1.49,1.7-2.341,3.616-2.768,5.533
			c-0.638,3.192-1.49,6.386-2.341,9.154l-0.213,0.639c-0.638,2.129-1.065,4.256-1.065,6.599c-0.211,2.555-0.211,5.11,0,7.665
			c0,2.127,0.427,4.043,1.277,5.746c1.065,2.555,2.127,4.893,3.193,7.023c0.427,0.854,0.852,1.49,1.278,2.339l0.212,0.427
			c0.426,0.641,0.638,1.275,1.065,1.916c1.489,2.768,2.555,5.107,3.619,7.236c0.211,0.641,0.638,1.276,0.852,1.917
			c0.211,0.851,0.638,1.702,1.063,2.553c1.064,1.917,1.702,3.834,2.129,5.96l0.425,1.063c0.427,1.491,0.427,1.705,0.213,3.196v0.426
			c-0.426,1.698-1.277,2.978-2.767,4.253c-0.852,0.642-1.276,0.854-2.128,0.215l-1.278-0.853c-2.127-1.276-4.256-2.556-6.171-4.044
			c-2.341-1.917-4.257-4.26-5.534-8.091c-0.214-0.852-0.64-1.488-0.852-2.336c-0.639-2.132-1.491-4.261-2.555-6.39
			c-0.213-0.215-0.213-0.215-0.213-0.427c-1.065-4.043-2.979-7.874-4.896-11.494l-1.064-2.338c-0.426-0.853-0.852-1.702-1.277-2.555
			c-0.64-1.276-1.278-2.341-1.703-3.408c-0.852-1.916-1.49-3.831-1.917-6.172c-0.214-0.851-0.214-1.914,0-2.767
			c0.639-2.771,1.703-5.324,2.767-7.663l0.212-0.425c1.064-2.343,2.555-5.109,3.619-7.665c0.852-1.916,1.49-4.043,2.342-6.598
			c0.427-1.704,0.64-3.193,0.64-4.258c0-1.065,0-2.129,0-3.193c0-2.554,0-4.894-0.426-7.448c-0.638-3.619-3.619-7.665-8.302-7.024
			c-2.34,0.213-4.682,2.767-4.682,4.894c0,1.493,0.211,3.194,1.063,4.687c0.214,0.424,0.426,0.85,0.64,1.062
			c0.638,1.064,1.063,1.916,1.276,2.768c1.064,3.618,0.638,7.239-1.065,10.854l-0.852,1.704c-1.063,2.342-2.555,5.323-3.832,8.302
			c-0.639,1.277-1.065,2.766-1.277,4.044l-0.214,0.853c-0.213,0.853-0.425,1.49-0.851,2.129v0.214
			c-0.638,1.276-1.064,2.771-1.277,4.255c-0.213,1.064-0.213,2.341,0,3.62c0.851,3.617,2.768,6.811,4.471,10.003
			c1.917,3.405,3.405,6.172,4.681,8.729c0.427,0.852,0.852,1.916,1.065,2.769c0.213,0.422,0.213,0.849,0.427,1.276
			c0.213,0.636,0.425,1.063,0.638,1.7v0.215c0.638,1.49,1.063,2.767,1.49,4.045c0.851,3.407,2.555,6.384,4.472,9.363l0.852,1.492
			c0.211,0.425,0.638,1.063,0.85,1.49l0.213,0.214c0.213,0.422,0.639,0.854,0.851,1.276c0.214,0.424,0.428,0.851,0.64,1.279
			l0.426,0.638c0.637,1.06,1.277,2.127,1.917,3.192c0.852,1.276,1.915,2.768,3.618,3.19c2.13,0.639,4.257,0.854,6.386,0.215
			c1.917-0.427,3.194-0.851,4.47-1.491c1.277-0.638,2.129-0.426,3.406,0.642c0.214,0.212,0.214,0.422,0.426,0.422
			c0.212,0.214,0.212,0.427,0.426,0.641c3.406,4.255,4.045,8.938,1.702,14.262c-0.212,0.426-0.426,0.853-0.426,1.489
			c-0.212,0.428-0.212,0.854-0.426,1.491c-0.426,1.278-0.638,2.555-0.852,3.831c-0.214,2.555,0.638,4.046,2.341,4.896
			c1.065,0.424,2.769,1.277,4.471,1.063c3.618-0.212,6.386-3.191,6.598-6.808c0-1.279-0.426-2.557-0.851-3.832
			c-0.212-0.427-0.212-0.642-0.426-1.066c-1.063-3.405-1.489-6.599-1.489-9.577v-1.699v-0.854c0-1.063,0-2.129,0-3.191
			c0-1.277-0.213-2.341-0.638-3.616l-0.214-0.641c-0.424-1.703-1.276-3.19-1.917-4.894l-0.212-0.215
			c-1.064-1.917-1.277-4.258-0.852-6.602c0.638-2.769,0.424-5.531-0.64-8.938c-0.424-1.278-1.063-2.341-1.49-3.407
			c-0.212-0.424-0.425-0.854-0.638-1.279c-0.638-1.06-1.278-2.338-1.703-3.404l-0.64-1.063c-1.277-2.553-2.767-5.108-4.043-7.663
			c-1.49-3.189-2.341-6.599-2.341-10.001c0-0.641,0-1.49,0-2.131c0-1.064,0-1.915,0-2.979c0-2.341,0.424-4.896,1.276-8.303
			c0.213-0.85,0.638-1.488,0.852-2.341c0.213-0.424,0.424-1.064,0.638-1.49c1.064-2.768,1.489-5.535,1.702-8.302v-0.639
			c0-0.641,0.213-1.063,0.213-1.704c0.638-3.829,2.555-5.321,6.172-4.895c0.213,0,0.213,0,0.639,0.213
			c0.211,0,0.424,0.213,0.638,0.213c3.619,0.639,7.024,2.131,10.642,3.831c1.065,0.427,1.489,1.279,1.703,2.771
			c0.214,2.555-0.638,4.683-2.768,7.021c-1.703,1.917-3.192,3.834-4.682,5.537c-0.639,0.854-1.065,1.49-1.277,2.129
			c-0.427,1.275-0.639,2.556-0.639,3.616c0,0.854-0.212,1.915-0.426,2.771c0,0.212,0,0.422,0,0.639
			c0.426,0.85,0.426,1.7,0.426,2.767c0,0.425,0,0.852,0,1.278c0,2.553,0.639,5.107,1.702,7.448c0.64,1.491,1.278,2.77,1.704,4.046
			c0.851,1.914,1.489,3.617,2.34,5.322c0.641,1.702,1.065,3.406,1.492,5.532c0.425,2.769,1.063,5.322,1.915,7.663
			c0.426,1.063,0.852,2.13,1.278,3.19l0.212,0.427c0.852,2.341,1.703,4.47,2.555,6.599c0.852,2.556,1.278,5.109,1.278,7.447
			c0,3.408,0,7.027,0.424,11.07c0,0.215,0,0.427,0.214,0.427c0,0.212,0.213,0.427,0.213,0.427c0,1.49,0.638,2.767,1.065,4.255
			c0.425,0.853,0.638,1.702,0.85,2.556c0.427,1.702,0.427,2.979,0.213,4.255c-0.852,3.617-2.766,6.602-4.683,8.939
			c-0.426,0.424-0.852,1.063-1.278,1.491l-0.425,0.423c-1.065,1.28-2.127,2.771-3.193,4.258c-1.065,1.49-2.341,2.98-3.832,4.47
			c-0.638,0.426-1.276,0.854-2.128,1.278l-0.426,0.214c-2.343,1.063-4.684,2.132-7.025,3.193c-1.277,0.639-2.128,1.699-2.342,2.979
			c-0.213,1.702-0.213,4.043,0.852,6.172c0.425,0.853,1.276,1.49,1.916,1.7c1.916,0.638,3.831,0.429,5.321-0.212
			c1.277-0.639,2.341-1.276,3.192-2.557c0.426-0.638,1.065-1.489,1.49-2.128l0.213-0.215c0.638-0.853,1.278-1.7,1.916-2.767
			c0.424-0.852,1.065-1.703,1.917-2.343s1.701-1.491,2.553-2.128c0.639-0.426,1.065-0.853,1.491-1.277
			c0.425-0.212,0.852-0.639,1.063-0.852c1.065-0.641,1.917-1.492,2.555-2.343c1.917-2.553,3.405-5.322,4.47-8.301
			c0.852-1.917,1.49-3.405,2.555-4.896c0.426-0.637,1.064-1.275,1.277-1.911c0.639-0.855,1.066-1.496,1.49-2.135
			c0.852-0.853,0.639-1.699,0.427-2.555c0-0.212-0.213-0.422-0.427-0.636c-0.211-0.215-0.211-0.215-0.211-0.215
			c-1.917-3.405-2.767-6.602-2.767-9.579v-0.424c0-1.493,0-2.769,0.213-4.257c0.212-1.277,0.212-2.555,0.212-3.833
			c0-0.851,0-1.487,0-2.127c0-1.705-0.212-3.408-0.85-5.536c-0.852-2.979-1.704-5.533-2.768-8.089
			c-0.638-1.699-1.277-3.404-1.917-5.106c-0.424-0.851-0.638-1.702-1.065-2.768l-0.638-1.491c-0.425-1.277-1.063-2.555-1.49-3.83
			c-0.214-0.427-0.214-0.854-0.426-1.276c-0.426-1.278-0.852-2.555-1.064-3.834c-0.638-2.979-1.489-6.172-2.555-9.152
			c-1.278-2.979-1.49-6.173-1.917-9.578c0-0.852,0.214-1.704,0.214-2.343l0.213-0.424c0-0.214,0-0.424,0.212-0.853v-0.213
			c0.212-1.063,0.426-2.129,0.852-2.98c0.639-1.275,1.065-2.338,1.703-3.614c1.064-2.343,2.129-4.685,3.619-6.813
			c1.703-2.556,3.832-4.472,5.96-5.96l1.065-0.639c2.553-1.704,5.321-3.407,8.088-4.896c3.193-1.917,6.384-4.044,10.004-6.81
			l0.638-0.426c1.065-0.853,2.127-1.491,3.193-2.129c2.767-1.276,4.895-1.49,6.811-1.063c2.979,0.638,5.748,1.703,8.515,2.768
			c3.617,1.491,7.448,2.129,10.43,2.555c2.34,0.214,4.683,0.854,6.812,1.276c1.915,0.426,3.405,0.638,4.682,0.853
			c1.49,0.214,2.98,0,4.259-0.425c3.193-0.852,6.598-1.49,9.366-3.619c2.341-1.701,5.107-2.555,8.727-2.768c0.424,0,1.063,0,1.49,0
			c1.49-0.425,3.405-0.638,4.895-1.277c2.981-0.853,4.896-2.341,6.174-4.471c0.64-1.277,0.64-3.193-0.212-4.896
			c-0.851-1.491-2.127-2.555-3.406-2.768c-0.852,0-1.49-0.213-1.917-0.213c-2.553,0-4.682,0.639-6.171,2.341
			c-1.49,1.276-2.979,2.555-4.682,3.618c-2.555,1.704-5.322,2.768-8.516,3.406c-3.619,0.852-6.598,1.063-9.367,1.063h-0.638
			c-1.276,0-2.555,0-3.831,0h-0.426c-1.703,0-3.193-0.214-4.683-0.853c-4.044-1.703-8.515-2.341-12.346-2.768
			c-2.13-0.424-4.257-1.063-6.387-2.129c-1.489-0.852-2.979-1.702-3.618-3.617c-0.427-1.702-1.065-3.192-0.851-4.896
			c0-1.063,0-2.129-0.214-3.193l-0.214-1.063c-0.21-1.917-0.852-3.617-1.489-5.322l-0.214-0.424
			c-0.211-0.426-0.424-1.064-0.638-1.492c-0.638-1.701-1.276-2.979-1.276-4.683c-0.213-1.703-0.639-3.193-1.064-4.685
			c-0.426-1.063-0.64-2.129-1.066-2.979v-0.212c-0.424-1.492-0.851-2.77-1.277-4.257c-0.638-2.555-1.49-4.471-2.767-5.96
			c-2.979-3.831-7.664-5.322-11.708-3.407c-2.127,0.853-4.682,1.491-7.45,1.703c-0.852,0-1.915,0.214-2.766,0.426l-0.852,0.213
			c-2.341,0.425-4.471,1.49-6.599,2.555l0.852,1.489c-1.49,0.641-2.555,1.704-3.832,2.981c-0.638,0.638-1.276,1.277-2.128,1.916
			c-0.427,0.425-0.851,0.851-1.277,1.275c-0.426,0.426-0.64,0.854-1.065,1.066c-1.702,1.275-3.193,1.915-4.896,1.915
			c-2.98,0-5.748-1.064-8.516-2.342c-0.638-0.214-1.276-0.64-1.917-0.853c-0.638-0.214-1.276-0.638-1.703-0.852h-0.211
			c-0.852-0.424-1.703-0.853-2.555-1.278c-2.981-1.063-5.96-2.339-9.579-4.683c-3.832-2.342-7.663-4.684-12.133-6.598
			c-2.341-0.853-3.619-3.193-3.193-5.11c0.426-2.129,1.49-4.045,2.768-5.534c2.129-2.555,4.896-4.471,8.301-5.96
			c1.491-0.638,2.981-1.064,4.685-1.49l0.852-0.214c1.276-0.424,2.555-1.063,4.043-1.916c0.638-0.423,1.49-1.063,2.128-1.49
			c0.639-0.639,1.277-1.065,2.129-1.491c3.831-2.555,7.662-4.257,11.495-5.11c2.128-0.425,4.257-1.064,5.961-1.703
			c1.489-0.426,2.979-1.064,4.469-1.49c1.277-0.425,2.554-0.853,3.619-1.276c2.341-0.853,5.108-1.704,7.875-2.555
			c1.065-0.214,1.917-0.425,3.193-0.425c0.852,0,1.277-0.213,1.916-0.213c1.704-0.212,3.62-0.425,5.322-0.425
			c0.638,0,1.489,0,2.127-0.213c4.045-0.214,6.813-0.214,9.792,0.426c0.426,0,0.64,0.212,1.064,0.212
			c1.277,0.213,2.769,0.426,4.045,1.279l1.702,1.062c0.852,0.641,1.917,1.064,2.769,1.703c1.702,1.064,3.618,1.917,6.171,1.703
			c1.917-0.214,3.405-1.063,5.109-2.129c2.129-1.279,4.257-2.555,6.812-2.979c0.852-0.214,1.49-0.426,2.341-0.426
			c1.065-0.212,2.128-0.424,3.193-0.639c1.49-0.213,2.341-1.063,3.407-1.702l0.638-0.426c0.639-0.638,0.851-1.276,0.851-1.915
			c0-1.064-0.424-1.917-1.063-2.767l-0.214-0.426c-1.489-2.342-3.405-3.193-5.747-2.98c-0.427,0-0.638,0-1.065,0h-0.424
			c-2.129,0-4.046,0.638-5.747,2.13c-0.852,0.638-1.917,1.276-3.194,1.915c-1.49,0.638-3.404,1.276-5.533,1.064
			c-2.555-0.214-4.896-1.064-6.812-2.341c-2.128-1.492-4.47-2.13-6.599-2.13h-0.425c-1.917,0-4.044,0-5.96,0
			c-0.851,0-1.916,0-2.767,0c-2.341,0-5.109,0-7.876,0.425h-0.852c-1.277,0.213-2.555,0.213-3.831,0.638
			c-1.278,0.426-2.555,0.638-3.833,1.064c-1.49,0.425-3.193,1.063-4.896,1.491c-1.703,0.424-3.193,0.853-4.682,1.276l-1.063,0.426
			c-1.704,0.638-3.62,1.276-5.324,1.701c-2.979,0.64-5.533,1.278-8.087,2.13c-0.425,0.214-0.853,0.425-1.277,0.425
			c-0.852,0.213-1.703,0.639-2.341,0.851l-0.639,0.214c-1.063,0.426-2.34,1.064-3.406,1.703c-2.341,1.701-5.321,3.832-8.301,5.748
			c-2.555,1.491-4.684,2.553-6.812,2.978c-1.703,0.425-3.833,0.851-5.748,2.128h-1.491c-0.426,0.215-0.638,0.426-1.064,0.64
			c-2.98,1.704-4.895,4.045-6.174,6.6l-0.424,0.853c-0.214,0.638-0.639,1.276-0.852,1.915c-0.853,3.406-2.98,5.748-5.748,7.024
			l-0.639,0.426c-1.489,0.638-2.979,1.276-4.47,1.703c-3.193,0.854-5.322,3.193-7.025,5.322c-0.638,0.853-1.489,1.915-1.914,2.979
			l-0.427,0.851c-0.851,2.13-1.702,4.044-2.979,5.961c-1.703,2.555-3.193,4.895-4.895,6.81c-1.064,1.278-1.917,2.342-2.981,3.833
			c-0.851,1.063-1.703,2.341-2.767,4.044c-0.64,0.854-1.064,1.703-1.491,2.768c-0.212,0.426-0.426,0.853-0.64,1.279
			c-0.212,0.213-0.212,0.424-0.212,0.638l-1.491,3.192c-1.063,2.556-2.128,4.896-3.192,7.448c-0.425,1.278-0.852,2.556-1.277,3.62
			l-0.426,1.276c-0.213,0.641-0.426,1.278-0.638,1.917l-0.213,1.063c-0.213,0.854-0.426,1.702-0.852,2.556
			c-0.639,2.339-1.489,5.105-1.916,7.661c-0.426,2.769-1.064,5.535-2.129,8.941c-0.425,1.702-0.638,3.406-0.852,4.897l-0.213,1.275
			c-0.211,1.279-0.211,2.768-0.211,4.044c0,0.854,0,1.489-0.214,2.343c-0.213,1.914-0.213,3.831-0.213,5.746
			c0,2.342,0,4.685-0.213,7.026c-0.211,1.488-0.211,3.193,0,4.682c0,0.852,0,1.49,0,2.13v2.77c0,1.278,0,2.769,0,4.045
			c0,2.129,0.213,4.046,0.427,6.172v0.854c0,1.063,0.214,2.129,0.425,3.19c0.852,2.77,1.704,5.534,2.769,8.519l1.064,2.979
			c0,0.212,0,0.212,0.213,0.424l1.278,2.556c1.063,1.915,2.128,4.046,3.193,5.96c1.702,3.192,2.981,6.602,4.044,9.58
			c0.426,1.063,0.639,1.914,0.851,2.979c0.428,1.491,0.852,2.769,1.278,4.044c1.063,2.77,2.341,5.324,3.618,7.879
			c0.426,1.063,0.852,1.917,1.491,2.978c0.424,1.063,0.852,1.917,1.49,2.98c1.916,3.614,4.683,5.748,8.301,6.599
			c1.704,0.427,3.406,1.278,5.109,1.915c2.98,1.702,4.683,3.833,4.896,7.025c0,0.852,0.212,1.49,0.425,2.342
			c0.214,0.853,0.427,1.699,0.427,2.339c0.211,2.979,2.128,4.896,3.832,6.6l0.214,0.215c1.276,1.276,2.766,2.341,4.257,3.193
			c0.639,0.424,1.277,0.853,1.915,1.487c0.427,0.215,0.852,0.642,1.278,1.066l0.852,0.636c0.638,0.428,1.063,0.854,1.702,1.278
			c1.49,1.277,2.979,2.339,4.469,3.408c1.277,0.636,2.341,1.49,3.405,2.129l0.427,0.214c0.424,0.422,1.063,0.638,1.489,1.064
			c1.915,1.273,3.832,2.553,5.961,3.829c1.49,1.063,2.979,1.916,4.469,2.979c0.638,0.427,1.49,0.854,2.341,1.066
			c1.703,0.637,3.193,1.275,4.896,1.914l0.426,0.213c1.703,0.641,3.193,1.277,4.896,1.705c0.639,0.212,1.277,0.421,1.917,0.636
			c0.852,0.214,1.702,0.424,2.341,0.854c0.638,0.21,1.276,0.422,1.917,0.852c1.063,0.426,1.701,0.853,2.553,1.062
			c1.065,0.427,2.342,0.854,3.62,1.064h0.213c1.065,0.215,1.916,0.641,2.979,0.853c2.555,0.854,5.108,1.49,8.516,1.702
			c1.917,0.215,3.619,0.424,5.321,1.064c0.639,0.212,1.064,0.424,1.704,0.639h0.212c0.852,0.214,1.703,0.638,2.341,0.854
			c2.768,0.853,5.535,1.489,8.515,1.272c1.277,0,2.555,0,4.045,0c0.213,0,0.427,0,0.638,0l0,0c1.917,0,3.833-0.636,6.173-1.912
			c0.64-0.426,1.064-0.641,1.703-1.063c0.852-0.639,1.703-1.276,2.768-1.702c0.212-0.215,0.425-0.424,0.64-0.64
			c0-0.214,0.213-0.214,0.213-0.214c0.638-0.424,0.638-1.063,0.425-1.702c-0.425-1.49-0.638-3.192-0.638-4.682v-0.215
			c0-0.426,0-0.638,0.21-0.853c0.852-1.7,1.702-2.979,2.768-4.473c0.852-1.276,1.278-2.767,1.278-4.681
			c0-1.491-0.64-2.557-2.129-3.196c-2.341-0.85-4.47-0.85-6.386,0c-1.278,0.641-2.767,1.493-2.555,3.622c0,0.21,0,0.422,0,0.422
			c0,0.216-0.213,0.426-0.213,0.638c0,0.642,0,1.279,0,1.917c0,0.639,0.213,1.064,0.213,1.702c0.213,1.276,0.426,2.341,0.426,3.62
			c0,1.061-0.426,1.7-1.277,2.128c-1.066,0.64-2.128,1.063-3.193,1.488l-0.638,0.217c-0.639,0.215-1.492,0.636-2.342,0.636
			c-0.851,0-1.49,0-2.341,0c-3.406,0-6.6-0.421-9.366-1.489c-2.129-0.852-4.257-1.488-6.173-1.917
			c-0.852-0.213-1.703-0.423-2.555-0.637c-1.491-0.424-3.193-0.853-4.683-1.277h-0.213c-1.917-0.425-4.044-0.852-5.96-1.7
			c-2.555-0.854-5.321-1.703-7.875-2.553l-0.852-0.218c-1.917-0.638-3.619-1.063-5.535-1.699c-2.129-0.64-4.257-1.702-6.174-2.556
			c-1.064-0.427-1.917-1.063-2.767-1.493l-1.063-0.638c-0.427-0.215-0.852-0.425-1.277-0.639l-2.769-1.914
			c-2.34-1.703-4.682-3.193-7.024-4.895c-0.638-0.427-1.49-1.066-2.128-1.492h-0.213c-0.638-0.64-1.278-1.063-2.129-1.49
			c-2.767-1.917-5.535-3.832-7.662-6.599c-1.277-1.493-1.917-2.771-2.343-4.261c-0.85-2.339-1.063-4.682-1.276-7.021
			C49.98,583,48.916,580.662,47,578.955c-1.702-1.488-3.832-2.341-5.533-2.768l-0.427-0.425c-1.278-0.426-2.555-0.641-3.832-1.063
			c-1.49-0.424-2.555-1.278-3.833-2.34l-0.852-0.64c-2.766-1.917-4.682-4.684-5.959-8.515c-0.64-1.703-1.066-3.408-1.491-4.896
			v-0.213c-0.213-1.065-0.64-2.131-0.852-3.191c-0.212-0.855-0.639-1.705-0.851-2.341c-0.425-1.279-0.852-2.345-1.063-3.408
			c-1.064-4.685-3.405-8.728-5.748-12.344c-1.917-2.983-3.192-5.536-4.257-8.092c-0.638-1.702-1.065-3.404-1.49-4.894l-0.213-0.426
			C9.31,518.727,8.67,514.258,8.67,510c0-0.636,0-1.276,0-2.127v-0.216c0-1.279,0-2.339,0-3.615v-0.854c0-1.491,0-2.978,0.426-4.473
			c0.639-2.336,0.852-4.894,1.063-7.233c0.213-1.067,0.213-2.132,0.427-3.195c0.214-1.276,0.214-2.555,0.214-3.832
			s0-2.555,0.211-3.618v-0.638c0.426-2.769,0.639-5.534,1.703-8.087c0.427-1.49,0.851-2.769,1.065-4.256l0.213-1.064
			c0.425-1.702,0.852-3.618,1.064-5.322c0.426-2.13,1.065-4.046,1.917-6.172c0.638-1.704,1.277-3.193,1.49-4.896
			c0.427-1.277,0.852-2.768,1.703-4.043c0.639-1.063,1.065-2.131,1.49-2.98c0.639-1.276,1.065-2.767,1.917-3.832
			c0.427-0.853,1.065-1.491,1.49-2.341l0.639,0.212l0,0l-0.639-0.426C26.578,434.641,27.854,432.726,29.344,431.023z"/>
		<path fill="#008EBF" d="M124.707,508.293L124.707,508.293c0,0.638,0,1.278,0,1.702c0,2.339,0.425,4.472,1.065,6.387l1.063,2.768
			c0.213,0.639,0.427,1.063,0.639,1.699c0.425,1.276,0.852,2.556,1.49,3.831c0.213,0.642,0.638,1.279,0.852,1.917
			c0.638,1.491,1.277,2.771,1.703,4.259c0.214,0.85,0.638,1.917,1.063,2.767c0.214,0.639,0.428,1.064,0.64,1.703
			c0.853,2.341,1.916,5.109,2.342,8.089c0.213,1.49,0.424,2.767,0.851,4.045l0.425,1.915c0.851,4.255,1.917,8.941,1.702,13.41
			c0,1.915-0.425,3.405-1.276,4.685c-0.638,0.851-1.278,1.702-1.917,2.554c-0.424,0.426-0.852,1.063-1.064,1.489
			c-0.638,0.854-1.276,1.702-1.704,2.556c-0.638,1.275-0.424,2.341,0.852,3.192c1.065,0.854,2.342,1.276,3.619,1.702l0.214,0.212
			c0.638,0.215,1.49,0.427,2.128,0.427c1.917,0,3.406-0.854,4.684-1.917c0.213-0.214,0.852-0.638,1.063-1.275
			c0-0.427,0.213-0.639,0.213-0.854v-0.214c0.214-0.851,0.638-1.917,0.638-3.193c0-0.853,0-1.913,0-2.767
			c0-2.341,0-4.896,0.214-7.451c0.424-2.977,0.424-6.17,0-9.152c-0.214-1.064-0.214-2.13-0.214-3.192
			c0-1.277-0.212-2.341-0.424-3.617l-0.214-0.853c-0.213-1.7-0.638-3.405-1.277-5.108c-0.852-2.34-1.917-5.109-2.767-7.664
			c-0.426-1.275-0.852-2.556-1.49-3.615l-0.426-1.063c-0.852-2.129-1.915-4.258-2.766-6.386c-1.064-2.345-1.702-4.896-2.129-7.663
			c0-0.425,0-0.642,0-1.063c0-0.854,0-1.492-0.213-2.131c-0.211-0.638,0-1.49,0.213-2.341c0-0.424,0.213-0.639,0.213-1.276
			c0-0.426,0-0.638,0.214-1.063c0.424-1.914,1.276-3.619,2.34-5.321c2.341-4.046,5.321-6.812,8.94-8.729
			c2.767-1.487,5.748-2.34,9.367-2.767c3.193-0.426,6.385,0,10.004,0.853c0.426,0,0.852,0.21,1.278,0.425
			c0.427,0.214,0.852,0.214,1.276,0.424c3.194,0.854,5.534,2.131,7.239,4.048c0.424,0.639,1.063,1.063,1.489,1.488
			c0.638,0.641,1.065,1.277,1.276,2.129c0.852,2.343,1.277,4.896,1.277,7.45v1.063c0,1.917,0,4.046,0.425,6.17
			c0.427,2.981,0,6.175-0.425,9.153c-0.425,2.981-1.917,5.536-4.47,8.518c-2.341,2.556-5.747,4.046-10.004,4.685
			c-2.342,0.212-4.256,1.49-5.322,3.617c-1.489,2.555-1.489,5.323,0.214,7.879c0.638,1.06,1.276,2.339,1.276,3.615
			c0.214,2.131,0,4.257-0.424,6.384c-1.066,3.619-1.066,7.45,0,11.284v0.422c0.424,1.705,0.85,3.408,0.85,5.323v1.276
			c0,2.555,0,5.109-0.212,7.665c-0.638,3.616-2.129,6.384-4.471,8.938c-0.638,0.425-0.852,0.642-1.49,0.642
			c-0.426,0-0.639-0.217-0.851-0.217c-2.342-1.063-4.897-1.488-7.237-2.129c-0.852-0.213-1.489-0.213-2.341-0.213
			c-2.129,0-4.045,0.64-6.172,2.13c-0.638,0.427-1.065,0.851-1.704,1.275c-0.425,0.427-1.065,0.854-1.49,1.064
			c-2.555,1.7-4.471,4.043-6.386,6.172c-1.491,1.703-2.981,3.19-4.684,4.258c-1.916,1.06-3.406,2.338-4.896,3.405
			c-0.852,0.638-1.49,1.49-1.916,2.129c-1.49,2.128-1.278,4.684-1.063,6.601c0.211,1.7,2.128,3.404,3.831,3.404
			c2.98-0.426,5.323-1.702,6.599-3.831c0.426-0.424,0.638-1.063,0.852-1.702c0.213-0.639,0.639-1.063,0.851-1.491l0.428-0.853
			c0.638-1.063,1.276-2.34,2.127-3.19c2.342-2.77,5.535-5.109,9.58-7.023c1.702-0.851,3.194-1.49,4.896-2.133
			c0.85-0.422,1.914-0.852,2.766-1.272c2.129-0.854,4.257-1.917,6.172-2.98c0.64-0.212,1.064-0.427,1.704,0
			c0.425,0.213,1.063,0.427,1.49,0.639c0.852,0.212,1.703,0.639,2.555,0.853c0.426,0.215,1.064,0.427,1.49,0.427
			c1.065,0,1.917-0.641,2.555-1.278c1.49-1.49,3.406-3.405,4.683-5.96c1.064-1.703,1.49-3.407,1.916-5.324
			c0.426-2.556,0-5.11-0.852-7.663c-0.852-2.341-1.49-4.682-1.064-7.236c0-0.641,0.214-1.275,0.214-2.129
			c0-1.277,0.214-2.343,0.214-3.191c0.212-1.703,0-3.405-0.426-4.896c-0.424-2.555-1.276-4.894-1.915-7.237
			c-0.427-1.915,0-3.405,0.85-4.896c1.703-3.615,5.11-5.746,8.089-7.663c0.638-0.424,1.063-0.638,1.704-1.062l0.425-0.218
			c1.277-0.851,2.767-1.487,3.832-2.551c0.212-0.217,0.638-0.426,0.852-0.638c1.277-0.854,2.554-1.703,3.193-3.41
			c0.211-0.638,0.638-1.06,1.063-1.488c1.065-0.853,1.277-1.917,1.703-3.192c0.213-1.278,0.427-2.556,0.639-4.257
			c0-1.279,0-2.557,0-3.617v-1.276h0.211l-0.211-3.407c-0.214-2.77-0.214-5.321-0.427-7.877c0-1.7-0.214-3.406-0.638-4.894
			c-0.213-0.854-0.426-1.493-0.638-2.343c-0.427-1.488-0.853-2.554-1.065-3.832c-0.852-3.616-2.555-6.597-5.323-8.514
			c-0.211-0.215-0.638-0.427-0.852-0.638c-1.063-0.852-2.128-1.704-3.405-1.917c-1.276-0.426-2.767-0.853-4.044-1.279
			c-2.979-1.063-6.172-2.129-9.579-2.129h-0.213c-1.065-0.424-2.128-0.424-3.192-0.424h-0.852c-0.852,0-1.702,0-2.555-0.214
			c-0.638-0.214-1.49-0.214-2.768-0.214c-0.638,0-1.063,0-1.49,0c-2.555-0.212-4.896,0.426-7.024,0.852
			c-0.852,0.214-1.702,0.642-2.341,1.064c-2.769,2.131-5.96,4.47-8.516,7.236l-0.213,0.215c-0.638,0.638-1.065,1.278-1.703,1.702
			c-1.915,1.49-3.406,2.98-4.896,4.896c-2.341,3.19-3.193,6.384-2.979,9.789C124.707,506.376,124.707,507.226,124.707,508.293z"/>
		<polygon fill="#008EBF" points="123.856,508.293 123.856,508.293 124.068,508.293 		"/>
		<path fill="#008EBF" d="M280.522,493.18v-0.639c0-4.046,0-8.301-0.427-12.559v-0.427c-0.214-2.767-0.638-5.32-1.49-8.086
			c-0.424-1.063-0.639-2.131-0.851-2.98l-0.214-1.064c-0.212-0.638-0.212-1.275-0.424-1.702c-0.426-1.702-0.852-3.618-1.704-5.321
			c-0.213-0.425-0.426-0.637-0.426-1.064c-0.426-0.85-0.851-1.49-1.064-2.128c-0.852-2.553-2.129-4.896-3.619-7.238l-0.213-0.213
			c-0.213-0.425-0.639-1.063-0.852-1.491c-1.703-2.979-3.618-5.748-5.748-8.727c-0.852-1.276-1.063-2.767-1.276-4.257
			c0-0.424-0.214-0.853-0.214-1.276v-0.214v-0.212c0.426-1.065,0.426-2.343,0.426-3.408c0-0.638,0-1.063,0-1.49
			c0-1.702-0.426-3.192-1.064-4.255c-0.213-0.641-0.852-1.063-1.277-1.491c-1.703-1.277-3.407-1.702-5.321-2.342l-0.426-0.213
			c-1.703-0.425-2.341,0.213-2.341,1.916v1.491c0,2.979,0,6.173,0,9.153c0,0.853,0.427,1.917,0.852,2.769
			c1.704,2.768,2.769,5.747,3.193,9.153c0.638,3.408,1.917,6.385,3.833,8.939l1.276,1.492c0.638,0.638,1.065,1.488,1.704,2.339
			l0.427,0.641c0.638,0.85,1.276,1.701,1.916,2.555c0.638,1.062,1.277,2.341,1.702,3.405c0.638,1.703,1.278,3.618,1.917,5.321
			l0.212,0.426c0.852,2.13,1.064,4.256,1.278,6.385c0.213,1.063,0.213,2.343,0.427,3.408c0.211,1.277,0.211,2.555,0.211,3.831
			c0,1.275,0,2.341,0.213,3.616c0.213,1.703,0.213,3.194,0.213,4.896c0,1.7,0,3.405,0.214,5.108
			c0.425,2.769,0.425,5.534,0.425,8.517v0.426c0,1.276,0,2.765,0,4.253l-0.425,6.387c0,0,0,0.218,0,0.427
			c0,0.212,0,0.424-0.214,0.424l-0.427,1.915c-0.211,1.275-0.425,2.555-0.638,3.831c-0.214,0.641-0.214,1.275-0.214,1.705
			c0,0.85-0.212,1.487-0.425,2.126c-0.639,2.771-1.704,5.536-2.767,8.089l-0.214,0.424c-0.212,0.639-0.426,1.276-0.851,1.917
			c-0.638,1.493-1.278,2.979-1.915,4.258c-0.427,0.852-0.638,1.49-1.065,2.341l-1.276,2.768c-0.428,1.063-0.852,2.129-1.278,3.192
			c-0.638,1.276-1.277,2.556-1.704,4.047c-0.638,1.489-1.489,2.767-2.555,3.831c-0.852,0.851-1.49,2.125-2.128,3.192l-0.638,0.851
			c-0.213,0.427-0.427,0.854-0.427,1.275c0,0.429,0,0.855-0.213,1.279c0,1.063-0.211,1.916-0.425,2.769
			c-0.427,2.129-1.065,4.046-2.341,5.748c-1.703,2.127-3.833,4.256-6.598,5.32h-0.214c-1.277,0.426-2.555,0.853-3.831,0.638
			c-1.064-0.212-2.129-0.638-3.194-1.063l-1.276-0.424c-1.277-0.427-2.768-1.064-4.471-1.064c-1.489,0-2.979,0.639-3.832,1.703
			c-0.851,1.063-1.277,2.341-1.065,3.617l0.214,0.638c0.212,1.063,0.212,2.132,0.851,3.193c0.213,0.427,0.425,0.853,0.638,1.492
			c0,0.212,0.214,0.423,0.214,0.851c0.852,1.917,0.852,3.617,0,5.106c-0.427,1.064-1.277,2.343-1.917,3.196l-0.212,0.212
			c-0.213,0.212-0.427,0.638-0.639,0.854c-0.426,0.853-1.278,1.491-2.127,2.131c-0.426,0.421-1.066,0.85-1.49,1.275
			c-0.426,0.425-0.639,0.639-1.064,0.851l-0.638,0.427c-1.917,1.276-3.833,2.555-5.536,3.831c-1.704,1.063-3.831,2.341-5.533,3.617
			c-2.555,1.914-5.109,3.41-7.664,4.896l-0.211,0.212c-1.917,1.066-4.046,2.344-6.388,3.195c-0.425,0.21-0.852,0.21-1.277,0.424
			c-0.638,0.215-1.277,0.424-1.703,0.639c-1.917,1.063-4.044,1.917-6.174,2.556c-1.703,0.641-3.618,1.278-5.533,2.129
			c-1.49,0.639-2.98,1.278-4.471,1.702c-1.916,0.641-3.618,1.063-5.321,2.129h-0.214h-0.424c-2.768,1.066-5.536,1.491-8.515,1.917
			c-1.065,0.212-2.342,0.212-3.407,0.424c-2.554,0.427-4.895,1.063-7.45,1.917c-0.852,0.214-1.276,0.638-1.49,1.063
			c-0.213,0.638,0.424,1.491,0.638,1.701c1.49,1.917,3.193,3.193,5.11,4.047c1.064,0.426,2.128,0.638,3.406,0.638
			c1.276,0,2.34-0.212,3.405-0.426c1.916-0.425,3.832-1.276,5.109-1.915c1.701-0.854,3.618-1.276,5.321-1.7
			c2.13-0.429,3.832-0.854,5.535-1.278c1.277-0.427,2.342-0.853,3.619-1.275c1.277-0.43,2.341-0.854,3.407-1.279
			c2.341-0.638,4.683-1.914,6.812-2.979c1.276-0.638,2.766-1.277,4.257-1.917c0.425-0.212,0.851-0.421,1.278-0.638l0.213-0.215
			c1.063-0.424,2.128-0.85,2.979-1.275c1.278-0.427,2.555-0.851,4.045-1.703c0.851-0.424,1.489-0.853,2.34-1.277
			c2.13-1.061,4.257-2.127,6.173-3.615l1.49-1.064c2.129-1.489,4.257-2.979,6.385-4.681c2.129-1.705,4.471-2.984,6.599-4.26
			l0.639-0.425c0.64-0.425,1.064-0.637,1.703-1.063c1.703-1.064,2.979-1.917,4.256-2.98c2.343-2.13,2.555-4.685,2.769-7.448v-0.424
			l0,0c-0.64-1.279-0.214-2.342,0-3.834v-0.212c0.425-2.554,1.49-3.619,4.043-4.471c1.278-0.426,2.555-0.426,3.833-0.426h0.212h0.64
			c2.979,0,5.748-1.063,7.875-3.191c2.555-2.555,3.831-5.75,4.896-8.727c1.277-3.41,2.767-6.813,4.257-9.579
			c1.065-2.129,2.341-4.046,3.406-6.173c0.851-1.275,1.703-2.767,2.341-4.043c1.49-2.555,2.768-5.109,3.831-7.45l0.427-0.853
			c0.425-0.852,0.638-1.917,0.852-2.556c0.424-2.341,1.065-4.682,1.703-6.811l0.424-1.063c0.214-0.426,0.426-0.852,0.426-1.491
			c0.213-0.854,0.426-1.701,0.638-2.554v-0.215c0.639-1.916,1.065-3.833,1.917-5.748c1.277-2.979,1.916-5.96,1.916-10.001
			c0.213-6.174,0.213-12.561,0-18.521C280.522,497.011,280.522,495.097,280.522,493.18z"/>
		<path fill="#008EBF" d="M251.786,412.715c0-0.213,0-0.423-0.211-0.638c-0.213-1.701-0.64-3.194-1.917-4.469
			c-2.341-1.917-5.322-2.555-8.727-1.278c-1.917,0.638-4.045,1.491-5.749,2.77c-1.49,1.276-3.405,1.489-5.108,1.7
			c-2.343,0.214-5.322,0.853-8.302,2.341c-2.342,1.278-3.833,2.768-4.685,4.896c-0.638,1.279-1.063,2.769-1.702,4.256l-0.213,0.639
			c-1.063,2.979-4.043,4.896-7.023,4.472c-0.425,0-1.066-0.213-1.49-0.426c-0.639-0.214-1.064-0.214-1.49-0.424
			c-0.425,0-0.638-0.214-1.063-0.214c-1.064-0.213-2.128-0.424-3.193-0.213c-2.979,0.425-5.533,1.916-7.45,4.683
			c-0.852,1.064-1.917,1.917-2.768,2.771c-0.851,0.638-1.489,1.276-2.341,2.128c-0.214,0.212-0.425,0.212-0.852,0.424l-1.917,0.639
			c-1.063,0.425-2.341,0.852-3.404,1.277c-1.492,0.639-3.194,0.639-4.897,0.213c-2.554-0.64-5.107-1.492-7.024-3.833
			c-1.49-1.917-2.555-4.043-3.193-6.598c-0.426-1.493-0.426-2.767-0.426-4.472c0-0.639,0-1.276,0-1.702
			c0-0.853-0.212-1.491-0.425-2.341c-0.214-1.064-0.639-2.13-0.852-3.193v-0.426c-0.213-0.637-0.427-1.488-0.64-2.128
			c-0.213-0.853-0.426-1.703-0.639-2.555c-0.426-1.701-0.851-3.193-1.277-4.684c-0.213-0.852-0.638-1.703-1.064-2.555
			c-0.426-0.851-0.852-1.703-1.063-2.767c-0.852-2.979-2.981-5.108-4.897-7.024c-1.276-1.276-3.193-2.554-5.321-3.405
			c-4.683-2.129-8.728-3.834-13.197-4.472c-0.638,0-1.064-0.212-1.702-0.212h-0.213c-1.917-0.214-4.044-0.638-6.171-0.638h-4.471
			c-0.852,0-1.703,0-2.555,0c-2.555,0-4.895,0.212-7.024,0.424c-1.491,0.214-2.555,0.426-3.406,0.852
			c-2.555,1.063-4.471,2.129-6.388,2.979c-1.276,0.853-2.766,1.703-4.043,2.555c-0.638,0.426-1.49,1.064-2.341,1.493
			c-3.619,2.338-6.599,3.193-9.792,2.553c-1.702-0.214-3.193-0.641-4.682-1.064c-0.639-0.212-1.917-0.85-3.407-0.85
			c-0.64,0-1.064,0-1.703,0.212c-0.638,0.213-1.277,0.638-1.703,1.064c-0.638,0.853-1.277,2.341-1.064,4.045
			c0.427,2.979,2.342,5.321,5.11,6.387c1.064,0.424,2.555,0.638,4.044,0.638c2.768,0,5.322-0.214,8.088-0.426
			c0.852,0,1.703-0.212,2.341-0.64l1.065-0.425c2.129-1.064,4.471-2.341,6.812-3.617c1.703-1.065,3.193-1.917,4.683-2.981
			c4.257-2.767,8.94-3.405,12.985-3.617c1.491,0,2.767,0,4.256,0c2.768,0,5.323,0.212,7.45,0.425
			c0.852,0.213,1.703,0.213,2.555,0.213s1.703,0.212,2.555,0.212c0.427,0,1.065,0.214,1.491,0.426
			c0.426,0.212,0.852,0.212,1.064,0.212c2.129,0.426,4.044,1.703,5.96,2.768l0.213,0.213c2.555,1.703,4.469,4.046,5.533,7.024
			c0.425,1.064,0.638,1.917,1.064,2.98l0.639,1.489c0.212,0.426,0.212,0.853,0.424,1.277l0.214,0.426
			c0.427,1.277,1.065,2.555,1.277,4.043c0.425,1.704,0.852,3.193,1.063,4.896c0.213,1.063,0.427,1.915,0.64,2.979
			c0.211,0.854,0.425,1.703,0.638,2.556c0.425,1.49,0.638,2.767,1.064,4.256c0.638,3.621,1.276,6.812,3.405,9.58
			c1.917,2.767,4.257,4.47,7.025,5.319c1.489,0.427,2.979,0.427,4.257,0.641c0.852,0,1.916,0,2.979,0.213
			c0.638,0.214,1.703,0.214,2.769,0c0.852,0,1.702,0,2.555,0h1.276c0.638,0,1.065,0,1.703,0c1.49,0,3.406-0.424,5.109-1.276
			c1.917-1.063,3.193-2.555,4.044-3.831c2.128-2.77,4.471-4.472,7.237-5.535c1.917-0.851,3.619-0.851,4.895-0.425
			c1.702,0.425,2.981,1.276,3.833,2.342c1.063,1.276,2.767,1.916,4.896,1.916c1.065,0,1.917-0.426,2.555-1.063
			c1.063-1.064,1.703-4.044,1.49-5.534c-0.428-2.979,0-5.108,1.489-6.812c1.065-1.063,2.129-2.127,3.619-3.406
			c0.64-0.425,1.276-1.064,2.128-1.491c1.064-0.638,2.129-1.276,2.981-2.13c1.276-1.061,2.766-1.916,4.47-2.554
			c1.277-0.639,2.98-0.851,4.47-0.424c1.276,0.213,2.342,0.424,3.618,0.853c0.425,0.212,1.063,0.212,1.49,0.424l1.49,0.425
			c1.491,0.426,2.767,0.64,4.044,0.854h0.213c0.425,0,1.276-0.426,1.49-0.854c0.213-1.063,0.424-2.127,0.424-3.616
			C251.999,413.781,251.786,413.354,251.786,412.715z"/>
		<path fill="#008EBF" d="M23.811,519.787c1.276,2.338,2.554,4.684,4.257,6.81c2.98,3.407,4.897,6.813,6.173,10.219
			c0.213,0.424,0.213,0.638,0.426,1.063c0.214,0.638,0.425,1.063,0.638,1.49c0.427,1.915,1.065,4.046,1.491,6.173
			c0.212,0.85,0.212,1.702,0.426,2.338c0.212,1.278,0.212,2.341,0.638,3.407c0.853,3.407,2.767,6.172,5.322,8.087
			c2.767,1.917,5.534,3.834,8.727,5.536c3.831,2.129,6.598,4.47,8.514,7.663c2.128,3.616,4.258,7.444,6.599,11.068
			c1.49,2.342,2.555,5.322,3.193,8.729c0.214,1.7,0.852,3.404,1.917,4.893c0.852,1.493,1.916,2.342,3.404,2.979
			c1.703,0.638,3.619,0.638,5.749,0c1.491-0.424,2.342-1.276,2.555-2.341c0.427-2.338,0-4.256-1.276-5.748
			c-0.427-0.424-0.638-0.852-1.065-1.278c-0.852-0.851-1.277-1.7-1.915-2.553l-0.215-0.42c-0.852-1.49-1.917-2.77-2.555-4.471
			c-0.638-1.913-1.49-3.831-2.129-5.747l-0.638-1.488c-1.065-3.192-2.766-5.748-5.109-7.879c-1.064-1.063-2.341-2.129-3.405-2.978
			l-2.129-1.705c-0.851-0.638-1.702-1.489-2.554-2.126c-0.426-0.429-1.065-0.854-1.489-1.277l-0.214-0.216
			c-1.277-1.063-2.555-2.129-3.831-3.194c-2.129-1.488-3.833-3.402-5.749-5.319l-0.425-0.424c0,0-0.213-0.215-0.213-0.427v-0.212
			c-1.917-3.407-3.194-7.024-3.832-10.855l-0.212-0.854c-0.212-1.277-0.426-2.557-0.639-3.832v-0.422
			c-0.425-1.278-0.638-2.771-1.276-3.833c-1.704-3.19-3.619-5.746-5.748-8.088c-1.065-1.277-1.917-2.555-2.768-3.832
			c-1.917-3.405-2.555-7.024-2.767-10.431c-0.212-2.556,0.213-5.107,0.64-7.663l0.211-1.062c0.213-0.855,0.213-1.703,0.427-2.557
			c0-2.341,0.851-4.686,1.489-7.023c0.214-0.638,0.427-1.064,0.638-1.493c0.427-0.851,0.639-1.489,0.852-2.339
			c0.638-2.981,1.489-6.174,1.277-9.58v-0.425l-0.426-0.428l0.212-0.213c0.425-0.64,0.425-1.489,0.425-2.128
			c0-0.213,0-0.638,0-0.852c0-0.425,0-0.639,0.213-1.065c0.213-0.638,0.213-1.275,0.213-1.915c0-1.704,0.425-3.192,0.852-4.684
			c0.852-2.981,1.703-5.534,3.406-7.877c1.49-2.341,2.34-4.896,2.128-7.877c0-1.063-0.425-2.129-0.852-3.193
			c-0.638-1.061-1.703-1.7-2.768-1.7c-0.425,0-0.639,0-1.063,0.215c-0.852,0.213-1.703,0.638-2.555,1.275
			c-1.064,1.063-2.341,2.129-3.193,3.405c-0.852,1.278-1.065,2.98-1.277,4.472c-0.852,4.469-1.915,8.941-3.405,13.837l-0.213,0.425
			c-0.638,1.916-1.277,4.044-1.702,6.172c-0.214,1.917-0.426,3.833-0.638,5.533v1.491c-0.214,2.979-0.64,6.171-1.704,9.154
			c-1.49,4.043-2.128,8.512-2.128,13.623c0,0.854,0,1.917,0,2.767v3.407c0,1.491,0,2.979,0,4.685
			C22.745,515.955,22.745,517.872,23.811,519.787z"/>
		<path fill="#008EBF" d="M227.732,454.651c-1.064,1.701-1.276,2.979-0.85,4.47c0.639,2.767,2.341,4.684,4.683,5.96
			c1.276,0.638,2.555,1.278,3.618,1.917l0.213,0.213c1.49,0.638,2.979,1.489,4.257,2.127c2.98,1.493,4.896,4.258,6.387,6.602
			c1.704,2.555,1.917,5.745,2.129,8.513v0.214c0.214,3.408,0.425,7.025,0.425,10.433v2.129c0,1.488,0,2.979,0,4.47
			c0,1.491,0,3.192,0,4.682c0,1.493,0,3.195,0.638,4.898c0.639,1.917,0.639,3.831,0.639,6.17v2.343c0,2.767-1.277,5.322-3.407,7.446
			c-1.277,1.277-2.98,2.133-4.682,2.555h-0.427c-0.425,0.217-0.852,0.217-1.276,0.217c-2.555,0.212-4.898-0.427-7.664-2.555
			c-1.277-1.064-2.555-1.493-4.044-1.493c-0.639,0-1.489,0.216-2.13,0.426c-0.638,0.212-1.49,0.64-2.342,0.852
			c-1.489,0.428-2.767,1.277-4.043,2.771c-0.852,1.063-0.852,1.7,0,2.768c0.213,0.212,0.638,0.639,1.064,0.851
			c3.193,2.343,7.237,3.407,12.559,3.831c1.49,0.217,3.193,0.217,4.683,0.641l1.276,0.215c1.49,0.215,2.98,0.636,4.684,0.636
			c0.852,0,1.49,0,2.342-0.214c1.489-0.21,3.192-0.637,4.469-1.7c1.917-1.491,3.194-3.193,3.833-5.107
			c1.491-3.832,2.768-7.663,3.193-11.921c0.213-3.192,0.425-6.384,0.425-8.938c0-1.917,0-3.617-0.213-5.534v-0.854
			c0-0.638,0-1.062,0-1.699c-0.214-2.344-0.214-4.896-0.214-7.024v-0.429c0-3.614,0-7.446-0.425-11.28
			c0-0.638-0.212-1.492-0.424-2.13l-0.428-1.917c-0.638-2.339-1.063-4.896-1.701-7.238c-0.852-3.191-2.342-5.746-4.257-7.663
			c-1.702-1.489-3.833-2.767-5.961-3.617c-3.831-1.491-6.386-3.834-7.663-7.238c-0.638-1.491-0.638-2.979-0.425-4.472
			c0.64-2.34,2.128-4.683,4.684-6.6c1.917-1.488,3.193-3.192,4.044-5.107c1.277-2.98-0.213-4.258-1.917-4.896
			c-1.703-0.852-3.618-0.852-6.171-0.426c-1.279,0.214-3.62,0.641-4.472,2.979l-0.212,0.214l-0.214,0.214
			c-1.065,1.489-2.129,3.193-1.917,5.321c0,0.215,0,0.215,0,0.64c0,0.214,0,0.426-0.213,0.639c0,0.426,0,1.063,0,1.492
			c0,0.213,0,0.213,0,0.424c0,0.214,0,0.214,0,0.214c0,0.213,0,0.424,0,0.638v0.213c0,0.64-0.212,1.277-0.212,1.704
			c0,1.276-0.213,2.556-0.852,3.617C229.01,452.521,228.372,453.584,227.732,454.651L227.732,454.651z"/>
		<path fill="#008EBF" d="M180.478,609.402c2.128,1.065,4.044,1.065,5.748-0.212c1.704-1.276,3.406-2.769,4.895-5.11
			c1.276-1.702,2.768-3.405,4.897-4.47l1.703-0.639c1.702-0.641,3.406-1.489,5.321-1.917c2.555-0.638,4.684-1.914,6.387-4.043
			c1.276-1.493,1.914-3.192,2.34-4.687c0.213-0.424,0.213-1.061,0.424-1.49c0.214-1.063,0.427-1.7,0.64-2.555
			c1.063-2.978,2.128-6.384,2.979-10.001c0.853-2.981,1.917-6.173,3.407-9.156c1.063-2.129,2.555-3.614,4.681-4.684
			c2.129-1.064,4.896-1.276,7.664-0.637c1.702,0.425,3.405,1.063,5.108,1.915c1.915,0.853,3.618,1.275,5.96,1.275l1.063-0.212
			c1.065-0.214,1.917-0.214,2.98-0.426c0.852-0.215,1.704-0.852,1.916-1.702l0.214-0.215c0.213-0.637,0.424-1.276,0.213-2.342
			c-1.065-2.767-2.98-4.47-5.961-5.745c-2.34-0.853-4.471-1.063-6.811-1.275c-0.852,0-1.916-0.215-2.767-0.427
			c-0.639,0-1.492-0.215-2.13-0.427c-1.489-0.422-2.767-0.639-4.257-0.422h-0.212h-0.214c-0.426-0.217-1.064-0.426-1.702-0.426
			c-0.638,0-1.704,0.212-2.555,0.426l-0.852,0.212c-1.917,0.424-3.831,1.702-5.748,4.046c-1.064,1.276-1.916,2.556-2.978,3.831
			l-0.214,0.214c-0.427,0.64-1.065,1.491-1.489,2.13c-2.343,2.979-3.194,6.599-3.833,10.004l-0.214,1.489
			c-0.424,2.342-0.852,4.895-1.49,7.238c-0.638,2.341-1.277,4.044-2.128,5.534c-1.702,2.556-4.044,4.47-5.961,5.96
			c-1.489,1.063-2.555,1.7-3.831,2.129c-2.981,1.064-6.599,2.129-9.792,3.405c-1.701,0.638-2.979,1.705-3.832,2.98
			c-1.276,1.702-1.702,3.617-1.702,5.748C177.923,607.062,178.775,608.552,180.478,609.402z"/>
		<path fill="#008EBF" d="M198.358,539.157c-0.214,0.215-0.214,0.427-0.427,0.639l-0.211,0.426
			c-1.917,2.339-4.045,4.256-6.174,5.534c-2.342,1.49-4.47,2.979-6.171,4.467c-1.491,1.491-2.343,3.407-2.343,5.322
			c0,0.854,0,1.493,0,2.343c0,1.917,0,3.619,0.214,5.534c0.425,3.193-0.425,6.17-1.278,9.153l-0.213,1.062
			c-0.425,1.276-0.425,2.341-0.425,3.408c0,1.49,0.638,2.555,1.49,3.831c0.851,1.063,2.127,1.278,3.193,1.278h0.213
			c0.211,0,0.425,0,0.638,0c0.212,0,0.212,0,0.425,0c1.917,0,4.257-1.705,5.108-3.831c0.853-2.343,0.64-4.688,0.427-7.027v-0.85
			c0-0.854-0.213-1.703-0.213-2.771c0-0.424-0.214-0.638-0.214-1.062c-0.212-0.642-0.212-1.276-0.212-1.703
			c0.212-1.917,0.426-3.833,0.852-5.536c0.64-2.553,2.13-4.894,3.832-6.598c1.704-1.491,3.618-2.769,5.321-3.832
			c2.129-1.276,4.045-3.404,5.536-5.96c0.211-0.639,0.638-1.063,0.852-1.702l0.211-0.212c0.64-1.278,1.279-2.557,2.13-3.834
			c0.852-1.488,1.916-2.979,3.193-4.255c1.702-1.7,1.917-3.195,0.64-5.322l-0.213-0.426c-0.212-0.216-0.212-0.425-0.425-0.425
			c-1.277-2.132-2.129-4.256-1.917-6.599c0-1.063,0-2.341,0-3.407v-0.424c0-1.063,0-2.131,0-3.193c0-0.639,0.214-1.275,0.214-1.702
			c0.213-1.063,0.426-1.914,0.639-2.98l0.426-1.276c0.212-0.853,0.425-1.699,0.638-2.553c0.213-0.424,0.213-0.853,0-1.277
			c-0.426-1.915-1.064-3.832-2.768-5.11c-1.276-1.063-2.767-1.698-4.044-1.698c-1.702,0-3.193,0.852-4.47,2.336
			c-1.917,2.132-1.491,4.688-1.063,7.027c0.213,1.49,0.638,2.77,1.063,4.045c0.425,1.701,0.852,3.193,1.064,5.11
			c0,0.851,0.214,1.917,0.426,2.767c0.212,1.488,0.424,2.768,0.424,4.044v1.917v1.914c0,0.854,0,1.705,0,2.555
			c0,1.703-0.424,3.405-1.702,5.32l-0.64,0.854C201.125,535.964,200.06,537.667,198.358,539.157z"/>
		<path fill="#008EBF" d="M219.431,475.937c-2.981,0-5.96,0.425-8.728,1.063c-2.128,0.425-4.257,0.425-6.812,0.213
			c-1.703-0.213-3.406-0.213-5.11-0.213c-2.978,0-5.533,2.555-5.533,5.535v0.212c0,0.426,0,0.638,0,1.063
			c0,1.917,0.852,2.981,2.555,3.617c1.917,0.644,3.83,0.855,6.172,0.429c1.916-0.429,3.618-1.063,5.749-2.131
			c1.49-0.85,3.193-1.275,4.895-1.275c0.212,0,0.425,0,0.638,0c2.769,0.213,5.11,0.851,7.024,1.702
			c2.979,1.49,4.684,3.405,5.536,5.96c0.639,1.915,1.065,3.617,1.277,5.321c0.214,3.405,0.214,7.238-0.426,11.068
			c-0.212,1.702-0.425,3.619-0.212,5.533c0,1.278,0.426,2.555,1.276,4.258c0.852,2.129,2.343,2.341,2.981,2.341
			c0.851,0,1.917-0.427,2.768-1.279c2.128-2.128,3.404-4.681,3.404-8.084c0-1.492-0.212-2.98-0.424-4.472
			c-0.214-2.129-0.427-4.258-0.427-6.172c0-0.853,0-1.917-0.212-2.98c0-0.213,0-0.639,0-1.063c0-0.853,0-1.701-0.214-2.77
			c-0.212-1.063-0.638-2.13-1.064-3.405l-0.212-0.426c-0.214-0.854-0.427-1.701-0.852-2.554c-0.639-2.553-1.917-4.685-3.194-6.601
			l-0.212-0.212c-1.064-1.279-2.129-2.768-3.833-3.407c-1.276-0.426-2.766-0.853-4.469-1.064
			C221.347,475.937,220.496,475.937,219.431,475.937z"/>
		<path fill="#008EBF" d="M185.374,376.104c1.49,0.638,3.193,1.277,4.895,1.704c1.916,0.425,3.618,0.852,5.109,1.702
			c4.044,2.341,7.024,4.256,9.58,6.386c0.851,0.641,1.489,1.491,2.34,2.339l0.427,0.425c0.211,0.214,0.424,0.641,0.852,0.853
			l0.211,0.214c0.427,0.425,0.852,1.063,1.492,1.702c0.425,0.424,1.276,0.854,1.915,1.064c3.193,0.213,5.535,1.064,7.664,2.555
			c0.424,0.426,0.851,0.638,1.489,1.062c0.639,0.425,1.277,0.853,1.917,1.491c2.128,1.49,4.045,2.555,6.172,2.98
			c2.13,0.425,4.044-0.852,4.684-2.768c0.213-0.426,0.213-1.064,0.425-1.491l0.213-1.063h-0.213v-0.425c0-0.214,0-0.424,0-0.638
			c-0.425-2.13-1.064-4.469-3.618-5.107c-2.343-0.855-4.897-1.279-7.664-1.279c-1.489,0-2.98-0.426-4.471-1.064
			c-1.063-0.424-1.916-1.063-2.766-1.915c-1.277-1.279-2.342-2.767-3.406-4.257c-2.342-3.405-5.748-5.108-8.515-6.386l-0.425-0.212
			c-3.193-1.49-6.6-2.767-9.579-5.108c-0.426-0.213-0.852-0.425-1.277-0.638c-0.427-0.213-0.639-0.213-0.852-0.425
			c-1.492-0.853-2.98-1.064-4.471-1.276l-0.851-0.215c-0.425,0-0.638,0-1.064,0c-2.127,0-4.044,1.065-5.107,2.555
			c-0.213,0.215-0.213,0.854-0.213,1.277C181.329,372.272,182.605,374.826,185.374,376.104z"/>
		<path fill="#008EBF" d="M208.362,396.113h-0.214c-1.065,0.212-2.129,0.424-2.979,0.852c-1.489,0.852-2.98,1.703-4.257,2.555
			c-1.277,0.851-2.554,1.915-3.832,2.767l-1.063,0.639c-1.278,0.851-2.555,1.704-3.833,2.555c-0.852,0.425-1.49,0.851-2.342,1.277
			c-0.852,0.212-1.702,0.638-2.34,0.853c-0.851,0.212-1.703,0.637-2.341,0.853l-1.065,0.422c-1.915,0.854-3.832,1.492-5.533,2.555
			c-2.129,1.065-3.406,2.555-3.832,4.471c-0.639,2.128,0.426,4.471,2.341,5.108c0.852,0.216,1.702,0.426,2.34,0.426h0.213
			c0.211,0,0.425,0,0.638,0l0,0l0,0c2.555-0.212,5.533-0.638,7.664-2.98c0.851-0.851,1.489-1.701,2.34-2.339l1.49-1.492
			c0.213-0.213,0.426-0.422,0.638-0.639c2.981-1.7,6.174-3.193,10.005-3.405c3.619-0.212,5.96-2.767,7.45-4.471
			c0.638-0.64,0.852-1.49,1.065-2.13c0.214-0.854,0.214-1.915,0.214-2.767c0-1.064,0-1.915-0.214-2.768
			C210.49,397.178,209.639,396.113,208.362,396.113z"/>
		<path fill="#008EBF" d="M149.826,522.556c0.212,1.276,0.424,2.342,1.49,3.191c1.49,1.276,3.618,1.705,5.96,1.276
			c1.276-0.212,2.341-1.063,2.979-2.128c0.852-1.916,1.49-4.257,1.703-6.172c0.213-1.699,0.639-3.194,1.065-4.896v-0.215
			c0.425-1.916,0.852-3.831,1.277-5.745c0.426-2.981,0.213-5.324-1.065-7.451c-0.638-1.276-2.341-2.131-3.832-2.131
			c-0.425,0-0.852,0-1.276,0.217c-1.917,0.638-4.046,2.979-4.47,4.684c-0.426,1.914-0.852,3.617-0.852,5.319
			c-0.213,1.703-0.639,3.619-1.277,5.534c-1.064,2.555-1.491,4.684-1.702,7.026v0.424c0,0.215,0,0.639,0,0.853V522.556
			L149.826,522.556z"/>
		<path fill="#008EBF" d="M170.26,382.49c-1.917,0.424-2.979,1.703-3.832,3.193c-1.704,2.554-1.063,5.109,1.701,6.81
			c1.277,0.853,2.342,1.491,3.407,1.917c2.129,0.851,3.619,1.491,5.322,1.917c0.424,0.212,0.852,0.426,1.276,0.426
			c1.277,0.636,2.342,1.063,3.833,0.85l0,0l0,0c1.277,0.213,2.341-0.214,3.193-1.064c1.065-1.491,1.489-3.192,1.276-4.684
			c-0.852-3.618-2.979-5.96-6.172-6.81c-0.638-0.214-1.277-0.424-1.917-0.638c-0.425-0.214-0.852-0.214-1.066-0.424l-1.276-0.426
			c-1.065-0.426-2.128-0.853-3.193-1.064C171.963,382.276,171.111,382.276,170.26,382.49z"/>
		<path fill="#008EBF" d="M165.577,603.654c-1.064-0.637-1.703-0.852-2.342-0.852c-1.278,0-2.128,1.064-2.767,2.129l-0.214,0.216
			c-0.851,1.062-1.489,2.338-2.127,3.406c-0.641,1.488-1.065,2.768-1.065,4.255c-0.213,1.49,0.213,2.554,1.276,3.407
			c1.064,0.854,2.981,1.491,4.684,1.491c1.277,0,2.341-0.215,3.193-0.853c0.213-0.218,0.638-0.218,0.638-0.64
			c1.703-2.769,3.406-5.745,1.49-9.365C167.919,605.997,167.066,604.507,165.577,603.654z"/>
	</g>
</g>
</svg>
