<?xml version="1.0" encoding="utf-8"?>
<!-- Generator: Adobe Illustrator 16.0.0, SVG Export Plug-In . SVG Version: 6.00 Build 0)  -->
<!DOCTYPE svg PUBLIC "-//W3C//DTD SVG 1.1//EN" "http://www.w3.org/Graphics/SVG/1.1/DTD/svg11.dtd">
<svg version="1.1" id="Calque_1" xmlns="http://www.w3.org/2000/svg" xmlns:xlink="http://www.w3.org/1999/xlink" x="0px" y="0px"
	 width="1000px" height="1000px" viewBox="0 0 1000 1000" enable-background="new 0 0 1000 1000" xml:space="preserve">
<g>
	
		<radialGradient id="SVGID_1_" cx="3165.082" cy="3521.5918" r="3905.5542" gradientTransform="matrix(0.1616 0 0 0.1616 101.724 -186.1989)" gradientUnits="userSpaceOnUse">
		<stop  offset="0" style="stop-color:#456587"/>
		<stop  offset="0.2555" style="stop-color:#2C4F73"/>
		<stop  offset="0.5931" style="stop-color:#0C395D"/>
		<stop  offset="0.8524" style="stop-color:#002D50"/>
		<stop  offset="1" style="stop-color:#00294B"/>
	</radialGradient>
	<path fill="url(#SVGID_1_)" d="M478.754,0.849c-8.979-0.538-17.94-0.842-26.794-0.842C328.173-0.155,216.07,52.536,118.396,157.022
		C29.573,251.919-0.285,328.356,0.002,420.583c0.144,49.321,8.907,103.231,21.865,166.944
		C46.241,707.3,117.319,822.88,216.931,904.747c76.223,62.62,161.244,94.664,250.873,95.238
		c46.418,0.305,94.055-7.814,142.391-24.481c155.976-53.82,305.212-207.968,362.85-374.805
		c18.244-52.78,27.098-104.198,26.954-153.089c-0.466-119.522-55.092-224.276-159.381-299.173
		C714.017,57.5,592.308,7.875,478.754,0.849z"/>
	<g>
		<path fill="#FFFFFF" d="M300.716,501.627h-34.303l-0.054,0.985c-0.305,6.685-4.247,65.003-56.454,65.003
			c-46.651,0-70.345-41.812-70.38-124.271c0.035-82.423,23.729-124.253,70.38-124.253c53.085,0,56.293,62.315,56.454,65.003
			l0.054,0.985h34.303c3.154,0,6.219-1.272,8.441-3.53c2.115-2.187,3.208-5,3.064-7.939c-0.698-16.166-8.996-96.887-102.782-96.887
			c-75.774,0-115.831,57.619-115.831,166.549c0,109.146,40.038,166.89,115.831,166.89c90.219,0,101.438-73.713,102.782-96.276
			c0.197-3.137-0.842-6.147-3.011-8.406C306.988,502.899,303.889,501.627,300.716,501.627z"/>
		<path fill="#62C4DD" d="M833.664,423.451L833.664,423.451l-29.5-12.832c-28.424-12.474-38.461-24.625-38.461-46.418
			c0-28.424,20.754-47.494,51.67-47.494c18.298,0,33.281,3.746,51.633,22.385l0.986,1.04l15.771-14.427
			c9.158-8.459,6.47-16.13,2.67-21.022c-15.377-18.137-40.038-28.066-69.556-28.066c-56.83,0-98.123,37.081-98.123,88.194
			c0,50.217,31.65,71.24,65.846,86.474l30.145,13.424c30.324,13.585,44.752,25.163,44.752,54.322
			c0,39.751-35.934,50.379-57.153,50.379c-18.245,0-38.604-3.907-63.569-32.188l-0.986-1.129L723.354,550.5
			c-8.459,7.42-8.495,13.818-0.286,24.374c22.563,29.069,55.755,35.146,79.573,35.146c51.508,0,103.733-31.633,103.733-92.138
			C906.392,465.478,877.322,442.251,833.664,423.451z"/>
		<path fill="#62C4DD" d="M542.359,371.943c0-51.454-41.741-95.059-93.195-95.059c-24.23,0-46.274,9.248-62.834,24.356v-17.689
			h-30.987c-9.338,0-12.904,6.076-12.904,13.101v300.355c0,8.441,5.144,12.939,12.761,12.939h30.987V373.753
			c0-31.023,25.162-56.204,56.222-56.204c31.04,0,56.203,25.163,56.203,56.204v236.248h30.808c8.549,0,12.958-4.749,12.958-12.903
			C542.359,597.115,542.359,372.248,542.359,371.943z"/>
		<path fill="#FFFFFF" d="M720.146,299.341c1.631-2.043,2.635-4.552,2.635-7.33c0-5.162-3.369-9.481-8.029-11.076
			c-8.943-3.011-18.531-4.642-28.46-4.642c-24.23,0-46.274,9.248-62.835,24.374v-17.689h-31.005
			c-9.338,0-12.904,6.076-12.904,13.101v300.283c0,8.441,5.197,12.94,12.814,12.94h30.97V373.144
			c0-31.059,25.162-56.221,56.221-56.221c8.119,0,15.825,1.792,22.797,4.857l17.887-22.492L720.146,299.341z"/>
	</g>
</g>
</svg>
