<?xml version="1.0" encoding="utf-8"?>
<!-- Generator: Adobe Illustrator 27.5.0, SVG Export Plug-In . SVG Version: 6.00 Build 0)  -->
<svg version="1.1" id="Calque_1" xmlns="http://www.w3.org/2000/svg" xmlns:xlink="http://www.w3.org/1999/xlink" x="0px" y="0px"
	 viewBox="0 0 256 256" style="enable-background:new 0 0 256 256;" xml:space="preserve">
<style type="text/css">
	.st0{fill-rule:evenodd;clip-rule:evenodd;fill:#43B02A;stroke:#43B02A;stroke-width:0.6262;stroke-miterlimit:100;}
	.st1{fill:#43B02A;}
	.st2{fill-rule:evenodd;clip-rule:evenodd;fill:#43B02A;stroke:#43B02A;stroke-width:0.609;stroke-miterlimit:100;}
</style>
<path class="st0" d="M133.1,56.1c-3-5.7-6.8-11-11.3-15.6c-1.5,6.5-2.1,13.3-1.7,20C124.2,58.4,128.6,56.9,133.1,56.1L133.1,56.1z"
	/>
<path class="st0" d="M106.2,68.3c-5.5-4.5-11.6-8.2-18.2-11c1.7,7,4.4,13.7,8.1,20C96.1,77.8,100.1,72.9,106.2,68.3L106.2,68.3z"/>
<path class="st0" d="M141.2,47.4c3-7.4,7-14.3,11.9-20.5c-4.1-7.3-9.5-13.7-16-19.1c-5,6.3-9,13.3-11.9,20.8
	C131.5,34,136.9,40.4,141.2,47.4L141.2,47.4z"/>
<path class="st0" d="M87.7,89.1L87.7,89.1c-8.1-1.6-16.4-2-24.6-1.4c4.8,6.8,10.8,12.7,17.6,17.4C82.3,99.4,84.6,94.1,87.7,89.1
	L87.7,89.1z"/>
<path class="st0" d="M44.6,120.3c8.1-5.4,17.3-8.9,26.9-10.4c-7.3-5.9-13.6-13-18.8-20.8c-9.3,1.8-18.2,5.6-26,11
	C31.2,108,37.3,114.9,44.6,120.3L44.6,120.3z"/>
<path class="st0" d="M77.9,117.7c-9.1,0.6-17.9,3.4-25.7,8.1c8,5,16.6,8.7,25.7,11l0,0C77,130.5,77,124,77.9,117.7L77.9,117.7z"/>
<path class="st0" d="M112.3,32.4c-7.5-5-15.8-8.5-24.6-10.5c-1.8,7.8-2.4,15.8-1.8,23.8c8.1,2.6,15.7,6.5,22.6,11.6
	C108.7,48.9,109.9,40.5,112.3,32.4z"/>
<path class="st0" d="M201.4,11.3c4.1,12.2,6.9,24.8,8.4,37.6c-10.4,2.2-20,7-28.1,13.9c5.1,2.6,9.9,5.8,14.2,9.5
	c3.7,4.3,10,5.5,15,2.9c8.7-7.9,17-16.2,24.9-24.9c4.2-4.8,3.8-12.2-1-16.4c-0.1-0.1-0.3-0.2-0.4-0.4
	C224.2,25,213.1,17.5,201.4,11.3L201.4,11.3z"/>
<path class="st0" d="M21.7,92c7.9-5.4,16.7-9.3,26-11.5c-4.1-8.5-6.5-17.8-6.9-27.2C32.4,65.1,26,78.1,21.7,92z"/>
<path class="st0" d="M85.4,79.3c-4.1-8-7.1-16.6-8.7-25.5c-8.7-2-17.7-2.4-26.6-1.2c0.6,9.2,3,18.1,7.2,26.3
	C66.6,77.6,76.1,77.7,85.4,79.3z"/>
<path class="st0" d="M37.7,125.5c-7.4-6.1-13.7-13.4-18.5-21.7c-2.8,14.8-3,29.9-0.6,44.8C23.4,139.8,29.9,131.9,37.7,125.5z"/>
<path class="st0" d="M187.8,13.6c-7.6,3.6-14.5,8.6-20.3,14.7c3.4,7.3,5.9,15,7.5,22.9c6.4-5,13.6-9.1,21.1-12.2
	C195.3,30,192.4,21.3,187.8,13.6z"/>
<path class="st0" d="M158.8,39.3c-3.1,4.8-5.6,10-7.5,15.3l0,0c4.1,0.3,8.1,0.9,12.2,1.7C162.7,50.5,161.1,44.8,158.8,39.3z"/>
<path class="st0" d="M161.5,17.4c5.6-5.3,12-9.9,18.8-13.6c-11-2.6-22.3-3.9-33.5-3.8C152.3,5.1,157.3,11,161.5,17.4z"/>
<path class="st1" d="M232,200.2c-18.2-17.4-21.9-28.6-37.3-16.8c-30.5,25.2-75.7,20.9-100.9-9.7c-6.8-8.2-11.7-17.9-14.2-28.2
	c-12.6-2.5-24.5-7.5-35-14.7c-10,8.2-18,18.6-23.4,30.4h-0.3c26.3,99.5,154.5,122.6,213.8,60.5C244.5,211.2,235.5,203.9,232,200.2z
	 M39.4,172.4c1.9-6.6,4.7-12.8,8.4-18.5c6.2,2.7,12.9,4.4,19.7,4.9c9.3,24.6,41.7,57.3,81.6,57.3c21.1,0.1,41.6-7.4,57.6-21.1
	c5.9,4.9,11.3,10.3,16.2,16.2c0.9,1.2,0.9,1.5,0.9,1.5C171,258.6,81.6,251.9,39.4,172.4z"/>
<path class="st2" d="M79.3,19.3c-1.1,7.6-1.8,15.3-2,22.9c-8.1-1.3-16.4-1.6-24.6-0.9C60.8,33.1,69.7,25.7,79.3,19.3z"/>
<path class="st2" d="M93.8,11.7c7.9,2.1,15.4,5.3,22.4,9.6c3.2-6.8,7.1-13.4,11.5-19.5C115.9,3.2,104.5,6.6,93.8,11.7z"/>
</svg>
