<?xml version="1.0" encoding="utf-8"?>
<!-- Generator: Adobe Illustrator 27.5.0, SVG Export Plug-In . SVG Version: 6.00 Build 0)  -->
<svg version="1.1" id="Calque_1" xmlns="http://www.w3.org/2000/svg" xmlns:xlink="http://www.w3.org/1999/xlink" x="0px" y="0px"
	 viewBox="0 0 256 256" style="enable-background:new 0 0 256 256;" xml:space="preserve">
<style type="text/css">
	.st0{fill-rule:evenodd;clip-rule:evenodd;fill:#FFFFFF;stroke:#2DB24A;stroke-width:0.1287;}
	.st1{fill-rule:evenodd;clip-rule:evenodd;fill:#43B02A;stroke:#43B02A;stroke-width:0.1287;}
	.st2{filter:url(#Adobe_OpacityMaskFilter);}
	.st3{fill-rule:evenodd;clip-rule:evenodd;fill:#FFFFFF;}
	.st4{mask:url(#mask-2_00000082342730481446381020000002924322806390919045_);}
	.st5{filter:url(#Adobe_OpacityMaskFilter_00000033364642358963204610000002311654677293459897_);}
	
		.st6{mask:url(#mask-4_00000100354869911787463580000013576003260373210544_);fill-rule:evenodd;clip-rule:evenodd;fill:#FFFFFF;stroke:#2DB24A;stroke-width:0.1287;}
	.st7{fill:none;stroke:#2DB24A;stroke-width:0.1287;}
	.st8{fill-rule:evenodd;clip-rule:evenodd;fill:#43B02A;}
</style>
<g id="Page-1">
	<g id="logo_conda_RGB_inkscape" transform="translate(-2.000000, -3.000000)">
		<g id="g3588">
			<g id="g19-Clipped">
				<g id="g19" transform="translate(2.309575, 2.309575)">
					<path id="path21" class="st0" d="M12.6,130.4c-1-0.2-3.1-0.9-5.3-2.3c2.4-1.4,4.5-1.6,5.3-1.7c0.1-0.9,0.3-1.7,0.5-2.6
						c-0.8-0.6-2.3-1.8-3.6-3.6c2.2-0.2,4.1,0.1,5.1,0.3c0.5-0.8,1.1-1.6,1.8-2.4c-0.4-0.7-1.2-2.1-1.7-4.1c1.8,0.8,3.1,1.7,3.7,2.3
						c0.9-0.7,1.8-1.2,2.8-1.7c0-0.8,0-2.3,0.4-4.1c1.2,1.3,2,2.6,2.3,3.2c1.2-0.2,2.4-0.4,3.7-0.3c0.2-0.7,0.7-1.8,1.5-3.2
						c0.6,1.5,0.8,2.8,1,3.4c1.3,0.3,2.6,0.7,3.7,1.3c1.9-1.6,3.7-2.3,5.8-2.9c0-2.6-0.4-5.2-1.7-7.7c-1.4-0.7-2.9-1.1-4.3-1.5
						c-1.5,0.8-2.8,1.8-3.9,2.8c-0.8-1.2-1.8-2.4-3-3.6c-0.6,0-1.7-0.1-3.9,0.3c-1.1,1.4-1.8,2.7-2.4,4.1c-1.3-0.8-2.9-1.5-4.8-2
						c-1.1,0.5-2.1,1-3.1,1.6c-0.4,1.7-0.5,3.3-0.4,4.8c-1.5-0.3-3.3-0.4-5.2-0.2c-0.7,0.7-1.3,1.5-1.9,2.3c0.1,2.1,0.7,4,1.4,5.6
						c-1.8,0.4-3.6,1.2-5.4,2.4c-0.2,0.8-0.4,1.6-0.6,2.4c1.1,1.8,2.4,3.3,3.8,4.5c-1.4,1.1-2.7,2.7-4,4.8c0.1,0.9,0.3,1.7,0.5,2.6
						h0.1c1.4-3,3.2-4.9,4.8-6.2c3.4,2.3,6.7,3,7.2,3C12.8,131.7,12.6,131.2,12.6,130.4L12.6,130.4z M35.2,105.2
						c1.2,1.8,1.6,4,1.7,5.2c-1.1,0.4-2.7,1.2-4.3,2.5c-0.2-1.1-0.7-2.8-1.5-4.7C32.1,107.1,33.5,106.1,35.2,105.2L35.2,105.2z
						 M24.8,104c1.4,1.2,2.5,2.6,3.3,3.9c-1.2,1.6-2,3.2-2.4,4.2c-0.6-1.1-1.7-2.5-3.3-3.9C22.9,106.8,23.6,105.4,24.8,104L24.8,104
						z M14.6,106.9c2.1,0.4,3.7,1.2,5.1,2.1c-0.6,2.1-0.7,3.9-0.7,5.1c-1.1-0.8-2.6-1.7-4.6-2.4C14.1,110.4,14.2,108.7,14.6,106.9
						L14.6,106.9z M12.4,113.4c0.4,2.3,1.2,4.1,1.8,5.2c-1.4-0.2-3.4-0.4-5.8-0.1c-0.8-1.5-1.4-3.3-1.5-5.4
						C9,112.9,10.8,113.1,12.4,113.4L12.4,113.4z M2,123c1.7-1.2,3.6-1.9,5.4-2.3c1.2,2,2.8,3.4,3.9,4.3c-1.4,0.2-3.4,0.8-5.5,2.1
						C4.4,126.1,3.1,124.7,2,123L2,123z"/>
					<g id="g23">
						<path id="path25" class="st1" d="M23.9,113.9c-0.4-0.7-1.1-2-2.3-3.2c-0.4,1.8-0.4,3.3-0.4,4.1
							C21.2,114.8,22.4,114.2,23.9,113.9L23.9,113.9z"/>
						<path id="path27" class="st1" d="M0,101.9"/>
						<path id="path29" class="st1" d="M0,101.9"/>
						<path id="path31" class="st1" d="M0,101.9"/>
						<path id="path35" class="st1" d="M18.4,116.4c-0.7-0.5-1.9-1.5-3.7-2.3c0.5,2,1.2,3.4,1.7,4.1
							C16.3,118.4,17.2,117.4,18.4,116.4L18.4,116.4z"/>
						<path id="path37" class="st1" d="M25.6,112.1c0.4-1.1,1.2-2.6,2.4-4.2c-0.8-1.4-1.8-2.7-3.3-3.9c-1.1,1.4-1.9,2.9-2.4,4.3
							C23.9,109.6,25,111.1,25.6,112.1L25.6,112.1z"/>
						<path id="path39" class="st1" d="M14.6,120.7L14.6,120.7c-1-0.2-2.9-0.5-5.1-0.3c1.3,1.8,2.8,3,3.6,3.6
							C13.1,124,13.6,122.4,14.6,120.7L14.6,120.7z"/>
						<path id="path43" class="st1" d="M5.8,127.1c2.1-1.4,4.2-2,5.5-2.1c-1.1-0.9-2.6-2.3-3.9-4.3c-1.8,0.4-3.6,1.1-5.4,2.3
							C3.1,124.7,4.4,126.1,5.8,127.1L5.8,127.1z"/>
						<path id="path45" class="st1" d="M12.6,126.6c-0.8,0.1-2.9,0.2-5.3,1.7c2.2,1.4,4.3,2,5.3,2.3l0,0
							C12.4,129.2,12.4,127.8,12.6,126.6L12.6,126.6L12.6,126.6z"/>
						<path id="path47" class="st1" d="M19.7,109c-1.3-0.9-3-1.7-5.1-2.1c-0.4,1.8-0.5,3.4-0.4,4.9c2,0.7,3.6,1.6,4.6,2.4
							C18.9,113,19.1,111.1,19.7,109L19.7,109z"/>
						<path id="path49" class="st1" d="M38,104.7c0,0,1.7,5.1,1.7,7.7c-2,0.5-3.8,1.2-5.8,2.9c1.1,0.5,2,1.2,2.9,2
							c1,0.8,1.8,1.2,3.1,0.6c0.7-0.5,4.7-4.6,5.1-5.1c1-1,0.7-2.7-0.3-3.4C42.3,107,38,104.7,38,104.7L38,104.7z"/>
						<path id="path51" class="st1" d="M1.1,121.3c1.8-1.2,3.6-2,5.4-2.4c-0.8-1.6-1.3-3.4-1.4-5.6C3.3,115.8,1.9,118.5,1.1,121.3
							L1.1,121.3z"/>
						<path id="path55" class="st1" d="M14.1,118.7c-0.6-1.1-1.4-3-1.8-5.2c-1.6-0.4-3.4-0.5-5.5-0.2c0.1,2.1,0.7,3.9,1.5,5.4
							C10.7,118.3,12.8,118.4,14.1,118.7L14.1,118.7z"/>
						<path id="path57" class="st1" d="M0,101.9"/>
						<path id="path59" class="st1" d="M6.9,111.1c1.9-0.2,3.7-0.1,5.2,0.2c-0.1-1.5,0.1-3.1,0.4-4.8c1-0.6,2-1.1,3.1-1.6
							c1.9,0.5,3.4,1.2,4.8,2c0.6-1.4,1.4-2.7,2.4-4.1c-5.4,0.8-10.5,3.2-14.4,6.9c-1.2,1.1-2.4,2.4-3.4,3.8
							C5.6,112.6,6.2,111.8,6.9,111.1L6.9,111.1z"/>
						<path id="path61" class="st1" d="M0,101.9"/>
						<path id="path63" class="st1" d="M0,101.9"/>
						<path id="path65" class="st1" d="M0,101.9"/>
						<path id="path67" class="st1" d="M0.8,122.5c0.1-0.4,0.2-0.8,0.3-1.2C0.9,121.7,0.8,122.1,0.8,122.5L0.8,122.5z"/>
						<path id="path69" class="st1" d="M0,101.9"/>
						<path id="path71" class="st1" d="M4.3,128.2c-1.4-1.1-2.7-2.6-3.8-4.5c-0.6,3-0.6,6.2-0.1,9.2C1.5,130.9,2.9,129.4,4.3,128.2
							L4.3,128.2z"/>
						<path id="path73" class="st1" d="M0,101.9"/>
						<path id="path75" class="st1" d="M44.3,143.5c-3.7-3.6-4.5-5.9-7.7-3.4c-8.6,6.8-21,2.7-23.7-7.8c-0.5-0.1-3.8-0.7-7.2-3
							c-1.7,1.3-3.4,3.3-4.8,6.2H0.9c5.4,20.4,31.7,25.2,43.9,12.4C46.8,145.8,45,144.3,44.3,143.5L44.3,143.5z"/>
						<path id="path77" class="st1" d="M0,101.9"/>
						<path id="path79" class="st1" d="M35.2,105.2c-1.7,0.8-3.1,1.9-4.2,3c0.9,1.9,1.3,3.6,1.5,4.7c1.7-1.3,3.3-2.1,4.3-2.5
							C36.8,109.2,36.4,107,35.2,105.2L35.2,105.2z"/>
						<path id="path81" class="st1" d="M0,101.9"/>
						<path id="path83" class="st1" d="M29.2,110.5c-0.8,1.3-1.3,2.5-1.5,3.2l0,0c0.8,0.1,1.7,0.2,2.5,0.4
							C30.1,113.3,29.8,112,29.2,110.5L29.2,110.5z"/>
						<path id="path85" class="st1" d="M35.8,103.9c-0.3-0.1-0.7-0.2-1-0.3C35.2,103.6,35.5,103.8,35.8,103.9L35.8,103.9z"/>
						<path id="path87" class="st1" d="M29.8,106c1.1-1,2.3-2,3.9-2.8c-2.2-0.5-4.5-0.8-6.9-0.8C28,103.5,29,104.8,29.8,106
							L29.8,106z"/>
						<path id="path89" class="st1" d="M0,101.9"/>
					</g>
					<g id="g91" transform="translate(8.083511, 62.358512)">
						<g id="g99-Clipped">
							<g id="SVGID_2_">
							</g>
							<defs>
								<filter id="Adobe_OpacityMaskFilter" filterUnits="userSpaceOnUse" x="-8.5" y="39.2" width="46.7" height="54.3">
									<feColorMatrix  type="matrix" values="1 0 0 0 0  0 1 0 0 0  0 0 1 0 0  0 0 0 1 0"/>
								</filter>
							</defs>
							
								<mask maskUnits="userSpaceOnUse" x="-8.5" y="39.2" width="46.7" height="54.3" id="mask-2_00000082342730481446381020000002924322806390919045_">
								<g class="st2">
									<path id="path-1_00000050653618076391009590000017138700646844098212_" class="st3" d="M2.4,72.7
										c1.9,5.1,8.6,11.8,16.8,11.8c4.5,0,8.6-1.6,11.8-4.3c0.2-0.1,2.4,2.4,3.3,3.3c0.2,0.2,0.2,0.3,0.2,0.3
										c-10.8,9.5-29.2,8.1-37.9-8.3c0.7-2.4,1.7-3.8,1.7-3.8C0.6,72.6,2.4,72.7,2.4,72.7L2.4,72.7z"/>
								</g>
							</mask>
							<g id="g99" class="st4">
								<g transform="translate(-9.238298, -63.513300)">
									<g id="rect107-Clipped">
										<g id="SVGID_4_">
										</g>
										<defs>
											
												<filter id="Adobe_OpacityMaskFilter_00000109747600993943387520000013705161485918531738_" filterUnits="userSpaceOnUse" x="1.9" y="131.3" width="45.6" height="25.7">
												<feColorMatrix  type="matrix" values="1 0 0 0 0  0 1 0 0 0  0 0 1 0 0  0 0 0 1 0"/>
											</filter>
										</defs>
										
											<mask maskUnits="userSpaceOnUse" x="1.9" y="131.3" width="45.6" height="25.7" id="mask-4_00000100354869911787463580000013576003260373210544_">
											<g style="filter:url(#Adobe_OpacityMaskFilter_00000109747600993943387520000013705161485918531738_);">
												
													<rect id="path-3_00000082336817192414454540000012226594614264566923_" x="0.8" y="102.8" class="st3" width="46.6" height="53.5"/>
											</g>
										</mask>
										<rect id="rect107" x="2" y="131.4" class="st6" width="45.5" height="25.6"/>
									</g>
									<g id="use109">
										
											<rect id="SVGID_00000004538100361641082310000001339962169449143442_" x="0.8" y="102.8" class="st7" width="46.6" height="53.5"/>
									</g>
								</g>
							</g>
						</g>
						<g id="use111">
							<path id="SVGID_00000049914283971247533370000013132216001844840610_" class="st7" d="M2.4,72.7c1.9,5.1,8.6,11.8,16.8,11.8
								c4.5,0,8.6-1.6,11.8-4.3c0.2-0.1,2.4,2.4,3.3,3.3c0.2,0.2,0.2,0.3,0.2,0.3c-10.8,9.5-29.2,8.1-37.9-8.3
								c0.7-2.4,1.7-3.8,1.7-3.8C0.6,72.6,2.4,72.7,2.4,72.7L2.4,72.7z"/>
						</g>
					</g>
				</g>
			</g>
			<g id="g119" transform="translate(97.002130, 2.309575)">
				<path id="path121" class="st8" d="M-19.5,102.3c14.6,0,26.3,11.8,26.3,26.3c0,14.6-11.7,26.2-26.3,26.2s-26.2-11.6-26.2-26.2
					S-34.1,102.3-19.5,102.3L-19.5,102.3z M-19.5,145.4c9.2,0,16.8-7.5,16.8-16.7c0-9.2-7.6-16.9-16.8-16.9s-16.7,7.7-16.7,16.9
					C-36.2,137.9-28.7,145.4-19.5,145.4L-19.5,145.4z"/>
				<path id="path123" class="st8" d="M14.7,103.6c0-0.7,0.7-1.3,1.4-1.3h1.8l30.4,32.3h0.1v-30.1c0-0.7,0.6-1.4,1.4-1.4h6.7
					c0.7,0,1.4,0.7,1.4,1.4v49.2c0,0.7-0.7,1.3-1.4,1.3h-1.7l-30.6-33.5h-0.1v31.4c0,0.7-0.6,1.4-1.4,1.4H16c-0.7,0-1.4-0.7-1.4-1.4
					V103.6L14.7,103.6z"/>
				<path id="path125" class="st8" d="M69.1,104.5c0-0.7,0.6-1.4,1.3-1.4h17.3c14.1,0,25.6,11.5,25.6,25.5
					c0,14.1-11.5,25.6-25.6,25.6H70.4c-0.7,0-1.3-0.7-1.3-1.4V104.5L69.1,104.5z M86.9,145.2c9.5,0,16.4-7.1,16.4-16.7
					c0-9.5-7-16.6-16.4-16.6h-8.3v33.3H86.9L86.9,145.2z"/>
				<path id="path127" class="st8" d="M112.5,152.3l22.7-49.2c0.2-0.4,0.6-0.8,1.2-0.8h0.7c0.7,0,1,0.4,1.2,0.8l22.5,49.2
					c0.4,1-0.1,1.9-1.2,1.9h-6.4c-1.1,0-1.6-0.4-2.1-1.5l-3.6-7.9h-21.8l-3.6,7.9c-0.3,0.7-1,1.5-2.1,1.5h-6.4
					C112.6,154.2,112.1,153.2,112.5,152.3L112.5,152.3z M144,136.7l-7.3-16.1h-0.2l-7.1,16.1H144L144,136.7z"/>
			</g>
		</g>
	</g>
</g>
</svg>
