<?xml version="1.0" encoding="utf-8"?>
<!-- Generator: Adobe Illustrator 27.3.1, SVG Export Plug-In . SVG Version: 6.00 Build 0)  -->
<svg version="1.1" id="Calque_1" xmlns="http://www.w3.org/2000/svg" xmlns:xlink="http://www.w3.org/1999/xlink" x="0px" y="0px"
	 viewBox="0 0 256 256" style="enable-background:new 0 0 256 256;" xml:space="preserve">
<style type="text/css">
	.st0{fill:#020203;}
	.st1{fill:#0A70B8;}
	.st2{fill:#2EA9DF;}
	.st3{fill:#CFCFCF;}
	.st4{fill:#FFFFFF;}
</style>
<g id="_x23_000000ff">
	<path class="st0" d="M73.2,0.1c11.2-0.1,22.4,0,33.7,0c0,3.5,0.1,7,0,10.5c-7.8-0.1-15.5,0-23.3,0c-0.1,5.1-0.2,10.2-0.1,15.3
		c7.8,0,15.6,0.1,23.4,0.1c0.1,2.9,0.1,5.8,0,8.7c-11.2-0.1-22.4,0-33.6,0C73.3,23.1,73.3,11.6,73.2,0.1z"/>
	<path class="st0" d="M110.9,0c11.4,0,22.7-0.1,34.1,0c0,3.3,0,6.6,0,9.9c-8.3,0-16.5,0-24.8,0.1c0,1.3,0,2.6,0,3.9
		c8.3,0.1,16.5,0.1,24.8,0.2c0,6.8,0,13.6,0.1,20.4c-11.4,0-22.7,0-34.1,0c-0.1-2.7-0.1-5.5,0-8.2c7.9,0,15.8,0,23.6,0
		c0-1.8,0.1-3.5,0.1-5.3c-7.9,0-15.8,0-23.7,0C110.9,14.1,110.9,7,110.9,0z"/>
	<path class="st0" d="M148.8,0.1c11.3,0,22.7,0,34,0c0,3.3,0.1,6.7,0,10c-8.3,0-16.6,0-24.9,0.1c0,1.4,0.1,2.7,0.1,4.1
		c8.3,0,16.5,0.1,24.8,0.1c0.1,6.8,0.1,13.5,0,20.3c-11.4,0-22.7,0-34.1,0c-0.1-2.7-0.1-5.5,0-8.2c7.9,0.1,15.7,0,23.6,0
		c0-1.8,0.1-3.5,0-5.3c-7.9,0.1-15.8,0-23.7,0C148.7,14.1,148.7,7.1,148.8,0.1z"/>
</g>
<g id="_x23_0170baff">
	<path class="st1" d="M36.7,49c60.9,0,121.7,0,182.6,0c-3.3,37.9-6.6,75.7-10.1,113.5c-2.1,24.2-4.2,48.4-6.5,72.5
		c-13,3.4-25.8,7.4-38.8,10.8c-11.9,3.5-23.9,6.7-35.9,10.1h-0.4c-11.4-3.4-22.8-6.3-34.2-9.7c-13.4-3.6-26.7-7.6-40.1-11.2
		c-1.7-18.1-3.3-36.2-4.9-54.4c-2.9-33.5-6.1-67-8.9-100.5c-1-10.1-1.7-20.2-2.8-30.3V49 M128.3,63.9c-0.1,7.3,0.1,14.5-0.1,21.8
		c-20.9-0.1-41.8,0-62.6,0c0.4,7.1,1.3,14.1,2.3,21.1c19.4,0.7,38.9,0,58.3,0.6c-17,7.6-34.2,14.8-51.3,22.3c-1.5,0.7-3,1.1-4.3,2.1
		c0.1,7.8,1.4,15.5,1.9,23.2c10.4,0,20.7-0.2,31.1-0.2c8.3,0,16.6,0.1,24.9-0.1c-0.4,12.7,0.1,25.5-0.3,38.3
		c-5.6-0.8-11.1-2.1-16.7-3.1c-4.4-1-8.9-1.5-13.2-2.7c-0.6-6.1-1-12.3-1.6-18.4c-1.3-0.4-2.6-0.3-3.9-0.4c-6.3,0-12.5,0-18.8,0.1
		c0.6,11.8,1.7,23.5,3.5,35.2c6.2,1.6,12.4,3.2,18.6,4.9c9.5,2.6,19,4.7,28.5,7.2c1.1,0.2,2.3,0.7,3.4,0.6
		c0.6,7.7,0.1,15.5,0.3,23.3c2.2-0.4,4.3-0.9,6.4-1.5c17.9-4.9,35.9-9.8,53.8-14.8c0.9-7.1,1.3-14.2,2-21.2
		c1.9-21.5,3.7-43,5.7-64.5c2.3-24.6,4.3-49.2,6.6-73.8C177.9,63.9,153.1,63.8,128.3,63.9z"/>
</g>
<g id="_x23_29a9dfff">
	<path class="st2" d="M128.3,63.9c24.8-0.1,49.6,0,74.5,0c-2.3,24.6-4.3,49.2-6.6,73.8c-2,21.5-3.8,43-5.7,64.5
		c-0.7,7.1-1.1,14.2-2,21.2c-17.9,4.9-35.8,9.9-53.8,14.8c-2.1,0.7-4.3,1.2-6.4,1.5c-0.1-7.8,0.4-15.6-0.3-23.3
		c0.2,0,0.5-0.1,0.6-0.1c16.7-4.2,33.3-8.8,49.9-13.1c2.1-23.6,4.4-47.2,5.9-70.9c-14.2,0.1-28.3,0-42.5,0.1c-2.1,0-4.1,0-6.2-0.1
		c7.6-3.9,15.6-7,23.5-10.5c7.5-3.4,15.1-6.6,22.6-9.9c1.5-0.7,3-1.2,4.3-2.2c0.5-1.8,0.5-3.8,0.7-5.7c0.4-6,1.2-11.9,1.5-17.9
		c-20.1-0.2-40.1,0-60.2-0.1C128.4,78.4,128.2,71.2,128.3,63.9z"/>
	<path class="st2" d="M128.4,154.6c9.7-0.2,19.4,0.1,29.1,0c-0.5,9.9-1.4,19.8-1.9,29.7c-5.9,1.9-12,3.6-17.9,5.4
		c-3.2,1-6.5,1.7-9.5,3.2C128.5,180.1,128,167.4,128.4,154.6z"/>
</g>
<g id="_x23_cfcfcfff">
	<path class="st3" d="M65.5,85.7c20.9,0,41.8-0.1,62.6,0c0.3,23-0.1,45.9,0.2,68.9c-8.3,0.2-16.6,0-24.9,0.1
		c-10.4,0-20.7,0.2-31.1,0.2c-0.6-7.7-1.8-15.4-1.9-23.2c1.3-1,2.9-1.4,4.3-2.1c17.1-7.5,34.3-14.6,51.3-22.3
		c-19.4-0.6-38.9,0.2-58.3-0.6C66.8,99.8,65.9,92.8,65.5,85.7z"/>
	<path class="st3" d="M74,168.4c6.3-0.1,12.6,0,18.8-0.1c1.3,0,2.6,0,3.9,0.4c0.5,6.1,1,12.3,1.6,18.4c4.3,1.3,8.8,1.8,13.2,2.7
		c5.6,1,11.1,2.2,16.7,3.1c0.5,7.8-0.4,15.6,0.5,23.3c-0.2,0-0.5,0.1-0.6,0.1c-1.2,0.1-2.3-0.3-3.4-0.6c-9.5-2.5-19.1-4.7-28.5-7.2
		c-6.2-1.7-12.4-3.3-18.6-4.9C75.7,191.9,74.6,180.2,74,168.4z"/>
</g>
<g id="_x23_ffffffff">
	<path class="st4" d="M128.2,85.7c20.1,0.1,40.1,0,60.2,0.1c-0.3,6-1.1,11.9-1.5,17.9c-0.2,1.9-0.2,3.8-0.7,5.7
		c-1.3,1-2.8,1.5-4.3,2.2c-7.5,3.3-15.1,6.5-22.6,9.9c-7.8,3.5-15.8,6.6-23.5,10.5c2.1,0.1,4.1,0.2,6.2,0.1
		c14.2-0.1,28.3,0,42.5-0.1c-1.5,23.7-3.8,47.3-5.9,70.9c-16.6,4.3-33.2,8.9-49.9,13.1c-0.9-7.7,0-15.5-0.5-23.3
		c3-1.4,6.3-2.2,9.5-3.2c6-1.8,12-3.4,17.9-5.4c0.5-9.9,1.3-19.8,1.9-29.7c-9.7,0.1-19.4-0.2-29.1,0
		C128.1,131.6,128.4,108.7,128.2,85.7z"/>
</g>
</svg>
