<?xml version="1.0" encoding="utf-8"?>
<!-- Generator: Adobe Illustrator 27.3.1, SVG Export Plug-In . SVG Version: 6.00 Build 0)  -->
<svg version="1.1" id="Calque_1" xmlns="http://www.w3.org/2000/svg" xmlns:xlink="http://www.w3.org/1999/xlink" x="0px" y="0px"
	 viewBox="0 0 256 256" style="enable-background:new 0 0 256 256;" xml:space="preserve">
<style type="text/css">
	.st0{fill:#0A70B8;}
	.st1{fill:#2EA9DF;}
	.st2{fill:#CFCFCF;}
	.st3{fill:#FFFFFF;}
</style>
<g id="_x23_0170baff">
	<path class="st0" d="M15.1,0c75.3,0,150.5,0,225.7,0c-4.1,46.8-8.2,93.6-12.5,140.4c-2.6,29.9-5.2,59.8-8,89.7
		c-16.1,4.3-32,9.1-48,13.4c-14.7,4.3-29.6,8.2-44.4,12.5h-0.4c-14-4.2-28.2-7.8-42.2-12c-16.6-4.5-33-9.4-49.6-13.9
		c-2.2-22.4-4.1-44.8-6-67.2c-3.6-41.4-7.6-82.8-11.1-124.2c-1.2-12.5-2.1-25-3.5-37.4V0 M128.4,18.5c-0.2,9,0.1,18-0.2,27
		c-25.8-0.1-51.6,0-77.5,0c0.4,8.7,1.6,17.4,2.8,26c24,0.9,48.1,0,72.1,0.7c-21,9.4-42.3,18.3-63.4,27.5c-1.8,0.8-3.7,1.4-5.4,2.6
		c0.2,9.6,1.7,19.1,2.4,28.7c12.8,0,25.6-0.3,38.4-0.3c10.3-0.1,20.5,0.2,30.8-0.1c-0.5,15.8,0.2,31.5-0.3,47.3
		c-6.9-1-13.7-2.6-20.6-3.8c-5.4-1.2-11-1.8-16.3-3.3c-0.8-7.6-1.3-15.2-2-22.7c-1.5-0.5-3.2-0.4-4.8-0.5c-7.8,0-15.5,0-23.3,0.1
		c0.8,14.6,2.1,29.1,4.3,43.5c7.6,2,15.3,4,22.9,6c11.7,3.2,23.5,5.8,35.3,9c1.4,0.3,2.8,0.8,4.2,0.7c0.8,9.6,0.2,19.2,0.3,28.8
		c2.7-0.4,5.4-1.1,8-1.9c22.2-6,44.3-12.2,66.5-18.2c1.1-8.7,1.6-17.5,2.5-26.2c2.3-26.6,4.6-53.1,7-79.7
		c2.8-30.4,5.3-60.8,8.1-91.2C189.7,18.5,159,18.4,128.4,18.5z"/>
</g>
<g id="_x23_29a9dfff">
	<path class="st1" d="M128.4,18.5c30.7-0.1,61.4,0,92.1,0c-2.9,30.4-5.3,60.8-8.1,91.2c-2.4,26.6-4.7,53.1-7,79.7
		c-0.9,8.7-1.4,17.5-2.5,26.2c-22.2,6.1-44.3,12.2-66.5,18.2c-2.6,0.8-5.3,1.5-8,1.9c-0.1-9.6,0.5-19.2-0.3-28.8
		c0.2,0,0.6-0.1,0.8-0.2c20.6-5.2,41.1-10.9,61.7-16.2c2.6-29.2,5.5-58.4,7.3-87.6c-17.5,0.1-35,0-52.5,0.1c-2.5,0-5.1,0-7.6-0.2
		c9.4-4.8,19.3-8.7,29-13c9.3-4.2,18.7-8.2,28-12.3c1.8-0.8,3.7-1.5,5.3-2.7c0.6-2.3,0.6-4.7,0.8-7c0.5-7.4,1.5-14.8,1.8-22.2
		c-24.8-0.2-49.6,0-74.4-0.2C128.5,36.5,128.2,27.5,128.4,18.5z"/>
	<path class="st1" d="M128.5,130.6c12-0.2,23.9,0.1,35.9,0c-0.7,12.2-1.7,24.5-2.3,36.7c-7.3,2.4-14.8,4.4-22.2,6.6
		c-3.9,1.2-8,2.2-11.7,3.9C128.6,162.2,128,146.4,128.5,130.6z"/>
</g>
<g id="_x23_cfcfcfff">
	<path class="st2" d="M50.7,45.4c25.8,0,51.6-0.1,77.5,0c0.3,28.4-0.1,56.8,0.3,85.2c-10.3,0.2-20.5,0-30.8,0.1
		c-12.8,0-25.6,0.2-38.4,0.3c-0.7-9.6-2.2-19.1-2.4-28.7c1.6-1.2,3.6-1.8,5.4-2.6c21.1-9.2,42.4-18.1,63.4-27.5
		c-24-0.7-48.1,0.2-72.1-0.7C52.4,62.8,51.2,54.2,50.7,45.4z"/>
	<path class="st2" d="M61.2,147.7c7.8-0.1,15.5,0,23.3-0.1c1.6,0,3.2,0,4.8,0.5c0.7,7.6,1.2,15.2,2,22.7c5.3,1.6,10.9,2.2,16.3,3.3
		c6.9,1.2,13.7,2.8,20.6,3.8c0.7,9.6-0.5,19.2,0.6,28.8c-0.2,0-0.6,0.1-0.8,0.2c-1.4,0.1-2.9-0.4-4.2-0.7c-11.7-3.1-23.6-5.8-35.3-9
		c-7.6-2.1-15.3-4-22.9-6C63.3,176.8,62,162.3,61.2,147.7z"/>
</g>
<g id="_x23_ffffffff">
	<path class="st3" d="M128.2,45.4c24.8,0.1,49.6,0,74.4,0.2c-0.4,7.4-1.3,14.8-1.8,22.2c-0.2,2.3-0.2,4.7-0.8,7
		c-1.6,1.2-3.5,1.9-5.3,2.7c-9.3,4.1-18.7,8.1-28,12.3c-9.7,4.3-19.6,8.2-29,13c2.5,0.2,5.1,0.2,7.6,0.2c17.5-0.1,35,0,52.5-0.1
		c-1.8,29.3-4.7,58.4-7.3,87.6c-20.6,5.4-41.1,11.1-61.7,16.2c-1.1-9.6,0.1-19.2-0.6-28.8c3.8-1.8,7.8-2.7,11.7-3.9
		c7.4-2.2,14.8-4.2,22.2-6.6c0.6-12.2,1.7-24.5,2.3-36.7c-12,0.1-24-0.2-35.9,0C128.1,102.2,128.5,73.8,128.2,45.4z"/>
</g>
</svg>
