<?xml version="1.0" encoding="utf-8"?>
<!-- Generator: Adobe Illustrator 27.2.0, SVG Export Plug-In . SVG Version: 6.00 Build 0)  -->
<svg version="1.1" id="Calque_1" xmlns="http://www.w3.org/2000/svg" xmlns:xlink="http://www.w3.org/1999/xlink" x="0px" y="0px"
	 viewBox="0 0 1000 458.3" style="enable-background:new 0 0 1000 458.3;" xml:space="preserve">
<g>
	<g>
		<path d="M614.7,267c-5.8,28.5-27.8,30-32.2,30c-12.5,0-19.9-7.2-19.9-19.2c0-2.7,0.4-6.5,1.1-10.2l13.6-68l0.1-0.3h-16.1
			L547.5,269l-0.2,1c-0.6,3.1-1.2,6.1-1.2,10c0,18.7,12.3,31.3,30.6,31.3c13.4,0,24.2-4.4,32-13.1l-2.1,11.5l0,0.3h15.9l21.9-110.4
			l0-0.3h-16.3L614.7,267z"/>
		<path d="M724.6,198c-12.5,0-23.5,5.1-30.4,14l2.5-12.4l0-0.3h-15.9l-22,110.4l0,0.3h16.1l13.4-67.7c3.4-17.4,16.8-30,31.7-30
			c6.4,0,11.5,2.5,15.5,7.7l0.1,0.2l13.1-11.7l-0.1-0.2C742.6,201.4,734.7,198,724.6,198z"/>
		<polygon points="458.2,213.4 458.1,213.6 513.1,213.6 439.9,296.4 439.9,296.4 437.1,310 515.1,310 517.9,295.7 459.6,295.7 
			533,212.9 533,212.8 535.8,199.3 460.9,199.3 		"/>
		<polygon points="750.9,309.7 750.8,310 766.9,310 788.9,199.3 773.1,199.3 		"/>
		<path d="M969.3,198c-13.3,0-23.6,4.1-31.6,12.4l12.5-61.6h-16.1L901.8,310h16.1l13.4-67.7c5.8-28.5,28-30,32.4-30
			c12.3,0,19.7,7.2,19.7,19.2c0,2.7-0.4,6.5-1.1,10.2L968.6,310h16.1l14.1-69.7c0.7-3.7,1.1-6.8,1.1-11
			C1000,210.6,987.6,198,969.3,198z"/>
		<path d="M862.5,198c-29.2,0-49.7,20.6-56.3,56.5c-1.2,6-1.6,12.7-1.6,17c0,24.5,14.9,39.8,38.9,39.8c14,0,26.7-5.3,36.8-15.5
			l0.1-0.1l-9.3-11.3l-0.2-0.2l-0.2,0.2c-8.5,9-16.2,12.7-26.4,12.7c-11.4,0-23.7-6.8-23.7-25.9c0-6,0.7-10.9,1.8-16.5
			c1.7-9.4,5.6-22.5,14.2-31.6c6.9-7.1,15-10.7,24.2-10.7c9.6,0,15.6,3.4,21.5,12.2l0.1,0.2l11.8-10l0.2-0.1l-0.1-0.2
			C886.4,203,876.5,198,862.5,198z"/>
		<polygon points="779,169 795.2,169 799.2,148.8 783.1,148.8 		"/>
		<polygon points="622.3,169 638.5,169 642.5,148.8 626.4,148.8 		"/>
		<polygon points="579.4,169 595.5,169 599.5,148.8 583.5,148.8 		"/>
	</g>
	<g>
		<polygon points="364.1,211.3 327.8,211.3 340.6,148.8 32.4,148.8 0,310 122.9,310 130.9,269.7 58.4,269.7 62.8,247.5 135.3,247.5 
			142.6,211.3 70.1,211.3 74.5,189.1 189.4,189.1 165.2,310 215.5,310 239.8,189.1 282.1,189.1 257.8,310 308.2,310 320.6,247.5 
			356.9,247.5 344.4,310 394.8,310 427.2,148.8 376.8,148.8 		"/>
	</g>
</g>
</svg>
