<?xml version="1.0" encoding="utf-8"?>
<!-- Generator: Adobe Illustrator 27.3.1, SVG Export Plug-In . SVG Version: 6.00 Build 0)  -->
<svg version="1.1" id="Calque_1" xmlns="http://www.w3.org/2000/svg" xmlns:xlink="http://www.w3.org/1999/xlink" x="0px" y="0px"
	 viewBox="0 0 256 256" style="enable-background:new 0 0 256 256;" xml:space="preserve">
<style type="text/css">
	.st0{fill:#231F20;}
	.st1{fill:#FFFFFF;}
</style>
<g>
	<circle class="st0" cx="128" cy="128" r="128"/>
	<path class="st1" d="M183.4,170.3l-21.5-21.6l-1-0.9l-0.2-0.1c-1.2-0.9-2.6-1.5-4.3-2c-3.2-0.8-6.3-0.5-9.2,1l-8.7,5.2l-0.2-0.1
		c-0.2-0.1-1.2-0.6-3.2-2.5c-1.6-1.4-3.6-3.6-5.9-6.4c-2.3-2.8-4.9-6.7-7.7-11.6c-2.9-4.7-5-8.8-6.3-12.2c-1.3-3.4-2.2-6.1-2.7-8.3
		c-0.4-1.7-0.6-3.1-0.6-4.4l7.1-4.1c2.2-1.3,3.9-3.1,5.1-5.5c1.3-2.5,1.6-5.2,0.9-7.8l-7.1-30.3l-0.1-0.4c-0.5-1.6-1.3-3.1-2.4-4.4
		c-1.3-1.6-3-2.8-5.1-3.3c-2.7-0.7-5.5-0.3-8,1.2L80.2,64.8c-1.6,0.8-3,2-4.3,3.5c-1.2,1.5-2.2,3-2.9,4.6l-0.2,0.5
		c-0.1,0.2-0.3,1-0.8,2.4c-0.6,1.9-1,4.4-1.4,7.6c-0.3,3.1-0.3,6.9-0.1,11.2c0.3,4.4,1,9.4,2.3,14.9c1.3,5.5,3.3,11.7,5.9,18.4
		c2.7,6.8,6.4,14.1,11,21.9c5.8,10,11.7,18.4,17.6,24.8c5.8,6.4,11.3,11.6,16.3,15.4c5.1,3.9,9.6,6.6,13.5,8.3
		c3.8,1.6,6.6,2.7,8.5,3.2c0.9,0.2,1.6,0.4,2.1,0.5c0.3,0,0.5,0.1,0.4,0.1l0.6,0.1c0.6,0.1,1.2,0.1,1.8,0.1c1.2,0,2.4-0.1,3.6-0.4
		c1.9-0.4,3.7-1.1,5.1-2l21.9-12.7c3.1-1.8,4.9-4.6,5.4-8.1l0-0.3C186.9,176.6,186.4,173.4,183.4,170.3z"/>
</g>
</svg>
