<?xml version="1.0" encoding="utf-8"?>
<!-- Generator: Adobe Illustrator 27.3.1, SVG Export Plug-In . SVG Version: 6.00 Build 0)  -->
<svg version="1.1" id="Calque_1" xmlns="http://www.w3.org/2000/svg" xmlns:xlink="http://www.w3.org/1999/xlink" x="0px" y="0px"
	 viewBox="0 0 256 256" style="enable-background:new 0 0 256 256;" xml:space="preserve">
<style type="text/css">
	.st0{fill:#231F20;}
</style>
<path class="st0" d="M128,0C57.3,0,0,57.3,0,128s57.3,128,128,128s128-57.3,128-128S198.7,0,128,0z M186.5,178.8v0.3
	c-0.5,3.5-2.3,6.3-5.4,8.1l-21.9,12.7c-1.4,0.9-3.2,1.6-5.1,2c-1.2,0.3-2.4,0.4-3.6,0.4c-0.6,0-1.2,0-1.8-0.1l-0.6-0.1
	c0.1,0-0.1-0.1-0.4-0.1c-0.5-0.1-1.2-0.3-2.1-0.5c-1.9-0.5-4.7-1.6-8.5-3.2c-3.9-1.7-8.4-4.4-13.5-8.3c-5-3.8-10.5-9-16.3-15.4
	c-5.9-6.4-11.8-14.8-17.6-24.8c-4.6-7.8-8.3-15.1-11-21.9c-2.6-6.7-4.6-12.9-5.9-18.4c-1.3-5.5-2-10.5-2.3-14.9
	c-0.2-4.3-0.2-8.1,0.1-11.2c0.4-3.2,0.8-5.7,1.4-7.6c0.5-1.4,0.7-2.2,0.8-2.4l0.2-0.5c0.7-1.6,1.7-3.1,2.9-4.6
	c1.3-1.5,2.7-2.7,4.3-3.5l22.1-13c2.5-1.5,5.3-1.9,8-1.2c2.1,0.5,3.8,1.7,5.1,3.3c1.1,1.3,1.9,2.8,2.4,4.4l0.1,0.4L125,89
	c0.7,2.6,0.4,5.3-0.9,7.8c-1.2,2.4-2.9,4.2-5.1,5.5l-7.1,4.1c0,1.3,0.2,2.7,0.6,4.4c0.5,2.2,1.4,4.9,2.7,8.3
	c1.3,3.4,3.4,7.5,6.3,12.2c2.8,4.9,5.4,8.8,7.7,11.6s4.3,5,5.9,6.4c2,1.9,3,2.4,3.2,2.5l0.2,0.1l8.7-5.2c2.9-1.5,6-1.8,9.2-1
	c1.7,0.5,3.1,1.1,4.3,2l0.2,0.1l1,0.9l21.5,21.6C186.4,173.4,186.9,176.6,186.5,178.8z"/>
</svg>
