<?xml version="1.0" encoding="utf-8"?>
<!-- Generator: Adobe Illustrator 27.5.0, SVG Export Plug-In . SVG Version: 6.00 Build 0)  -->
<svg version="1.1" id="Calque_1" xmlns="http://www.w3.org/2000/svg" xmlns:xlink="http://www.w3.org/1999/xlink" x="0px" y="0px"
	 viewBox="0 0 256 256" style="enable-background:new 0 0 256 256;" xml:space="preserve">
<style type="text/css">
	.st0{fill:#403216;}
	.st1{fill:#EA5235;}
</style>
<path class="st0" d="M153.4,110.9c-5.6,0-9.8,2.8-9.8,9.4c0,5,2.8,8.5,9.5,8.5c5.7,0,9.6-3.4,9.6-8.7
	C162.7,114.1,159.2,110.9,153.4,110.9L153.4,110.9z M142.2,157.8c-1.3,1.6-2.7,3.4-2.7,5.4c0,4.1,5.2,5.3,12.3,5.3
	c5.9,0,14-0.4,14-5.9c0-3.3-3.9-3.5-8.8-3.8L142.2,157.8L142.2,157.8z M172.4,111.2c1.8,2.3,3.8,5.6,3.8,10.3c0,11.3-8.9,18-21.7,18
	c-3.3,0-6.2-0.4-8.1-0.9L143,144l10,0.6c17.7,1.1,28.1,1.6,28.1,15.2c0,11.7-10.3,18.4-28.1,18.4c-18.5,0-25.5-4.7-25.5-12.8
	c0-4.6,2-7,5.6-10.4c-3.4-1.4-4.5-4-4.5-6.7c0-2.2,1.1-4.3,3-6.2c1.8-1.9,3.9-3.9,6.3-6.1c-5-2.4-8.8-7.8-8.8-15.3
	c0-11.7,7.8-19.8,23.4-19.8c4.4,0,7,0.4,9.4,1h19.9v8.7L172.4,111.2"/>
<path class="st0" d="M199.7,92.7c-5.8,0-9.2-3.4-9.2-9.2c0-5.8,3.4-9,9.2-9c5.9,0,9.3,3.2,9.3,9C209,89.3,205.7,92.7,199.7,92.7z
	 M186.6,154V146l5.2-0.7c1.4-0.2,1.6-0.5,1.6-2v-30c0-1.1-0.3-1.8-1.3-2.1l-5.5-1.9l1.1-8.3h21.1v42.3c0,1.6,0.1,1.8,1.6,2l5.2,0.7
	v8.1L186.6,154"/>
<path class="st0" d="M256,150.1c-4.4,2.1-10.8,4.1-16.6,4.1c-12.1,0-16.7-4.9-16.7-16.4V111c0-0.6,0-1-0.8-1h-7.1v-9.1
	c9-1,12.5-5.5,13.7-16.6h9.7v14.5c0,0.7,0,1,0.8,1h14.4V110H238v24.4c0,6,1.4,8.4,6.9,8.4c2.9,0,5.8-0.7,8.3-1.6L256,150.1"/>
<path class="st1" d="M104.8,123.3L58.2,76.6c-2.7-2.7-7-2.7-9.7,0l-9.7,9.7L51,98.6c2.9-1,6.1-0.3,8.4,2c2.3,2.3,2.9,5.6,1.9,8.5
	l11.8,11.8c2.9-1,6.2-0.3,8.5,1.9c3.2,3.2,3.2,8.4,0,11.6c-3.2,3.2-8.4,3.2-11.6,0c-2.4-2.4-3-5.9-1.8-8.9l-11-11l0,29.1
	c0.8,0.4,1.5,0.9,2.2,1.5c3.2,3.2,3.2,8.4,0,11.6c-3.2,3.2-8.4,3.2-11.6,0c-3.2-3.2-3.2-8.4,0-11.6c0.8-0.8,1.7-1.4,2.7-1.8v-29.3
	c-1-0.4-1.9-1-2.7-1.8c-2.4-2.4-3-6-1.8-9L34,91.1l-32,32c-2.7,2.7-2.7,7,0,9.7l46.6,46.6c2.7,2.7,7,2.7,9.7,0l46.4-46.4
	C107.5,130.3,107.5,126,104.8,123.3"/>
</svg>
