<?xml version="1.0" encoding="utf-8"?>
<!-- Generator: Adobe Illustrator 27.3.1, SVG Export Plug-In . SVG Version: 6.00 Build 0)  -->
<svg version="1.1" id="Calque_1" xmlns="http://www.w3.org/2000/svg" xmlns:xlink="http://www.w3.org/1999/xlink" x="0px" y="0px"
	 viewBox="0 0 283.5 283.5" style="enable-background:new 0 0 283.5 283.5;" xml:space="preserve">
<style type="text/css">
	.st0{fill-rule:evenodd;clip-rule:evenodd;fill:#231F20;}
</style>
<path class="st0" d="M141.7,0C63.5,0,0,63.5,0,141.7s63.5,141.7,141.7,141.7S283.5,220,283.5,141.7S220,0,141.7,0z M225.4,132.7
	c-1.5,9.2-4.2,18-9.4,25.7c-6.9,10.5-17.1,16.3-28.4,20.5c-6.9,2.5-14.1,3.4-21.5,4.4c1,1.2,1.8,2.2,2.7,3.3
	c5.1,6.7,6,14.7,6.1,22.8c0.1,11.6,0.3,23.2-0.1,34.7c-0.2,6.4-19.1,14.6-33.2,14.6c-13.8,0-32.9-8.5-32.9-13.6
	c0-7.4-0.2-14.8-0.2-22.2c0-2-0.7-2.1-2.3-1.8c-7.6,1.6-15.2,1.2-22.7-0.2c-9.3-1.7-16.2-6.7-19.8-16c-1.7-4.4-3.8-8.7-6.7-12.5
	c-2.2-2.9-4.5-5.6-7.7-7.5c-1.4-0.8-2.7-2.1-3.9-3.3c-0.8-0.9-2-2-1.5-3.4c0.5-1.6,2.2-1.6,3.5-1.7c9.4-0.3,16.1,4.8,21.5,12
	c2.1,2.8,3.7,6,6,8.7c7.4,8.4,16.7,9.3,26.7,7c0.3-0.1,0.6-0.2,0.9-0.2c4.3-0.6,7-2.5,7.5-7.5c0.6-5,3.6-9.1,7.2-13
	c-8.5-1.2-16.6-2.5-24.3-5.4c-19.6-7.4-30.7-21.9-34.5-42.5c-2.1-11-2.8-22.1-0.2-33.2c1.8-7.5,5-14.3,10-20.2
	c1.5-1.8,1.9-3.2,1.2-5.6c-3.4-10.8-2-21.4,1.7-31.9c0.8-2.1,2.5-1.7,3.9-1.7c4.3,0,8.4,1.5,12.3,3.1c6.7,2.7,13.3,5.8,19.2,10.2
	c1.4,1,2.6,1,4.2,0.6c18.4-4.9,37.1-5.5,55.6-1.4c6.2,1.4,10.9,1,16.2-2.7c6.3-4.4,13.4-7.4,20.9-9.3c7-1.8,8.4-0.9,10.3,6
	c2.6,9.5,3.1,19-0.1,28.5c-0.4,1.1-0.4,1.8,0.4,2.8C227.1,95.8,228.4,113.8,225.4,132.7z"/>
</svg>
