<?xml version="1.0" encoding="utf-8"?>
<!-- Generator: Adobe Illustrator 16.0.0, SVG Export Plug-In . SVG Version: 6.00 Build 0)  -->
<!DOCTYPE svg PUBLIC "-//W3C//DTD SVG 1.1//EN" "http://www.w3.org/Graphics/SVG/1.1/DTD/svg11.dtd">
<svg version="1.1" id="Calque_1" xmlns="http://www.w3.org/2000/svg" xmlns:xlink="http://www.w3.org/1999/xlink" x="0px" y="0px"
	 width="283.46px" height="283.46px" viewBox="0 0 283.46 283.46" enable-background="new 0 0 283.46 283.46" xml:space="preserve">
<circle fill-rule="evenodd" clip-rule="evenodd" fill="#231F20" cx="141.732" cy="141.733" r="141.732"/>
<path fill-rule="evenodd" clip-rule="evenodd" fill="#FFFFFF" d="M174.799,244.13c0.307-11.57,0.152-23.158,0.051-34.736
	c-0.076-8.107-0.986-16.048-6.094-22.768c-0.82-1.079-1.703-2.108-2.666-3.298c7.473-1.062,14.668-1.923,21.525-4.438
	c11.299-4.147,21.49-9.962,28.438-20.452c5.16-7.791,7.932-16.574,9.383-25.749c2.986-18.904,1.689-36.923-11.467-52.135
	c-0.783-0.906-0.762-1.689-0.402-2.754c3.221-9.461,2.754-18.949,0.143-28.455c-1.912-6.964-3.24-7.793-10.262-6.035
	c-7.473,1.871-14.611,4.841-20.883,9.268c-5.242,3.698-9.998,4.065-16.166,2.686c-18.551-4.15-37.198-3.59-55.631,1.359
	c-1.545,0.414-2.795,0.437-4.164-0.567c-5.92-4.338-12.494-7.417-19.221-10.164c-3.961-1.618-7.996-3.087-12.326-3.121
	c-1.438-0.013-3.176-0.434-3.932,1.712c-3.691,10.478-5.047,21.114-1.668,31.915c0.752,2.407,0.322,3.872-1.164,5.633
	c-4.945,5.858-8.146,12.662-9.955,20.177c-2.672,11.093-1.896,22.185,0.158,33.225c3.846,20.657,14.906,35.168,34.514,42.521
	c7.768,2.913,15.818,4.183,24.33,5.425c-3.602,3.911-6.621,8.031-7.174,13.01c-0.564,5.059-3.223,6.906-7.523,7.538
	c-0.293,0.043-0.578,0.142-0.867,0.21c-10.061,2.326-19.316,1.434-26.736-6.95c-2.346-2.652-3.936-5.847-6.021-8.671
	c-5.381-7.28-12.033-12.334-21.475-12.043c-1.359,0.042-2.986,0.114-3.535,1.685c-0.494,1.414,0.664,2.521,1.508,3.437
	c1.148,1.241,2.43,2.449,3.865,3.294c3.178,1.872,5.545,4.521,7.717,7.463c2.834,3.84,4.971,8.071,6.668,12.518
	c3.559,9.32,10.469,14.29,19.771,15.985c7.541,1.376,15.152,1.834,22.746,0.208c1.549-0.329,2.299-0.146,2.293,1.814
	c-0.021,7.415,0.189,14.829,0.188,22.242c-0.002,5.102,19.031,13.632,32.857,13.632C155.725,258.749,174.631,250.517,174.799,244.13
	z"/>
</svg>
