<?xml version="1.0" encoding="utf-8"?>
<!-- Generator: Adobe Illustrator 27.3.1, SVG Export Plug-In . SVG Version: 6.00 Build 0)  -->
<svg version="1.1" id="Calque_1" xmlns="http://www.w3.org/2000/svg" xmlns:xlink="http://www.w3.org/1999/xlink" x="0px" y="0px"
	 viewBox="0 0 256 256" style="enable-background:new 0 0 256 256;" xml:space="preserve">
<style type="text/css">
	.st0{fill:#020203;}
	.st1{fill:#E44E28;}
	.st2{fill:#EC662B;}
	.st3{fill:#EBEBEB;}
	.st4{fill:#FFFFFF;}
</style>
<path class="st0" d="M54.2,0h11.5v11.4h10.6V0h11.5v34.5H76.3V23H65.8v11.5H54.2 M103,11.5H92.8V0h31.8v11.5h-10.2v23H103 M129.8,0
	h12.1l7.4,12.1L156.6,0h12.1v34.5h-11.5V17.4l-8.1,12.4l-8.1-12.4v17.1h-11.3 M174.4,0h11.5v23.1h16.3v11.4h-27.8"/>
<path class="st1" d="M53.8,235.5L37.3,50.3h181.4l-16.5,185.1L127.8,256"/>
<path class="st2" d="M128,240.2V65.5h74.1l-14.1,158"/>
<path class="st3" d="M71,88.2h57v22.7H95.9l2.1,23.2h30v22.6H77.2 M78.2,168.1H101l1.6,18.1l25.4,6.8v23.7l-46.6-13"/>
<path class="st4" d="M184.8,88.2h-56.9v22.7h54.8 M180.6,134.1h-52.7v22.7h28l-2.6,29.5l-25.3,6.8v23.6l46.5-12.9"/>
</svg>
