<?xml version="1.0" encoding="utf-8"?>
<!-- Generator: Adobe Illustrator 16.0.0, SVG Export Plug-In . SVG Version: 6.00 Build 0)  -->
<!DOCTYPE svg PUBLIC "-//W3C//DTD SVG 1.1//EN" "http://www.w3.org/Graphics/SVG/1.1/DTD/svg11.dtd">
<svg version="1.1" id="Calque_1" xmlns="http://www.w3.org/2000/svg" xmlns:xlink="http://www.w3.org/1999/xlink" x="0px" y="0px"
	 width="1000px" height="458.318px" viewBox="0 270.94 1000 458.318" enable-background="new 0 270.94 1000 458.318"
	 xml:space="preserve">
<path fill="#042451" d="M379.574,411.531c0.507,11.11,0.546,21.364,1.219,31.533c0.688,10.371,0.436,20.75,1.193,31.12
	c0.957,13.118,0.772,26.316,1.252,39.476c0.126,3.476-1.273,4.762-4.575,4.742c-9.517-0.056-19.035-0.067-28.552,0.01
	c-3.45,0.029-4.6-1.645-4.597-4.883c0.04-43.344,0.042-86.687,0.012-130.028c-0.003-3.92,1.261-5.673,5.658-5.604
	c16.25,0.253,32.507,0.224,48.759,0.011c3.904-0.051,5.694,1.199,6.804,4.947c7.308,24.683,14.814,49.307,22.282,73.943
	c0.869,2.872,1.898,5.695,3.096,9.261c1.853-2.64,2.218-4.944,2.844-7.106c7.363-25.427,14.762-50.844,21.948-76.32
	c1.018-3.607,2.617-4.768,6.351-4.724c17.131,0.202,34.265,0.179,51.396,0.019c3.669-0.034,4.733,1.171,4.726,4.778
	c-0.101,43.489-0.11,86.978,0.014,130.467c0.011,3.943-1.595,5.219-5.127,5.212c-9.663-0.021-19.329-0.065-28.991,0.047
	c-2.939,0.034-3.819-1.206-3.706-3.965c0.871-21.186,1.843-42.369,2.425-63.563c0.353-12.822,0.065-25.661,0.065-38.459
	c-1.083,0.62-1.104,2.355-1.561,3.732c-10.587,31.943-21.239,63.864-31.57,95.892c-1.541,4.779-3.879,6.587-8.733,6.396
	c-6.872-0.268-13.771-0.276-20.64,0.015c-3.88,0.164-5.646-1.185-6.87-4.906c-10.646-32.4-21.489-64.735-32.307-97.081
	C381.901,415.042,381.843,413.344,379.574,411.531z"/>
<path fill="#93C530" d="M765.314,270.94c47.249,4.492,93.156,40.586,99.925,92.779c5.3,40.877-10.604,73.509-42.92,98.271
	c-16.454,12.605-35.324,19.799-55.979,22.13c-2-1.35-1.963-3.459-2.01-5.506c-0.32-14.02-0.739-28.035-1.057-42.055
	c-1.155-51.01-0.584-102.021-0.756-153.032c-0.009-2.485,0.036-4.97,0.082-7.456C762.642,273.864,763.309,272.069,765.314,270.94z"
	/>
<path fill="#1B7047" d="M986.136,422.808c8.255,13.441,13.44,27.875,13.837,43.777c0.493,19.756-5.844,37.384-17.252,53.271
	c-13.036,18.153-30.002,31.532-50.688,39.886c-30.646,12.374-58.155,6.138-82.731-15.083c-8.216-7.094-15.223-15.341-21.274-24.372
	c1.021-1.468,2.304-2.604,3.939-3.386c28.152-13.437,53.223-31.64,78.021-50.296c19.422-14.612,39.611-28.052,61.491-38.802
	c3.286-1.615,6.74-2.839,10.002-4.5C982.969,422.547,984.504,422.229,986.136,422.808z"/>
<path fill="#CFEC98" d="M765.314,270.94c-1.236,12.104-0.696,24.252-0.744,36.375c-0.133,33.354-0.186,66.71,0.126,100.062
	c0.236,25.583,1.071,51.162,1.643,76.742c-10.21,1.192-17.38-3.951-23.21-11.462c-8.523-10.983-12.85-23.882-15.758-37.212
	c-9.213-42.24-9.29-84.406,2.092-126.313c2.691-9.911,6.652-19.368,13.199-27.457C748.454,274.522,755.475,269.686,765.314,270.94z"
	/>
<path fill="#AF2526" d="M765.167,728.838c-12.46,1.672-23.737-1.732-33.922-8.612c-13.063-8.822-24.003-19.922-33.867-32.229
	c-18.354-22.905-14.344-54.091,2.063-71.076c4.434-3.966,8.934-7.581,15.027-9.048c14.604-3.517,27.564-0.708,39.041,8.991
	c1.864,4.109,1.301,8.615,2.077,12.908c1.826,10.088,5.268,19.751,7.667,29.688c3.066,12.693,4.733,25.593,4.807,38.568
	C768.118,708.32,767.832,718.731,765.167,728.838z"/>
<path fill="#04597B" d="M604.394,631.026c-9.294-9.865-12.806-22.016-13.827-35.133c-1.32-16.93,5.322-31.118,15.44-44.008
	c4.237-5.397,8.906-10.455,13.293-15.738c3.797-4.574,8.847-7.031,14.296-8.944c8.453-2.967,17.142-4.833,26.031-5.813
	c7.761-0.854,14.793,1.01,21.075,5.652c12.328,9.111,24.651,18.229,36.979,27.341c-1.223,2.213-3.382,1.931-5.409,2.064
	c-8.759,0.581-17.396,1.695-25.765,4.625c-7.577,2.651-13.023,7.489-16.835,14.484c-3.078,5.648-5.139,11.766-8.536,17.278
	c-7.491,12.159-18.015,20.99-30.194,27.984c-6.201,3.56-12.631,6.728-19.315,9.352C609.229,631.112,606.915,631.66,604.394,631.026z
	"/>
<path fill="#8BBBA4" d="M986.136,422.808c-3.211,2.666-7.246,3.708-10.919,5.435c-28.116,13.209-52.98,31.441-77.662,49.977
	c-19.554,14.687-39.874,28.167-61.876,38.967c-2.467,1.212-4.801,2.819-7.653,3.1c-4.025-12.394-0.84-23.656,5.598-34.301
	c8.473-14.019,20.363-24.835,33.302-34.541c23.679-17.765,49.226-31.953,78.045-39.59c8.532-2.261,17.204-3.417,26.021-1.542
	C978.218,411.849,983.508,415.709,986.136,422.808z"/>
<path fill="#042451" d="M0.082,447.79c0-21.369-0.004-42.738,0.001-64.106c0.002-5.672,0.015-5.68,5.865-5.684
	c9.221-0.006,18.443,0.11,27.661-0.059c3.298-0.06,4.26,1.143,4.254,4.341c-0.078,43.762-0.086,87.523,0.012,131.286
	c0.007,3.518-1.475,4.771-4.626,4.778c-9.952,0.023-19.905-0.035-29.856,0.072c-3.712,0.039-3.313-2.408-3.313-4.767
	C0.083,491.699,0.082,469.744,0.082,447.79z"/>
<path fill="#08234B" d="M602.855,442.96c3.808-2.23,7.077-5.03,10.065-8.327c5.692-6.278,11.469-12.491,18.185-17.758
	c7.54-5.913,15.662-7.26,24.729-4.164c15.896,5.427,29.585,14.538,42.428,25.083c6.8,5.583,13.321,11.412,17.28,19.562
	c7.456,15.347,4.846,29.737-3.873,43.615c-2.597,0.612-3.636-1.411-4.83-2.981c-5.036-6.633-10.354-13.006-16.412-18.749
	c-7.367-6.986-15.753-10.258-25.963-7.687c-7.594,1.914-15.396,1.954-23.072,1.202c-9.458-0.926-17.416-5.768-24.438-11.863
	c-4.718-4.095-9.363-8.38-13.004-13.566C603.021,445.998,601.95,444.734,602.855,442.96z"/>
<path fill="#F79F81" d="M824.445,581.615c7.176-9.442,16.938-11.895,28.059-9.98c9.311,1.602,17.729,5.728,25.977,10.159
	c24.612,13.231,48.199,28.076,70.353,45.136c7.086,5.457,13.693,11.482,18.444,19.181c4.265,6.91,6.146,14.171,1.965,21.904
	c-1.662,0.579-3.197,0.286-4.52-0.822c-5.818-4.887-12.587-8.452-18.433-13.3c-16.459-9.717-34.257-16.229-52.36-22.058
	c-13.378-4.308-26.337-9.576-38.08-17.495c-2.427-1.635-4.543-3.622-6.853-5.378c-7.347-4.652-12.95-11.175-18.552-17.644
	C827.965,588.455,824.224,586.208,824.445,581.615z"/>
<path fill="#DB9191" d="M765.167,728.838c-1.332-1.377-0.799-3.074-0.615-4.6c3.444-28.65,0.365-56.599-8.684-83.97
	c-2.49-7.533-3.144-15.449-3.694-23.338c-2.562-3.362-1.25-7.188-0.706-10.604c1.448-9.104,3.943-17.979,7.657-26.474
	c1.138-2.603,2.834-3.997,5.752-3.603c5.738,1.514,8.83,6.058,11.68,10.636c7.023,11.286,11.036,23.786,13.799,36.676
	c4.925,22.983,6.19,46.039-0.427,68.923C785.668,707.218,778.997,720.521,765.167,728.838z"/>
<path fill="#D23D0A" d="M947.391,652.737c7.579,4.67,14.711,9.979,21.852,15.276c-11.216,15.787-26.516,26.55-43.555,35.059
	c-12.422,6.204-25.476,10.142-39.568,9.814c-7.122-0.165-14.132-1.223-20.231-4.913c-20.12-12.172-37.193-27.367-46.698-49.563
	c-11.331-26.465-9.248-52.068,5.258-76.794c6.285,7.31,12.703,14.485,19.596,21.249c1.796,1.762,4.112,2.753,5.704,4.672
	c1.813,2.332,0.322,4.063-1.053,5.826c-6.242,8.002-10.274,17.02-11.464,27.083c-1.896,16.034,2.25,30.297,13.16,42.484
	c8.511,9.507,18.873,15.494,31.497,17.508c15.719,2.509,29.808-1.271,42.365-10.973c9.874-7.626,15.849-17.684,18.859-29.704
	C943.777,657.098,943.729,653.702,947.391,652.737z"/>
<path fill="#7EAFC3" d="M604.394,631.026c10.616-4.503,21.33-8.774,31.038-15.176c12.369-8.152,22.293-18.376,28.184-32.172
	c0.286-0.672,0.701-1.295,0.937-1.98c6.2-18.005,20.381-24.477,37.845-26.291c5.089-0.528,10.148-1.331,15.287-1.021
	c3.117,9.776,1.519,14.476-7.116,20.006c-7.607,4.873-15.702,9.025-22.092,15.634c-2.651,2.743-4.872,5.794-7.103,8.872
	c-12.552,17.309-28.444,30.433-48.902,37.181C622.526,639.358,612.893,637.5,604.394,631.026z"/>
<path fill="#4088A6" d="M602.855,442.96c6.461,8.401,13.737,15.939,22.639,21.83c9.715,6.431,20.69,8.717,31.521,5.73
	c19.419-5.354,32.881,2.288,44.094,17.011c3.45,4.532,7.038,8.961,10.563,13.438c-3.536,12.057-11.488,16.132-23.108,11.812
	c-1.777-0.661-3.64-1.249-5.229-2.247c-19.454-12.208-40.623-21.31-60.199-33.288c-7.125-4.36-13.963-9.111-19.869-15.084
	c-1.859-1.882-3.527-3.912-4.76-6.266C595.625,450.392,597.132,445.934,602.855,442.96z"/>
<path fill="#A32425" d="M764.877,576.251c-2.478-0.038-2.966,1.931-3.674,3.661c-4.866,11.887-7.98,24.201-9.029,37.02
	c-6.779-3.373-13.354-7.146-21.102-8.17c-10.463-1.383-19.901,0.946-28.436,7.034c-1.021,0.729-1.995,1.133-3.195,1.124
	c9.585-12.373,19.675-24.274,32.505-33.478C741.854,576.336,752.648,572.914,764.877,576.251z"/>
<path fill="#3E85A2" d="M284.258,690.266c2.418-6.987,4.943-13.94,7.195-20.981c0.746-2.332,1.75-3.521,4.291-3.142
	c2.888,0.43,1.747,2.669,1.772,4.136c0.122,7.316,0.081,14.638,0.03,21.956c-0.01,1.331,0.54,3.343-1.783,3.227
	c-2.059-0.104-1.291-1.979-1.304-3.117c-0.073-6.582-0.035-13.164-0.786-19.973c-1.946,5.509-3.894,11.018-5.838,16.526
	c-0.438,1.24-0.826,2.5-1.305,3.724c-0.509,1.303-0.642,2.932-2.66,2.967c-2.015,0.036-2.244-1.473-2.728-2.854
	c-1.979-5.652-3.984-11.298-5.985-16.942c-0.375-1.056-0.779-2.104-1.941-3.072c0,6.477,0.035,12.951-0.031,19.427
	c-0.013,1.289,0.7,3.36-1.669,3.271c-2.311-0.087-1.508-2.146-1.52-3.422c-0.072-7.465-0.061-14.931-0.013-22.396
	c0.009-1.461-0.621-3.35,2.035-3.485c2.027-0.104,3.188,0.418,3.872,2.507c2.359,7.21,4.905,14.357,7.381,21.528
	C283.601,690.188,283.93,690.227,284.258,690.266z"/>
<path fill="#3F87A4" d="M415.479,635.469c2.672-7.724,5.133-14.726,7.502-21.759c0.701-2.082,1.405-3.813,4.166-3.383
	c2.873,0.447,1.806,2.632,1.826,4.126c0.104,7.465,0.071,14.933,0.018,22.397c-0.008,1.158,0.542,2.987-1.642,2.799
	c-1.752-0.153-1.225-1.74-1.231-2.778c-0.053-6.732-0.027-13.466-0.027-20.922c-2.371,3.028-2.727,6.22-3.848,9.042
	c-1.402,3.526-2.462,7.189-3.853,10.723c-0.623,1.587-0.305,4.154-3.105,4.034c-2.695-0.116-2.388-2.667-2.991-4.252
	c-2.182-5.734-4.129-11.561-6.159-17.354c-0.23-0.656-0.209-1.474-1.38-1.796c0,6.814,0.034,13.498-0.029,20.183
	c-0.012,1.292,0.614,3.334-1.793,3.149c-2.042-0.154-1.252-1.999-1.263-3.109c-0.077-7.612-0.07-15.227-0.011-22.84
	c0.01-1.291-0.718-3.099,1.637-3.381c2.137-0.255,3.529,0.261,4.283,2.585c2.208,6.808,4.629,13.544,6.974,20.307
	C414.725,633.738,414.954,634.215,415.479,635.469z"/>
<path fill="#3E85A2" d="M473.555,616.172c0,6.632,0.062,13.265-0.05,19.896c-0.021,1.332,1.015,3.699-1.722,3.592
	c-2.298-0.092-1.43-2.193-1.444-3.445c-0.085-7.305-0.088-14.611-0.003-21.916c0.018-1.409-0.879-3.408,1.582-3.908
	c2.373-0.482,3.695,0.523,4.743,2.714c3.326,6.955,6.871,13.807,10.625,21.28c1.284-2.232,0.78-4.111,0.806-5.847
	c0.077-5.259,0.027-10.521,0.047-15.78c0.003-1.033,0.027-2.133,1.422-2.311c1.438-0.184,1.699,0.739,1.698,1.894
	c-0.005,8.476-0.005,16.949-0.003,25.423c0,1.109-0.179,1.955-1.614,2.037c-1.876,0.108-3.296-0.123-4.241-2.13
	c-2.553-5.408-5.304-10.723-8.001-16.061c-0.958-1.896-1.993-3.751-2.992-5.624C474.123,616.047,473.839,616.109,473.555,616.172z"
	/>
<path fill="#3F86A4" d="M34.343,578.169c0-6.569-0.071-13.141,0.058-19.708c0.027-1.336-1.121-3.709,1.348-3.845
	c2.581-0.143,1.663,2.295,1.681,3.662c0.1,7.158,0.1,14.318,0.001,21.477c-0.019,1.391,0.904,3.415-1.582,3.897
	c-2.368,0.461-3.733-0.537-4.768-2.721c-2.937-6.194-6.073-12.295-9.138-18.429c-0.449-0.898-0.94-1.776-2.38-2.599
	c0,2.447,0.001,4.896,0,7.346c-0.003,4.676,0.009,9.351-0.026,14.026c-0.007,0.972,0.15,2.168-1.342,2.289
	c-1.162,0.095-1.526-0.676-1.527-1.646c-0.009-8.619-0.001-17.238,0.009-25.857c0.001-1.382,0.935-1.552,2.051-1.655
	c1.85-0.174,2.936,0.557,3.762,2.245c2.95,6.025,6.027,11.989,9.066,17.974c0.64,1.261,1.32,2.5,1.981,3.751
	C33.806,578.307,34.075,578.238,34.343,578.169z"/>
<path fill="#3F86A4" d="M453.467,568.701c0-0.877-0.002-1.754,0.001-2.631c0.045-10.933,6.052-15.045,16.653-11.403
	c2.886,0.991,4.637,4.711,3.646,7.537c-0.303,0.863-0.779,1.104-1.586,1.073c-0.929-0.037-1.026-0.692-1.301-1.411
	c-1.614-4.255-8.601-6.421-12.33-3.9c-1.222,0.824-1.579,2.033-1.688,3.387c-0.419,5.105-0.354,10.209-0.035,15.319
	c0.18,2.853,1.646,4.244,4.457,4.287c1.897,0.027,3.804,0.131,5.693,0.018c4.066-0.243,3.66-3.456,3.892-6.157
	c0.271-3.176-2.123-2.417-3.895-2.529c-0.872-0.056-1.769,0.034-2.618-0.129c-1.439-0.273-1.584-1.85-0.805-2.194
	c2.867-1.269,6.045-0.833,9.007-0.387c2.159,0.325,1.222,2.647,1.222,4.069c-0.001,3.436,0.895,7.678-2.901,9.451
	c-4.471,2.09-9.439,1.822-14.052-0.178c-2.215-0.961-2.961-3.22-3.09-5.466c-0.167-2.909-0.041-5.836-0.041-8.756
	C453.619,568.701,453.543,568.701,453.467,568.701z"/>
<path fill="#3C819E" d="M403.752,680.744c0.002-3.944,0.018-7.89-0.005-11.834c-0.01-1.626,0.231-2.849,2.346-2.799
	c3.942,0.094,7.89,0.017,11.832,0.045c0.851,0.007,1.842-0.024,1.944,1.204c0.105,1.303-0.657,1.867-1.848,1.89
	c-2.774,0.05-5.553,0.117-8.325,0.061c-4.182-0.085-2.575,3.059-2.701,5.013c-0.127,1.96-0.989,4.71,2.782,4.495
	c2.184-0.124,4.382-0.057,6.571,0.014c1.229,0.039,2.862-0.326,2.798,1.766c-0.06,1.906-1.594,1.286-2.616,1.365
	c-1.309,0.101-2.653,0.193-3.939-0.003c-4.419-0.676-5.934,0.817-5.854,5.541c0.071,4.293,1.231,5.781,5.402,5.167
	c1.716-0.253,3.5-0.035,5.253-0.03c1.081,0.004,2.144,0.098,2.125,1.543c-0.014,1.127-0.844,1.442-1.791,1.446
	c-3.943,0.018-7.888,0.008-11.83,0.004c-2.153-0.003-2.144-1.543-2.146-3.053C403.746,688.632,403.75,684.688,403.752,680.744z"/>
<path fill="#3F86A3" d="M58.354,554.07c6.703,0.05,8.841,1.381,9.243,5.584c0.089,0.926,0.65,2.21-0.687,2.656
	c-1.638,0.549-1.72-0.734-2.111-1.923c-1.598-4.848-5.765-3.24-8.943-2.965c-3.402,0.296-2.949,3.467-2.832,5.919
	c0.093,1.954,1.139,3.281,3.219,3.557c1.016,0.135,2.029,0.29,3.046,0.409c8.087,0.951,10.269,4.097,8.369,12.084
	c-0.512,2.154-1.705,3.688-3.937,4.264c-3.33,0.856-6.671,0.952-9.98-0.023c-3.081-0.908-5.021-4.821-3.977-7.744
	c0.216-0.605,0.484-1.072,1.136-1.127c0.884-0.075,1.269,0.457,1.452,1.271c0.371,1.649-0.028,3.802,2.033,4.521
	c2.527,0.886,5.238,0.738,7.817,0.271c2.907-0.527,2.619-3.063,2.743-5.244c0.139-2.441-0.488-4.441-3.193-4.955
	c-1.717-0.327-3.493-0.324-5.234-0.543c-2.487-0.313-5.328-0.491-5.996-3.474c-0.795-3.549-1.445-7.376,0.925-10.584
	C53.217,553.63,56.212,554.26,58.354,554.07z"/>
<path fill="#3E84A1" d="M171.916,567.321c-0.004,3.071,0.109,6.149-0.029,9.217c-0.238,5.293-1.79,6.952-7.12,7.568
	c-1.866,0.216-3.79,0.08-5.675-0.063c-4.147-0.316-6.447-2.606-6.517-6.782c-0.112-6.728-0.091-13.459-0.083-20.188
	c0.002-1.118-0.165-2.51,1.599-2.557c1.9-0.05,1.498,1.438,1.505,2.494c0.042,6.292-0.026,12.583,0.043,18.874
	c0.047,4.32,1.223,5.172,6.652,5.156c5.391-0.017,6.433-0.827,6.469-5.301c0.05-6.145-0.017-12.289,0.046-18.435
	c0.01-1.021-0.594-2.599,1.21-2.775c2.004-0.197,1.881,1.394,1.893,2.693C171.941,560.591,171.919,563.957,171.916,567.321z"/>
<path fill="#3F86A4" d="M382.382,666c6.671-0.009,9.069,1.686,8.868,6.232c-0.039,0.874,0.178,1.841-1.148,1.872
	c-0.833,0.021-1.155-0.471-1.525-1.217c-1.829-3.687-5.796-5.051-9.589-3.607c-2.435,0.926-2.045,2.896-2.078,4.749
	c-0.034,1.917-0.188,3.978,2.351,4.516c1.563,0.331,3.159,0.555,4.75,0.69c6.233,0.531,7.907,2.36,7.772,8.608
	c-0.13,5.992-2.196,8.021-8.329,8.186c-7.559,0.201-10.239-1.655-10.057-7.027c0.034-1.057-0.434-2.579,1.457-2.55
	c1.568,0.023,1.279,1.321,1.289,2.27c0.025,2.201,0.895,3.812,3.214,3.91c2.939,0.126,6.438,1.586,8.528-1.422
	c1.402-2.017,1.383-5.065,0.104-7.154c-1.525-2.488-4.651-1.923-7.238-2.121c-5.529-0.43-6.981-1.914-7.102-7.279
	C373.494,667.604,375.104,666.009,382.382,666z"/>
<path fill="#3E84A1" d="M225.147,625.307c0.002-3.943,0.084-7.891-0.031-11.83c-0.063-2.167,0.572-3.27,2.928-3.199
	c3.502,0.104,7.009,0.022,10.515,0.038c1.237,0.004,2.425,0.154,2.327,1.833c-0.092,1.578-1.362,1.229-2.3,1.271
	c-1.457,0.066-2.92,0.023-4.381,0.024c-5.472,0.004-7.456,2.854-5.751,8.047c0.518,1.576,1.645,1.408,2.774,1.429
	c2.19,0.04,4.382-0.015,6.572,0.037c1.112,0.026,2.569-0.229,2.47,1.596c-0.082,1.484-1.331,1.303-2.316,1.321
	c-2.044,0.039-4.103,0.167-6.131-0.016c-2.746-0.247-3.748,0.925-3.414,3.527c0.019,0.145,0,0.292,0.001,0.438
	c0.093,7.929-0.776,6.545,6.685,6.921c1.932,0.098,5.65-1.8,5.523,1.801c-0.086,2.446-3.644,1.16-5.585,1.189
	c-9.887,0.151-9.888,0.07-9.888-9.608C225.146,628.519,225.146,626.913,225.147,625.307z"/>
<path fill="#3E85A3" d="M166.144,624.883c0.001-3.949,0.053-7.898-0.023-11.847c-0.034-1.755,0.405-2.777,2.402-2.74
	c3.801,0.069,7.604,0.019,11.406,0.035c1.115,0.005,2.026,0.267,1.989,1.7c-0.042,1.593-1.21,1.373-2.182,1.389
	c-2.34,0.039-4.701,0.219-7.015-0.021c-4.209-0.439-3.371,2.468-3.432,4.826c-0.064,2.523-0.407,5.205,3.601,4.747
	c1.731-0.197,3.511-0.11,5.259,0c1.158,0.073,2.984-0.594,2.915,1.553c-0.057,1.758-1.642,1.239-2.703,1.341
	c-0.87,0.083-1.774-0.099-2.627,0.046c-2.053,0.345-4.915-1.241-6.018,1.079c-1.163,2.448-0.546,5.462-0.235,8.214
	c0.183,1.608,1.649,1.393,2.771,1.421c2.339,0.058,4.681-0.01,7.019,0.058c1.088,0.032,2.492-0.285,2.628,1.489
	c0.147,1.905-1.29,1.599-2.381,1.608c-3.656,0.039-7.315-0.063-10.968,0.044c-2.011,0.059-2.572-0.895-2.406-2.656
	c0.014-0.146,0-0.293,0-0.439C166.143,632.78,166.143,628.831,166.144,624.883z"/>
<path fill="#3F87A5" d="M442.05,624.916c0.001-3.949,0.05-7.899-0.021-11.848c-0.031-1.729,0.348-2.8,2.375-2.762
	c3.801,0.072,7.604,0.017,11.406,0.034c1.104,0.005,2.037,0.232,2.005,1.682c-0.038,1.595-1.203,1.377-2.177,1.393
	c-2.485,0.037-4.98,0.148-7.458-0.006c-4.104-0.256-2.904,2.746-2.959,4.798c-0.057,2.16-0.876,5.025,3.089,4.76
	c2.038-0.137,4.096-0.063,6.141,0.007c1.081,0.036,2.627-0.32,2.522,1.522c-0.099,1.771-1.632,1.297-2.693,1.356
	c-1.458,0.084-2.94-0.106-4.382,0.063c-1.59,0.188-4.058-1.011-4.488,1.394c-0.503,2.811-1.126,6.061,0.396,8.556
	c1.083,1.773,3.839,0.434,5.788,0.835c2.074,0.428,5.896-1.397,5.885,1.423c-0.016,3.262-3.897,1.528-5.97,1.577
	c-9.46,0.219-9.463,0.096-9.463-9.519C442.048,628.426,442.048,626.672,442.05,624.916z"/>
<path fill="#3E84A1" d="M222.23,680.977c-0.001-3.945,0.093-7.896-0.037-11.836c-0.073-2.245,0.661-3.144,2.992-3.04
	c3.501,0.156,7.014,0.014,10.521,0.06c1.073,0.014,2.518-0.343,2.433,1.56c-0.081,1.794-1.477,1.505-2.572,1.547
	c-1.751,0.067-3.507,0.021-5.261,0.027c-4.494,0.018-7.12,4.487-4.955,8.433c0.708,1.289,1.97,1.059,3.103,1.083
	c2.337,0.051,4.676,0.027,7.014,0.059c1.169,0.016,1.968,0.46,1.914,1.807c-0.052,1.267-0.993,1.261-1.862,1.281
	c-1.606,0.038-3.228-0.105-4.819,0.059c-1.792,0.187-4.587-1.062-5.156,0.934c-0.77,2.694-0.362,5.789-0.118,8.684
	c0.103,1.221,1.618,0.97,2.601,0.986c2.776,0.05,5.553,0.032,8.329,0.07c0.778,0.011,1.468,0.312,1.573,1.183
	c0.131,1.085-0.523,1.671-1.525,1.684c-4.09,0.054-8.181,0.063-12.271,0.043c-1.9-0.01-1.902-1.417-1.901-2.779
	C222.232,688.868,222.231,684.922,222.23,680.977z"/>
<path fill="#3E84A1" d="M503.403,680.921c0-3.94,0.1-7.885-0.037-11.822c-0.08-2.288,0.74-3.101,3.025-2.997
	c3.351,0.152,6.715-0.011,10.068,0.068c1.017,0.024,2.605-0.549,2.661,1.322c0.059,2.021-1.588,1.723-2.838,1.774
	c-1.604,0.067-3.21,0.021-4.816,0.026c-4.484,0.019-7.102,4.48-4.942,8.428c0.706,1.291,1.965,1.062,3.097,1.086
	c2.335,0.051,4.671,0.033,7.006,0.057c1.215,0.011,1.904,0.544,1.822,1.858c-0.08,1.279-1.043,1.199-1.893,1.232
	c-1.166,0.046-2.334,0.023-3.502,0.023c-6.642,0.006-8.289,2.274-6.706,8.914c0.377,1.581,1.313,1.716,2.523,1.725
	c2.628,0.02,5.255-0.005,7.882,0.039c0.981,0.017,2.216-0.157,2.342,1.308c0.121,1.437-0.979,1.634-2.045,1.644
	c-3.795,0.029-7.59-0.015-11.385,0.025c-2.081,0.022-2.287-1.274-2.274-2.889C503.425,688.803,503.403,684.861,503.403,680.921z"/>
<path fill="#3E84A1" d="M84.597,622.955c0.005,3.221-0.04,6.44,0.017,9.66c0.08,4.59,3.5,4.345,6.587,4.354
	c3.11,0.008,6.496,0.193,6.516-4.412c0.028-6.293-0.011-12.588,0.047-18.881c0.013-1.316-0.592-3.317,1.794-3.165
	c1.991,0.128,1.412,1.916,1.419,3.106c0.04,6.146,0.122,12.298-0.067,18.438c-0.095,3.08-0.45,6.658-4.241,7.329
	c-4.518,0.801-9.313,1.862-13.456-1.426c-1.359-1.078-1.55-2.77-1.555-4.412c-0.017-6.731-0.042-13.466,0.006-20.198
	c0.008-1.174-0.512-2.995,1.638-2.834c1.734,0.132,1.244,1.72,1.266,2.781C84.633,616.515,84.591,619.735,84.597,622.955z"/>
<path fill="#3E85A2" d="M264.693,568.975c-0.001-3.808,0.08-7.616-0.033-11.421c-0.063-2.161,0.52-3.271,2.927-3.179
	c3.51,0.137,7.028,0.019,10.542,0.053c0.986,0.01,2.192-0.117,2.264,1.379c0.074,1.521-1.09,1.494-2.118,1.521
	c-1.463,0.038-2.929,0.024-4.393,0.026c-5.774,0.006-7.401,2.303-5.931,8.024c0.422,1.642,1.465,1.575,2.622,1.592
	c2.196,0.031,4.394-0.007,6.589,0.032c1.124,0.02,2.567-0.262,2.642,1.479c0.087,2.065-1.544,1.717-2.806,1.756
	c-1.316,0.042-2.649-0.109-3.95,0.043c-1.648,0.192-4.163-0.981-4.761,0.938c-0.852,2.731-0.675,5.815-0.007,8.679
	c0.276,1.182,1.716,0.827,2.693,0.847c2.488,0.05,4.979,0.016,7.468,0.054c0.868,0.015,1.808,0.049,1.938,1.245
	c0.124,1.133-0.541,1.611-1.54,1.617c-4.1,0.023-8.2,0.027-12.299-0.005c-1.951-0.016-1.839-1.493-1.843-2.817
	C264.686,576.882,264.694,572.929,264.693,568.975z"/>
<path fill="#3F87A5" d="M373.366,625.065c0-3.359,0.29-6.751-0.074-10.07c-0.445-4.073,1.255-5.1,4.953-4.742
	c2.895,0.279,5.837,0.059,8.758,0.099c1.076,0.016,2.078,0.233,2.089,1.647c0.014,1.587-1.188,1.385-2.161,1.414
	c-1.604,0.049-3.213,0.021-4.82,0.021c-5.478,0.003-7.484,2.878-5.764,8.055c0.519,1.558,1.634,1.425,2.771,1.442
	c2.336,0.035,4.674-0.006,7.01,0.04c0.979,0.021,2.175-0.134,2.237,1.384c0.063,1.541-1.105,1.479-2.118,1.499
	c-2.044,0.04-4.109,0.203-6.13-0.015c-3.19-0.342-3.964,1.061-3.872,4.021c0.243,7.754-0.744,6.571,6.805,6.891
	c2.017,0.085,5.795-1.597,5.741,1.601c-0.05,2.963-3.797,1.315-5.804,1.356c-9.622,0.197-9.624,0.089-9.624-9.383
	C373.366,628.571,373.366,626.818,373.366,625.065z"/>
<path fill="#3F87A5" d="M503.414,568.832c0.002-3.798,0.095-7.599-0.033-11.394c-0.077-2.245,0.676-3.155,3-3.059
	c3.5,0.147,7.009,0.024,10.516,0.061c0.997,0.012,2.213-0.046,2.215,1.437c0,1.481-1.213,1.404-2.213,1.438
	c-1.459,0.05-2.922,0.026-4.382,0.027c-6.251,0.004-7.392,1.535-6.192,7.76c0.361,1.888,1.482,1.873,2.82,1.884
	c2.483,0.021,4.967,0.016,7.449,0.042c0.926,0.011,1.743,0.205,1.833,1.377c0.104,1.353-0.634,1.811-1.846,1.811
	c-1.021,0-2.045,0.02-3.066,0.021c-7.799,0.02-8.001,0.322-7.214,8.062c0.195,1.92,0.953,2.515,2.726,2.483
	c2.771-0.051,5.55-0.006,8.323,0.041c0.914,0.016,1.782,0.251,1.771,1.43s-0.894,1.396-1.8,1.403
	c-3.943,0.027-7.888-0.013-11.831,0.03c-2.273,0.023-2.037-1.567-2.073-3.021c-0.004-0.146-0.004-0.293-0.004-0.438
	C503.412,576.428,503.412,572.63,503.414,568.832z"/>
<path fill="#3E85A2" d="M203.488,635.935c2.414-8.108,4.506-15.238,6.679-22.345c0.389-1.269,0.395-3.444,2.44-2.911
	c2.212,0.577,0.827,2.39,0.476,3.604c-2.197,7.56-4.469,15.097-6.742,22.634c-0.454,1.507-0.733,3.039-3.039,2.945
	c-1.968-0.08-2.4-1.208-2.832-2.666c-2.36-7.969-4.777-15.918-7.062-23.905c-0.244-0.85-1.658-2.3,0.365-2.833
	c1.755-0.461,2.14,0.955,2.533,2.282c1.907,6.431,3.845,12.854,5.79,19.273C202.385,632.971,202.762,633.901,203.488,635.935z"/>
<path fill="#3C809C" d="M509.817,626.43c0-2.922-0.176-5.855,0.048-8.76c0.233-3.058-0.437-4.703-3.983-4.305
	c-1.255,0.141-3.723,1.142-3.765-1.402c-0.042-2.479,2.343-1.618,3.746-1.655c4.231-0.11,8.471-0.037,12.706-0.013
	c1.236,0.007,2.439,0.197,2.345,1.854c-0.089,1.542-1.412,1.427-2.299,1.26c-5.376-1.018-5.81,1.96-5.573,6.198
	c0.3,5.389,0.147,10.807,0.02,16.209c-0.032,1.359,1.037,3.768-1.471,3.818c-2.891,0.062-1.613-2.56-1.71-4.009
	C509.675,632.574,509.817,629.497,509.817,626.43z"/>
<path fill="#3C819D" d="M253.49,625.951c0-4.043-0.172-7.265,0.068-10.453c0.133-1.748-1.362-4.905,1.684-4.898
	c2.772,0.005,1.306,3.028,1.357,4.627c0.192,5.974,0.174,11.957,0.032,17.933c-0.058,2.442,0.687,3.456,3.203,3.263
	c2.174-0.167,4.372-0.05,6.559-0.017c1.146,0.017,2.421-0.128,2.526,1.608c0.132,2.183-1.479,1.677-2.693,1.795
	c-0.144,0.015-0.292,0.012-0.437,0.003c-3.908-0.201-9.48,1.713-11.346-0.682C251.659,635.559,253.938,629.877,253.49,625.951z"/>
<path fill="#3C819D" d="M476.297,680.627c-0.002-3.363-0.171-6.739,0.077-10.084c0.106-1.449-1.374-4.101,1.371-4.217
	c2.781-0.119,1.643,2.586,1.68,4.047c0.146,5.846,0.225,11.702-0.002,17.543c-0.129,3.373,0.849,4.887,4.406,4.464
	c2.018-0.239,4.089-0.038,6.136-0.003c0.978,0.017,1.702,0.385,1.688,1.529c-0.014,1.045-0.569,1.688-1.584,1.693
	c-4.093,0.026-8.187,0.046-12.274-0.051c-1.73-0.041-1.477-1.514-1.484-2.64C476.283,688.814,476.3,684.721,476.297,680.627z"/>
<path fill="#3B7E99" d="M449.422,680.881c0.002-4.088-0.016-8.176,0.016-12.264c0.008-1.157-0.056-2.469,1.715-2.427
	c1.884,0.045,1.445,1.507,1.454,2.554c0.042,6.716,0.134,13.435-0.028,20.146c-0.064,2.683,0.79,3.688,3.479,3.472
	c2.32-0.188,4.671-0.04,7.005,0.001c0.899,0.016,1.758,0.164,1.813,1.383c0.058,1.289-0.577,1.896-1.804,1.901
	c-3.796,0.021-7.593,0.007-11.388,0.019c-2.068,0.007-2.274-1.367-2.27-2.959C449.429,688.766,449.419,684.823,449.422,680.881z"/>
<path fill="#3C819D" d="M394.088,568.816c0.003-3.937-0.02-7.87,0.019-11.806c0.011-1.134-0.1-2.494,1.646-2.504
	c1.868-0.011,1.48,1.459,1.486,2.516c0.041,6.559,0.143,13.118-0.031,19.671c-0.076,2.827,0.776,3.995,3.685,3.735
	c2.167-0.192,4.368-0.036,6.554,0.002c1.069,0.019,2.034,0.187,2.062,1.633c0.027,1.459-0.904,1.636-1.994,1.639
	c-3.643,0.015-7.287-0.057-10.928,0.037c-2.344,0.06-2.523-1.365-2.511-3.12C394.102,576.685,394.084,572.75,394.088,568.816z"/>
<path fill="#4088A6" d="M192.163,554.433c2.484,0,4.969-0.009,7.454,0.006c1.092,0.006,2.123,0.166,1.973,1.646
	c-0.122,1.195-1.09,1.117-1.952,1.251c-6.107,0.946-6.105,0.955-6.106,7.391c-0.001,5.407,0.02,10.816-0.027,16.225
	c-0.009,1.068,0.36,2.621-1.452,2.599c-1.792-0.021-1.41-1.569-1.417-2.636c-0.044-6.432-0.161-12.866,0.033-19.291
	c0.092-3.057-0.477-4.721-4.019-4.369c-1.264,0.125-3.846,1.098-3.691-1.486c0.138-2.308,2.546-1.143,3.948-1.301
	c1.731-0.196,3.502-0.048,5.256-0.048C192.163,554.422,192.163,554.428,192.163,554.433z"/>
<path fill="#4088A6" d="M88.969,570.803c-0.001,3.211,0.063,6.423-0.035,9.63c-0.035,1.151,0.653,3.001-1.364,3.081
	c-2.112,0.084-1.473-1.812-1.486-2.952c-0.069-6.272-0.202-12.555,0.032-18.819c0.124-3.343-0.727-4.9-4.333-4.477
	c-1.188,0.141-3.412,0.887-3.429-1.371c-0.016-2.25,2.146-1.402,3.401-1.436c4.083-0.107,8.171-0.073,12.256-0.014
	c1.051,0.016,2.585-0.438,2.71,1.325c0.129,1.845-1.459,1.699-2.482,1.515c-4.786-0.865-5.757,1.518-5.32,5.644
	C89.194,565.526,88.97,568.177,88.969,570.803z"/>
<path fill="#4088A6" d="M130.862,570.214c-0.002-2.043-0.175-4.104,0.033-6.125c0.458-4.447,0.089-7.963-5.89-6.805
	c-0.835,0.161-1.802-0.041-1.905-1.233c-0.128-1.492,0.933-1.603,1.995-1.604c4.815-0.016,9.63-0.016,14.446,0
	c1.059,0.003,2.126,0.104,2.002,1.598c-0.098,1.193-1.062,1.402-1.899,1.241c-5.965-1.153-6.167,2.332-5.931,6.799
	c0.292,5.529,0.1,11.086,0.038,16.63c-0.013,1.158,0.518,2.984-1.638,2.791c-1.719-0.154-1.201-1.74-1.221-2.785
	C130.821,577.219,130.864,573.716,130.862,570.214z"/>
<path fill="#3A7C97" d="M435.932,680.669c0.001,4.239,0.012,8.479-0.007,12.717c-0.004,1.018,0.069,2.168-1.456,2.17
	c-1.349,0.003-1.723-0.892-1.724-2.03c-0.007-8.479-0.007-16.956,0.003-25.435c0.001-1.166,0.432-1.966,1.794-1.913
	c1.577,0.063,1.367,1.245,1.375,2.213C435.947,672.483,435.93,676.576,435.932,680.669z"/>
<path fill="#3B7E99" d="M3.256,569.114c-0.001,3.943,0.016,7.887-0.01,11.83c-0.009,1.321,0.03,2.865-1.941,2.661
	c-1.783-0.187-1.219-1.747-1.226-2.774c-0.051-7.886-0.048-15.773-0.003-23.66c0.006-1.032-0.503-2.58,1.34-2.664
	c2.014-0.092,1.814,1.506,1.826,2.778C3.28,561.228,3.256,565.172,3.256,569.114z"/>
<path fill="#3B7E99" d="M344.49,568.816c0-3.943-0.027-7.888,0.019-11.83c0.013-1.07-0.344-2.529,1.527-2.489
	c1.742,0.038,1.634,1.398,1.638,2.532c0.027,8.031,0.025,16.064,0,24.1c-0.004,1.146,0.063,2.494-1.68,2.489
	c-1.863-0.004-1.472-1.473-1.485-2.533C344.461,576.996,344.49,572.906,344.49,568.816z"/>
<path fill="#3A7C96" d="M111.575,569.305c-0.001,3.948,0.015,7.897-0.011,11.846c-0.008,1.154,0.089,2.487-1.675,2.461
	c-1.754-0.028-1.62-1.375-1.623-2.517c-0.02-8.043-0.019-16.085,0-24.128c0.002-1.156-0.085-2.487,1.676-2.46
	c1.754,0.027,1.614,1.374,1.622,2.514C111.593,561.115,111.575,565.21,111.575,569.305z"/>
<path fill="#4088A6" d="M486.733,569.03c0.001-4.071-0.019-8.145,0.014-12.216c0.008-0.974-0.136-2.179,1.354-2.259
	c1.51-0.08,1.514,1.068,1.516,2.095c0.014,8.289,0.013,16.577-0.001,24.866c-0.002,1.045-0.068,2.154-1.563,2.03
	c-1.485-0.123-1.297-1.342-1.305-2.301C486.712,577.175,486.732,573.103,486.733,569.03z"/>
<path fill="#3E85A3" d="M179.037,603.693c-2.852,2.031-3.777,5.107-7.863,5.378C173.569,606.672,174.04,603.023,179.037,603.693z"/>
<path fill="#042451" d="M182.235,463.915c-2.192-9.295-8.672-14.501-18.346-15.694c-1.124-0.138-2.384,0.074-3.23-1.211
	c0.519-1.068,1.262-1.184,1.974-1.321c10.071-1.958,15.934-8.127,17.843-18.076c1.64-8.55,1.57-17.139,0.002-25.701
	c-2.195-11.986-9.364-19.084-21.197-21.782c-6.318-1.44-12.731-2.017-19.138-2.064c-23.282-0.169-46.567-0.068-69.851-0.065
	c-6.6,0.001-6.797,0.158-6.8,6.979c-0.016,42.468-0.014,84.935,0,127.402c0.002,5.497,0.519,6.004,6.055,6.009
	c17.866,0.021,35.731-0.026,53.597,0.022c11.56,0.031,23.112,0.029,34.589-1.618c12.043-1.729,20.886-7.42,24.013-19.86
	C184.496,485.987,184.824,474.896,182.235,463.915z M101.163,412.101c-0.031-2.435,0.97-3.409,3.388-3.366
	c4.82,0.086,9.643,0.025,15.603,0.025c4.966,0.408,11.139-0.793,17.194,0.736c1.123,0.283,2.402,0.467,3.273,1.135
	c4.743,3.636,3.724,8.875,3.324,13.732c-0.333,4.054-1.68,7.853-6.449,8.826c-2.134,0.436-4.314,0.869-6.479,0.896
	c-8.619,0.102-17.241-0.017-25.86,0.078c-2.656,0.029-4.087-0.63-4.014-3.653C101.291,424.376,101.241,418.237,101.163,412.101z
	 M130.813,487.021c-8.346,0.071-16.695-0.098-25.039,0.072c-3.325,0.068-4.791-0.872-4.655-4.447
	c0.228-5.994,0.198-12.01,0.009-18.008c-0.103-3.294,1.163-4.396,4.367-4.279c5.118,0.185,10.249,0.049,15.374,0.049
	c0,0.034,0,0.067,0,0.103c4.979,0,9.96-0.101,14.935,0.024c7.171,0.18,9.971,3.078,10.241,10.313
	c0.006,0.146,0.006,0.292,0.01,0.439C146.408,483.68,143.315,486.914,130.813,487.021z"/>
<path fill="#042451" d="M326.003,416.909c-2.353-18.216-11.69-30.887-30.004-35.909c-7.375-2.022-14.955-2.869-22.537-2.933
	c-22.829-0.191-45.661,0.027-68.489-0.157c-4.179-0.034-5.517,1.097-5.476,5.388c0.203,21.511,0.093,43.025,0.093,64.539
	c0,21.367-0.003,42.734,0.001,64.102c0.002,6.052,0.317,6.504,6.442,6.433c26.619-0.313,53.271,1.117,79.853-0.802
	c20.034-1.447,34.015-10.355,38.783-31.161c1.342-5.856,2.398-11.743,2.272-17.775C326.581,451.39,328.222,434.091,326.003,416.909z
	 M288.108,467.547c-0.492,10.626-6.678,18.332-18.963,17.734c-9.05-0.44-18.142-0.238-27.208-0.015
	c-3.723,0.093-4.744-1.258-4.683-4.817c0.186-10.823,0.068-21.652,0.069-32.479c0-10.827,0.088-21.654-0.054-32.479
	c-0.042-3.21,1.004-4.393,4.279-4.344c10.239,0.153,20.482,0.01,30.724,0.072c10.474,0.063,15.602,4.581,15.896,15.081
	C288.552,440.041,288.743,453.824,288.108,467.547z"/>
<path fill="#E03F08" d="M947.391,652.737c-1.307,4.337-2.512,8.706-3.936,13.004c-7.238,21.854-28.689,36.791-51.657,37.452
	c-25.724,0.738-50.119-17.989-55.646-43.351c-3.881-17.796,0.113-33.904,11.451-48.158c1.012-1.27,2.232-2.347,2.143-4.148
	c14.259,11.127,30.586,18.027,47.665,23.433c16.725,5.293,33.132,11.36,48.233,20.481
	C946.261,651.822,946.811,652.306,947.391,652.737z"/>
<path fill="#3E84A1" d="M153.687,621.874c-0.497-10.001-2.171-11.581-12.133-11.587c-1.169,0-2.357,0.134-3.505-0.024
	c-3.706-0.513-5.412,0.682-4.988,4.741c0.347,3.327,0.071,6.719,0.075,10.08c0.004,3.947,0.049,7.896-0.015,11.841
	c-0.032,1.924,0.46,3.015,2.697,2.909c3.355-0.156,6.729,0.054,10.081-0.141c4.008-0.232,6.46-2.414,7.087-6.463
	C153.566,629.468,153.876,625.681,153.687,621.874z M150.142,631.703c-0.366,3.16-2.07,4.817-5.483,4.979
	c-8.374,0.396-8.37,0.496-8.37-7.718c0-1.311,0-2.621,0-3.932c0-2.621,0.21-5.264-0.053-7.857c-0.325-3.208,1.034-4.13,3.968-3.758
	c1.29,0.164,2.626,0.126,3.926,0.009c3.84-0.346,5.741,1.563,6.072,5.198C150.601,622.979,150.645,627.354,150.142,631.703z"/>
<path fill="#3E84A1" d="M209.688,676.948c-0.262-8.734-2.398-10.788-11.06-10.812c-2.19-0.006-4.388,0.12-6.568-0.029
	c-2.352-0.161-3.042,0.852-2.972,3.072c0.126,3.938,0.036,7.882,0.037,11.823c0.002,3.942,0.012,7.883-0.004,11.825
	c-0.005,1.401,0.085,2.752,1.943,2.75c4.223-0.005,8.466,0.479,12.662-0.313c3.331-0.631,4.882-2.964,5.426-6.089
	C209.855,685.13,209.81,681.033,209.688,676.948z M206.412,686.545c-0.182,4.164-2.264,6.476-6.716,6.103
	c-1.159-0.099-2.351-0.146-3.495,0.014c-3.145,0.431-4.117-0.951-3.861-3.951c0.221-2.606,0.046-5.246,0.045-7.871
	c-0.001-1.457-0.182-2.943,0.041-4.367c0.362-2.316-1.466-5.771,1.139-6.742c3.141-1.17,6.958-1.027,10.294,0.23
	c2.179,0.821,2.456,3.219,2.55,5.223C206.586,678.963,206.577,682.763,206.412,686.545z"/>
<path fill="#3E85A2" d="M68.686,617.197c-0.492-4.079-2.681-6.473-6.756-6.752c-3.498-0.24-7.023-0.038-10.531-0.163
	c-2.402-0.086-2.954,1.107-2.892,3.243c0.111,3.803,0.031,7.609,0.032,11.416c0.001,3.952,0,7.904,0.001,11.857
	c0,1.49-0.142,3.04,2.108,2.992c3.803-0.079,7.623,0.108,11.405-0.201c4.15-0.34,6.08-3.187,6.519-7.073
	C69.149,627.423,69.303,622.316,68.686,617.197z M65.568,631.692c-0.472,3.516-2.419,5.132-5.944,4.965
	c-1.313-0.063-2.646-0.136-3.943,0.019c-3.088,0.366-4.181-0.929-3.93-3.97c0.216-2.612,0.045-5.258,0.044-7.889
	c-0.001-1.315-0.001-2.631-0.001-3.946c0-7.558,0.003-7.385,7.731-7.502c3.883-0.058,5.745,1.598,6.134,5.211
	C66.13,622.947,66.154,627.32,65.568,631.692z"/>
<path fill="#3F88A6" d="M330.521,570.357c-1.123-1.919-0.662-2.944-0.239-4.741c1.576-6.713,0.888-11.993-7.527-11.235
	c-2.468,0.224-4.976,0.109-7.461,0.021c-1.896-0.067-2.601,0.722-2.566,2.588c0.077,3.952,0.024,7.905,0.02,11.857
	c-0.005,1.609-0.005,3.221-0.005,4.831c0,10.051,0,10.051,10.037,10.022C330.55,583.68,334.5,577.155,330.521,570.357z
	 M315.723,558.744c0.446-1.273,1.307-1.381,2.34-1.397c1.448-0.021,2.899,0.044,4.346-0.025c3.392-0.165,5.553,0.73,5.49,4.797
	c-0.062,3.841-1.806,5.231-5.396,4.9c-0.432-0.041-0.869-0.007-1.303-0.007C316.021,567.018,313.947,563.814,315.723,558.744z
	 M321.046,580.786c-1.546-0.38-4.373,1.011-4.953-0.925c-0.799-2.669-0.319-5.747-0.216-8.644c0.027-0.773,1-0.936,1.754-0.95
	c1.165-0.022,2.33-0.042,3.494-0.043c6.289-0.007,7.369,0.747,7.425,5.17C328.608,579.886,327.401,580.779,321.046,580.786z"/>
<path fill="#3F87A5" d="M381.558,569.126c0.005,0,0.01,0,0.015,0c0-1.024,0.001-2.05,0-3.075
	c-0.021-10.647-2.53-12.928-13.143-11.928c-0.58,0.055-1.148,0.217-1.729,0.288c-3.402,0.419-5.249,2.412-5.592,5.738
	c-0.618,5.979-0.631,11.972,0.006,17.955c0.175,1.645,0.585,3.36,2.009,4.234c4.586,2.819,9.6,2.509,14.406,0.957
	c3.93-1.271,3.914-5.055,4.019-8.463C381.605,572.933,381.558,571.029,381.558,569.126z M378.636,573.577
	c-0.094,6.525-1.128,7.52-7.75,7.478c-6.071-0.038-7.007-0.984-7.028-7.205c-0.015-3.941-0.029-7.885,0.032-11.825
	c0.052-3.186,1.729-4.654,4.937-4.851c9.125-0.555,9.813,0.232,9.813,12.023C378.64,570.658,378.658,572.118,378.636,573.577z"/>
<path fill="#3F88A5" d="M360.409,679.303c3.226-7.925-0.436-13.144-8.885-13.153c-1.609-0.002-3.242,0.175-4.822-0.035
	c-3.662-0.488-5.4,0.525-4.902,4.652c0.399,3.316,0.081,6.721,0.083,10.084c0.001,4.097-0.014,8.191,0.012,12.288
	c0.008,0.97-0.257,2.228,1.247,2.351c1.657,0.134,1.844-1.064,1.851-2.326c0.013-2.194,0.023-4.389,0.029-6.583
	c0.005-1.43,0.237-2.636,2.075-2.683c8.52-0.217,11.241-0.404,10.464,8.05c-0.054,0.579,0.006,1.169,0.021,1.754
	c0.024,0.96,0.295,1.774,1.438,1.773c1.144,0,1.44-0.815,1.433-1.773c-0.025-2.777,0.57-5.782-0.307-8.265
	C359.309,683.07,359.504,681.525,360.409,679.303z M358.099,675.015c-0.089,4.944-1.524,5.973-8.317,5.948
	c-4.915-0.018-4.566-0.039-4.996-6.875c-0.329-5.213,2.355-5.427,5.346-4.925C357.333,669.188,358.191,669.884,358.099,675.015z"/>
<path fill="#3F87A4" d="M441.329,566.199c0.356-9.841-0.48-12.954-13.776-11.963c-0.29,0.021-0.571,0.125-0.861,0.158
	c-3.609,0.411-5.438,2.539-5.797,6.05c-0.601,5.839-0.609,11.679,0.014,17.52c0.214,2.005,0.875,3.887,2.697,4.766
	c4.725,2.276,9.737,2.307,14.435,0.245c3.728-1.636,3.233-5.515,3.281-8.873c0.022-1.608,0.004-3.22,0.004-4.828
	C441.324,568.248,441.291,567.222,441.329,566.199z M438.384,569.18c0.004,1.021,0.004,2.043,0.004,3.065
	c-0.004,8.354-2.915,10.58-11.152,8.636c-2.186-0.517-3.353-1.885-3.404-3.965c-0.126-5.1-0.162-10.207-0.032-15.307
	c0.077-2.987,1.928-4.409,4.893-4.398c1.313,0.005,2.629,0.044,3.938-0.018c4.126-0.197,5.853,1.901,5.757,5.857
	C438.338,565.093,438.379,567.137,438.384,569.18z"/>
<path fill="#3D83A0" d="M324.325,610.29c-2.05-0.032-4.123,0.185-6.146-0.052c-3.724-0.434-5.42,0.706-4.998,4.771
	c0.347,3.332,0.07,6.729,0.071,10.099c0,3.659-0.088,7.324,0.045,10.98c0.05,1.368-0.897,3.735,1.782,3.575
	c2.307-0.137,1.253-2.274,1.291-3.502c0.227-7.619,0.179-7.621,7.854-7.778c5.837-0.12,7.854-2.448,7.869-9.087
	C332.111,612.546,330.254,610.384,324.325,610.29z M321.88,625.219c-5.46,0.004-5.46,0.004-5.462-5.844
	c0.118-6.837-0.89-5.848,5.703-5.913c6.229-0.063,6.679,0.368,6.701,5.682C328.844,624.678,328.23,625.214,321.88,625.219z"/>
<path fill="#3F87A5" d="M252.239,565.611c-0.154-9.279-2.157-11.182-11.515-11.199c-8.822-0.017-8.822-0.017-8.822,8.59
	c0,2.048,0,4.096,0.001,6.145c0.002,3.803,0.076,7.606-0.026,11.407c-0.057,2.108,0.428,3.299,2.88,3.18
	c3.357-0.163,6.729,0.018,10.088-0.107c3.708-0.137,5.847-2.183,6.679-5.786C252.459,573.793,252.306,569.695,252.239,565.611z
	 M249.136,570.891c-0.415,11.052-2.077,9.92-12.214,9.869c-1.843-0.01-2.093-1.148-2.089-2.604
	c0.013-6.116-0.012-12.232,0.033-18.35c0.005-0.674,0.239-1.847,0.588-1.938c3.405-0.887,6.884-0.875,10.287-0.052
	c2.379,0.575,2.871,2.683,3.058,4.79c0.194,2.172,0.295,4.353,0.438,6.527c-0.033,0.002-0.064,0.004-0.096,0.006
	C249.139,569.726,249.158,570.309,249.136,570.891z"/>
<path fill="#3F87A5" d="M300.733,624.848c0-1.608,0.004-3.218-0.001-4.827c-0.025-8.129-1.975-10.091-10.079-10.098
	c-1.313-0.001-2.637,0.052-3.939,0.208c-4.084,0.488-6.336,2.742-6.407,6.938c-0.058,3.509-0.075,7.02-0.077,10.528
	c-0.006,11.43,1.521,12.877,12.962,12.328c0.438-0.021,0.877-0.042,1.313-0.087c3.752-0.388,5.886-2.477,6.106-6.223
	c0.172-2.914,0.034-5.847,0.034-8.771C300.676,624.848,300.704,624.848,300.733,624.848z M297.846,631.433
	c-0.238,4.797-1.7,5.692-8.272,5.572c-4.942-0.091-6.225-1.191-6.391-5.654c-0.082-2.186-0.015-4.376-0.019-6.564
	c-0.005-1.313-0.008-2.626-0.004-3.939c0.017-6.908,1.247-8.066,8.271-7.796c5.25,0.202,6.336,1.224,6.481,6.569
	C298.018,623.554,298.042,627.503,297.846,631.433z"/>
<path fill="#3F86A3" d="M330.396,693.627c-2.748-8.706-5.507-17.487-8.302-26.258c-0.475-1.489-1.813-1.149-2.956-1.216
	c-1.606-0.095-1.839,1.076-2.196,2.211c-2.502,7.944-5.071,15.87-7.47,23.846c-0.285,0.954-1.881,2.572,0.237,3.243
	c2.021,0.641,2.236-1.22,2.746-2.577c0.532-1.416,0.548-3.657,2.782-3.282c4.386,0.733,10.74-3.291,12.262,4.841
	c0.181,0.965,1.158,1.272,2.127,1.023C330.577,695.215,330.503,694.448,330.396,693.627z M322.961,686.398
	c-7.396,1.346-8.603,0.104-6.441-6.974c0.921-3.009,1.87-6.01,3.17-10.177c1.764,5.787,3.203,10.473,4.616,15.167
	C324.656,685.578,324.409,686.135,322.961,686.398z"/>
<path fill="#3F86A3" d="M354.401,610.322c-2.625-0.056-5.257,0.069-7.878-0.041c-2.225-0.095-3.146,0.721-3.068,3.03
	c0.133,3.935,0.037,7.878,0.037,11.816c0.001,3.939-0.037,7.88,0.027,11.818c0.016,1.042-0.473,2.619,1.293,2.716
	c2.175,0.118,1.406-1.708,1.607-2.854c0.05-0.282,0.006-0.582,0.01-0.874c0.117-7.42,0.117-7.42,7.602-7.56
	c0.146-0.003,0.292,0.002,0.438-0.002c5.633-0.178,7.525-2.552,7.487-9.393C361.917,612.358,360.266,610.444,354.401,610.322z
	 M351.784,625.242c-5.357-0.004-5.357-0.004-5.358-5.979c0.084-6.647-0.71-5.771,5.799-5.818c6.175-0.045,6.498,0.281,6.485,5.781
	C358.697,624.767,358.146,625.246,351.784,625.242z"/>
</svg>
