<?xml version="1.0" encoding="utf-8"?>
<!-- Generator: Adobe Illustrator 27.3.1, SVG Export Plug-In . SVG Version: 6.00 Build 0)  -->
<svg version="1.1" id="Calque_1" xmlns="http://www.w3.org/2000/svg" xmlns:xlink="http://www.w3.org/1999/xlink" x="0px" y="0px"
	 viewBox="0 0 1000 458.3" style="enable-background:new 0 0 1000 458.3;" xml:space="preserve">
<style type="text/css">
	.st0{fill:#020202;}
</style>
<g id="XMLID_12_">
	<g id="XMLID_69_">
		<path id="XMLID_74_" class="st0" d="M132.4,254.4c-13.3-8.8-33.8-21.3-44.5-16.5c-28.7,12.9-55.6,23.9-88,11.9
			c4.9,6.4,9.6,10,14.8,12.7c19.1,9.8,31.2,22,37.8,45.4c6.9,24.5,26.4,45.4,40.5,67.8c-1.3-45.3-0.7-44.9,29.6-88.5
			C129.2,277.8,135.4,256.4,132.4,254.4z"/>
		<path id="XMLID_73_" class="st0" d="M225.7,238.4c-11.1-5.1-32,8.3-46.6,16.5c-2.2,1.2,3.5,21.9,9.5,31
			c17.3,26.6,42.7,50,26.4,88.8c18.6-21.9,37.6-43.1,44.8-67.6c6.2-21.3,16.7-33.3,34.1-42.9c6.4-3.5,12.4-7.6,18.6-11.4
			c-0.2-2-0.3-4.1-0.5-6.1C280.5,261.4,254.1,251.5,225.7,238.4z"/>
		<path id="XMLID_72_" class="st0" d="M22.6,150.4c15.5,4.8,34.3,7.3,50-16c-11.3-0.6-16.5-1.6-21.6-0.9c-13.2,1.8-28.7,1.9-28.6-14
			c0.1-11.2,9.1-27.2,18.7-32.1c10.4-5.2,28.5-4.2,38.7,1.9c10.5,6.2,15.5,21.8,23.6,34.3c1-2.9,4.4-8.1,4.5-13.2
			c0.2-17.2-20.9-42.6-39.1-47.8C47,56.2,35.2,70.2,26.1,86c-6.5,11.2-12.6,23.8-13.8,36.3C11.4,131.8,16.5,148.5,22.6,150.4z"/>
		<path id="XMLID_71_" class="st0" d="M215.4,125.7c-5.1-22.4,6.1-34,24.2-40.8c17.9-6.7,34.7-3.3,45.4,12.4
			c4.7,6.9,5.4,19.4,2.6,27.5c-1.7,4.9-13.4,7.3-21,8.9c-6.8,1.5-14.2,0.3-26.1,0.3c13.2,23.4,31.1,19.5,46.6,18
			c15.9-1.5,17.7-15.4,13.9-26.5c-6.1-18-13.5-36.2-24.1-51.7c-11.2-16.3-28.3-16.9-45.2-5.9c-20.3,13.2-31.2,37.8-23.6,54.5
			C208.5,123.9,211.6,124.1,215.4,125.7z"/>
		<path id="XMLID_70_" class="st0" d="M159,357.9c-4.3-1.1-9.3-0.9-13.8,0c-7.1,1.6-19.7,4-19.8,6.5c-0.3,8.5,1.5,19,6.7,25.4
			c5.1,6.3,15.3,8.4,19,10.2c23.8-0.3,38-13.1,36.6-29.7C186,349.9,169.3,360.6,159,357.9z"/>
	</g>
	<g id="XMLID_13_">
		<g id="XMLID_42_">
			<path id="XMLID_67_" class="st0" d="M428.1,311.5v-59.6h9.5v59.6H428.1z"/>
			<path id="XMLID_65_" class="st0" d="M478.3,311.5l-16.9-49.8H461c0.5,7.4,0.7,14.3,0.7,20.8v29H453v-59.6h13.5l16.2,47.4h0.2
				l16.7-47.4h13.5v59.6H504V282c0-3,0.1-6.8,0.2-11.6c0.1-4.8,0.3-7.6,0.4-8.6h-0.3l-17.5,49.7H478.3z"/>
			<path id="XMLID_62_" class="st0" d="M564.7,311.5l-5.8-16.5h-22.3l-5.7,16.5h-10.1l21.9-59.8H553l21.9,59.8H564.7z M556.4,286.5
				l-5.5-16.2c-0.4-1.1-1-2.8-1.7-5.1c-0.7-2.3-1.2-4-1.5-5.1c-0.7,3.3-1.8,7-3.2,11l-5.3,15.5H556.4z"/>
			<path id="XMLID_60_" class="st0" d="M606.5,279.2H628v29.9c-3.5,1.2-6.9,2-10.1,2.5s-6.7,0.7-10.5,0.7c-8.8,0-15.7-2.7-20.5-8
				c-4.8-5.3-7.2-12.9-7.2-22.6c0-9.6,2.7-17.1,8.1-22.5c5.4-5.4,12.8-8.1,22.3-8.1c6.1,0,11.9,1.2,17.3,3.6l-3.4,8.1
				c-4.7-2.2-9.5-3.3-14.2-3.3c-6.2,0-11.2,2-14.8,6c-3.6,4-5.4,9.5-5.4,16.4c0,7.3,1.6,12.8,4.9,16.6c3.3,3.8,8,5.7,14.1,5.7
				c3.1,0,6.4-0.4,9.9-1.2v-15.4h-12.1V279.2z"/>
			<path id="XMLID_58_" class="st0" d="M675,311.5h-33v-59.6h33v8.2h-23.5v16.2h22v8.2h-22v18.7H675V311.5z"/>
			<path id="XMLID_54_" class="st0" d="M705,295.7c0-3.6,0.9-6.7,2.6-9.3c1.7-2.6,4.8-5.3,9.2-7.9c-2.5-3-4.3-5.6-5.2-7.6
				c-0.9-2.1-1.4-4.2-1.4-6.5c0-4.1,1.4-7.4,4.3-9.8c2.9-2.4,6.8-3.6,11.6-3.6c4.7,0,8.4,1.2,11.1,3.5c2.7,2.3,4,5.5,4,9.4
				c0,3.1-0.9,5.9-2.7,8.4c-1.8,2.5-4.8,5.1-9,7.6l13.8,13.6c2.2-2.9,4-7.2,5.4-12.8h9.7c-1.9,7.7-4.8,14-8.9,18.9l12,11.9h-12.1
				l-6-5.9c-2.7,2.2-5.6,3.9-8.7,5c-3.1,1.1-6.5,1.7-10.2,1.7c-6.1,0-10.9-1.5-14.4-4.4C706.8,304.9,705,300.9,705,295.7z
				 M725.2,304.1c4.9,0,9-1.5,12.5-4.4l-15.3-15.4c-2.8,1.8-4.8,3.6-5.8,5.2c-1.1,1.6-1.6,3.5-1.6,5.5c0,2.7,0.9,4.8,2.8,6.5
				C719.6,303.2,722.1,304.1,725.2,304.1z M719.2,264.7c0,1.7,0.4,3.3,1.3,4.9c0.9,1.5,2.1,3.1,3.7,4.8c3-1.7,5.1-3.4,6.3-4.9
				c1.2-1.5,1.8-3.2,1.8-5.1c0-1.8-0.6-3.2-1.7-4.2c-1.2-1.1-2.7-1.6-4.6-1.6c-2.1,0-3.8,0.6-5,1.7
				C719.8,261.4,719.2,262.9,719.2,264.7z"/>
			<path id="XMLID_51_" class="st0" d="M838.2,281.1c0,9.8-2.7,17.4-8,22.6c-5.4,5.2-13.1,7.8-23.1,7.8h-16.3v-59.6h18.1
				c9.3,0,16.5,2.6,21.7,7.7C835.6,264.7,838.2,271.9,838.2,281.1z M828.2,281.5c0-14.3-6.5-21.4-19.6-21.4h-8.3v43.2h6.8
				C821.1,303.3,828.2,296,828.2,281.5z"/>
			<path id="XMLID_48_" class="st0" d="M887,311.5l-5.8-16.5h-22.3l-5.7,16.5h-10.1l21.9-59.8h10.4l21.9,59.8H887z M878.6,286.5
				l-5.5-16.2c-0.4-1.1-1-2.8-1.7-5.1c-0.7-2.3-1.2-4-1.5-5.1c-0.7,3.3-1.8,7-3.2,11l-5.3,15.5H878.6z"/>
			<path id="XMLID_46_" class="st0" d="M925,311.5h-9.5v-51.2h-17.2v-8.4h43.9v8.4H925V311.5z"/>
			<path id="XMLID_43_" class="st0" d="M987.4,311.5l-5.8-16.5h-22.3l-5.7,16.5h-10.1l21.9-59.8h10.4l21.9,59.8H987.4z M979,286.5
				l-5.5-16.2c-0.4-1.1-1-2.8-1.7-5.1c-0.7-2.3-1.2-4-1.5-5.1c-0.7,3.3-1.8,7-3.2,11l-5.3,15.5H979z"/>
		</g>
		<g id="XMLID_23_">
			<path id="XMLID_39_" class="st0" d="M469,400.4l-7.1-18h-22.7l-7,18h-6.7l22.4-57h5.5l22.3,57H469z M459.9,376.4l-6.6-17.6
				c-0.9-2.2-1.7-5-2.6-8.2c-0.6,2.5-1.4,5.2-2.4,8.2l-6.7,17.6H459.9z"/>
			<path id="XMLID_37_" class="st0" d="M559.8,400.4h-7.5l-31-47.6h-0.3c0.4,5.6,0.6,10.7,0.6,15.4v32.2h-6.1v-56.7h7.5l30.9,47.4
				h0.3c-0.1-0.7-0.2-2.9-0.4-6.7c-0.2-3.8-0.2-6.5-0.2-8.1v-32.6h6.2V400.4z"/>
			<path id="XMLID_34_" class="st0" d="M642.8,400.4l-7.1-18H613l-7,18h-6.7l22.4-57h5.5l22.3,57H642.8z M633.7,376.4l-6.6-17.6
				c-0.9-2.2-1.7-5-2.6-8.2c-0.6,2.5-1.4,5.2-2.4,8.2l-6.7,17.6H633.7z"/>
			<path id="XMLID_32_" class="st0" d="M689.3,400.4v-56.7h6.6v50.8h25v6H689.3z"/>
			<path id="XMLID_30_" class="st0" d="M776.7,372.1l15.1-28.4h7.1l-18.9,34.7v22h-6.7v-21.7l-18.9-35h7.2L776.7,372.1z"/>
			<path id="XMLID_28_" class="st0" d="M870.6,385.3c0,5-1.8,8.9-5.4,11.7c-3.6,2.8-8.5,4.2-14.7,4.2c-6.7,0-11.9-0.9-15.5-2.6v-6.4
				c2.3,1,4.9,1.8,7.6,2.3c2.7,0.6,5.5,0.9,8.2,0.9c4.4,0,7.7-0.8,9.9-2.5c2.2-1.7,3.3-4,3.3-7c0-2-0.4-3.6-1.2-4.8
				c-0.8-1.3-2.1-2.4-4-3.5c-1.9-1.1-4.7-2.3-8.4-3.6c-5.3-1.9-9-4.1-11.3-6.7c-2.3-2.6-3.4-6-3.4-10.1c0-4.4,1.6-7.9,4.9-10.4
				c3.3-2.6,7.6-3.9,13-3.9c5.6,0,10.8,1,15.6,3.1l-2.1,5.7c-4.7-2-9.2-3-13.7-3c-3.5,0-6.2,0.8-8.2,2.3c-2,1.5-3,3.6-3,6.2
				c0,2,0.4,3.6,1.1,4.8s1.9,2.4,3.7,3.5c1.7,1,4.4,2.2,7.9,3.5c6,2.1,10,4.4,12.3,6.8C869.5,378.3,870.6,381.4,870.6,385.3z"/>
			<path id="XMLID_26_" class="st0" d="M914,400.4v-56.7h6.6v56.7H914z"/>
			<path id="XMLID_24_" class="st0" d="M1000,385.3c0,5-1.8,8.9-5.4,11.7c-3.6,2.8-8.5,4.2-14.7,4.2c-6.7,0-11.9-0.9-15.5-2.6v-6.4
				c2.3,1,4.9,1.8,7.6,2.3c2.7,0.6,5.5,0.9,8.2,0.9c4.4,0,7.7-0.8,9.9-2.5c2.2-1.7,3.3-4,3.3-7c0-2-0.4-3.6-1.2-4.8
				c-0.8-1.3-2.1-2.4-4-3.5c-1.8-1.1-4.7-2.3-8.4-3.6c-5.3-1.9-9-4.1-11.3-6.7c-2.3-2.6-3.4-6-3.4-10.1c0-4.4,1.6-7.9,4.9-10.4
				c3.3-2.6,7.6-3.9,13-3.9c5.6,0,10.8,1,15.6,3.1l-2.1,5.7c-4.7-2-9.2-3-13.7-3c-3.5,0-6.2,0.8-8.2,2.3c-2,1.5-3,3.6-3,6.2
				c0,2,0.4,3.6,1.1,4.8s1.9,2.4,3.7,3.5c1.7,1,4.4,2.2,7.9,3.5c5.9,2.1,10,4.4,12.3,6.8C998.8,378.3,1000,381.4,1000,385.3z"/>
		</g>
		<g id="XMLID_14_">
			<path id="XMLID_21_" class="st0" d="M429.9,220.3V59.5h43.7v160.8H429.9z"/>
			<path id="XMLID_18_" class="st0" d="M734.9,136.4c0,26.8-7.4,47.5-22.2,62c-14.8,14.5-35.5,21.8-62.3,21.8h-52V59.5h55.6
				c25.8,0,45.7,6.6,59.8,19.8C727.9,92.5,734.9,111.5,734.9,136.4z M689.8,138c0-14.7-2.9-25.7-8.7-32.8
				c-5.8-7.1-14.7-10.7-26.6-10.7h-12.6v90.1h9.7c13.2,0,22.9-3.8,29-11.5C686.8,165.5,689.8,153.8,689.8,138z"/>
			<path id="XMLID_15_" class="st0" d="M952.5,220.3l-7.9-30.1h-52.2l-8.1,30.1h-47.7l52.5-161.4h58l53.1,161.4H952.5z M935.6,154.5
				l-6.9-26.4c-1.6-5.9-3.6-13.5-5.9-22.8c-2.3-9.3-3.8-16-4.6-20c-0.7,3.7-2,9.9-3.9,18.5c-1.9,8.6-6.3,25.5-12.9,50.7H935.6z"/>
		</g>
	</g>
</g>
</svg>
