<?xml version="1.0" encoding="utf-8"?>
<!-- Generator: Adobe Illustrator 16.0.0, SVG Export Plug-In . SVG Version: 6.00 Build 0)  -->
<!DOCTYPE svg PUBLIC "-//W3C//DTD SVG 1.1//EN" "http://www.w3.org/Graphics/SVG/1.1/DTD/svg11.dtd">
<svg version="1.1" id="Calque_1" xmlns="http://www.w3.org/2000/svg" xmlns:xlink="http://www.w3.org/1999/xlink" x="0px" y="0px"
	 width="1000px" height="506.781px" viewBox="0 247.086 1000 506.781" enable-background="new 0 247.086 1000 506.781"
	 xml:space="preserve">
<path fill="#020202" d="M60.299,729.662c1.416-11.416,5.623-16.763,17.704-16.265c23.306,0.961,46.684,0.49,70.027,0.237
	c39.689-0.424,68.166-19.78,84.42-54.934c17.123-37.028,31.729-75.224,47.211-112.997c4.675-11.412,1.118-16.577-11.228-16.665
	c-25.108-0.183-50.226-0.508-75.323,0.042c-35.188,0.77-75.752,38.984-79.159,73.832c-1.937,19.767,11.913,36.612,32.039,37.258
	c22.81,0.736,45.661,0.171,69.214,0.171c-1.869,11.292-5.303,17.362-17.639,16.701c-20.645-1.104-41.391-0.225-62.093-0.303
	c-33.181-0.126-52.762-24.785-45.517-57.201c10.384-46.443,60.854-86.875,108.57-86.93c30.394-0.033,60.787-0.081,91.183,0.019
	c18.075,0.061,23.907,8.445,17.088,25.207c-16.365,40.232-31.606,81.009-49.994,120.309c-21.227,45.363-57.187,71.28-108.955,71.495
	C118.864,729.764,89.882,729.662,60.299,729.662z"/>
<path fill="#6CBBBA" d="M533.676,743.634c75.736-38.865,122.266-105.306,165.428-174.986c25.771-41.61,43.599-87.38,68.423-129.498
	c29.629-50.27,62.633-97.86,105.917-137.527c30.353-27.817,63.879-49.767,106.105-54.456c6.262-0.695,12.664-0.097,20.451-0.097
	c-58.773,11.013-99.421,47.362-135.97,89.375c-43.636,50.153-77.018,106.912-105.749,166.652
	c-31.233,64.948-68.822,125.822-118.307,178.729c-22.102,23.629-46.825,44.013-76.148,58.142c-7.777,3.75-16.324,5.907-24.519,8.795
	c-2.756,1.379-5.9,2.118-7.976-0.404C529.734,746.413,531.677,744.641,533.676,743.634z"/>
<path fill="#020202" d="M509.246,512.603c-1.405,13.688-7.743,17.436-19.531,16.646c-16.229-1.085-32.584-0.236-48.885-0.251
	c-35.092-0.028-72.464,27.446-82.524,61.229c-9.094,30.55,6.496,51.438,35.918,50.563c21.567-0.641,43.171-0.046,64.757-0.124
	c18.201-0.067,24.629-4.607,31.736-21.825c23.109-55.993,46.234-111.976,69.377-167.951c4.146-10.027,13.911-14.729,23.67-11.023
	c7.622,2.893,1.617,7.369,0.336,10.521c-16.86,41.511-33.979,82.917-51.055,124.339c-7.688,18.654-15.262,37.357-23.188,55.913
	c-7.209,16.876-19.321,26.446-38.616,26.211c-31.273-0.382-62.559-0.041-93.837-0.112c-34.691-0.083-54.123-25.091-45.94-58.983
	c10.926-45.262,60.926-84.971,107.313-85.139C462.082,512.533,485.391,512.603,509.246,512.603z"/>
<path fill="#6BBCBA" d="M556.674,246.133c-55.604,13.612-94.876,49.917-130.234,91.03c-40.947,47.603-73.429,100.966-100.197,157.63
	c-5.94,12.573-15.063,10.832-23.928,9.354c-7.744-1.293-1.719-7.512-0.372-10.261c14.299-29.238,29.986-57.769,47.574-85.152
	c30.058-46.799,63.196-91.144,108.005-125.159c25.13-19.076,52.412-33.899,84.786-36.49
	C547.091,246.702,551.885,246.446,556.674,246.133z"/>
<path fill="#6BBCBA" d="M595.355,247.108c44.633-2.059,77.101,19.679,102.029,54.436c28.712,40.031,43.956,85.934,54.365,133.422
	c2.924,13.356-9.753,22.563-15.445,36.885c-6.287-25.406-11.058-48.176-17.609-70.421c-12.496-42.44-28.608-83.174-59.492-116.399
	C641.605,266.099,620.694,253.292,595.355,247.108z"/>
<path fill="#6ABCBA" d="M863.928,746.175c-25.154-8.699-43.381-26.229-58.669-47.056c-30.592-41.673-45.594-89.88-56.944-139.437
	c-3.467-15.131,9.938-24.49,16.477-37.506c3.301,15.441,6.266,30.963,9.96,46.31c11.917,49.493,27.844,97.353,60.422,137.721
	c9.882,12.243,20.498,24.047,34.355,32.214C872.02,744.15,869.78,746.47,863.928,746.175z"/>
<path fill="#030303" d="M547.618,655.391c17.202-41.113,33.778-82.189,51.674-122.684c5.843-13.221,18.008-20.111,33.113-20.134
	c14.948-0.021,29.898-0.005,45.289-0.005c-0.992,12.417-6.051,18.712-18.811,16.46c-3.414-0.604-7.03-0.053-10.554-0.047
	c-19.862,0.031-25.511,3.685-32.994,21.688c-12.3,29.605-24.559,59.231-36.775,88.873
	C570.658,658.723,570.71,658.743,547.618,655.391z"/>
<path fill="#030303" d="M76.474,511.999C61.622,548.237,47.57,582.65,33.406,617.017c-7.914,19.201-6.793,21.539,13.395,24.97
	c-3.063,5.063-1.544,14.079-9.063,14.272c-11.063,0.284-23.264,4.442-33.159-3.588c-5.678-4.604-5.45-11.532-2.691-18.202
	c15.913-38.489,31.617-77.065,47.766-115.456C55.172,505.894,66.545,515.569,76.474,511.999z"/>
<path fill="#0F0F0F" d="M72.206,464.658c2.609-6.567,4.285-10.995,6.117-15.36c3.507-8.355,15.856-13.074,24.228-9.646
	c2.847,1.167,2.456,2.839,2.139,5.047c-2.005,13.909-9.068,20.083-22.954,19.964C79.188,464.64,76.642,464.658,72.206,464.658z"/>
<path fill="#85BAB8" d="M863.928,746.175c3.368-1.503,5.563-3.849,5.601-7.756c6.704,3.021,13.261,6.457,20.156,8.939
	c6.38,2.293,13.121,3.565,22.219,5.947C893.521,754.88,878.294,753.34,863.928,746.175z"/>
<path fill="#92BAB6" d="M533.676,743.634c-2.979,7.046,3.161,4.065,5.631,5.127c-12.823,4.76-26.008,6.341-39.754,3.908
	C511.54,751.78,521.985,745.493,533.676,743.634z"/>
</svg>
