<?xml version="1.0" encoding="utf-8"?>
<!-- Generator: Adobe Illustrator 16.0.0, SVG Export Plug-In . SVG Version: 6.00 Build 0)  -->
<!DOCTYPE svg PUBLIC "-//W3C//DTD SVG 1.1//EN" "http://www.w3.org/Graphics/SVG/1.1/DTD/svg11.dtd">
<svg version="1.1" id="Calque_1" xmlns="http://www.w3.org/2000/svg" xmlns:xlink="http://www.w3.org/1999/xlink" x="0px" y="0px"
	 width="1000px" height="696.286px" viewBox="0 151.857 1000 696.286" enable-background="new 0 151.857 1000 696.286"
	 xml:space="preserve">
<path fill="#0079B4" d="M459.021,238.959c40.614,11.813,73.955,34.508,99.881,67.796c77.921,100.052,37.681,244.964-81.071,292.288
	c-8.021,3.196-16.312,5.714-24.448,8.621c-1.455,0.521-2.635,0.831-3.817-0.528c-1.559-1.787,0.329-2.409,1.048-3.395
	c34.778-47.644,26.734-93.57-21.98-125.549c-0.448-0.296-0.705-0.879-1.552-1.978c7.806-5.393,15.883-10.546,21.761-18.174
	c21.527-27.935,15.305-63.687-14.893-84.194c-13.232-8.986-27.911-14.533-44.039-14.806c-26.451-0.445-52.913-0.255-79.364-0.671
	c-4.974-0.078-5.818,1.929-5.75,6.1c0.169,10.464,0.09,20.933,0.091,31.399c0.006,147.123,0.015,294.247-0.031,441.369
	c-0.001,2.813,0.912,5.817-0.974,8.444c-2.21-7.362-0.871-14.886-0.873-22.329c-0.05-152.311-0.037-304.624-0.063-456.935
	c-0.025,152.396-0.038,304.793,0.03,457.191c0.002,4.346-0.875,8.653-0.229,13.023c1.018,6.911-2.438,9.362-9.018,9.329
	c-20.346-0.101-40.693-0.038-61.04-0.036c-16.568,0.002-33.138-0.094-49.704,0.041c-6.933,0.057-10.344-2.771-10.012-9.848
	c0.123-2.608,0.001-5.231,0.001-7.848c0-194.168,0-388.337,0-582.503c0-2.326,0.117-4.657-0.009-6.975
	c-0.343-6.334,1.701-9.477,8.922-9.451c49.39,0.181,98.78-0.875,148.168,0.617c17.138,0.518,34.297,0.064,51.446,0.119
	c23.556,0.075,46.906,2,69.795,7.937C453.841,238.677,456.39,239.108,459.021,238.959z"/>
<path fill="#007AB4" d="M0.588,275.578c0-9.953,0-19.907,0-30.415c39.522,50.035,99.449,41.808,131.112,5.638
	c2.22,4.898,1.35,9.608,0.819,14.287c-2.908,5.627-0.562,11.433-0.564,17.153c-0.02,106.669-0.001,213.335-0.042,320.006
	c-0.001,4.324-0.483,8.604-0.101,12.984c0.795,9.137-0.861,10.812-10,10.837c-31.971,0.089-63.943,0.032-95.915,0.033
	c-5.231,0-10.463-0.003-15.694-0.033c-5.324-0.03-8.185-2.563-8.125-7.953c0.077-6.976-1.007-13.872-1-20.864
	C1.175,493.198,1.15,389.147,1.12,285.095C1.119,281.923,1.636,278.699,0.588,275.578z"/>
<path fill="#FABA02" d="M391.383,501.963c27.017,0.107,48.443,21.326,48.168,47.698c-0.275,26.497-21.933,48.159-48.143,48.155
	c-25.856-0.005-47.753-21.938-47.6-47.679C343.972,522.856,364.708,501.857,391.383,501.963z"/>
<path fill="#FABA02" d="M68.343,151.858c25.758-0.048,48.204,21.924,48.341,47.322c0.147,27.132-21.27,48.783-48.332,48.857
	c-26.176,0.071-46.974-21.417-47.736-47.598C19.852,174.11,43.723,151.716,68.343,151.858z"/>
<path fill="#0B699F" d="M459.021,238.959c-2.57,2.782-5.252,1.011-8.031,0.35c-20.601-4.897-41.457-7.433-62.678-7.574
	c-65.348-0.435-130.681-2.54-196.042-1.692c-17.521,0.228-17.551,0.043-17.551,17.009c-0.006,195.092-0.003,390.186,0.002,585.277
	c0,11.833,0.021,11.859,11.373,11.863c35.181,0.016,70.362-0.063,105.542,0.063c7.147,0.025,9.519-0.687,9.758-10.051
	c1.779-68.866,0.278-137.724,0.583-206.579c0.383-86.06,0.078-172.123,0.125-258.183c0.001-2.821-0.782-5.784,1.776-10.312
	c0,163.413,0,324.985,0.001,486.557c-2.507,3.593-5.896,1.526-8.986,1.396c-37.099-0.483-74.197-0.534-111.295,0.023
	c-11.924,1.066-11.919,1.066-11.919-10.017c0.001-198.754,0.001-397.505,0.002-596.26c0-2.324,0.215-4.669-0.017-6.969
	c-0.514-5.103,1.914-6.376,6.649-6.355c41.842,0.187,83.685,0.183,125.526,0.254c27.022,0.046,54.063-0.478,81.062,0.359
	C409.94,228.899,435.104,230.003,459.021,238.959z"/>
<path fill="#F8BB05" d="M930.339,614.686c0.151,13.496-10.891,24.766-24.044,24.541c-12.521-0.213-24.275-11.798-24.343-23.989
	c-0.07-12.874,11.418-24.158,24.662-24.222C919.718,590.95,930.188,601.398,930.339,614.686z"/>
<path fill="#0E6A99" d="M0.588,275.578c2.516,3.076,1.332,6.716,1.333,10.079c0.069,104.011,0.02,208.024,0.135,312.037
	c0.008,7.187,1.124,14.376,1.759,21.562c0.365,4.135,3.152,5.104,6.728,5.104c38.061-0.017,76.12-0.027,114.181,0
	c5,0.003,7.306-2.925,6.218-7.214c-2.06-8.13,0.29-16.036,0.273-24.04c-0.204-100.816-0.127-201.632-0.153-302.448
	c-0.001-5.193,0.24-10.345-1.293-15.527c-1.021-3.453-1.529-7.632,2.749-10.041c0.138,4.054,0.396,8.108,0.397,12.163
	c0.038,113.353-0.024,226.705,0.227,340.058c0.017,7.75-1.593,10.445-9.97,10.342c-38.359-0.478-76.729-0.302-115.092-0.088
	c-5.781,0.029-8.09-1.152-8.08-7.623c0.178-113.353,0.104-226.704,0.108-340.058C0.108,278.447,0.421,277.012,0.588,275.578z"/>
<path fill="#1D77A9" d="M759.302,727.457c3.378,0.446,4.952-2.249,7.422-2.992c8.748-2.634,16.498,1.762,17.127,10.678
	c0.612,8.677,0.204,17.426,0.183,26.142c-0.005,2.02,0.02,4.357-2.881,4.402c-3.328,0.05-3.438-2.494-3.464-4.887
	c-0.072-6.683,0.056-13.371-0.183-20.047c-0.181-5.104-0.731-10.236-7.845-10.117c-6.479,0.107-9.55,4.104-10.062,9.868
	c-0.563,6.349-0.203,12.775-0.378,19.164c-0.064,2.413,0.933,5.784-3.104,5.938c-4.74,0.18-3.609-3.624-3.627-6.281
	c-0.102-14.53-0.104-29.061-0.077-43.591c0.004-2.48-0.735-5.678,3.233-5.885c4.042-0.207,3.577,2.965,3.632,5.504
	C759.364,719.385,759.302,723.422,759.302,727.457z"/>
<path fill="#1B75A2" d="M428.715,725.048c5.218-0.225,9.877,1.151,13.014,5.518c1.37,1.904,4.03,4.505,1.437,6.737
	c-2.192,1.888-4.687,0.663-6.475-1.98c-3.268-4.83-7.988-5.214-13.123-3.491c-2.025,0.68-3.763,1.849-3.852,4.166
	c-0.086,2.226,1.175,3.961,3.275,4.631c4.403,1.4,8.901,2.508,13.323,3.86c4.961,1.521,9.008,3.778,9.209,9.964
	c0.208,6.431-2.828,10.458-8.486,12.724c-8.826,3.537-19.79,1.033-23.544-5.396c-1.242-2.126-3.571-4.981-0.92-6.96
	c2.711-2.022,5.253-0.705,6.503,2.856c0.93,2.651,3.437,3.946,6.113,4.321c4.968,0.693,10.934,1.428,12.684-4.399
	c2.059-6.86-4.757-6.383-8.77-7.857c-1.352-0.497-2.782-0.79-4.188-1.134c-6.754-1.658-13.39-3.66-12.599-12.593
	C412.92,729.201,419.553,724.996,428.715,725.048z"/>
<path fill="#1D78AA" d="M546.675,746.45c0,4.068,0.049,8.14-0.013,12.206c-0.074,4.948,1.15,11.422-7.528,6.198
	c-2.087-1.258-3.539,1.382-5.352,2.064c-10.491,3.949-18.867-1.055-19.572-12.247c-0.51-8.097-0.159-16.247-0.292-24.374
	c-0.044-2.723,0.612-4.58,3.787-4.495c3.086,0.082,3.825,1.995,3.82,4.648c-0.013,7.265,0.104,14.533,0.03,21.798
	c-0.05,4.919,1.4,8.932,6.841,9.385c5.221,0.434,8.908-2.201,10.275-7.477c1.854-7.154,0.813-14.462,1.074-21.699
	c0.097-2.693-1.025-6.473,3.545-6.469c4.695,0.005,3.269,3.951,3.395,6.513c0.228,4.642,0.064,9.298,0.064,13.947
	C546.726,746.45,546.7,746.45,546.675,746.45z"/>
<path fill="#1C73A4" d="M844.48,767.401c-5.92,0.302-10.992-1.349-14.011-6.793c-1.183-2.136-3.161-5.146-0.355-6.969
	c2.727-1.772,4.489,0.589,5.972,3.112c3.263,5.56,8.344,5.495,13.702,3.665c2.646-0.904,4.707-2.599,4.526-5.646
	c-0.154-2.624-2.123-4.023-4.479-4.735c-4.159-1.258-8.438-2.167-12.497-3.68c-4.262-1.581-7.712-4.263-7.753-9.42
	c-0.042-5.462,2.542-9.37,7.461-11.715c7.519-3.585,18.411-0.474,21.374,6.142c0.686,1.525,1.864,3.33,0.184,4.771
	c-1.86,1.598-3.735,0.932-5.278-0.82c-1.14-1.289-2.074-3.022-3.511-3.733c-3.466-1.716-7.221-2.267-10.82-0.216
	c-1.535,0.872-2.881,2.234-2.462,4.208c0.89,4.183,4.688,4.694,7.896,5.866c1.085,0.396,2.239,0.604,3.361,0.9
	c11.334,2.984,13.954,5.837,12.801,13.943C859.564,763.495,853.88,767.421,844.48,767.401z"/>
<path fill="#1873A7" d="M807.186,756.194c4.579-8.531,6.005-16.833,8.804-24.616c1.142-3.174,1.358-7.878,6.269-6.292
	c4.862,1.57,1.279,5.476,0.497,7.783c-4.651,13.726-9.699,27.313-14.729,40.908c-1.682,4.54-4.277,8.297-9.763,8.685
	c-2.146,0.153-4.251,0.038-4.717-2.593c-0.41-2.32,0.527-3.381,3.134-4.031c7.539-1.881,7.759-7.543,5.823-13.572
	c-3.368-10.488-7.11-20.856-10.488-31.346c-0.578-1.796-3.228-4.509,0.471-5.756c3.308-1.117,5.312,0.653,6.318,4.057
	C801.338,737.976,804.117,746.457,807.186,756.194z"/>
<path fill="#1775A6" d="M370.045,746.228c0-5.519,0.044-11.034-0.018-16.554c-0.034-3.056,2.75-5.237,4.083-3.558
	c4.208,5.306,7.176,0.861,10.678-0.293c9.866-3.255,17.815,1.563,18.599,11.88c0.613,8.083,0.194,16.244,0.201,24.371
	c0.003,2.392-0.021,4.767-3.501,4.692c-3.144-0.065-3.806-1.905-3.78-4.57c0.064-6.68,0.004-13.358,0.062-20.039
	c0.046-5.425-1.189-10.316-7.559-10.688c-6.404-0.373-10.64,3.457-11.363,9.661c-0.771,6.6-0.395,13.333-0.498,20.009
	c-0.042,2.652,0.196,5.621-3.628,5.628c-4.127,0.008-3.229-3.292-3.276-5.729c-0.095-4.937-0.029-9.873-0.029-14.81
	C370.025,746.228,370.036,746.228,370.045,746.228z"/>
<path fill="#2175A8" d="M956.195,745.827c0,3.479,0.479,7.043-0.128,10.41c-0.679,3.765,3.793,13.938-7.491,7.033
	c-0.842-0.515-3.312,1.976-5.164,2.712c-9.318,3.701-17.276-0.919-17.938-10.914c-0.554-8.369-0.172-16.801-0.198-25.202
	c-0.01-2.457,0.162-4.749,3.535-4.731c3.422,0.018,3.401,2.455,3.422,4.806c0.063,7.243,0.017,14.489,0.119,21.733
	c0.063,4.362,1.141,8.238,6.391,8.758c5.158,0.512,8.159-2.304,9.568-7.001c2.215-7.382,0.74-14.98,1.222-22.468
	c0.153-2.421-0.757-5.815,3.3-5.753c3.915,0.063,3.246,3.366,3.297,5.839c0.104,4.924,0.03,9.852,0.03,14.778
	C956.172,745.827,956.184,745.827,956.195,745.827z"/>
<path fill="#1E74A1" d="M671.766,847.319c-6.213,0.065-11.642-1.397-14.086-7.897c-0.642-1.705-2.362-4.014,0.094-5.428
	c2.353-1.356,4.166-0.494,5.386,2.31c2.479,5.69,7.619,5.61,12.63,4.818c2.705-0.428,4.871-2.32,5.235-5.196
	c0.403-3.195-1.967-4.635-4.603-5.446c-3.879-1.197-7.87-2.059-11.701-3.386c-4.073-1.413-7.042-3.902-7.178-8.768
	c-0.146-5.202,1.899-8.913,6.648-11.17c7.648-3.638,17.85-1.177,20.821,5.106c0.883,1.864,1.923,3.99-0.393,5.363
	c-1.626,0.965-3.34,0.167-4.554-1.407c-0.877-1.135-1.672-2.486-2.833-3.224c-3.121-1.979-6.49-2.297-9.958-0.707
	c-2.099,0.963-3.445,2.67-2.932,4.793c0.885,3.649,4.181,4.462,7.378,5.166c1.131,0.249,2.218,0.702,3.349,0.957
	c6.884,1.546,13.265,3.645,12.479,12.654C686.899,843.334,681.239,847.365,671.766,847.319z"/>
<path fill="#2079A6" d="M539.627,826.272c-0.01-5.227-0.017-10.451-0.007-15.676c0.004-2.214,1.709-5.292,3.012-3.997
	c4.863,4.83,8.365-0.252,12.368-0.861c8.482-1.295,14.004,2.063,14.789,10.534c0.773,8.351,0.379,16.812,0.451,25.223
	c0.021,2.663-0.953,4.578-4.057,4.303c-3.043-0.271-2.504-2.729-2.527-4.616c-0.083-6.386-0.081-12.771-0.004-19.157
	c0.063-5.14-1.216-9.821-7.081-10.093c-6.076-0.28-9.72,3.578-10.093,9.653c-0.373,6.074-0.1,12.188-0.222,18.28
	c-0.05,2.445,0.835,5.716-3.161,5.912c-4.158,0.204-3.38-3.113-3.431-5.571C539.569,835.563,539.638,830.917,539.627,826.272z"/>
<path fill="#1E74A3" d="M579.369,826.255c-0.001-3.189-0.513-6.489,0.129-9.546c0.798-3.805-4.225-14.126,7.549-7.667
	c1.023,0.563,3.445-1.639,5.301-2.339c9.137-3.445,16.527,0.967,17.146,10.663c0.498,7.806,0.273,15.656,0.294,23.486
	c0.005,2.313,0.115,5.017-3.331,4.897c-3.43-0.117-3.026-2.84-3.04-5.116c-0.038-6.093-0.043-12.186-0.029-18.275
	c0.014-5.411-1.283-10.539-7.655-10.458c-5.923,0.076-9.338,3.986-9.423,10.295c-0.084,6.086-0.306,12.17-0.522,18.252
	c-0.081,2.249,0.313,5.073-2.999,5.277c-4.227,0.26-3.315-3.142-3.38-5.547C579.282,835.541,579.37,830.896,579.369,826.255z"/>
<path fill="#227CA9" d="M567.951,767.593c-5.362,0.146-8.157-2.469-8.232-7.817c-0.098-6.967-0.083-13.932-0.144-20.896
	c-0.026-3.106,0.755-6.546-3.728-7.614c-1.522-0.362-2.427-3.099-1.634-3.244c7.774-1.452,2.174-11.746,9.013-13.354
	c2.5-0.588,3.75,1.268,3.602,3.663c-0.251,4.029-0.126,7.272,5.221,8.088c1.986,0.301,2.37,4.179-0.003,4.647
	c-7.127,1.41-4.896,6.645-5.086,10.846c-0.192,4.345,0.003,8.705-0.001,13.059c-0.002,2.65-0.196,5.356,3.255,6.196
	c2.235,0.543,3.804,1.657,2.89,4.271C572.213,767.982,569.891,767.403,567.951,767.593z"/>
<path fill="#0973AC" d="M350.254,739.063c0-7.537,0.059-15.074-0.027-22.608c-0.037-3.278,0.491-5.607,4.605-5.65
	c4.521-0.047,4.257,2.938,4.257,5.879c-0.002,15.073-0.06,30.146-0.026,45.219c0.006,2.924-0.443,5.132-4.065,5.277
	c-4.056,0.167-4.78-2.159-4.742-5.507c0.084-7.537,0.026-15.073,0.026-22.608C350.271,739.063,350.262,739.063,350.254,739.063z"/>
<path fill="#2176A7" d="M454.591,747.725c-1.821-6.413,3.236-14.092-5.489-17.74c-0.294-0.122-0.025-2.986,0.341-3.073
	c4.847-1.16,5.027-4.676,4.84-8.625c-0.115-2.428,1.317-3.629,3.792-3.654c2.751-0.03,3.396,1.615,3.349,3.922
	c-0.074,3.507-0.453,6.861,4.653,7.625c2.132,0.318,2.75,4.21,0.659,4.547c-8.115,1.313-4.714,7.289-5.175,11.517
	c-0.435,4.002-0.152,8.088-0.146,12.135c0.003,2.005-0.271,4.144,1.473,5.663c1.916,1.668,6.35,1.446,4.654,5.771
	c-0.904,2.308-3.338,1.773-5.327,1.819c-4.128,0.093-6.96-2.232-7.461-5.892C454.093,756.922,454.591,751.95,454.591,747.725z"/>
<path fill="#1978AA" d="M494.075,748.042c-1.962-6.258,3.348-13.998-5.167-18.05c-0.321-0.151-0.09-2.825,0.327-2.961
	c4.666-1.515,4.779-5.125,4.622-9.041c-0.081-1.996,0.96-3.261,3.107-3.354c2.396-0.103,4.12,0.817,3.926,3.416
	c-0.328,4.411,0.291,7.692,5.634,8.691c1.663,0.31,1.493,3.75-0.324,4.044c-7.273,1.178-4.947,6.577-5.146,10.785
	c-0.205,4.35-0.118,8.717-0.048,13.074c0.032,1.965-0.388,4.045,1.4,5.681c1.785,1.633,6.804,0.8,4.609,5.504
	c-1.018,2.181-3.474,1.729-5.473,1.693c-3.998-0.07-6.949-2.005-7.36-5.989C493.711,756.945,494.075,752.268,494.075,748.042z"/>
<path fill="#1F79A7" d="M474.826,746.418c0-5.231,0.021-10.466-0.009-15.7c-0.017-2.617,0.649-4.597,3.753-4.702
	c3.376-0.115,3.585,2.167,3.583,4.649c-0.007,10.758-0.013,21.514,0.004,32.271c0.004,2.739-0.917,4.514-4.043,4.26
	c-2.644-0.214-3.259-1.901-3.242-4.205c0.043-5.523,0.015-11.05,0.015-16.572C474.867,746.418,474.846,746.418,474.826,746.418z"/>
<path fill="#277EAD" d="M874.714,745.074c0.007,5.229,0.029,10.461-0.003,15.688c-0.016,2.38-0.084,4.895-3.354,5.019
	c-3.225,0.125-3.676-2.117-3.67-4.675c0.019-10.461,0.028-20.924,0.004-31.385c-0.006-2.643,0.644-4.65,3.813-4.508
	c3.411,0.155,3.186,2.709,3.193,5.038C874.721,735.192,874.706,740.133,874.714,745.074z"/>
<path fill="#0079B4" d="M183.599,847.109c1.715-1.452,3.792-1.167,5.793-1.169c33.234-0.008,66.468-0.008,99.703,0.002
	c1.999,0.002,4.077-0.303,5.8,1.143C257.796,848.106,220.697,848.05,183.599,847.109z"/>
<path fill="#406E8C" d="M870.768,709.813c2.456-0.168,3.752,1.007,3.817,3.447c0.054,1.994,0.267,4.232-2.51,4.594
	c-2.777,0.361-4.29-0.909-4.335-3.834C867.706,711.816,868.085,710.016,870.768,709.813z"/>
<path fill="#4F7C9D" d="M482.216,714.457c0.088,2.569-0.615,4.454-3.706,4.361c-2.348-0.071-3.664-1.115-3.729-3.57
	c-0.065-2.475,0.368-4.495,3.408-4.805C481.241,710.13,482.203,711.785,482.216,714.457z"/>
<path fill="#0079B4" d="M866.521,486.412c-3.192-4.334-4.551-8.173,2.604-11.328c10.45-4.614,18.821-12.348,26.26-21.111
	c23.648-27.862,32.621-60.14,30.431-96.269c-1.414-23.294-8.043-44.171-22.588-62.785c-28.336-36.26-66.313-52.677-111.138-54.665
	c-48.495-2.148-97.045-0.322-145.563-0.985c-7.114-0.097-6.201,3.997-6.196,8.407c0.114,118.865,0.275,237.729,0.111,356.592
	c-0.012,7.28,2.436,8.611,8.901,8.531c24.409-0.298,48.828-0.409,73.232,0.061c7.219,0.138,8.699-2.34,8.657-8.972
	c-0.264-41.848-0.161-83.697-0.116-125.547c0.002-2.747-0.867-5.667,1.455-9.325c35.547,47.083,70.739,93.695,107.451,142.319
	c0.772-4.292,1.067-5.918,1.358-7.545c5.403-30.102,29.15-51.949,59.711-54.466c5.818-0.479,7.265-1.14,3.465-6.687
	C891.773,523.972,879.955,504.653,866.521,486.412z M831.745,374.312c-1.283,21.832-18.841,40.492-41.582,42.055
	c-17.913,1.229-35.972,0.238-53.964,0.441c-5.163,0.058-5.401-2.935-5.374-6.774c0.086-12.192,0.032-24.385,0.024-36.579
	c-0.007-12.483,0.039-24.967-0.033-37.451c-0.021-3.535,0.271-6.293,4.971-6.144c19.964,0.637,40.043-1.636,59.828,3.155
	C818.841,338.644,832.91,354.5,831.745,374.312z"/>
<path fill="#1B72A2" d="M488.204,825.451c-2.635-5.063-1.957-7.788,0.558-12.455c5.157-9.575-1.029-19.958-11.925-20.912
	c-6.627-0.582-13.362,0.133-20.007-0.327c-5.552-0.381-6.92,1.888-6.784,7.035c0.301,11.312-0.395,22.665,0.315,33.938
	c0.272,4.327-3.992,12.553,3.582,12.548c6.561-0.005,3.333-8.105,3.06-12.197c-0.58-8.674,2.698-11.576,10.855-10.231
	c1.416,0.233,2.899,0.13,4.348,0.071c6.44-0.266,9.81,2.668,9.85,9.241c0.015,2.318,0.269,4.638,0.291,6.957
	c0.057,5.505,2.243,8.208,9.165,5.984C487.999,838.667,491.17,831.151,488.204,825.451z M468.053,816.506
	c-10.301,0.041-13.933-5.032-10.763-15.034c0.17-0.538,0.177-1.39,0.53-1.571c5.731-2.951,11.867-1.352,17.814-1.253
	c3.782,0.063,6.301,2.592,7.192,6.468C484.622,812.922,480.049,816.46,468.053,816.506z"/>
<path fill="#1973A6" d="M728.909,709.813c-6.08-0.245-12.189,0.229-18.268-0.03c-4.763-0.203-5.946,1.996-5.814,6.283
	c0.223,7.242,0.062,14.499,0.064,21.75c0.005,7.25-0.057,14.501,0.035,21.751c0.035,2.728-0.84,6.316,3.833,6.167
	c3.938-0.126,3.298-3.189,3.469-5.72c0.369-5.443-2.208-12.104,1.187-16.033c3.58-4.145,10.398-1.104,15.774-1.59
	c9.654-0.872,15.547-6.958,15.483-16.458C744.612,716.495,738.623,710.204,728.909,709.813z M721.246,735.979
	c-8.335,0.559-8.992-3.137-9.369-10.03c-0.483-8.843,3.313-10.614,9.821-9.277c7.818-0.284,14.813-0.322,15.266,9.199
	C737.314,733.243,733.063,735.188,721.246,735.979z"/>
<path fill="#1977A3" d="M915.993,776.727c0.007-15.657-0.022-31.314-0.024-46.973c0-2.469-1.024-6.047-3.334-4.331
	c-4.695,3.487-7.57-0.118-11.242-1.077c-4.879-1.271-9.171,0.325-12.861,3.567c-7.452,6.545-9.301,22.289-3.754,31.521
	c4.873,8.109,11.162,9.479,24.479,4.736c0,4.578-0.079,8.331,0.026,12.079c0.07,2.443-0.749,5.64,3.495,5.477
	C916.202,781.593,915.991,779.037,915.993,776.727z M906.755,756.757c-3.743,5.077-8.656,5.75-13.582,2.117
	c-6.653-4.903-6.004-21.791,0.712-26.532c3.114-2.2,6.604-2.752,9.762-0.833c5.011,3.046,5.775,8.287,5.86,16.057
	C909.548,749.26,909.263,753.353,906.755,756.757z"/>
<path fill="#1B74A1" d="M381.96,794.813c-0.001-2.229-0.58-4.11-3.244-4.185c-3.52-0.099-3.242,2.583-3.278,4.859
	c-0.067,4.018-0.02,8.034-0.02,12.854c-12.602-4.642-19.702-3.302-24.275,3.937c-5.974,9.451-4.875,24.697,2.209,31.622
	c3.336,3.263,7.277,4.343,11.864,4.188c4.813-0.16,8.816-5.361,14.371-1.851c1.408,0.892,2.396-1.899,2.396-3.688
	C381.993,826.637,381.974,810.724,381.96,794.813z M375.729,826.509c-0.052,3.488-0.304,6.953-1.971,10.104
	c-3.27,6.176-10.395,7.466-15.216,2.807c-5.475-5.292-5.587-19.365-0.202-24.86c2.884-2.941,6.259-4.21,10.188-2.484
	C374.871,814.854,375.85,820.437,375.729,826.509z"/>
<path fill="#1E74A1" d="M631.862,713.513c-0.005-1.881-0.621-3.482-2.815-3.658c-2.65-0.212-3.606,1.465-3.642,3.767
	c-0.067,4.563-0.021,9.131-0.021,14.359c-7.084-3.674-13.313-5.782-19.682-1.263c-10.558,7.496-11.207,28.916-1.244,37.271
	c3.622,3.038,7.669,3.781,12.191,3.06c4.041-0.642,7.401-5.517,12.332-1.54c1.185,0.954,2.923-1.339,2.924-3.306
	C631.918,745.974,631.898,729.743,631.862,713.513z M615.027,760.926c-6.641-0.067-10.784-5.999-10.582-15.144
	c0.213-9.544,4.248-15.216,10.779-15.151c6.552,0.064,10.725,6.065,10.604,15.254C625.71,755.378,621.675,760.994,615.027,760.926z"
	/>
<path fill="#1874A2" d="M989.639,725.572c-7.479-3.384-14.886-1.562-20.215,4.979c-5.238,6.431-6.439,20.777-2.349,28.071
	c5.763,10.271,20.378,11.902,28.157,3.059c1.868-2.121,4.805-5.29,2.68-7.45c-3.034-3.091-5.389,0.256-7.376,2.919
	c-1.582,2.117-3.835,3.508-6.617,3.76c-6.733,0.609-11.04-2.932-11.479-9.106c-0.512-7.205,5.821-2.736,8.925-3.883
	c1.273-0.47,2.869-0.078,4.316-0.078c0,0.023,0,0.048,0,0.071c3.189,0,6.38-0.023,9.566,0.009c2.601,0.027,4.258-0.591,4.64-3.743
	C1000.77,736.882,996.423,728.641,989.639,725.572z M982.784,743.146c-3.603-2.423-9.953,2.548-10.245-3.741
	c-0.257-5.559,4.468-9.152,10.536-9.099c5.991,0.054,9.739,4.271,9.268,9.282C991.744,745.958,985.425,740.11,982.784,743.146z"/>
<path fill="#1A75A0" d="M423.226,834.479c-1.802-1.308-3.814-1.014-5.331,0.907c-1.791,2.271-3.422,4.695-6.222,5.927
	c-4.192,1.842-8.061,1.223-11.167-2.021c-2.21-2.307-4.479-5.491-3.184-8.549c1.767-4.171,6.163-1.479,9.355-2.065
	c1.402-0.256,2.892-0.042,4.34-0.042c0-0.021,0-0.041,0-0.063c3.189,0,6.379-0.032,9.567,0.01c3.208,0.045,4.539-1.24,4.604-4.682
	c0.166-8.803-4.965-16.243-13.07-18.249c-8.432-2.084-16.208,1.639-20.132,9.7c-3.813,7.832-3.462,15.86-0.045,23.561
	c2.841,6.4,8.348,9.351,15.43,9.227c6.899-0.121,12.385-2.64,15.617-9.033C423.739,837.617,425.105,835.842,423.226,834.479z
	 M408.225,811.16c5.445,0.007,9.266,3.688,9.059,8.539c-0.313,7.343-6.831,1.804-10.055,4.007c-3.183-2.051-9.476,2.638-9.662-3.462
	C397.396,814.739,402.267,811.153,408.225,811.16z"/>
<path fill="#1E75A0" d="M664.664,757.647c-1.094,1.217-2.705,2.294-4.271,2.689c-3.729,0.949-7.608,1.283-10.397-2.206
	c-1.996-2.498-4.587-5.752-3.021-8.564c1.913-3.431,6.294-1.167,9.568-1.613c1.14-0.156,2.318-0.023,3.479-0.034
	c2.32-0.007,4.683-0.284,6.956,0.045c6.64,0.964,7.937-2.345,7.203-8.065c-1.05-8.207-6.426-14.481-13.943-15.723
	c-7.76-1.277-16.023,3.136-18.941,10.761c-2.763,7.218-3.323,14.643-0.128,22.055c4.694,10.891,18.966,14.012,27.593,5.827
	c2.447-2.322,6.217-5.934,3.823-8.577C669.238,750.543,666.919,755.142,664.664,757.647z M657.168,730.159
	c5.41-0.096,10.128,3.199,9.639,8.844c-0.6,6.923-6.933,1.985-10.503,3.896c-2.805-2.279-9.145,2.883-9.184-3.882
	C647.089,733.598,651.854,730.251,657.168,730.159z"/>
<path fill="#1A77A6" d="M636.091,805.731c-10.75-1.119-19.334,7.979-19.476,20.643c-0.101,9.007,3.942,16.901,10.439,19.57
	c6.763,2.775,13.239,1.76,18.594-3.196c2.302-2.13,6.083-5.392,2.861-8.54c-2.605-2.549-4.643,1.208-6.651,3.304
	c-5.426,5.657-12.618,4.978-15.967-1.271c-2.656-4.958-2.493-8.253,4.577-7.837c5.198,0.305,10.432,0.051,15.647,0.022
	c2.439-0.012,4.376-0.286,4.871-3.522C652.352,815.991,645.277,806.686,636.091,805.731z M634.708,823.779
	c-3.728-1.763-9.456,2.061-9.812-3.666c-0.313-5.019,3.997-8.425,9.2-8.531c5.178-0.105,9.629,2.801,9.524,8.131
	C643.479,827.053,636.829,820.608,634.708,823.779z"/>
<path fill="#1C769E" d="M509.04,828.415c6.075,0.105,12.153-0.02,18.229-0.04c2.44-0.007,4.709-0.12,4.639-3.534
	c-0.16-7.722-2.35-14.353-9.998-17.721c-7.183-3.162-13.6-1.597-18.868,4.113c-3.94,4.268-5.188,9.567-5.058,15.278
	c0.229,8.503,1.936,16.341,11.079,19.677c6.8,2.48,13.256,1.466,18.117-4.274c1.795-2.117,5.758-4.938,2.283-7.864
	c-2.883-2.425-4.876,1.014-6.636,3.386c-2.48,3.344-6.055,4.434-10.035,3.503c-4.046-0.943-6.208-3.793-7.313-7.765
	C504.531,829.765,505.41,828.351,509.04,828.415z M515,811.385c5.255-0.144,9.609,3.228,9.583,8.067
	c-0.042,7.411-6.843,1.757-9.879,4.278c-3.06-2.075-8.87,2.593-9.213-3.135C505.188,815.518,509.331,811.54,515,811.385z"/>
</svg>
