<?xml version="1.0" encoding="utf-8"?>
<!-- Generator: Adobe Illustrator 27.3.1, SVG Export Plug-In . SVG Version: 6.00 Build 0)  -->
<svg version="1.1" id="Calque_1" xmlns="http://www.w3.org/2000/svg" xmlns:xlink="http://www.w3.org/1999/xlink" x="0px" y="0px"
	 viewBox="0 0 256 256" style="enable-background:new 0 0 256 256;" xml:space="preserve">
<style type="text/css">
	.st0{fill:#E05718;}
	.st1{fill:#020203;}
</style>
<path id="path4511" class="st0" d="M57.4,226.1c8.2-2.1,14.5-8,17-15.6c4.1-12.9-2.9-26.2-15.8-30.3c-2.1-0.6-3-0.7-6.9-0.7
	c-4,0-4.7,0.1-7,0.9c-1.4,0.5-3.6,1.5-4.8,2.2c-2.7,1.6-6.9,5.7-8.4,8.3c-3,5.1-4,12-2.6,17.5c2.5,9.8,10,16.7,20,18.2
	C50.7,226.9,55.2,226.7,57.4,226.1L57.4,226.1z M32.1,253.2l-5.1-2.1l0-1.8c0-1,0.1-4.1,0.3-6.9l0.3-5.1l-2.2-1.8
	c-2.2-1.8-4.5-4.1-6.4-6.4l-1-1.2l-6.4,0.4c-5.5,0.3-6.5,0.3-6.9,0c-0.6-0.7-4.1-9.6-3.9-10c0.1-0.2,2.2-2.1,4.8-4.3l4.6-3.9
	l-0.1-6.5l-0.1-6.5l-4.8-4.2c-2.7-2.3-5-4.3-5.2-4.5c-0.3-0.3,3.2-9.5,4-10.3c0.3-0.3,1.6-0.3,6.9,0l6.5,0.4l1-1
	c0.5-0.5,1.8-1.9,2.9-3.1c1.1-1.1,2.8-2.8,3.8-3.7l1.9-1.6l-0.4-7.1c-0.4-6.1-0.4-7.1,0-7.4c1.1-0.7,9.4-3.8,9.9-3.7
	c0.3,0.1,2.5,2.4,4.9,5.3l4.4,5.2l4.4-0.2c2.4-0.1,5.2,0,6.3,0.1c1.1,0.2,2.1,0.2,2.4,0.1c0.3-0.1,2.3-2.4,4.5-5.1
	c2.2-2.6,4.2-4.9,4.4-5c0.4-0.2,9.8,3.4,10.4,3.9c0.1,0.1,0,3.4-0.2,7.2l-0.5,7l3,2.9c1.6,1.6,3.6,3.6,4.4,4.5
	c1.3,1.5,1.5,1.7,2.5,1.5c2.3-0.3,12.7-0.8,13-0.7c0.2,0.1,1.2,2.4,2.3,5.2l2,5l-1.4,1.3c-0.8,0.7-3.2,2.9-5.5,4.7l-4,3.4l-0.1,5.7
	c-0.1,3.1,0,5.8,0.1,6c0.1,0.2,2.3,2.2,5,4.4s4.9,4.2,5,4.4c0.2,0.3-3.5,9.8-4,10.3c-0.1,0.1-3.2,0-6.9-0.2l-6.7-0.4l-4.7,4.7
	l-4.7,4.7l0.4,5.5c0.2,3,0.3,6,0.2,6.7l-0.1,1.3l-4.9,2c-2.7,1.1-5.1,1.9-5.3,1.8c-0.2-0.1-2.2-2.3-4.4-5l-4.1-4.9l-6.1,0.1
	c-4.4,0.1-6.2,0.2-6.5,0.5c-0.2,0.2-2.1,2.4-4.1,4.9s-3.9,4.6-4.1,4.8C37.3,255.2,35.9,254.8,32.1,253.2L32.1,253.2z"/>
<path id="path2987" class="st1" d="M149.4,203.9c-0.3-0.4-1.3-3.2-2.3-6.3s-2-5.8-2.2-6c-0.2-0.2-2-0.6-3.9-0.9
	c-1.9-0.3-4.9-0.9-6.6-1.3s-3.3-0.7-3.5-0.6c-0.2,0.1-2.3,2.4-4.6,5.1c-2.3,2.7-4.3,5-4.4,5.1c-0.4,0.3-10.2-3.8-10.4-4.3
	c-0.1-0.3,0-3.4,0.2-7.1c0.4-6.3,0.4-6.6-0.2-7c-0.3-0.2-2-1.3-3.8-2.4c-1.8-1.1-4.4-2.9-6-4c-1.5-1.1-3-2-3.3-2
	c-0.3,0-2.8,1.2-5.6,2.6c-2.8,1.4-5.3,2.6-5.5,2.6c-0.5,0-7.9-7.4-7.9-7.9c0-0.2,1.2-2.9,2.7-5.8l2.7-5.5l-1.7-2.3
	c-2.1-2.8-5.3-7.7-6.5-9.9l-0.9-1.6l-4.6,0.3c-2.6,0.1-5.6,0.3-6.7,0.3l-2.1,0l-2-4.8c-1.1-2.6-2-5-2-5.2c0-0.2,2-2.1,4.4-4.1
	c2.4-2.1,4.7-4,5-4.3c0.6-0.5,0.6-0.7-0.2-4.2c-0.5-2-1.1-5.1-1.3-6.8c-0.3-1.8-0.6-3.3-0.8-3.5c-0.2-0.2-3.1-1.3-6.5-2.4l-6.1-2.1
	v-5.7v-5.7l6.4-2.1l6.4-2.1l0.7-4c0.4-2.2,1-5.3,1.4-6.9c0.4-1.6,0.7-3.2,0.7-3.4s-2.2-2.3-5-4.6s-4.9-4.4-4.9-4.6
	c0-0.2,0.9-2.5,2-5.2l2-4.8l2.6,0c1.4,0,4.5,0.1,6.8,0.2l4.3,0.2l2.1-3.4c1.1-1.8,2.9-4.6,4-6c1.1-1.5,2.1-2.9,2.4-3.2
	c0.4-0.5,0.1-1.3-2.3-6c-1.5-3-2.7-5.6-2.7-5.9c0-0.5,7.4-7.9,7.9-7.9c0.2,0,2.9,1.2,5.9,2.7c4.7,2.4,5.5,2.7,6,2.3
	c4.6-3.4,7.4-5.3,10-6.8l3.1-1.8l0-1.8c0-1-0.1-3.8-0.3-6.3c-0.3-3.5-0.2-4.5,0.1-4.8c0.6-0.5,9.1-4,9.8-4c0.3,0,2.2,1.9,4.5,4.7
	c4.5,5.3,3.4,4.9,9.6,3.6c2-0.5,4.9-1,6.4-1.2c1.5-0.2,2.9-0.5,3.1-0.7c0.2-0.2,1.2-2.8,2.2-5.7l1.8-5.4l5.6,0.1l5.6,0.1l1.8,5.3
	c1,2.9,1.9,5.4,2,5.7c0.1,0.2,1.1,0.5,2.1,0.6c2.4,0.3,11,2,12.1,2.4c1.1,0.4,1,0.5,5.1-4.4c1.8-2.2,3.5-3.9,3.8-3.9
	c0.2,0,2.6,0.9,5.3,2l4.8,2l0,2.4c0,1.3-0.1,3.9-0.2,5.6c-0.2,2.6-0.1,3.3,0.3,3.7c0.3,0.3,2,1.4,3.9,2.5c1.9,1.1,4.8,3.1,6.6,4.4
	l3.3,2.4L217,29c3-1.5,5.6-2.8,5.8-2.8c0.5,0,7.9,7.4,7.9,7.9c0,0.2-1.2,2.7-2.6,5.5c-1.4,2.8-2.6,5.4-2.6,5.7s0.3,1,0.8,1.5
	c1.2,1.4,5.4,7.7,6.8,10.1l1.3,2.2l5-0.3c2.7-0.1,5.5-0.3,6.2-0.3l1.3,0l2,4.8c1.1,2.6,2,5,2,5.3c0,0.3-2,2.2-4.4,4.3
	c-2.8,2.3-4.5,4-4.5,4.4c0,0.3,0.4,2.1,0.8,3.9c0.4,1.8,1,4.9,1.3,6.8c0.3,2,0.6,3.8,0.8,4c0.1,0.3,2.7,1.3,5.7,2.3l5.4,1.8l0.1,5.7
	l0.1,5.7l-5.6,1.9c-4.7,1.6-5.6,2-5.7,2.6c-0.1,0.4-0.4,2.5-0.8,4.6c-0.4,2.2-0.9,5.1-1.3,6.5c-0.4,1.4-0.6,2.7-0.6,2.9
	c0,0.2,2,2.1,4.5,4.1c2.5,2.1,4.5,3.9,4.5,4.1c0,0.7-4,10.1-4.3,10.2c-0.2,0.1-2.8-0.1-5.8-0.2c-3-0.2-5.6-0.3-5.8-0.2
	c-0.2,0.1-1.3,1.7-2.5,3.7c-1.2,2-3.2,5-4.5,6.8c-1.3,1.8-2.4,3.5-2.4,3.8c0,0.3,1.2,2.8,2.6,5.6s2.6,5.4,2.6,5.7
	c0,0.7-7,7.7-7.8,7.7c-0.3,0-2.9-1.2-5.7-2.6s-5.3-2.6-5.6-2.6c-0.3,0-2.1,1.1-4,2.6c-1.9,1.4-4.8,3.3-6.4,4.2
	c-1.6,0.9-3,1.8-3.2,2.1c-0.3,0.3-0.3,1.9,0,6.6c0.2,3.4,0.3,6.2,0.1,6.3c-0.3,0.2-9.8,4.2-10.1,4.2c-0.1,0-2-2.2-4.2-4.8
	c-2.2-2.6-4.2-4.8-4.4-4.8c-0.2,0-1.8,0.3-3.5,0.8c-1.7,0.4-4.7,1-6.7,1.3c-1.9,0.3-3.7,0.7-3.8,0.8c-0.2,0.2-1.3,3.1-2.4,6.6
	l-2.1,6.3l-5.5,0.1C150,204.6,149.9,204.6,149.4,203.9L149.4,203.9z M166.4,147.5c1.9-0.5,5.7-2,8.5-3.4c11.6-5.7,19.5-15,23.7-27.7
	c1.6-4.8,1.7-5.9,1.8-13.1c0-6.7-0.2-8.7-1.3-12.5c-3.8-13.2-12.7-23.9-24.8-29.5c-7.4-3.5-11.7-4.5-19.9-4.4
	c-7.2,0-11.1,0.8-17.4,3.3c-5.9,2.4-9.7,5-15.3,10.5c-4.8,4.8-5.8,6.1-8.3,11.3c-4,8.1-4.9,12.2-4.9,21c0,5.5,0.3,8,1.2,11.5
	c5,17.6,19.2,30.7,36.9,33.9C150.5,149.1,162.4,148.6,166.4,147.5L166.4,147.5z"/>
</svg>
