<?xml version="1.0" encoding="utf-8"?>
<!-- Generator: Adobe Illustrator 27.5.0, SVG Export Plug-In . SVG Version: 6.00 Build 0)  -->
<svg version="1.1" id="Calque_1" xmlns="http://www.w3.org/2000/svg" xmlns:xlink="http://www.w3.org/1999/xlink" x="0px" y="0px"
	 viewBox="0 0 256 256" style="enable-background:new 0 0 256 256;" xml:space="preserve">
<style type="text/css">
	.st0{fill:#4F4F4F;}
	.st1{fill:#777678;}
	.st2{fill:#EE7729;}
	.st3{fill:#9E9E9E;}
	.st4{fill:#626363;}
	.st5{fill:#4E4E4E;}
	.st6{fill:#767677;}
	.st7{fill:#F37726;}
	.st8{fill:#616262;}
</style>
<g id="Canvas" transform="translate(-1640 -2453)">
	<g id="Group_00000067945944800971185630000006511254319620714395_">
		<g id="Group_00000132783256355773422160000006041360296112208519_">
			<g id="Group">
				<g id="g">
					<g id="path">
						<g id="path9_fill">
							<g transform="translate(1640.54 2474.36)">
								<path id="path0_fill" class="st0" d="M1667.7,2586.9c0,8-0.6,10.6-2.3,12.5c-1.8,1.6-4.2,2.6-6.7,2.6l0.6,4.6
									c3.8,0.1,7.5-1.3,10.4-3.8c1.6-1.9,2.7-4.1,3.4-6.4c0.7-2.3,0.9-4.8,0.6-7.2V2559h-6.1L1667.7,2586.9L1667.7,2586.9
									L1667.7,2586.9z"/>
							</g>
						</g>
					</g>
					<g id="path_00000071534979334202982210000002468416184588866203_">
						<g id="path10_fill">
							<g transform="translate(1645.68 2474.37)">
								<path id="path1_fill" class="st0" d="M1713.2,2583.3c0,3.4,0,6.5,0.3,9.1h-5.4l-0.4-5.4c-1.1,1.9-2.8,3.5-4.7,4.6
									c-1.9,1.1-4.1,1.6-6.4,1.6c-5.3,0-11.6-2.9-11.6-14.6v-19.5h6.1v18.2c0,6.3,2,10.6,7.5,10.6c1.1,0,2.3-0.2,3.3-0.6
									c1.1-0.4,2-1.1,2.8-1.9c0.8-0.8,1.4-1.8,1.9-2.8c0.4-1.1,0.6-2.2,0.6-3.3v-20.4h6.1v24.2L1713.2,2583.3z"/>
							</g>
						</g>
					</g>
					<g id="path_00000116229581643050220500000011298424769005155257_">
						<g id="path11_fill">
							<g transform="translate(1653.39 2474.26)">
								<path id="path2_fill" class="st0" d="M1724.8,2569.9c0-4.2,0-7.7-0.3-10.8h5.5l0.3,5.7c1.2-2.1,3-3.7,5.1-4.9
									c2.1-1.1,4.5-1.7,6.9-1.6c8.1,0,14.2,6.8,14.2,16.9c0,11.9-7.3,17.9-15.3,17.9c-2,0.1-4-0.3-5.9-1.3c-1.8-0.9-3.4-2.3-4.5-4
									l0,0v18.2h-6L1724.8,2569.9L1724.8,2569.9L1724.8,2569.9z M1730.8,2578.8c0,0.8,0.1,1.7,0.3,2.5c0.5,2,1.7,3.8,3.3,5.1
									s3.7,2,5.8,2c6.4,0,10.2-5.2,10.2-12.9c0-6.7-3.6-12.4-10-12.4c-2.5,0.2-4.9,1.3-6.7,3.2s-2.8,4.3-2.9,6.8L1730.8,2578.8
									L1730.8,2578.8z"/>
							</g>
						</g>
					</g>
					<g id="path_00000180326069183588566200000017923730127923749822_">
						<g id="path12_fill">
							<g transform="translate(1660.43 2474.39)">
								<path id="path3_fill" class="st0" d="M1767.3,2559.1l7.3,19.6c0.8,2.2,1.6,4.8,2.1,6.8c0.6-2,1.3-4.6,2.1-6.9l6.7-19.5h6.4
									l-9.1,23.7c-4.6,11.4-7.3,17.3-11.5,20.8c-2.1,1.9-4.7,3.3-7.5,3.9l-1.5-5.1c1.9-0.6,3.8-1.6,5.3-3c2.2-1.8,4-4.1,5.2-6.7
									c0.2-0.5,0.4-0.9,0.5-1.5c-0.1-0.6-0.2-1.1-0.4-1.6l-12.4-30.7L1767.3,2559.1L1767.3,2559.1z"/>
							</g>
						</g>
					</g>
					<g id="path_00000092414082423670639810000000967918206848750003_">
						<g id="path13_fill">
							<g transform="translate(1667.55 2472.54)">
								<path id="path4_fill" class="st0" d="M1808.2,2549.5v9.6h8.8v4.6h-8.8v18c0,4.1,1.2,6.5,4.6,6.5c1.2,0,2.4-0.1,3.6-0.4
									l0.3,4.6c-1.7,0.6-3.6,0.9-5.4,0.8c-1.2,0.1-2.4-0.1-3.6-0.6c-1.1-0.4-2.2-1.1-3-2c-1.9-2.5-2.7-5.6-2.4-8.7v-18.2h-5.2
									v-4.6h5.3v-8.1L1808.2,2549.5z"/>
							</g>
						</g>
					</g>
					<g id="path_00000029759158917237347820000018070161950189022592_">
						<g id="path14_fill">
							<g transform="translate(1672.47 2474.29)">
								<path id="path5_fill" class="st0" d="M1828.2,2576.8c-0.1,1.5,0.1,3.1,0.6,4.6s1.4,2.8,2.5,3.9c1.1,1.1,2.4,1.9,3.9,2.5
									c1.5,0.5,3,0.7,4.6,0.6c3.1,0.1,6.2-0.5,9.1-1.7l1,4.6c-3.5,1.5-7.3,2.2-11.2,2.1c-2.2,0.2-4.5-0.2-6.6-1s-4-2-5.6-3.6
									s-2.8-3.5-3.5-5.6c-0.8-2.1-1.1-4.3-0.9-6.6c0-10,6-18,15.7-18c10.9,0,13.7,9.6,13.7,15.7c0.1,0.9,0.1,1.9,0,2.8h-23.6
									L1828.2,2576.8z M1846.1,2572.2c0.2-1.2,0.1-2.5-0.3-3.6c-0.3-1.2-0.9-2.3-1.7-3.2c-0.8-0.9-1.8-1.7-2.9-2.2
									s-2.3-0.8-3.6-0.8c-2.5,0.2-4.9,1.3-6.6,3.1s-2.7,4.2-2.8,6.7H1846.1z"/>
							</g>
						</g>
					</g>
					<g id="path_00000018954151321039138590000009236740911140157575_">
						<g id="path15_fill">
							<g transform="translate(1679.98 2474.24)">
								<path id="path6_fill" class="st0" d="M1860.9,2569.4c0-3.9,0-7.3-0.3-10.4h5.5v6.5h0.3c0.6-2,1.8-3.8,3.4-5.1
									s3.6-2.1,5.7-2.2c0.6-0.1,1.2-0.1,1.7,0v5.7c-0.7-0.1-1.4-0.1-2.1,0c-2.1,0.1-4,0.9-5.5,2.3c-1.5,1.4-2.4,3.3-2.6,5.4
									c-0.2,0.9-0.3,1.9-0.3,2.8v17.7h-6v-22.8L1860.9,2569.4z"/>
							</g>
						</g>
					</g>
				</g>
			</g>
			<g id="g_00000005968628131058730610000013506403696357228700_">
				<g id="path_00000090253358253239843010000011563411577024771737_">
					<g id="path16_fill">
						<g transform="translate(1673.48 2453.69)">
							<path id="path7_fill" class="st1" d="M1858.3,2467.5c0.2,3.1-0.5,6.1-2.1,8.8c-1.6,2.6-3.9,4.8-6.6,6.1
								c-2.8,1.3-5.9,1.8-8.9,1.4c-3-0.4-5.9-1.8-8.2-3.8c-2.3-2.1-3.9-4.7-4.6-7.7s-0.6-6.1,0.4-9s2.9-5.4,5.4-7.2s5.4-2.9,8.5-3
								c2-0.1,4,0.2,5.9,0.8c1.9,0.7,3.6,1.7,5.1,3.1c1.5,1.3,2.7,3,3.6,4.8C1857.7,2463.5,1858.2,2465.5,1858.3,2467.5
								L1858.3,2467.5z"/>
						</g>
					</g>
				</g>
				<g id="path_00000147179355120265656580000004397515501609347229_">
					<g id="path17_fill">
						<g transform="translate(1643.21 2484.27)">
							<path id="path8_fill" class="st2" d="M1768.1,2646c-41,0-77.1-14.7-95.7-36.5c7.2,19.6,20.3,36.4,37.4,48.3
								c17.1,11.9,37.5,18.3,58.3,18.3c20.9,0,41.2-6.4,58.3-18.3c17.1-11.9,30.2-28.8,37.4-48.3
								C1845.3,2631.3,1809.3,2646,1768.1,2646z"/>
						</g>
					</g>
				</g>
				<g id="path_00000031919264558353871070000009413007386354236297_">
					<g id="path18_fill">
						<g transform="translate(1643.21 2457.88)">
							<path id="path9_fill_00000000195500494077138140000018327666895429042354_" class="st2" d="M1768.1,2504.6
								c41,0,77.1,14.7,95.7,36.5c-7.2-19.6-20.3-36.4-37.4-48.3c-17.1-11.9-37.5-18.3-58.3-18.3c-20.9,0-41.2,6.4-58.3,18.3
								c-17.1,11.9-30.2,28.8-37.4,48.3C1691.1,2519.3,1726.9,2504.6,1768.1,2504.6z"/>
						</g>
					</g>
				</g>
				<g id="path_00000105407633968583559550000013906607139454319802_">
					<g id="path19_fill">
						<g transform="translate(1643.28 2496.09)">
							<path id="path10_fill_00000161597697260685218080000015173900221014014630_" class="st3" d="M1711.7,2688.3
								c0.2,3.9-0.7,7.7-2.6,11c-2,3.3-4.8,6-8.3,7.7s-7.4,2.3-11.2,1.7c-3.8-0.5-7.4-2.2-10.3-4.8s-4.9-6-5.9-9.7
								c-0.9-3.7-0.8-7.7,0.5-11.3s3.7-6.8,6.8-9.1c3.1-2.3,6.8-3.6,10.7-3.8c2.5-0.1,5.1,0.2,7.4,1.1c2.4,0.8,4.6,2.1,6.5,3.8
								s3.4,3.7,4.5,6C1710.9,2683.3,1711.5,2685.8,1711.7,2688.3L1711.7,2688.3z"/>
						</g>
					</g>
				</g>
				<g id="path_00000035507301333028683530000008590583457212076681_">
					<g id="path20_fill">
						<g transform="translate(1641.87 2458.43)">
							<path id="path11_fill_00000179645818263956420530000016518248493496918459_" class="st4" d="M1677.1,2499.7
								c-2.2,0.1-4.4-0.5-6.3-1.7s-3.4-2.9-4.3-4.9s-1.2-4.3-0.8-6.4s1.4-4.2,2.9-5.8s3.5-2.8,5.6-3.3c2.2-0.5,4.4-0.4,6.5,0.4
								c2.1,0.8,3.9,2.1,5.2,3.9c1.3,1.8,2,3.9,2.1,6.1c0.1,3-1,5.9-3,8.1S1680.1,2499.6,1677.1,2499.7z"/>
						</g>
					</g>
				</g>
			</g>
		</g>
	</g>
</g>
<g id="Canvas_00000039829237385046683130000004689710959951690406_" transform="translate(-1640 -2453)">
	<g id="Group_00000035496613244796928340000007533050815901007286_">
		<g id="Group_00000072962891031336329130000011321838433462663343_">
			<g id="Group_00000029029309226887672090000011118062768788527531_">
				<g id="g_00000145781167901303454800000016858543823426074015_">
					<g id="path_00000163034337300072226960000009674124054348053694_">
						<g id="path9_fill_00000017508892957755099310000004224430134299840183_">
							<g transform="translate(1640.54 2474.36)">
								<path id="path0_fill_00000107590595548839045390000011929197355300039303_" class="st5" d="M1667.7,2586.9
									c0,8-0.6,10.6-2.3,12.5c-1.8,1.6-4.2,2.6-6.7,2.6l0.6,4.6c3.8,0.1,7.5-1.3,10.4-3.8c1.6-1.9,2.7-4.1,3.4-6.4
									c0.7-2.3,0.9-4.8,0.6-7.2v-30.2h-6.1v27.8V2586.9z"/>
							</g>
						</g>
					</g>
					<g id="path_00000026143389451014316730000017402468322517159553_">
						<g id="path10_fill_00000160155910749443163110000008055831765713075624_">
							<g transform="translate(1645.68 2474.37)">
								<path id="path1_fill_00000063626552113778338290000012346069493795156147_" class="st5" d="M1713.2,2583.3
									c0,3.4,0,6.5,0.3,9.1h-5.4l-0.4-5.4c-1.1,1.9-2.8,3.5-4.7,4.6c-1.9,1.1-4.1,1.6-6.4,1.6c-5.3,0-11.6-2.9-11.6-14.6v-19.5
									h6.1v18.2c0,6.3,2,10.6,7.5,10.6c1.1,0,2.3-0.2,3.3-0.6c1.1-0.4,2-1.1,2.8-1.9c0.8-0.8,1.4-1.8,1.9-2.8
									c0.4-1.1,0.6-2.2,0.6-3.3v-20.4h6.1v24.2L1713.2,2583.3z"/>
							</g>
						</g>
					</g>
					<g id="path_00000165926419960174549320000011848455573761134731_">
						<g id="path11_fill_00000159431871972123520370000015897980655757472686_">
							<g transform="translate(1653.39 2474.26)">
								<path id="path2_fill_00000014613455656716980910000009545384431652318885_" class="st5" d="M1724.8,2569.9
									c0-4.2,0-7.7-0.3-10.8h5.5l0.3,5.7c1.2-2.1,3-3.7,5.1-4.9c2.1-1.1,4.5-1.7,6.9-1.6c8.1,0,14.2,6.8,14.2,16.9
									c0,11.9-7.3,17.9-15.3,17.9c-2,0.1-4-0.3-5.9-1.3c-1.8-0.9-3.4-2.3-4.5-4l0,0v18.2h-6v-36V2569.9z M1730.8,2578.8
									c0,0.8,0.1,1.7,0.3,2.5c0.5,2,1.7,3.8,3.3,5.1s3.7,2,5.8,2c6.4,0,10.2-5.2,10.2-12.9c0-6.7-3.6-12.4-10-12.4
									c-2.5,0.2-4.9,1.3-6.7,3.2s-2.8,4.3-2.9,6.8V2578.8z"/>
							</g>
						</g>
					</g>
					<g id="path_00000150804706112196781050000006642192646451994551_">
						<g id="path12_fill_00000123398715094863308370000012985443333532990641_">
							<g transform="translate(1660.43 2474.39)">
								<path id="path3_fill_00000154406208630368770850000001701299218784573100_" class="st5" d="M1767.3,2559.1l7.3,19.6
									c0.8,2.2,1.6,4.8,2.1,6.8c0.6-2,1.3-4.6,2.1-6.9l6.7-19.5h6.4l-9.1,23.7c-4.6,11.4-7.3,17.3-11.5,20.8
									c-2.1,1.9-4.7,3.3-7.5,3.9l-1.5-5.1c1.9-0.6,3.8-1.6,5.3-3c2.2-1.8,4-4.1,5.2-6.7c0.2-0.5,0.4-0.9,0.5-1.5
									c-0.1-0.6-0.2-1.1-0.4-1.6l-12.4-30.7L1767.3,2559.1L1767.3,2559.1z"/>
							</g>
						</g>
					</g>
					<g id="path_00000054978166537301917880000011498363365734955709_">
						<g id="path13_fill_00000167365382524709200130000000606024405138351038_">
							<g transform="translate(1667.55 2472.54)">
								<path id="path4_fill_00000181085200289880579000000009908902643554437280_" class="st5" d="M1808.2,2549.5v9.6h8.8v4.6h-8.8
									v18c0,4.1,1.2,6.5,4.6,6.5c1.2,0,2.4-0.1,3.6-0.4l0.3,4.6c-1.7,0.6-3.6,0.9-5.4,0.8c-1.2,0.1-2.4-0.1-3.6-0.6
									c-1.1-0.4-2.2-1.1-3-2c-1.9-2.5-2.7-5.6-2.4-8.7v-18.2h-5.2v-4.6h5.3v-8.1L1808.2,2549.5z"/>
							</g>
						</g>
					</g>
					<g id="path_00000052797778928665402700000001334298567868049309_">
						<g id="path14_fill_00000137099812867394729480000004346525682348080805_">
							<g transform="translate(1672.47 2474.29)">
								<path id="path5_fill_00000177454048267215034980000000418674842966243995_" class="st5" d="M1828.2,2576.8
									c-0.1,1.5,0.1,3.1,0.6,4.6c0.5,1.5,1.4,2.8,2.5,3.9c1.1,1.1,2.4,1.9,3.9,2.5c1.5,0.5,3,0.7,4.6,0.6c3.1,0.1,6.2-0.5,9.1-1.7
									l1,4.6c-3.5,1.5-7.3,2.2-11.2,2.1c-2.2,0.2-4.5-0.2-6.6-1c-2.1-0.8-4-2-5.6-3.6c-1.6-1.6-2.8-3.5-3.5-5.6
									c-0.8-2.1-1.1-4.3-0.9-6.6c0-10,6-18,15.7-18c10.9,0,13.7,9.6,13.7,15.7c0.1,0.9,0.1,1.9,0,2.8h-23.6L1828.2,2576.8z
									 M1846.1,2572.2c0.2-1.2,0.1-2.5-0.3-3.6c-0.3-1.2-0.9-2.3-1.7-3.2c-0.8-0.9-1.8-1.7-2.9-2.2c-1.1-0.5-2.3-0.8-3.6-0.8
									c-2.5,0.2-4.9,1.3-6.6,3.1c-1.7,1.8-2.7,4.2-2.8,6.7H1846.1z"/>
							</g>
						</g>
					</g>
					<g id="path_00000167356031061724297210000016800335244279484060_">
						<g id="path15_fill_00000018217028707914460100000011424963301667649726_">
							<g transform="translate(1679.98 2474.24)">
								<path id="path6_fill_00000093894759504068802380000011878660513438576522_" class="st5" d="M1860.9,2569.4
									c0-3.9,0-7.3-0.3-10.4h5.5v6.5h0.3c0.6-2,1.8-3.8,3.4-5.1c1.6-1.3,3.6-2.1,5.7-2.2c0.6-0.1,1.2-0.1,1.7,0v5.7
									c-0.7-0.1-1.4-0.1-2.1,0c-2.1,0.1-4,0.9-5.5,2.3c-1.5,1.4-2.4,3.3-2.6,5.4c-0.2,0.9-0.3,1.9-0.3,2.8v17.7h-6v-22.8
									L1860.9,2569.4z"/>
							</g>
						</g>
					</g>
				</g>
			</g>
			<g id="g_00000102504547682274740990000010520340530940554146_">
				<g id="path_00000098207976916275507200000011841931510403825802_">
					<g id="path16_fill_00000181067039706332717970000015220240678666120877_">
						<g transform="translate(1673.48 2453.69)">
							<path id="path7_fill_00000052089800900716750350000006035314397617995958_" class="st6" d="M1858.3,2467.5
								c0.2,3.1-0.5,6.1-2.1,8.8c-1.6,2.6-3.9,4.8-6.6,6.1c-2.8,1.3-5.9,1.8-8.9,1.4c-3-0.4-5.9-1.8-8.2-3.8
								c-2.3-2.1-3.9-4.7-4.6-7.7c-0.7-3-0.6-6.1,0.4-9c1-2.9,2.9-5.4,5.4-7.2s5.4-2.9,8.5-3c2-0.1,4,0.2,5.9,0.8
								c1.9,0.7,3.6,1.7,5.1,3.1c1.5,1.3,2.7,3,3.6,4.8C1857.7,2463.5,1858.2,2465.5,1858.3,2467.5L1858.3,2467.5z"/>
						</g>
					</g>
				</g>
				<g id="path_00000044157955182803634190000016452441129104919995_">
					<g id="path17_fill_00000095330924574233046860000011978882509426213275_">
						<g transform="translate(1643.21 2484.27)">
							<path id="path8_fill_00000018924141722013312580000004604042554875437954_" class="st7" d="M1768.1,2646
								c-41,0-77.1-14.7-95.7-36.5c7.2,19.6,20.3,36.4,37.4,48.3c17.1,11.9,37.5,18.3,58.3,18.3c20.9,0,41.2-6.4,58.3-18.3
								c17.1-11.9,30.2-28.8,37.4-48.3C1845.3,2631.3,1809.3,2646,1768.1,2646z"/>
						</g>
					</g>
				</g>
				<g id="path_00000142885890729461443830000015673791388238732688_">
					<g id="path18_fill_00000046328690638717514320000010854028013133672863_">
						<g transform="translate(1643.21 2457.88)">
							<path id="path9_fill_00000175308393416270485850000014932939166532850577_" class="st7" d="M1768.1,2504.6
								c41,0,77.1,14.7,95.7,36.5c-7.2-19.6-20.3-36.4-37.4-48.3c-17.1-11.9-37.5-18.3-58.3-18.3c-20.9,0-41.2,6.4-58.3,18.3
								c-17.1,11.9-30.2,28.8-37.4,48.3C1691.1,2519.3,1726.9,2504.6,1768.1,2504.6z"/>
						</g>
					</g>
				</g>
				<g id="path_00000167395825664366632800000008700153604708366767_">
					<g id="path19_fill_00000137107254386186612440000016111426590854782598_">
						<g transform="translate(1643.28 2496.09)">
							<path id="path10_fill_00000181789275662534348150000012510304092093973428_" class="st3" d="M1711.7,2688.3
								c0.2,3.9-0.7,7.7-2.6,11c-2,3.3-4.8,6-8.3,7.7c-3.5,1.7-7.4,2.3-11.2,1.7c-3.8-0.5-7.4-2.2-10.3-4.8c-2.9-2.6-4.9-6-5.9-9.7
								c-0.9-3.7-0.8-7.7,0.5-11.3c1.3-3.6,3.7-6.8,6.8-9.1c3.1-2.3,6.8-3.6,10.7-3.8c2.5-0.1,5.1,0.2,7.4,1.1
								c2.4,0.8,4.6,2.1,6.5,3.8c1.9,1.7,3.4,3.7,4.5,6C1710.9,2683.3,1711.5,2685.8,1711.7,2688.3L1711.7,2688.3z"/>
						</g>
					</g>
				</g>
				<g id="path_00000024690039281647691230000010992182541307843473_">
					<g id="path20_fill_00000103945071493451867240000008270738421482429855_">
						<g transform="translate(1641.87 2458.43)">
							<path id="path11_fill_00000165954822480137239710000000058446646800498331_" class="st8" d="M1677.1,2499.7
								c-2.2,0.1-4.4-0.5-6.3-1.7c-1.9-1.2-3.4-2.9-4.3-4.9s-1.2-4.3-0.8-6.4s1.4-4.2,2.9-5.8s3.5-2.8,5.6-3.3
								c2.2-0.5,4.4-0.4,6.5,0.4c2.1,0.8,3.9,2.1,5.2,3.9c1.3,1.8,2,3.9,2.1,6.1c0.1,3-1,5.9-3,8.1S1680.1,2499.6,1677.1,2499.7z"/>
						</g>
					</g>
				</g>
			</g>
		</g>
	</g>
</g>
</svg>
