<?xml version="1.0" encoding="utf-8"?>
<!-- Generator: Adobe Illustrator 27.3.1, SVG Export Plug-In . SVG Version: 6.00 Build 0)  -->
<svg version="1.1" id="Calque_1" xmlns="http://www.w3.org/2000/svg" xmlns:xlink="http://www.w3.org/1999/xlink" x="0px" y="0px"
	 viewBox="0 0 256 256" style="enable-background:new 0 0 256 256;" xml:space="preserve">
<style type="text/css">
	.st0{fill:#4F4F4F;}
	.st1{fill:#777678;}
	.st2{fill:#EE7729;}
	.st3{fill:#9E9E9E;}
	.st4{fill:#626363;}
</style>
<g id="Canvas" transform="translate(-1640 -2453)">
	<g id="Group_00000181801958661612754240000002306753330711810485_">
		<g id="Group_00000057146479826482600360000000364029265780026515_">
			<g id="Group">
				<g id="g">
					<g id="path">
						<g id="path9_fill">
							<g transform="translate(1640.54 2474.36)">
								<path id="path0_fill" class="st0" d="M1667.7,2586.9c0,8-0.6,10.6-2.3,12.5c-1.8,1.6-4.2,2.6-6.7,2.6l0.6,4.6
									c3.8,0.1,7.5-1.3,10.4-3.8c1.6-1.9,2.7-4.1,3.4-6.4c0.7-2.3,0.9-4.8,0.6-7.2v-30.2h-6.1v27.8V2586.9z"/>
							</g>
						</g>
					</g>
					<g id="path_00000127726555781525312730000005186098427629188281_">
						<g id="path10_fill">
							<g transform="translate(1645.68 2474.37)">
								<path id="path1_fill" class="st0" d="M1713.2,2583.3c0,3.4,0,6.5,0.3,9.1h-5.4l-0.4-5.4c-1.1,1.9-2.8,3.5-4.7,4.6
									c-1.9,1.1-4.1,1.6-6.4,1.6c-5.3,0-11.6-2.9-11.6-14.6v-19.5h6.1v18.2c0,6.3,2,10.6,7.5,10.6c1.1,0,2.3-0.2,3.3-0.6
									c1.1-0.4,2-1.1,2.8-1.9c0.8-0.8,1.4-1.8,1.9-2.8c0.4-1.1,0.6-2.2,0.6-3.3v-20.4h6.1v24.2L1713.2,2583.3z"/>
							</g>
						</g>
					</g>
					<g id="path_00000132090190503026344860000008886665778301506961_">
						<g id="path11_fill">
							<g transform="translate(1653.39 2474.26)">
								<path id="path2_fill" class="st0" d="M1724.8,2569.9c0-4.2,0-7.7-0.3-10.8h5.5l0.3,5.7c1.2-2.1,3-3.7,5.1-4.9
									c2.1-1.1,4.5-1.7,6.9-1.6c8.1,0,14.2,6.8,14.2,16.9c0,11.9-7.3,17.9-15.3,17.9c-2,0.1-4-0.3-5.9-1.3c-1.8-0.9-3.4-2.3-4.5-4
									l0,0v18.2h-6v-36V2569.9z M1730.8,2578.8c0,0.8,0.1,1.7,0.3,2.5c0.5,2,1.7,3.8,3.3,5.1s3.7,2,5.8,2
									c6.4,0,10.2-5.2,10.2-12.9c0-6.7-3.6-12.4-10-12.4c-2.5,0.2-4.9,1.3-6.7,3.2s-2.8,4.3-2.9,6.8V2578.8z"/>
							</g>
						</g>
					</g>
					<g id="path_00000035501148893922870640000008109918696232650113_">
						<g id="path12_fill">
							<g transform="translate(1660.43 2474.39)">
								<path id="path3_fill" class="st0" d="M1767.3,2559.1l7.3,19.6c0.8,2.2,1.6,4.8,2.1,6.8c0.6-2,1.3-4.6,2.1-6.9l6.7-19.5h6.4
									l-9.1,23.7c-4.6,11.4-7.3,17.3-11.5,20.8c-2.1,1.9-4.7,3.3-7.5,3.9l-1.5-5.1c1.9-0.6,3.8-1.6,5.3-3c2.2-1.8,4-4.1,5.2-6.7
									c0.2-0.5,0.4-0.9,0.5-1.5c-0.1-0.6-0.2-1.1-0.4-1.6l-12.4-30.7L1767.3,2559.1L1767.3,2559.1z"/>
							</g>
						</g>
					</g>
					<g id="path_00000180335701082195432730000006954744413798754468_">
						<g id="path13_fill">
							<g transform="translate(1667.55 2472.54)">
								<path id="path4_fill" class="st0" d="M1808.2,2549.5v9.6h8.8v4.6h-8.8v18c0,4.1,1.2,6.5,4.6,6.5c1.2,0,2.4-0.1,3.6-0.4
									l0.3,4.6c-1.7,0.6-3.6,0.9-5.4,0.8c-1.2,0.1-2.4-0.1-3.6-0.6c-1.1-0.4-2.2-1.1-3-2c-1.9-2.5-2.7-5.6-2.4-8.7v-18.2h-5.2
									v-4.6h5.3v-8.1L1808.2,2549.5z"/>
							</g>
						</g>
					</g>
					<g id="path_00000041999197167085987630000002899860927506234812_">
						<g id="path14_fill">
							<g transform="translate(1672.47 2474.29)">
								<path id="path5_fill" class="st0" d="M1828.2,2576.8c-0.1,1.5,0.1,3.1,0.6,4.6c0.5,1.5,1.4,2.8,2.5,3.9
									c1.1,1.1,2.4,1.9,3.9,2.5c1.5,0.5,3,0.7,4.6,0.6c3.1,0.1,6.2-0.5,9.1-1.7l1,4.6c-3.5,1.5-7.3,2.2-11.2,2.1
									c-2.2,0.2-4.5-0.2-6.6-1c-2.1-0.8-4-2-5.6-3.6c-1.6-1.6-2.8-3.5-3.5-5.6c-0.8-2.1-1.1-4.3-0.9-6.6c0-10,6-18,15.7-18
									c10.9,0,13.7,9.6,13.7,15.7c0.1,0.9,0.1,1.9,0,2.8h-23.6L1828.2,2576.8z M1846.1,2572.2c0.2-1.2,0.1-2.5-0.3-3.6
									c-0.3-1.2-0.9-2.3-1.7-3.2c-0.8-0.9-1.8-1.7-2.9-2.2c-1.1-0.5-2.3-0.8-3.6-0.8c-2.5,0.2-4.9,1.3-6.6,3.1
									c-1.7,1.8-2.7,4.2-2.8,6.7H1846.1z"/>
							</g>
						</g>
					</g>
					<g id="path_00000026142215341624506650000005063789590956935049_">
						<g id="path15_fill">
							<g transform="translate(1679.98 2474.24)">
								<path id="path6_fill" class="st0" d="M1860.9,2569.4c0-3.9,0-7.3-0.3-10.4h5.5v6.5h0.3c0.6-2,1.8-3.8,3.4-5.1
									c1.6-1.3,3.6-2.1,5.7-2.2c0.6-0.1,1.2-0.1,1.7,0v5.7c-0.7-0.1-1.4-0.1-2.1,0c-2.1,0.1-4,0.9-5.5,2.3
									c-1.5,1.4-2.4,3.3-2.6,5.4c-0.2,0.9-0.3,1.9-0.3,2.8v17.7h-6v-22.8L1860.9,2569.4z"/>
							</g>
						</g>
					</g>
				</g>
			</g>
			<g id="g_00000155138984260421135710000000485632182892118710_">
				<g id="path_00000181072522391053445640000017418463057618385319_">
					<g id="path16_fill">
						<g transform="translate(1673.48 2453.69)">
							<path id="path7_fill" class="st1" d="M1858.3,2467.5c0.2,3.1-0.5,6.1-2.1,8.8c-1.6,2.6-3.9,4.8-6.6,6.1
								c-2.8,1.3-5.9,1.8-8.9,1.4c-3-0.4-5.9-1.8-8.2-3.8c-2.3-2.1-3.9-4.7-4.6-7.7c-0.7-3-0.6-6.1,0.4-9c1-2.9,2.9-5.4,5.4-7.2
								s5.4-2.9,8.5-3c2-0.1,4,0.2,5.9,0.8c1.9,0.7,3.6,1.7,5.1,3.1c1.5,1.3,2.7,3,3.6,4.8
								C1857.7,2463.5,1858.2,2465.5,1858.3,2467.5L1858.3,2467.5z"/>
						</g>
					</g>
				</g>
				<g id="path_00000004521508505602721650000013104454300596175255_">
					<g id="path17_fill">
						<g transform="translate(1643.21 2484.27)">
							<path id="path8_fill" class="st2" d="M1768.1,2646c-41,0-77.1-14.7-95.7-36.5c7.2,19.6,20.3,36.4,37.4,48.3
								c17.1,11.9,37.5,18.3,58.3,18.3c20.9,0,41.2-6.4,58.3-18.3c17.1-11.9,30.2-28.8,37.4-48.3
								C1845.3,2631.3,1809.3,2646,1768.1,2646z"/>
						</g>
					</g>
				</g>
				<g id="path_00000084500042054272323660000014017339547101875851_">
					<g id="path18_fill">
						<g transform="translate(1643.21 2457.88)">
							<path id="path9_fill_00000061444719545107635250000009144556592156182459_" class="st2" d="M1768.1,2504.6
								c41,0,77.1,14.7,95.7,36.5c-7.2-19.6-20.3-36.4-37.4-48.3c-17.1-11.9-37.5-18.3-58.3-18.3c-20.9,0-41.2,6.4-58.3,18.3
								c-17.1,11.9-30.2,28.8-37.4,48.3C1691.1,2519.3,1726.9,2504.6,1768.1,2504.6z"/>
						</g>
					</g>
				</g>
				<g id="path_00000161617399109144337820000009980064673553602718_">
					<g id="path19_fill">
						<g transform="translate(1643.28 2496.09)">
							<path id="path10_fill_00000147203590287898120410000008148680175651473331_" class="st3" d="M1711.7,2688.3
								c0.2,3.9-0.7,7.7-2.6,11c-2,3.3-4.8,6-8.3,7.7c-3.5,1.7-7.4,2.3-11.2,1.7c-3.8-0.5-7.4-2.2-10.3-4.8c-2.9-2.6-4.9-6-5.9-9.7
								c-0.9-3.7-0.8-7.7,0.5-11.3c1.3-3.6,3.7-6.8,6.8-9.1c3.1-2.3,6.8-3.6,10.7-3.8c2.5-0.1,5.1,0.2,7.4,1.1
								c2.4,0.8,4.6,2.1,6.5,3.8c1.9,1.7,3.4,3.7,4.5,6C1710.9,2683.3,1711.5,2685.8,1711.7,2688.3L1711.7,2688.3z"/>
						</g>
					</g>
				</g>
				<g id="path_00000005987522987507791520000004307716449132957115_">
					<g id="path20_fill">
						<g transform="translate(1641.87 2458.43)">
							<path id="path11_fill_00000011015491828431869850000001006625848691925152_" class="st4" d="M1677.1,2499.7
								c-2.2,0.1-4.4-0.5-6.3-1.7c-1.9-1.2-3.4-2.9-4.3-4.9s-1.2-4.3-0.8-6.4s1.4-4.2,2.9-5.8s3.5-2.8,5.6-3.3
								c2.2-0.5,4.4-0.4,6.5,0.4c2.1,0.8,3.9,2.1,5.2,3.9c1.3,1.8,2,3.9,2.1,6.1c0.1,3-1,5.9-3,8.1S1680.1,2499.6,1677.1,2499.7z"/>
						</g>
					</g>
				</g>
			</g>
		</g>
	</g>
</g>
</svg>
