<?xml version="1.0" encoding="utf-8"?>
<!-- Generator: Adobe Illustrator 27.3.1, SVG Export Plug-In . SVG Version: 6.00 Build 0)  -->
<svg version="1.1" id="Calque_1" xmlns="http://www.w3.org/2000/svg" xmlns:xlink="http://www.w3.org/1999/xlink" x="0px" y="0px"
	 viewBox="0 0 256 256" style="enable-background:new 0 0 256 256;" xml:space="preserve">
<style type="text/css">
	.st0{fill:#777678;}
	.st1{fill:#EE7729;}
	.st2{fill:#9E9E9E;}
	.st3{fill:#626363;}
</style>
<g id="g_00000155138984260421135710000000485632182892118710_">
	<g id="path_00000181072522391053445640000017418463057618385319_">
		<g id="path16_fill">
			<g transform="translate(1673.48 2453.69)">
				<path id="path7_fill" class="st0" d="M218.3,14.5c0.2,3.1-0.5,6.1-2.1,8.8c-1.6,2.6-3.9,4.8-6.6,6.1c-2.8,1.3-5.9,1.8-8.9,1.4
					c-3-0.4-5.9-1.8-8.2-3.8c-2.3-2.1-3.9-4.7-4.6-7.7c-0.7-3-0.6-6.1,0.4-9s2.9-5.4,5.4-7.2s5.4-2.9,8.5-3c2-0.1,4,0.2,5.9,0.8
					c1.9,0.7,3.6,1.7,5.1,3.1c1.5,1.3,2.7,3,3.6,4.8C217.7,10.5,218.2,12.5,218.3,14.5L218.3,14.5z"/>
			</g>
		</g>
	</g>
	<g id="path_00000004521508505602721650000013104454300596175255_">
		<g id="path17_fill">
			<g transform="translate(1643.21 2484.27)">
				<path id="path8_fill" class="st1" d="M128.1,193c-41,0-77.1-14.7-95.7-36.5c7.2,19.6,20.3,36.4,37.4,48.3
					c17.1,11.9,37.5,18.3,58.3,18.3c20.9,0,41.2-6.4,58.3-18.3c17.1-11.9,30.2-28.8,37.4-48.3C205.3,178.3,169.3,193,128.1,193z"/>
			</g>
		</g>
	</g>
	<g id="path_00000084500042054272323660000014017339547101875851_">
		<g id="path18_fill">
			<g transform="translate(1643.21 2457.88)">
				<path id="path9_fill_00000061444719545107635250000009144556592156182459_" class="st1" d="M128.1,51.6
					c41,0,77.1,14.7,95.7,36.5c-7.2-19.6-20.3-36.4-37.4-48.3c-17.1-11.9-37.5-18.3-58.3-18.3c-20.9,0-41.2,6.4-58.3,18.3
					C52.7,51.7,39.7,68.5,32.4,88.1C51.1,66.3,86.9,51.6,128.1,51.6z"/>
			</g>
		</g>
	</g>
	<g id="path_00000161617399109144337820000009980064673553602718_">
		<g id="path19_fill">
			<g transform="translate(1643.28 2496.09)">
				<path id="path10_fill_00000147203590287898120410000008148680175651473331_" class="st2" d="M71.7,235.3c0.2,3.9-0.7,7.7-2.6,11
					c-2,3.3-4.8,6-8.3,7.7c-3.5,1.7-7.4,2.3-11.2,1.7c-3.8-0.5-7.4-2.2-10.3-4.8c-2.9-2.6-4.9-6-5.9-9.7c-0.9-3.7-0.8-7.7,0.5-11.3
					c1.3-3.6,3.7-6.8,6.8-9.1c3.1-2.3,6.8-3.6,10.7-3.8c2.5-0.1,5.1,0.2,7.4,1.1c2.4,0.8,4.6,2.1,6.5,3.8c1.9,1.7,3.4,3.7,4.5,6
					C70.9,230.3,71.5,232.8,71.7,235.3L71.7,235.3z"/>
			</g>
		</g>
	</g>
	<g id="path_00000005987522987507791520000004307716449132957115_">
		<g id="path20_fill">
			<g transform="translate(1641.87 2458.43)">
				<path id="path11_fill_00000011015491828431869850000001006625848691925152_" class="st3" d="M37.1,46.7
					c-2.2,0.1-4.4-0.5-6.3-1.7c-1.9-1.2-3.4-2.9-4.3-4.9c-0.9-2-1.2-4.3-0.8-6.4s1.4-4.2,2.9-5.8c1.5-1.6,3.5-2.8,5.6-3.3
					c2.2-0.5,4.4-0.4,6.5,0.4c2.1,0.8,3.9,2.1,5.2,3.9c1.3,1.8,2,3.9,2.1,6.1c0.1,3-1,5.9-3,8.1C42.9,45.3,40.1,46.6,37.1,46.7z"/>
			</g>
		</g>
	</g>
</g>
</svg>
