<?xml version="1.0" encoding="utf-8"?>
<!-- Generator: Adobe Illustrator 27.3.1, SVG Export Plug-In . SVG Version: 6.00 Build 0)  -->
<svg version="1.1" id="Calque_1" xmlns="http://www.w3.org/2000/svg" xmlns:xlink="http://www.w3.org/1999/xlink" x="0px" y="0px"
	 viewBox="0 0 192 64" style="enable-background:new 0 0 192 64;" xml:space="preserve">
<g>
	<path d="M79.3,43.6V44c0,2.6-1.9,4.7-4.1,4.7H17.7c-2.3,0-4.1-2.1-4.1-4.7V20c0-2.6,1.9-4.7,4.1-4.7h57.5c2.3,0,4.1,2.1,4.1,4.7
		v0.4h13.6V20C92.9,9,85,0,75.2,0H17.7C7.9,0,0,9,0,20v24c0,11,7.9,20,17.7,20h57.5c9.8,0,17.7-9,17.7-20v-0.4H79.3z"/>
	<path d="M174.3,0h-57.5C107,0,99.1,9,99.1,20v0.4h13.6V20c0-2.6,1.9-4.7,4.1-4.7h57.5c2.3,0,4.1,2.1,4.1,4.7v24
		c0,2.6-1.9,4.7-4.1,4.7h-57.5c-2.3,0-4.1-2.1-4.1-4.7v-0.4H99.1V44c0,11,7.9,20,17.7,20h57.5c9.8,0,17.7-9,17.7-20V20
		C192,9,184.1,0,174.3,0z"/>
	<path d="M129.3,23.2H62.7c-4.3,0-7.8,3.9-7.8,8.8s3.5,8.8,7.8,8.8h66.7c4.3,0,7.8-3.9,7.8-8.8S133.6,23.2,129.3,23.2z"/>
</g>
</svg>
