<?xml version="1.0" encoding="utf-8"?>
<!-- Generator: Adobe Illustrator 16.0.0, SVG Export Plug-In . SVG Version: 6.00 Build 0)  -->
<!DOCTYPE svg PUBLIC "-//W3C//DTD SVG 1.1//EN" "http://www.w3.org/Graphics/SVG/1.1/DTD/svg11.dtd">
<svg version="1.1" id="Calque_1" xmlns="http://www.w3.org/2000/svg" xmlns:xlink="http://www.w3.org/1999/xlink" x="0px" y="0px"
	 width="283.46px" height="283.46px" viewBox="0 0 283.46 283.46" enable-background="new 0 0 283.46 283.46" xml:space="preserve">
<circle fill-rule="evenodd" clip-rule="evenodd" fill="#376496" cx="141.732" cy="141.733" r="141.732"/>
<g>
	<path fill-rule="evenodd" clip-rule="evenodd" fill="#FFFFFF" d="M152.003,122.239c0-5.459-0.051-10.285,0.025-15.105
		c0.023-1.356-0.221-1.834-1.658-1.826c-11.461,0.07-22.922,0.053-34.383,0.02c-1.205-0.004-1.57,0.199-1.502,1.652
		c0.203,4.236,0.166,8.486,0.164,12.732c-0.018,30.029-0.043,60.06-0.076,90.089c-0.006,4.088-0.045,8.178-0.164,12.264
		c-0.043,1.377,0.295,1.86,1.709,1.854c11.387-0.06,22.773-0.085,34.16,0.017c1.879,0.016,1.732-0.957,1.732-2.26
		c-0.014-21.461,0.027-42.924-0.031-64.387c-0.023-7.893,2.512-14.5,8.498-19.433c7.018-5.783,17.891-5.813,24.24-0.105
		c4.283,3.848,5.809,9.136,6.697,14.699c0.482,3.053,0.527,6.141,0.527,9.229c-0.004,19.918,0.033,39.836-0.055,59.754
		c-0.012,2.104,0.537,2.52,2.447,2.504c11.166-0.102,22.33-0.071,33.494-0.023c1.26,0.006,1.797-0.171,1.793-1.716
		c-0.076-23.548,0.107-47.095-0.197-70.636c-0.143-11.146-2.564-21.878-8.734-31.291c-7.846-11.967-19.162-17.139-32.678-17.684
		c-10.814-0.436-20.615,2.398-28.705,10.303C156.623,115.509,154.464,118.601,152.003,122.239z"/>
	<path fill-rule="evenodd" clip-rule="evenodd" fill="#FFFFFF" d="M56.076,164.891c0,18.918,0.023,37.836-0.039,56.752
		c-0.008,1.781,0.379,2.303,2.152,2.289c11.168-0.092,22.334-0.073,33.502-0.014c1.506,0.006,2.154-0.158,2.15-2.054
		c-0.064-38.222-0.057-76.442-0.012-114.665c0-1.518-0.375-1.896-1.816-1.889c-11.314,0.064-22.629,0.078-33.945-0.01
		c-1.67-0.014-2.039,0.422-2.035,2.14C56.099,126.591,56.076,145.741,56.076,164.891z"/>
	<path fill-rule="evenodd" clip-rule="evenodd" fill="#FFFFFF" d="M75.654,48.188c-4.93,0.043-8.934,0.953-12.564,3.229
		c-7.174,4.496-10.482,12.732-8.771,21.711c1.504,7.891,8.045,14.26,16.016,15.512c7.246,1.141,14.072,0.104,19.689-5.191
		c5.881-5.545,7.428-12.652,5.408-20.459c-1.977-7.654-7.037-12.234-14.359-14.145C79.054,48.317,76.982,48.296,75.654,48.188z"/>
</g>
</svg>
