<?xml version="1.0" encoding="utf-8"?>
<!-- Generator: Adobe Illustrator 16.0.0, SVG Export Plug-In . SVG Version: 6.00 Build 0)  -->
<!DOCTYPE svg PUBLIC "-//W3C//DTD SVG 1.1//EN" "http://www.w3.org/Graphics/SVG/1.1/DTD/svg11.dtd">
<svg version="1.1" id="Calque_1" xmlns="http://www.w3.org/2000/svg" xmlns:xlink="http://www.w3.org/1999/xlink" x="0px" y="0px"
	 width="16px" height="16px" viewBox="0 0 16 16" enable-background="new 0 0 16 16" xml:space="preserve">
<path fill="#326496" d="M0,1.146C0,0.513,0.526,0,1.175,0h13.65C15.475,0,16,0.513,16,1.146v13.708C16,15.486,15.475,16,14.825,16
	H1.175C0.526,16,0,15.486,0,14.854V1.146z M4.943,13.395V6.169H2.542v7.226H4.943z M3.743,5.182c0.837,0,1.358-0.554,1.358-1.248
	c-0.015-0.709-0.52-1.248-1.342-1.248c-0.822,0-1.359,0.54-1.359,1.248c0,0.694,0.521,1.248,1.327,1.248H3.743z M8.65,13.395V9.359
	c0-0.217,0.017-0.433,0.08-0.586c0.174-0.432,0.568-0.878,1.232-0.878c0.869,0,1.217,0.662,1.217,1.634v3.865h2.4V9.25
	c0-2.22-1.184-3.252-2.764-3.252c-1.274,0-1.846,0.7-2.166,1.193v0.025H8.635C8.641,7.208,8.646,7.199,8.65,7.191V6.169H6.251
	c0.03,0.678,0,7.226,0,7.226H8.65z"/>
</svg>
