<?xml version="1.0" encoding="utf-8"?>
<!-- Generator: Adobe Illustrator 27.3.1, SVG Export Plug-In . SVG Version: 6.00 Build 0)  -->
<svg version="1.1" id="Calque_1" xmlns="http://www.w3.org/2000/svg" xmlns:xlink="http://www.w3.org/1999/xlink" x="0px" y="0px"
	 viewBox="0 0 256 256" style="enable-background:new 0 0 256 256;" xml:space="preserve">
<style type="text/css">
	.st0{fill:#030405;}
	.st1{fill:#FEFEFC;}
	
		.st2{opacity:0.25;clip-path:url(#SVGID_00000160152082732405307750000016301646356629556130_);fill:url(#belly_shadow_left_00000067947058677659327190000012009731222682803375_);enable-background:new    ;}
	
		.st3{opacity:0.42;clip-path:url(#SVGID_00000083078510874657664990000005527158102984488072_);fill:url(#belly_shadow_right_00000168820372920896480220000008579418007989652387_);enable-background:new    ;}
	
		.st4{opacity:0.2;clip-path:url(#SVGID_00000074442531613792549300000001914081048663148712_);fill:url(#belly_shadow_middle_00000125585301107530266780000011579323170681132423_);enable-background:new    ;}
	
		.st5{opacity:0.11;clip-path:url(#SVGID_00000085210221542757025930000016634652874624763068_);fill:#020203;enable-background:new    ;}
	
		.st6{opacity:0.75;clip-path:url(#SVGID_00000158023291470419775530000018153232587434339469_);fill:#7C7C7D;enable-background:new    ;}
	.st7{clip-path:url(#SVGID_00000093860981964499240870000017147979815379381922_);fill:#7C7C7D;}
	.st8{clip-path:url(#SVGID_00000161618602405457503410000002530656988682072198_);fill:#838385;}
	
		.st9{opacity:0.95;clip-path:url(#SVGID_00000016044043504522712820000013569253253547023266_);fill:#7C7C7D;enable-background:new    ;}
	.st10{clip-path:url(#SVGID_00000106133814773827583740000000887638615051521942_);fill:#838385;}
	.st11{fill:url(#foot_left_base_00000069395923611886262030000003675409139247762090_);}
	.st12{clip-path:url(#SVGID_00000119803193382919876120000012372891129861580439_);fill:#D89A08;}
	.st13{clip-path:url(#SVGID_00000008144429824889214250000003570421607646910345_);fill:#F5BE10;}
	
		.st14{clip-path:url(#SVGID_00000108278944450413563610000003667329114093842111_);fill:url(#foot_left_glare_00000010990846245573309680000006102089825722565815_);}
	
		.st15{opacity:0.2;clip-path:url(#SVGID_00000095323598149445541810000003788293700252917683_);fill:url(#foot_right_shadow_00000026868312922051742200000009666942348348117157_);enable-background:new    ;}
	.st16{fill:url(#foot_right_base_00000062180798508188065350000015161923009150383520_);}
	.st17{clip-path:url(#SVGID_00000072997089717535158250000012777912292595297933_);fill:#CE8A0B;}
	.st18{clip-path:url(#SVGID_00000036238415808544680550000011639173537171955125_);fill:#F5C023;}
	
		.st19{clip-path:url(#SVGID_00000157274036749616103160000006869157856844385956_);fill:url(#foot_right_glare_00000008141134890757826160000000418120231548970899_);}
	
		.st20{opacity:0.35;clip-path:url(#SVGID_00000008839786593824618760000009648917141578230192_);fill:url(#wing_tip_right_shadow_lower_00000151513752155474979850000007304448731985376920_);enable-background:new    ;}
	
		.st21{opacity:0.35;clip-path:url(#SVGID_00000130617657773134854900000001822282086657527175_);fill:url(#wing_tip_right_shadow_upper_00000025427160417555454170000017151819357787036815_);enable-background:new    ;}
	.st22{clip-path:url(#SVGID_00000178199641761435757210000001419300456907093401_);}
	.st23{fill:url(#path_wing_tip_right_glare_00000081648114565829331640000001889349585836304007_);}
	.st24{clip-path:url(#SVGID_00000011000767372377060750000008357355899047871635_);}
	.st25{fill:url(#path_wing_tip_right_glare_00000157279458076583320280000013465510489387370161_);}
	.st26{fill:url(#eyeball_left_00000028292751388183263140000017786622779367386300_);}
	
		.st27{clip-path:url(#SVGID_00000072991393630065320500000002535911064042803345_);fill:url(#pupil_left_glare_00000129922166355501687980000001694757334183366278_);}
	
		.st28{clip-path:url(#SVGID_00000121971298739894454320000006199794750127760532_);fill:url(#eyelid_left_00000156559916148009317100000012919570410327687570_);}
	.st29{fill:url(#eyebrow_left_00000018949126603434608500000009130658694040845227_);}
	.st30{fill:url(#eyeball_right_00000152980123221628761860000005995886797609088646_);}
	
		.st31{clip-path:url(#SVGID_00000096052452366261290590000010137893744513810612_);fill:url(#pupil_right_glare_00000020393200461970250940000009628998823268932536_);}
	
		.st32{clip-path:url(#SVGID_00000150795503720407780150000000781358590448207757_);fill:url(#eyelid_right_00000163792488037745153150000017801537301227038880_);}
	.st33{fill:url(#eyebrow_right_00000116913503191043623130000008557528869790704768_);}
	.st34{clip-path:url(#SVGID_00000054224783453132848900000007967291429464084882_);fill:#020203;fill-opacity:0.2588;}
	
		.st35{opacity:0.3;clip-path:url(#SVGID_00000077288601241619791510000003551262516182150292_);fill:#020203;enable-background:new    ;}
	.st36{fill:url(#beak_base_00000038388089697752240470000016518259873968144316_);}
	.st37{fill:url(#mandible_lower_base_00000066516390430891561080000009397569103123758003_);}
	.st38{clip-path:url(#SVGID_00000065766516959124802760000016243744073866663812_);fill:#D9B312;}
	.st39{clip-path:url(#SVGID_00000004525697553350487880000004141685219240902575_);fill:#604610;}
	.st40{fill:url(#mandible_upper_base_00000006679083635962121250000001846889132045294501_);}
	.st41{clip-path:url(#SVGID_00000028322702889145170620000011985849253207688323_);fill:#F6DA4B;}
	.st42{opacity:0.8;fill:url(#naris_left_00000129186959600569990390000007258913481504784007_);enable-background:new    ;}
	.st43{opacity:0.8;fill:url(#naris_right_00000116235878510062209450000000844258089545090954_);enable-background:new    ;}
	.st44{clip-path:url(#SVGID_00000098899997055977484380000002870249581490043022_);}
	
		.st45{clip-path:url(#SVGID_00000011031385751040836240000002867535158387487921_);fill:url(#beak_corner_00000085212986616139028640000007182308932660802980_);}
</style>
<g id="tux">
	<g id="body">
		<path id="body_base" class="st0" d="M126.9,0c-6,0-12,1.2-17.5,4.1c-5.8,3.1-10.5,8.1-13.4,14C93.1,24,92,30.3,91.8,37.2
			c-0.3,13.1,0.3,26.9,1.3,39.4c0.3,3.8,0.7,6,0.2,9.9c-1.6,8.3-8.9,13.9-12.8,21.2c-4.3,8-6.1,17.1-9.3,25.7
			c-3,7.8-7.1,15.1-9.9,22.9c-3.9,11-5.1,23-2.5,34.4c2,8.7,6.1,16.8,11.6,23.7c-0.8,1.4-1.6,2.9-2.4,4.3c-2.6,4.4-5.7,8.6-7.2,13.6
			c-0.7,2.4-1,5.1-0.5,7.6c0.5,2.5,1.8,4.9,3.8,6.5c1.3,1,2.9,1.7,4.5,2.1c1.6,0.4,3.3,0.5,5,0.4c6.4-0.1,12.6-2.1,18.7-3.7
			c3.7-1,7.3-1.8,11-2.6c13.1-2.7,27.8-1.6,40,0.1c4.1,0.6,8.2,1.4,12.3,2.4c6.4,1.5,12.7,3.5,19.2,3.7c1.7,0.1,3.5,0,5.1-0.4
			c1.7-0.4,3.3-1.1,4.6-2.1c2-1.6,3.3-4,3.8-6.5c0.5-2.5,0.2-5.1-0.6-7.6c-1.5-4.9-4.6-9.1-7.3-13.5c-1-1.8-2-3.5-3-5.3
			c7.9-8.9,14.3-19.1,17.9-30.4c4-12.3,4.8-25.6,3.1-38.4s-5.8-25.3-11.1-37.1c-6.7-14.8-12.4-20.1-16.5-33.1
			c-4.4-14-0.8-30.6-4.1-43.3c-1.2-4.3-3-8.5-5.4-12.2c-2.8-4.4-6.4-8.4-10.6-11.5C144.1,2.6,135.6,0,126.9,0L126.9,0z"/>
		<path id="belly" class="st1" d="M103.1,74c-0.9,1.1-1.5,2.5-1.8,3.9c-0.3,1.4-0.5,2.8-0.5,4.3c-0.1,2.9,0.1,5.8-0.7,8.6
			c-0.8,3-2.7,5.6-4.4,8.1c-3.1,4.4-6.2,8.8-7.8,14c-0.9,3.1-1.2,6.4-0.9,9.6c-3.5,5.1-6.5,10.5-9,16.2c-3.8,8.6-6.4,17.7-7.3,27
			c-1.1,11.4,0.3,23.1,4.8,33.7c3.2,7.6,8.1,14.6,14.4,20c3.2,2.8,6.7,5.1,10.5,7c13.1,6.4,29.3,6.5,42.2-0.4
			c6.7-3.6,12.4-8.8,17.9-14.1c3.3-3.2,6.6-6.5,9.1-10.3c4.9-7.4,6.5-16.4,7.6-25.2c1.8-15.4,1.9-31.6-4.9-45.5
			c-2.3-4.8-5.4-9.2-9.1-13.1c-1-6.7-2.9-13.3-5.8-19.4c-2.1-4.4-4.5-8.7-6.4-13.2c-0.8-1.8-1.5-3.8-2.3-5.6
			c-0.9-1.8-1.9-3.6-3.4-4.9c-1.5-1.4-3.3-2.4-5.3-3.1c-1.9-0.7-4-0.9-6.1-1c-4.1-0.2-8.2,0.3-12.3,0.2c-3.3-0.1-6.5-0.7-9.8-0.5
			c-1.6,0.1-3.3,0.4-4.8,1C105.5,71.8,104.1,72.7,103.1,74z"/>
		<g id="body_self_shadows">
			<g>
				<defs>
					<path id="SVGID_1_" d="M126.9,0c-6,0-12,1.2-17.5,4.1c-5.8,3.1-10.5,8.1-13.4,14C93.1,24,92,30.3,91.8,37.2
						c-0.3,13.1,0.3,26.9,1.3,39.4c0.3,3.8,0.7,6,0.2,9.9c-1.6,8.3-8.9,13.9-12.8,21.2c-4.3,8-6.1,17.1-9.3,25.7
						c-3,7.8-7.1,15.1-9.9,22.9c-3.9,11-5.1,23-2.5,34.4c2,8.7,6.1,16.8,11.6,23.7c-0.8,1.4-1.6,2.9-2.4,4.3
						c-2.6,4.4-5.7,8.6-7.2,13.6c-0.7,2.4-1,5.1-0.5,7.6c0.5,2.5,1.8,4.9,3.8,6.5c1.3,1,2.9,1.7,4.5,2.1c1.6,0.4,3.3,0.5,5,0.4
						c6.4-0.1,12.6-2.1,18.7-3.7c3.7-1,7.3-1.8,11-2.6c13.1-2.7,27.8-1.6,40,0.1c4.1,0.6,8.2,1.4,12.3,2.4
						c6.4,1.5,12.7,3.5,19.2,3.7c1.7,0.1,3.5,0,5.1-0.4c1.7-0.4,3.3-1.1,4.6-2.1c2-1.6,3.3-4,3.8-6.5c0.5-2.5,0.2-5.1-0.6-7.6
						c-1.5-4.9-4.6-9.1-7.3-13.5c-1-1.8-2-3.5-3-5.3c7.9-8.9,14.3-19.1,17.9-30.4c4-12.3,4.8-25.6,3.1-38.4s-5.8-25.3-11.1-37.1
						c-6.7-14.8-12.4-20.1-16.5-33.1c-4.4-14-0.8-30.6-4.1-43.3c-1.2-4.3-3-8.5-5.4-12.2c-2.8-4.4-6.4-8.4-10.6-11.5
						C144.1,2.6,135.6,0,126.9,0L126.9,0z"/>
				</defs>
				<clipPath id="SVGID_00000028287574786496572610000008459991316428381341_">
					<use xlink:href="#SVGID_1_"  style="overflow:visible;"/>
				</clipPath>
				
					<radialGradient id="belly_shadow_left_00000106135221307818246110000010613311272794315419_" cx="1.0526" cy="256" r="1" gradientTransform="matrix(19 0 0 -18 61.18 4729.1899)" gradientUnits="userSpaceOnUse">
					<stop  offset="0" style="stop-color:#020203"/>
					<stop  offset="1" style="stop-color:#020203;stop-opacity:0.25"/>
				</radialGradient>
				
					<path id="belly_shadow_left" style="opacity:0.25;clip-path:url(#SVGID_00000028287574786496572610000008459991316428381341_);fill:url(#belly_shadow_left_00000106135221307818246110000010613311272794315419_);enable-background:new    ;" d="
					M88.7,115.2c0.9,1.3-0.6,5.8,19.9,2.9c0,0-3.6,0.4-7.1,1.2c-5.5,1.8-10.3,3.9-14,6.6c-3.7,2.7-6.3,6.2-9.7,9.2
					c0,0,5.4-9.9,6.8-12.9c1.4-3-0.2-2.8,0.8-7.2s3.7-8.6,3.7-8.6S86.9,112.6,88.7,115.2z"/>
			</g>
			<g>
				<defs>
					<path id="SVGID_00000012474905097225828420000013475356733672561081_" d="M126.9,0c-6,0-12,1.2-17.5,4.1
						c-5.8,3.1-10.5,8.1-13.4,14C93.1,24,92,30.3,91.8,37.2c-0.3,13.1,0.3,26.9,1.3,39.4c0.3,3.8,0.7,6,0.2,9.9
						c-1.6,8.3-8.9,13.9-12.8,21.2c-4.3,8-6.1,17.1-9.3,25.7c-3,7.8-7.1,15.1-9.9,22.9c-3.9,11-5.1,23-2.5,34.4
						c2,8.7,6.1,16.8,11.6,23.7c-0.8,1.4-1.6,2.9-2.4,4.3c-2.6,4.4-5.7,8.6-7.2,13.6c-0.7,2.4-1,5.1-0.5,7.6
						c0.5,2.5,1.8,4.9,3.8,6.5c1.3,1,2.9,1.7,4.5,2.1c1.6,0.4,3.3,0.5,5,0.4c6.4-0.1,12.6-2.1,18.7-3.7c3.7-1,7.3-1.8,11-2.6
						c13.1-2.7,27.8-1.6,40,0.1c4.1,0.6,8.2,1.4,12.3,2.4c6.4,1.5,12.7,3.5,19.2,3.7c1.7,0.1,3.5,0,5.1-0.4c1.7-0.4,3.3-1.1,4.6-2.1
						c2-1.6,3.3-4,3.8-6.5c0.5-2.5,0.2-5.1-0.6-7.6c-1.5-4.9-4.6-9.1-7.3-13.5c-1-1.8-2-3.5-3-5.3c7.9-8.9,14.3-19.1,17.9-30.4
						c4-12.3,4.8-25.6,3.1-38.4s-5.8-25.3-11.1-37.1c-6.7-14.8-12.4-20.1-16.5-33.1c-4.4-14-0.8-30.6-4.1-43.3
						c-1.2-4.3-3-8.5-5.4-12.2c-2.8-4.4-6.4-8.4-10.6-11.5C144.1,2.6,135.6,0,126.9,0L126.9,0z"/>
				</defs>
				<clipPath id="SVGID_00000016054663881600798960000008668984336463236789_">
					<use xlink:href="#SVGID_00000012474905097225828420000013475356733672561081_"  style="overflow:visible;"/>
				</clipPath>
				
					<radialGradient id="belly_shadow_right_00000152228356200867275180000004355181364501848246_" cx="0.8475" cy="256" r="1" gradientTransform="matrix(23.6 0 0 -18 125.74 4739.6001)" gradientUnits="userSpaceOnUse">
					<stop  offset="0" style="stop-color:#020203"/>
					<stop  offset="1" style="stop-color:#020203;stop-opacity:0.25"/>
				</radialGradient>
				
					<path id="belly_shadow_right" style="opacity:0.42;clip-path:url(#SVGID_00000016054663881600798960000008668984336463236789_);fill:url(#belly_shadow_right_00000152228356200867275180000004355181364501848246_);enable-background:new    ;" d="
					M154.3,114c-4.2,2.9-6.6,2.6-11.6,3.1c-5.1,0.6-18.7,0.4-18.7,0.4s2,0,6.4,0.8c4.4,0.8,13.3,1.6,18.3,3.5c5,1.9,6.9,2.5,9.9,4.4
					c4.4,2.8,7.6,7.1,11.7,10.1c0,0,0.2-4-1.5-7c-1.7-3-6.2-7.7-7.5-12.1c-1.3-4.4-2-13-2-13S158.4,111.1,154.3,114L154.3,114z"/>
			</g>
			<g>
				<defs>
					<path id="SVGID_00000062898440527930339130000003729531961931894924_" d="M126.9,0c-6,0-12,1.2-17.5,4.1
						c-5.8,3.1-10.5,8.1-13.4,14C93.1,24,92,30.3,91.8,37.2c-0.3,13.1,0.3,26.9,1.3,39.4c0.3,3.8,0.7,6,0.2,9.9
						c-1.6,8.3-8.9,13.9-12.8,21.2c-4.3,8-6.1,17.1-9.3,25.7c-3,7.8-7.1,15.1-9.9,22.9c-3.9,11-5.1,23-2.5,34.4
						c2,8.7,6.1,16.8,11.6,23.7c-0.8,1.4-1.6,2.9-2.4,4.3c-2.6,4.4-5.7,8.6-7.2,13.6c-0.7,2.4-1,5.1-0.5,7.6
						c0.5,2.5,1.8,4.9,3.8,6.5c1.3,1,2.9,1.7,4.5,2.1c1.6,0.4,3.3,0.5,5,0.4c6.4-0.1,12.6-2.1,18.7-3.7c3.7-1,7.3-1.8,11-2.6
						c13.1-2.7,27.8-1.6,40,0.1c4.1,0.6,8.2,1.4,12.3,2.4c6.4,1.5,12.7,3.5,19.2,3.7c1.7,0.1,3.5,0,5.1-0.4c1.7-0.4,3.3-1.1,4.6-2.1
						c2-1.6,3.3-4,3.8-6.5c0.5-2.5,0.2-5.1-0.6-7.6c-1.5-4.9-4.6-9.1-7.3-13.5c-1-1.8-2-3.5-3-5.3c7.9-8.9,14.3-19.1,17.9-30.4
						c4-12.3,4.8-25.6,3.1-38.4s-5.8-25.3-11.1-37.1c-6.7-14.8-12.4-20.1-16.5-33.1c-4.4-14-0.8-30.6-4.1-43.3
						c-1.2-4.3-3-8.5-5.4-12.2c-2.8-4.4-6.4-8.4-10.6-11.5C144.1,2.6,135.6,0,126.9,0L126.9,0z"/>
				</defs>
				<clipPath id="SVGID_00000112622657779730088960000015370369636149495949_">
					<use xlink:href="#SVGID_00000062898440527930339130000003729531961931894924_"  style="overflow:visible;"/>
				</clipPath>
				
					<radialGradient id="belly_shadow_middle_00000093150087495512414840000008249538774559145649_" cx="2.139" cy="256" r="1" gradientTransform="matrix(9.35 0 0 -10 94.21 2687.47)" gradientUnits="userSpaceOnUse">
					<stop  offset="0" style="stop-color:#020203"/>
					<stop  offset="1" style="stop-color:#020203;stop-opacity:0.25"/>
				</radialGradient>
				
					<path id="belly_shadow_middle" style="opacity:0.2;clip-path:url(#SVGID_00000112622657779730088960000015370369636149495949_);fill:url(#belly_shadow_middle_00000093150087495512414840000008249538774559145649_);enable-background:new    ;" d="
					M115.2,107.8c-0.2,1.2-0.4,2.5-0.6,3.7c-0.1,0.6-0.3,1.2-0.5,1.8c-0.2,0.6-0.6,1.1-1,1.6c-0.4,0.4-0.9,0.6-1.4,0.8
					c-1.9,0.9-4,1.5-6.1,1.7c0.8,0.1,1.7,0.1,2.5,0.2c0.5,0.1,1.1,0.1,1.6,0.2c0.5,0.1,1,0.3,1.5,0.7c0.5,0.3,0.8,0.8,1.1,1.3
					c0.6,1,0.7,2.2,0.8,3.4c0.1,1.5,0.1,3,0,4.5c0.1-1,0.3-2,0.6-2.9c0.6-1.7,1.5-3.3,2.7-4.7c0.5-0.5,1-1,1.6-1.4
					c1.8-1.3,4.1-1.8,6.2-1.5c-2.2,0.1-4.4-0.6-6.2-1.9c-0.9-0.7-1.7-1.5-2.2-2.5C115,111.3,114.7,109.5,115.2,107.8z"/>
			</g>
			<g>
				<defs>
					<path id="SVGID_00000169518985373560180220000014369196890271901844_" d="M126.9,0c-6,0-12,1.2-17.5,4.1
						c-5.8,3.1-10.5,8.1-13.4,14C93.1,24,92,30.3,91.8,37.2c-0.3,13.1,0.3,26.9,1.3,39.4c0.3,3.8,0.7,6,0.2,9.9
						c-1.6,8.3-8.9,13.9-12.8,21.2c-4.3,8-6.1,17.1-9.3,25.7c-3,7.8-7.1,15.1-9.9,22.9c-3.9,11-5.1,23-2.5,34.4
						c2,8.7,6.1,16.8,11.6,23.7c-0.8,1.4-1.6,2.9-2.4,4.3c-2.6,4.4-5.7,8.6-7.2,13.6c-0.7,2.4-1,5.1-0.5,7.6
						c0.5,2.5,1.8,4.9,3.8,6.5c1.3,1,2.9,1.7,4.5,2.1c1.6,0.4,3.3,0.5,5,0.4c6.4-0.1,12.6-2.1,18.7-3.7c3.7-1,7.3-1.8,11-2.6
						c13.1-2.7,27.8-1.6,40,0.1c4.1,0.6,8.2,1.4,12.3,2.4c6.4,1.5,12.7,3.5,19.2,3.7c1.7,0.1,3.5,0,5.1-0.4c1.7-0.4,3.3-1.1,4.6-2.1
						c2-1.6,3.3-4,3.8-6.5c0.5-2.5,0.2-5.1-0.6-7.6c-1.5-4.9-4.6-9.1-7.3-13.5c-1-1.8-2-3.5-3-5.3c7.9-8.9,14.3-19.1,17.9-30.4
						c4-12.3,4.8-25.6,3.1-38.4s-5.8-25.3-11.1-37.1c-6.7-14.8-12.4-20.1-16.5-33.1c-4.4-14-0.8-30.6-4.1-43.3
						c-1.2-4.3-3-8.5-5.4-12.2c-2.8-4.4-6.4-8.4-10.6-11.5C144.1,2.6,135.6,0,126.9,0L126.9,0z"/>
				</defs>
				<clipPath id="SVGID_00000060744624761771201120000000256017821642574252_">
					<use xlink:href="#SVGID_00000169518985373560180220000014369196890271901844_"  style="overflow:visible;"/>
				</clipPath>
				
					<path id="belly_shadow_lower" style="opacity:0.11;clip-path:url(#SVGID_00000060744624761771201120000000256017821642574252_);fill:#020203;enable-background:new    ;" d="
					M109.8,137.1c-1.1,4-1.8,8.1-2.2,12.3c-0.6,5.9-0.4,11.8-0.7,17.7c-0.3,5-0.8,10,0,15c0.4,2.4,1.2,4.6,2.2,6.8
					c0.2-0.8,0.3-1.6,0.4-2.5c0.4-4-0.3-8-0.5-12c-0.4-7,0.6-14,1-21.1C110.3,147.9,110.2,142.5,109.8,137.1z"/>
			</g>
		</g>
		<g id="body_glare">
			<g>
				<defs>
					<path id="SVGID_00000147911557823597355660000008870318176175458736_" d="M126.9,0c-6,0-12,1.2-17.5,4.1
						c-5.8,3.1-10.5,8.1-13.4,14C93.1,24,92,30.3,91.8,37.2c-0.3,13.1,0.3,26.9,1.3,39.4c0.3,3.8,0.7,6,0.2,9.9
						c-1.6,8.3-8.9,13.9-12.8,21.2c-4.3,8-6.1,17.1-9.3,25.7c-3,7.8-7.1,15.1-9.9,22.9c-3.9,11-5.1,23-2.5,34.4
						c2,8.7,6.1,16.8,11.6,23.7c-0.8,1.4-1.6,2.9-2.4,4.3c-2.6,4.4-5.7,8.6-7.2,13.6c-0.7,2.4-1,5.1-0.5,7.6
						c0.5,2.5,1.8,4.9,3.8,6.5c1.3,1,2.9,1.7,4.5,2.1c1.6,0.4,3.3,0.5,5,0.4c6.4-0.1,12.6-2.1,18.7-3.7c3.7-1,7.3-1.8,11-2.6
						c13.1-2.7,27.8-1.6,40,0.1c4.1,0.6,8.2,1.4,12.3,2.4c6.4,1.5,12.7,3.5,19.2,3.7c1.7,0.1,3.5,0,5.1-0.4c1.7-0.4,3.3-1.1,4.6-2.1
						c2-1.6,3.3-4,3.8-6.5c0.5-2.5,0.2-5.1-0.6-7.6c-1.5-4.9-4.6-9.1-7.3-13.5c-1-1.8-2-3.5-3-5.3c7.9-8.9,14.3-19.1,17.9-30.4
						c4-12.3,4.8-25.6,3.1-38.4s-5.8-25.3-11.1-37.1c-6.7-14.8-12.4-20.1-16.5-33.1c-4.4-14-0.8-30.6-4.1-43.3
						c-1.2-4.3-3-8.5-5.4-12.2c-2.8-4.4-6.4-8.4-10.6-11.5C144.1,2.6,135.6,0,126.9,0L126.9,0z"/>
				</defs>
				<clipPath id="SVGID_00000068644974063990660790000006936817862352934274_">
					<use xlink:href="#SVGID_00000147911557823597355660000008870318176175458736_"  style="overflow:visible;"/>
				</clipPath>
				
					<path id="belly_glare" style="opacity:0.75;clip-path:url(#SVGID_00000068644974063990660790000006936817862352934274_);fill:#7C7C7D;enable-background:new    ;" d="
					M180.1,131.2c1-0.2,7.3,5.2,6.5,7.2c-0.9,2-2.5,0.8-3.6,0.8c-1.2,0-4.3,1.5-4.9,0.6c-0.5-0.9,1.4-3,2.4-4.8
					C181.3,133.6,179.1,131.4,180.1,131.2L180.1,131.2z"/>
			</g>
			<g>
				<defs>
					<path id="SVGID_00000068667122584084428630000005226056913821459607_" d="M126.9,0c-6,0-12,1.2-17.5,4.1
						c-5.8,3.1-10.5,8.1-13.4,14C93.1,24,92,30.3,91.8,37.2c-0.3,13.1,0.3,26.9,1.3,39.4c0.3,3.8,0.7,6,0.2,9.9
						c-1.6,8.3-8.9,13.9-12.8,21.2c-4.3,8-6.1,17.1-9.3,25.7c-3,7.8-7.1,15.1-9.9,22.9c-3.9,11-5.1,23-2.5,34.4
						c2,8.7,6.1,16.8,11.6,23.7c-0.8,1.4-1.6,2.9-2.4,4.3c-2.6,4.4-5.7,8.6-7.2,13.6c-0.7,2.4-1,5.1-0.5,7.6
						c0.5,2.5,1.8,4.9,3.8,6.5c1.3,1,2.9,1.7,4.5,2.1c1.6,0.4,3.3,0.5,5,0.4c6.4-0.1,12.6-2.1,18.7-3.7c3.7-1,7.3-1.8,11-2.6
						c13.1-2.7,27.8-1.6,40,0.1c4.1,0.6,8.2,1.4,12.3,2.4c6.4,1.5,12.7,3.5,19.2,3.7c1.7,0.1,3.5,0,5.1-0.4c1.7-0.4,3.3-1.1,4.6-2.1
						c2-1.6,3.3-4,3.8-6.5c0.5-2.5,0.2-5.1-0.6-7.6c-1.5-4.9-4.6-9.1-7.3-13.5c-1-1.8-2-3.5-3-5.3c7.9-8.9,14.3-19.1,17.9-30.4
						c4-12.3,4.8-25.6,3.1-38.4s-5.8-25.3-11.1-37.1c-6.7-14.8-12.4-20.1-16.5-33.1c-4.4-14-0.8-30.6-4.1-43.3
						c-1.2-4.3-3-8.5-5.4-12.2c-2.8-4.4-6.4-8.4-10.6-11.5C144.1,2.6,135.6,0,126.9,0L126.9,0z"/>
				</defs>
				<clipPath id="SVGID_00000064316422010238362630000004449821742845638280_">
					<use xlink:href="#SVGID_00000068667122584084428630000005226056913821459607_"  style="overflow:visible;"/>
				</clipPath>
				<path id="head_glare" style="clip-path:url(#SVGID_00000064316422010238362630000004449821742845638280_);fill:#7C7C7D;" d="
					M141.5,11.1c-2.2,1.6-1.2,3.5-0.3,5.5c0.9,2-2.1,7.6-2.1,7.8c0,0.2,6-2.8,7.6-4.9c1.9-2.4,6.8,3.2,6.6,2.4
					C153.3,20.4,143.7,9.6,141.5,11.1z"/>
			</g>
			<g>
				<defs>
					<path id="SVGID_00000008126325811020950570000012864445787165295257_" d="M126.9,0c-6,0-12,1.2-17.5,4.1
						c-5.8,3.1-10.5,8.1-13.4,14C93.1,24,92,30.3,91.8,37.2c-0.3,13.1,0.3,26.9,1.3,39.4c0.3,3.8,0.7,6,0.2,9.9
						c-1.6,8.3-8.9,13.9-12.8,21.2c-4.3,8-6.1,17.1-9.3,25.7c-3,7.8-7.1,15.1-9.9,22.9c-3.9,11-5.1,23-2.5,34.4
						c2,8.7,6.1,16.8,11.6,23.7c-0.8,1.4-1.6,2.9-2.4,4.3c-2.6,4.4-5.7,8.6-7.2,13.6c-0.7,2.4-1,5.1-0.5,7.6
						c0.5,2.5,1.8,4.9,3.8,6.5c1.3,1,2.9,1.7,4.5,2.1c1.6,0.4,3.3,0.5,5,0.4c6.4-0.1,12.6-2.1,18.7-3.7c3.7-1,7.3-1.8,11-2.6
						c13.1-2.7,27.8-1.6,40,0.1c4.1,0.6,8.2,1.4,12.3,2.4c6.4,1.5,12.7,3.5,19.2,3.7c1.7,0.1,3.5,0,5.1-0.4c1.7-0.4,3.3-1.1,4.6-2.1
						c2-1.6,3.3-4,3.8-6.5c0.5-2.5,0.2-5.1-0.6-7.6c-1.5-4.9-4.6-9.1-7.3-13.5c-1-1.8-2-3.5-3-5.3c7.9-8.9,14.3-19.1,17.9-30.4
						c4-12.3,4.8-25.6,3.1-38.4s-5.8-25.3-11.1-37.1c-6.7-14.8-12.4-20.1-16.5-33.1c-4.4-14-0.8-30.6-4.1-43.3
						c-1.2-4.3-3-8.5-5.4-12.2c-2.8-4.4-6.4-8.4-10.6-11.5C144.1,2.6,135.6,0,126.9,0L126.9,0z"/>
				</defs>
				<clipPath id="SVGID_00000178207343269264835820000010253148162064115336_">
					<use xlink:href="#SVGID_00000008126325811020950570000012864445787165295257_"  style="overflow:visible;"/>
				</clipPath>
				<path id="neck_glare" style="clip-path:url(#SVGID_00000178207343269264835820000010253148162064115336_);fill:#838385;" d="
					M158.3,76.6c-1.9,1.7,0.9,4.2,2.2,7.2c0.8,1.9,3,4.5,5.2,4.1c1.6-0.3,2.6-2.7,2.5-4.3c-0.3-3.2-3-3.9-4.9-5
					C161.6,77.8,159.6,75.4,158.3,76.6z"/>
			</g>
		</g>
	</g>
	<g id="wings">
		<g id="wing_left">
			<path id="wing_left_base" class="st0" d="M84,100.9c-6.1,6.9-12.4,13.6-15.8,21.1c-1.7,3.8-2.5,7.9-3.7,11.9
				c-1.3,4.5-3.1,8.9-5.1,13.2c-1.9,3.9-3.9,7.8-6,11.7c-1.5,2.8-3,5.7-3.5,8.8c-0.4,2.5-0.2,5,0.5,7.5c0.6,2.4,1.6,4.8,2.8,7
				c4.9,9.6,12.2,17.8,20.9,24.1c3.9,2.9,8.2,5.3,12.6,7.4c2.4,1.1,4.9,2.1,7.6,2.1c1.3,0,2.7-0.2,3.9-0.7c1.2-0.5,2.3-1.4,3-2.5
				c0.9-1.4,1.2-3.1,1-4.7s-0.8-3.1-1.7-4.5c-2.1-3.4-5.3-5.8-8.4-8.2c-6.8-5.2-13.3-10.8-19.6-16.6c-1.8-1.6-3.5-3.3-4.8-5.4
				c-1.2-2-1.8-4.3-2.3-6.6c-1.2-6.3-0.9-13,1.2-19.1c0.8-2.4,2-4.6,3-6.9c1.9-3.9,3.6-8,6.1-11.6c3-4.5,7.1-8.3,9.6-13.2
				c2.1-4.1,2.9-8.7,3.8-13.2c0.6-3.5,1.8-7,2.5-10.5C90.3,94.1,86.4,97.9,84,100.9z"/>
			<g>
				<defs>
					<path id="SVGID_00000099650882798501860480000017282927941614760892_" d="M84,100.9c-6.1,6.9-12.4,13.6-15.8,21.1
						c-1.7,3.8-2.5,7.9-3.7,11.9c-1.3,4.5-3.1,8.9-5.1,13.2c-1.9,3.9-3.9,7.8-6,11.7c-1.5,2.8-3,5.7-3.5,8.8c-0.4,2.5-0.2,5,0.5,7.5
						c0.6,2.4,1.6,4.8,2.8,7c4.9,9.6,12.2,17.8,20.9,24.1c3.9,2.9,8.2,5.3,12.6,7.4c2.4,1.1,4.9,2.1,7.6,2.1c1.3,0,2.7-0.2,3.9-0.7
						c1.2-0.5,2.3-1.4,3-2.5c0.9-1.4,1.2-3.1,1-4.7s-0.8-3.1-1.7-4.5c-2.1-3.4-5.3-5.8-8.4-8.2c-6.8-5.2-13.3-10.8-19.6-16.6
						c-1.8-1.6-3.5-3.3-4.8-5.4c-1.2-2-1.8-4.3-2.3-6.6c-1.2-6.3-0.9-13,1.2-19.1c0.8-2.4,2-4.6,3-6.9c1.9-3.9,3.6-8,6.1-11.6
						c3-4.5,7.1-8.3,9.6-13.2c2.1-4.1,2.9-8.7,3.8-13.2c0.6-3.5,1.8-7,2.5-10.5C90.3,94.1,86.4,97.9,84,100.9z"/>
				</defs>
				<clipPath id="SVGID_00000155148106295955961860000005620368821941065374_">
					<use xlink:href="#SVGID_00000099650882798501860480000017282927941614760892_"  style="overflow:visible;"/>
				</clipPath>
				
					<path id="wing_left_glare" style="opacity:0.95;clip-path:url(#SVGID_00000155148106295955961860000005620368821941065374_);fill:#7C7C7D;enable-background:new    ;" d="
					M77,126.1c-2,1.8-3.7,4-5.1,6.3c-2.3,3.8-3.7,8.2-5.3,12.3c-1.2,3.1-2.7,6.2-2.9,9.5c-0.1,1.7,0.2,3.4,0.2,5.1s-0.1,3.5-0.9,5
					c-0.7,1.2-1.9,2.2-3.2,2.7c1.8,0.6,3.5,1.8,4.6,3.3c1,1.3,1.6,2.8,2.4,4.2c0.7,1.1,1.5,2.2,2.5,3c1,0.8,2.2,1.4,3.5,1.6
					c1.8,0.2,3.7-0.4,5-1.6c-1.7-15.6-0.1-31.4,4.4-46.4c0.3-0.9,0.6-1.9,0.7-2.9c0.1-1-0.1-2-0.7-2.8c-0.3-0.4-0.7-0.8-1.2-1
					c-0.5-0.2-1-0.3-1.5-0.2c-0.5,0.1-1,0.3-1.5,0.6C77.5,125.2,77.2,125.6,77,126.1L77,126.1z"/>
			</g>
		</g>
		<g id="wing_right">
			<path id="wing_right_base" class="st0" d="M182.8,127.1c5.2,4.2,8.6,10.6,9.6,17.2c0.8,5.2,0.3,10.5-0.9,15.6
				c-1.2,5.1-3,10.1-4.8,15c-0.7,2-1.4,3.9-1.7,6c-0.3,2.1-0.1,4.3,0.9,6.1c1.1,2.1,3.3,3.6,5.6,4.2c2.3,0.7,4.7,0.7,7,0.1
				s6.2-1.3,8-2.8c4.8-3.7,5.9-10.1,7-15.7c1.2-5.9,0.6-12-0.4-17.9c-1.4-8.1-3.8-16-6.8-23.6c-2.2-5.6-5.1-11-8.4-16
				c-3.3-4.9-8-8.7-11.5-13.5c-1.2-1.7-2.7-3.4-3.8-5.1c-2.6-3.6-2-2.9-3.6-5.3c-1.1-1.7-3-2.3-4.9-3c-1.9-0.7-4.1-1-6-0.4
				c-2.6,0.7-4.7,2.8-5.9,5.2c-1.1,2.5-1.3,5.3-0.9,7.9c0.6,3.4,2.1,6.6,3.9,9.6c2,3.4,4.3,6.7,7.4,9.2
				C175.7,122.8,179.5,124.5,182.8,127.1z"/>
			<g>
				<defs>
					<path id="SVGID_00000129895426046752460640000003815683448940480152_" d="M182.8,127.1c5.2,4.2,8.6,10.6,9.6,17.2
						c0.8,5.2,0.3,10.5-0.9,15.6c-1.2,5.1-3,10.1-4.8,15c-0.7,2-1.4,3.9-1.7,6c-0.3,2.1-0.1,4.3,0.9,6.1c1.1,2.1,3.3,3.6,5.6,4.2
						c2.3,0.7,4.7,0.7,7,0.1s6.2-1.3,8-2.8c4.8-3.7,5.9-10.1,7-15.7c1.2-5.9,0.6-12-0.4-17.9c-1.4-8.1-3.8-16-6.8-23.6
						c-2.2-5.6-5.1-11-8.4-16c-3.3-4.9-8-8.7-11.5-13.5c-1.2-1.7-2.7-3.4-3.8-5.1c-2.6-3.6-2-2.9-3.6-5.3c-1.1-1.7-3-2.3-4.9-3
						c-1.9-0.7-4.1-1-6-0.4c-2.6,0.7-4.7,2.8-5.9,5.2c-1.1,2.5-1.3,5.3-0.9,7.9c0.6,3.4,2.1,6.6,3.9,9.6c2,3.4,4.3,6.7,7.4,9.2
						C175.7,122.8,179.5,124.5,182.8,127.1z"/>
				</defs>
				<clipPath id="SVGID_00000096743925151652657300000007977963310118593963_">
					<use xlink:href="#SVGID_00000129895426046752460640000003815683448940480152_"  style="overflow:visible;"/>
				</clipPath>
				
					<path id="wing_right_glare" style="clip-path:url(#SVGID_00000096743925151652657300000007977963310118593963_);fill:#838385;" d="
					M170.4,119c0.4,0.4,0.9,0.8,1.3,1.2c3.2,2.6,4.9,5.6,8.2,8.2c5.3,4.2,10.8,11.5,11.8,18.1c0.8,5.2-0.3,8-1.6,14.1
					c-1.3,6.1-5.1,14.8-7.1,20.7c-0.8,2.4,1.6,1.4,1.3,3.9c-0.2,1.2-0.2,2.4,0,3.7c0-0.2,0-0.5,0.1-0.7c0.4-3.4,1.4-6.6,2.6-9.8
					c2.2-6.1,4.7-12.1,6.4-18.4c1.7-6.3,1.5-10.8,0.6-16.2c-1.1-6.8-5.1-13.1-10.7-17.2C179.3,123.4,174.6,121.6,170.4,119
					L170.4,119z"/>
			</g>
		</g>
	</g>
	<g id="feet">
		<g id="foot_left">
			
				<linearGradient id="foot_left_base_00000097486969670258993520000007456898662963581862_" gradientUnits="userSpaceOnUse" x1="38.6493" y1="60.2897" x2="79.7793" y2="-8.7203" gradientTransform="matrix(1 0 0 -1 0 256)">
				<stop  offset="0" style="stop-color:#B88310"/>
				<stop  offset="1" style="stop-color:#362814"/>
			</linearGradient>
			<path id="foot_left_base" style="fill:url(#foot_left_base_00000097486969670258993520000007456898662963581862_);" d="M55,175.3
				c1.4-0.6,2.9-0.7,4.4-0.4c1.5,0.3,2.9,0.9,4.1,1.7c2.5,1.7,4.3,4.1,6,6.5c4,5.5,7.9,11.2,11.4,17.1c2.8,4.8,5.5,9.7,8.8,14.2
				c2.2,2.9,4.6,5.6,6.7,8.6c2.2,2.9,4.1,6.1,5,9.6c1.2,4.6,0.8,9.6-1.4,13.8c-1.5,2.9-3.9,5.5-6.7,7.2s-5.8,2.5-9.2,2.5
				c-5.3,0-10.4-2.8-15.3-4.8c-10-4-20.8-5.2-31.1-8.3c-3.2-0.9-6.3-2.1-9.4-2.9c-1.4-0.4-2.8-0.7-4.2-1.3c-1.3-0.6-2.6-1.5-3.3-2.8
				c-0.6-1-0.8-2.1-0.8-3.3c0-1.1,0.3-2.3,0.7-3.3c0.8-2.1,2-4.1,2.9-6.2c1.4-3.4,1.6-7.2,1.4-10.9c-0.2-3.7-0.8-7.4-1-11.1
				c-0.1-1.6-0.2-3.3,0.2-4.9c0.3-1.6,1-3.2,2.2-4.4c1.1-1.1,2.5-1.7,4-2c1.5-0.3,3-0.3,4.6-0.3c1.5,0,3,0.1,4.6,0
				c1.5-0.1,3-0.5,4.4-1.2c1.3-0.7,2.3-1.8,3.1-3c0.9-1.2,1.5-2.4,2.2-3.7c0.7-1.3,1.4-2.5,2.4-3.6C52.5,176.9,53.6,175.9,55,175.3z
				"/>
			<g>
				<defs>
					<path id="SVGID_00000023963156870406640170000013720242560133675168_" d="M55,175.3c1.4-0.6,2.9-0.7,4.4-0.4
						c1.5,0.3,2.9,0.9,4.1,1.7c2.5,1.7,4.3,4.1,6,6.5c4,5.5,7.9,11.2,11.4,17.1c2.8,4.8,5.5,9.7,8.8,14.2c2.2,2.9,4.6,5.6,6.7,8.6
						c2.2,2.9,4.1,6.1,5,9.6c1.2,4.6,0.8,9.6-1.4,13.8c-1.5,2.9-3.9,5.5-6.7,7.2s-5.8,2.5-9.2,2.5c-5.3,0-10.4-2.8-15.3-4.8
						c-10-4-20.8-5.2-31.1-8.3c-3.2-0.9-6.3-2.1-9.4-2.9c-1.4-0.4-2.8-0.7-4.2-1.3c-1.3-0.6-2.6-1.5-3.3-2.8c-0.6-1-0.8-2.1-0.8-3.3
						c0-1.1,0.3-2.3,0.7-3.3c0.8-2.1,2-4.1,2.9-6.2c1.4-3.4,1.6-7.2,1.4-10.9c-0.2-3.7-0.8-7.4-1-11.1c-0.1-1.6-0.2-3.3,0.2-4.9
						c0.3-1.6,1-3.2,2.2-4.4c1.1-1.1,2.5-1.7,4-2c1.5-0.3,3-0.3,4.6-0.3c1.5,0,3,0.1,4.6,0c1.5-0.1,3-0.5,4.4-1.2
						c1.3-0.7,2.3-1.8,3.1-3c0.9-1.2,1.5-2.4,2.2-3.7c0.7-1.3,1.4-2.5,2.4-3.6C52.5,176.9,53.6,175.9,55,175.3z"/>
				</defs>
				<clipPath id="SVGID_00000044862529209485022200000010242436752125567891_">
					<use xlink:href="#SVGID_00000023963156870406640170000013720242560133675168_"  style="overflow:visible;"/>
				</clipPath>
				
					<path id="foot_left_layer_1" style="clip-path:url(#SVGID_00000044862529209485022200000010242436752125567891_);fill:#D89A08;" d="
					M57.2,177.7c1.2-0.5,2.7-0.6,4-0.3c1.3,0.3,2.5,0.9,3.6,1.8c2.1,1.6,3.6,4,5,6.3c3.4,5.5,6.8,11.1,9.9,16.9
					c2.4,4.3,4.7,8.7,7.6,12.6c1.9,2.6,4.2,5,6.2,7.6s3.8,5.4,4.6,8.6c1.1,4.1,0.7,8.5-1.3,12.3c-1.4,2.7-3.6,5-6.2,6.5
					c-2.6,1.5-5.7,2.3-8.7,2.1c-4.8-0.2-9.2-2.6-13.8-4.3c-8.7-3.2-18.1-3.6-27.1-6.1c-3.2-0.9-6.3-2-9.5-2.8
					c-1.4-0.4-2.9-0.7-4.2-1.2c-1.4-0.6-2.6-1.4-3.4-2.7c-0.5-0.9-0.8-2.1-0.7-3.1c0-1.1,0.3-2.2,0.7-3.2c0.8-2,2-3.9,2.8-5.9
					c1.2-3.1,1.3-6.5,1.1-9.8s-0.8-6.6-1-9.9c-0.1-1.5-0.1-3,0.2-4.4c0.3-1.4,0.9-2.9,2-3.9c1.1-1.1,2.7-1.7,4.3-2
					c1.6-0.2,3.2-0.1,4.8,0c1.6,0.1,3.2,0.3,4.8,0.2c1.6-0.1,3.2-0.5,4.5-1.4c1.2-0.8,2.1-2,2.8-3.3c0.7-1.3,1.2-2.6,1.7-4
					c0.5-1.4,1.1-2.7,1.9-3.9C54.7,179.3,55.8,178.2,57.2,177.7L57.2,177.7z"/>
			</g>
			<g>
				<defs>
					<path id="SVGID_00000132082510660226031980000017955838496622812834_" d="M55,175.3c1.4-0.6,2.9-0.7,4.4-0.4
						c1.5,0.3,2.9,0.9,4.1,1.7c2.5,1.7,4.3,4.1,6,6.5c4,5.5,7.9,11.2,11.4,17.1c2.8,4.8,5.5,9.7,8.8,14.2c2.2,2.9,4.6,5.6,6.7,8.6
						c2.2,2.9,4.1,6.1,5,9.6c1.2,4.6,0.8,9.6-1.4,13.8c-1.5,2.9-3.9,5.5-6.7,7.2s-5.8,2.5-9.2,2.5c-5.3,0-10.4-2.8-15.3-4.8
						c-10-4-20.8-5.2-31.1-8.3c-3.2-0.9-6.3-2.1-9.4-2.9c-1.4-0.4-2.8-0.7-4.2-1.3c-1.3-0.6-2.6-1.5-3.3-2.8c-0.6-1-0.8-2.1-0.8-3.3
						c0-1.1,0.3-2.3,0.7-3.3c0.8-2.1,2-4.1,2.9-6.2c1.4-3.4,1.6-7.2,1.4-10.9c-0.2-3.7-0.8-7.4-1-11.1c-0.1-1.6-0.2-3.3,0.2-4.9
						c0.3-1.6,1-3.2,2.2-4.4c1.1-1.1,2.5-1.7,4-2c1.5-0.3,3-0.3,4.6-0.3c1.5,0,3,0.1,4.6,0c1.5-0.1,3-0.5,4.4-1.2
						c1.3-0.7,2.3-1.8,3.1-3c0.9-1.2,1.5-2.4,2.2-3.7c0.7-1.3,1.4-2.5,2.4-3.6C52.5,176.9,53.6,175.9,55,175.3z"/>
				</defs>
				<clipPath id="SVGID_00000160895753273369608460000006480262433556705670_">
					<use xlink:href="#SVGID_00000132082510660226031980000017955838496622812834_"  style="overflow:visible;"/>
				</clipPath>
				
					<path id="foot_left_layer_2" style="clip-path:url(#SVGID_00000160895753273369608460000006480262433556705670_);fill:#F5BE10;" d="
					M56,174.6c1.2-0.6,2.7-0.7,4-0.4c1.3,0.3,2.6,0.9,3.6,1.8c2.1,1.7,3.4,4.1,4.7,6.5c2.8,5.5,5.5,11,8.9,16.2
					c2.5,3.7,5.3,7.2,7.8,10.9c3.4,5,6.2,10.6,7.3,16.5c0.8,4,0.7,8.3-1.2,11.9c-1.3,2.4-3.3,4.3-5.8,5.5c-2.4,1.2-5.2,1.7-7.9,1.5
					c-4.3-0.4-8.1-2.5-12.2-3.9c-7.1-2.6-14.8-3.2-22.2-5.2c-3.1-0.8-6.1-1.9-9.3-2.5c-1.4-0.3-2.8-0.5-4.1-1s-2.6-1.3-3.2-2.6
					c-0.5-0.9-0.6-1.9-0.6-2.8c0.1-1,0.4-1.9,0.7-2.8c0.8-1.8,1.9-3.5,2.5-5.3c0.9-2.8,0.5-5.7-0.1-8.5c-0.6-2.8-1.6-5.6-1.9-8.4
					c-0.1-1.3-0.1-2.6,0.2-3.8c0.3-1.2,0.9-2.4,1.8-3.3c1.2-1.1,2.9-1.7,4.6-1.9c1.7-0.2,3.4,0.1,5,0.3s3.3,0.5,5,0.4
					c1.7-0.1,3.4-0.5,4.7-1.5c1.3-1,2.1-2.5,2.6-4.1c0.5-1.6,0.6-3.2,0.8-4.8c0.2-1.6,0.4-3.3,1.1-4.8
					C53.4,176.7,54.5,175.3,56,174.6z"/>
			</g>
			<g>
				<defs>
					<path id="SVGID_00000101065395440698996660000008145796508942945432_" d="M55,175.3c1.4-0.6,2.9-0.7,4.4-0.4
						c1.5,0.3,2.9,0.9,4.1,1.7c2.5,1.7,4.3,4.1,6,6.5c4,5.5,7.9,11.2,11.4,17.1c2.8,4.8,5.5,9.7,8.8,14.2c2.2,2.9,4.6,5.6,6.7,8.6
						c2.2,2.9,4.1,6.1,5,9.6c1.2,4.6,0.8,9.6-1.4,13.8c-1.5,2.9-3.9,5.5-6.7,7.2s-5.8,2.5-9.2,2.5c-5.3,0-10.4-2.8-15.3-4.8
						c-10-4-20.8-5.2-31.1-8.3c-3.2-0.9-6.3-2.1-9.4-2.9c-1.4-0.4-2.8-0.7-4.2-1.3c-1.3-0.6-2.6-1.5-3.3-2.8c-0.6-1-0.8-2.1-0.8-3.3
						c0-1.1,0.3-2.3,0.7-3.3c0.8-2.1,2-4.1,2.9-6.2c1.4-3.4,1.6-7.2,1.4-10.9c-0.2-3.7-0.8-7.4-1-11.1c-0.1-1.6-0.2-3.3,0.2-4.9
						c0.3-1.6,1-3.2,2.2-4.4c1.1-1.1,2.5-1.7,4-2c1.5-0.3,3-0.3,4.6-0.3c1.5,0,3,0.1,4.6,0c1.5-0.1,3-0.5,4.4-1.2
						c1.3-0.7,2.3-1.8,3.1-3c0.9-1.2,1.5-2.4,2.2-3.7c0.7-1.3,1.4-2.5,2.4-3.6C52.5,176.9,53.6,175.9,55,175.3z"/>
				</defs>
				<clipPath id="SVGID_00000179647597277325518490000007069026748413182848_">
					<use xlink:href="#SVGID_00000101065395440698996660000008145796508942945432_"  style="overflow:visible;"/>
				</clipPath>
				
					<linearGradient id="foot_left_glare_00000006670218309003900770000012038626365430028422_" gradientUnits="userSpaceOnUse" x1="84.211" y1="45.0325" x2="97.151" y2="20.6525" gradientTransform="matrix(1 0 0 -1 0 256)">
					<stop  offset="0" style="stop-color:#EBC411"/>
					<stop  offset="1" style="stop-color:#EBC411;stop-opacity:0"/>
				</linearGradient>
				
					<path id="foot_left_glare" style="clip-path:url(#SVGID_00000179647597277325518490000007069026748413182848_);fill:url(#foot_left_glare_00000006670218309003900770000012038626365430028422_);" d="
					M71.2,188.2c2.2,4.1,3.6,8.7,5.8,12.8c2.1,3.8,4.4,7.6,6.5,11.1c0.9,1.6,3.1,3.9,5.3,7.6c2,3.3,4,8,5.1,9.6
					c-0.6-1.8-2-6.8-3.5-10.3c-1.5-3.3-3.2-5.1-4.2-6.9c-2.1-3.5-4.3-6.6-6.5-9.9C76.7,197.7,74.4,192.6,71.2,188.2L71.2,188.2z"/>
			</g>
		</g>
		<g id="foot_right">
			<g>
				<defs>
					<path id="SVGID_00000007404739258144461900000006285754827018848684_" d="M126.9,0c-6,0-12,1.2-17.5,4.1
						c-5.8,3.1-10.5,8.1-13.4,14C93.1,24,92,30.3,91.8,37.2c-0.3,13.1,0.3,26.9,1.3,39.4c0.3,3.8,0.7,6,0.2,9.9
						c-1.6,8.3-8.9,13.9-12.8,21.2c-4.3,8-6.1,17.1-9.3,25.7c-3,7.8-7.1,15.1-9.9,22.9c-3.9,11-5.1,23-2.5,34.4
						c2,8.7,6.1,16.8,11.6,23.7c-0.8,1.4-1.6,2.9-2.4,4.3c-2.6,4.4-5.7,8.6-7.2,13.6c-0.7,2.4-1,5.1-0.5,7.6
						c0.5,2.5,1.8,4.9,3.8,6.5c1.3,1,2.9,1.7,4.5,2.1c1.6,0.4,3.3,0.5,5,0.4c6.4-0.1,12.6-2.1,18.7-3.7c3.7-1,7.3-1.8,11-2.6
						c13.1-2.7,27.8-1.6,40,0.1c4.1,0.6,8.2,1.4,12.3,2.4c6.4,1.5,12.7,3.5,19.2,3.7c1.7,0.1,3.5,0,5.1-0.4c1.7-0.4,3.3-1.1,4.6-2.1
						c2-1.6,3.3-4,3.8-6.5c0.5-2.5,0.2-5.1-0.6-7.6c-1.5-4.9-4.6-9.1-7.3-13.5c-1-1.8-2-3.5-3-5.3c7.9-8.9,14.3-19.1,17.9-30.4
						c4-12.3,4.8-25.6,3.1-38.4s-5.8-25.3-11.1-37.1c-6.7-14.8-12.4-20.1-16.5-33.1c-4.4-14-0.8-30.6-4.1-43.3
						c-1.2-4.3-3-8.5-5.4-12.2c-2.8-4.4-6.4-8.4-10.6-11.5C144.1,2.6,135.6,0,126.9,0L126.9,0z"/>
				</defs>
				<clipPath id="SVGID_00000094595596959236037990000011621117139913220229_">
					<use xlink:href="#SVGID_00000007404739258144461900000006285754827018848684_"  style="overflow:visible;"/>
				</clipPath>
				
					<linearGradient id="foot_right_shadow_00000043456467692614433210000016530532264737286322_" gradientUnits="userSpaceOnUse" x1="185.2608" y1="46.5617" x2="188.5308" y2="22.7917" gradientTransform="matrix(1 0 0 -1 0 256)">
					<stop  offset="0" style="stop-color:#020203"/>
					<stop  offset="1" style="stop-color:#020203;stop-opacity:0"/>
				</linearGradient>
				
					<path id="foot_right_shadow" style="opacity:0.2;clip-path:url(#SVGID_00000094595596959236037990000011621117139913220229_);fill:url(#foot_right_shadow_00000043456467692614433210000016530532264737286322_);enable-background:new    ;" d="
					M218.7,215.6c-0.4,1.3-1,2.6-1.8,3.8c-1.8,2.6-4.3,4.6-6.8,6.4c-4.3,3.1-8.9,5.9-12.9,9.4c-2.7,2.3-5.2,5-7.4,7.7
					c-1.9,2.4-3.8,4.8-6,6.9c-2.2,2.1-4.9,3.8-7.7,4.8c-3.5,1.1-7.1,1.1-10.5,0.2c-2.3-0.6-4.6-1.6-6.1-3.5s-1.9-4.4-2.1-6.9
					c-0.3-4.4,0.2-8.9,0.7-13.4c0.4-3.7,0.8-7.5,0.9-11.2c0.3-6.8-0.2-13.5-1.1-20.1c-0.2-1.1-0.3-2.2-0.2-3.4
					c0.1-1.1,0.5-2.3,1.3-3.2c0.7-0.8,1.8-1.3,2.8-1.5c1-0.2,2.1-0.2,3.1-0.3c2.4-0.1,4.9-0.2,7.2,0c1.5,0.1,3,0.4,4.5,0.6
					c2.5,0.2,5.1,0.1,7.6-0.6c2.7-0.8,5.3-2.3,8.1-2.7c1.1-0.2,2.3-0.1,3.4,0c1.1,0.1,2.2,0.5,3.1,1.1c0.7,0.5,1.1,1.2,1.5,2
					c0.6,1.1,0.9,2.4,1.1,3.7c0.2,1.1,0.2,2.3,0.5,3.4c0.5,1.8,1.6,3.4,2.9,4.6c1.3,1.2,2.9,2.2,4.4,3.2c1.5,1,3.1,1.9,4.7,2.7
					c0.8,0.4,1.6,0.7,2.3,1.1c0.7,0.4,1.4,1,1.9,1.7C218.6,213.1,218.9,214.4,218.7,215.6L218.7,215.6z"/>
			</g>
			
				<linearGradient id="foot_right_base_00000049931206187096148640000012573273592879652537_" gradientUnits="userSpaceOnUse" x1="169.4618" y1="4.2373" x2="210.9018" y2="71.4173" gradientTransform="matrix(1 0 0 -1 0 256)">
				<stop  offset="0" style="stop-color:#3D2C15"/>
				<stop  offset="1" style="stop-color:#AD7913"/>
			</linearGradient>
			<path id="foot_right_base" style="fill:url(#foot_right_base_00000049931206187096148640000012573273592879652537_);" d="
				M233.5,222.9c-2.3,2.7-5.4,4.4-8.5,6.1c-5.3,2.7-10.9,5.1-15.9,8.4c-3.4,2.2-6.5,4.8-9.4,7.5c-2.5,2.4-4.8,4.9-7.6,6.9
				c-2.8,2-6.1,3.5-9.5,4c-0.9,0.1-1.9,0.2-2.9,0.2c-3.2,0-6.5-0.8-9.5-2.1c-2.7-1.2-5.3-2.9-6.9-5.4c-1.6-2.5-1.9-5.6-1.9-8.6
				c0-5.2,1-10.4,1.9-15.6c0.8-4.3,1.5-8.6,1.9-12.9c0.9-7.9,0.8-15.8,0.3-23.7c-0.1-1.3-0.2-2.6,0-4c0.2-1.3,0.7-2.6,1.7-3.5
				c0.9-0.8,2.2-1.2,3.4-1.2c1.2-0.1,2.4,0.1,3.6,0.3c2.9,0.4,5.7,0.7,8.5,1.5c1.8,0.5,3.5,1.1,5.2,1.6c2.9,0.8,6,1.2,9,0.8
				c3.2-0.4,6.4-1.6,9.7-1.5c1.3,0,2.7,0.3,3.9,0.7c1.3,0.4,2.6,1,3.6,2c0.7,0.7,1.2,1.7,1.6,2.6c0.6,1.4,0.9,3,1,4.5
				c0.1,1.4,0.1,2.8,0.4,4.1c0.4,2.2,1.6,4.2,3,6c1.4,1.7,3.2,3.2,4.9,4.7c1.7,1.4,3.5,2.9,5.3,4.2c0.9,0.6,1.8,1.2,2.6,1.8
				c0.8,0.7,1.6,1.4,2.1,2.3c0.4,0.8,0.7,1.7,0.7,2.6c0,0.5-0.1,1-0.2,1.6C235.3,220.3,234.5,221.7,233.5,222.9L233.5,222.9z"/>
			<g>
				<defs>
					<path id="SVGID_00000048489432134272677820000012499238809630698114_" d="M233.5,222.9c-2.3,2.7-5.4,4.4-8.5,6.1
						c-5.3,2.7-10.9,5.1-15.9,8.4c-3.4,2.2-6.5,4.8-9.4,7.5c-2.5,2.4-4.8,4.9-7.6,6.9c-2.8,2-6.1,3.5-9.5,4
						c-0.9,0.1-1.9,0.2-2.9,0.2c-3.2,0-6.5-0.8-9.5-2.1c-2.7-1.2-5.3-2.9-6.9-5.4c-1.6-2.5-1.9-5.6-1.9-8.6c0-5.2,1-10.4,1.9-15.6
						c0.8-4.3,1.5-8.6,1.9-12.9c0.9-7.9,0.8-15.8,0.3-23.7c-0.1-1.3-0.2-2.6,0-4c0.2-1.3,0.7-2.6,1.7-3.5c0.9-0.8,2.2-1.2,3.4-1.2
						c1.2-0.1,2.4,0.1,3.6,0.3c2.9,0.4,5.7,0.7,8.5,1.5c1.8,0.5,3.5,1.1,5.2,1.6c2.9,0.8,6,1.2,9,0.8c3.2-0.4,6.4-1.6,9.7-1.5
						c1.3,0,2.7,0.3,3.9,0.7c1.3,0.4,2.6,1,3.6,2c0.7,0.7,1.2,1.7,1.6,2.6c0.6,1.4,0.9,3,1,4.5c0.1,1.4,0.1,2.8,0.4,4.1
						c0.4,2.2,1.6,4.2,3,6c1.4,1.7,3.2,3.2,4.9,4.7c1.7,1.4,3.5,2.9,5.3,4.2c0.9,0.6,1.8,1.2,2.6,1.8c0.8,0.7,1.6,1.4,2.1,2.3
						c0.4,0.8,0.7,1.7,0.7,2.6c0,0.5-0.1,1-0.2,1.6C235.3,220.3,234.5,221.7,233.5,222.9L233.5,222.9z"/>
				</defs>
				<clipPath id="SVGID_00000052069946974030292600000010893428452842826943_">
					<use xlink:href="#SVGID_00000048489432134272677820000012499238809630698114_"  style="overflow:visible;"/>
				</clipPath>
				
					<path id="foot_right_layer_1" style="clip-path:url(#SVGID_00000052069946974030292600000010893428452842826943_);fill:#CE8A0B;" d="
					M233.2,216.1c-0.5,1.3-1.3,2.6-2.2,3.7c-2.1,2.4-4.9,4-7.8,5.4c-4.9,2.4-9.9,4.6-14.5,7.5c-3.1,2-5.9,4.3-8.6,6.8
					c-2.3,2.1-4.4,4.4-6.9,6.2c-2.6,1.8-5.5,3.1-8.6,3.6c-3.8,0.6-7.7-0.2-11.2-1.7c-2.5-1.1-4.8-2.6-6.3-4.8
					c-1.4-2.3-1.8-5-1.8-7.7c0-4.7,0.9-9.4,1.7-14c0.7-3.9,1.4-7.7,1.8-11.6c0.8-7.1,0.7-14.2,0.2-21.3c-0.1-1.2-0.2-2.4,0-3.6
					c0.2-1.2,0.7-2.4,1.6-3.1c0.9-0.7,2-1.1,3.1-1.1c1.1-0.1,2.2,0.1,3.3,0.3c2.6,0.4,5.2,0.7,7.8,1.3c1.6,0.4,3.2,1,4.8,1.4
					c2.7,0.7,5.5,1.1,8.2,0.7c3-0.3,5.9-1.4,8.8-1.4c1.2,0,2.4,0.3,3.6,0.6c1.2,0.4,2.4,0.9,3.2,1.8c0.7,0.7,1.1,1.5,1.5,2.4
					c0.5,1.3,0.9,2.7,0.9,4.1c0,1.5-0.3,2.9-0.1,4.4c0.2,1.2,0.7,2.3,1.3,3.3c0.6,1,1.4,1.9,2.2,2.8c1.5,1.8,3,3.5,4.8,4.9
					c2.1,1.5,4.6,2.4,6.8,3.9c0.6,0.4,1.3,0.9,1.7,1.5C233.5,213.4,233.7,214.9,233.2,216.1L233.2,216.1z"/>
			</g>
			<g>
				<defs>
					<path id="SVGID_00000004518578499891068540000011149247261506404503_" d="M233.5,222.9c-2.3,2.7-5.4,4.4-8.5,6.1
						c-5.3,2.7-10.9,5.1-15.9,8.4c-3.4,2.2-6.5,4.8-9.4,7.5c-2.5,2.4-4.8,4.9-7.6,6.9c-2.8,2-6.1,3.5-9.5,4
						c-0.9,0.1-1.9,0.2-2.9,0.2c-3.2,0-6.5-0.8-9.5-2.1c-2.7-1.2-5.3-2.9-6.9-5.4c-1.6-2.5-1.9-5.6-1.9-8.6c0-5.2,1-10.4,1.9-15.6
						c0.8-4.3,1.5-8.6,1.9-12.9c0.9-7.9,0.8-15.8,0.3-23.7c-0.1-1.3-0.2-2.6,0-4c0.2-1.3,0.7-2.6,1.7-3.5c0.9-0.8,2.2-1.2,3.4-1.2
						c1.2-0.1,2.4,0.1,3.6,0.3c2.9,0.4,5.7,0.7,8.5,1.5c1.8,0.5,3.5,1.1,5.2,1.6c2.9,0.8,6,1.2,9,0.8c3.2-0.4,6.4-1.6,9.7-1.5
						c1.3,0,2.7,0.3,3.9,0.7c1.3,0.4,2.6,1,3.6,2c0.7,0.7,1.2,1.7,1.6,2.6c0.6,1.4,0.9,3,1,4.5c0.1,1.4,0.1,2.8,0.4,4.1
						c0.4,2.2,1.6,4.2,3,6c1.4,1.7,3.2,3.2,4.9,4.7c1.7,1.4,3.5,2.9,5.3,4.2c0.9,0.6,1.8,1.2,2.6,1.8c0.8,0.7,1.6,1.4,2.1,2.3
						c0.4,0.8,0.7,1.7,0.7,2.6c0,0.5-0.1,1-0.2,1.6C235.3,220.3,234.5,221.7,233.5,222.9L233.5,222.9z"/>
				</defs>
				<clipPath id="SVGID_00000132782499343150156510000009075618729047201675_">
					<use xlink:href="#SVGID_00000004518578499891068540000011149247261506404503_"  style="overflow:visible;"/>
				</clipPath>
				
					<path id="foot_right_layer_2" style="clip-path:url(#SVGID_00000132782499343150156510000009075618729047201675_);fill:#F5C023;" d="
					M232.9,214.6c-0.6,1.4-1.4,2.6-2.3,3.7c-2.1,2.6-5,4.4-8,5.5c-5,1.9-10.4,2.1-15.3,4.3c-3,1.3-5.6,3.3-8.4,5.1
					c-2.2,1.5-4.4,2.9-6.8,4c-2.7,1.2-5.6,1.9-8.5,2.3c-1.8,0.3-3.7,0.5-5.6,0.4c-1.9-0.1-3.7-0.5-5.4-1.5c-1.2-0.7-2.4-1.8-3-3.1
					c-0.7-1.5-0.9-3.2-0.9-4.9c0.1-4.5,1-9,1-13.5c0-3.9-0.8-7.8-1-11.7c-0.4-7.5,1.2-15.2-0.2-22.6c-0.2-1.2-0.5-2.4-0.5-3.6
					c0-0.6,0.1-1.2,0.3-1.8c0.2-0.6,0.6-1.1,1-1.4c0.4-0.3,0.8-0.5,1.3-0.6c0.5-0.1,0.9-0.1,1.4,0c0.9,0.1,1.8,0.5,2.7,0.8
					c2.6,0.8,5.4,0.8,8,1.4c1.7,0.4,3.3,1,4.9,1.4c2.8,0.8,5.6,1.1,8.5,0.8c3-0.4,6-1.5,9.1-1.4c1.3,0,2.5,0.3,3.7,0.6
					s2.4,0.9,3.3,1.8c0.6,0.7,1.1,1.5,1.5,2.4c0.6,1.3,1,2.7,0.9,4.1c0,0.7-0.1,1.5-0.2,2.2c-0.1,0.7-0.1,1.5,0.1,2.2
					c0.2,0.7,0.6,1.4,1,2c0.4,0.6,0.9,1.1,1.3,1.7c1.2,1.6,2.1,3.5,3.1,5.3s2,3.6,3.5,4.9c2.1,1.8,4.7,2.5,7,3.9
					c0.7,0.4,1.3,0.9,1.8,1.6c0.4,0.5,0.6,1.1,0.7,1.8C233.2,213.3,233.1,214,232.9,214.6L232.9,214.6z"/>
			</g>
			<g>
				<defs>
					<path id="SVGID_00000104699184317826587910000006788158948430970798_" d="M233.5,222.9c-2.3,2.7-5.4,4.4-8.5,6.1
						c-5.3,2.7-10.9,5.1-15.9,8.4c-3.4,2.2-6.5,4.8-9.4,7.5c-2.5,2.4-4.8,4.9-7.6,6.9c-2.8,2-6.1,3.5-9.5,4
						c-0.9,0.1-1.9,0.2-2.9,0.2c-3.2,0-6.5-0.8-9.5-2.1c-2.7-1.2-5.3-2.9-6.9-5.4c-1.6-2.5-1.9-5.6-1.9-8.6c0-5.2,1-10.4,1.9-15.6
						c0.8-4.3,1.5-8.6,1.9-12.9c0.9-7.9,0.8-15.8,0.3-23.7c-0.1-1.3-0.2-2.6,0-4c0.2-1.3,0.7-2.6,1.7-3.5c0.9-0.8,2.2-1.2,3.4-1.2
						c1.2-0.1,2.4,0.1,3.6,0.3c2.9,0.4,5.7,0.7,8.5,1.5c1.8,0.5,3.5,1.1,5.2,1.6c2.9,0.8,6,1.2,9,0.8c3.2-0.4,6.4-1.6,9.7-1.5
						c1.3,0,2.7,0.3,3.9,0.7c1.3,0.4,2.6,1,3.6,2c0.7,0.7,1.2,1.7,1.6,2.6c0.6,1.4,0.9,3,1,4.5c0.1,1.4,0.1,2.8,0.4,4.1
						c0.4,2.2,1.6,4.2,3,6c1.4,1.7,3.2,3.2,4.9,4.7c1.7,1.4,3.5,2.9,5.3,4.2c0.9,0.6,1.8,1.2,2.6,1.8c0.8,0.7,1.6,1.4,2.1,2.3
						c0.4,0.8,0.7,1.7,0.7,2.6c0,0.5-0.1,1-0.2,1.6C235.3,220.3,234.5,221.7,233.5,222.9L233.5,222.9z"/>
				</defs>
				<clipPath id="SVGID_00000048473023488104154200000010505558471177254568_">
					<use xlink:href="#SVGID_00000104699184317826587910000006788158948430970798_"  style="overflow:visible;"/>
				</clipPath>
				
					<linearGradient id="foot_right_glare_00000101790891805493199090000003968878042190605225_" gradientUnits="userSpaceOnUse" x1="191.3113" y1="74.3845" x2="190.0913" y2="63.4145" gradientTransform="matrix(1 0 0 -1 0 256)">
					<stop  offset="0" style="stop-color:#F2CD0E"/>
					<stop  offset="1" style="stop-color:#F2CD0E;stop-opacity:0"/>
				</linearGradient>
				
					<path id="foot_right_glare" style="clip-path:url(#SVGID_00000048473023488104154200000010505558471177254568_);fill:url(#foot_right_glare_00000101790891805493199090000003968878042190605225_);" d="
					M168.1,181.6c2.8-0.8,5.2,1.4,7.3,3c1.3,1.1,3.2,0.9,4.9,0.9c2.7-0.1,5.4,0.4,8.1,0.1c5.3-0.4,10.5-1.8,15.8-2
					c2.5-0.2,5.4-0.3,7.6,1.2c0.9,0.6,2.2,3.2,3.1,2.2c-0.4-2.7-2.4-5.4-5.1-6.1c-2.1-0.3-4.3,0.2-6.5,0.1c-6.4-0.1-12.8-1.3-19.2-1
					c-4.5,0-8.9-0.2-13.4-0.3c-1.8-0.4-2.4,1.2-3.3,1.8C167.6,181.6,167.6,181.7,168.1,181.6L168.1,181.6z"/>
			</g>
		</g>
	</g>
	<g id="wing_tip_right">
		<g id="wing_tip_right_shadow">
			<g>
				<defs>
					<path id="SVGID_00000112630549142602155550000004817442894817677986_" d="M233.5,222.9c-2.3,2.7-5.4,4.4-8.5,6.1
						c-5.3,2.7-10.9,5.1-15.9,8.4c-3.4,2.2-6.5,4.8-9.4,7.5c-2.5,2.4-4.8,4.9-7.6,6.9c-2.8,2-6.1,3.5-9.5,4
						c-0.9,0.1-1.9,0.2-2.9,0.2c-3.2,0-6.5-0.8-9.5-2.1c-2.7-1.2-5.3-2.9-6.9-5.4c-1.6-2.5-1.9-5.6-1.9-8.6c0-5.2,1-10.4,1.9-15.6
						c0.8-4.3,1.5-8.6,1.9-12.9c0.9-7.9,0.8-15.8,0.3-23.7c-0.1-1.3-0.2-2.6,0-4c0.2-1.3,0.7-2.6,1.7-3.5c0.9-0.8,2.2-1.2,3.4-1.2
						c1.2-0.1,2.4,0.1,3.6,0.3c2.9,0.4,5.7,0.7,8.5,1.5c1.8,0.5,3.5,1.1,5.2,1.6c2.9,0.8,6,1.2,9,0.8c3.2-0.4,6.4-1.6,9.7-1.5
						c1.3,0,2.7,0.3,3.9,0.7c1.3,0.4,2.6,1,3.6,2c0.7,0.7,1.2,1.7,1.6,2.6c0.6,1.4,0.9,3,1,4.5c0.1,1.4,0.1,2.8,0.4,4.1
						c0.4,2.2,1.6,4.2,3,6c1.4,1.7,3.2,3.2,4.9,4.7c1.7,1.4,3.5,2.9,5.3,4.2c0.9,0.6,1.8,1.2,2.6,1.8c0.8,0.7,1.6,1.4,2.1,2.3
						c0.4,0.8,0.7,1.7,0.7,2.6c0,0.5-0.1,1-0.2,1.6C235.3,220.3,234.5,221.7,233.5,222.9L233.5,222.9z"/>
				</defs>
				<clipPath id="SVGID_00000129169457427269514350000001083729840594042516_">
					<use xlink:href="#SVGID_00000112630549142602155550000004817442894817677986_"  style="overflow:visible;"/>
				</clipPath>
				
					<radialGradient id="wing_tip_right_shadow_lower_00000164479882426870269440000001447754386104512665_" cx="0.9826" cy="256.2508" r="1" gradientTransform="matrix(18.9901 5.0884 5.342 -19.9367 -1197.8484 5298.3271)" gradientUnits="userSpaceOnUse">
					<stop  offset="0" style="stop-color:#100B06"/>
					<stop  offset="0.59" style="stop-color:#A75C16;stop-opacity:0.8"/>
					<stop  offset="1" style="stop-color:#F3912B;stop-opacity:0"/>
				</radialGradient>
				
					<path id="wing_tip_right_shadow_lower" style="opacity:0.35;clip-path:url(#SVGID_00000129169457427269514350000001083729840594042516_);fill:url(#wing_tip_right_shadow_lower_00000164479882426870269440000001447754386104512665_);enable-background:new    ;" d="
					M205.5,187.6c-0.5-0.9-1.4-1.7-2.4-2.1c-1-0.4-2.1-0.6-3.1-0.5c-2.1,0-4.2,0.6-6.4,0.4c-1.8-0.2-3.5-0.8-5.2-1.3
					c-1.8-0.4-3.7-0.6-5.5-0.1c-1.9,0.5-3.6,1.8-4.7,3.5c-0.9,1.5-1.4,3.2-1.5,5s0,3.5,0.2,5.2c0.1,1.3,0.3,2.5,0.6,3.8
					c0.3,1.2,0.8,2.4,1.5,3.5c1.1,1.5,2.7,2.5,4.4,3.2c2.8,1,6,1,8.7-0.1c4.9-2.1,9-5.9,11.5-10.6c0.9-1.7,1.6-3.5,2.1-5.3
					c0.2-0.7,0.3-1.5,0.3-2.2C206,189.1,205.8,188.3,205.5,187.6L205.5,187.6z"/>
			</g>
			<g>
				<defs>
					<path id="SVGID_00000148645242703462139350000003161718859742007952_" d="M233.5,222.9c-2.3,2.7-5.4,4.4-8.5,6.1
						c-5.3,2.7-10.9,5.1-15.9,8.4c-3.4,2.2-6.5,4.8-9.4,7.5c-2.5,2.4-4.8,4.9-7.6,6.9c-2.8,2-6.1,3.5-9.5,4
						c-0.9,0.1-1.9,0.2-2.9,0.2c-3.2,0-6.5-0.8-9.5-2.1c-2.7-1.2-5.3-2.9-6.9-5.4c-1.6-2.5-1.9-5.6-1.9-8.6c0-5.2,1-10.4,1.9-15.6
						c0.8-4.3,1.5-8.6,1.9-12.9c0.9-7.9,0.8-15.8,0.3-23.7c-0.1-1.3-0.2-2.6,0-4c0.2-1.3,0.7-2.6,1.7-3.5c0.9-0.8,2.2-1.2,3.4-1.2
						c1.2-0.1,2.4,0.1,3.6,0.3c2.9,0.4,5.7,0.7,8.5,1.5c1.8,0.5,3.5,1.1,5.2,1.6c2.9,0.8,6,1.2,9,0.8c3.2-0.4,6.4-1.6,9.7-1.5
						c1.3,0,2.7,0.3,3.9,0.7c1.3,0.4,2.6,1,3.6,2c0.7,0.7,1.2,1.7,1.6,2.6c0.6,1.4,0.9,3,1,4.5c0.1,1.4,0.1,2.8,0.4,4.1
						c0.4,2.2,1.6,4.2,3,6c1.4,1.7,3.2,3.2,4.9,4.7c1.7,1.4,3.5,2.9,5.3,4.2c0.9,0.6,1.8,1.2,2.6,1.8c0.8,0.7,1.6,1.4,2.1,2.3
						c0.4,0.8,0.7,1.7,0.7,2.6c0,0.5-0.1,1-0.2,1.6C235.3,220.3,234.5,221.7,233.5,222.9L233.5,222.9z"/>
				</defs>
				<clipPath id="SVGID_00000178164055355827621520000005440892824997875903_">
					<use xlink:href="#SVGID_00000148645242703462139350000003161718859742007952_"  style="overflow:visible;"/>
				</clipPath>
				
					<radialGradient id="wing_tip_right_shadow_upper_00000182501392906801437080000002655596021758029450_" cx="1.0123" cy="255.9432" r="1" gradientTransform="matrix(19.7224 -0.8335 -0.6275 -14.8467 330.3384 3990.657)" gradientUnits="userSpaceOnUse">
					<stop  offset="0" style="stop-color:#100B06"/>
					<stop  offset="0.59" style="stop-color:#A75C16;stop-opacity:0.8"/>
					<stop  offset="1" style="stop-color:#F3912B;stop-opacity:0"/>
				</radialGradient>
				
					<path id="wing_tip_right_shadow_upper" style="opacity:0.35;clip-path:url(#SVGID_00000178164055355827621520000005440892824997875903_);fill:url(#wing_tip_right_shadow_upper_00000182501392906801437080000002655596021758029450_);enable-background:new    ;" d="
					M205.5,184.9c-0.5-0.7-1.4-1.2-2.4-1.5c-1-0.3-2.1-0.4-3.1-0.4c-2.1,0-4.2,0.4-6.4,0.3c-1.8-0.1-3.5-0.6-5.2-0.9
					c-1.8-0.3-3.7-0.4-5.5-0.1c-1.9,0.4-3.6,1.3-4.7,2.5c-0.9,1.1-1.4,2.3-1.5,3.6c-0.1,1.3,0,2.5,0.2,3.8c0.1,0.9,0.3,1.8,0.6,2.7
					c0.3,0.9,0.8,1.8,1.5,2.5c1.1,1.1,2.7,1.8,4.4,2.3c2.8,0.8,6,0.7,8.7-0.1c4.9-1.5,9-4.3,11.5-7.7c0.9-1.2,1.6-2.5,2.1-3.8
					c0.2-0.5,0.3-1.1,0.3-1.6C206,185.9,205.8,185.4,205.5,184.9L205.5,184.9z"/>
			</g>
		</g>
		<path id="wing_tip_right_base" class="st0" d="M209.5,178.7c-0.4-0.9-1-1.8-1.7-2.5c-0.8-0.7-1.6-1.2-2.6-1.6
			c-1.9-0.8-3.9-1.1-5.9-1.5c-1.9-0.4-3.7-0.8-5.6-1.1c-2-0.3-4-0.6-5.9-0.1c-1.7,0.4-3.3,1.3-4.5,2.4s-2.3,2.6-3,4.2
			c-1.3,2.8-1.7,5.9-1.4,9c0.2,2.3,0.8,4.6,2.2,6.3c1.2,1.4,2.9,2.3,4.7,2.8c3,0.9,6.4,0.9,9.4-0.1c5-1.7,9.4-5,12.4-9.3
			c1-1.4,1.8-3,2.2-4.7C210,181.3,210,179.9,209.5,178.7L209.5,178.7z"/>
		<g id="wing_tip_right_glare">
			<g>
				<defs>
					<path id="SVGID_00000147934409933042554340000003509326143007114650_" d="M209.5,178.7c-0.4-0.9-1-1.8-1.7-2.5
						c-0.8-0.7-1.6-1.2-2.6-1.6c-1.9-0.8-3.9-1.1-5.9-1.5c-1.9-0.4-3.7-0.8-5.6-1.1c-2-0.3-4-0.6-5.9-0.1c-1.7,0.4-3.3,1.3-4.5,2.4
						s-2.3,2.6-3,4.2c-1.3,2.8-1.7,5.9-1.4,9c0.2,2.3,0.8,4.6,2.2,6.3c1.2,1.4,2.9,2.3,4.7,2.8c3,0.9,6.4,0.9,9.4-0.1
						c5-1.7,9.4-5,12.4-9.3c1-1.4,1.8-3,2.2-4.7C210,181.3,210,179.9,209.5,178.7L209.5,178.7z"/>
				</defs>
				<clipPath id="SVGID_00000182504469647334759410000002280220660870257587_">
					<use xlink:href="#SVGID_00000147934409933042554340000003509326143007114650_"  style="overflow:visible;"/>
				</clipPath>
				<g id="wing_tip_right_glare_1" style="clip-path:url(#SVGID_00000182504469647334759410000002280220660870257587_);">
					
						<radialGradient id="path_wing_tip_right_glare_00000124142864313346826920000001460847052683552141_" cx="2.639" cy="258.4844" r="1" gradientTransform="matrix(6.3736 2.7713 1.28 -2.9438 -143.0261 930.2233)" gradientUnits="userSpaceOnUse">
						<stop  offset="0" style="stop-color:#7C7C7D"/>
						<stop  offset="1" style="stop-color:#7C7C7D;stop-opacity:0.33"/>
					</radialGradient>
					
						<path id="path_wing_tip_right_glare" style="fill:url(#path_wing_tip_right_glare_00000124142864313346826920000001460847052683552141_);" d="
						M188.9,171.1c-0.5,0-0.9,0.1-1.4,0.2c-3,0.5-5.7,2.4-7.3,5c-1.1,1.9-1.6,4-1.4,6.2c0.1-1.5,0.5-3,1.2-4.3
						c1.2-2.2,3.5-3.9,6-4.4c1.5-0.3,3.1-0.1,4.7,0.1c1.5,0.2,3,0.4,4.5,0.7c2.3,0.5,4.5,1.3,6.4,2.6c0.4,0.3,0.9,0.7,1.2,1.1
						c0.4,0.4,0.6,0.9,0.7,1.4c0.1,0.8-0.1,1.6-0.5,2.3c-0.4,0.7-0.9,1.3-1.5,1.9c-0.5,0.5-0.9,0.9-1.4,1.3c2.2-0.4,4.4-1,6.3-2.3
						c0.8-0.6,1.5-1.2,1.9-2c0.5-0.8,0.6-1.8,0.4-2.8c-0.2-0.6-0.5-1.2-0.9-1.7s-0.9-0.9-1.4-1.2c-2.3-1.6-5-2.6-7.8-3
						c-1.8-0.3-3.6-0.6-5.4-0.8C191.8,171.1,190.3,171,188.9,171.1L188.9,171.1z"/>
				</g>
			</g>
			<g>
				<defs>
					<path id="SVGID_00000055705651957398695390000014420845969390226581_" d="M209.5,178.7c-0.4-0.9-1-1.8-1.7-2.5
						c-0.8-0.7-1.6-1.2-2.6-1.6c-1.9-0.8-3.9-1.1-5.9-1.5c-1.9-0.4-3.7-0.8-5.6-1.1c-2-0.3-4-0.6-5.9-0.1c-1.7,0.4-3.3,1.3-4.5,2.4
						s-2.3,2.6-3,4.2c-1.3,2.8-1.7,5.9-1.4,9c0.2,2.3,0.8,4.6,2.2,6.3c1.2,1.4,2.9,2.3,4.7,2.8c3,0.9,6.4,0.9,9.4-0.1
						c5-1.7,9.4-5,12.4-9.3c1-1.4,1.8-3,2.2-4.7C210,181.3,210,179.9,209.5,178.7L209.5,178.7z"/>
				</defs>
				<clipPath id="SVGID_00000147217535263695878080000011919543611977137596_">
					<use xlink:href="#SVGID_00000055705651957398695390000014420845969390226581_"  style="overflow:visible;"/>
				</clipPath>
				<g id="wing_tip_right_glare_2" style="clip-path:url(#SVGID_00000147217535263695878080000011919543611977137596_);">
					
						<linearGradient id="path_wing_tip_right_glare_00000083083520446922223970000002841301348874778791_" gradientUnits="userSpaceOnUse" x1="185.8983" y1="77.5337" x2="188.4783" y2="77.6437" gradientTransform="matrix(1 0 0 -1 0 256)">
						<stop  offset="0" style="stop-color:#7C7C7D"/>
						<stop  offset="1" style="stop-color:#7C7C7D;stop-opacity:0.33"/>
					</linearGradient>
					
						<path id="path_wing_tip_right_glare_00000033344904495609239780000013506011028590721208_" style="fill:url(#path_wing_tip_right_glare_00000083083520446922223970000002841301348874778791_);" d="
						M188.9,171.1c-0.5,0-0.9,0.1-1.4,0.2c-3,0.5-5.7,2.4-7.3,5c-1.1,1.9-1.6,4-1.4,6.2c0.1-1.5,0.5-3,1.2-4.3
						c1.2-2.2,3.5-3.9,6-4.4c1.5-0.3,3.1-0.1,4.7,0.1c1.5,0.2,3,0.4,4.5,0.7c2.3,0.5,4.5,1.3,6.4,2.6c0.4,0.3,0.9,0.7,1.2,1.1
						c0.4,0.4,0.6,0.9,0.7,1.4c0.1,0.8-0.1,1.6-0.5,2.3c-0.4,0.7-0.9,1.3-1.5,1.9c-0.5,0.5-0.9,0.9-1.4,1.3c2.2-0.4,4.4-1,6.3-2.3
						c0.8-0.6,1.5-1.2,1.9-2c0.5-0.8,0.6-1.8,0.4-2.8c-0.2-0.6-0.5-1.2-0.9-1.7s-0.9-0.9-1.4-1.2c-2.3-1.6-5-2.6-7.8-3
						c-1.8-0.3-3.6-0.6-5.4-0.8C191.8,171.1,190.3,171,188.9,171.1L188.9,171.1z"/>
				</g>
			</g>
		</g>
	</g>
	<g id="face">
		<g id="eyes">
			<g id="eye_left">
				
					<radialGradient id="eyeball_left_00000054266682818483671740000010707757504779655069_" cx="1.953" cy="255.9866" r="1" gradientTransform="matrix(10.2394 -0.1072 -0.1642 -15.6791 128.5246 4065.2698)" gradientUnits="userSpaceOnUse">
					<stop  offset="0" style="stop-color:#FFFFFD"/>
					<stop  offset="0.75" style="stop-color:#FFFFFD"/>
					<stop  offset="1" style="stop-color:#D5D5D4"/>
				</radialGradient>
				<path id="eyeball_left" style="fill:url(#eyeball_left_00000054266682818483671740000010707757504779655069_);" d="M104.4,38.3
					c-1.5,0.1-3,0.8-4.1,1.8c-1.1,1-1.9,2.4-2.4,3.9c-1,2.9-0.8,6.1-0.5,9.2c0.2,2.8,0.4,5.6,1.4,8.2c0.5,1.3,1.2,2.5,2.2,3.5
					c1,1,2.2,1.8,3.6,2.1c1.3,0.3,2.6,0.3,3.9-0.1c1.2-0.4,2.4-1.1,3.3-2c1.4-1.3,2.3-3.1,2.8-4.9c0.5-1.8,0.7-3.8,0.7-5.7
					c0-2.4-0.3-4.8-1.1-7c-0.8-2.3-1.9-4.4-3.6-6.1c-0.8-0.8-1.7-1.5-2.8-2.1C106.8,38.5,105.6,38.2,104.4,38.3z"/>
				<g id="pupil_left">
					<path id="pupil_left_base" class="st0" d="M100.7,51c-0.3,1.9-0.3,4,0.3,5.8c0.4,1.2,1.2,2.3,2.1,3.3c0.6,0.6,1.2,1.2,2,1.5
						c0.8,0.4,1.7,0.5,2.5,0.3c0.8-0.2,1.4-0.7,1.9-1.3c0.5-0.6,0.8-1.3,1.1-2.1c0.7-2.2,0.6-4.6-0.1-6.8c-0.5-1.6-1.3-3.2-2.6-4.2
						c-0.6-0.5-1.3-0.9-2.1-1.1c-0.8-0.2-1.6-0.1-2.4,0.2c-0.8,0.4-1.4,1.1-1.8,1.9C101.1,49.2,100.9,50.1,100.7,51L100.7,51z"/>
					<g>
						<defs>
							<path id="SVGID_00000152949590075765336930000008507676723052670142_" d="M100.7,51c-0.3,1.9-0.3,4,0.3,5.8
								c0.4,1.2,1.2,2.3,2.1,3.3c0.6,0.6,1.2,1.2,2,1.5c0.8,0.4,1.7,0.5,2.5,0.3c0.8-0.2,1.4-0.7,1.9-1.3c0.5-0.6,0.8-1.3,1.1-2.1
								c0.7-2.2,0.6-4.6-0.1-6.8c-0.5-1.6-1.3-3.2-2.6-4.2c-0.6-0.5-1.3-0.9-2.1-1.1c-0.8-0.2-1.6-0.1-2.4,0.2
								c-0.8,0.4-1.4,1.1-1.8,1.9C101.1,49.2,100.9,50.1,100.7,51L100.7,51z"/>
						</defs>
						<clipPath id="SVGID_00000034068471012758420480000007418778209469635758_">
							<use xlink:href="#SVGID_00000152949590075765336930000008507676723052670142_"  style="overflow:visible;"/>
						</clipPath>
						
							<linearGradient id="pupil_left_glare_00000018215074568898241420000010431354831133932730_" gradientUnits="userSpaceOnUse" x1="104.4281" y1="209.4372" x2="109.4581" y2="200.4472" gradientTransform="matrix(1 0 0 -1 0 256)">
							<stop  offset="0" style="stop-color:#757575;stop-opacity:0"/>
							<stop  offset="0.25" style="stop-color:#757575"/>
							<stop  offset="0.5" style="stop-color:#757575"/>
							<stop  offset="1" style="stop-color:#757575;stop-opacity:0"/>
						</linearGradient>
						
							<path id="pupil_left_glare" style="clip-path:url(#SVGID_00000034068471012758420480000007418778209469635758_);fill:url(#pupil_left_glare_00000018215074568898241420000010431354831133932730_);" d="
							M104.8,49.6c0.2,0.5,0.9,0.8,1.3,1.2c0.4,0.4,0.8,0.9,1,1.4c0.4,1-0.4,2.5,0.4,3.2c0.2,0.2,0.8,0.2,1,0c1-0.9,0.8-2.7,0.4-4
							c-0.4-1.2-1.2-2.2-2.3-2.8c-0.5-0.3-1.2-0.5-1.7-0.1C104.7,48.8,104.7,49.3,104.8,49.6z"/>
					</g>
				</g>
				<g>
					<defs>
						<path id="SVGID_00000147931569050209527060000004467401530918539420_" d="M104.4,38.3c-1.5,0.1-3,0.8-4.1,1.8
							c-1.1,1-1.9,2.4-2.4,3.9c-1,2.9-0.8,6.1-0.5,9.2c0.2,2.8,0.4,5.6,1.4,8.2c0.5,1.3,1.2,2.5,2.2,3.5c1,1,2.2,1.8,3.6,2.1
							c1.3,0.3,2.6,0.3,3.9-0.1c1.2-0.4,2.4-1.1,3.3-2c1.4-1.3,2.3-3.1,2.8-4.9c0.5-1.8,0.7-3.8,0.7-5.7c0-2.4-0.3-4.8-1.1-7
							c-0.8-2.3-1.9-4.4-3.6-6.1c-0.8-0.8-1.7-1.5-2.8-2.1C106.8,38.5,105.6,38.2,104.4,38.3z"/>
					</defs>
					<clipPath id="SVGID_00000098943038612245524160000012595363773655852686_">
						<use xlink:href="#SVGID_00000147931569050209527060000004467401530918539420_"  style="overflow:visible;"/>
					</clipPath>
					
						<radialGradient id="eyelid_left_00000035500024871769705820000014640516205114440342_" cx="3.1575" cy="255.4369" r="1" gradientTransform="matrix(6.167 -1.0154 -0.9374 -5.6933 324.8702 1501.2355)" gradientUnits="userSpaceOnUse">
						<stop  offset="0" style="stop-color:#C9C9C9"/>
						<stop  offset="1" style="stop-color:#7A7A78"/>
					</radialGradient>
					
						<path id="eyelid_left" style="clip-path:url(#SVGID_00000098943038612245524160000012595363773655852686_);fill:url(#eyelid_left_00000035500024871769705820000014640516205114440342_);" d="
						M101.1,44.5c2.3-1.4,5.1-1.7,7.8-1.5c2.7,0.3,5.3,1,7.9,1.8c1.9,0.5,3.8,1,5.6,1.8c1.8,0.8,3.4,2.1,4.4,3.8
						c0.2,0.3,0.3,0.6,0.5,0.8s0.4,0.5,0.6,0.7c0.2,0.2,0.6,0.3,0.9,0.3c0.2,0,0.3,0,0.4-0.1c0.1-0.1,0.3-0.2,0.3-0.3
						c0.1-0.2,0.1-0.3,0.1-0.5c0-0.2-0.1-0.4-0.1-0.5c-0.7-2.4-2.2-4.4-3.3-6.5c-0.7-1.3-1.3-2.7-2-4c-2.4-4.5-6.4-7.9-10.9-10.2
						s-9.6-3.4-14.7-3.6C92.8,26,87,26.7,81.2,27.7c-2.5,0.4-5.1,1-7.3,2.2c-1.1,0.6-2.1,1.4-2.9,2.4c-0.8,1-1.4,2.2-1.6,3.4
						c-0.2,1.2,0,2.5,0.4,3.6c0.4,1.2,1.1,2.2,1.9,3.2c1.5,1.9,3.5,3.4,5.4,5c1.8,1.6,3.5,3.4,5.6,4.8c1,0.7,2.1,1.2,3.3,1.6
						c1.2,0.3,2.4,0.4,3.6,0.2c1.2-0.2,2.4-0.9,3.4-1.6c1-0.8,1.9-1.7,2.7-2.7C97.4,47.9,99,45.8,101.1,44.5z"/>
				</g>
				
					<linearGradient id="eyebrow_left_00000054952550845781504070000000387598266497054600_" gradientUnits="userSpaceOnUse" x1="104.736" y1="224.6123" x2="115.626" y2="213.4923" gradientTransform="matrix(1 0 0 -1 0 256)">
					<stop  offset="0" style="stop-color:#656565;stop-opacity:0"/>
					<stop  offset="0.31" style="stop-color:#656565;stop-opacity:0.58"/>
					<stop  offset="0.47" style="stop-color:#656565"/>
					<stop  offset="0.73" style="stop-color:#656565;stop-opacity:0.26"/>
					<stop  offset="1" style="stop-color:#656565;stop-opacity:0"/>
				</linearGradient>
				<path id="eyebrow_left" style="fill:url(#eyebrow_left_00000054952550845781504070000000387598266497054600_);" d="M110.8,36.6
					c2.2,2,3.8,4.5,4.8,7.2c-0.5-2.9-1.2-5.3-3.1-7.2c-1.2-1.1-2.5-2-4-2.7c-1.3-0.6-2.8-1-3.6-1c-0.8,0-1,0-1.2,0
					c-0.2,0-0.3,0,0.2,0.1c0.5,0.1,1.8,0.4,3.1,1S109.6,35.5,110.8,36.6z"/>
			</g>
			<g id="eye_right">
				
					<radialGradient id="eyeball_right_00000132048565876018905980000017999885646620505785_" cx="1.4656" cy="255.9599" r="1" gradientTransform="matrix(13.6333 -0.4284 -0.4925 -15.6723 244.1453 4063.5093)" gradientUnits="userSpaceOnUse">
					<stop  offset="0" style="stop-color:#FFFFFD"/>
					<stop  offset="0.75" style="stop-color:#FFFFFD"/>
					<stop  offset="1" style="stop-color:#D5D5D4"/>
				</radialGradient>
				<path id="eyeball_right" style="fill:url(#eyeball_right_00000132048565876018905980000017999885646620505785_);" d="
					M131.6,38.3c-2.4,1.7-4.4,3.9-5.4,6.7c-1.2,3.5-0.8,7.3,0.4,10.8c1.2,3.5,3.3,6.9,6.4,9.1c1.5,1.1,3.3,1.8,5.2,2
					c1.9,0.2,3.8-0.1,5.5-0.9c2-1.1,3.6-2.9,4.5-5c1-2.1,1.4-4.4,1.5-6.7c0.2-2.9-0.1-5.9-1.1-8.6c-1-3-2.9-5.8-5.6-7.5
					c-1.3-0.9-2.8-1.5-4.4-1.7c-1.6-0.2-3.2,0-4.7,0.5C133.1,37.3,132.4,37.8,131.6,38.3z"/>
				<g id="pupil_right">
					<path id="pupil_right_base" class="st0" d="M137.1,45.5c-0.9,0.1-1.8,0.4-2.6,0.8c-0.8,0.5-1.4,1.1-1.9,1.9
						c-1,1.5-1.5,3.3-1.6,5.1c-0.1,1.3,0.1,2.7,0.6,4s1.2,2.5,2.2,3.3c1.1,0.9,2.4,1.4,3.8,1.5c1.4,0.1,2.8-0.3,3.9-1.1
						c0.9-0.6,1.6-1.5,2.2-2.5c0.5-1,0.8-2,1-3.2c0.2-1.9,0-4-0.9-5.7c-0.9-1.7-2.4-3.2-4.2-3.8C138.8,45.6,138,45.5,137.1,45.5z"/>
					<g>
						<defs>
							<path id="SVGID_00000142168057446388262770000009330142787453216446_" d="M137.1,45.5c-0.9,0.1-1.8,0.4-2.6,0.8
								c-0.8,0.5-1.4,1.1-1.9,1.9c-1,1.5-1.5,3.3-1.6,5.1c-0.1,1.3,0.1,2.7,0.6,4s1.2,2.5,2.2,3.3c1.1,0.9,2.4,1.4,3.8,1.5
								c1.4,0.1,2.8-0.3,3.9-1.1c0.9-0.6,1.6-1.5,2.2-2.5c0.5-1,0.8-2,1-3.2c0.2-1.9,0-4-0.9-5.7c-0.9-1.7-2.4-3.2-4.2-3.8
								C138.8,45.6,138,45.5,137.1,45.5z"/>
						</defs>
						<clipPath id="SVGID_00000143603594568124304000000009710924460907077796_">
							<use xlink:href="#SVGID_00000142168057446388262770000009330142787453216446_"  style="overflow:visible;"/>
						</clipPath>
						
							<linearGradient id="pupil_right_glare_00000141436071789945306340000009549976290714587798_" gradientUnits="userSpaceOnUse" x1="137.8802" y1="208.7586" x2="143.6702" y2="201.8986" gradientTransform="matrix(1 0 0 -1 0 256)">
							<stop  offset="0" style="stop-color:#949494;stop-opacity:0.39"/>
							<stop  offset="0.5" style="stop-color:#949494"/>
							<stop  offset="1" style="stop-color:#949494;stop-opacity:0.39"/>
						</linearGradient>
						
							<path id="pupil_right_glare" style="clip-path:url(#SVGID_00000143603594568124304000000009710924460907077796_);fill:url(#pupil_right_glare_00000141436071789945306340000009549976290714587798_);" d="
							M142.7,53.4c1-1-0.7-3.7-2.1-4.7c-1-0.8-3.8-1.6-3.7-0.8c0.1,0.8,1.4,2,2.2,2.8C140.3,51.7,142.2,53.8,142.7,53.4z"/>
					</g>
				</g>
				<g>
					<defs>
						<path id="SVGID_00000036942318608351723630000003667817766215705004_" d="M131.6,38.3c-2.4,1.7-4.4,3.9-5.4,6.7
							c-1.2,3.5-0.8,7.3,0.4,10.8c1.2,3.5,3.3,6.9,6.4,9.1c1.5,1.1,3.3,1.8,5.2,2c1.9,0.2,3.8-0.1,5.5-0.9c2-1.1,3.6-2.9,4.5-5
							c1-2.1,1.4-4.4,1.5-6.7c0.2-2.9-0.1-5.9-1.1-8.6c-1-3-2.9-5.8-5.6-7.5c-1.3-0.9-2.8-1.5-4.4-1.7c-1.6-0.2-3.2,0-4.7,0.5
							C133.1,37.3,132.4,37.8,131.6,38.3z"/>
					</defs>
					<clipPath id="SVGID_00000129177972399546630700000005700609779604398221_">
						<use xlink:href="#SVGID_00000036942318608351723630000003667817766215705004_"  style="overflow:visible;"/>
					</clipPath>
					
						<linearGradient id="eyelid_right_00000132050362103862204070000006970455651793329070_" gradientUnits="userSpaceOnUse" x1="133.9552" y1="221.573" x2="152.3752" y2="210.793" gradientTransform="matrix(1 0 0 -1 0 256)">
						<stop  offset="0" style="stop-color:#757575"/>
						<stop  offset="0.13" style="stop-color:#8C8C8C"/>
						<stop  offset="0.25" style="stop-color:#A5A4A4"/>
						<stop  offset="0.5" style="stop-color:#D5D5D4"/>
						<stop  offset="0.62" style="stop-color:#D5D5D4"/>
						<stop  offset="1" style="stop-color:#7C7C7D"/>
					</linearGradient>
					
						<path id="eyelid_right" style="clip-path:url(#SVGID_00000129177972399546630700000005700609779604398221_);fill:url(#eyelid_right_00000132050362103862204070000006970455651793329070_);" d="
						M122.6,47c2.1-1.7,4.4-3,7-3.8c5.2-1.6,11.2-1,15.8,2c1.6,1,3,2.3,4.5,3.5c1.5,1.2,3.1,2.3,4.9,2.9c1,0.3,2,0.5,3,0.4
						c0.9-0.1,1.8-0.4,2.6-1c0.8-0.5,1.4-1.2,1.9-2c1-1.6,1.3-3.5,1.1-5.3c-0.3-3.7-2.4-6.9-4.1-10.2c-0.6-1-1.1-2.1-1.7-3
						c-2-2.9-5.2-4.9-8.6-6c-3.4-1.1-6.9-1.5-10.5-2c-1.6-0.2-3.2-0.4-4.7-0.2c-1.8,0.2-3.5,1-5.3,1.4c-0.8,0.2-1.7,0.4-2.5,0.6
						c-0.8,0.2-1.7,0.6-2.3,1.1c-1,0.8-1.6,2-1.9,3.2c-0.3,1.2-0.2,2.5,0,3.8c0.4,2.5,1.3,4.9,1.2,7.5c-0.1,1.7-0.6,3.4-0.5,5.2
						C122.4,45.5,122.5,46.5,122.6,47L122.6,47z"/>
				</g>
				
					<linearGradient id="eyebrow_right_00000123401602763012757810000013226484611951494071_" gradientUnits="userSpaceOnUse" x1="139.7547" y1="225.0696" x2="152.0147" y2="213.4896" gradientTransform="matrix(1 0 0 -1 0 256)">
					<stop  offset="0" style="stop-color:#656565;stop-opacity:0"/>
					<stop  offset="0.31" style="stop-color:#656565;stop-opacity:0.58"/>
					<stop  offset="0.47" style="stop-color:#656565"/>
					<stop  offset="0.73" style="stop-color:#656565;stop-opacity:0.26"/>
					<stop  offset="1" style="stop-color:#656565;stop-opacity:0"/>
				</linearGradient>
				<path id="eyebrow_right" style="fill:url(#eyebrow_right_00000123401602763012757810000013226484611951494071_);" d="
					M139.9,31.2c-0.4,0.5-0.8,1.1-1.1,1.7c1.9,0.4,3.6,1.2,5.2,2.2c3.1,2,5.4,5,7,8.3c0.4-0.4,0.7-0.9,1-1.4c-1.6-3.4-4-6.5-7.2-8.7
					C143.4,32.4,141.7,31.6,139.9,31.2z"/>
			</g>
		</g>
		<g id="beak">
			<g id="beak_shadow">
				<g>
					<defs>
						<path id="SVGID_00000112633096799677408920000014112587684374289565_" d="M126.9,0c-6,0-12,1.2-17.5,4.1
							c-5.8,3.1-10.5,8.1-13.4,14C93.1,24,92,30.3,91.8,37.2c-0.3,13.1,0.3,26.9,1.3,39.4c0.3,3.8,0.7,6,0.2,9.9
							c-1.6,8.3-8.9,13.9-12.8,21.2c-4.3,8-6.1,17.1-9.3,25.7c-3,7.8-7.1,15.1-9.9,22.9c-3.9,11-5.1,23-2.5,34.4
							c2,8.7,6.1,16.8,11.6,23.7c-0.8,1.4-1.6,2.9-2.4,4.3c-2.6,4.4-5.7,8.6-7.2,13.6c-0.7,2.4-1,5.1-0.5,7.6
							c0.5,2.5,1.8,4.9,3.8,6.5c1.3,1,2.9,1.7,4.5,2.1c1.6,0.4,3.3,0.5,5,0.4c6.4-0.1,12.6-2.1,18.7-3.7c3.7-1,7.3-1.8,11-2.6
							c13.1-2.7,27.8-1.6,40,0.1c4.1,0.6,8.2,1.4,12.3,2.4c6.4,1.5,12.7,3.5,19.2,3.7c1.7,0.1,3.5,0,5.1-0.4
							c1.7-0.4,3.3-1.1,4.6-2.1c2-1.6,3.3-4,3.8-6.5c0.5-2.5,0.2-5.1-0.6-7.6c-1.5-4.9-4.6-9.1-7.3-13.5c-1-1.8-2-3.5-3-5.3
							c7.9-8.9,14.3-19.1,17.9-30.4c4-12.3,4.8-25.6,3.1-38.4s-5.8-25.3-11.1-37.1c-6.7-14.8-12.4-20.1-16.5-33.1
							c-4.4-14-0.8-30.6-4.1-43.3c-1.2-4.3-3-8.5-5.4-12.2c-2.8-4.4-6.4-8.4-10.6-11.5C144.1,2.6,135.6,0,126.9,0L126.9,0z"/>
					</defs>
					<clipPath id="SVGID_00000133491408468445291170000004527188083038912681_">
						<use xlink:href="#SVGID_00000112633096799677408920000014112587684374289565_"  style="overflow:visible;"/>
					</clipPath>
					
						<path id="beak_shadow_lower" style="clip-path:url(#SVGID_00000133491408468445291170000004527188083038912681_);fill:#020203;fill-opacity:0.2588;" d="
						M101.1,89.3c1.5,4.3,4.4,7.9,7.9,10.7c1.2,0.9,2.4,1.8,3.8,2.4c1.4,0.6,2.9,1,4.4,0.8c1.5-0.1,2.8-0.7,4.1-1.4s2.5-1.6,3.7-2.4
						c2.1-1.3,4.4-2.4,6.6-3.6c2.7-1.4,5.2-3.1,7.5-5.1c1-0.9,2-1.9,3.1-2.8c1.1-0.8,2.5-1.4,3.9-1.3c1,0.1,2,0.5,3,0.7
						c0.5,0.1,1,0.2,1.6,0.1c0.5-0.1,1-0.3,1.4-0.7c0.4-0.5,0.6-1.1,0.6-1.8c0-0.6-0.2-1.2-0.5-1.8c-0.6-1.1-1.5-2.1-1.9-3.3
						c-0.4-1.1-0.3-2.2-0.3-3.4c0-1.1,0-2.3-0.5-3.3c-0.4-0.8-1.1-1.4-1.8-1.8c-0.8-0.4-1.6-0.6-2.5-0.7c-1.7-0.2-3.4,0.2-5.2,0.3
						c-2.3,0.1-4.6-0.2-6.9,0c-2.8,0.2-5.6,1-8.5,1c-3.3,0-6.5-1.1-9.7-0.6c-1.4,0.2-2.7,0.7-4,1.2c-1.3,0.4-2.7,0.8-4.1,0.8
						c-1.6,0-3.1-0.6-4.7-0.7c-0.8-0.1-1.6,0-2.3,0.3c-0.7,0.3-1.4,0.8-1.8,1.5c-0.2,0.4-0.3,0.9-0.3,1.3c0,0.5,0,0.9,0.2,1.4
						c0.2,0.9,0.6,1.7,1,2.6C99.8,82.9,100.1,86.2,101.1,89.3z"/>
				</g>
				<g>
					<defs>
						<path id="SVGID_00000159467146129680209570000006557358854922499204_" d="M126.9,0c-6,0-12,1.2-17.5,4.1
							c-5.8,3.1-10.5,8.1-13.4,14C93.1,24,92,30.3,91.8,37.2c-0.3,13.1,0.3,26.9,1.3,39.4c0.3,3.8,0.7,6,0.2,9.9
							c-1.6,8.3-8.9,13.9-12.8,21.2c-4.3,8-6.1,17.1-9.3,25.7c-3,7.8-7.1,15.1-9.9,22.9c-3.9,11-5.1,23-2.5,34.4
							c2,8.7,6.1,16.8,11.6,23.7c-0.8,1.4-1.6,2.9-2.4,4.3c-2.6,4.4-5.7,8.6-7.2,13.6c-0.7,2.4-1,5.1-0.5,7.6
							c0.5,2.5,1.8,4.9,3.8,6.5c1.3,1,2.9,1.7,4.5,2.1c1.6,0.4,3.3,0.5,5,0.4c6.4-0.1,12.6-2.1,18.7-3.7c3.7-1,7.3-1.8,11-2.6
							c13.1-2.7,27.8-1.6,40,0.1c4.1,0.6,8.2,1.4,12.3,2.4c6.4,1.5,12.7,3.5,19.2,3.7c1.7,0.1,3.5,0,5.1-0.4
							c1.7-0.4,3.3-1.1,4.6-2.1c2-1.6,3.3-4,3.8-6.5c0.5-2.5,0.2-5.1-0.6-7.6c-1.5-4.9-4.6-9.1-7.3-13.5c-1-1.8-2-3.5-3-5.3
							c7.9-8.9,14.3-19.1,17.9-30.4c4-12.3,4.8-25.6,3.1-38.4s-5.8-25.3-11.1-37.1c-6.7-14.8-12.4-20.1-16.5-33.1
							c-4.4-14-0.8-30.6-4.1-43.3c-1.2-4.3-3-8.5-5.4-12.2c-2.8-4.4-6.4-8.4-10.6-11.5C144.1,2.6,135.6,0,126.9,0L126.9,0z"/>
					</defs>
					<clipPath id="SVGID_00000173864175724456674050000006683430516111664258_">
						<use xlink:href="#SVGID_00000159467146129680209570000006557358854922499204_"  style="overflow:visible;"/>
					</clipPath>
					
						<path id="beak_shadow_upper" style="opacity:0.3;clip-path:url(#SVGID_00000173864175724456674050000006683430516111664258_);fill:#020203;enable-background:new    ;" d="
						M97,77.2c2.8,1.8,5.4,3.9,7.6,6.4c2,2.3,3.7,4.9,6.3,6.6c1.8,1.2,4,1.9,6.3,2.1c2.6,0.2,5.3-0.2,7.8-0.8
						c2.3-0.6,4.6-1.5,6.7-2.7c4-2.2,7.3-5.6,11.6-7c0.9-0.3,1.9-0.6,2.9-1c0.9-0.4,1.8-1,2.2-1.8c0.4-0.8,0.4-1.8,0.5-2.6
						c0.1-1,0.5-1.9,0.7-2.8c0.2-0.9,0.2-2-0.2-2.8c-0.4-0.7-1-1.3-1.8-1.7c-0.8-0.4-1.6-0.5-2.5-0.6c-1.7-0.1-3.4,0.3-5.2,0.5
						c-2.3,0.2-4.6-0.1-6.9,0c-2.9,0.1-5.7,0.7-8.5,0.8c-3.2,0.1-6.5-0.3-9.7-0.4c-1.4-0.1-2.8,0-4.2,0.2c-1.4,0.2-2.8,0.7-3.9,1.4
						c-1.1,0.7-2.1,1.6-3.1,2.4c-0.5,0.4-1.1,0.8-1.7,1.1c-0.6,0.3-1.3,0.5-2,0.5c-0.3,0-0.7,0-1.1,0c-0.6,0.1-1.1,0.4-1.5,0.8
						C97,76.1,96.9,76.7,97,77.2L97,77.2z"/>
				</g>
			</g>
			
				<radialGradient id="beak_base_00000058577017559986346820000010274167688288094080_" cx="1.4144" cy="254.8675" r="1" gradientTransform="matrix(9.2552 -6.7243 -6.1012 -8.3976 1659.55 2209.9048)" gradientUnits="userSpaceOnUse">
				<stop  offset="0" style="stop-color:#030405"/>
				<stop  offset="0.73" style="stop-color:#030405"/>
				<stop  offset="1" style="stop-color:#5D5D5D"/>
			</radialGradient>
			<path id="beak_base" style="fill:url(#beak_base_00000058577017559986346820000010274167688288094080_);" d="M111.7,58.5
				c1.5-1.7,2.6-3.8,4-5.6c0.7-0.9,1.6-1.7,2.6-2.3s2.2-0.9,3.3-0.8c1.3,0.1,2.5,0.7,3.4,1.6s1.6,2,2.2,3.1c0.5,1.1,0.9,2.3,1.7,3.2
				c0.8,1,1.9,1.7,3,2.5c0.5,0.4,1,0.8,1.4,1.3c0.4,0.5,0.7,1.1,0.9,1.7c0.1,0.7,0.1,1.3-0.2,2c-0.2,0.6-0.6,1.2-1.1,1.6
				c-0.9,0.9-2.2,1.4-3.6,1.6c-2.6,0.4-5.3-0.4-7.9-0.3c-2.7,0.1-5.3,1-8,0.9c-1.3-0.1-2.7-0.4-3.8-1.1c-0.6-0.4-1-0.9-1.4-1.4
				c-0.3-0.6-0.6-1.2-0.6-1.9c0-0.6,0.1-1.3,0.4-1.9c0.2-0.6,0.6-1.1,1-1.6C109.8,60.3,110.8,59.5,111.7,58.5z"/>
			<g id="mandible_lower">
				
					<radialGradient id="mandible_lower_base_00000174570046139496907180000007846115254248435109_" cx="0.6811" cy="255.6003" r="1" gradientTransform="matrix(25.1014 -10.3461 -7.267 -17.6311 1970.1251 4584.1699)" gradientUnits="userSpaceOnUse">
					<stop  offset="0" style="stop-color:#D2950F"/>
					<stop  offset="0.75" style="stop-color:#D79C0A"/>
					<stop  offset="0.87" style="stop-color:#B67F11"/>
					<stop  offset="1" style="stop-color:#946214"/>
				</radialGradient>
				
					<path id="mandible_lower_base" style="fill:url(#mandible_lower_base_00000174570046139496907180000007846115254248435109_);" d="
					M97.1,75.1c0.1,0.3,0.2,0.5,0.3,0.7c0.2,0.4,0.6,0.7,0.9,0.9c0.4,0.3,0.8,0.5,1.1,0.7c2,1.3,3.7,3,5.1,4.9
					c1.9,2.5,3.7,5.3,6.3,7.1c1.8,1.3,4,2,6.3,2.3c2.6,0.3,5.3-0.2,7.8-0.9c2.3-0.7,4.6-1.7,6.7-2.9c4-2.4,7.3-6,11.6-7.6
					c0.9-0.3,1.9-0.6,2.9-1c0.9-0.4,1.8-1.1,2.2-2c0.4-0.9,0.4-1.9,0.5-2.9c0.1-1,0.5-2,0.7-3.1c0.2-1,0.2-2.1-0.2-3.1
					c-0.4-0.8-1-1.4-1.8-1.8c-0.8-0.4-1.6-0.6-2.5-0.6c-1.7-0.1-3.4,0.4-5.2,0.5c-2.3,0.2-4.6-0.1-6.9,0c-2.9,0.1-5.7,0.7-8.5,0.9
					c-3.2,0.2-6.5-0.3-9.7-0.5c-1.4-0.1-2.8,0-4.2,0.2c-1.4,0.2-2.8,0.7-3.9,1.5c-1.1,0.8-2,1.8-3.1,2.7c-0.5,0.4-1.1,0.9-1.7,1.2
					c-0.6,0.3-1.3,0.5-2,0.5c-0.3,0-0.7-0.1-1.1,0c-0.2,0.1-0.4,0.2-0.6,0.3c-0.2,0.2-0.3,0.3-0.4,0.5
					C97.6,74.1,97.3,74.6,97.1,75.1L97.1,75.1z"/>
				<g>
					<defs>
						<path id="SVGID_00000140726995049642471990000018155856848749308549_" d="M97.1,75.1c0.1,0.3,0.2,0.5,0.3,0.7
							c0.2,0.4,0.6,0.7,0.9,0.9c0.4,0.3,0.8,0.5,1.1,0.7c2,1.3,3.7,3,5.1,4.9c1.9,2.5,3.7,5.3,6.3,7.1c1.8,1.3,4,2,6.3,2.3
							c2.6,0.3,5.3-0.2,7.8-0.9c2.3-0.7,4.6-1.7,6.7-2.9c4-2.4,7.3-6,11.6-7.6c0.9-0.3,1.9-0.6,2.9-1c0.9-0.4,1.8-1.1,2.2-2
							c0.4-0.9,0.4-1.9,0.5-2.9c0.1-1,0.5-2,0.7-3.1c0.2-1,0.2-2.1-0.2-3.1c-0.4-0.8-1-1.4-1.8-1.8c-0.8-0.4-1.6-0.6-2.5-0.6
							c-1.7-0.1-3.4,0.4-5.2,0.5c-2.3,0.2-4.6-0.1-6.9,0c-2.9,0.1-5.7,0.7-8.5,0.9c-3.2,0.2-6.5-0.3-9.7-0.5c-1.4-0.1-2.8,0-4.2,0.2
							c-1.4,0.2-2.8,0.7-3.9,1.5c-1.1,0.8-2,1.8-3.1,2.7c-0.5,0.4-1.1,0.9-1.7,1.2c-0.6,0.3-1.3,0.5-2,0.5c-0.3,0-0.7-0.1-1.1,0
							c-0.2,0.1-0.4,0.2-0.6,0.3c-0.2,0.2-0.3,0.3-0.4,0.5C97.6,74.1,97.3,74.6,97.1,75.1L97.1,75.1z"/>
					</defs>
					<clipPath id="SVGID_00000050655088659525139910000011870495731707625108_">
						<use xlink:href="#SVGID_00000140726995049642471990000018155856848749308549_"  style="overflow:visible;"/>
					</clipPath>
					
						<path id="mandible_lower_glare" style="clip-path:url(#SVGID_00000050655088659525139910000011870495731707625108_);fill:#D9B312;" d="
						M109.9,78.6c-0.3,1.4-0.1,2.9,0.6,4.1c0.7,1.2,1.8,2.2,3.2,2.7c1.7,0.6,3.6,0.3,5.2-0.5c0.9-0.5,1.8-1.2,2.3-2.1
						c0.3-0.4,0.5-0.9,0.5-1.5c0.1-0.5,0-1.1-0.2-1.5c-0.2-0.5-0.6-1-1-1.4c-0.4-0.4-0.9-0.6-1.5-0.8c-1.1-0.4-2.8-0.7-3.9-0.7
						C113.1,76.8,110.2,77.2,109.9,78.6z"/>
				</g>
			</g>
			<g id="mandible_upper">
				<g>
					<defs>
						<path id="SVGID_00000027604153363767518850000004214132646990789822_" d="M97.1,75.1c0.1,0.3,0.2,0.5,0.3,0.7
							c0.2,0.4,0.6,0.7,0.9,0.9c0.4,0.3,0.8,0.5,1.1,0.7c2,1.3,3.7,3,5.1,4.9c1.9,2.5,3.7,5.3,6.3,7.1c1.8,1.3,4,2,6.3,2.3
							c2.6,0.3,5.3-0.2,7.8-0.9c2.3-0.7,4.6-1.7,6.7-2.9c4-2.4,7.3-6,11.6-7.6c0.9-0.3,1.9-0.6,2.9-1c0.9-0.4,1.8-1.1,2.2-2
							c0.4-0.9,0.4-1.9,0.5-2.9c0.1-1,0.5-2,0.7-3.1c0.2-1,0.2-2.1-0.2-3.1c-0.4-0.8-1-1.4-1.8-1.8c-0.8-0.4-1.6-0.6-2.5-0.6
							c-1.7-0.1-3.4,0.4-5.2,0.5c-2.3,0.2-4.6-0.1-6.9,0c-2.9,0.1-5.7,0.7-8.5,0.9c-3.2,0.2-6.5-0.3-9.7-0.5c-1.4-0.1-2.8,0-4.2,0.2
							c-1.4,0.2-2.8,0.7-3.9,1.5c-1.1,0.8-2,1.8-3.1,2.7c-0.5,0.4-1.1,0.9-1.7,1.2c-0.6,0.3-1.3,0.5-2,0.5c-0.3,0-0.7-0.1-1.1,0
							c-0.2,0.1-0.4,0.2-0.6,0.3c-0.2,0.2-0.3,0.3-0.4,0.5C97.6,74.1,97.3,74.6,97.1,75.1L97.1,75.1z"/>
					</defs>
					<clipPath id="SVGID_00000029025201080109188190000007099478995355349674_">
						<use xlink:href="#SVGID_00000027604153363767518850000004214132646990789822_"  style="overflow:visible;"/>
					</clipPath>
					
						<path id="mandible_upper_shadow" style="clip-path:url(#SVGID_00000029025201080109188190000007099478995355349674_);fill:#604610;" d="
						M104.3,67.9c-1.2,0.7-2.3,1.4-3.4,2.2c-0.6,0.4-1.2,0.8-1.4,1.5c-0.2,0.4-0.3,0.9-0.3,1.4c0,0.5,0,1,0,1.5c0,0.3-0.1,0.7-0.1,1
						c0,0.2,0,0.3,0,0.5c0.1,0.2,0.1,0.3,0.2,0.4c0.2,0.2,0.3,0.3,0.6,0.3s0.4,0.1,0.6,0.1c1,0.2,1.9,0.9,2.7,1.6
						c0.8,0.7,1.5,1.5,2.3,2.1c2.2,1.8,5.1,2.5,7.9,2.6c2.8,0.1,5.6-0.5,8.4-1.2c2.2-0.5,4.3-1,6.4-1.8c3.2-1.2,6.2-3,8.7-5.2
						c1.2-1,2.3-2.1,3.6-2.9c1.1-0.7,2.4-1.2,3.6-1.9c0.1-0.1,0.2-0.1,0.3-0.2c0.1-0.1,0.2-0.2,0.2-0.3c0.1-0.2,0.1-0.4,0-0.6
						c-0.1-0.2-0.2-0.4-0.3-0.6c-0.2-0.2-0.3-0.3-0.5-0.5c-1.2-1.1-2.9-1.4-4.5-1.6c-1.6-0.1-3.2,0-4.8-0.3
						c-1.5-0.2-2.9-0.8-4.4-1.3c-1.5-0.5-3.1-0.9-4.6-1.1c-3.7-0.6-7.5-0.5-11.2,0.3C110.8,64.7,107.4,66,104.3,67.9L104.3,67.9z"/>
				</g>
				
					<linearGradient id="mandible_upper_base_00000164498256546238780950000010711103112504203683_" gradientUnits="userSpaceOnUse" x1="98.0879" y1="187.0119" x2="146.7679" y2="187.3919" gradientTransform="matrix(1 0 0 -1 0 256)">
					<stop  offset="0" style="stop-color:#AD7913"/>
					<stop  offset="0.12" style="stop-color:#D89E0C"/>
					<stop  offset="0.25" style="stop-color:#EDB80F"/>
					<stop  offset="0.39" style="stop-color:#EAC813"/>
					<stop  offset="0.53" style="stop-color:#F5D83B"/>
					<stop  offset="0.77" style="stop-color:#F7D810"/>
					<stop  offset="1" style="stop-color:#F5CD32"/>
				</linearGradient>
				
					<path id="mandible_upper_base" style="fill:url(#mandible_upper_base_00000164498256546238780950000010711103112504203683_);" d="
					M103.9,64c-1.7,1.1-3.2,2.5-4.4,4c-0.7,0.9-1.4,1.9-1.7,2.9c-0.3,0.9-0.4,1.8-0.6,2.7c-0.1,0.3-0.2,0.7-0.1,1
					c0,0.2,0,0.3,0.1,0.5c0.1,0.2,0.1,0.3,0.2,0.4c0.2,0.2,0.5,0.3,0.7,0.4c0.3,0.1,0.6,0.1,0.8,0.1c1.2,0.2,2.4,0.8,3.4,1.5
					c1,0.7,2,1.6,3.1,2.2c2.3,1.5,5.2,2.2,7.9,2.3c2.8,0.1,5.6-0.3,8.3-0.9c2.2-0.4,4.3-0.9,6.4-1.8c3.2-1.2,6-3.2,8.7-5.2
					c1.2-0.9,2.5-1.9,3.6-2.9c0.4-0.4,0.7-0.7,1.1-1.1c0.4-0.3,0.8-0.6,1.3-0.8c0.8-0.2,1.6-0.2,2.4,0c0.6,0.1,1.2,0.2,1.8,0.2
					c0.3,0,0.6-0.1,0.9-0.2s0.5-0.3,0.7-0.5c0.2-0.3,0.4-0.7,0.4-1.1c0-0.4-0.1-0.8-0.3-1.1c-0.4-0.7-1.1-1.1-1.8-1.5
					c-1-0.4-2.1-0.7-3.1-0.9c-3.2-0.8-6.4-1.9-9.3-3.4c-1.5-0.7-2.9-1.5-4.4-2.3c-1.5-0.8-3-1.6-4.6-2.1c-3.6-1.1-7.6-0.7-11.2,0.5
					C110.3,58.3,106.7,60.7,103.9,64z"/>
				<g>
					<defs>
						<path id="SVGID_00000000915022804038557450000015250092707548013968_" d="M103.9,64c-1.7,1.1-3.2,2.5-4.4,4
							c-0.7,0.9-1.4,1.9-1.7,2.9c-0.3,0.9-0.4,1.8-0.6,2.7c-0.1,0.3-0.2,0.7-0.1,1c0,0.2,0,0.3,0.1,0.5c0.1,0.2,0.1,0.3,0.2,0.4
							c0.2,0.2,0.5,0.3,0.7,0.4c0.3,0.1,0.6,0.1,0.8,0.1c1.2,0.2,2.4,0.8,3.4,1.5c1,0.7,2,1.6,3.1,2.2c2.3,1.5,5.2,2.2,7.9,2.3
							c2.8,0.1,5.6-0.3,8.3-0.9c2.2-0.4,4.3-0.9,6.4-1.8c3.2-1.2,6-3.2,8.7-5.2c1.2-0.9,2.5-1.9,3.6-2.9c0.4-0.4,0.7-0.7,1.1-1.1
							c0.4-0.3,0.8-0.6,1.3-0.8c0.8-0.2,1.6-0.2,2.4,0c0.6,0.1,1.2,0.2,1.8,0.2c0.3,0,0.6-0.1,0.9-0.2s0.5-0.3,0.7-0.5
							c0.2-0.3,0.4-0.7,0.4-1.1c0-0.4-0.1-0.8-0.3-1.1c-0.4-0.7-1.1-1.1-1.8-1.5c-1-0.4-2.1-0.7-3.1-0.9c-3.2-0.8-6.4-1.9-9.3-3.4
							c-1.5-0.7-2.9-1.5-4.4-2.3c-1.5-0.8-3-1.6-4.6-2.1c-3.6-1.1-7.6-0.7-11.2,0.5C110.3,58.3,106.7,60.7,103.9,64z"/>
					</defs>
					<clipPath id="SVGID_00000070809410884050805430000017577958532762542235_">
						<use xlink:href="#SVGID_00000000915022804038557450000015250092707548013968_"  style="overflow:visible;"/>
					</clipPath>
					
						<path id="mandible_upper_glare" style="clip-path:url(#SVGID_00000070809410884050805430000017577958532762542235_);fill:#F6DA4B;" d="
						M129.4,64.8c-0.2-0.2-0.5-0.4-0.8-0.5c-0.3-0.1-0.6-0.1-0.9,0c-0.6,0.1-1.2,0.4-1.7,0.8c-1.5,1-2.8,2.3-3.9,3.6
						c-1.5,1.8-2.7,3.9-3.2,6.3c-0.1,0.4-0.1,0.8-0.1,1.2c0.1,0.4,0.2,0.8,0.5,1.1c0.2,0.2,0.6,0.4,0.9,0.4c0.3,0.1,0.7,0,1-0.1
						c0.7-0.2,1.2-0.7,1.7-1.2c2.9-2.6,5.5-5.7,6.5-9.4c0.1-0.4,0.2-0.8,0.2-1.1S129.7,65.1,129.4,64.8z"/>
				</g>
				
					<radialGradient id="naris_left_00000118370871216652698440000013075980790916323258_" cx="15.1515" cy="256" r="1" gradientTransform="matrix(1.32 0 0 -1.42 92.11 423.4)" gradientUnits="userSpaceOnUse">
					<stop  offset="0" style="stop-color:#392B15"/>
					<stop  offset="0.55" style="stop-color:#735312"/>
					<stop  offset="1" style="stop-color:#AB8C11"/>
				</radialGradient>
				
					<path id="naris_left" style="opacity:0.8;fill:url(#naris_left_00000118370871216652698440000013075980790916323258_);enable-background:new    ;" d="
					M112.7,59.1c-0.8-0.2-2,1.1-1.6,1.8c0.1,0.2,0.5,0.4,0.7,0.3c0.3-0.2,0.6-0.9,1-1.2C113.1,59.8,113,59.2,112.7,59.1z"/>
				
					<radialGradient id="naris_right_00000018954704336486418800000013412348593780761232_" cx="7.1942" cy="256" r="1" gradientTransform="matrix(2.78 0 0 -1.62 104.65 474.42)" gradientUnits="userSpaceOnUse">
					<stop  offset="0" style="stop-color:#392B15"/>
					<stop  offset="0.55" style="stop-color:#735312"/>
					<stop  offset="1" style="stop-color:#AB8C11"/>
				</radialGradient>
				
					<path id="naris_right" style="opacity:0.8;fill:url(#naris_right_00000018954704336486418800000013412348593780761232_);enable-background:new    ;" d="
					M122.6,59.4c0.2,0.6,1.2,0.5,1.8,0.8c0.5,0.3,0.9,0.9,1.5,0.9c0.6,0,1.4-0.2,1.5-0.8c0.1-0.7-1-1.2-1.7-1.5
					c-0.9-0.3-2-0.5-2.9-0.1C122.7,59,122.5,59.2,122.6,59.4z"/>
			</g>
			<g>
				<defs>
					<path id="SVGID_00000088115855244647115740000002597364541280620700_" d="M97.1,75.1c0.1,0.3,0.2,0.5,0.3,0.7
						c0.2,0.4,0.6,0.7,0.9,0.9c0.4,0.3,0.8,0.5,1.1,0.7c2,1.3,3.7,3,5.1,4.9c1.9,2.5,3.7,5.3,6.3,7.1c1.8,1.3,4,2,6.3,2.3
						c2.6,0.3,5.3-0.2,7.8-0.9c2.3-0.7,4.6-1.7,6.7-2.9c4-2.4,7.3-6,11.6-7.6c0.9-0.3,1.9-0.6,2.9-1c0.9-0.4,1.8-1.1,2.2-2
						c0.4-0.9,0.4-1.9,0.5-2.9c0.1-1,0.5-2,0.7-3.1c0.2-1,0.2-2.1-0.2-3.1c-0.4-0.8-1-1.4-1.8-1.8c-0.8-0.4-1.6-0.6-2.5-0.6
						c-1.7-0.1-3.4,0.4-5.2,0.5c-2.3,0.2-4.6-0.1-6.9,0c-2.9,0.1-5.7,0.7-8.5,0.9c-3.2,0.2-6.5-0.3-9.7-0.5c-1.4-0.1-2.8,0-4.2,0.2
						c-1.4,0.2-2.8,0.7-3.9,1.5c-1.1,0.8-2,1.8-3.1,2.7c-0.5,0.4-1.1,0.9-1.7,1.2c-0.6,0.3-1.3,0.5-2,0.5c-0.3,0-0.7-0.1-1.1,0
						c-0.2,0.1-0.4,0.2-0.6,0.3c-0.2,0.2-0.3,0.3-0.4,0.5C97.6,74.1,97.3,74.6,97.1,75.1L97.1,75.1z"/>
				</defs>
				<defs>
					<path id="SVGID_00000072988056955012962610000006284623988570610622_" d="M103.9,64c-1.7,1.1-3.2,2.5-4.4,4
						c-0.7,0.9-1.4,1.9-1.7,2.9c-0.3,0.9-0.4,1.8-0.6,2.7c-0.1,0.3-0.2,0.7-0.1,1c0,0.2,0,0.3,0.1,0.5c0.1,0.2,0.1,0.3,0.2,0.4
						c0.2,0.2,0.5,0.3,0.7,0.4c0.3,0.1,0.6,0.1,0.8,0.1c1.2,0.2,2.4,0.8,3.4,1.5c1,0.7,2,1.6,3.1,2.2c2.3,1.5,5.2,2.2,7.9,2.3
						c2.8,0.1,5.6-0.3,8.3-0.9c2.2-0.4,4.3-0.9,6.4-1.8c3.2-1.2,6-3.2,8.7-5.2c1.2-0.9,2.5-1.9,3.6-2.9c0.4-0.4,0.7-0.7,1.1-1.1
						c0.4-0.3,0.8-0.6,1.3-0.8c0.8-0.2,1.6-0.2,2.4,0c0.6,0.1,1.2,0.2,1.8,0.2c0.3,0,0.6-0.1,0.9-0.2s0.5-0.3,0.7-0.5
						c0.2-0.3,0.4-0.7,0.4-1.1c0-0.4-0.1-0.8-0.3-1.1c-0.4-0.7-1.1-1.1-1.8-1.5c-1-0.4-2.1-0.7-3.1-0.9c-3.2-0.8-6.4-1.9-9.3-3.4
						c-1.5-0.7-2.9-1.5-4.4-2.3c-1.5-0.8-3-1.6-4.6-2.1c-3.6-1.1-7.6-0.7-11.2,0.5C110.3,58.3,106.7,60.7,103.9,64z"/>
				</defs>
				<clipPath id="SVGID_00000011006818684160179270000015665592267389658528_">
					<use xlink:href="#SVGID_00000088115855244647115740000002597364541280620700_"  style="overflow:visible;"/>
				</clipPath>
				
					<clipPath id="SVGID_00000155838276730727453150000013095885093992792748_" style="clip-path:url(#SVGID_00000011006818684160179270000015665592267389658528_);">
					<use xlink:href="#SVGID_00000072988056955012962610000006284623988570610622_"  style="overflow:visible;"/>
				</clipPath>
				
					<linearGradient id="beak_corner_00000103262314535515427720000004082882001784683392_" gradientUnits="userSpaceOnUse" x1="146.8056" y1="188.51" x2="146.8056" y2="184.91" gradientTransform="matrix(1 0 0 -1 0 256)">
					<stop  offset="0" style="stop-color:#F6CF2E"/>
					<stop  offset="1" style="stop-color:#D69B0B"/>
				</linearGradient>
				
					<path id="beak_corner" style="clip-path:url(#SVGID_00000155838276730727453150000013095885093992792748_);fill:url(#beak_corner_00000103262314535515427720000004082882001784683392_);" d="
					M149.3,69.2c-0.2,1.7-1.5,3-2.8,3c-1.4,0-2.3-1.4-2.1-3c0.2-1.7,1.4-3,2.8-3.1c0,0,0,0,0,0C148.5,66.1,149.5,67.5,149.3,69.2
					C149.3,69.1,149.3,69.1,149.3,69.2z"/>
			</g>
		</g>
	</g>
</g>
</svg>
