<?xml version="1.0" encoding="utf-8"?>
<!-- Generator: Adobe Illustrator 27.3.1, SVG Export Plug-In . SVG Version: 6.00 Build 0)  -->
<svg version="1.1" id="Calque_1" xmlns="http://www.w3.org/2000/svg" xmlns:xlink="http://www.w3.org/1999/xlink" x="0px" y="0px"
	 viewBox="0 0 256 256" style="enable-background:new 0 0 256 256;" xml:space="preserve">
<style type="text/css">
	.st0{fill:#221F20;}
</style>
<path class="st0" d="M128,0C57.3,0,0,57.3,0,128s57.3,128,128,128s128-57.3,128-128S198.7,0,128,0z M68.4,78.5h119.2
	c0.7,0,1.4,0.1,2.1,0.3c-0.2,0.2-0.5,0.4-0.7,0.6c-0.4,0.5-47.8,45.2-53.9,50.7c-5.4,4.9-9,4.9-14.4,0c-7.3-6.6-53.6-49.6-55.2-51.1
	C66.4,78.7,67.4,78.5,68.4,78.5z M59.4,168.4V87.6c0-0.6,0.1-1.1,0.2-1.7c2.9,2.7,31.2,28.9,46.5,42.9l-46.5,41.3
	C59.5,169.6,59.4,169,59.4,168.4z M187.6,177.3H68.4c-1,0-2-0.2-2.9-0.5l47.2-41.9c0.8,0.8,1.4,1.4,1.9,1.8c4.4,4,8.9,6,13.3,6
	c4.4,0,8.8-2,13.2-5.9c0.4-0.4,1.1-1,1.9-1.7l44.9,42.2C187.8,177.3,187.7,177.3,187.6,177.3z M196.6,168.4c0,1.4-0.3,2.8-0.9,4
	c-0.2-0.2-0.3-0.4-0.5-0.6l-45.6-42.9c15.2-14.2,44.1-41.4,45.6-42.9c0.4-0.4,0.7-0.8,0.9-1.3c0.3,0.9,0.5,1.9,0.5,2.9V168.4z"/>
</svg>
