<?xml version="1.0" encoding="utf-8"?>
<!-- Generator: Adobe Illustrator 27.3.1, SVG Export Plug-In . SVG Version: 6.00 Build 0)  -->
<svg version="1.1" id="Calque_1" xmlns="http://www.w3.org/2000/svg" xmlns:xlink="http://www.w3.org/1999/xlink" x="0px" y="0px"
	 viewBox="0 0 256 256" style="enable-background:new 0 0 256 256;" xml:space="preserve">
<style type="text/css">
	.st0{fill:#221F20;}
	.st1{fill:#FFFFFF;}
</style>
<g>
	<circle class="st0" cx="128" cy="128" r="128"/>
	<g>
		<path class="st1" d="M196.1,84.7c-0.2,0.5-0.5,0.9-0.9,1.3c-1.5,1.5-30.4,28.7-45.6,42.9l45.6,42.9c0.2,0.2,0.3,0.4,0.5,0.6
			c0.6-1.2,0.9-2.6,0.9-4V87.6C196.6,86.6,196.4,85.6,196.1,84.7z"/>
		<path class="st1" d="M59.6,85.9c-0.1,0.6-0.2,1.1-0.2,1.7v80.8c0,0.6,0.1,1.2,0.2,1.7l46.5-41.3C90.8,114.8,62.5,88.6,59.6,85.9z"
			/>
		<path class="st1" d="M120.7,130.1c5.4,4.9,9,4.9,14.4,0c6.1-5.5,53.5-50.2,53.9-50.7c0.2-0.2,0.5-0.4,0.7-0.6
			c-0.7-0.2-1.4-0.3-2.1-0.3H68.4c-1,0-2,0.2-2.9,0.5C67.1,80.5,113.4,123.5,120.7,130.1z"/>
		<path class="st1" d="M143,135.1c-0.8,0.7-1.5,1.3-1.9,1.7c-4.4,3.9-8.8,5.9-13.2,5.9c-4.4,0-8.9-2-13.3-6c-0.5-0.4-1.1-1-1.9-1.8
			l-47.2,41.9c0.9,0.3,1.9,0.5,2.9,0.5h119.2c0.1,0,0.2,0,0.3,0L143,135.1z"/>
	</g>
</g>
</svg>
