<?xml version="1.0" encoding="utf-8"?>
<!-- Generator: Adobe Illustrator 27.3.1, SVG Export Plug-In . SVG Version: 6.00 Build 0)  -->
<svg version="1.1" id="Calque_1" xmlns="http://www.w3.org/2000/svg" xmlns:xlink="http://www.w3.org/1999/xlink" x="0px" y="0px"
	 viewBox="0 0 320 256" style="enable-background:new 0 0 320 256;" xml:space="preserve">
<style type="text/css">
	.st0{fill:#FFFFFF;}
</style>
<path d="M88.7,131.5c-5.4,1.2-10.5,2.6-15.6,3.5c-9.6,1.8-19.2,2.4-28.8,1.7c-6.8-0.5-13.6-1-20.3-1.9c-4.6-0.6-9.2-1.6-13.8-2.7
	c-2.4-0.6-3.8-3.3-4.3-6.8c-0.3-2-0.8-3.3-1.9-4.2c-1.6-1.3-2.5-3.4-2.8-6.1c-0.3-2.9-0.8-5.7-1.1-8.6c-0.1-0.7-0.2-1.6,0-2.3
	c1.5-5.8,3.3-11.5,7.4-13.5c4.7-2.3,9.7-3.5,14.5-5.3c2.2-0.8,4.4-1.6,6.4-3c8.2-5.8,16.8-8.2,25.7-9.2c9.6-1.1,19.2-1.1,28.8-0.1
	c3.5,0.3,7,0.2,10.4,1.3c4.1,1.3,7.2,5.4,10.2,9.7c3.4,5.1,5.9,11.2,8.3,17.4c0.1,0.3,0.3,0.6,0.9,0.8c-0.1-1.9-0.2-3.8-0.3-5.6
	c-0.5-10.1-0.3-20.2,1.7-30c3.1-14.7,9.7-24.8,18.5-32c5.2-4.3,10.8-6.6,16.7-6.6c11.8-0.1,21.4,7.3,29.3,20.1
	c0.9,1.5,1.4,3.5,2,5.3c1.4,3.9,1.6,3.7,3.3,0.3c6-12.6,13.9-21.4,24-24.5c12.8-3.9,24,1.5,33.8,14.9c6.5,8.8,9.2,20,10.1,32.3
	c0.6,7.7-0.1,15.7-0.2,23.5c0,0.9-0.1,1.8,0.2,3c0.4-0.7,0.8-1.5,1.2-2.2c3.2-6,6.2-12.5,9.8-18c5.8-9.1,13.1-11.4,21.2-9
	c12.7,3.7,24.2,11.9,35,22.5c0.2,0.2,0.5,0.5,0.7,0.8c0.1,0.1,0.1,0.3,0.1,0.5c-6.7-1.2-13.5-2.4-20.2-3.6
	c-4.9-0.8-9.8-1.8-14.7-2.4c-4.4-0.6-8.3,1.3-10.9,7.3c-1.7,4-1.7,8.6-1.3,12.9c0.5,5,1.4,9.8,2.4,14.6c1.4,7,3,14,4.5,20.9
	c1,4.5,2.3,8.8,2.8,13.4c4.2,36.6-13,60.6-29.6,65.8c-13,4-24.3-1.8-33.8-15.9c-1.7-2.6-3.3-5.4-5-8.3c-8,15.8-18.3,25.5-31.6,25.4
	c-13.4-0.1-23.5-10-31.7-25.8c-1.4,2.4-2.7,4.3-3.8,6.4c-10.2,20.2-32.9,27.6-49.6,7.9c-5.7-6.8-10.6-14.6-13.2-25.3
	c-3.1-12.9-3-25.8,0.1-38.7c1.5-6.3,2.8-12.6,4.1-19C88.7,132.9,88.6,132.3,88.7,131.5z M266.5,90.2c-0.2-0.2-0.4-0.4-0.6-0.6
	c-0.7,0.8-1.5,1.5-2.1,2.5c-3.1,5.6-5.1,11.9-4,19.4c0.7,4.6,1.8,9.2,3,13.5c3.2,11.1,5.5,22.6,6.7,34.6c1,9.7,1.5,19.4-0.4,29
	c-1.4,6.9-4.1,12.4-8.7,14.7c-4.7,2.3-9.6,3.1-14.6,2c-3.8-0.9-7.8-1.3-10.8-5.5c-2.2-3.1-4.7-6.5-5.7-10.5
	c-1.4-5.4-1.7-11.5-2-17.3c-0.5-8.8,0.4-17.6,1.5-26.3c0.3-2.4,0-5,0.5-7.3c1-5.2,2.4-10.1,3.5-15.3c2.7-12.4,4.2-25.2,4.3-38.3
	c0.1-9.2-0.6-18.3-3.5-26.7c-1.6-4.7-3.4-9.6-6.8-11.7c-3.1-1.9-6.4-3-9.7-4c-5.4-1.7-10.1,2.3-15.1,4.4c-0.7,0.3-1.4,1.3-1.9,2.1
	c-2.7,4.5-4.4,9.8-4.8,15.8c-1.3,17.5,0.7,34.3,5,50.5c3.6,13.8,6.1,28,7,42.7c0.7,10.2,0.4,20.4-2.3,30.1
	c-2,7.3-5.3,12.8-10.3,15.3c-5.8,2.9-11.8,3.4-17.9,2c-9.9-2.2-14.4-12.5-15.6-22.9c-0.9-8-1-16.2,0.1-24
	c1.4-10.1,3.3-20.1,5.6-29.8c1.9-8.5,4.3-16.7,4.9-25.7c0.3-4.7,1.2-9.2,1.7-13.8c1.2-10.4,0.5-20.7-1.9-30.6c-1-4.3-2.8-8-5.3-10.8
	c-0.4-0.5-1.2-0.2-1.8-0.3c0.2,0.8,0.4,1.6,0.7,2.2c1.6,3.2,3.5,6,4.8,9.5c3.2,9,3,18.8,2.5,28.6c-0.6,11.2-3.2,21.7-5.4,32.2
	c-2.8,13.1-5.9,26-7.2,39.8c-0.9,9.6-1,19.1,1.2,28.4c2,8.4,4.9,14.8,11.3,17.2c5.5,2,10.8,3.6,16.4,2.1c2.5-0.7,5.1-1.8,7.5-3
	c1.4-0.7,3-1.8,4.1-3.3c5.9-8.1,8.1-18.7,8.5-30.3c0.5-14.2-1.2-27.9-3.8-41.5c-1.8-9.3-5-17.9-5.6-27.8c-0.3-4.9-1.5-9.6-2-14.5
	c-1-9.3-1.2-18.6,0.9-27.7c1.3-5.9,3.4-10.9,7.6-12.8c1.7-0.8,3.4-1.5,5.1-1.9c5.3-1.4,10.5,0.2,15.2,3.6c4.4,3.2,6.7,9.6,8,16.5
	c2.1,11.2,2,22.7,1.1,34.1c-0.9,11.5-3.4,22.3-5.8,33.2c-2.7,12.7-4.4,25.7-4.1,39.1c0.2,10.7,2,20.5,7.1,28.3
	c1.2,1.8,2.7,3.6,4.2,4.5c2.3,1.3,4.9,1.9,7.4,2.6c3.9,1.2,7.9,1.3,11.8,0.2c2.4-0.7,4.8-1.8,7.2-2.8c0.7-0.3,1.5-0.9,2.1-1.6
	c4.6-5.6,6.8-13,7.2-21.8c0.8-16.1-1.5-31.3-5.4-46.1c-1.7-6.3-3.7-12.4-5-18.8c-1.7-8.7-1-16.8,4-23
	C266.1,92.1,266.2,91,266.5,90.2z M93.7,106.3c-0.1-0.4-0.2-0.7-0.3-1.1c-0.6,0.3-1.3,0.3-1.8,0.9c-3.8,4.4-8.4,6.7-12.8,9.1
	c-9.7,5.2-19.9,6.2-30.1,7.1c-13.8,1.2-27.6,0-41.3-1.7c-1.1-0.1-1.2,0.5-0.9,1.8c1,3.4,2.5,6.1,5.1,6.7c1.5,0.4,3,0.9,4.5,1
	c8.5,0.9,17,1.8,25.5,2.4c12.1,0.8,24.3,1.3,36.3-1.9c1.8-0.5,3.6-1,5.5-1.5c-0.9-3.7-1.7-6.8-2.5-10c-0.4-1.4-0.2-2.2,0.9-2.9
	c2.3-1.3,4.6-2.7,6.8-4.5C90.5,110.3,92.1,108.1,93.7,106.3z M115.6,121.6c-0.3,0.7-0.5,0.9-0.5,1.1c-3.6,16.1-5.5,32.8-7.4,49.4
	c-0.1,1.2,0.3,3,0.9,3.9c3.3,5.4,11.4,5.4,14.7,0c0.5-0.9,0.8-2.4,0.9-3.6c0.1-1.4-0.2-2.9-0.4-4.3c-2.1-12.9-4.2-25.9-6.3-38.8
	C116.9,126.8,116.2,124.4,115.6,121.6z M249.7,122.2c-0.1,0-0.3,0.1-0.4,0.1c-1.3,7.2-2.7,14.3-3.8,21.5c-1.4,9-2.6,18-3.8,27
	c-0.3,2-0.3,3.9,0.9,5.4c3.7,4.6,9.8,4.9,13.8,0.7c1.1-1.1,1.6-2.6,1.4-4.6c-0.3-2.6-0.4-5.3-0.8-7.9c-1.9-11.6-3.8-23.2-5.8-34.8
	C250.8,127.3,250.2,124.8,249.7,122.2z M182.5,122.4c-0.3,0.9-0.4,1.4-0.5,1.8c-1,6.2-2,12.4-2.9,18.7c-1.4,9.2-2.8,18.3-4.1,27.5
	c-0.7,5.1,0.2,7,3.4,8.6c2.6,1.3,5.2,1.3,7.8,0.1c4.2-1.9,5.4-4.2,4.3-10.7c-2.3-14.7-4.9-29.3-7.3-44
	C183,123.9,182.8,123.3,182.5,122.4z M162.5,47.2c-1.5-2.3-3.3-3.2-5.3-4c-5.3-2.1-10.3-1.5-15.1,2.4c-0.3,0.2-0.6,0.4-1,0.4
	c-2.6-0.1-4.3,2-5.9,4.8c-4.4,7.8-6.5,16.9-7,27c-0.7,14.4,1.9,28,4.8,41.4c1.2,5.9,2.9,11.6,3.8,17.5c1.4,9.7,2.6,19.4,3.5,29.2
	c0.8,8.1,0.4,16.2-1.5,24c-1.5,6.4-4.4,11.2-8.7,13.1c-6.1,2.7-12.4,2.6-18.8,1.2C104.3,202.8,98,191,98.6,182
	c0.3-4.9-0.1-9.9,0.2-14.9c0.3-4.9,0.6-9.9,1.6-14.6c2.4-11.2,5.1-22.3,7.7-33.4c1.6-7.1,2.2-14.2,0.3-21.3c-0.9-3.4-2-6.7-3.1-9.9
	c-0.2-0.6-0.9-0.9-1.4-1.3c0,0.9,0.1,1.8,0.1,2.7c0,0.1,0.1,0.3,0.2,0.4c4,8.5,5.2,17.7,3,27.7c-1.9,8.6-4,17.1-5.9,25.7
	c-2.3,10.3-4.2,20.8-4.3,31.8c-0.1,8.9,1,17.3,4.9,24.2c1.1,2,2.7,3.7,4.2,4.9c1.3,1,2.9,1,4.3,1.7c8,4.1,15.7,0.7,23.5-2
	c0.2-0.1,0.4-0.3,0.6-0.5c3.9-4.3,6.8-10.1,7.3-17.3c0.6-8,0.6-16.3,0.2-24.3c-0.5-11.9-3.1-23.2-5.6-34.5
	c-2.8-12.5-5.9-25-6.5-38.4c-0.4-8.5-0.3-16.9,1.8-25c4.1-16.1,13.8-21,24-19C157.9,45.2,160.2,46.3,162.5,47.2z M150.5,135.1
	c0.2,0,0.3-0.1,0.5-0.1c0.9-4.9,2-9.8,2.8-14.7c1.6-9.4,3-18.7,4.4-28.1c0.2-1.1,0-3-0.5-3.6c-3.1-4.1-9-4.7-12.6-1.7
	c-1.5,1.2-1.9,2.7-1.6,5.1c1.4,9.4,2.6,18.9,4.1,28.3C148.5,125.2,149.6,130.1,150.5,135.1z M214.3,134.4c0.3-1.2,0.5-1.8,0.6-2.4
	c1.4-7.4,2.7-14.8,4-22.3c1.1-6.2,2.1-12.4,3.1-18.7c0.1-0.9-0.2-2.5-0.7-3c-3.5-4.1-9.2-4.2-12.9-0.5c-1.2,1.1-1.5,2.4-1.2,4.5
	c1.9,11.4,3.7,22.9,5.6,34.4C213.2,128.9,213.7,131.4,214.3,134.4z M222.1,86.9c1.4-5.1,0.2-10.9-2.7-14.5c-2.5-3.1-6.3-3.5-9-0.8
	c-3.5,3.3-4.9,9-3.7,15.6C211.7,81.7,216.8,80.2,222.1,86.9z M143.4,86.8c5.1-6.6,10.2-5.6,15.2,0.4c1.5-6.3,0-11.9-4.1-16
	c-2.3-2.3-6.8-1.8-8.9,1.1C143.1,75.8,142,82.9,143.4,86.8z M51.6,103.5c2.9,0.1,5.6-3.3,5.7-7.1c0.1-4.6-2.5-8.7-5.6-8.8
	c-3-0.1-5.5,3.6-5.6,8.2C46.1,99.9,48.5,103.4,51.6,103.5z M108.7,179.1c0.8,5,3.7,7.7,7.3,7.3c3.4-0.4,6.4-3.5,6.6-6.7
	C118.1,182.9,113.5,184.2,108.7,179.1z M176.2,180.2c0.8,3.8,4,6.7,6.8,6.2c3.7-0.6,6.7-3.9,6.9-7.6
	C183.8,183.2,182.8,183.3,176.2,180.2z M256.7,179.2c-4.7,4.8-9.3,3.7-14.1,0.3c1.3,4.4,4.9,7.3,7.7,6.8
	C253.4,185.8,256.2,182.7,256.7,179.2z"/>
<path class="st0" d="M266.5,90.2c-0.3,0.8-0.4,1.9-0.8,2.4c-5,6.3-5.7,14.4-4,23c1.3,6.4,3.3,12.5,5,18.8c3.9,14.8,6.2,30,5.4,46.1
	c-0.4,8.8-2.6,16.2-7.2,21.8c-0.6,0.7-1.3,1.3-2.1,1.6c-2.4,1-4.8,2.1-7.2,2.8c-3.9,1.2-7.9,1-11.8-0.2c-2.5-0.8-5-1.3-7.4-2.6
	c-1.6-0.9-3-2.6-4.2-4.5c-5.1-7.8-6.9-17.6-7.1-28.3c-0.3-13.4,1.4-26.4,4.1-39.1c2.3-10.9,4.9-21.7,5.8-33.2
	c0.9-11.5,1-22.9-1.1-34.1c-1.3-7-3.6-13.3-8-16.5c-4.7-3.4-9.9-5-15.2-3.6c-1.7,0.4-3.4,1.1-5.1,1.9c-4.2,1.9-6.3,6.9-7.6,12.8
	c-2.1,9.1-1.9,18.4-0.9,27.7c0.5,4.9,1.7,9.6,2,14.5c0.6,9.9,3.8,18.5,5.6,27.8c2.6,13.6,4.4,27.3,3.8,41.5
	c-0.4,11.6-2.6,22.2-8.5,30.3c-1.1,1.5-2.6,2.5-4.1,3.3c-2.4,1.2-5,2.3-7.5,3c-5.6,1.5-10.9-0.1-16.4-2.1
	c-6.5-2.3-9.4-8.8-11.3-17.2c-2.2-9.3-2.1-18.8-1.2-28.4c1.3-13.7,4.4-26.7,7.2-39.8c2.2-10.6,4.8-21,5.4-32.2
	c0.5-9.8,0.8-19.6-2.5-28.6c-1.2-3.4-3.2-6.3-4.8-9.5c-0.3-0.7-0.5-1.5-0.7-2.2c0.6,0.1,1.4-0.2,1.8,0.3c2.5,2.7,4.3,6.4,5.3,10.8
	c2.4,9.9,3.2,20.1,1.9,30.6c-0.5,4.6-1.4,9.2-1.7,13.8c-0.6,9.1-3,17.3-4.9,25.7c-2.2,9.8-4.1,19.7-5.6,29.8c-1.1,7.8-1,16-0.1,24
	c1.2,10.4,5.7,20.7,15.6,22.9c6.1,1.4,12.1,0.9,17.9-2c5-2.5,8.3-8.1,10.3-15.3c2.7-9.7,2.9-19.8,2.3-30.1
	c-0.9-14.7-3.4-28.9-7-42.7c-4.3-16.2-6.2-33-5-50.5c0.4-6.1,2.1-11.4,4.8-15.8c0.5-0.9,1.2-1.8,1.9-2.1c4.9-2.1,9.7-6.1,15.1-4.4
	c3.3,1.1,6.6,2.1,9.7,4c3.4,2.1,5.2,7,6.8,11.7c2.9,8.4,3.6,17.4,3.5,26.7c-0.1,13.1-1.6,25.9-4.3,38.3c-1.1,5.1-2.5,10.1-3.5,15.3
	c-0.4,2.3-0.2,4.9-0.5,7.3c-1,8.7-2,17.4-1.5,26.3c0.3,5.9,0.7,12,2,17.3c1,4,3.5,7.4,5.7,10.5c3,4.2,7,4.6,10.8,5.5
	c5,1.1,9.9,0.3,14.6-2c4.7-2.3,7.3-7.8,8.7-14.7c2-9.6,1.4-19.3,0.4-29c-1.2-12-3.5-23.5-6.7-34.6c-1.2-4.4-2.3-8.9-3-13.5
	c-1.1-7.5,0.9-13.8,4-19.4c0.6-1,1.4-1.6,2.1-2.5C266.1,89.8,266.3,90,266.5,90.2z"/>
<path class="st0" d="M93.7,106.3c-1.7,1.9-3.2,4-5,5.5c-2.2,1.8-4.5,3.2-6.8,4.5c-1.1,0.6-1.3,1.4-0.9,2.9c0.8,3.2,1.6,6.4,2.5,10
	c-1.9,0.5-3.7,1.1-5.5,1.5c-12.1,3.2-24.2,2.7-36.3,1.9c-8.5-0.6-17-1.5-25.5-2.4c-1.5-0.2-3-0.6-4.5-1c-2.6-0.6-4.1-3.3-5.1-6.7
	c-0.4-1.2-0.2-1.9,0.9-1.8c13.8,1.7,27.5,2.9,41.3,1.7c10.1-0.9,20.4-1.9,30.1-7.1c4.4-2.4,9-4.7,12.8-9.1c0.5-0.5,1.2-0.6,1.8-0.9
	C93.5,105.6,93.6,105.9,93.7,106.3z"/>
<path class="st0" d="M115.6,121.6c0.7,2.8,1.4,5.2,1.8,7.7c2.2,12.9,4.2,25.8,6.3,38.8c0.2,1.4,0.5,2.9,0.4,4.3
	c-0.1,1.3-0.3,2.8-0.9,3.6c-3.3,5.4-11.4,5.5-14.7,0c-0.6-0.9-1-2.7-0.9-3.9c1.9-16.7,3.8-33.4,7.4-49.4
	C115.1,122.5,115.2,122.3,115.6,121.6z"/>
<path class="st0" d="M249.7,122.2c0.5,2.5,1.1,5,1.5,7.6c2,11.6,3.9,23.2,5.8,34.8c0.4,2.6,0.5,5.2,0.8,7.9c0.2,2-0.3,3.4-1.4,4.6
	c-4,4.2-10.1,3.9-13.8-0.7c-1.2-1.5-1.1-3.4-0.9-5.4c1.2-9,2.4-18.1,3.8-27c1.1-7.2,2.5-14.3,3.8-21.5
	C249.5,122.3,249.6,122.3,249.7,122.2z"/>
<path class="st0" d="M182.5,122.4c0.3,0.9,0.6,1.5,0.7,2.1c2.5,14.7,5,29.3,7.3,44c1,6.5-0.1,8.8-4.3,10.7c-2.6,1.2-5.2,1.2-7.8-0.1
	c-3.2-1.6-4.2-3.6-3.4-8.6c1.3-9.2,2.7-18.3,4.1-27.5c1-6.2,2-12.5,2.9-18.7C182,123.7,182.2,123.3,182.5,122.4z"/>
<path class="st0" d="M162.5,47.2c-2.3-0.8-4.6-2-7-2.5c-10.2-2-19.9,2.9-24,19c-2.1,8.1-2.2,16.5-1.8,25c0.6,13.4,3.7,25.8,6.5,38.4
	c2.5,11.3,5.1,22.6,5.6,34.5c0.3,8.1,0.4,16.3-0.2,24.3c-0.5,7.2-3.3,13-7.3,17.3c-0.2,0.2-0.4,0.4-0.6,0.5
	c-7.7,2.7-15.5,6.1-23.5,2c-1.4-0.7-3.1-0.7-4.3-1.7c-1.6-1.2-3.1-2.9-4.2-4.9c-3.9-7-5-15.3-4.9-24.2c0.1-11,1.9-21.5,4.3-31.8
	c1.9-8.6,4-17.1,5.9-25.7c2.3-10,1-19.2-3-27.7c-0.1-0.1-0.2-0.3-0.2-0.4c0-0.9-0.1-1.8-0.1-2.7c0.5,0.4,1.2,0.7,1.4,1.3
	c1.1,3.2,2.2,6.5,3.1,9.9c1.9,7.1,1.3,14.3-0.3,21.3c-2.5,11.1-5.3,22.2-7.7,33.4c-1,4.7-1.3,9.7-1.6,14.6
	c-0.3,4.9,0.2,9.9-0.2,14.9c-0.6,9,5.6,20.8,12.7,22.4c6.4,1.4,12.7,1.5,18.8-1.2c4.3-1.9,7.2-6.7,8.7-13.1c1.9-7.8,2.3-15.9,1.5-24
	c-1-9.8-2.1-19.6-3.5-29.2c-0.9-6-2.5-11.7-3.8-17.5c-2.9-13.5-5.5-27-4.8-41.4c0.5-10.1,2.6-19.2,7-27c1.5-2.8,3.3-4.9,5.9-4.8
	c0.3,0,0.7-0.2,1-0.4c4.8-3.9,9.8-4.5,15.1-2.4C159.2,44,161,44.9,162.5,47.2z"/>
<path class="st0" d="M150.5,135.1c-1-5-2.1-9.9-2.9-14.9c-1.5-9.4-2.7-18.8-4.1-28.3c-0.4-2.4,0-3.9,1.6-5.1
	c3.7-2.9,9.5-2.4,12.6,1.7c0.5,0.7,0.7,2.5,0.5,3.6c-1.4,9.4-2.9,18.8-4.4,28.1c-0.8,4.9-1.9,9.8-2.8,14.7
	C150.9,135,150.7,135,150.5,135.1z"/>
<path class="st0" d="M214.3,134.4c-0.6-3-1.1-5.5-1.5-8c-1.9-11.4-3.7-22.9-5.6-34.4c-0.4-2.1,0-3.3,1.2-4.5
	c3.7-3.7,9.5-3.6,12.9,0.5c0.5,0.6,0.8,2.1,0.7,3c-0.9,6.2-2,12.5-3.1,18.7c-1.3,7.4-2.7,14.8-4,22.3
	C214.8,132.7,214.6,133.3,214.3,134.4z"/>
<path class="st0" d="M222.1,86.9c-5.2-6.8-10.4-5.2-15.4,0.2c-1.2-6.5,0.3-12.3,3.7-15.6c2.7-2.6,6.5-2.2,9,0.8
	C222.3,76.1,223.4,81.8,222.1,86.9z"/>
<path class="st0" d="M143.4,86.8c-1.4-3.9-0.3-10.9,2.2-14.4c2.1-2.9,6.5-3.4,8.9-1.1c4.1,4.1,5.6,9.7,4.1,16
	C153.6,81.2,148.5,80.1,143.4,86.8z"/>
<path class="st0" d="M51.6,103.5c-3.1-0.1-5.5-3.5-5.4-7.7c0-4.6,2.6-8.3,5.6-8.2c3.1,0.1,5.7,4.2,5.6,8.8
	C57.2,100.1,54.4,103.6,51.6,103.5z"/>
<path class="st0" d="M108.7,179.1c4.8,5.1,9.4,3.9,14,0.6c-0.2,3.2-3.2,6.3-6.6,6.7C112.4,186.8,109.5,184,108.7,179.1z"/>
<path class="st0" d="M176.2,180.2c6.6,3.2,7.6,3,13.7-1.4c-0.2,3.7-3.2,7-6.9,7.6C180.2,186.8,177,184,176.2,180.2z"/>
<path class="st0" d="M256.7,179.2c-0.4,3.5-3.3,6.6-6.4,7.1c-2.9,0.5-6.4-2.4-7.7-6.8C247.4,182.9,252,184,256.7,179.2z"/>
</svg>
