<?xml version="1.0" encoding="utf-8"?>
<!-- Generator: Adobe Illustrator 27.5.0, SVG Export Plug-In . SVG Version: 6.00 Build 0)  -->
<svg version="1.1" id="Calque_1" xmlns="http://www.w3.org/2000/svg" xmlns:xlink="http://www.w3.org/1999/xlink" x="0px" y="0px"
	 viewBox="0 0 256 256" style="enable-background:new 0 0 256 256;" xml:space="preserve">
<style type="text/css">
	.st0{fill:#11567D;}
	.st1{fill:#FFFFFF;stroke:#FFFFFF;stroke-width:1.4256;stroke-linejoin:round;stroke-miterlimit:10;}
	.st2{fill:#FFFFFF;}
	
		.st3{opacity:0.9;clip-path:url(#SVGID_00000109726553478274283030000012431618908039109278_);fill:none;stroke:#868686;stroke-width:0.1249;stroke-linecap:round;stroke-linejoin:round;stroke-miterlimit:10.6354;stroke-dasharray:0.1275,0.255;enable-background:new    ;}
	
		.st4{opacity:0.9;clip-path:url(#SVGID_00000037665063683367790790000005693280243000358839_);fill:none;stroke:#868686;stroke-width:0.1249;stroke-linecap:round;stroke-linejoin:round;stroke-miterlimit:10.6354;stroke-dasharray:0.1275,0.255;enable-background:new    ;}
	
		.st5{opacity:0.9;clip-path:url(#SVGID_00000183947303834460866330000015570318208118945201_);fill:none;stroke:#818282;stroke-width:0.1249;stroke-linecap:square;stroke-linejoin:round;stroke-miterlimit:265.8852;stroke-dasharray:0.1275,0.255;enable-background:new    ;}
	
		.st6{opacity:0.9;clip-path:url(#SVGID_00000103974223131165832660000008739824967809817222_);fill:none;stroke:#818282;stroke-width:0.1249;stroke-linecap:square;stroke-linejoin:round;stroke-miterlimit:265.8852;stroke-dasharray:0.1275,0.255;enable-background:new    ;}
	
		.st7{opacity:0.9;clip-path:url(#SVGID_00000083788462714168923050000000830604340723254939_);fill:none;stroke:#818282;stroke-width:0.1249;stroke-linecap:square;stroke-linejoin:round;stroke-miterlimit:265.8852;stroke-dasharray:0.1275,0.255;enable-background:new    ;}
	
		.st8{opacity:0.9;clip-path:url(#SVGID_00000181073629871061736620000002003429444340023696_);fill:none;stroke:#818282;stroke-width:0.1249;stroke-linecap:square;stroke-linejoin:round;stroke-miterlimit:265.8852;stroke-dasharray:0.1275,0.255;enable-background:new    ;}
	.st9{clip-path:url(#SVGID_00000042006824148440388630000003571411504168178620_);}
	.st10{fill:#3157A4;stroke:#020203;stroke-width:0.2874;stroke-linejoin:round;stroke-miterlimit:265.8852;}
	.st11{clip-path:url(#SVGID_00000144301209124173061250000001143365659881549211_);}
	.st12{fill:#CAD400;stroke:#020203;stroke-width:0.2874;stroke-linejoin:round;stroke-miterlimit:265.8852;}
	.st13{clip-path:url(#SVGID_00000164493619252323946550000017935261858704266398_);}
	.st14{fill:#EC691D;stroke:#020203;stroke-width:0.2874;stroke-linejoin:round;stroke-miterlimit:265.8852;}
	.st15{clip-path:url(#SVGID_00000003090241680174925470000002441994236208136328_);}
	.st16{fill:#FDC30B;stroke:#020203;stroke-width:0.2874;stroke-linejoin:round;stroke-miterlimit:265.8852;}
	.st17{clip-path:url(#SVGID_00000003790204177915462310000007746896386323713166_);}
	.st18{fill:#71C2B1;stroke:#020203;stroke-width:0.2874;stroke-linejoin:round;stroke-miterlimit:265.8852;}
	.st19{clip-path:url(#SVGID_00000071529656346775305390000005093029067167101344_);}
	.st20{fill:#93C466;stroke:#020203;stroke-width:0.2874;stroke-linejoin:round;stroke-miterlimit:265.8852;}
	.st21{clip-path:url(#SVGID_00000137848202791234490180000017806472909397810343_);}
	.st22{fill:none;stroke:#11567D;stroke-width:0.6237;stroke-miterlimit:10;}
	.st23{clip-path:url(#SVGID_00000036959443081408874400000009852827862353543608_);}
	.st24{fill:none;stroke:#020203;stroke-width:0.2874;stroke-linejoin:round;stroke-miterlimit:265.8852;}
	.st25{clip-path:url(#SVGID_00000010283256158294557690000002608965197158668201_);}
	.st26{clip-path:url(#SVGID_00000138552018968507214160000005449340229315260855_);}
	.st27{clip-path:url(#SVGID_00000122710292366074951560000006559372450030318468_);}
	.st28{clip-path:url(#SVGID_00000029729313382533842110000016582605745978825144_);}
	.st29{clip-path:url(#SVGID_00000125586889363224463940000015828368802399305861_);}
	.st30{clip-path:url(#SVGID_00000060712951125378125400000015591913790285179562_);}
</style>
<g>
	<path class="st0" d="M41.6,142.1c0,0.2-0.1,0.4-0.2,0.5c-0.1,0.1-0.3,0.3-0.6,0.4c-0.3,0.1-0.7,0.2-1.1,0.2
		c-0.5,0.1-1.1,0.1-1.8,0.1c-0.7,0-1.3,0-1.8-0.1c-0.5,0-0.8-0.1-1.1-0.2c-0.3-0.1-0.5-0.2-0.6-0.4c-0.1-0.2-0.1-0.3-0.1-0.5
		l1.2-15.5c0.1-0.9,0-1.7-0.1-2.4c-0.1-0.7-0.3-1.3-0.6-1.8c-0.3-0.5-0.7-0.9-1.2-1.2c-0.5-0.3-1.1-0.4-1.8-0.4
		c-0.9,0-1.8,0.3-2.7,1c-1,0.7-2,1.7-3.2,3l-1.3,17.4c0,0.2-0.1,0.4-0.2,0.5c-0.1,0.1-0.3,0.3-0.6,0.4c-0.3,0.1-0.7,0.2-1.1,0.2
		c-0.5,0.1-1.1,0.1-1.8,0.1c-0.7,0-1.3,0-1.8-0.1c-0.5,0-0.8-0.1-1.1-0.2c-0.3-0.1-0.5-0.2-0.6-0.4c-0.1-0.2-0.2-0.3-0.1-0.5
		l1.2-15.5c0.1-0.9,0-1.7-0.1-2.4c-0.1-0.7-0.3-1.3-0.6-1.8c-0.3-0.5-0.7-0.9-1.2-1.2c-0.5-0.3-1.1-0.4-1.8-0.4
		c-0.9,0-1.8,0.3-2.8,1s-2,1.7-3.1,3l-1.3,17.4c0,0.2-0.1,0.4-0.2,0.5c-0.1,0.1-0.3,0.3-0.6,0.4c-0.3,0.1-0.7,0.2-1.1,0.2
		c-0.5,0.1-1.1,0.1-1.8,0.1c-0.7,0-1.3,0-1.8-0.1c-0.5,0-0.8-0.1-1.1-0.2c-0.3-0.1-0.5-0.2-0.6-0.4C0,142.5,0,142.3,0,142.1L1.9,116
		c0-0.2,0.1-0.4,0.2-0.5c0.1-0.2,0.3-0.3,0.6-0.4c0.3-0.1,0.6-0.2,1-0.2c0.4-0.1,0.9-0.1,1.5-0.1c0.6,0,1.1,0,1.5,0.1
		c0.4,0,0.7,0.1,0.9,0.2c0.2,0.1,0.4,0.2,0.5,0.4c0.1,0.1,0.1,0.3,0.1,0.5L8,119c1.6-1.6,3.1-2.7,4.6-3.5c1.5-0.8,3-1.2,4.6-1.2
		c1.1,0,2,0.1,2.9,0.4c0.8,0.2,1.6,0.5,2.2,1c0.7,0.4,1.2,0.9,1.6,1.5c0.4,0.6,0.8,1.2,1.1,2c0.8-0.8,1.7-1.6,2.4-2.2
		c0.8-0.6,1.6-1.1,2.3-1.5c0.8-0.4,1.5-0.7,2.3-0.8c0.8-0.2,1.5-0.3,2.3-0.3c1.7,0,3.2,0.3,4.3,0.9c1.1,0.6,2,1.4,2.7,2.4
		c0.7,1,1.1,2.2,1.3,3.5c0.2,1.3,0.3,2.8,0.2,4.3L41.6,142.1L41.6,142.1z M71.2,142.2c0,0.3-0.1,0.5-0.3,0.6c-0.2,0.2-0.5,0.3-1,0.3
		c-0.4,0.1-1,0.1-1.9,0.1c-0.9,0-1.5,0-1.9-0.1c-0.4-0.1-0.7-0.2-0.8-0.3c-0.1-0.2-0.2-0.4-0.2-0.6l0.2-2.1
		c-1.2,1.2-2.5,2.1-3.9,2.7c-1.4,0.6-3,1-4.6,1c-1.4,0-2.7-0.2-3.8-0.6c-1.1-0.4-2.1-0.9-2.9-1.6c-0.8-0.7-1.4-1.6-1.8-2.7
		c-0.4-1.1-0.5-2.3-0.4-3.7c0.1-1.5,0.5-2.8,1.2-4c0.7-1.1,1.6-2.1,2.9-2.8c1.2-0.7,2.8-1.3,4.5-1.6c1.8-0.4,3.8-0.5,6.2-0.5h2.6
		l0.1-1.6c0.1-0.8,0-1.5-0.1-2.1c-0.1-0.6-0.3-1.1-0.7-1.6c-0.3-0.4-0.8-0.7-1.5-0.9c-0.6-0.2-1.4-0.3-2.3-0.3
		c-1.2,0-2.3,0.1-3.3,0.4c-1,0.3-1.9,0.6-2.6,0.9c-0.8,0.3-1.4,0.6-1.9,0.9c-0.5,0.3-0.9,0.4-1.2,0.4c-0.2,0-0.4-0.1-0.6-0.2
		c-0.1-0.1-0.3-0.3-0.4-0.6c-0.1-0.3-0.1-0.6-0.2-0.9s0-0.8,0-1.2c0-0.6,0.1-1.1,0.3-1.4c0.1-0.4,0.3-0.7,0.6-0.9
		c0.3-0.3,0.8-0.6,1.5-0.9c0.7-0.4,1.5-0.7,2.5-1c0.9-0.3,2-0.5,3-0.7c1.1-0.2,2.2-0.3,3.4-0.3c2.1,0,3.8,0.2,5.2,0.6
		c1.4,0.4,2.6,1,3.5,1.8c0.9,0.8,1.5,1.9,1.8,3.2c0.3,1.3,0.4,2.9,0.3,4.7L71.2,142.2L71.2,142.2z M64.8,131H62
		c-1.2,0-2.2,0.1-3.1,0.3s-1.6,0.4-2.1,0.8c-0.6,0.4-1,0.8-1.3,1.3c-0.3,0.5-0.4,1.1-0.5,1.7c-0.1,1.1,0.2,2,0.8,2.6
		c0.7,0.6,1.6,0.9,2.8,0.9c1,0,2-0.3,2.9-0.8c0.9-0.5,1.9-1.3,2.8-2.3L64.8,131z"/>
	<g>
		<path id="B" class="st0" d="M93.7,139.5c-0.1,0.9-0.2,1.5-0.3,2c-0.1,0.4-0.3,0.8-0.5,1c-0.2,0.2-0.5,0.3-0.8,0.5
			c-0.3,0.1-0.8,0.3-1.2,0.4c-0.5,0.1-1,0.2-1.5,0.3c-0.5,0.1-1.1,0.1-1.6,0.1c-1.5,0-2.7-0.2-3.8-0.6c-1-0.4-1.9-0.9-2.5-1.7
			c-0.6-0.8-1.1-1.8-1.3-2.9c-0.2-1.2-0.3-2.6-0.2-4.2l1-13.4h-3.1c-0.4,0-0.6-0.2-0.8-0.7c-0.2-0.5-0.2-1.2-0.1-2.3
			c0-0.6,0.1-1,0.2-1.4c0.1-0.4,0.2-0.7,0.3-0.9c0.1-0.2,0.2-0.4,0.4-0.5c0.2-0.1,0.3-0.1,0.5-0.1h3.1l0.4-5.8
			c0-0.2,0.1-0.4,0.2-0.5c0.1-0.2,0.3-0.3,0.6-0.4c0.3-0.1,0.7-0.2,1.2-0.2c0.5-0.1,1.1-0.1,1.8-0.1c0.7,0,1.3,0,1.8,0.1
			c0.5,0,0.9,0.1,1.1,0.2c0.3,0.1,0.5,0.2,0.6,0.4c0.1,0.2,0.2,0.3,0.1,0.5l-0.4,5.8h5.7c0.2,0,0.4,0,0.5,0.1
			c0.1,0.1,0.3,0.3,0.3,0.5c0.1,0.2,0.1,0.5,0.1,0.9c0,0.4,0,0.9,0,1.4c-0.1,1.1-0.2,1.8-0.5,2.3c-0.2,0.4-0.5,0.7-0.9,0.7h-5.7
			l-0.9,12.3c-0.1,1.4,0,2.5,0.4,3.2c0.4,0.7,1.2,1.1,2.3,1.1c0.4,0,0.7,0,1.1-0.1c0.3-0.1,0.6-0.2,0.8-0.2c0.3-0.1,0.5-0.2,0.6-0.2
			c0.2-0.1,0.3-0.1,0.5-0.1c0.1,0,0.2,0,0.3,0.1c0.1,0.1,0.2,0.2,0.2,0.4c0,0.2,0.1,0.5,0.1,0.8C93.8,138.5,93.8,139,93.7,139.5
			L93.7,139.5z"/>
	</g>
	<path class="st0" d="M126.2,128.6c-0.2,2.3-0.6,4.4-1.2,6.3c-0.6,1.9-1.5,3.4-2.5,4.7c-1.1,1.3-2.3,2.3-3.8,3
		c-1.5,0.7-3.1,1.1-5,1.1c-0.8,0-1.5-0.1-2.1-0.2c-0.6-0.1-1.2-0.4-1.8-0.6c-0.6-0.3-1.1-0.7-1.7-1.1c-0.6-0.4-1.1-1-1.7-1.6
		l-0.9,12.3c0,0.2-0.1,0.4-0.2,0.5c-0.1,0.2-0.3,0.3-0.6,0.4c-0.3,0.1-0.7,0.2-1.1,0.3c-0.5,0.1-1.1,0.1-1.8,0.1s-1.3,0-1.8-0.1
		c-0.5-0.1-0.8-0.1-1.1-0.3c-0.3-0.1-0.5-0.2-0.6-0.4c-0.1-0.2-0.2-0.3-0.1-0.5l2.7-36.5c0-0.2,0.1-0.4,0.2-0.5
		c0.1-0.2,0.3-0.3,0.5-0.4c0.3-0.1,0.6-0.2,1-0.2c0.4-0.1,0.9-0.1,1.5-0.1c0.6,0,1.1,0,1.5,0.1c0.4,0,0.7,0.1,1,0.2
		c0.2,0.1,0.4,0.2,0.5,0.4c0.1,0.1,0.1,0.3,0.1,0.5l-0.2,3.1c0.8-0.8,1.6-1.5,2.4-2.1c0.8-0.6,1.6-1.1,2.4-1.5
		c0.8-0.4,1.6-0.7,2.4-0.9c0.8-0.2,1.7-0.3,2.6-0.3c1.9,0,3.5,0.4,4.8,1.1c1.3,0.7,2.3,1.8,3.1,3.1c0.8,1.3,1.3,2.8,1.5,4.6
		C126.3,124.8,126.4,126.7,126.2,128.6L126.2,128.6z M118.5,129.2c0.1-1.1,0.1-2.2,0-3.2c-0.1-1-0.3-2-0.6-2.8
		c-0.3-0.8-0.8-1.4-1.4-1.9c-0.6-0.5-1.4-0.7-2.4-0.7c-0.5,0-1,0.1-1.5,0.2c-0.5,0.1-1,0.4-1.5,0.7c-0.5,0.3-1.1,0.8-1.6,1.3
		c-0.6,0.5-1.2,1.2-1.8,2l-0.6,8.6c0.9,1.3,1.9,2.3,2.7,3c0.9,0.7,1.8,1.1,2.9,1.1c1,0,1.8-0.2,2.5-0.7c0.7-0.5,1.3-1.1,1.8-1.9
		c0.5-0.8,0.9-1.7,1.1-2.7C118.2,131.2,118.4,130.2,118.5,129.2L118.5,129.2z"/>
	<g>
		<path id="C" class="st0" d="M138.5,142.1c0,0.2-0.1,0.4-0.2,0.5c-0.1,0.1-0.3,0.3-0.6,0.4c-0.3,0.1-0.7,0.2-1.1,0.2
			c-0.5,0.1-1.1,0.1-1.8,0.1c-0.7,0-1.3,0-1.8-0.1c-0.5,0-0.8-0.1-1.1-0.2c-0.3-0.1-0.5-0.2-0.6-0.4c-0.1-0.2-0.2-0.3-0.1-0.5
			l2.9-38.6c0-0.2,0.1-0.4,0.2-0.5c0.1-0.2,0.3-0.3,0.6-0.4c0.3-0.1,0.7-0.2,1.2-0.3c0.5-0.1,1.1-0.1,1.8-0.1s1.3,0,1.8,0.1
			c0.5,0.1,0.8,0.1,1.1,0.3c0.3,0.1,0.5,0.2,0.6,0.4c0.1,0.2,0.2,0.3,0.1,0.5L138.5,142.1L138.5,142.1z"/>
	</g>
	<path class="st0" d="M173.4,128.8c-0.2,2.2-0.6,4.3-1.3,6.1c-0.7,1.8-1.7,3.4-3,4.7c-1.3,1.3-2.9,2.4-4.7,3.1
		c-1.9,0.7-4,1.1-6.4,1.1c-2.3,0-4.3-0.3-6-1c-1.7-0.6-3-1.6-4.1-2.8c-1-1.2-1.8-2.7-2.2-4.5c-0.4-1.8-0.5-3.8-0.4-6.2
		c0.2-2.2,0.6-4.3,1.3-6.1c0.7-1.9,1.8-3.4,3.1-4.7c1.3-1.3,2.9-2.4,4.7-3.1c1.9-0.7,4-1.1,6.4-1.1c2.3,0,4.4,0.3,6,1
		c1.7,0.6,3,1.6,4,2.8c1,1.2,1.8,2.7,2.2,4.5C173.4,124.4,173.5,126.4,173.4,128.8L173.4,128.8z M165.7,129c0.1-1.3,0.1-2.5-0.1-3.5
		c-0.1-1.1-0.4-2-0.8-2.8s-1-1.4-1.8-1.9c-0.8-0.4-1.8-0.7-3-0.7c-1.1,0-2.1,0.2-2.9,0.6c-0.9,0.4-1.6,1-2.2,1.8
		c-0.6,0.8-1.1,1.7-1.4,2.8c-0.3,1.1-0.6,2.3-0.7,3.7c-0.1,1.3-0.1,2.5,0.1,3.6c0.1,1.1,0.4,2,0.8,2.8c0.4,0.8,1,1.4,1.8,1.9
		c0.8,0.4,1.8,0.6,3,0.6c1.1,0,2.1-0.2,2.9-0.6c0.9-0.4,1.6-1,2.2-1.8c0.6-0.8,1-1.7,1.4-2.8C165.4,131.7,165.6,130.4,165.7,129
		L165.7,129z"/>
	<g>
		<path id="B_00000158028224743254354900000017685033047414974882_" class="st0" d="M193.8,139.5c-0.1,0.9-0.2,1.5-0.3,2
			c-0.1,0.4-0.3,0.8-0.5,1c-0.2,0.2-0.5,0.3-0.8,0.5c-0.3,0.1-0.8,0.3-1.2,0.4c-0.5,0.1-1,0.2-1.5,0.3c-0.5,0.1-1.1,0.1-1.6,0.1
			c-1.5,0-2.7-0.2-3.8-0.6c-1-0.4-1.9-0.9-2.5-1.7c-0.6-0.8-1.1-1.8-1.3-2.9c-0.2-1.2-0.3-2.6-0.2-4.2l1-13.4h-3.1
			c-0.4,0-0.6-0.2-0.8-0.7c-0.2-0.5-0.2-1.2-0.1-2.3c0-0.6,0.1-1,0.2-1.4c0.1-0.4,0.2-0.7,0.3-0.9c0.1-0.2,0.2-0.4,0.4-0.5
			c0.2-0.1,0.3-0.1,0.5-0.1h3.1l0.4-5.8c0-0.2,0.1-0.4,0.2-0.5c0.1-0.2,0.3-0.3,0.6-0.4c0.3-0.1,0.7-0.2,1.2-0.2
			c0.5-0.1,1.1-0.1,1.8-0.1c0.7,0,1.3,0,1.8,0.1c0.5,0,0.9,0.1,1.1,0.2c0.3,0.1,0.5,0.2,0.6,0.4c0.1,0.2,0.2,0.3,0.1,0.5l-0.4,5.8
			h5.7c0.2,0,0.4,0,0.5,0.1c0.1,0.1,0.3,0.3,0.3,0.5c0.1,0.2,0.1,0.5,0.1,0.9c0,0.4,0,0.9,0,1.4c-0.1,1.1-0.2,1.8-0.5,2.3
			c-0.2,0.4-0.5,0.7-0.9,0.7h-5.7l-0.9,12.3c-0.1,1.4,0,2.5,0.4,3.2c0.4,0.7,1.2,1.1,2.3,1.1c0.4,0,0.7,0,1.1-0.1
			c0.3-0.1,0.6-0.2,0.8-0.2c0.3-0.1,0.5-0.2,0.6-0.2c0.2-0.1,0.3-0.1,0.5-0.1c0.1,0,0.2,0,0.3,0.1c0.1,0.1,0.2,0.2,0.2,0.4
			c0,0.2,0.1,0.5,0.1,0.8C193.9,138.5,193.9,139,193.8,139.5L193.8,139.5z"/>
	</g>
	<g>
		<path id="C_00000087393604576519684730000013471826292209907887_" class="st0" d="M206.4,142.1c0,0.2-0.1,0.4-0.2,0.5
			c-0.1,0.1-0.3,0.3-0.6,0.4c-0.3,0.1-0.7,0.2-1.1,0.2c-0.5,0.1-1.1,0.1-1.8,0.1c-0.7,0-1.3,0-1.8-0.1c-0.5,0-0.8-0.1-1.1-0.2
			c-0.3-0.1-0.5-0.2-0.6-0.4c-0.1-0.2-0.2-0.3-0.1-0.5l2.9-38.6c0-0.2,0.1-0.4,0.2-0.5c0.1-0.2,0.3-0.3,0.6-0.4
			c0.3-0.1,0.7-0.2,1.2-0.3c0.5-0.1,1.1-0.1,1.8-0.1s1.3,0,1.8,0.1c0.5,0.1,0.8,0.1,1.1,0.3c0.3,0.1,0.5,0.2,0.6,0.4
			c0.1,0.2,0.2,0.3,0.1,0.5L206.4,142.1L206.4,142.1z"/>
	</g>
	<path class="st0" d="M221.2,142.1c0,0.2-0.1,0.4-0.2,0.5c-0.1,0.1-0.3,0.3-0.6,0.4c-0.3,0.1-0.7,0.2-1.1,0.2
		c-0.5,0.1-1.1,0.1-1.8,0.1c-0.7,0-1.3,0-1.8-0.1c-0.5,0-0.8-0.1-1.1-0.2c-0.3-0.1-0.5-0.2-0.6-0.4c-0.1-0.2-0.2-0.3-0.1-0.5
		l1.9-26.1c0-0.2,0.1-0.4,0.2-0.5c0.1-0.2,0.3-0.3,0.6-0.4c0.3-0.1,0.7-0.2,1.2-0.3c0.5-0.1,1.1-0.1,1.8-0.1c0.7,0,1.3,0,1.8,0.1
		c0.5,0.1,0.8,0.1,1.1,0.3c0.3,0.1,0.5,0.2,0.6,0.4c0.1,0.1,0.2,0.3,0.1,0.5L221.2,142.1L221.2,142.1z M224.4,107.1
		c-0.1,1.5-0.5,2.5-1.1,3.1c-0.6,0.6-1.8,0.8-3.4,0.8c-1.7,0-2.8-0.3-3.3-0.8c-0.5-0.5-0.7-1.5-0.6-3c0.1-1.5,0.5-2.5,1.1-3.1
		c0.6-0.6,1.8-0.9,3.5-0.9c1.6,0,2.7,0.3,3.3,0.8C224.3,104.7,224.5,105.7,224.4,107.1L224.4,107.1z M255.9,128.7
		c-0.2,2.3-0.6,4.4-1.2,6.3c-0.6,1.9-1.5,3.4-2.6,4.7c-1.1,1.3-2.3,2.3-3.8,3c-1.4,0.7-3,1.1-4.8,1.1c-0.9,0-1.7-0.1-2.4-0.3
		c-0.8-0.2-1.5-0.4-2.1-0.8c-0.7-0.4-1.3-0.8-1.9-1.4c-0.6-0.6-1.3-1.2-1.9-2.1l-0.2,2.8c0,0.2-0.1,0.4-0.2,0.6
		c-0.1,0.1-0.3,0.3-0.6,0.4c-0.2,0.1-0.6,0.2-1,0.2c-0.4,0-0.9,0.1-1.5,0.1c-0.6,0-1.1,0-1.5-0.1c-0.4,0-0.7-0.1-1-0.2
		c-0.2-0.1-0.4-0.2-0.5-0.4c-0.1-0.2-0.1-0.3-0.1-0.6l2.9-38.6c0-0.2,0.1-0.4,0.2-0.5c0.1-0.2,0.3-0.3,0.6-0.4
		c0.3-0.1,0.7-0.2,1.2-0.3c0.5-0.1,1.1-0.1,1.8-0.1c0.7,0,1.3,0,1.8,0.1c0.5,0.1,0.8,0.1,1.1,0.3c0.3,0.1,0.5,0.2,0.6,0.4
		c0.1,0.2,0.2,0.3,0.1,0.5l-1.1,14.5c0.7-0.7,1.4-1.2,2.1-1.7c0.7-0.5,1.4-0.9,2.1-1.1c0.7-0.3,1.4-0.5,2.1-0.7
		c0.7-0.1,1.5-0.2,2.2-0.2c1.9,0,3.5,0.4,4.8,1.2c1.3,0.8,2.3,1.8,3.1,3.1c0.8,1.3,1.3,2.8,1.5,4.6
		C256,124.9,256.1,126.7,255.9,128.7L255.9,128.7z M248.2,129.2c0.1-1.1,0.1-2.2,0-3.2c-0.1-1-0.3-2-0.6-2.8
		c-0.4-0.8-0.8-1.4-1.5-1.9c-0.6-0.5-1.4-0.7-2.4-0.7c-0.5,0-1,0.1-1.5,0.2c-0.5,0.1-1,0.4-1.5,0.7c-0.5,0.3-1.1,0.8-1.6,1.3
		c-0.6,0.5-1.2,1.2-1.8,2l-0.6,8.7c0.9,1.3,1.9,2.3,2.7,3c0.9,0.7,1.9,1,2.9,1c1,0,1.8-0.2,2.5-0.7c0.7-0.5,1.3-1.1,1.8-1.9
		c0.5-0.8,0.9-1.7,1.2-2.7C248,131.2,248.2,130.2,248.2,129.2L248.2,129.2z"/>
</g>
<g transform="matrix(.9481 0 0 .9481 28.3646 5.9371)">
	<g>
		<circle class="st1" cx="138.6" cy="129.3" r="23.4"/>
		<g>
			<path id="D" class="st2" d="M138.5,151.3c12.2,0,22.2-9.9,22.2-22.2s-9.9-22.2-22.2-22.2c-12.2,0-22.2,9.9-22.2,22.2
				S126.2,151.3,138.5,151.3z"/>
		</g>
	</g>
	<g transform="matrix(2.1033 0 0 2.1033 431.9281 30.5113)">
		<g>
			<g>
				<defs>
					<path id="SVGID_1_" d="M-139.5,57.4c2.8,0,5.5-1.1,7.5-3.1c2-2,3.1-4.7,3.1-7.5c0-2.8-1.1-5.5-3.1-7.5c-2-2-4.7-3.1-7.5-3.1
						c-2.8,0-5.5,1.1-7.5,3.1s-3.1,4.7-3.1,7.5s1.1,5.5,3.1,7.5S-142.3,57.4-139.5,57.4L-139.5,57.4z"/>
				</defs>
				<clipPath id="SVGID_00000098928840151617825510000007198921001905196425_">
					<use xlink:href="#SVGID_1_"  style="overflow:visible;"/>
				</clipPath>
				
					<path style="opacity:0.9;clip-path:url(#SVGID_00000098928840151617825510000007198921001905196425_);fill:none;stroke:#868686;stroke-width:0.1249;stroke-linecap:round;stroke-linejoin:round;stroke-miterlimit:10.6354;stroke-dasharray:0.1275,0.255;enable-background:new    ;" d="
					M-139.5,46.9h10.5 M-139.5,46.9l7.5-7.5 M-139.5,46.9V36.4 M-139.5,46.9l-7.5-7.5 M-139.5,46.9h-10.5"/>
			</g>
			<g>
				<defs>
					<path id="SVGID_00000115496170891094942270000013276598215199882156_" d="M-139.5,57.4c2.8,0,5.5-1.1,7.5-3.1
						c2-2,3.1-4.7,3.1-7.5c0-2.8-1.1-5.5-3.1-7.5c-2-2-4.7-3.1-7.5-3.1c-2.8,0-5.5,1.1-7.5,3.1s-3.1,4.7-3.1,7.5s1.1,5.5,3.1,7.5
						S-142.3,57.4-139.5,57.4L-139.5,57.4z"/>
				</defs>
				<clipPath id="SVGID_00000019675133753334921960000007245976803886313377_">
					<use xlink:href="#SVGID_00000115496170891094942270000013276598215199882156_"  style="overflow:visible;"/>
				</clipPath>
				
					<path style="opacity:0.9;clip-path:url(#SVGID_00000019675133753334921960000007245976803886313377_);fill:none;stroke:#868686;stroke-width:0.1249;stroke-linecap:round;stroke-linejoin:round;stroke-miterlimit:10.6354;stroke-dasharray:0.1275,0.255;enable-background:new    ;" d="
					M-139.5,46.9l-7.5,7.5 M-139.5,46.9v10.5 M-139.5,46.9l7.5,7.5"/>
			</g>
		</g>
		<g>
			<g>
				<defs>
					<path id="SVGID_00000055689497866667355270000009616257503353028751_" d="M-139.5,57.4c2.8,0,5.5-1.1,7.5-3.1
						c2-2,3.1-4.7,3.1-7.5c0-2.8-1.1-5.5-3.1-7.5c-2-2-4.7-3.1-7.5-3.1c-2.8,0-5.5,1.1-7.5,3.1s-3.1,4.7-3.1,7.5s1.1,5.5,3.1,7.5
						S-142.3,57.4-139.5,57.4L-139.5,57.4z"/>
				</defs>
				<clipPath id="SVGID_00000094613755592777439800000008549647331561171620_">
					<use xlink:href="#SVGID_00000055689497866667355270000009616257503353028751_"  style="overflow:visible;"/>
				</clipPath>
				
					<path style="opacity:0.9;clip-path:url(#SVGID_00000094613755592777439800000008549647331561171620_);fill:none;stroke:#818282;stroke-width:0.1249;stroke-linecap:square;stroke-linejoin:round;stroke-miterlimit:265.8852;stroke-dasharray:0.1275,0.255;enable-background:new    ;" d="
					M-138.3,46.9l0-0.3l-0.1-0.3l-0.2-0.2l-0.2-0.2l-0.3-0.1l-0.3-0.1l-0.3,0l-0.3,0.1l-0.3,0.1l-0.2,0.2l-0.2,0.2l-0.1,0.3l0,0.3
					l0,0.3l0.1,0.3l0.2,0.2l0.2,0.2l0.3,0.1l0.3,0.1l0.3,0l0.3-0.1l0.2-0.1l0.2-0.2l0.1-0.2l0.1-0.3L-138.3,46.9"/>
			</g>
			<g>
				<defs>
					<path id="SVGID_00000023990491337784626810000009413860741276034217_" d="M-139.5,57.4c2.8,0,5.5-1.1,7.5-3.1
						c2-2,3.1-4.7,3.1-7.5c0-2.8-1.1-5.5-3.1-7.5c-2-2-4.7-3.1-7.5-3.1c-2.8,0-5.5,1.1-7.5,3.1s-3.1,4.7-3.1,7.5s1.1,5.5,3.1,7.5
						S-142.3,57.4-139.5,57.4L-139.5,57.4z"/>
				</defs>
				<clipPath id="SVGID_00000057870403331483155520000010557261797764445058_">
					<use xlink:href="#SVGID_00000023990491337784626810000009413860741276034217_"  style="overflow:visible;"/>
				</clipPath>
				
					<path style="opacity:0.9;clip-path:url(#SVGID_00000057870403331483155520000010557261797764445058_);fill:none;stroke:#818282;stroke-width:0.1249;stroke-linecap:square;stroke-linejoin:round;stroke-miterlimit:265.8852;stroke-dasharray:0.1275,0.255;enable-background:new    ;" d="
					M-136,46.9l0-0.5l-0.1-0.5l-0.2-0.5l-0.2-0.4l-0.3-0.4l-0.3-0.4l-0.4-0.3l-0.4-0.2l-0.5-0.2l-0.5-0.1l-0.5-0.1l-0.5,0l-0.5,0.1
					l-0.5,0.2l-0.4,0.2l-0.4,0.3l-0.4,0.3l-0.3,0.4l-0.3,0.4l-0.2,0.4l-0.1,0.5l-0.1,0.5v0.5l0.1,0.5l0.1,0.5l0.2,0.4l0.3,0.4
					l0.3,0.4l0.4,0.3l0.4,0.3l0.4,0.2l0.5,0.2l0.5,0.1l0.5,0l0.5-0.1l0.5-0.1l0.5-0.2l0.4-0.2l0.4-0.3l0.3-0.4l0.3-0.4l0.2-0.4
					l0.2-0.5l0.1-0.5L-136,46.9"/>
			</g>
			<g>
				<defs>
					<path id="SVGID_00000147217312524552448490000018023711538939469973_" d="M-139.5,57.4c2.8,0,5.5-1.1,7.5-3.1
						c2-2,3.1-4.7,3.1-7.5c0-2.8-1.1-5.5-3.1-7.5c-2-2-4.7-3.1-7.5-3.1c-2.8,0-5.5,1.1-7.5,3.1s-3.1,4.7-3.1,7.5s1.1,5.5,3.1,7.5
						S-142.3,57.4-139.5,57.4L-139.5,57.4z"/>
				</defs>
				<clipPath id="SVGID_00000182530384977107281400000000114928753129540495_">
					<use xlink:href="#SVGID_00000147217312524552448490000018023711538939469973_"  style="overflow:visible;"/>
				</clipPath>
				
					<path style="opacity:0.9;clip-path:url(#SVGID_00000182530384977107281400000000114928753129540495_);fill:none;stroke:#818282;stroke-width:0.1249;stroke-linecap:square;stroke-linejoin:round;stroke-miterlimit:265.8852;stroke-dasharray:0.1275,0.255;enable-background:new    ;" d="
					M-133.7,46.9l0-0.6l-0.1-0.6l-0.2-0.6l-0.2-0.6l-0.3-0.5l-0.3-0.5l-0.4-0.5l-0.4-0.4l-0.5-0.4l-0.5-0.3l-0.5-0.3l-0.6-0.2
					l-0.6-0.2l-0.6-0.1l-0.6,0l-0.6,0l-0.6,0.1l-0.6,0.2l-0.6,0.2l-0.5,0.3l-0.5,0.3l-0.5,0.4l-0.4,0.4l-0.4,0.5l-0.3,0.5l-0.3,0.5
					l-0.2,0.6l-0.2,0.6l-0.1,0.6l0,0.6l0,0.6l0.1,0.6l0.2,0.6l0.2,0.6l0.3,0.5l0.3,0.5l0.4,0.5l0.4,0.4l0.5,0.4l0.5,0.3l0.5,0.3
					l0.6,0.2l0.6,0.2l0.6,0.1l0.6,0l0.6,0l0.6-0.1l0.6-0.2l0.6-0.2l0.5-0.3l0.5-0.3l0.5-0.4l0.4-0.4l0.4-0.5l0.3-0.5l0.3-0.5
					l0.2-0.6l0.2-0.6l0.1-0.6L-133.7,46.9"/>
			</g>
			<g>
				<defs>
					<path id="SVGID_00000044159050204893371150000004718302257037165503_" d="M-139.5,57.4c2.8,0,5.5-1.1,7.5-3.1
						c2-2,3.1-4.7,3.1-7.5c0-2.8-1.1-5.5-3.1-7.5c-2-2-4.7-3.1-7.5-3.1c-2.8,0-5.5,1.1-7.5,3.1s-3.1,4.7-3.1,7.5s1.1,5.5,3.1,7.5
						S-142.3,57.4-139.5,57.4L-139.5,57.4z"/>
				</defs>
				<clipPath id="SVGID_00000098189506117531436480000016547728790801585544_">
					<use xlink:href="#SVGID_00000044159050204893371150000004718302257037165503_"  style="overflow:visible;"/>
				</clipPath>
				
					<path style="opacity:0.9;clip-path:url(#SVGID_00000098189506117531436480000016547728790801585544_);fill:none;stroke:#818282;stroke-width:0.1249;stroke-linecap:square;stroke-linejoin:round;stroke-miterlimit:265.8852;stroke-dasharray:0.1275,0.255;enable-background:new    ;" d="
					M-131.3,46.9l0-0.9l-0.1-0.8l-0.2-0.8l-0.3-0.8l-0.4-0.8l-0.5-0.7l-0.5-0.7l-0.6-0.6l-0.7-0.5l-0.7-0.5l-0.8-0.4l-0.8-0.3
					l-0.8-0.2l-0.8-0.1l-0.9,0l-0.9,0l-0.8,0.1l-0.8,0.2l-0.8,0.3l-0.8,0.4l-0.7,0.5l-0.7,0.5l-0.6,0.6l-0.5,0.7l-0.5,0.7l-0.4,0.8
					l-0.3,0.8l-0.2,0.8l-0.1,0.8l0,0.9l0,0.9l0.1,0.8l0.2,0.8l0.3,0.8l0.4,0.8l0.5,0.7l0.5,0.7l0.6,0.6l0.7,0.5l0.7,0.5l0.8,0.4
					l0.8,0.3l0.8,0.2l0.8,0.1l0.9,0l0.9,0l0.8-0.1l0.8-0.2l0.8-0.3l0.8-0.4l0.7-0.5l0.7-0.5l0.6-0.6l0.5-0.7l0.5-0.7l0.4-0.8
					l0.3-0.8l0.2-0.8l0.1-0.8L-131.3,46.9"/>
			</g>
		</g>
		<g>
			<g>
				<defs>
					<path id="SVGID_00000147919218852670877090000011290492810486575551_" d="M-139.5,57.4c2.8,0,5.5-1.1,7.5-3.1
						c2-2,3.1-4.7,3.1-7.5c0-2.8-1.1-5.5-3.1-7.5c-2-2-4.7-3.1-7.5-3.1c-2.8,0-5.5,1.1-7.5,3.1s-3.1,4.7-3.1,7.5s1.1,5.5,3.1,7.5
						S-142.3,57.4-139.5,57.4L-139.5,57.4z"/>
				</defs>
				<clipPath id="SVGID_00000023964614824894172530000009310262648991183528_">
					<use xlink:href="#SVGID_00000147919218852670877090000011290492810486575551_"  style="overflow:visible;"/>
				</clipPath>
				<g style="clip-path:url(#SVGID_00000023964614824894172530000009310262648991183528_);">
					<path id="E" class="st10" d="M-139.5,46.9l2.2-0.7l0,0l0,0l0,0l0,0l0,0l0,0l0,0.1l0,0l0,0.1l0,0l0,0l0,0v0l0,0v0l0,0l0,0l0,0
						l0,0v0l0,0v0v0v0v0v0v0L-139.5,46.9L-139.5,46.9z"/>
				</g>
			</g>
			<g>
				<defs>
					<path id="SVGID_00000047742992479792268690000015768545418196795539_" d="M-139.5,57.4c2.8,0,5.5-1.1,7.5-3.1
						c2-2,3.1-4.7,3.1-7.5c0-2.8-1.1-5.5-3.1-7.5c-2-2-4.7-3.1-7.5-3.1c-2.8,0-5.5,1.1-7.5,3.1s-3.1,4.7-3.1,7.5s1.1,5.5,3.1,7.5
						S-142.3,57.4-139.5,57.4L-139.5,57.4z"/>
				</defs>
				<clipPath id="SVGID_00000064313296660081409380000017076615099292906142_">
					<use xlink:href="#SVGID_00000047742992479792268690000015768545418196795539_"  style="overflow:visible;"/>
				</clipPath>
				<g style="clip-path:url(#SVGID_00000064313296660081409380000017076615099292906142_);">
					<path id="F" class="st12" d="M-139.5,46.9l2.5-6.6l0.1,0l0.1,0.1l0,0l0.1,0l0,0l0.1,0.1l0.1,0.1l0.1,0.1l0,0l0.1,0l0,0l0.1,0.1
						l0,0l0.1,0.1l0.1,0.1l0,0l0.1,0.1l0,0l0.1,0.1l0.1,0.1l0,0l0.1,0.1l0,0l0.1,0.1l0,0l0,0L-139.5,46.9L-139.5,46.9z"/>
				</g>
			</g>
			<g>
				<defs>
					<path id="SVGID_00000157986542727695366720000015127584434391085998_" d="M-139.5,57.4c2.8,0,5.5-1.1,7.5-3.1
						c2-2,3.1-4.7,3.1-7.5c0-2.8-1.1-5.5-3.1-7.5c-2-2-4.7-3.1-7.5-3.1c-2.8,0-5.5,1.1-7.5,3.1s-3.1,4.7-3.1,7.5s1.1,5.5,3.1,7.5
						S-142.3,57.4-139.5,57.4L-139.5,57.4z"/>
				</defs>
				<clipPath id="SVGID_00000003071268197244092920000014236433175055393195_">
					<use xlink:href="#SVGID_00000157986542727695366720000015127584434391085998_"  style="overflow:visible;"/>
				</clipPath>
				<g style="clip-path:url(#SVGID_00000003071268197244092920000014236433175055393195_);">
					<path id="G" class="st14" d="M-139.5,46.9l-6-7.2l0.1-0.1l0.2-0.1l0.1-0.1l0,0l0.1-0.1l0.1-0.1l0.1-0.1l0.1-0.1l0.1-0.1
						l0.1-0.1l0,0l0.1-0.1l0,0l0.2-0.1l0.2-0.1l0.2-0.1l0.1-0.1l0,0l0.2-0.1l0.2-0.1l0.2-0.1l0.1-0.1l0,0l0.2-0.1l0.2-0.1l0.2-0.1
						l0.1,0l0,0l0.2-0.1l0.2,0l0.2-0.1l0.1,0l0,0L-139.5,46.9L-139.5,46.9z"/>
				</g>
			</g>
			<g>
				<defs>
					<path id="SVGID_00000024682904311749162170000007261627666215411387_" d="M-139.5,57.4c2.8,0,5.5-1.1,7.5-3.1
						c2-2,3.1-4.7,3.1-7.5c0-2.8-1.1-5.5-3.1-7.5c-2-2-4.7-3.1-7.5-3.1c-2.8,0-5.5,1.1-7.5,3.1s-3.1,4.7-3.1,7.5s1.1,5.5,3.1,7.5
						S-142.3,57.4-139.5,57.4L-139.5,57.4z"/>
				</defs>
				<clipPath id="SVGID_00000026162968447791695470000002797750456742029985_">
					<use xlink:href="#SVGID_00000024682904311749162170000007261627666215411387_"  style="overflow:visible;"/>
				</clipPath>
				<g style="clip-path:url(#SVGID_00000026162968447791695470000002797750456742029985_);">
					<path id="H" class="st16" d="M-139.5,46.9l-8.1,1.5l0-0.1l0-0.1l0-0.1l0-0.1l0-0.1l0-0.1l0-0.1l0-0.1l0-0.2l0-0.2l0-0.2l0-0.1
						l0-0.1v-0.1l0-0.1v-0.1v-0.1v-0.1v-0.1l0-0.1l0-0.1l0-0.1l0-0.1v-0.1l0-0.1l0-0.1l0-0.1l0-0.1l0-0.1l0-0.1l0-0.1l0-0.1l0-0.1
						l0-0.2l0-0.2l0-0.2l0-0.1l0-0.1l0-0.1l0-0.1l0-0.1l0-0.1l0-0.1l0-0.1l0-0.1l0-0.1l0-0.1l0-0.1l0,0l0-0.1l0,0l0-0.1l0,0l0.1-0.1
						l0.1-0.1l0.1-0.1l0,0L-139.5,46.9L-139.5,46.9z"/>
				</g>
			</g>
			<g>
				<defs>
					<path id="SVGID_00000000213889612495518450000009142279125553482410_" d="M-139.5,57.4c2.8,0,5.5-1.1,7.5-3.1
						c2-2,3.1-4.7,3.1-7.5c0-2.8-1.1-5.5-3.1-7.5c-2-2-4.7-3.1-7.5-3.1c-2.8,0-5.5,1.1-7.5,3.1s-3.1,4.7-3.1,7.5s1.1,5.5,3.1,7.5
						S-142.3,57.4-139.5,57.4L-139.5,57.4z"/>
				</defs>
				<clipPath id="SVGID_00000025421733429691964220000015120132849330194050_">
					<use xlink:href="#SVGID_00000000213889612495518450000009142279125553482410_"  style="overflow:visible;"/>
				</clipPath>
				<g style="clip-path:url(#SVGID_00000025421733429691964220000015120132849330194050_);">
					<path id="I" class="st18" d="M-139.5,46.9l-3.9,2.6l0,0l0-0.1l0,0l0-0.1l0,0l0-0.1l0,0l0,0l0,0l0,0l0,0l0,0l0,0l0,0l0,0
						L-139.5,46.9L-139.5,46.9z"/>
				</g>
			</g>
			<g>
				<defs>
					<path id="SVGID_00000050659106434732049450000014739531782942659247_" d="M-139.5,57.4c2.8,0,5.5-1.1,7.5-3.1
						c2-2,3.1-4.7,3.1-7.5c0-2.8-1.1-5.5-3.1-7.5c-2-2-4.7-3.1-7.5-3.1c-2.8,0-5.5,1.1-7.5,3.1s-3.1,4.7-3.1,7.5s1.1,5.5,3.1,7.5
						S-142.3,57.4-139.5,57.4L-139.5,57.4z"/>
				</defs>
				<clipPath id="SVGID_00000181065968951354702630000004538187234015997620_">
					<use xlink:href="#SVGID_00000050659106434732049450000014739531782942659247_"  style="overflow:visible;"/>
				</clipPath>
				<g style="clip-path:url(#SVGID_00000181065968951354702630000004538187234015997620_);">
					<path id="J" class="st20" d="M-139.5,46.9l1,5.8l-0.1,0h0l-0.1,0l0,0l-0.1,0h0l-0.1,0l0,0l-0.1,0h0l-0.1,0h0l-0.1,0h0h-0.1
						h-0.1h0h-0.1h0l-0.1,0h0l-0.1,0h0l-0.1,0l0,0l0,0h-0.1l-0.1,0l0,0l-0.1,0h0l-0.1,0l0,0l-0.1,0l0,0l-0.1,0l0,0l-0.1,0
						L-139.5,46.9L-139.5,46.9z"/>
				</g>
			</g>
			<g>
				<defs>
					<path id="SVGID_00000161614895621637769850000002702472401060404901_" d="M-139.5,57.4c2.8,0,5.5-1.1,7.5-3.1
						c2-2,3.1-4.7,3.1-7.5c0-2.8-1.1-5.5-3.1-7.5c-2-2-4.7-3.1-7.5-3.1c-2.8,0-5.5,1.1-7.5,3.1s-3.1,4.7-3.1,7.5s1.1,5.5,3.1,7.5
						S-142.3,57.4-139.5,57.4L-139.5,57.4z"/>
				</defs>
				<clipPath id="SVGID_00000030476236591957852820000013083371954125876102_">
					<use xlink:href="#SVGID_00000161614895621637769850000002702472401060404901_"  style="overflow:visible;"/>
				</clipPath>
				<g style="clip-path:url(#SVGID_00000030476236591957852820000013083371954125876102_);">
					<path id="K" class="st14" d="M-139.5,46.9l7.4,5.8l-0.1,0.1l-0.1,0.2l-0.1,0.1l-0.1,0.1l-0.1,0.1l-0.1,0.1l-0.1,0.1l-0.1,0.1
						l-0.1,0.1l-0.2,0.1l-0.1,0.1l-0.1,0.1L-139.5,46.9L-139.5,46.9z"/>
				</g>
			</g>
		</g>
	</g>
	<g>
		<g>
			<path id="D_00000111898707609801216120000003390128246256188041_" class="st22" d="M138.5,151.3c12.2,0,22.2-9.9,22.2-22.2
				s-9.9-22.2-22.2-22.2c-12.2,0-22.2,9.9-22.2,22.2S126.2,151.3,138.5,151.3z"/>
		</g>
		<g transform="matrix(2.1033 0 0 2.1033 431.9281 30.5113)">
			<g>
				<defs>
					<path id="SVGID_00000172427335240076035900000014686436840091774340_" d="M-139.5,57.4c2.8,0,5.5-1.1,7.5-3.1
						c2-2,3.1-4.7,3.1-7.5c0-2.8-1.1-5.5-3.1-7.5c-2-2-4.7-3.1-7.5-3.1c-2.8,0-5.5,1.1-7.5,3.1s-3.1,4.7-3.1,7.5s1.1,5.5,3.1,7.5
						S-142.3,57.4-139.5,57.4L-139.5,57.4z"/>
				</defs>
				<clipPath id="SVGID_00000129168599143768308740000014265657014865740455_">
					<use xlink:href="#SVGID_00000172427335240076035900000014686436840091774340_"  style="overflow:visible;"/>
				</clipPath>
				<g style="clip-path:url(#SVGID_00000129168599143768308740000014265657014865740455_);">
					<path id="E_00000013909096800803993620000010832174054119571598_" class="st24" d="M-139.5,46.9l2.2-0.7l0,0l0,0l0,0l0,0l0,0
						l0,0l0,0.1l0,0l0,0.1l0,0l0,0l0,0v0l0,0v0l0,0l0,0l0,0l0,0v0l0,0v0v0v0v0v0v0L-139.5,46.9L-139.5,46.9z"/>
				</g>
			</g>
			<g>
				<defs>
					<path id="SVGID_00000074404119719043625890000000353556161031653775_" d="M-139.5,57.4c2.8,0,5.5-1.1,7.5-3.1
						c2-2,3.1-4.7,3.1-7.5c0-2.8-1.1-5.5-3.1-7.5c-2-2-4.7-3.1-7.5-3.1c-2.8,0-5.5,1.1-7.5,3.1s-3.1,4.7-3.1,7.5s1.1,5.5,3.1,7.5
						S-142.3,57.4-139.5,57.4L-139.5,57.4z"/>
				</defs>
				<clipPath id="SVGID_00000182487861592491935320000018206757349597654159_">
					<use xlink:href="#SVGID_00000074404119719043625890000000353556161031653775_"  style="overflow:visible;"/>
				</clipPath>
				<g style="clip-path:url(#SVGID_00000182487861592491935320000018206757349597654159_);">
					<path id="F_00000048493041513225093290000001944859593360888230_" class="st24" d="M-139.5,46.9l2.5-6.6l0.1,0l0.1,0.1l0,0
						l0.1,0l0,0l0.1,0.1l0.1,0.1l0.1,0.1l0,0l0.1,0l0,0l0.1,0.1l0,0l0.1,0.1l0.1,0.1l0,0l0.1,0.1l0,0l0.1,0.1l0.1,0.1l0,0l0.1,0.1
						l0,0l0.1,0.1l0,0l0,0L-139.5,46.9L-139.5,46.9z"/>
				</g>
			</g>
			<g>
				<defs>
					<path id="SVGID_00000166676898752489899260000006286025573211235473_" d="M-139.5,57.4c2.8,0,5.5-1.1,7.5-3.1
						c2-2,3.1-4.7,3.1-7.5c0-2.8-1.1-5.5-3.1-7.5c-2-2-4.7-3.1-7.5-3.1c-2.8,0-5.5,1.1-7.5,3.1s-3.1,4.7-3.1,7.5s1.1,5.5,3.1,7.5
						S-142.3,57.4-139.5,57.4L-139.5,57.4z"/>
				</defs>
				<clipPath id="SVGID_00000160904767756851124110000009590336675487895695_">
					<use xlink:href="#SVGID_00000166676898752489899260000006286025573211235473_"  style="overflow:visible;"/>
				</clipPath>
				<g style="clip-path:url(#SVGID_00000160904767756851124110000009590336675487895695_);">
					<path id="G_00000130620852419973950120000001785877129389950877_" class="st24" d="M-139.5,46.9l-6-7.2l0.1-0.1l0.2-0.1
						l0.1-0.1l0,0l0.1-0.1l0.1-0.1l0.1-0.1l0.1-0.1l0.1-0.1l0.1-0.1l0,0l0.1-0.1l0,0l0.2-0.1l0.2-0.1l0.2-0.1l0.1-0.1l0,0l0.2-0.1
						l0.2-0.1l0.2-0.1l0.1-0.1l0,0l0.2-0.1l0.2-0.1l0.2-0.1l0.1,0l0,0l0.2-0.1l0.2,0l0.2-0.1l0.1,0l0,0L-139.5,46.9L-139.5,46.9z"/>
				</g>
			</g>
			<g>
				<defs>
					<path id="SVGID_00000096043383012589028030000009023205870936418985_" d="M-139.5,57.4c2.8,0,5.5-1.1,7.5-3.1
						c2-2,3.1-4.7,3.1-7.5c0-2.8-1.1-5.5-3.1-7.5c-2-2-4.7-3.1-7.5-3.1c-2.8,0-5.5,1.1-7.5,3.1s-3.1,4.7-3.1,7.5s1.1,5.5,3.1,7.5
						S-142.3,57.4-139.5,57.4L-139.5,57.4z"/>
				</defs>
				<clipPath id="SVGID_00000086650126523581435280000013069563921976079488_">
					<use xlink:href="#SVGID_00000096043383012589028030000009023205870936418985_"  style="overflow:visible;"/>
				</clipPath>
				<g style="clip-path:url(#SVGID_00000086650126523581435280000013069563921976079488_);">
					<path id="H_00000137839380897202426630000005743126914073438865_" class="st24" d="M-139.5,46.9l-8.1,1.5l0-0.1l0-0.1l0-0.1
						l0-0.1l0-0.1l0-0.1l0-0.1l0-0.1l0-0.2l0-0.2l0-0.2l0-0.1l0-0.1v-0.1l0-0.1v-0.1v-0.1v-0.1v-0.1l0-0.1l0-0.1l0-0.1l0-0.1v-0.1
						l0-0.1l0-0.1l0-0.1l0-0.1l0-0.1l0-0.1l0-0.1l0-0.1l0-0.1l0-0.2l0-0.2l0-0.2l0-0.1l0-0.1l0-0.1l0-0.1l0-0.1l0-0.1l0-0.1l0-0.1
						l0-0.1l0-0.1l0-0.1l0-0.1l0,0l0-0.1l0,0l0-0.1l0,0l0.1-0.1l0.1-0.1l0.1-0.1l0,0L-139.5,46.9L-139.5,46.9z"/>
				</g>
			</g>
			<g>
				<defs>
					<path id="SVGID_00000099634996659813218080000003997489706186650804_" d="M-139.5,57.4c2.8,0,5.5-1.1,7.5-3.1
						c2-2,3.1-4.7,3.1-7.5c0-2.8-1.1-5.5-3.1-7.5c-2-2-4.7-3.1-7.5-3.1c-2.8,0-5.5,1.1-7.5,3.1s-3.1,4.7-3.1,7.5s1.1,5.5,3.1,7.5
						S-142.3,57.4-139.5,57.4L-139.5,57.4z"/>
				</defs>
				<clipPath id="SVGID_00000029025879814753382310000009135067900004110731_">
					<use xlink:href="#SVGID_00000099634996659813218080000003997489706186650804_"  style="overflow:visible;"/>
				</clipPath>
				<g style="clip-path:url(#SVGID_00000029025879814753382310000009135067900004110731_);">
					<path id="I_00000181076038037399129230000017883473249499733169_" class="st24" d="M-139.5,46.9l-3.9,2.6l0,0l0-0.1l0,0l0-0.1
						l0,0l0-0.1l0,0l0,0l0,0l0,0l0,0l0,0l0,0l0,0l0,0L-139.5,46.9L-139.5,46.9z"/>
				</g>
			</g>
			<g>
				<defs>
					<path id="SVGID_00000039128758580476139830000011761886003809539984_" d="M-139.5,57.4c2.8,0,5.5-1.1,7.5-3.1
						c2-2,3.1-4.7,3.1-7.5c0-2.8-1.1-5.5-3.1-7.5c-2-2-4.7-3.1-7.5-3.1c-2.8,0-5.5,1.1-7.5,3.1s-3.1,4.7-3.1,7.5s1.1,5.5,3.1,7.5
						S-142.3,57.4-139.5,57.4L-139.5,57.4z"/>
				</defs>
				<clipPath id="SVGID_00000091733463769936020840000018236655848814299068_">
					<use xlink:href="#SVGID_00000039128758580476139830000011761886003809539984_"  style="overflow:visible;"/>
				</clipPath>
				<g style="clip-path:url(#SVGID_00000091733463769936020840000018236655848814299068_);">
					<path id="J_00000165204405656216504350000005339584849952460729_" class="st24" d="M-139.5,46.9l1,5.8l-0.1,0h0l-0.1,0l0,0
						l-0.1,0h0l-0.1,0l0,0l-0.1,0h0l-0.1,0h0l-0.1,0h0h-0.1h-0.1h0h-0.1h0l-0.1,0h0l-0.1,0h0l-0.1,0l0,0l0,0h-0.1l-0.1,0l0,0l-0.1,0
						h0l-0.1,0l0,0l-0.1,0l0,0l-0.1,0l0,0l-0.1,0L-139.5,46.9L-139.5,46.9z"/>
				</g>
			</g>
			<g>
				<defs>
					<path id="SVGID_00000155867324581183259930000012947170096092391566_" d="M-139.5,57.4c2.8,0,5.5-1.1,7.5-3.1
						c2-2,3.1-4.7,3.1-7.5c0-2.8-1.1-5.5-3.1-7.5c-2-2-4.7-3.1-7.5-3.1c-2.8,0-5.5,1.1-7.5,3.1s-3.1,4.7-3.1,7.5s1.1,5.5,3.1,7.5
						S-142.3,57.4-139.5,57.4L-139.5,57.4z"/>
				</defs>
				<clipPath id="SVGID_00000031208440198238069420000017738875639055987601_">
					<use xlink:href="#SVGID_00000155867324581183259930000012947170096092391566_"  style="overflow:visible;"/>
				</clipPath>
				<g style="clip-path:url(#SVGID_00000031208440198238069420000017738875639055987601_);">
					<path id="K_00000001640877914217143450000013779679588867442101_" class="st24" d="M-139.5,46.9l7.4,5.8l-0.1,0.1l-0.1,0.2
						l-0.1,0.1l-0.1,0.1l-0.1,0.1l-0.1,0.1l-0.1,0.1l-0.1,0.1l-0.1,0.1l-0.2,0.1l-0.1,0.1l-0.1,0.1L-139.5,46.9L-139.5,46.9z"/>
				</g>
			</g>
		</g>
	</g>
</g>
</svg>
