<?xml version="1.0" encoding="utf-8"?>
<!-- Generator: Adobe Illustrator 27.5.0, SVG Export Plug-In . SVG Version: 6.00 Build 0)  -->
<svg version="1.1" id="Calque_1" xmlns="http://www.w3.org/2000/svg" xmlns:xlink="http://www.w3.org/1999/xlink" x="0px" y="0px"
	 viewBox="0 0 256 256" style="enable-background:new 0 0 256 256;" xml:space="preserve">
<style type="text/css">
	
		.st0{opacity:0.9;clip-path:url(#SVGID_00000111895749789793252830000018283430116638014138_);fill:none;stroke:#868686;stroke-width:0.7427;stroke-linecap:round;stroke-linejoin:round;stroke-miterlimit:10.6354;stroke-dasharray:0.7578,1.5157;enable-background:new    ;}
	
		.st1{opacity:0.9;clip-path:url(#SVGID_00000120524831317178741380000014100967779065744005_);fill:none;stroke:#868686;stroke-width:0.7427;stroke-linecap:round;stroke-linejoin:round;stroke-miterlimit:10.6354;stroke-dasharray:0.7578,1.5157;enable-background:new    ;}
	
		.st2{opacity:0.9;clip-path:url(#SVGID_00000170252895915148274650000001397315682777173163_);fill:none;stroke:#818282;stroke-width:0.7427;stroke-linecap:square;stroke-linejoin:round;stroke-miterlimit:265.8852;stroke-dasharray:0.7578,1.5157;enable-background:new    ;}
	
		.st3{opacity:0.9;clip-path:url(#SVGID_00000004519565025133246860000015378492089339853995_);fill:none;stroke:#818282;stroke-width:0.7427;stroke-linecap:square;stroke-linejoin:round;stroke-miterlimit:265.8852;stroke-dasharray:0.7578,1.5157;enable-background:new    ;}
	
		.st4{opacity:0.9;clip-path:url(#SVGID_00000007391062364591669280000001393455902333142206_);fill:none;stroke:#818282;stroke-width:0.7427;stroke-linecap:square;stroke-linejoin:round;stroke-miterlimit:265.8852;stroke-dasharray:0.7578,1.5157;enable-background:new    ;}
	
		.st5{opacity:0.9;clip-path:url(#SVGID_00000021095904700768699240000007705989621820859530_);fill:none;stroke:#818282;stroke-width:0.7427;stroke-linecap:square;stroke-linejoin:round;stroke-miterlimit:265.8852;stroke-dasharray:0.7578,1.5157;enable-background:new    ;}
	.st6{clip-path:url(#SVGID_00000108277255216984000630000014347824526353790388_);}
	.st7{fill:#3157A4;stroke:#020203;stroke-width:1.7081;stroke-linejoin:round;stroke-miterlimit:265.8852;}
	.st8{clip-path:url(#SVGID_00000182486519112258855010000018301036695223258814_);}
	.st9{fill:#CAD400;stroke:#020203;stroke-width:1.7081;stroke-linejoin:round;stroke-miterlimit:265.8852;}
	.st10{clip-path:url(#SVGID_00000048464557122066831410000003984308741160864403_);}
	.st11{fill:#EC691D;stroke:#020203;stroke-width:1.7081;stroke-linejoin:round;stroke-miterlimit:265.8852;}
	.st12{clip-path:url(#SVGID_00000122688650651228073730000006635859248740851896_);}
	.st13{fill:#FDC30B;stroke:#020203;stroke-width:1.7081;stroke-linejoin:round;stroke-miterlimit:265.8852;}
	.st14{clip-path:url(#SVGID_00000143617015786294653100000005125524528827060670_);}
	.st15{fill:#71C2B1;stroke:#020203;stroke-width:1.7081;stroke-linejoin:round;stroke-miterlimit:265.8852;}
	.st16{clip-path:url(#SVGID_00000097458258838030590650000011630055619900982925_);}
	.st17{fill:#93C466;stroke:#020203;stroke-width:1.7081;stroke-linejoin:round;stroke-miterlimit:265.8852;}
	.st18{clip-path:url(#SVGID_00000064351404786158631970000000474267429089829789_);}
	.st19{fill:none;stroke:#11567D;stroke-width:3.7075;stroke-miterlimit:10;}
	.st20{clip-path:url(#SVGID_00000126309662167580217720000012290580352315407239_);}
	.st21{fill:none;stroke:#020203;stroke-width:1.7081;stroke-linejoin:round;stroke-miterlimit:265.8852;}
	.st22{clip-path:url(#SVGID_00000168808365977018308970000002717745960288708000_);}
	.st23{clip-path:url(#SVGID_00000031174008843496203030000006483851725044784777_);}
	.st24{clip-path:url(#SVGID_00000091730283265792033650000006613218175425175938_);}
	.st25{clip-path:url(#SVGID_00000136375615406846956150000017104778484175816361_);}
	.st26{clip-path:url(#SVGID_00000044149794659992818170000004809413488316727682_);}
	.st27{clip-path:url(#SVGID_00000034768592113852513750000002942743746779953807_);}
</style>
<g transform="matrix(2.1033 0 0 2.1033 431.9281 30.5113)">
	<g>
		<g>
			<defs>
				<path id="SVGID_1_" d="M-144.5,105.8c15.8,0,30.9-6.3,42-17.4s17.4-26.3,17.4-42s-6.3-30.9-17.4-42s-26.3-17.4-42-17.4
					s-30.9,6.3-42,17.4s-17.4,26.3-17.4,42s6.3,30.9,17.4,42S-160.3,105.8-144.5,105.8L-144.5,105.8z"/>
			</defs>
			<clipPath id="SVGID_00000023260803822257756500000004220727857877674903_">
				<use xlink:href="#SVGID_1_"  style="overflow:visible;"/>
			</clipPath>
			
				<path style="opacity:0.9;clip-path:url(#SVGID_00000023260803822257756500000004220727857877674903_);fill:none;stroke:#868686;stroke-width:0.7427;stroke-linecap:round;stroke-linejoin:round;stroke-miterlimit:10.6354;stroke-dasharray:0.7578,1.5157;enable-background:new    ;" d="
				M-144.5,46.4h59.4 M-144.5,46.4l42-42 M-144.5,46.4v-59.4 M-144.5,46.4l-42-42 M-144.5,46.4h-59.4"/>
		</g>
		<g>
			<defs>
				<path id="SVGID_00000129900913545944742970000017373750759036654757_" d="M-144.5,105.8c15.8,0,30.9-6.3,42-17.4
					s17.4-26.3,17.4-42s-6.3-30.9-17.4-42s-26.3-17.4-42-17.4s-30.9,6.3-42,17.4s-17.4,26.3-17.4,42s6.3,30.9,17.4,42
					S-160.3,105.8-144.5,105.8L-144.5,105.8z"/>
			</defs>
			<clipPath id="SVGID_00000084499067515981438380000006057521352658776715_">
				<use xlink:href="#SVGID_00000129900913545944742970000017373750759036654757_"  style="overflow:visible;"/>
			</clipPath>
			
				<path style="opacity:0.9;clip-path:url(#SVGID_00000084499067515981438380000006057521352658776715_);fill:none;stroke:#868686;stroke-width:0.7427;stroke-linecap:round;stroke-linejoin:round;stroke-miterlimit:10.6354;stroke-dasharray:0.7578,1.5157;enable-background:new    ;" d="
				M-144.5,46.4l-42,42 M-144.5,46.4v59.4 M-144.5,46.4l42,42"/>
		</g>
	</g>
	<g>
		<g>
			<defs>
				<path id="SVGID_00000003791064369065579330000004176349097973200775_" d="M-144.5,105.8c15.8,0,30.9-6.3,42-17.4
					s17.4-26.3,17.4-42s-6.3-30.9-17.4-42s-26.3-17.4-42-17.4s-30.9,6.3-42,17.4s-17.4,26.3-17.4,42s6.3,30.9,17.4,42
					S-160.3,105.8-144.5,105.8L-144.5,105.8z"/>
			</defs>
			<clipPath id="SVGID_00000165203653594155842820000003317497204538780834_">
				<use xlink:href="#SVGID_00000003791064369065579330000004176349097973200775_"  style="overflow:visible;"/>
			</clipPath>
			
				<path style="opacity:0.9;clip-path:url(#SVGID_00000165203653594155842820000003317497204538780834_);fill:none;stroke:#818282;stroke-width:0.7427;stroke-linecap:square;stroke-linejoin:round;stroke-miterlimit:265.8852;stroke-dasharray:0.7578,1.5157;enable-background:new    ;" d="
				M-137.9,46.4l-0.2-1.6l-0.6-1.5l-0.9-1.3l-1.2-1.1l-1.4-0.7l-1.6-0.4l-1.6,0l-1.6,0.4l-1.4,0.8l-1.2,1.1l-0.9,1.3L-151,45
				l-0.1,1.6l0.2,1.6l0.6,1.5l1,1.3l1.2,1l1.5,0.7l1.6,0.3l1.6-0.1l1.5-0.5l1.4-0.8l1.1-1.1l0.8-1.4l0.5-1.5L-137.9,46.4"/>
		</g>
		<g>
			<defs>
				<path id="SVGID_00000049923761255086553340000008456276240659986315_" d="M-144.5,105.8c15.8,0,30.9-6.3,42-17.4
					s17.4-26.3,17.4-42s-6.3-30.9-17.4-42s-26.3-17.4-42-17.4s-30.9,6.3-42,17.4s-17.4,26.3-17.4,42s6.3,30.9,17.4,42
					S-160.3,105.8-144.5,105.8L-144.5,105.8z"/>
			</defs>
			<clipPath id="SVGID_00000070084939042096481410000000605225451178762134_">
				<use xlink:href="#SVGID_00000049923761255086553340000008456276240659986315_"  style="overflow:visible;"/>
			</clipPath>
			
				<path style="opacity:0.9;clip-path:url(#SVGID_00000070084939042096481410000000605225451178762134_);fill:none;stroke:#818282;stroke-width:0.7427;stroke-linecap:square;stroke-linejoin:round;stroke-miterlimit:265.8852;stroke-dasharray:0.7578,1.5157;enable-background:new    ;" d="
				M-124.7,46.4l-0.2-2.8l-0.6-2.7l-1-2.6l-1.3-2.4l-1.6-2.2l-1.9-2l-2.2-1.7l-2.4-1.4l-2.6-1.1l-2.7-0.7l-2.8-0.3l-2.8,0.1
				l-2.7,0.5l-2.6,0.8l-2.5,1.2l-2.3,1.6l-2,1.9l-1.8,2.1l-1.5,2.3l-1.1,2.5l-0.8,2.6l-0.4,2.7v2.8l0.4,2.7l0.8,2.6l1.1,2.5l1.5,2.3
				l1.8,2.1l2,1.9l2.3,1.6l2.5,1.2l2.6,0.8l2.7,0.5l2.8,0.1l2.8-0.3l2.7-0.7l2.6-1.1l2.4-1.4l2.2-1.7l1.9-2l1.6-2.2l1.3-2.4l1-2.6
				l0.6-2.7L-124.7,46.4"/>
		</g>
		<g>
			<defs>
				<path id="SVGID_00000133510540826877185790000015172475918593164976_" d="M-144.5,105.8c15.8,0,30.9-6.3,42-17.4
					s17.4-26.3,17.4-42s-6.3-30.9-17.4-42s-26.3-17.4-42-17.4s-30.9,6.3-42,17.4s-17.4,26.3-17.4,42s6.3,30.9,17.4,42
					S-160.3,105.8-144.5,105.8L-144.5,105.8z"/>
			</defs>
			<clipPath id="SVGID_00000088091442393746546510000001089248934294833794_">
				<use xlink:href="#SVGID_00000133510540826877185790000015172475918593164976_"  style="overflow:visible;"/>
			</clipPath>
			
				<path style="opacity:0.9;clip-path:url(#SVGID_00000088091442393746546510000001089248934294833794_);fill:none;stroke:#818282;stroke-width:0.7427;stroke-linecap:square;stroke-linejoin:round;stroke-miterlimit:265.8852;stroke-dasharray:0.7578,1.5157;enable-background:new    ;" d="
				M-111.5,46.4l-0.2-3.4l-0.5-3.4l-0.9-3.4l-1.2-3.2l-1.6-3.1l-1.9-2.9l-2.2-2.7l-2.4-2.4l-2.7-2.2l-2.9-1.9l-3.1-1.6l-3.2-1.2
				l-3.4-0.9l-3.4-0.5l-3.4-0.2l-3.4,0.2l-3.4,0.5l-3.4,0.9l-3.2,1.2l-3.1,1.6l-2.9,1.9l-2.6,2.2l-2.5,2.5l-2.2,2.7l-1.9,2.9
				l-1.6,3.1l-1.2,3.2l-0.9,3.4l-0.5,3.4l-0.2,3.4l0.2,3.4l0.5,3.4l0.9,3.4l1.2,3.2l1.6,3.1l1.9,2.9l2.2,2.7l2.4,2.4l2.7,2.2
				l2.9,1.9l3.1,1.6l3.2,1.2l3.4,0.9l3.4,0.5l3.4,0.2l3.4-0.2l3.4-0.5l3.4-0.9l3.2-1.2l3.1-1.6l2.9-1.9l2.7-2.2l2.4-2.4l2.2-2.7
				l1.9-2.9l1.6-3.1l1.2-3.2l0.9-3.4l0.5-3.4L-111.5,46.4"/>
		</g>
		<g>
			<defs>
				<path id="SVGID_00000079456330285381657530000002397274034322275725_" d="M-144.5,105.8c15.8,0,30.9-6.3,42-17.4
					s17.4-26.3,17.4-42s-6.3-30.9-17.4-42s-26.3-17.4-42-17.4s-30.9,6.3-42,17.4s-17.4,26.3-17.4,42s6.3,30.9,17.4,42
					S-160.3,105.8-144.5,105.8L-144.5,105.8z"/>
			</defs>
			<clipPath id="SVGID_00000098192494564894629220000011573755972320344753_">
				<use xlink:href="#SVGID_00000079456330285381657530000002397274034322275725_"  style="overflow:visible;"/>
			</clipPath>
			
				<path style="opacity:0.9;clip-path:url(#SVGID_00000098192494564894629220000011573755972320344753_);fill:none;stroke:#818282;stroke-width:0.7427;stroke-linecap:square;stroke-linejoin:round;stroke-miterlimit:265.8852;stroke-dasharray:0.7578,1.5157;enable-background:new    ;" d="
				M-98.3,46.4l-0.2-4.8l-0.8-4.8l-1.2-4.7l-1.7-4.5l-2.2-4.3l-2.6-4.1l-3-3.8l-3.4-3.4l-3.8-3l-4.1-2.6l-4.3-2.2l-4.5-1.7l-4.7-1.2
				l-4.8-0.8l-4.8-0.2l-4.8,0.2l-4.8,0.8l-4.7,1.2l-4.5,1.7l-4.3,2.2l-4.1,2.6l-3.8,3l-3.4,3.4l-3,3.8l-2.6,4.1l-2.2,4.3l-1.7,4.5
				l-1.2,4.7l-0.8,4.8l-0.2,4.8l0.2,4.8l0.8,4.8l1.2,4.7l1.7,4.5l2.2,4.3l2.6,4.1l3,3.8l3.4,3.4l3.8,3l4.1,2.6l4.3,2.2l4.5,1.7
				l4.7,1.2l4.8,0.8l4.8,0.2l4.8-0.2l4.8-0.8l4.7-1.2l4.5-1.7l4.3-2.2l4.1-2.6l3.8-3l3.4-3.4l3-3.7l2.6-4.1l2.2-4.3l1.7-4.5l1.2-4.7
				l0.8-4.8L-98.3,46.4"/>
		</g>
	</g>
	<g>
		<g>
			<defs>
				<path id="SVGID_00000075874417748945155850000017477000202014011536_" d="M-144.5,105.8c15.8,0,30.9-6.3,42-17.4
					s17.4-26.3,17.4-42s-6.3-30.9-17.4-42s-26.3-17.4-42-17.4s-30.9,6.3-42,17.4s-17.4,26.3-17.4,42s6.3,30.9,17.4,42
					S-160.3,105.8-144.5,105.8L-144.5,105.8z"/>
			</defs>
			<clipPath id="SVGID_00000040565644763103222430000006271923092362154155_">
				<use xlink:href="#SVGID_00000075874417748945155850000017477000202014011536_"  style="overflow:visible;"/>
			</clipPath>
			<g style="clip-path:url(#SVGID_00000040565644763103222430000006271923092362154155_);">
				<path id="E" class="st7" d="M-144.5,46.4l12.6-4l0,0l0.1,0.2l0,0.1l0.1,0.2l0,0.1l0.1,0.2l0.1,0.3l0.1,0.2l0.1,0.3l0,0.2l0,0.1
					l0,0.2v0.1l0,0.2v0.1l0,0.2l0,0.1l0,0.2l0,0.1v0.1l0,0.2v0.1v0.2V46v0.1v0.1v0.2h-13.1L-144.5,46.4z"/>
			</g>
		</g>
		<g>
			<defs>
				<path id="SVGID_00000139985406191682381840000005784607655080336810_" d="M-144.5,105.8c15.8,0,30.9-6.3,42-17.4
					s17.4-26.3,17.4-42s-6.3-30.9-17.4-42s-26.3-17.4-42-17.4s-30.9,6.3-42,17.4s-17.4,26.3-17.4,42s6.3,30.9,17.4,42
					S-160.3,105.8-144.5,105.8L-144.5,105.8z"/>
			</defs>
			<clipPath id="SVGID_00000183214227987445349260000013344185271218287791_">
				<use xlink:href="#SVGID_00000139985406191682381840000005784607655080336810_"  style="overflow:visible;"/>
			</clipPath>
			<g style="clip-path:url(#SVGID_00000183214227987445349260000013344185271218287791_);">
				<path id="F" class="st9" d="M-144.5,46.4l14.2-37l0.7,0.3l0.7,0.3l0.1,0.1l0.6,0.2l0.1,0.1l0.7,0.3l0.8,0.4l0.5,0.3l0.2,0.1
					l0.4,0.2l0.2,0.1l0.5,0.3l0.1,0.1l0.6,0.4l0.6,0.4l0.1,0.1l0.5,0.4l0.1,0.1l0.6,0.4l0.6,0.4l0.1,0.1l0.5,0.4l0.2,0.1l0.4,0.3
					l0.2,0.2l0.2,0.2l-24.5,30.7L-144.5,46.4z"/>
			</g>
		</g>
		<g>
			<defs>
				<path id="SVGID_00000002354068205539616970000011569001125364843403_" d="M-144.5,105.8c15.8,0,30.9-6.3,42-17.4
					s17.4-26.3,17.4-42s-6.3-30.9-17.4-42s-26.3-17.4-42-17.4s-30.9,6.3-42,17.4s-17.4,26.3-17.4,42s6.3,30.9,17.4,42
					S-160.3,105.8-144.5,105.8L-144.5,105.8z"/>
			</defs>
			<clipPath id="SVGID_00000116208087240868902460000017186478382073671318_">
				<use xlink:href="#SVGID_00000002354068205539616970000011569001125364843403_"  style="overflow:visible;"/>
			</clipPath>
			<g style="clip-path:url(#SVGID_00000116208087240868902460000017186478382073671318_);">
				<path id="G" class="st11" d="M-144.5,46.4l-33.8-40.6l0.8-0.6l1-0.8l0.6-0.4l0.2-0.1l0.6-0.4l0.4-0.3l0.4-0.3l0.4-0.3l0.4-0.3
					l0.6-0.4l0.2-0.1l0.6-0.4l0.2-0.1l0.9-0.5l0.9-0.5l1.1-0.6l0.7-0.4l0.2-0.1l0.9-0.4l0.9-0.4l1.1-0.5l0.7-0.3l0.2-0.1l0.9-0.4
					l0.9-0.4l1.2-0.4l0.7-0.2l0.2-0.1l1-0.3l1-0.3l1.2-0.3l0.7-0.2l0.2-0.1l11.7,51L-144.5,46.4z"/>
			</g>
		</g>
		<g>
			<defs>
				<path id="SVGID_00000088834607133295366000000008321271004981367691_" d="M-144.5,105.8c15.8,0,30.9-6.3,42-17.4
					s17.4-26.3,17.4-42s-6.3-30.9-17.4-42s-26.3-17.4-42-17.4s-30.9,6.3-42,17.4s-17.4,26.3-17.4,42s6.3,30.9,17.4,42
					S-160.3,105.8-144.5,105.8L-144.5,105.8z"/>
			</defs>
			<clipPath id="SVGID_00000111912185190415331620000011183056972685661364_">
				<use xlink:href="#SVGID_00000088834607133295366000000008321271004981367691_"  style="overflow:visible;"/>
			</clipPath>
			<g style="clip-path:url(#SVGID_00000111912185190415331620000011183056972685661364_);">
				<path id="H" class="st13" d="M-144.5,46.4l-45.5,8.2l-0.1-0.3l-0.1-0.6l-0.1-0.6l0-0.3l-0.1-0.6l0-0.3l-0.1-0.6l0-0.3l-0.1-0.9
					l-0.1-0.9l-0.1-0.9l0-0.3l0-0.6v-0.3l0-0.6v-0.3v-0.6v-0.6V45l0-0.6l0-0.3l0-0.6l0-0.6v-0.3l0.1-0.6l0-0.3l0.1-0.6l0.1-0.6
					l0-0.3l0.1-0.6l0-0.3l0.1-0.6l0.1-0.3l0.2-0.9l0.2-0.8l0.2-0.8l0.1-0.3l0.1-0.6l0.1-0.3l0.1-0.6l0.1-0.3l0.2-0.6l0.2-0.6
					l0.1-0.3l0.2-0.5l0.1-0.3l0.2-0.5l0.2-0.5l0.1-0.3l0.2-0.5l0.1-0.3l0.2-0.5l0.1-0.3l0.4-0.8l0.4-0.8l0.4-0.8l0.1-0.3l41.2,19.8
					L-144.5,46.4z"/>
			</g>
		</g>
		<g>
			<defs>
				<path id="SVGID_00000075867997479636778000000017213974420530503043_" d="M-144.5,105.8c15.8,0,30.9-6.3,42-17.4
					s17.4-26.3,17.4-42s-6.3-30.9-17.4-42s-26.3-17.4-42-17.4s-30.9,6.3-42,17.4s-17.4,26.3-17.4,42s6.3,30.9,17.4,42
					S-160.3,105.8-144.5,105.8L-144.5,105.8z"/>
			</defs>
			<clipPath id="SVGID_00000178883652486046098350000017885165732838987455_">
				<use xlink:href="#SVGID_00000075867997479636778000000017213974420530503043_"  style="overflow:visible;"/>
			</clipPath>
			<g style="clip-path:url(#SVGID_00000178883652486046098350000017885165732838987455_);">
				<path id="I" class="st15" d="M-144.5,46.4l-21.8,14.9l-0.1-0.1l-0.2-0.3l-0.1-0.1l-0.2-0.3l-0.1-0.2l-0.2-0.3l-0.1-0.2l-0.1-0.2
					l-0.1-0.2l-0.1-0.2l-0.1-0.2l-0.1-0.2l-0.1-0.3l-0.1-0.2l-0.1-0.3l23.6-11.4L-144.5,46.4z"/>
			</g>
		</g>
		<g>
			<defs>
				<path id="SVGID_00000044874314257937158250000012736046420498473107_" d="M-144.5,105.8c15.8,0,30.9-6.3,42-17.4
					s17.4-26.3,17.4-42s-6.3-30.9-17.4-42s-26.3-17.4-42-17.4s-30.9,6.3-42,17.4s-17.4,26.3-17.4,42s6.3,30.9,17.4,42
					S-160.3,105.8-144.5,105.8L-144.5,105.8z"/>
			</defs>
			<clipPath id="SVGID_00000161603425192233118280000002910767695772469935_">
				<use xlink:href="#SVGID_00000044874314257937158250000012736046420498473107_"  style="overflow:visible;"/>
			</clipPath>
			<g style="clip-path:url(#SVGID_00000161603425192233118280000002910767695772469935_);">
				<path id="J" class="st17" d="M-144.5,46.4l5.5,32.6l-0.6,0.1h-0.1l-0.5,0.1l-0.1,0l-0.5,0.1h-0.1l-0.5,0.1l-0.1,0l-0.5,0h-0.1
					l-0.5,0h-0.3l-0.4,0h-0.1h-0.7h-0.4h-0.1h-0.5h-0.1l-0.5,0h-0.1l-0.5,0h-0.1l-0.5,0l-0.3,0l-0.3,0h-0.4l-0.4-0.1l-0.3,0
					l-0.4-0.1h-0.3l-0.4-0.1l-0.2,0l-0.4-0.1l-0.2-0.1l-0.4-0.1l-0.2-0.1l-0.5-0.1l7.3-31.9L-144.5,46.4z"/>
			</g>
		</g>
		<g>
			<defs>
				<path id="SVGID_00000157278252401804882350000000017611870800209045_" d="M-144.5,105.8c15.8,0,30.9-6.3,42-17.4
					s17.4-26.3,17.4-42s-6.3-30.9-17.4-42s-26.3-17.4-42-17.4s-30.9,6.3-42,17.4s-17.4,26.3-17.4,42s6.3,30.9,17.4,42
					S-160.3,105.8-144.5,105.8L-144.5,105.8z"/>
			</defs>
			<clipPath id="SVGID_00000171701367267512357530000004628129564879827077_">
				<use xlink:href="#SVGID_00000157278252401804882350000000017611870800209045_"  style="overflow:visible;"/>
			</clipPath>
			<g style="clip-path:url(#SVGID_00000171701367267512357530000004628129564879827077_);">
				<path id="K" class="st11" d="M-144.5,46.4l41.6,32.6l-0.6,0.8l-0.7,0.9l-0.7,0.8l-0.7,0.8l-0.7,0.7l-0.8,0.8l-0.7,0.7l-0.8,0.8
					l-0.7,0.7l-0.8,0.7l-0.8,0.6l-0.6,0.5l-32.6-40.9L-144.5,46.4z"/>
			</g>
		</g>
	</g>
</g>
<g>
	<g>
		<path id="D_00000111898707609801216120000003390128246256188041_" class="st19" d="M128,253c69,0,125-56,125-125S197,3,128,3
			C59,3,3,59,3,128S59,253,128,253z"/>
	</g>
	<g transform="matrix(2.1033 0 0 2.1033 431.9281 30.5113)">
		<g>
			<defs>
				<path id="SVGID_00000129889388995803358770000006054883659594030760_" d="M-144.5,105.8c15.8,0,30.9-6.3,42-17.4
					s17.4-26.3,17.4-42s-6.3-30.9-17.4-42s-26.3-17.4-42-17.4s-30.9,6.3-42,17.4s-17.4,26.3-17.4,42s6.3,30.9,17.4,42
					S-160.3,105.8-144.5,105.8L-144.5,105.8z"/>
			</defs>
			<clipPath id="SVGID_00000048467000450719909800000012313818193534248616_">
				<use xlink:href="#SVGID_00000129889388995803358770000006054883659594030760_"  style="overflow:visible;"/>
			</clipPath>
			<g style="clip-path:url(#SVGID_00000048467000450719909800000012313818193534248616_);">
				<path id="E_00000013909096800803993620000010832174054119571598_" class="st21" d="M-144.5,46.4l12.6-4l0,0l0.1,0.2l0,0.1
					l0.1,0.2l0,0.1l0.1,0.2l0.1,0.3l0.1,0.2l0.1,0.3l0,0.2l0,0.1l0,0.2v0.1l0,0.2v0.1l0,0.2l0,0.1l0,0.2l0,0.1v0.1l0,0.2v0.1v0.2V46
					v0.1v0.1v0.2h-13.1L-144.5,46.4z"/>
			</g>
		</g>
		<g>
			<defs>
				<path id="SVGID_00000041988588089790922470000010195542369758873737_" d="M-144.5,105.8c15.8,0,30.9-6.3,42-17.4
					s17.4-26.3,17.4-42s-6.3-30.9-17.4-42s-26.3-17.4-42-17.4s-30.9,6.3-42,17.4s-17.4,26.3-17.4,42s6.3,30.9,17.4,42
					S-160.3,105.8-144.5,105.8L-144.5,105.8z"/>
			</defs>
			<clipPath id="SVGID_00000132081194664465319150000009255858312481274265_">
				<use xlink:href="#SVGID_00000041988588089790922470000010195542369758873737_"  style="overflow:visible;"/>
			</clipPath>
			<g style="clip-path:url(#SVGID_00000132081194664465319150000009255858312481274265_);">
				<path id="F_00000048493041513225093290000001944859593360888230_" class="st21" d="M-144.5,46.4l14.2-37l0.7,0.3l0.7,0.3
					l0.1,0.1l0.6,0.2l0.1,0.1l0.7,0.3l0.8,0.4l0.5,0.3l0.2,0.1l0.4,0.2l0.2,0.1l0.5,0.3l0.1,0.1l0.6,0.4l0.6,0.4l0.1,0.1l0.5,0.4
					l0.1,0.1l0.6,0.4l0.6,0.4l0.1,0.1l0.5,0.4l0.2,0.1l0.4,0.3l0.2,0.2l0.2,0.2l-24.5,30.7L-144.5,46.4z"/>
			</g>
		</g>
		<g>
			<defs>
				<path id="SVGID_00000047059165721285118390000017086739230337777846_" d="M-144.5,105.8c15.8,0,30.9-6.3,42-17.4
					s17.4-26.3,17.4-42s-6.3-30.9-17.4-42s-26.3-17.4-42-17.4s-30.9,6.3-42,17.4s-17.4,26.3-17.4,42s6.3,30.9,17.4,42
					S-160.3,105.8-144.5,105.8L-144.5,105.8z"/>
			</defs>
			<clipPath id="SVGID_00000170980660390204650740000016597141499758869934_">
				<use xlink:href="#SVGID_00000047059165721285118390000017086739230337777846_"  style="overflow:visible;"/>
			</clipPath>
			<g style="clip-path:url(#SVGID_00000170980660390204650740000016597141499758869934_);">
				<path id="G_00000130620852419973950120000001785877129389950877_" class="st21" d="M-144.5,46.4l-33.8-40.6l0.8-0.6l1-0.8
					l0.6-0.4l0.2-0.1l0.6-0.4l0.4-0.3l0.4-0.3l0.4-0.3l0.4-0.3l0.6-0.4l0.2-0.1l0.6-0.4l0.2-0.1l0.9-0.5l0.9-0.5l1.1-0.6l0.7-0.4
					l0.2-0.1l0.9-0.4l0.9-0.4l1.1-0.5l0.7-0.3l0.2-0.1l0.9-0.4l0.9-0.4l1.2-0.4l0.7-0.2l0.2-0.1l1-0.3l1-0.3l1.2-0.3l0.7-0.2
					l0.2-0.1l11.7,51L-144.5,46.4z"/>
			</g>
		</g>
		<g>
			<defs>
				<path id="SVGID_00000078767162968591970030000016901127501433438366_" d="M-144.5,105.8c15.8,0,30.9-6.3,42-17.4
					s17.4-26.3,17.4-42s-6.3-30.9-17.4-42s-26.3-17.4-42-17.4s-30.9,6.3-42,17.4s-17.4,26.3-17.4,42s6.3,30.9,17.4,42
					S-160.3,105.8-144.5,105.8L-144.5,105.8z"/>
			</defs>
			<clipPath id="SVGID_00000155114390866626387870000012407505333295070352_">
				<use xlink:href="#SVGID_00000078767162968591970030000016901127501433438366_"  style="overflow:visible;"/>
			</clipPath>
			<g style="clip-path:url(#SVGID_00000155114390866626387870000012407505333295070352_);">
				<path id="H_00000137839380897202426630000005743126914073438865_" class="st21" d="M-144.5,46.4l-45.5,8.2l-0.1-0.3l-0.1-0.6
					l-0.1-0.6l0-0.3l-0.1-0.6l0-0.3l-0.1-0.6l0-0.3l-0.1-0.9l-0.1-0.9l-0.1-0.9l0-0.3l0-0.6v-0.3l0-0.6v-0.3v-0.6v-0.6V45l0-0.6
					l0-0.3l0-0.6l0-0.6v-0.3l0.1-0.6l0-0.3l0.1-0.6l0.1-0.6l0-0.3l0.1-0.6l0-0.3l0.1-0.6l0.1-0.3l0.2-0.9l0.2-0.8l0.2-0.8l0.1-0.3
					l0.1-0.6l0.1-0.3l0.1-0.6l0.1-0.3l0.2-0.6l0.2-0.6l0.1-0.3l0.2-0.5l0.1-0.3l0.2-0.5l0.2-0.5l0.1-0.3l0.2-0.5l0.1-0.3l0.2-0.5
					l0.1-0.3l0.4-0.8l0.4-0.8l0.4-0.8l0.1-0.3l41.2,19.8L-144.5,46.4z"/>
			</g>
		</g>
		<g>
			<defs>
				<path id="SVGID_00000109032036273927729800000000952810905093350563_" d="M-144.5,105.8c15.8,0,30.9-6.3,42-17.4
					s17.4-26.3,17.4-42s-6.3-30.9-17.4-42s-26.3-17.4-42-17.4s-30.9,6.3-42,17.4s-17.4,26.3-17.4,42s6.3,30.9,17.4,42
					S-160.3,105.8-144.5,105.8L-144.5,105.8z"/>
			</defs>
			<clipPath id="SVGID_00000013901068653652289960000016221327957634856620_">
				<use xlink:href="#SVGID_00000109032036273927729800000000952810905093350563_"  style="overflow:visible;"/>
			</clipPath>
			<g style="clip-path:url(#SVGID_00000013901068653652289960000016221327957634856620_);">
				<path id="I_00000181076038037399129230000017883473249499733169_" class="st21" d="M-144.5,46.4l-21.8,14.9l-0.1-0.1l-0.2-0.3
					l-0.1-0.1l-0.2-0.3l-0.1-0.2l-0.2-0.3l-0.1-0.2l-0.1-0.2l-0.1-0.2l-0.1-0.2l-0.1-0.2l-0.1-0.2l-0.1-0.3l-0.1-0.2l-0.1-0.3
					l23.6-11.4L-144.5,46.4z"/>
			</g>
		</g>
		<g>
			<defs>
				<path id="SVGID_00000168084213269270310680000015842878521329451669_" d="M-144.5,105.8c15.8,0,30.9-6.3,42-17.4
					s17.4-26.3,17.4-42s-6.3-30.9-17.4-42s-26.3-17.4-42-17.4s-30.9,6.3-42,17.4s-17.4,26.3-17.4,42s6.3,30.9,17.4,42
					S-160.3,105.8-144.5,105.8L-144.5,105.8z"/>
			</defs>
			<clipPath id="SVGID_00000137824785654722029300000017675370034132753048_">
				<use xlink:href="#SVGID_00000168084213269270310680000015842878521329451669_"  style="overflow:visible;"/>
			</clipPath>
			<g style="clip-path:url(#SVGID_00000137824785654722029300000017675370034132753048_);">
				<path id="J_00000165204405656216504350000005339584849952460729_" class="st21" d="M-144.5,46.4l5.5,32.6l-0.6,0.1h-0.1
					l-0.5,0.1l-0.1,0l-0.5,0.1h-0.1l-0.5,0.1l-0.1,0l-0.5,0h-0.1l-0.5,0h-0.3l-0.4,0h-0.1h-0.7h-0.4h-0.1h-0.5h-0.1l-0.5,0h-0.1
					l-0.5,0h-0.1l-0.5,0l-0.3,0l-0.3,0h-0.4l-0.4-0.1l-0.3,0l-0.4-0.1h-0.3l-0.4-0.1l-0.2,0l-0.4-0.1l-0.2-0.1l-0.4-0.1l-0.2-0.1
					l-0.5-0.1l7.3-31.9L-144.5,46.4z"/>
			</g>
		</g>
		<g>
			<defs>
				<path id="SVGID_00000088110570062147488590000004331937159405657770_" d="M-144.5,105.8c15.8,0,30.9-6.3,42-17.4
					s17.4-26.3,17.4-42s-6.3-30.9-17.4-42s-26.3-17.4-42-17.4s-30.9,6.3-42,17.4s-17.4,26.3-17.4,42s6.3,30.9,17.4,42
					S-160.3,105.8-144.5,105.8L-144.5,105.8z"/>
			</defs>
			<clipPath id="SVGID_00000057135283551404200260000009670129793564046230_">
				<use xlink:href="#SVGID_00000088110570062147488590000004331937159405657770_"  style="overflow:visible;"/>
			</clipPath>
			<g style="clip-path:url(#SVGID_00000057135283551404200260000009670129793564046230_);">
				<path id="K_00000001640877914217143450000013779679588867442101_" class="st21" d="M-144.5,46.4l41.6,32.6l-0.6,0.8l-0.7,0.9
					l-0.7,0.8l-0.7,0.8l-0.7,0.7l-0.8,0.8l-0.7,0.7l-0.8,0.8l-0.7,0.7l-0.8,0.7l-0.8,0.6l-0.6,0.5l-32.6-40.9L-144.5,46.4z"/>
			</g>
		</g>
	</g>
</g>
</svg>
