<?xml version="1.0" encoding="utf-8"?>
<!-- Generator: Adobe Illustrator 27.3.1, SVG Export Plug-In . SVG Version: 6.00 Build 0)  -->
<svg version="1.1" id="Calque_1" xmlns="http://www.w3.org/2000/svg" xmlns:xlink="http://www.w3.org/1999/xlink" x="0px" y="0px"
	 viewBox="0 0 256 256" style="enable-background:new 0 0 256 256;" xml:space="preserve">
<style type="text/css">
	.st0{fill:#231F20;}
</style>
<g>
	<rect x="88" y="64.2" class="st0" width="80" height="101"/>
	<path class="st0" d="M147.3,181.3h-38.7c-2.5,0-4.5,1.9-4.5,4.2s2,4.2,4.5,4.2h38.7c2.5,0,4.5-1.9,4.5-4.2S149.8,181.3,147.3,181.3
		z"/>
	<path class="st0" d="M128,0C57.3,0,0,57.3,0,128s57.3,128,128,128s128-57.3,128-128S198.7,0,128,0z M181.4,196.8
		c0,0-15.3,10.7-53.4,10.7c-38.1,0-53.4-10.7-53.4-10.7V57.2c0,0,1.9-13.4,53.4-13.4s53.4,13.3,53.4,13.3V196.8z"/>
</g>
</svg>
