<?xml version="1.0" encoding="utf-8"?>
<!-- Generator: Adobe Illustrator 27.3.1, SVG Export Plug-In . SVG Version: 6.00 Build 0)  -->
<svg version="1.1" id="Calque_1" xmlns="http://www.w3.org/2000/svg" xmlns:xlink="http://www.w3.org/1999/xlink" x="0px" y="0px"
	 viewBox="0 0 256 256" style="enable-background:new 0 0 256 256;" xml:space="preserve">
<style type="text/css">
	.st0{fill:#231F20;}
	.st1{fill:#FFFFFF;}
</style>
<g>
	<circle class="st0" cx="128" cy="128" r="128"/>
	<path id="Internet_1_" class="st1" d="M128,43.8c-51.5,0-53.4,13.4-53.4,13.4v139.6c0,0,15.3,10.7,53.4,10.7
		c38.1,0,53.4-10.7,53.4-10.7V57.1C181.4,57.1,179.5,43.8,128,43.8z M147.3,189.7h-38.7c-2.5,0-4.5-1.9-4.5-4.2s2-4.2,4.5-4.2h38.7
		c2.5,0,4.5,1.9,4.5,4.2S149.8,189.7,147.3,189.7z M168,165.2H88v-101H168V165.2z"/>
</g>
</svg>
