<?xml version="1.0" encoding="utf-8"?>
<!-- Generator: Adobe Illustrator 27.5.0, SVG Export Plug-In . SVG Version: 6.00 Build 0)  -->
<svg version="1.1" id="Calque_1" xmlns="http://www.w3.org/2000/svg" xmlns:xlink="http://www.w3.org/1999/xlink" x="0px" y="0px"
	 viewBox="0 0 256 256" style="enable-background:new 0 0 256 256;" xml:space="preserve">
<style type="text/css">
	.st0{fill:#5074B8;}
	.st1{fill:#4DABD0;}
</style>
<g id="Layer_1">
	<path class="st0" d="M103.1,112.9c0.2,0,0.4,0.1,0.7,0.2c0.2,0.1,0.4,0.2,0.6,0.4c0.2,0.2,0.4,0.4,0.6,0.7l16.8,21.2
		c-0.1-0.7-0.1-1.3-0.1-2c0-0.6,0-1.2,0-1.8v-18.7h7.2v35.3h-4.3c-0.5,0-1.1-0.1-1.6-0.3c-0.5-0.2-0.9-0.6-1.3-1.1l-16.6-21
		c0.1,0.6,0.1,1.2,0.1,1.8c0,0.6,0.1,1.1,0.1,1.7v18.9h-7.2v-35.3h4.3C102.5,112.8,102.8,112.9,103.1,112.9z"/>
	<path class="st0" d="M140.6,123v15.9c0,1.2,0.3,2.2,0.8,2.9c0.6,0.7,1.6,1.1,2.5,1c0.8,0,1.6-0.2,2.3-0.5c0.8-0.4,1.5-0.9,2.1-1.4
		V123h7.5v25.1h-4.6c-0.8,0.1-1.6-0.5-1.8-1.3l-0.5-1.5c-0.5,0.5-1,0.9-1.5,1.3c-0.5,0.4-1.1,0.7-1.7,1c-0.6,0.3-1.3,0.5-1.9,0.6
		c-0.7,0.2-1.5,0.2-2.2,0.2c-1.2,0-2.5-0.2-3.6-0.7c-1-0.5-1.9-1.1-2.7-2c-0.7-0.9-1.3-1.9-1.6-3c-0.4-1.2-0.6-2.5-0.6-3.8V123
		H140.6z"/>
	<path class="st0" d="M160.7,148.1V123h4.7c0.4,0,0.8,0.1,1.2,0.3c0.3,0.2,0.6,0.6,0.7,0.9l0.4,1.4c0.4-0.4,0.8-0.8,1.3-1.2
		c0.5-0.4,0.9-0.7,1.5-0.9c1.1-0.6,2.4-0.9,3.7-0.9c1.4-0.1,2.7,0.4,3.8,1.2c1,0.8,1.8,1.9,2.3,3.1c0.4-0.7,0.9-1.4,1.5-2
		c0.6-0.5,1.2-1,2-1.3c0.7-0.3,1.5-0.6,2.2-0.8c0.8-0.2,1.6-0.2,2.3-0.2c1.3,0,2.6,0.2,3.8,0.6c1.1,0.4,2,1,2.8,1.9
		c0.8,0.9,1.4,1.9,1.7,3c0.4,1.3,0.6,2.7,0.6,4v16h-7.5v-15.9c0-2.6-1.1-3.9-3.3-3.9c-0.9,0-1.9,0.3-2.5,1c-0.7,0.7-1,1.6-1,2.9v16
		h-7.5v-16c0-1.4-0.3-2.4-0.8-3c-0.6-0.6-1.4-0.9-2.5-0.9c-0.7,0-1.3,0.2-1.9,0.5c-0.6,0.3-1.2,0.7-1.7,1.2v18.2L160.7,148.1z"/>
	<path class="st0" d="M209.6,136.3v11.8h-8.2v-35.3h12.4c2.2,0,4.3,0.2,6.4,0.9c1.6,0.5,3.1,1.3,4.4,2.4c1.1,1,2,2.3,2.6,3.7
		c0.6,1.5,0.8,3,0.8,4.6c0,1.7-0.3,3.3-0.8,4.8c-0.6,1.4-1.4,2.7-2.6,3.8c-1.3,1.1-2.8,2-4.4,2.5c-2,0.6-4.2,0.9-6.3,0.9H209.6z
		 M209.6,130.2h4.3c2.1,0,3.7-0.5,4.6-1.5c0.9-1,1.4-2.4,1.4-4.3c0-0.8-0.1-1.5-0.4-2.2c-0.2-0.6-0.6-1.2-1.1-1.7
		c-0.5-0.5-1.2-0.9-1.9-1.1c-0.9-0.3-1.8-0.4-2.7-0.4h-4.3V130.2z"/>
	<path class="st0" d="M242.6,154.6c-0.2,0.4-0.4,0.8-0.8,1.1c-0.5,0.3-1,0.4-1.6,0.4h-5.6l4.8-10.2l-10-22.9h6.6
		c0.5,0,1,0.1,1.4,0.4c0.3,0.2,0.5,0.6,0.7,0.9l4.1,10.8c0.4,1,0.7,2,0.9,3c0.2-0.5,0.3-1,0.5-1.5s0.4-1,0.6-1.5l3.7-10.8
		c0.1-0.4,0.4-0.7,0.8-0.9c0.4-0.2,0.8-0.4,1.2-0.4h6.1L242.6,154.6z"/>
	<polygon class="st1" points="35.7,101.4 20.7,93.8 4.2,102 19.6,109.7 	"/>
	<polygon class="st1" points="42.6,104.8 58.3,112.8 42,121 26.6,113.2 	"/>
	<polygon class="st1" points="63.6,93.9 79.7,102 65.3,109.3 49.5,101.3 	"/>
	<polygon class="st1" points="56.6,90.4 42.1,83.1 27.7,90.3 42.7,97.9 	"/>
	<polygon class="st1" points="45.3,153 45.3,172.9 62.9,164.1 62.9,144.2 	"/>
	<polygon class="st1" points="62.8,137.3 62.8,117.7 45.3,126.4 45.3,146.1 	"/>
	<polygon class="st1" points="84,133.6 84,153.6 69,161 69,141.2 	"/>
	<polygon class="st1" points="84,126.7 84,107.1 68.9,114.6 69,134.3 	"/>
	<path class="st0" d="M39,126.4l-11.9-6v25.8c0,0-14.5-30.9-15.9-33.7c-0.2-0.4-0.9-0.8-1.1-0.8C7.6,110.3,0,106.5,0,106.5v45.6
		l10.5,5.7v-23.8c0,0,14.4,27.6,14.5,27.9c0.1,0.3,1.6,3.2,3.1,4.2c2,1.4,10.8,6.6,10.8,6.6L39,126.4z"/>
</g>
</svg>
