<?xml version="1.0" encoding="utf-8"?>
<!-- Generator: Adobe Illustrator 27.5.0, SVG Export Plug-In . SVG Version: 6.00 Build 0)  -->
<svg version="1.1" id="Calque_1" xmlns="http://www.w3.org/2000/svg" xmlns:xlink="http://www.w3.org/1999/xlink" x="0px" y="0px"
	 viewBox="0 0 256 256" style="enable-background:new 0 0 256 256;" xml:space="preserve">
<style type="text/css">
	.st0{fill:#4DABD0;}
	.st1{fill:#5074B8;}
</style>
<g>
	<polygon class="st0" points="110,52 67.3,30.4 20.3,53.9 64.2,75.9 	"/>
	<polygon class="st0" points="129.6,61.9 174.5,84.6 128,107.9 84,85.8 	"/>
	<polygon class="st0" points="189.5,30.8 235.6,53.9 194.4,74.5 149.5,51.9 	"/>
	<polygon class="st0" points="169.7,20.8 128.2,0 87.2,20.5 129.9,42 	"/>
	<polygon class="st0" points="137.3,199.4 137.3,256 187.5,230.9 187.5,174.3 	"/>
	<polygon class="st0" points="187.5,154.5 187.4,98.5 137.3,123.4 137.3,179.5 	"/>
	<polygon class="st0" points="247.8,144 247.8,200.9 204.9,222.2 204.9,165.7 	"/>
	<polygon class="st0" points="247.8,124.2 247.8,68.5 204.8,89.8 204.9,146 	"/>
	<path class="st1" d="M119.5,123.4l-33.8-17v73.5c0,0-41.4-88.1-45.2-96c-0.5-1-2.5-2.1-3-2.4C30,77.6,8.2,66.6,8.2,66.6v130
		l30.1,16.1v-68c0,0,40.9,78.7,41.4,79.6c0.4,0.9,4.5,9.1,8.9,12.1c5.8,3.9,30.9,19,30.9,19L119.5,123.4z"/>
</g>
</svg>
