<?xml version="1.0" encoding="utf-8"?>
<!-- Generator: Adobe Illustrator 27.3.1, SVG Export Plug-In . SVG Version: 6.00 Build 0)  -->
<svg version="1.1" id="Calque_1" xmlns="http://www.w3.org/2000/svg" xmlns:xlink="http://www.w3.org/1999/xlink" x="0px" y="0px"
	 viewBox="0 0 283.5 283.5" style="enable-background:new 0 0 283.5 283.5;" xml:space="preserve">
<style type="text/css">
	.st0{fill:#77B900;}
</style>
<path id="path21" class="st0" d="M29,128.7c0,0,25.6-37.8,76.8-41.7V73.3C49.1,77.8,0,125.8,0,125.8s27.8,80.4,105.8,87.7v-14.6
	C48.6,191.8,29,128.7,29,128.7z M105.8,169.9v13.4c-43.2-7.7-55.2-52.7-55.2-52.7s20.8-23,55.2-26.7v14.7c0,0,0,0-0.1,0
	c-18.1-2.2-32.2,14.7-32.2,14.7S81.4,161.8,105.8,169.9 M105.8,47.9v25.3c1.7-0.1,3.3-0.2,5-0.3c64.4-2.2,106.4,52.9,106.4,52.9
	s-48.2,58.6-98.5,58.6c-4.6,0-8.9-0.4-13-1.1v15.6c3.5,0.4,7.1,0.7,10.8,0.7c46.8,0,80.6-23.9,113.3-52.1
	c5.4,4.3,27.6,14.9,32.2,19.6c-31.1,26.1-103.7,47.1-144.8,47.1c-4,0-7.8-0.2-11.5-0.6v22h177.7V47.9H105.8z M105.8,103.9V87
	c1.6-0.1,3.3-0.2,5-0.3c46.3-1.5,76.7,39.8,76.7,39.8s-32.8,45.6-68,45.6c-5.1,0-9.6-0.8-13.7-2.2v-51.4c18,2.2,21.7,10.1,32.5,28.2
	l24.1-20.3c0,0-17.6-23.1-47.3-23.1C111.9,103.4,108.8,103.6,105.8,103.9"/>
</svg>
