<?xml version="1.0" encoding="utf-8"?>
<!-- Generator: Adobe Illustrator 27.3.1, SVG Export Plug-In . SVG Version: 6.00 Build 0)  -->
<svg version="1.1" id="Calque_1" xmlns="http://www.w3.org/2000/svg" xmlns:xlink="http://www.w3.org/1999/xlink" x="0px" y="0px"
	 viewBox="0 0 283.5 283.5" style="enable-background:new 0 0 283.5 283.5;" xml:space="preserve">
<style type="text/css">
	.st0{fill:#77B900;}
</style>
<path id="path17" d="M281.5,239.5c0,3-2.2,5.1-4.9,5.1v0c-2.7,0-4.9-2-4.9-5.1c0-3,2.2-5.1,4.9-5.1
	C279.3,234.4,281.5,236.4,281.5,239.5z M283.5,239.5c0-4.2-3.2-6.6-6.9-6.6c-3.6,0-6.9,2.4-6.9,6.6c0,4.2,3.2,6.6,6.9,6.6
	C280.2,246.1,283.5,243.7,283.5,239.5 M275.5,240h0.7l1.7,3h1.9l-1.9-3.1c1-0.1,1.8-0.5,1.8-1.8c0-1.6-1.1-2.2-3-2.2h-2.8v7.1h1.6
	L275.5,240 M275.5,238.8v-1.7h1.1c0.6,0,1.4,0,1.4,0.8c0,0.8-0.4,0.9-1.1,0.9H275.5"/>
<path id="path19" d="M237.3,203.1l8.5,23.4h-17.4L237.3,203.1z M228.1,194l-19.7,49.9h13.9l3.1-8.8h23.3l2.9,8.8h15.1L247,194
	L228.1,194z M188.6,243.9h14.1V194l-14.1,0L188.6,243.9z M90.6,194l-11.8,39.6L67.6,194l-15.2,0l16.1,49.9h20.3L105,194H90.6z
	 M147.7,204.9h6.1c8.8,0,14.5,4,14.5,14.2c0,10.3-5.7,14.2-14.5,14.2h-6.1V204.9z M133.7,194v49.9h22.9c12.2,0,16.2-2,20.5-6.6
	c3-3.2,5-10.2,5-17.9c0-7-1.7-13.3-4.6-17.2c-5.2-7-12.8-8.3-24-8.3L133.7,194L133.7,194z M0,193.9v50h14.2v-38l11,0
	c3.7,0,6.3,0.9,8,2.8c2.2,2.4,3.1,6.2,3.1,13.2v22h13.8v-27.6c0-19.7-12.6-22.4-24.9-22.4H0z M111,194l0,49.9h14.1V194H111z"/>
<path id="path21" class="st0" d="M37.9,94.6c0,0,18.2-26.8,54.4-29.5v-9.7c-40.1,3.2-74.9,37.2-74.9,37.2s19.7,56.9,74.9,62.1v-10.3
	C51.8,139.2,37.9,94.6,37.9,94.6z M92.3,123.8v9.5c-30.6-5.5-39.1-37.3-39.1-37.3S67.9,79.7,92.3,77v10.4c0,0,0,0,0,0
	c-12.8-1.5-22.8,10.4-22.8,10.4S75.1,118,92.3,123.8 M92.3,37.4v17.9c1.2-0.1,2.4-0.2,3.5-0.2c45.6-1.5,75.4,37.4,75.4,37.4
	S137.1,134,101.5,134c-3.3,0-6.3-0.3-9.2-0.8v11.1c2.5,0.3,5,0.5,7.6,0.5c33.1,0,57.1-16.9,80.2-36.9c3.8,3.1,19.6,10.6,22.8,13.8
	c-22,18.5-73.4,33.3-102.5,33.3c-2.8,0-5.5-0.2-8.2-0.4v15.6h125.8V37.4H92.3z M92.3,77V65c1.2-0.1,2.3-0.1,3.5-0.2
	c32.8-1,54.3,28.2,54.3,28.2s-23.3,32.3-48.2,32.3c-3.6,0-6.8-0.6-9.7-1.6V87.4c12.8,1.5,15.3,7.2,23,20L132.4,93
	c0,0-12.5-16.4-33.5-16.4C96.6,76.6,94.5,76.8,92.3,77"/>
</svg>
