<?xml version="1.0" encoding="utf-8"?>
<!-- Generator: Adobe Illustrator 27.5.0, SVG Export Plug-In . SVG Version: 6.00 Build 0)  -->
<svg version="1.1" id="Calque_1" xmlns="http://www.w3.org/2000/svg" xmlns:xlink="http://www.w3.org/1999/xlink" x="0px" y="0px"
	 viewBox="0 0 256 256" style="enable-background:new 0 0 256 256;" xml:space="preserve">
<style type="text/css">
	.st0{fill:#FF0101;}
	.st1{fill:#0101FF;}
	.st2{fill:#01FF01;}
	.st3{fill-rule:evenodd;clip-rule:evenodd;fill:#050505;}
</style>
<g id="red">
	<path id="cv_element" class="st0" d="M102.7,90.1c-23.1-13.3-31-42.9-17.7-66s42.9-31,66-17.7s31,42.9,17.7,66
		c-4.2,7.3-10.3,13.4-17.7,17.7l-14.5-25.2c9.2-5.3,12.3-17.1,7-26.2c-5.3-9.2-17.1-12.3-26.2-7s-12.3,17.1-7,26.2
		c1.7,2.9,4.1,5.3,7,7L102.7,90.1z"/>
</g>
<g id="blue" transform="rotate(180,457,415)">
	<path id="cv_element_00000113336405647833606490000007076999780098452659_" class="st1" d="M206.1,101.8c23.1,13.3,31,42.9,17.7,66
		c-13.3,23.1-42.9,31-66,17.7c-23.1-13.3-31-42.9-17.7-66c4.2-7.3,10.3-13.4,17.7-17.7l14.5,25.2c-9.2,5.3-12.3,17.1-7,26.2
		c5.3,9.2,17.1,12.3,26.2,7c9.2-5.3,12.3-17.1,7-26.2c-1.7-2.9-4.1-5.3-7-7L206.1,101.8z"/>
</g>
<g id="green" transform="rotate(240,142,415)">
	<path id="cv_element_00000026162763075296307180000009232117979701006236_" class="st2" d="M121,143.7c0,26.7-21.6,48.3-48.3,48.3
		s-48.3-21.6-48.3-48.3c0-26.7,21.6-48.3,48.3-48.3c8.5,0,16.8,2.2,24.1,6.5L82.4,127c-9.2-5.3-20.9-2.2-26.2,7s-2.2,20.9,7,26.2
		c9.2,5.3,20.9,2.2,26.2-7c1.7-2.9,2.6-6.2,2.6-9.6H121z"/>
</g>
<g id="opencv_text">
	<path id="O" class="st3" d="M38.2,203.5c4.1-0.4,8.2-0.4,12.3,0.2c2.5,0.4,5.2,1.1,7,2.9c2,2.2,2.5,5.3,2.9,8.1
		c0.7,5.8,0.6,11.8,0,17.6c-0.4,2.9-0.8,5.9-2.7,8.3c-2,2.1-5.1,2.7-7.8,3.1c-4.1,0.5-8.2,0.6-12.3,0.2c-2.8-0.3-5.7-0.8-8-2.4
		c-1.5-1-2.4-2.7-2.9-4.3c-1.1-3.5-1.3-7.1-1.4-10.7c0-4.8,0.1-9.6,1-14.3c0.5-2.2,1.1-4.6,3-6.1C31.8,204.3,35.1,203.9,38.2,203.5z
		 M38.9,210.1c3.5-0.3,7-0.4,10.4,0.3c1.3,0.3,2.9,0.9,3.1,2.4c1,4.3,0.8,8.7,0.8,13c-0.1,3.1-0.1,6.3-1.1,9.3
		c-0.9,1.9-3.4,2.1-5.2,2.4c-3.7,0.2-7.6,0.4-11.2-0.7c-1.7-0.4-2.2-2.2-2.5-3.7c-0.7-4.4-0.5-9-0.4-13.5c0.2-2.5,0.2-5.1,1.1-7.5
		C35.1,210.5,37.2,210.3,38.9,210.1z"/>
	<path id="p" class="st3" d="M75.4,217.1c2.5-1.6,5.6-1.8,8.4-1.6c2.7,0.2,5.6,1.1,7.1,3.6c1.7,3.1,1.8,6.7,1.9,10.2
		c-0.1,3.5-0.1,7.2-1.6,10.5c-0.8,2-2.8,3.3-4.8,3.8c-3.1,0.8-6.6,0.9-9.6-0.4c-1.6-0.6-2.8-2-3.7-3.5c0,5.4,0,10.8,0,16.2h-6.9
		c0-13.4,0-26.8,0-40.2c2.2,0,4.5,0,6.7,0c-0.1,1.4-0.2,2.8-0.2,4.1C73.5,218.9,74.3,217.8,75.4,217.1z M77.7,220.7
		c1.9-0.1,4-0.2,5.8,0.6c1.2,0.5,1.8,1.7,2,2.9c0.6,3,0.5,6.2,0.3,9.3c-0.2,1.9-0.5,4.3-2.6,5c-2.4,0.8-5.1,0.8-7.4-0.1
		c-2.2-0.9-2.4-3.5-2.6-5.6c-0.1-3.1-0.3-6.4,0.6-9.4C74.3,221.7,76,220.8,77.7,220.7z"/>
	<path id="e" class="st3" d="M101.2,217.1c3.4-1.8,7.4-1.8,11.1-1.6c3.1,0.3,6.9,0.8,8.6,3.8c1.9,3.6,1.6,7.8,1.9,11.8
		c-6.3,0-12.6,0-19,0c0.2,2,0,4.2,1,6.1c0.9,1.5,2.7,1.8,4.3,1.9c1.9,0,4,0.2,5.8-0.7c1-0.8,1-2.2,1.2-3.4c2.2,0,4.4,0,6.7,0
		c-0.1,2.3-0.4,4.9-2.2,6.5c-2.8,2.5-6.8,2.8-10.4,2.8c-3.2-0.1-6.5-0.3-9.3-1.8c-2.3-1.3-3-4.1-3.4-6.6c-0.5-3.6-0.6-7.3-0.2-11
		C97.6,222,98.4,218.6,101.2,217.1z M105.2,221.6c1.9-1.2,4.2-0.9,6.4-0.9c1.3,0.1,2.9,0.2,3.8,1.4c0.9,1.4,0.7,3.2,0.7,4.8
		c-4.1,0-8.2,0-12.2,0C103.9,225.1,103.8,222.9,105.2,221.6z"/>
	<path id="n" class="st3" d="M137.6,217.1c2.4-1.7,5.5-1.9,8.3-1.6c2.4,0.3,4.9,1.2,6.4,3.2c1.3,1.7,1.6,3.9,1.6,6
		c0,6.4,0,12.7,0,19.1c-2.2,0-4.4,0-6.6,0c0-6,0-12,0-18c-0.1-1.3,0-2.8-1-3.8c-1.1-1.1-2.7-1.4-4.2-1.4c-1.8,0-3.7,0.3-5.1,1.5
		c-1.3,1.1-1.9,3-1.9,4.7c0,5.7,0,11.3,0,17c-2.2,0-4.4,0-6.6,0c0-9.4,0-18.7,0-28.1c2.2,0,4.3,0,6.5,0c0,1.6-0.2,3.3-0.2,4.9
		C135.5,219.4,136.3,218,137.6,217.1z"/>
	<path id="C" class="st3" d="M165.8,204.8c3.6-1.2,7.5-1.4,11.3-1.5c3.7,0,7.5,0.1,11,1.5c1.7,0.7,3,2.3,3.5,4.1c1,2.6,1,5.5,1,8.3
		c-2.5,0-5.1,0-7.6,0c0-1.9,0.1-4.1-1.1-5.8c-1.2-1.2-3.1-1.2-4.7-1.4c-3.3-0.1-6.7-0.3-9.9,0.9c-1.1,0.4-1.7,1.5-2,2.6
		c-0.6,2.9-0.7,6-0.6,9c0,4,0,8.1,0.8,12c0.2,1.4,1.6,2.3,2.9,2.6c3.1,0.8,6.3,0.7,9.4,0.5c1.6-0.2,3.6-0.3,4.7-1.8
		c1.1-1.8,0.9-4,0.9-6c2.6,0,5.1,0,7.7,0c0,3.2-0.1,6.5-1.2,9.5c-0.6,1.6-1.8,2.9-3.4,3.5c-3.1,1.3-6.6,1.3-9.9,1.5
		c-3.9,0.1-7.8,0-11.5-0.9c-2.2-0.6-4.6-1.6-5.6-3.8c-1.3-2.9-1.5-6.1-1.9-9.3c-0.3-4.1-0.5-8.3-0.4-12.4c0.2-3.3,0.5-6.9,2.3-9.8
		C162.4,206.4,164.1,205.4,165.8,204.8z"/>
	<path id="V" class="st3" d="M194.3,203.7c2.6,0,5.3-0.1,7.9,0c2.6,8.2,5.4,16.2,8,24.4c1,3.1,1.7,6.3,2.8,9.5
		c1.2-3.4,1.9-6.9,3.1-10.2c2.5-7.9,5.1-15.7,7.7-23.6c2.6-0.1,5.2,0,7.8,0v0.9c-4.3,13.1-8.5,26.2-12.7,39.3
		c-3.9,0.1-7.9,0.1-11.8,0C202.9,230.4,198.5,217.1,194.3,203.7z"/>
</g>
</svg>
