<?xml version="1.0" encoding="utf-8"?>
<!-- Generator: Adobe Illustrator 27.5.0, SVG Export Plug-In . SVG Version: 6.00 Build 0)  -->
<svg version="1.1" id="Calque_1" xmlns="http://www.w3.org/2000/svg" xmlns:xlink="http://www.w3.org/1999/xlink" x="0px" y="0px"
	 viewBox="0 0 256 256" style="enable-background:new 0 0 256 256;" xml:space="preserve">
<style type="text/css">
	.st0{fill:#FF0101;}
	.st1{fill:#0101FF;}
	.st2{fill:#01FF01;}
</style>
<g id="red">
	<path id="cv_element" class="st0" d="M97.3,120.7c-28.7-16.6-38.6-53.3-22-82.1s53.3-38.6,82.1-22s38.6,53.3,22,82.1
		c-5.3,9.1-12.9,16.7-22,22l-18.1-31.3c11.4-6.6,15.3-21.2,8.7-32.6s-21.2-15.3-32.6-8.7s-15.3,21.2-8.7,32.6
		c2.1,3.6,5.1,6.7,8.7,8.7L97.3,120.7z"/>
</g>
<g id="blue" transform="rotate(180,457,415)">
	<path id="cv_element_00000014614952414740481630000000831346072540304045_" class="st1" d="M226,135.3c28.7,16.6,38.6,53.3,22,82.1
		s-53.3,38.6-82.1,22s-38.6-53.3-22-82.1c5.3-9.1,12.9-16.7,22-22l18.1,31.3c-11.4,6.6-15.3,21.2-8.7,32.6
		c6.6,11.4,21.2,15.3,32.6,8.7c11.4-6.6,15.3-21.2,8.7-32.6c-2.1-3.6-5.1-6.7-8.7-8.7L226,135.3z"/>
</g>
<g id="green" transform="rotate(240,142,415)">
	<path id="cv_element_00000057839302442867992500000003037734450731045511_" class="st2" d="M120.1,187.3
		c0,33.2-26.9,60.1-60.1,60.1S0,220.5,0,187.3c0-33.2,26.9-60.1,60.1-60.1c10.5,0,20.9,2.8,30,8L72,166.6c-11.4-6.6-26-2.7-32.6,8.7
		c-6.6,11.4-2.7,26,8.7,32.6c11.4,6.6,26,2.7,32.6-8.7c2.1-3.6,3.2-7.8,3.2-11.9H120.1z"/>
</g>
</svg>
