<?xml version="1.0" encoding="utf-8"?>
<!-- Generator: Adobe Illustrator 27.5.0, SVG Export Plug-In . SVG Version: 6.00 Build 0)  -->
<svg version="1.1" id="Calque_1" xmlns="http://www.w3.org/2000/svg" xmlns:xlink="http://www.w3.org/1999/xlink" x="0px" y="0px"
	 viewBox="0 0 256 256" style="enable-background:new 0 0 256 256;" xml:space="preserve">
<style type="text/css">
	.st0{fill:url(#path1948_00000082326067601871905550000013806106367991394454_);}
	.st1{fill:url(#path1950_00000063600861083605112840000007709323411234557098_);}
</style>
<linearGradient id="path1948_00000056400866334243973810000000779954494499802767_" gradientUnits="userSpaceOnUse" x1="364.2619" y1="53.4336" x2="612.5164" y2="267.0232" gradientTransform="matrix(0.5625 0 0 0.568 -209.7559 -22.9429)">
	<stop  offset="0" style="stop-color:#5CA0D5"/>
	<stop  offset="1" style="stop-color:#316A99"/>
</linearGradient>
<path id="path1948" style="fill:url(#path1948_00000056400866334243973810000000779954494499802767_);" d="M126.4,0
	C116,0,106.1,0.9,97.2,2.5C71.4,7.1,66.7,16.7,66.7,34.3v23.3h61.1v7.7H66.7H43.9c-17.8,0-33.3,10.6-38.1,31
	c-5.6,23.3-5.8,37.8,0,62.1c4.3,18.1,14.7,31,32.4,31h21v-27.9c0-20.2,17.5-37.9,38.1-37.9h61c17,0,30.5-13.9,30.5-31V34.4
	c0-16.6-13.9-29-30.5-31.8C147.8,0.7,136.9-0.1,126.4,0z M93.4,18.8c6.3,0,11.4,5.2,11.4,11.6S99.8,42,93.4,42
	C87.1,42,82,36.8,82,30.4C82,24,87.1,18.8,93.4,18.8z"/>
<linearGradient id="path1950_00000088840577146822138210000015680942919228956073_" gradientUnits="userSpaceOnUse" x1="708.7134" y1="396.227" x2="620.0326" y2="270.7589" gradientTransform="matrix(0.5625 0 0 0.568 -209.7559 -22.9429)">
	<stop  offset="0" style="stop-color:#FFD43E"/>
	<stop  offset="1" style="stop-color:#FFE975"/>
</linearGradient>
<path id="path1950" style="fill:url(#path1950_00000088840577146822138210000015680942919228956073_);" d="M196.5,65.3v27.1
	c0,21.1-17.9,38.7-38.1,38.7h-61c-16.7,0-30.5,14.3-30.5,31v58.2c0,16.6,14.3,26.3,30.5,31c19.4,5.7,37.8,6.7,61,0
	c15.4-4.4,30.5-13.4,30.5-31v-23.3h-61v-7.7h61h30.5c17.8,0,24.4-12.3,30.5-31c6.4-19.2,6.1-37.5,0-62.1c-4.4-17.7-12.7-31-30.5-31
	h-22.9V65.3z M162.2,212.6c6.3,0,11.4,5.2,11.4,11.6c0,6.4-5.1,11.6-11.4,11.6c-6.3,0-11.4-5.2-11.4-11.6
	C150.7,217.8,155.8,212.6,162.2,212.6z"/>
</svg>
