<?xml version="1.0" encoding="utf-8"?>
<!-- Generator: Adobe Illustrator 27.5.0, SVG Export Plug-In . SVG Version: 6.00 Build 0)  -->
<svg version="1.1" id="Calque_1" xmlns="http://www.w3.org/2000/svg" xmlns:xlink="http://www.w3.org/1999/xlink" x="0px" y="0px"
	 viewBox="0 0 1000 458.3" style="enable-background:new 0 0 1000 458.3;" xml:space="preserve">
<style type="text/css">
	.st0{fill:#646464;}
	.st1{fill:url(#path1948_00000043435638500420595000000001968869332358279820_);}
	.st2{fill:url(#path1950_00000146497041604372886190000002707877039598905744_);}
	.st3{opacity:0.4438;fill:url(#path1894_00000098938999932456357370000015415421313666574468_);enable-background:new    ;}
</style>
<path id="path46" class="st0" d="M406.3,205.9c0-33.1-9.4-50.1-28.3-51c-7.5-0.4-14.8,0.8-21.9,3.6c-5.7,2-9.5,4.1-11.5,6.1v78.9
	c12.1,7.6,22.8,11.1,32.1,10.5C396.4,252.8,406.3,236.8,406.3,205.9z M429.6,207.3c0,16.8-3.9,30.7-11.9,41.8
	c-8.8,12.6-21.1,19-36.7,19.4c-11.8,0.4-23.9-3.3-36.4-11.1v71.7l-20.2-7.2V162.7c3.3-4.1,7.6-7.6,12.8-10.5
	c12-7,26.7-10.6,43.9-10.8l0.3,0.3c15.7-0.2,27.9,6.3,36.4,19.4C425.6,173,429.6,188.4,429.6,207.3z"/>
<path id="path48" class="st0" d="M553.1,254.4c0,22.5-2.3,38.1-6.8,46.8c-4.5,8.7-13.2,15.6-25.9,20.8c-10.3,4.1-21.5,6.3-33.5,6.7
	l-3.3-12.8c12.2-1.7,20.8-3.3,25.7-5c9.8-3.3,16.5-8.4,20.2-15.2c3-5.6,4.4-16.2,4.4-31.9v-5.3c-13.8,6.3-28.3,9.4-43.5,9.4
	c-10,0-18.7-3.1-26.3-9.4c-8.5-6.8-12.7-15.5-12.7-26v-84.2l20.2-6.9v84.8c0,9.1,2.9,16,8.8,20.9c5.8,4.9,13.4,7.2,22.7,7.1
	c9.3-0.2,19.2-3.8,29.8-10.8v-98.9h20.2V254.4z"/>
<path id="path50" class="st0" d="M632.1,267.4c-2.4,0.2-4.6,0.3-6.7,0.3c-11.4,0-20.4-2.7-26.7-8.2c-6.3-5.5-9.5-13-9.5-22.6v-79.7
	h-13.8v-12.7h13.8v-33.8l20.2-7.2v41h22.7v12.7h-22.7v79.1c0,7.6,2,13,6.1,16.1c3.5,2.6,9,4.1,16.6,4.4V267.4z"/>
<path id="path52" class="st0" d="M754.5,265.7h-20.2v-78.1c0-7.9-1.9-14.8-5.6-20.5c-4.3-6.5-10.2-9.7-17.8-9.7
	c-9.3,0-20.9,4.9-34.8,14.7v93.6h-20.2V79l20.2-6.4v85c12.9-9.4,27-14.1,42.4-14.1c10.7,0,19.4,3.6,26,10.8c6.7,7.2,10,16.2,10,26.9
	V265.7L754.5,265.7z"/>
<path id="path54" class="st0" d="M861.9,202.7c0-12.7-2.4-23.2-7.2-31.5c-5.7-10.1-14.6-15.5-26.6-16c-22.2,1.3-33.2,17.2-33.2,47.6
	c0,14,2.3,25.6,6.9,35c5.9,11.9,14.8,17.8,26.7,17.6C850.8,255.3,861.9,237.7,861.9,202.7z M884.1,202.9c0,18.1-4.6,33.1-13.8,45.2
	c-10.2,13.5-24.2,20.2-42.1,20.2c-17.7,0-31.6-6.8-41.5-20.2c-9-12-13.6-27.1-13.6-45.2c0-17,4.9-31.3,14.7-42.9
	c10.3-12.4,23.9-18.6,40.7-18.6c16.8,0,30.5,6.2,41,18.6C879.2,171.6,884.1,185.9,884.1,202.9z"/>
<path id="path56" class="st0" d="M1000,265.7h-20.2v-82.5c0-9.1-2.7-16.1-8.2-21.2c-5.4-5.1-12.7-7.5-21.7-7.3
	c-9.6,0.2-18.7,3.3-27.4,9.4v101.7h-20.2V161.6c11.6-8.5,22.3-14,32.1-16.6c9.2-2.4,17.4-3.6,24.4-3.6c4.8,0,9.3,0.5,13.6,1.4
	c7.9,1.8,14.4,5.2,19.4,10.2c5.6,5.5,8.3,12.2,8.3,19.9V265.7z"/>
<linearGradient id="path1948_00000021822088887361374980000006671466272882903724_" gradientUnits="userSpaceOnUse" x1="362.6273" y1="61.4809" x2="610.0728" y2="-151.4127" gradientTransform="matrix(0.5625 0 0 -0.568 -210.1934 122.0331)">
	<stop  offset="0" style="stop-color:#5A9FD4"/>
	<stop  offset="1" style="stop-color:#306998"/>
</linearGradient>
<path id="path1948" style="fill:url(#path1948_00000021822088887361374980000006671466272882903724_);" d="M124.6,79.8
	c-10.4,0-20.3,0.9-29.1,2.5c-25.8,4.6-30.4,14.1-30.4,31.7v23.2H126v7.7H65.1H42.3c-17.7,0-33.2,10.6-38,30.9
	c-5.6,23.2-5.8,37.7,0,61.9c4.3,18,14.7,30.9,32.3,30.9h20.9v-27.8c0-20.1,17.4-37.8,38-37.8h60.8c16.9,0,30.4-13.9,30.4-30.9v-58
	c0-16.5-13.9-28.9-30.4-31.7C145.9,80.5,135,79.7,124.6,79.8z M91.7,98.5c6.3,0,11.4,5.2,11.4,11.6c0,6.4-5.1,11.6-11.4,11.6
	c-6.3,0-11.4-5.2-11.4-11.6C80.3,103.7,85.4,98.5,91.7,98.5z"/>
<linearGradient id="path1950_00000099646894632009181170000016710206038708077486_" gradientUnits="userSpaceOnUse" x1="705.7606" y1="-280.3773" x2="617.3688" y2="-155.3181" gradientTransform="matrix(0.5625 0 0 -0.568 -210.1934 122.0331)">
	<stop  offset="0" style="stop-color:#FFD43B"/>
	<stop  offset="1" style="stop-color:#FFE873"/>
</linearGradient>
<path id="path1950" style="fill:url(#path1950_00000099646894632009181170000016710206038708077486_);" d="M194.4,144.9v27
	c0,21-17.8,38.6-38,38.6H95.6c-16.6,0-30.4,14.3-30.4,30.9v58c0,16.5,14.3,26.2,30.4,30.9c19.3,5.7,37.7,6.7,60.8,0
	c15.3-4.4,30.4-13.4,30.4-30.9v-23.2H126v-7.7h60.8h30.4c17.7,0,24.3-12.3,30.4-30.9c6.4-19.1,6.1-37.4,0-61.9
	c-4.4-17.6-12.7-30.9-30.4-30.9H194.4z M160.2,291.7c6.3,0,11.4,5.2,11.4,11.6c0,6.4-5.1,11.6-11.4,11.6c-6.3,0-11.4-5.2-11.4-11.6
	C148.8,296.9,153.9,291.7,160.2,291.7z"/>
<radialGradient id="path1894_00000090284680846775214010000012186352262377784761_" cx="-2671.843" cy="140.8736" r="65.9485" gradientTransform="matrix(1.747796e-08 -0.2399 -1.0539 -3.791546e-07 275.1472 -271.2763)" gradientUnits="userSpaceOnUse">
	<stop  offset="0" style="stop-color:#B8B8B8;stop-opacity:0.498"/>
	<stop  offset="1" style="stop-color:#7F7F7F;stop-opacity:0"/>
</radialGradient>
<path id="path1894" style="opacity:0.4438;fill:url(#path1894_00000090284680846775214010000012186352262377784761_);enable-background:new    ;" d="
	M208.2,369.8c0,8.7-36.5,15.8-81.5,15.8s-81.5-7.1-81.5-15.8c0-8.7,36.5-15.8,81.5-15.8S208.2,361.1,208.2,369.8z"/>
</svg>
