<?xml version="1.0" encoding="utf-8"?>
<!-- Generator: Adobe Illustrator 27.5.0, SVG Export Plug-In . SVG Version: 6.00 Build 0)  -->
<svg version="1.1" id="Calque_1" xmlns="http://www.w3.org/2000/svg" xmlns:xlink="http://www.w3.org/1999/xlink" x="0px" y="0px"
	 viewBox="0 0 256 256" style="enable-background:new 0 0 256 256;" xml:space="preserve">
<style type="text/css">
	.st0{fill:url(#path1948_00000182503048465866085370000014604504146117112206_);}
	.st1{fill:url(#path1950_00000160189496820613760900000014644243865505356717_);}
	.st2{opacity:0.4438;fill:url(#path1894_00000067926709508426863030000018210560533374955152_);enable-background:new    ;}
</style>
<linearGradient id="path1948_00000034804526579877737560000006289827134873146515_" gradientUnits="userSpaceOnUse" x1="403.3759" y1="51.274" x2="610.519" y2="229.4927" gradientTransform="matrix(0.5625 0 0 0.568 -209.7559 -22.9429)">
	<stop  offset="0" style="stop-color:#5CA0D5"/>
	<stop  offset="1" style="stop-color:#316A99"/>
</linearGradient>
<path id="path1948" style="fill:url(#path1948_00000034804526579877737560000006289827134873146515_);" d="M126.7,0
	c-8.7,0-17,0.8-24.4,2.1C80.7,6,76.9,13.9,76.9,28.6v19.4h51v6.4h-51H57.8C43,54.5,30,63.4,26,80.4c-4.7,19.4-4.9,31.6,0,51.8
	c3.6,15.1,12.3,25.9,27,25.9h17.5v-23.3c0-16.8,14.6-31.6,31.8-31.6h50.9c14.1,0,25.4-11.6,25.4-25.9V28.7
	c0-13.8-11.6-24.2-25.4-26.5C144.5,0.6,135.4-0.1,126.7,0z M99.2,15.7c5.3,0,9.5,4.4,9.5,9.7s-4.3,9.7-9.5,9.7s-9.5-4.4-9.5-9.7
	C89.6,20,93.9,15.7,99.2,15.7z"/>
<linearGradient id="path1950_00000056412096132604065750000012006552654185062321_" gradientUnits="userSpaceOnUse" x1="690.7856" y1="337.3001" x2="616.7905" y2="232.6098" gradientTransform="matrix(0.5625 0 0 0.568 -209.7559 -22.9429)">
	<stop  offset="0" style="stop-color:#FFD43E"/>
	<stop  offset="1" style="stop-color:#FFE975"/>
</linearGradient>
<path id="path1950" style="fill:url(#path1950_00000056412096132604065750000012006552654185062321_);" d="M185.1,54.5v22.6
	c0,17.6-14.9,32.3-31.8,32.3h-50.9c-13.9,0-25.4,12-25.4,25.9v48.6c0,13.8,12,21.9,25.4,25.9c16.2,4.8,31.6,5.6,50.9,0
	c12.8-3.7,25.4-11.2,25.4-25.9v-19.4h-50.9V158h50.9h25.4c14.8,0,20.3-10.3,25.4-25.9c5.4-16,5.1-31.3,0-51.8
	C226,65.6,219,54.4,204.2,54.4L185.1,54.5L185.1,54.5z M156.5,177.4c5.3,0,9.5,4.4,9.5,9.7s-4.3,9.7-9.5,9.7c-5.3,0-9.5-4.4-9.5-9.7
	C147,181.7,151.2,177.4,156.5,177.4z"/>
<radialGradient id="path1894_00000008847633307400166250000013653086717502186887_" cx="-1782.636" cy="48.6291" r="13.9238" gradientTransform="matrix(6.928975e-08 -0.9511 4.1781 1.503123e-06 -74.7216 -1452.7075)" gradientUnits="userSpaceOnUse">
	<stop  offset="0" style="stop-color:#B8B8B8;stop-opacity:0.498"/>
	<stop  offset="1" style="stop-color:#7F8080;stop-opacity:0"/>
</radialGradient>
<path id="path1894" style="opacity:0.4438;fill:url(#path1894_00000008847633307400166250000013653086717502186887_);enable-background:new    ;" d="
	M196.7,242.8c0,7.3-30.6,13.2-68.2,13.2s-68.2-5.9-68.2-13.2c0-7.3,30.6-13.2,68.2-13.2S196.7,235.5,196.7,242.8z"/>
</svg>
