<?xml version="1.0" encoding="utf-8"?>
<!-- Generator: Adobe Illustrator 27.5.0, SVG Export Plug-In . SVG Version: 6.00 Build 0)  -->
<svg version="1.1" id="Calque_1" xmlns="http://www.w3.org/2000/svg" xmlns:xlink="http://www.w3.org/1999/xlink" x="0px" y="0px"
	 viewBox="0 0 256 256" style="enable-background:new 0 0 256 256;" xml:space="preserve">
<style type="text/css">
	.st0{fill:#656565;}
	.st1{fill:url(#path1948_00000126295720949920292120000016749683076849590718_);}
	.st2{fill:url(#path1950_00000041259237253826242340000010418010034175469704_);}
	.st3{opacity:0.4438;fill:url(#path1894_00000149384295558753783090000003292790225516002710_);enable-background:new    ;}
</style>
<path id="path46" class="st0" d="M104,122.1c0-8.5-2.4-12.8-7.2-13.1c-1.9-0.1-3.8,0.2-5.6,0.9c-1.5,0.5-2.4,1-2.9,1.6v20.2
	c3.1,1.9,5.8,2.8,8.2,2.7C101.5,134.1,104,130,104,122.1z M110,122.4c0,4.3-1,7.9-3,10.7c-2.3,3.2-5.4,4.9-9.4,5
	c-3,0.1-6.1-0.8-9.3-2.8v18.4l-5.2-1.8V111c0.8-1,1.9-1.9,3.3-2.7c3.1-1.8,6.8-2.7,11.2-2.8l0.1,0.1c4-0.1,7.1,1.6,9.3,5
	C108.9,113.6,110,117.6,110,122.4z"/>
<path id="path48" class="st0" d="M141.6,134.5c0,5.8-0.6,9.8-1.7,12c-1.2,2.2-3.4,4-6.6,5.3c-2.6,1-5.5,1.6-8.6,1.7l-0.8-3.3
	c3.1-0.4,5.3-0.8,6.6-1.3c2.5-0.8,4.2-2.2,5.2-3.9c0.8-1.4,1.1-4.1,1.1-8.2v-1.4c-3.5,1.6-7.2,2.4-11.1,2.4c-2.6,0-4.8-0.8-6.7-2.4
	c-2.2-1.7-3.3-4-3.3-6.7v-21.6l5.2-1.8v21.7c0,2.3,0.7,4.1,2.3,5.3c1.5,1.3,3.4,1.8,5.8,1.8c2.4-0.1,4.9-1,7.6-2.8v-25.3h5.2
	L141.6,134.5L141.6,134.5z"/>
<path id="path50" class="st0" d="M161.8,137.8c-0.6,0.1-1.2,0.1-1.7,0.1c-2.9,0-5.2-0.7-6.8-2.1c-1.6-1.4-2.4-3.3-2.4-5.8v-20.4
	h-3.5v-3.3h3.5v-8.7l5.2-1.8v10.5h5.8v3.3H156v20.2c0,1.9,0.5,3.3,1.6,4.1c0.9,0.7,2.3,1,4.2,1.1L161.8,137.8L161.8,137.8z"/>
<path id="path52" class="st0" d="M193.1,137.4H188v-20c0-2-0.5-3.8-1.4-5.2c-1.1-1.7-2.6-2.5-4.6-2.5c-2.4,0-5.4,1.3-8.9,3.8v24
	h-5.2V89.6l5.2-1.6v21.8c3.3-2.4,6.9-3.6,10.9-3.6c2.7,0,5,0.9,6.7,2.8c1.7,1.8,2.6,4.1,2.6,6.9L193.1,137.4L193.1,137.4z"/>
<path id="path54" class="st0" d="M220.6,121.2c0-3.3-0.6-5.9-1.8-8.1c-1.5-2.6-3.7-4-6.8-4.1c-5.7,0.3-8.5,4.4-8.5,12.2
	c0,3.6,0.6,6.6,1.8,9c1.5,3,3.8,4.6,6.8,4.5C217.8,134.7,220.6,130.2,220.6,121.2z M226.3,121.3c0,4.6-1.2,8.5-3.5,11.6
	c-2.6,3.5-6.2,5.2-10.8,5.2c-4.5,0-8.1-1.7-10.6-5.2c-2.3-3.1-3.5-6.9-3.5-11.6c0-4.4,1.3-8,3.8-11c2.6-3.2,6.1-4.8,10.4-4.8
	s7.8,1.6,10.5,4.8C225.1,113.3,226.3,116.9,226.3,121.3z"/>
<path id="path56" class="st0" d="M256,137.4h-5.2v-21.1c0-2.3-0.7-4.1-2.1-5.4c-1.4-1.3-3.3-1.9-5.6-1.9c-2.5,0.1-4.8,0.8-7,2.4v26
	H231v-26.7c3-2.2,5.7-3.6,8.2-4.2c2.4-0.6,4.5-0.9,6.2-0.9c1.2,0,2.4,0.1,3.5,0.4c2,0.5,3.7,1.3,5,2.6c1.4,1.4,2.1,3.1,2.1,5.1
	L256,137.4L256,137.4z"/>
<linearGradient id="path1948_00000064351579501010564580000016714188495000658104_" gradientUnits="userSpaceOnUse" x1="370.0352" y1="201.7831" x2="433.3765" y2="256.2798" gradientTransform="matrix(0.5625 0 0 0.568 -209.7559 -22.9429)">
	<stop  offset="0" style="stop-color:#5CA0D5"/>
	<stop  offset="1" style="stop-color:#316A99"/>
</linearGradient>
<path id="path1948" style="fill:url(#path1948_00000064351579501010564580000016714188495000658104_);" d="M31.9,89.8
	c-2.7,0-5.2,0.2-7.4,0.6c-6.6,1.2-7.8,3.6-7.8,8.1v5.9h15.6v2H16.7h-5.8c-4.5,0-8.5,2.7-9.7,7.9c-1.4,5.9-1.5,9.7,0,15.8
	c1.1,4.6,3.8,7.9,8.3,7.9h5.3V131c0-5.1,4.5-9.7,9.7-9.7H40c4.3,0,7.8-3.6,7.8-7.9V98.6c0-4.2-3.6-7.4-7.8-8.1
	C37.3,90,34.6,89.8,31.9,89.8z M23.5,94.6c1.6,0,2.9,1.3,2.9,3c0,1.6-1.3,3-2.9,3c-1.6,0-2.9-1.3-2.9-3
	C20.5,95.9,21.9,94.6,23.5,94.6z"/>
<linearGradient id="path1950_00000088827383993227760990000013452992925756442016_" gradientUnits="userSpaceOnUse" x1="457.9208" y1="289.2457" x2="435.2942" y2="257.233" gradientTransform="matrix(0.5625 0 0 0.568 -209.7559 -22.9429)">
	<stop  offset="0" style="stop-color:#FFD43E"/>
	<stop  offset="1" style="stop-color:#FFE975"/>
</linearGradient>
<path id="path1950" style="fill:url(#path1950_00000088827383993227760990000013452992925756442016_);" d="M49.8,106.4v6.9
	c0,5.4-4.6,9.9-9.7,9.9H24.5c-4.2,0-7.8,3.7-7.8,7.9V146c0,4.2,3.7,6.7,7.8,7.9c4.9,1.5,9.7,1.7,15.6,0c3.9-1.1,7.8-3.4,7.8-7.9
	v-5.9H32.2v-2h15.6h7.8c4.5,0,6.2-3.1,7.8-7.9c1.6-4.9,1.6-9.6,0-15.8c-1.1-4.5-3.3-7.9-7.8-7.9L49.8,106.4L49.8,106.4z M41,144
	c1.6,0,2.9,1.3,2.9,3s-1.3,3-2.9,3s-2.9-1.3-2.9-3S39.4,144,41,144z"/>
<radialGradient id="path1894_00000147179625654119920420000011422582887216822146_" cx="-1809.2001" cy="25.744" r="16.8792" gradientTransform="matrix(1.747796e-08 -0.2399 1.0539 3.791546e-07 5.2949 -270.0365)" gradientUnits="userSpaceOnUse">
	<stop  offset="0" style="stop-color:#B8B8B8;stop-opacity:0.498"/>
	<stop  offset="1" style="stop-color:#7F8080;stop-opacity:0"/>
</radialGradient>
<path id="path1894" style="opacity:0.4438;fill:url(#path1894_00000147179625654119920420000011422582887216822146_);enable-background:new    ;" d="
	M53.3,164c0,2.2-9.3,4-20.9,4s-20.9-1.8-20.9-4c0-2.2,9.3-4,20.9-4S53.3,161.8,53.3,164z"/>
</svg>
