<?xml version="1.0" encoding="utf-8"?>
<!-- Generator: Adobe Illustrator 16.0.0, SVG Export Plug-In . SVG Version: 6.00 Build 0)  -->
<!DOCTYPE svg PUBLIC "-//W3C//DTD SVG 1.1//EN" "http://www.w3.org/Graphics/SVG/1.1/DTD/svg11.dtd">
<svg version="1.1" id="Calque_1" xmlns="http://www.w3.org/2000/svg" xmlns:xlink="http://www.w3.org/1999/xlink" x="0px" y="0px"
	 width="1000px" height="361.042px" viewBox="0 317.034 1000 361.042" enable-background="new 0 317.034 1000 361.042"
	 xml:space="preserve">
<g>
	<path fill="#404041" d="M0,453.716h7.815v39.237c0,13.415,4.076,16.812,11.463,16.812c7.389,0,11.467-3.396,11.467-16.812v-39.237
		h7.813v38.896c0,16.985-6.285,23.694-19.28,23.694C6.285,516.306,0,509.597,0,492.611V453.716z"/>
	<polygon fill="#404041" points="104.799,453.716 104.799,515.032 94.103,515.032 69.894,461.87 69.724,461.87 69.724,515.032 
		62.761,515.032 62.761,453.716 73.802,453.716 97.666,506.203 97.835,506.203 97.835,453.716 	"/>
	<rect x="130.19" y="453.714" fill="#404041" width="7.813" height="61.318"/>
	<polygon fill="#404041" points="184.295,515.032 174.953,515.032 157.205,453.716 165.691,453.716 179.707,507.642 
		179.876,507.642 194.23,453.716 202.213,453.716 	"/>
	<polygon fill="#404041" points="220.387,515.032 220.387,453.716 251.981,453.716 251.981,460.51 228.202,460.51 228.202,480.213 
		250.284,480.213 250.284,487.007 228.202,487.007 228.202,508.236 252.489,508.236 252.489,515.032 	"/>
	<path fill="#404041" d="M280.686,486.838v28.194h-7.814v-61.318h21.148c10.874,0,14.693,7.646,14.693,15.291
		c0,7.218-3.989,12.736-11.209,14.011v0.169c7.046,1.104,9.595,3.483,10.019,15.796c0.085,2.633,0.937,12.231,2.125,16.051h-8.152
		c-2.205-4.245-1.697-12.229-2.379-20.384c-0.593-7.468-6.625-7.812-9.258-7.812h-9.172V486.838z M280.686,480.044h11.726
		c5.599,0,8.316-4.843,8.316-10.194c0-4.415-2.205-9.34-8.236-9.34h-11.806V480.044z"/>
	<path fill="#404041" d="M336.483,496.773v1.781c0,8.326,5.266,10.955,10.277,10.955c6.201,0,10.958-2.629,10.958-9.934
		c0-13.585-27.518-12.059-27.518-30.489c0-10.87,7.728-16.645,18.006-16.645c11.208,0,17.49,5.436,16.984,17.918h-8.158
		c0.089-6.709-2.036-11.124-9.423-11.124c-4.673,0-9.432,2.375-9.432,8.999c0,13.509,27.519,11.552,27.519,30.997
		c0,12.915-8.914,17.072-19.021,17.072c-18.089,0.17-18.089-13.675-17.919-19.531H336.483L336.483,496.773z"/>
	<rect x="388.887" y="453.714" fill="#404041" width="7.815" height="61.318"/>
	<polygon fill="#404041" points="456.064,453.716 456.064,460.51 439.924,460.51 439.924,515.032 432.113,515.032 432.113,460.51 
		415.979,460.51 415.979,453.716 	"/>
	<path fill="#404041" d="M474.325,515.032v-61.314h31.593v6.79h-23.784v19.704h22.085v6.794h-22.085v21.231h24.292v6.796
		L474.325,515.032L474.325,515.032z M498.783,435.288l-11.124,11.975h-5.694l7.562-11.975H498.783z"/>
	<path fill="#404041" d="M556.192,453.718h18.854c7.817,0,13.419,2.803,16.479,9.342c2.464,5.176,2.72,17.405,2.72,19.36
		c0,13.079-1.19,20.636-3.737,24.716c-3.313,5.264-9.512,7.896-20.213,7.896h-14.101L556.192,453.718L556.192,453.718z
		 M564.009,508.236h7.388c10.871,0,14.86-4.075,14.86-18.342v-12.4c0-12.397-3.814-16.981-11.976-16.981h-10.272V508.236z"/>
	<polygon fill="#404041" points="618.107,515.032 618.107,453.716 649.697,453.716 649.697,460.51 625.92,460.51 625.92,480.213 
		647.998,480.213 647.998,487.007 625.92,487.007 625.92,508.236 650.21,508.236 650.21,515.032 	"/>
	<path fill="#404041" d="M164.238,540.009c28.545,0,46.337,15.098,46.337,39.516c0,16.341-8.478,28.543-23.585,34.545
		c12.829,8.486,20.686,21.521,31.45,39.104c6.002,9.724,9.516,14.478,19.238,27.933h-24.207l-18.617-28.97
		c-18.62-28.966-27.105-32.271-37.445-32.271h-8.482v61.241h-20.272V540.009H164.238z M148.927,601.655h13.029
		c21.727,0,27.938-11.174,27.729-22.963c-0.207-13.24-8.067-21.311-27.729-21.311h-13.029V601.655z"/>
	<polygon fill="#404041" points="333.259,558.209 273.468,558.209 273.468,600.828 331.194,600.828 331.194,619.038 
		273.468,619.038 273.468,662.896 335.117,662.896 335.117,681.102 253.188,681.102 253.188,540.005 333.259,540.005 	"/>
	<polygon fill="#404041" points="487.183,681.102 469.807,681.102 375.462,572.483 375.462,681.102 356.431,681.102 
		356.431,540.005 372.563,540.005 468.151,649.239 468.151,540.005 487.183,540.005 	"/>
	<polygon fill="#404041" points="648.755,681.102 631.381,681.102 537.036,572.483 537.036,681.102 518.004,681.102 
		518.004,540.005 534.143,540.005 629.723,649.239 629.723,540.005 648.755,540.005 	"/>
	<polygon fill="#404041" points="759.854,558.209 700.063,558.209 700.063,600.828 757.787,600.828 757.787,619.038 
		700.063,619.038 700.063,662.896 761.714,662.896 761.714,681.102 679.791,681.102 679.791,540.005 759.854,540.005 	"/>
	<path fill="#404041" d="M850.259,571.036c-11.996-11.376-23.579-14.691-33.095-14.691c-13.037,0-22.348,6.829-22.348,16.76
		c0,27.104,61.03,26.69,61.03,71.584c0,22.137-16.758,38.273-39.51,38.273c-15.313,0-27.729-4.138-39.521-13.033v-25.653
		c10.344,13.239,23.382,20.481,37.237,20.481c15.726,0,22.967-9.929,22.967-17.787c0-29.177-61.029-32.486-61.029-71.171
		c0-22.968,16.965-37.654,42.824-37.654c10.758,0,21.521,3.312,31.441,9.93v22.962H850.259z"/>
	<path fill="#404041" d="M1000,521.973l-0.107-0.069v-5.181h-8.771l-0.943,2.906c-6.655,8.673-29.034,34.931-65.181,48.433
		l2.943,8.838c11.193-4.365,20.801-9.367,29.117-14.519v115.695h42.834v-155.93C999.917,522.102,999.992,521.998,1000,521.973"/>
	<path fill="#404041" d="M816.131,493.119l0.041-0.05l-0.463-0.69l-0.174,0.095L816.131,493.119z M817.04,491.437
		c-0.322-0.164-0.976-0.491-0.976-0.491c1.065-1.623,0.024-2.593-0.984-3.503l-0.826,0.916c0.368,0.604,0.977,0.465,1.199-0.303
		c-0.729,1.827-0.447,3.125,0.256,4.324C816.238,492.106,816.899,491.908,817.04,491.437 M804.449,480.97
		c-0.322-0.093,1.645-1.105,0.95-1.292c-1.142-0.698-2.506-1.036-3.061-1.946c-0.669-0.157,1.005-2.097,0.332-2.26
		c-1.104-0.726-5.16-1.485-4.098-0.148c1.575,1.995,2.946,3.11,4.494,4.884c1.77,1.155,3.381,2.375,5.01,3.772
		c0.339,0.452,0.414,0.989,0.513,1.519l-0.05-2.36C808.624,481.943,805.564,482.113,804.449,480.97 M812.939,480.199
		c-0.078,0.411,0.438,0.347,0.941,0.386l-0.579-1.428L812.939,480.199z M811.014,475.751l0.77,1.126
		C811.749,476.454,811.501,476.072,811.014,475.751 M811.566,477.855c0.216-0.303,0.479-0.529,0.818-0.407l0.008,0.008l-0.61-0.579
		L811.566,477.855z M812.394,477.457l0.381,0.368l-0.107-0.254L812.394,477.457z M804.924,474.747
		c-0.905-1.006-1.302-2.28-1.05-4.14c-0.046,0.763-0.599,1.037-1.112,0.556l0.604-1.046c1.24,0.605,2.423,1.309,1.653,3.149
		c0,0,0.687,0.179,1.025,0.268C805.982,474.019,805.391,474.366,804.924,474.747l0.566,0.585c0.645-1.038,0.91-3.323,0.91-3.328
		c-1.895-2.904-3.838-5.521-5.517-8.253c-0.496,0.072-0.991,0.244-1-0.161l0.124-1.063l-0.81-1.14l-0.451-0.271h-0.012
		c-0.364-0.039-0.579,0.238-0.721,0.562l-0.009-0.969l-0.182-0.194c0.037,0.021,0.074,0.049,0.116,0.068
		c0.017,0.045,0.058,0.085,0.064,0.126l0.575,0.314l0.021,0.016v-0.004l0.145,0.081l0.302,0.05l-1.827-2.654l-0.563-0.388
		c-0.702-0.407-1.463-0.736-1.018-1.809l-0.354-0.453l-0.07,0.213v-0.293l-1.492-1.939c-1.009-1.235-1.918-2.613-3.088-3.797
		c-7.007-8.181-15.373-13.891-26.179-18.688c-5.953-2.416-12.344-4.774-20.264-3.882c-16.685,4.28-22.886,18.198-23.91,36.625
		c-0.132,6.491,5.465,13.927,9.674,17.926c-0.352,1.446-0.707,2.811-1.191,3.929c-0.934,2.424,0.289,7.901,3.755,11.651
		c7.838,3.386,5.795-4.439,6.25-4.093c1.702-3.894-0.092-2.773,1.505-6.252c-1.009,2.182-3.071-0.95-0.174-3.118
		c4.258-3.578,1.166-5.773,3.107-6.097c0.579-0.063,0.761-0.487,1.158-0.843c3.612-0.231,7.391-3.395,12.996-2.751
		c1.405,0.048,2.721-1.164,4.035-1.566c0.934-0.032,1.825,0.699,2.555,0.823c1.156,0.187,2.223-0.052,3.298-0.391
		c-1.128,0.03-1.968,0.209-3.183,0.178c-0.812-0.068,0.785-1.383,1.396-1.612c0.29-0.215,0.406,1.114,0.688,0.894
		c0.49,0.081,1.058-0.352,1.686-0.585c0.289-0.215,0,0.92,0.141,0.811c0.804-0.186,1.713-1.339,2.101-0.903l0.819,0.84l0.569,0.267
		l0.477-0.149l3.716-0.658l0.017-0.103c-0.652-0.097-1.207-0.395-1.625-1.278c0.19,0.339,0.056,0.63-0.285,0.589l-0.062-0.63
		c0.665-0.129,1.352-0.242,1.575,0.719c0,0,0.33-0.169,0.496-0.25c0.123,0.207-0.019,0.546-0.101,0.852l0.405,0.033
		c-0.042-0.618-0.608-1.596-0.616-1.596l-4.525-1.647c-0.174,0.178-0.322,0.407-0.438,0.229l-0.239-0.521l-0.628-0.267l-0.257,0.046
		l-0.009,0.01l-0.132,0.465l-0.272-0.382l0.322-0.07h0.004l0.087-0.021l0.132-0.079l-1.496-0.424l-0.339,0.037
		c-0.404,0.089-0.794,0.182-0.917-0.411l-0.266-0.083l0.025,0.114l-0.074-0.129l-1.142-0.347l-2.281-0.684
		c-5.085-1.268-9.962-1.199-15.561-0.538c-1.569,0.143-3.149,0.439-4.762,0.833c-0.529-1.199-0.914-2.67-0.521-5.198
		c-0.256,4.896-6.621-0.689-1.463-4.854c7.15-2.743,2.877-6.888,7.508-9.008c0.536-0.148,1.074-0.202,1.66-0.567
		c3.804,1.465,14.254,1.062,22.835,8.148c2.35,1.625,5.64,1.629,8.292,2.565c1.713,0.918,2.439,3.09,3.474,4.212
		c1.679,1.709,3.754,2.585,5.729,3.559c-1.712-1.515-3.363-2.2-5.323-3.75c-1.258-1.097,2.803-1.178,4.066-0.771
		c0.703,0.017-0.545,2.218,0.148,2.218c0.712,0.752,2.035,0.864,3.25,1.325c0.686,0.052-1.025,1.43-0.678,1.457
		c1.348,0.837,4.323-0.01,4.514,1.141l0.441,2.317l0.642,1.116l0.941,0.37c2.282,0.896,4.64,2.233,6.564,3.732L804.924,474.747z
		 M763.739,467.662c-0.389,0.147-0.835-0.142-1.153-0.768C763.115,466.485,763.471,467.027,763.739,467.662 M790.717,452.563
		c-0.794-0.271-1.299-1.155-1.174-2.489C790.906,450.052,790.98,451.238,790.717,452.563 M779.597,470.9l-0.148,0.036l0.253,0.035
		L779.597,470.9z M779.439,470.938h0.008l-0.404-0.037l0.189,0.473L779.439,470.938z M777.257,474.98
		c-0.157,0.063,0.347-0.986,0.033-0.864c-0.62-0.008-1.306,0.398-1.786,0.217c-0.322,0.169-0.211-1.151-0.529-0.982
		c-0.67,0.122-2.521,1.155-1.711,1.351c1.225,0.238,2.125,0.161,3.259,0.359h3.024l0.629,0.462l-0.678-0.971
		C779.199,474.027,778.025,475.09,777.257,474.98 M780.439,471.903c0.083,0.197,0.272,0.004,0.479-0.144l-0.629-0.402
		L780.439,471.903z M784.838,475.102c-0.049-0.978-0.769-0.993-1.455-0.989l-0.065,0.626c0.34,0.102,0.538-0.155,0.396-0.521
		c0.257,0.937,0.757,1.335,1.413,1.55c0.133-0.286,0.34-0.589,0.257-0.812L784.838,475.102z M785.078,475.856l0.438,0.042
		l0.006-0.033l-0.395-0.098L785.078,475.856z"/>
	<path fill="#404041" d="M770.056,337.417l-0.017-0.118C769.742,337.417,769.502,337.519,770.056,337.417 M774.479,336.283
		l-0.049-0.072C773.884,336.359,774.148,336.33,774.479,336.283 M774.545,336.372c-0.33,0.089-0.852,0.217-1.678,0.415
		c0.496-0.12,1.041-0.246,1.686-0.403L774.545,336.372z M774.479,336.283l0.066,0.089
		C775.389,336.152,774.9,336.223,774.479,336.283 M774.141,335.737l-1.397-1.453l1.464,1.627l0.224,0.3
		c0.024-0.008,0.033-0.013,0.066-0.021L774.141,335.737z M735.696,331.851l3.464,0.796c3.96,0.99,7.813,2.081,11.524,4.051
		l2.845,1.823l-3.745-2.64c-1.86-1.139-4.581-1.579-7.796-2.54c-0.515-0.097-0.207-0.645-1.258-0.847
		c-2.005-2.044-5.489,2.277-5.896-4.403c1.075-0.351,2.952-0.024,3.994-0.372c2.455-0.905,9.11-2.375,5.134-1.972
		c-2.935,0.61-5.341,1.151-7.673,1.676l-1.736,0.397C734.166,335.415,735.357,330.074,735.696,331.851 M744.162,331.508l0.017,0.008
		l-1.604-0.444l1.442,0.655C743.724,331.537,743.608,331.403,744.162,331.508 M737.722,328.592c2.836-0.461,5.581-1.457,8.606-0.957
		c-1.298-0.114-1.149-0.283,0.335-0.347l1.146,0.283c-2.588,0.056-5.052,0.626-7.489,0.75c0,0-1.06,0.352-1.58,0.521
		C737.928,328.912,737.92,328.718,737.722,328.592l-1.67,0.376c1.272,0.06,5.026-0.275,5.026-0.275
		c7.044-1.405,14.096-1.017,20.239,1.346c0.509,0.072,0.908,0.076,1.513,0.382l1.34,0.796l2.438,1.515l0.893,0.49l0.024,0.004
		c0.496,0.233,0.422,0.077,0.19-0.173l1.107,1.114c0.239,0.203,0.496,0.403,0.752,0.605c-0.161-0.14-0.349-0.275-0.529-0.411
		c-0.074-0.062-0.16-0.126-0.223-0.194l-0.381-0.271l-0.661-0.521l0.298,0.258l-0.579-0.411l-0.438-0.203
		c0.991,0.694,1.918,1.478,2.786,2.307c0.009,0.411,0.009,0.816,0.107,1.215l0.082,0.719v0.039c0.372-0.141,0.817-0.302,0.065-0.157
		l-0.05-0.55c0.042,0.24,0.364,0.38,1.249,0.299c0.066,0.077,0.142,0.141,0.198,0.211c-0.712,0.161-1.183,0.263-1.447,0.314
		l0.009,0.024c0.537-0.122,1.009-0.231,1.438-0.334c0.099,0.116,0.224,0.217,0.313,0.334c0.248,0.728,1.832,0.06,1.075-0.384
		c-0.009-0.089-0.017-0.178-0.023-0.271c0-0.047-0.01-0.089-0.01-0.136c0.355-0.072,0.762-0.166,1.207-0.271
		c-0.445-0.499-0.876-0.949-1.313-1.379c-0.024-0.864-0.05-1.647-0.161-2.224l-0.367-1.172l0.023,0.242l-0.09-0.449
		c-0.364-1.724-1.538-3.073-2.373-4.572c-1.818-2.396-4.102-4.415-6.614-6.18c0.761,0.647,1.596,1.621,1.86,1.862
		c-0.646-0.165-2.548-2.116-3.158-2.29c0.182-0.343,0.666-0.089,1.198,0.347c-0.28-0.19-0.514-0.419-0.785-0.602
		c6.646,1.956,19.031,6.401,24.72,14.689c1.464,1.579,2.712,3.361,3.901,5.167c-0.073,0.44-0.141,0.885-0.238,1.325l-0.083,0.5
		c2.414-0.217-3.521,0.331,1.43-0.118l0.604,1.015c1.092,0.008-1.812,1.147,2.563,0.234l0.215-1.038
		c0.024-0.174,0.066-0.347,0.108-0.525c0.541-0.052,1.074-0.097,1.711-0.157l-0.008-0.017l-0.025-0.042l-0.041-0.076l-0.092-0.157
		l-0.165-0.314l-0.694-1.16l-0.24-0.368c0.066-0.453,0.107-0.909,0.074-1.385c0.195-2.501-0.297-5.049-1.211-7.461
		c3.626,2.958,6.686,6.658,9.413,10.421c1.596,0.796,1.571,2.459,2.19,3.78c-0.318,0.008-0.472,0.012,0,0.004
		c0.604,1.273,1.803,2.222,5.688,1.718c0.281-0.626,0.463-1.244,0.646-1.862c0.197-0.004,0.355-0.008,0.563-0.012l-0.042-0.072
		l-0.082-0.139l-0.174-0.285l-0.058-0.102c0.604-2.356,0.628-4.661,0.661-6.907c-0.009-1.066-0.101-2.096-0.175-3.129
		c0.959,0.374,1.854,0.783,2.011,1.668c4.047,3.553,7.97,7.222,11.227,11.459c6.705,8.288,11.732,18.029,14.469,28.911
		c2.48,8.212,5.125,24.04,4.846,32.357c0.628,10.994,3.349,5.618,3.646,5.017c2.308-6.765,1.67-12.319,0.381-25.729
		c0.487,6.134-2.58-9.177-4.653-17.862c-2.439-13.95-15.287-30.516-28.896-40.862l-2.571-2.048l-1.331-1.033l-0.083-0.066
		l-0.036-0.035l-0.029-0.012c4.887-3.315-6.663,4.503-5.474,3.704v0.004v0.008l0.037,0.169l0.07,0.355l0.133,0.763
		c0.297,1.823,0.57,3.789,0.652,5.789l-0.041-0.062c-4.067-5.122-8.466-10.186-15.212-13.559l-0.612-0.327l-0.306-0.161
		l-0.041-0.021l-0.018-0.008c3.398-5.752-4.646,7.827-3.819,6.43l0.042,0.033l0.495,0.504l1.024,1.385
		c0.066,0.097,0.108,0.211,0.17,0.313c-1.689-1.823-3.477-3.584-5.452-5.231c-6.209-4.516-12.894-7.463-19.503-7.399l-1.777-0.219
		l-0.9-0.124l-0.446-0.062l-0.224-0.031l-0.059-0.008h-0.008c-0.57,2.222,1.281-4.981-1.29,4.991h0.009l0.009,0.004l0.016,0.012
		l0.075,0.037l2.396,1.689c1.547,1.228,2.895,2.548,3.854,3.755c0.95,1.042,1.67,2.125,2.241,3.212
		c-2.456-1.366-4.692-1.943-6.425-2.65c-1.612-0.752-3.084-1.399-4.612-1.653l-2.943-0.556l-1.969-0.178
		c-4.786,0.25-10.119,0.848-14.873,2.387L737.722,328.592z M770.328,335.838c-0.148,0.262-0.289,0.521-0.272,0.719l-0.017-0.139
		c-0.058-0.318-0.066-0.641-0.066-0.957C770.098,335.58,770.205,335.716,770.328,335.838 M766.518,328.156
		c-2.249-2.569,2.3,1.199,3.267,3.348c0.058,0.174,0.106,0.389,0.161,0.605c-0.417-0.293-0.823-0.512-1.229-0.75
		C768.175,330.313,767.493,329.251,766.518,328.156 M744.65,331.634l-0.473-0.118l0.977,0.352L744.65,331.634z M742.574,331.072
		c-0.744-0.291-1.629-0.585-2.678-0.853L742.574,331.072z M744.018,331.727l0.872,0.593
		C744.732,332.207,744.303,331.896,744.018,331.727 M750.686,334.505c-0.868-0.626-1.894-0.953-2.844-1.422l1.363,0.841
		L750.686,334.505z M951.66,348.953c-1.455-0.504-5.589-0.965-3.745,0.198c2.813,1.672,4.812,2.536,7.3,4.127
		c2.29,0.938,4.514,1.871,6.764,3.03l1.438,1.393l-1.637-2.238c-0.752-1.106-3.092-0.674-4.869-1.587
		c-0.349-0.052,0.604-1.174-0.092-1.288c-1.422-0.554-2.812-0.775-3.895-1.587C952.23,350.916,952.362,349.037,951.66,348.953
		 M964.357,352.475l-1.389-1.228l0.389,0.994C963.564,352.621,963.938,352.503,964.357,352.475 M891.349,322.453
		c-2.198,0.089-4.469,0.475-6.714,0.746c1.217,0.198,2.439,0.651,3.639,1.486C889.729,325.154,890.314,323.613,891.349,322.453
		 M878.575,328.862l1.528,0.61C879.799,329.282,879.212,329.085,878.575,328.862 M961.439,349.878l-0.306-0.062l0.554,0.279
		L961.439,349.878z M961.13,349.81l0.005,0.006l-0.894-0.432l0.479,0.885C960.696,349.976,960.763,349.744,961.13,349.81
		 M958.895,348.444l1.348,0.94C959.936,349.015,959.506,348.69,958.895,348.444 M973.775,362.391
		c-0.34-0.126-1.018-0.372-1.018-0.368c-0.207-1.813-1.652-2.528-3.001-3.284l-0.024,0.99c0.678,0.533,1.032,0.314,0.711-0.448
		c0.662,1.833,1.703,3.086,2.936,4.233C973.602,363.175,973.957,362.883,973.775,362.391 M973.379,363.514l-0.066,0.114l0.828,0.577
		l0.008-0.048L973.379,363.514z M940.995,422.089c-6.283-6.591-10.566-15.632-15.833-20.762c-7.481-7.5-19.016-13.373-24.178-14.791
		c5.13,3.348,14.588,8.09,22.839,15.107c5.86,5.004-9.187,1.68-13.732-0.242c-2.431-0.295-0.835-7.36-3.332-7.699
		c-4.107-3.208-7.534-2.883-11.252-3.915c-2.042-0.031,2.143-4.156,1.157-4.127c-2.248-1.296-6.432-1.038-9.342-1.532
		c-0.096-0.694-0.133-1.393-0.06-2.087c1.043-7.459-4.431-13.999-5.19-20.606c1.472,0.804,2.596,0.855,2.431-0.525
		c-0.604-4.694-1.05-7.373,0.435-10.438c0-0.428,0.046-0.86,0.128-1.296c2.258-3.268,5.135-6.416,8.673-8.745
		c1.607-0.157,3.093,0.36,4.521,0.779c-0.992-0.513-2.065-1.05-3.207-1.596c3.969-2.278,8.688-3.505,14.244-2.771
		c3.365,0.281,6.771-0.542,10.055-0.271c1.265,0.192,2.464,0.711,3.597,1.271c2.321,2.493,4.77,4.415,7.778,5.63
		c0.332-0.839,0.777-1.68,0.992-2.511c0.638,0.157,1.281,0.343,1.918,0.469c-0.66-0.24-1.28-0.461-1.885-0.664
		c0.05-0.267,0.082-0.533,0.066-0.795c0.99,0.262,2.083,0.271,3.249,0.461c0.702-0.029-0.033,1.244,0.316,1.228
		c1.841,0.643,4.08-0.267,4.99,0.699l1.984,1.891l1.321,0.936l1.107,0.254c2.688,0.597,5.614,1.685,8.311,2.791l0.041-0.132
		c-1.455-0.816-2.703-1.846-3.639-3.567c0.438,0.694,0.141,0.973-0.611,0.57l-0.156-0.957c1.487,0.436,2.927,0.99,3.497,2.646
		c0,0,0.711,0.089,1.065,0.137c0.272,0.436-0.008,0.795-0.156,1.172l0.875,0.465c-0.14-0.986-1.422-3.005-1.422-3.005
		c-3.497-2.396-6.878-4.537-10.201-6.589c-0.404,0.097-0.753,0.283-1.014-0.056l-0.558-0.901l-1.455-0.897l-0.579-0.192
		l-0.018,0.004c-0.354-0.008-0.38,0.237-0.313,0.521l-0.607-0.804l-0.303-0.126l0.157,0.038c0.042,0.031,0.1,0.056,0.146,0.089
		l0.724,0.217l0.024,0.008l0.189,0.054l0.307,0.023l-3.405-1.931l-0.794-0.242c-0.922-0.229-1.854-0.453-2.093-1.35l-0.611-0.343
		l0.065,0.178l-0.182-0.238l-2.691-1.269c-1.781-0.783-3.518-1.765-5.461-2.375c-11.913-4.806-25.852-5.855-38.576,1.786
		c-6.521,4.08-12.293,9.855-15.468,17.416c-0.065,0.182-0.1,0.364-0.157,0.545c-3.381,1.176-7.324,5.341-7.076,5.542
		c-1.895,13.129,2.115,25.464,8.233,35.666c1.431,0.165,2.845-0.064,2.91,1.35c-0.265,1.329-0.147,2.41,0.124,3.396l3.158,4.193
		l1.546,1.114h0.05c0.951,0.246,1.414-0.355,1.684-1.176c0.062,0.097,0.136,0.19,0.201,0.288c0.066,0.845,0.273,1.647,0.721,2.362
		c0.628,0.343,1.224,0.728,1.802,1.143c-0.496-0.275-1.025-0.538-1.554-0.8c-0.084-0.116-0.184-0.221-0.248-0.343l-2.654-1.474
		l-0.95-0.304c2.431,3.241,5.522,5.785,8.301,8.766c0.776,0.473,1.546,1.002,2.175,1.236c2.58,1.075,5.225,2.226,4.721,5.465
		l1.438,1.397l0.033-0.645l0.225,0.884l5.725,6.228c3.691,4.068,7.053,8.499,10.239,13.059c9.854,14.782,17.448,30.604,18.164,45.59
		c0.893,15.415-8.848,23.983-19.858,19.271c-13.551-5.878-25.984-22.729-34.914-38.628c-7.357-13.251-15.469-25.542-23.115-38.216
		l0.189,0.136c0,0-23.438-67.847-66.115-72.634c-7.68-0.864-14.666-1.286-21.074-1.337c0.175-2.528-1.43-4.64-2.836-6.672
		l0.323,1.151c0.77,1.247,1.018,1.325,0.463,0.116c1.05,1.734,1.446,3.559,1.77,5.401c-17.113-0.109-29.869,2.515-39.561,7.104
		c-1.148-0.504-2.348-0.916-3.575-1.211c-17.085-5.093-10.752-19.1-10.752-19.1c-48.909,43.347-52.672,73.697-49.612,89.288
		c0.678,4.562,2.215,8.584,4.653,11.767c0.153,0.213,0.248,0.335,0.248,0.335l0.018-0.025c1.142,1.431,2.431,2.717,3.947,3.771
		c13.57,9.482,37.125-0.744,53.14-22.818c18.867,7.174,21.661-7.569,43.471-2.205c-16.552-2.96,10.45-17.949,16.717,0.041
		c1.869,12.433,1.612,13.648,8.062,21.168c7.805,10.309,19.908,24.238,26.35,37.895c3.373,7.166,9.209,13.229,14.973,20.936
		c14.789,20.541,27.836,42.894,71.977,52.93c24.208,4.616,54.706-11.648,63.609-35.353c9.731-23.178,5.646-42.195,1.556-58.388
		C962.986,439.676,950.686,430.292,940.995,422.089 M929.445,337.895c0.438-0.041,0.678,0.649,0.959,1.191
		c-1.142,0.054-2.373,0.126-2.373,0.126c-0.115-0.465-0.289-0.85-0.446-1.261C928.279,337.878,928.982,337.854,929.445,337.895
		 M925.609,331.173c-0.959-0.093-2.034-0.622-2.771-1.596C924.188,329.344,925.03,330.154,925.609,331.173 M868.107,362.743
		c0.059,0.74,0.149,1.474,0.254,2.201l-2.088,1.563c-1.918-3.836-3.795-9.034,1.362-12.093c0.033,0.029-1.091-2.032-1.413-3.1
		c0.86-0.676,1.901-0.587,2.96-0.385c-0.852,3.183-1.216,6.252-1.19,9.225c-0.596,1.232-1.297,2.53-2.19,3.954
		C866.537,362.768,867.431,362.375,868.107,362.743 M913.753,437.324c-4.051-1.083-3.942-4.806-3.621-8.627
		C912.836,429.904,914.258,433.421,913.753,437.324 M877.368,328.379c-1.009-0.49-1.771-1.137-0.927-2.259l0.032-0.031l-2.926,2.245
		C874.888,328.071,876.186,328.108,877.368,328.379 M877.236,325.175l-0.763,0.914l1.939-1.375L877.236,325.175z M868.836,332.292
		c1.877-1.075,3.232-2.6,4.713-3.958C871.846,328.842,870.225,330.289,868.836,332.292 M933.529,344.752l-0.01-0.169l-2.793-1.108
		l-0.175,0.486L933.529,344.752z"/>
</g>
</svg>
