<?xml version="1.0" encoding="utf-8"?>
<!-- Generator: Adobe Illustrator 16.0.0, SVG Export Plug-In . SVG Version: 6.00 Build 0)  -->
<!DOCTYPE svg PUBLIC "-//W3C//DTD SVG 1.1//EN" "http://www.w3.org/Graphics/SVG/1.1/DTD/svg11.dtd">
<svg version="1.1" id="Calque_1" xmlns="http://www.w3.org/2000/svg" xmlns:xlink="http://www.w3.org/1999/xlink" x="0px" y="0px"
	 width="16px" height="16px" viewBox="0 0 16 16" enable-background="new 0 0 16 16" xml:space="preserve">
<path fill-rule="evenodd" clip-rule="evenodd" fill="#376496" d="M8,0C3.591,0,0.004,3.584,0,7.995
	C-0.004,12.402,3.577,15.99,7.99,16c4.405,0.01,7.999-3.572,8.01-7.985C16.012,3.601,12.418,0,8,0z M12.725,7.982
	c-0.006,0.437-0.322,0.745-0.732,0.743c-0.407-0.002-0.717-0.319-0.721-0.755c-0.007-0.703-0.003-1.407-0.002-2.11
	c0-0.201,0.04-0.404,0.203-0.526c0.154-0.116,0.166-0.251,0.162-0.416c-0.006-0.294,0-0.589-0.004-0.884
	c0-0.047,0.028-0.106-0.038-0.15c-0.396,0.339-0.789,0.682-1.19,1.016c-0.082,0.069-0.043,0.123-0.02,0.189
	c0.317,0.882,0.186,1.671-0.492,2.342c-0.17,0.17-0.365,0.314-0.535,0.486C8.95,8.325,8.975,8.688,9.422,9.052
	c0.348,0.282,0.706,0.554,1.015,0.883c0.208,0.223,0.372,0.472,0.464,0.765c0.261,0.838-0.066,1.77-0.838,2.363
	c-0.697,0.537-1.51,0.729-2.37,0.752c-0.688,0.018-1.364-0.063-1.984-0.396C4.53,12.785,4.383,11.39,5.402,10.52
	c0.528-0.451,1.164-0.643,1.833-0.748c0.32-0.05,0.645-0.078,0.988-0.119c-0.161-0.217-0.3-0.416-0.359-0.665
	c-0.062-0.26,0.012-0.497,0.1-0.748c-0.121,0.008-0.221,0.015-0.32,0.021C6.46,8.337,5.479,7.497,5.388,6.318
	c-0.01-0.125-0.06-0.135-0.16-0.135c-0.704,0.003-1.407,0.002-2.111,0C3.063,6.183,3,6.214,2.952,6.157
	c0.01-0.013,0.017-0.026,0.027-0.035C4.139,5.078,5.3,4.034,6.458,2.987c0.08-0.072,0.163-0.078,0.257-0.078
	c1.132,0.001,2.266,0,3.398,0c0.85,0,1.699,0,2.61,0c-0.114,0.102-0.185,0.174-0.265,0.231s-0.1,0.125-0.1,0.221
	c0.005,0.556,0.004,1.113,0.002,1.669c0,0.088,0,0.164,0.088,0.227c0.191,0.138,0.275,0.341,0.276,0.574
	C12.729,6.548,12.732,7.265,12.725,7.982z"/>
<path fill-rule="evenodd" clip-rule="evenodd" fill="#376496" d="M8.306,10.041c-0.54,0.031-1.057,0.089-1.54,0.313
	c-0.525,0.243-0.871,0.625-0.888,1.229c-0.017,0.592,0.269,1.037,0.777,1.309c0.819,0.438,1.689,0.508,2.561,0.178
	c0.976-0.371,1.193-1.473,0.46-2.217c-0.284-0.287-0.612-0.52-0.937-0.756C8.602,9.996,8.439,10.068,8.306,10.041z"/>
<path fill-rule="evenodd" clip-rule="evenodd" fill="#376496" d="M9.385,6.404C9.342,5.759,9.155,5.065,8.633,4.502
	c-0.344-0.37-0.77-0.511-1.258-0.35C6.872,4.318,6.608,4.697,6.552,5.212c-0.083,0.755,0.101,1.45,0.537,2.069
	c0.376,0.535,0.926,0.726,1.468,0.541C9.123,7.63,9.402,7.188,9.385,6.404z"/>
</svg>
