<?xml version="1.0" encoding="utf-8"?>
<!-- Generator: Adobe Illustrator 16.0.0, SVG Export Plug-In . SVG Version: 6.00 Build 0)  -->
<!DOCTYPE svg PUBLIC "-//W3C//DTD SVG 1.1//EN" "http://www.w3.org/Graphics/SVG/1.1/DTD/svg11.dtd">
<svg version="1.1" id="Calque_1" xmlns="http://www.w3.org/2000/svg" xmlns:xlink="http://www.w3.org/1999/xlink" x="0px" y="0px"
	 width="283.46px" height="283.46px" viewBox="0 0 283.46 283.46" enable-background="new 0 0 283.46 283.46" xml:space="preserve">
<circle fill-rule="evenodd" clip-rule="evenodd" fill="#231F20" cx="141.732" cy="141.732" r="141.732"/>
<path fill-rule="evenodd" clip-rule="evenodd" fill="#FFFFFF" d="M222.517,102.889c0.028-5.697-1.29-10.75-6.104-14.352
	c-0.776-0.58-0.623-1.396-0.623-2.172c-0.006-8.542,0.318-17.101-0.139-25.615c-0.232-4.32,0.832-7.33,4.377-9.66
	c1.479-0.974,2.968-2.227,2.149-4.351c-0.792-2.067-2.688-1.737-4.383-1.737c-35.778,0-71.556,0.018-107.334-0.031
	c-3.3-0.004-5.96,0.979-8.428,3.212c-20.381,18.455-40.831,36.837-61.262,55.24c-0.271,0.246-0.551,0.481-0.813,0.738
	c-1.068,1.048-2.152,2.145-1.489,3.808c0.721,1.802,2.251,2.492,4.097,2.486c7.629-0.021,15.26-0.084,22.889-0.107
	c5.311-0.018,10.623,0.031,15.935-0.031c1.181-0.012,1.521,0.332,1.624,1.512c1.617,18.245,16.504,33.663,34.662,36.069
	c3.648,0.483,7.295,0.359,11.128,0.313c-2.484,7.498-0.694,14.161,3.615,20.472c-6.39,0.805-12.581,1.377-18.679,2.611
	c-12.224,2.475-23.494,6.912-32.464,15.945c-6.761,6.809-10.683,15.002-10.626,24.668c0.061,10.577,4.672,19.142,12.809,25.786
	c7.311,5.969,15.901,9.239,25.084,10.714c15.063,2.42,30.061,1.943,44.671-2.822c13.113-4.279,24.218-11.502,31.48-23.585
	c9.275-15.438,8.348-35.069-6.01-49.069c-5.386-5.252-11.225-9.943-17.067-14.646c-1.62-1.304-3.142-2.695-4.37-4.396
	c-2.041-2.83-2.172-5.701-0.37-8.698c1.824-3.035,4.45-5.314,7.085-7.58c3.658-3.145,7.275-6.326,10.235-10.172
	c9.339-12.128,10.45-25.455,5.665-39.584c-0.464-1.371-0.35-2.083,0.795-3.029c5.394-4.461,10.688-9.041,16.317-13.833
	c0,3.409,0,6.53,0,9.653c0,0.855-0.069,1.717,0.013,2.563c0.308,3.149-0.388,5.673-3.072,7.857
	c-2.849,2.318-3.529,5.938-3.559,9.475c-0.09,10.309-0.061,20.618-0.021,30.93c0.016,3.896-0.29,7.81,0.302,11.689
	c1.248,8.169,7.935,13.724,16.252,13.548c8.03-0.169,14.429-6.038,15.356-14.12c0.152-1.33,0.242-2.671,0.244-4.009
	C222.507,126.682,222.46,114.785,222.517,102.889z M160.333,193.167c4.697,4.346,8.16,9.423,8.71,15.966
	c0.78,9.333-4.229,17.371-13.171,21.067c-14.607,6.037-29.074,5.486-43.339-1.271c-4.351-2.06-8.306-4.627-11.174-8.586
	c-8.037-11.095-4.377-25.999,8.136-32.865c9.515-5.223,19.981-6.227,30.185-6.708c2.151,0.324,4.019-0.532,5.712,0.677
	C150.548,185.13,155.675,188.853,160.333,193.167z M155.515,118.652c-1.379,11.959-12.48,19.73-23.97,16.744
	c-5.67-1.475-9.719-5.162-12.953-9.849c-7.625-11.054-10.549-23.248-8.865-36.57c1.205-9.523,8.563-16.375,18.18-16.913
	c6.635-0.37,11.57,2.768,15.714,7.506c8.412,9.619,11.704,21.127,12.291,33.604C155.994,115.026,155.725,116.837,155.515,118.652z"
	/>
</svg>
