<?xml version="1.0" encoding="utf-8"?>
<!-- Generator: Adobe Illustrator 16.0.0, SVG Export Plug-In . SVG Version: 6.00 Build 0)  -->
<!DOCTYPE svg PUBLIC "-//W3C//DTD SVG 1.1//EN" "http://www.w3.org/Graphics/SVG/1.1/DTD/svg11.dtd">
<svg version="1.1" id="Calque_1" xmlns="http://www.w3.org/2000/svg" xmlns:xlink="http://www.w3.org/1999/xlink" x="0px" y="0px"
	 width="283.46px" height="283.46px" viewBox="0 0 283.46 283.46" enable-background="new 0 0 283.46 283.46" xml:space="preserve">
<circle fill="#C8C8C8" cx="141.732" cy="141.732" r="141.732"/>
<path fill="#FFFFFF" d="M222.517,102.889c0.027-5.697-1.29-10.75-6.104-14.352c-0.776-0.58-0.623-1.396-0.623-2.172
	c-0.006-8.542,0.317-17.101-0.14-25.615c-0.231-4.32,0.832-7.33,4.377-9.66c1.479-0.974,2.968-2.227,2.149-4.351
	c-0.793-2.067-2.688-1.737-4.383-1.737c-35.778,0-71.557,0.018-107.334-0.031c-3.3-0.004-5.96,0.979-8.428,3.212
	C81.651,66.638,61.201,85.02,40.77,103.423c-0.271,0.246-0.551,0.481-0.813,0.738c-1.068,1.048-2.152,2.145-1.489,3.808
	c0.721,1.802,2.251,2.492,4.097,2.486c7.629-0.021,15.26-0.084,22.889-0.107c5.311-0.018,10.623,0.031,15.935-0.031
	c1.181-0.012,1.521,0.332,1.624,1.512c1.617,18.245,16.504,33.663,34.662,36.069c3.648,0.482,7.295,0.359,11.128,0.313
	c-2.484,7.498-0.694,14.162,3.615,20.473c-6.39,0.805-12.581,1.377-18.679,2.611c-12.224,2.475-23.494,6.912-32.464,15.944
	c-6.761,6.81-10.683,15.003-10.626,24.669c0.061,10.576,4.672,19.141,12.809,25.785c7.311,5.969,15.901,9.239,25.084,10.715
	c15.063,2.42,30.061,1.942,44.67-2.822c13.113-4.279,24.219-11.502,31.48-23.586c9.275-15.438,8.348-35.068-6.01-49.068
	c-5.387-5.252-11.225-9.943-17.066-14.646c-1.621-1.304-3.143-2.695-4.371-4.396c-2.041-2.83-2.172-5.701-0.369-8.698
	c1.824-3.035,4.449-5.314,7.084-7.58c3.658-3.145,7.275-6.326,10.235-10.172c9.339-12.128,10.45-25.455,5.665-39.584
	c-0.464-1.371-0.35-2.083,0.795-3.029c5.395-4.461,10.688-9.041,16.317-13.833c0,3.409,0,6.53,0,9.653
	c0,0.855-0.069,1.717,0.013,2.563c0.309,3.149-0.388,5.673-3.072,7.857c-2.849,2.318-3.529,5.938-3.559,9.475
	c-0.09,10.309-0.061,20.618-0.021,30.93c0.017,3.896-0.289,7.81,0.303,11.688c1.248,8.17,7.935,13.725,16.252,13.549
	c8.029-0.17,14.429-6.039,15.355-14.121c0.152-1.33,0.242-2.67,0.244-4.008C222.507,126.682,222.46,114.785,222.517,102.889z
	 M160.333,193.167c4.696,4.346,8.16,9.422,8.709,15.965c0.78,9.334-4.229,17.371-13.17,21.068
	c-14.607,6.036-29.075,5.485-43.339-1.271c-4.351-2.061-8.306-4.627-11.174-8.586c-8.037-11.096-4.377-25.999,8.136-32.865
	c9.515-5.223,19.981-6.227,30.185-6.708c2.151,0.324,4.019-0.532,5.712,0.677C150.548,185.13,155.675,188.853,160.333,193.167z
	 M155.515,118.652c-1.379,11.959-12.48,19.73-23.97,16.744c-5.67-1.475-9.719-5.162-12.953-9.849
	c-7.625-11.054-10.549-23.248-8.865-36.57c1.205-9.523,8.563-16.375,18.18-16.913c6.635-0.37,11.57,2.768,15.713,7.506
	c8.412,9.619,11.705,21.127,12.291,33.604C155.994,115.026,155.725,116.837,155.515,118.652z"/>
</svg>
