<?xml version="1.0" encoding="utf-8"?>
<!-- Generator: Adobe Illustrator 27.3.1, SVG Export Plug-In . SVG Version: 6.00 Build 0)  -->
<svg version="1.1" id="Calque_1" xmlns="http://www.w3.org/2000/svg" xmlns:xlink="http://www.w3.org/1999/xlink" x="0px" y="0px"
	 viewBox="0 0 384 256" style="enable-background:new 0 0 384 256;" xml:space="preserve">
<style type="text/css">
	.st0{fill:#F89939;}
	.st1{fill:#3499CD;}
	.st2{fill:#010101;}
	.st3{fill:#FFFFFF;}
	.st4{font-family:'ArialMT';}
	.st5{font-size:31.9443px;}
</style>
<g id="g3" transform="translate(-120.60861,-220.26017)">
	<path id="path5" class="st0" d="M415.1,420.7c46.9-46.9,54.7-115.2,17.4-152.3c-37.3-37.3-105.4-29.5-152.3,17.4
		c-46.9,46.9-33.3,136.4-17.4,152.3C275.5,451,368.2,467.6,415.1,420.7L415.1,420.7z"/>
	<path id="path7" class="st1" d="M222.7,353c-27.1-27.1-66.7-31.8-88.5-10c-21.6,21.6-17.1,61.2,10,88.5
		c27.1,27.1,79.2,19.3,88.5,10C240.3,434,249.9,380.2,222.7,353z"/>
</g>
<g id="g9" transform="translate(-120.60861,-220.26017)">
	<g id="g11">
		<path id="path13" class="st2" d="M316.6,409.3c-4.8,4.3-9,7.6-12.6,9.7c-3.6,2.1-7,3.1-10.3,3.1c-3.7,0-6.9-1.5-9.1-4.3
			c-2.2-3-3.4-6.9-3.4-11.8c0-7.3,1.6-16.3,4.8-26.7c3.1-10.3,7-19.9,11.7-28.8l13.5-4.9c0.4-0.1,0.7-0.1,0.9-0.1
			c1,0,1.8,0.7,2.5,2.2c0.6,1.5,1,3.6,1,6.1c0,7.2-1.6,14.2-4.9,21c-3.3,6.7-8.5,13.9-15.6,21.6c-0.3,3.7-0.4,6.1-0.4,7.6
			c0,3.1,0.6,5.5,1.6,7.3c1.2,1.8,2.7,2.7,4.5,2.7c1.9,0,3.9-0.7,6.1-2.1c2.1-1.3,5.4-4.2,9.9-8.5L316.6,409.3L316.6,409.3z
			 M296.2,388.6c4.5-4.9,8.1-10.6,10.9-16.8c2.8-6.1,4.2-11.5,4.2-16c0-1.3-0.1-2.4-0.6-3.1c-0.4-0.7-0.9-1.2-1.5-1.2
			c-1.3,0-3.1,3.3-5.7,9.7C301.1,367.7,298.6,376.7,296.2,388.6L296.2,388.6z"/>
		<path id="path15" class="st2" d="M356.2,409.3c-4.5,4.3-8.5,7.6-12.1,9.7c-3.6,2.1-7.5,3.1-11.8,3.1c-4.8,0-8.7-1.5-11.7-4.6
			c-3-3.1-4.3-7.2-4.3-12.1c0-7.5,2.5-14.2,7.8-20.4c5.2-6,10.9-9.1,17.2-9.1c3.3,0,5.8,0.9,7.9,2.5c1.9,1.6,3,3.9,3,6.7
			c0,7.3-7.8,13.2-23.4,17.8c1.3,6.9,5.1,10.3,11.1,10.3c2.4,0,4.5-0.6,6.7-1.9c2.1-1.2,5.2-4,9.6-8.4L356.2,409.3L356.2,409.3z
			 M328.4,399.4c9-2.5,13.6-7.2,13.6-14.1c0-3.4-1.2-5.1-3.7-5.1c-2.4,0-4.5,1.8-6.7,5.4C329.5,389.2,328.4,393.7,328.4,399.4
			L328.4,399.4z"/>
		<path id="path17" class="st2" d="M412.8,409.3c-5.7,5.4-9.7,8.8-12.1,10.5c-2.4,1.6-4.8,2.4-7,2.4c-5.5,0-8.2-4.9-7.9-14.8
			c-3.6,5.1-6.7,8.8-9.7,11.2c-3,2.4-6,3.6-9.3,3.6c-3.1,0-5.7-1.5-7.9-4.3s-3.3-6.4-3.3-10.8c0-5.2,1.5-10.3,4.3-15.1
			s6.6-8.7,11.2-11.7c4.5-3,8.5-4.5,12.1-4.5c4.3,0,7.5,2.1,9.3,6.1l10.8-6h3l-4.6,15.6c-2.4,7.8-3.6,13.2-3.6,16c0,3,1,4.5,3.3,4.5
			c1.3,0,2.8-0.7,4.5-2.2c1.6-1.5,4-3.7,7-6.7L412.8,409.3L412.8,409.3z M374,412.1c3.6,0,6.9-3,10-9s4.6-11.5,4.6-16.6
			c0-1.9-0.4-3.6-1.3-4.6c-0.9-1-2.1-1.6-3.6-1.6c-3.6,0-6.9,3-10,9s-4.8,11.5-4.8,16.6c0,1.9,0.4,3.4,1.3,4.6
			C371.3,411.5,372.5,412.1,374,412.1L374,412.1z"/>
		<path id="path19" class="st2" d="M452.4,409.3c-8.8,8.7-15.7,13-20.5,13c-2.1,0-4-0.9-5.4-2.7c-1.5-1.8-2.2-4-2.2-6.7
			c0-4.9,2.7-11.7,7.9-20.1c-2.5,1.3-5.5,2.2-8.5,2.8c-2.2,4.2-5.8,8.8-10.8,13.6h-1.2v-4.8c2.7-2.8,5.2-6,7.5-9.3
			c-3-1.3-4.5-3.3-4.5-6c0-2.7,0.9-5.7,2.8-8.7c1.8-3.1,4.3-4.6,7.6-4.6c2.7,0,4.2,1.3,4.2,4.2c0,2.2-0.7,5.4-2.4,9.6
			c5.8-0.6,10.9-5.1,15.4-13.5l4.8-0.1l-4.9,13.6c-2.1,5.7-3.4,9.6-4,11.7c-0.6,2.1-0.9,3.9-0.9,5.5c0,1.5,0.3,2.7,1,3.6
			c0.7,0.9,1.6,1.3,2.8,1.3c1.2,0,2.5-0.4,3.6-1.3c1.2-0.9,3.7-3.3,7.8-7.2L452.4,409.3L452.4,409.3z"/>
		<path id="path21" class="st2" d="M504.5,409.3c-8.1,8.7-15.1,12.9-21,12.9c-2.4,0-4.3-0.9-5.7-2.5c-1.5-1.6-2.2-3.9-2.2-6.7
			c0-3.7,1.5-9.6,4.6-17.4c1.6-4.2,2.5-6.9,2.5-7.9c0-1.2-0.4-1.6-1.3-1.6c-0.4,0-1.2,0.3-1.9,0.7c-0.7,0.4-1.6,1.2-2.5,2.1
			c-0.9,0.7-1.8,1.8-3,3c-0.9,1-1.9,2.1-3,3.4l-3,3.4c-1.3,1.6-2.1,3.3-2.4,5.1c-0.6,3-0.9,5.7-1,8.2c-0.1,1.8-0.1,4.3-0.1,7.6
			l-11.7,2.7c-0.4-4.8-0.6-8.4-0.6-10.6c0-5.7,0.6-11.1,1.9-16.2s3.4-10.8,6.4-17.2l12.9-2.5c-2.7,7.3-4.5,13-5.4,17.2
			c5.8-6.4,10.3-10.9,13.8-13.5c3.4-2.5,6.4-3.7,9.1-3.7c1.8,0,3.3,0.7,4.5,2.1c1.2,1.3,1.8,3,1.8,5.1c0,3.4-1.5,9-4.5,16.8
			c-2.1,5.4-3.1,8.8-3.1,10.3c0,2.1,0.9,3.1,2.5,3.1c2.5,0,6.7-3.4,12.6-10.2v6.3H504.5z"/>
	</g>
</g>
<text id="text25" transform="matrix(1 0 0 1 212.2539 137.9971)" class="st3 st4 st5">scikit</text>
</svg>
