<?xml version="1.0" encoding="utf-8"?>
<!-- Generator: Adobe Illustrator 27.5.0, SVG Export Plug-In . SVG Version: 6.00 Build 0)  -->
<svg version="1.1" id="Calque_1" xmlns="http://www.w3.org/2000/svg" xmlns:xlink="http://www.w3.org/1999/xlink" x="0px" y="0px"
	 viewBox="0 0 256 256" style="enable-background:new 0 0 256 256;" xml:space="preserve">
<style type="text/css">
	.st0{fill:#F89939;}
	.st1{fill:#3499CD;}
	.st2{fill:#010101;}
	.st3{fill:#FFFFFF;}
	.st4{font-family:'ArialMT';}
	.st5{font-size:21.3052px;}
</style>
<g id="g3" transform="translate(-120.60861,-220.26017)">
	<path id="path5" class="st0" d="M317,396.5c31.3-31.3,36.5-76.8,11.6-101.6c-24.9-24.9-70.3-19.7-101.6,11.6
		c-31.3,31.3-22.2,91-11.6,101.6C223.9,416.7,285.7,427.8,317,396.5L317,396.5z"/>
	<path id="path7" class="st1" d="M188.7,351.4c-18.1-18.1-44.5-21.2-59-6.7c-14.4,14.4-11.4,40.8,6.7,59c18.1,18.1,52.8,12.9,59,6.7
		C200.4,405.4,206.8,369.5,188.7,351.4z"/>
</g>
<g id="g9" transform="translate(-120.60861,-220.26017)">
	<g id="g11">
		<path id="path13" class="st2" d="M251.3,388.9c-3.2,2.9-6,5.1-8.4,6.5c-2.4,1.4-4.7,2.1-6.9,2.1c-2.5,0-4.6-1-6.1-2.9
			c-1.5-2-2.3-4.6-2.3-7.9c0-4.9,1.1-10.9,3.2-17.8c2.1-6.9,4.7-13.3,7.8-19.2l9-3.3c0.3-0.1,0.5-0.1,0.6-0.1c0.7,0,1.2,0.5,1.7,1.5
			c0.4,1,0.7,2.4,0.7,4.1c0,4.8-1.1,9.5-3.3,14c-2.2,4.5-5.7,9.3-10.4,14.4c-0.2,2.5-0.3,4.1-0.3,5.1c0,2.1,0.4,3.7,1.1,4.9
			c0.8,1.2,1.8,1.8,3,1.8c1.3,0,2.6-0.5,4.1-1.4c1.4-0.9,3.6-2.8,6.6-5.7L251.3,388.9L251.3,388.9z M237.7,375.1
			c3-3.3,5.4-7.1,7.3-11.2c1.9-4.1,2.8-7.7,2.8-10.7c0-0.9-0.1-1.6-0.4-2.1c-0.3-0.5-0.6-0.8-1-0.8c-0.9,0-2.1,2.2-3.8,6.5
			C241,361.2,239.3,367.2,237.7,375.1L237.7,375.1z"/>
		<path id="path15" class="st2" d="M277.7,388.9c-3,2.9-5.7,5.1-8.1,6.5c-2.4,1.4-5,2.1-7.9,2.1c-3.2,0-5.8-1-7.8-3.1
			c-2-2.1-2.9-4.8-2.9-8.1c0-5,1.7-9.5,5.2-13.6c3.5-4,7.3-6.1,11.5-6.1c2.2,0,3.9,0.6,5.3,1.7c1.3,1.1,2,2.6,2,4.5
			c0,4.9-5.2,8.8-15.6,11.9c0.9,4.6,3.4,6.9,7.4,6.9c1.6,0,3-0.4,4.5-1.3c1.4-0.8,3.5-2.7,6.4-5.6L277.7,388.9L277.7,388.9z
			 M259.2,382.3c6-1.7,9.1-4.8,9.1-9.4c0-2.3-0.8-3.4-2.5-3.4c-1.6,0-3,1.2-4.5,3.6C259.9,375.5,259.2,378.5,259.2,382.3
			L259.2,382.3z"/>
		<path id="path17" class="st2" d="M315.5,388.9c-3.8,3.6-6.5,5.9-8.1,7c-1.6,1.1-3.2,1.6-4.7,1.6c-3.7,0-5.5-3.3-5.3-9.9
			c-2.4,3.4-4.5,5.9-6.5,7.5c-2,1.6-4,2.4-6.2,2.4c-2.1,0-3.8-1-5.3-2.9c-1.5-1.9-2.2-4.3-2.2-7.2c0-3.5,1-6.9,2.9-10.1
			c1.9-3.2,4.4-5.8,7.5-7.8c3-2,5.7-3,8.1-3c2.9,0,5,1.4,6.2,4.1l7.2-4h2L308,377c-1.6,5.2-2.4,8.8-2.4,10.7c0,2,0.7,3,2.2,3
			c0.9,0,1.9-0.5,3-1.5c1.1-1,2.7-2.5,4.7-4.5L315.5,388.9L315.5,388.9z M289.6,390.8c2.4,0,4.6-2,6.7-6c2.1-4,3.1-7.7,3.1-11.1
			c0-1.3-0.3-2.4-0.9-3.1c-0.6-0.7-1.4-1.1-2.4-1.1c-2.4,0-4.6,2-6.7,6c-2.1,4-3.2,7.7-3.2,11.1c0,1.3,0.3,2.3,0.9,3.1
			C287.8,390.4,288.6,390.8,289.6,390.8L289.6,390.8z"/>
		<path id="path19" class="st2" d="M341.9,388.9c-5.9,5.8-10.5,8.7-13.7,8.7c-1.4,0-2.7-0.6-3.6-1.8c-1-1.2-1.5-2.7-1.5-4.5
			c0-3.3,1.8-7.8,5.3-13.4c-1.7,0.9-3.7,1.5-5.7,1.9c-1.5,2.8-3.9,5.9-7.2,9.1h-0.8v-3.2c1.8-1.9,3.5-4,5-6.2c-2-0.9-3-2.2-3-4
			c0-1.8,0.6-3.8,1.9-5.8c1.2-2.1,2.9-3.1,5.1-3.1c1.8,0,2.8,0.9,2.8,2.8c0,1.5-0.5,3.6-1.6,6.4c3.9-0.4,7.3-3.4,10.3-9l3.2-0.1
			l-3.3,9.1c-1.4,3.8-2.3,6.4-2.7,7.8c-0.4,1.4-0.6,2.6-0.6,3.7c0,1,0.2,1.8,0.7,2.4c0.5,0.6,1.1,0.9,1.9,0.9c0.8,0,1.7-0.3,2.4-0.9
			c0.8-0.6,2.5-2.2,5.2-4.8L341.9,388.9L341.9,388.9z"/>
		<path id="path21" class="st2" d="M376.6,388.9c-5.4,5.8-10.1,8.6-14,8.6c-1.6,0-2.9-0.6-3.8-1.7c-1-1.1-1.5-2.6-1.5-4.5
			c0-2.5,1-6.4,3.1-11.6c1.1-2.8,1.7-4.6,1.7-5.3c0-0.8-0.3-1.1-0.9-1.1c-0.3,0-0.8,0.2-1.3,0.5c-0.5,0.3-1.1,0.8-1.7,1.4
			c-0.6,0.5-1.2,1.2-2,2c-0.6,0.7-1.3,1.4-2,2.3l-2,2.3c-0.9,1.1-1.4,2.2-1.6,3.4c-0.4,2-0.6,3.8-0.7,5.5c-0.1,1.2-0.1,2.9-0.1,5.1
			l-7.8,1.8c-0.3-3.2-0.4-5.6-0.4-7.1c0-3.8,0.4-7.4,1.3-10.8c0.9-3.4,2.3-7.2,4.3-11.5l8.6-1.7c-1.8,4.9-3,8.7-3.6,11.5
			c3.9-4.3,6.9-7.3,9.2-9c2.3-1.7,4.3-2.5,6.1-2.5c1.2,0,2.2,0.5,3,1.4c0.8,0.9,1.2,2,1.2,3.4c0,2.3-1,6-3,11.2
			c-1.4,3.6-2.1,5.9-2.1,6.9c0,1.4,0.6,2.1,1.7,2.1c1.7,0,4.5-2.3,8.4-6.8V388.9z"/>
	</g>
</g>
<text id="text25" transform="matrix(1 0 0 1 141.5462 134.6157)" class="st3 st4 st5">scikit</text>
</svg>
