<?xml version="1.0" encoding="utf-8"?>
<!-- Generator: Adobe Illustrator 27.3.1, SVG Export Plug-In . SVG Version: 6.00 Build 0)  -->
<svg version="1.1" id="Calque_1" xmlns="http://www.w3.org/2000/svg" xmlns:xlink="http://www.w3.org/1999/xlink" x="0px" y="0px"
	 viewBox="0 0 256 256" style="enable-background:new 0 0 256 256;" xml:space="preserve">
<style type="text/css">
	.st0{fill:#8C1812;}
	.st1{fill:#313131;}
</style>
<path id="path86" class="st0" d="M234.4,11.5c-7.7-6.2-17.3-9.7-27.1-9.7H43.1c-7,0-13.9,1.7-20.1,5c-7.3,3.9-13.3,9.7-17.4,16.9
	c-0.8,1.4-1.5,2.8-2.1,4.3c-0.4,1-0.8,1.9-1.1,2.9c-0.7,2-1.2,4-1.6,6C0.3,39.6,0,42.3,0,45v164.1c0,6.5,1.4,12.9,4.3,18.7
	c7.2,14.9,22.3,24.4,38.9,24.4h87.5c1.3,0,2.3-1,2.3-2.3c0,0,0,0,0,0v-10.4c0-1.3-1-2.3-2.3-2.3h-11.4l-33.9-68.8l77.5-102.6
	c0.7-0.9,1.2-1.9,1.4-3l70.9,10.8v16c0,1.3,1.1,2.3,2.3,2.3h10.5c1.3,0,2.3-1.1,2.3-2.3V44.9C250.4,31.9,244.5,19.6,234.4,11.5z
	 M145,17l3.7,29.2l-57.3-8.8L88.8,17H145z M43.1,17h31.5l2.3,18.2l-41.8-6.3l-13.2-2C27.2,20.6,34.9,17,43.1,17z M75,49.1L45.8,88
	l-23-47L75,49.1z M15.2,57.4l18.7,38l-18.7,2.3V57.4z M15.2,111.9l25.2-3.2l26.2,53l-51.4,6.5L15.2,111.9z M103.8,237.1H45.5
	c-16.8,0-30.3-13.7-30.3-30.5c0,0,0,0,0-0.1V182l57.9-7.3L103.8,237.1z M78.5,154.4L52.6,102l38-50.3l0,0l58.6,9L78.5,154.4z
	 M235.2,59.5L163,48.3l-3.9-31.4h45.8c16.7,0.1,30.3,13.6,30.3,30.4V59.5z"/>
<path id="path88" class="st1" d="M246.9,111.9c2.1,0.1,3.7,1.9,3.6,4c0,0,0,0.1,0,0.1v11.2c0.3,1.9-1.1,3.6-2.9,3.9
	c-0.3,0-0.6,0-0.9,0h-48.3c-12,0-19,4.2-19,13.5v3.4c0,7.3,3.4,13.5,16.1,18.2l34.5,13.8C254,189,256,202.3,256,216.5v2.9
	c0,29.1-17.4,34.8-52.4,34.8c-22.6,0-43.1-1.8-47.5-2.3c-3.1-0.3-3.9-1.8-3.9-3.9v-11.4c-0.3-1.9,1.1-3.6,2.9-3.9c0.3,0,0.6,0,0.9,0
	h48c20.8,0,27.2-2.3,27.2-13.5V216c0-7.5-3.1-12.5-15-17.4l-36.9-14c-20-7.8-24.9-22.8-24.9-37.1V142c0-28.5,24.9-32.4,52.7-32.4
	C220.5,109.6,233.8,110.3,246.9,111.9z"/>
</svg>
