<?xml version="1.0" encoding="utf-8"?>
<!-- Generator: Adobe Illustrator 27.5.0, SVG Export Plug-In . SVG Version: 6.00 Build 0)  -->
<svg version="1.1" id="Calque_1" xmlns="http://www.w3.org/2000/svg" xmlns:xlink="http://www.w3.org/1999/xlink" x="0px" y="0px"
	 viewBox="0 0 256 256" style="enable-background:new 0 0 256 256;" xml:space="preserve">
<style type="text/css">
	.st0{fill:#E55B2D;}
	.st1{fill:#ED8E24;}
	.st2{fill:#F8BF3C;}
</style>
<g id="layer1" transform="translate(-77.942529,-177.00005)">
	<g id="g4550">
		<path id="path4508" class="st0" d="M223,216.4v39.4l68.2,39.4v-39.4L223,216.4z M86.6,255.8v39.4l34.1,19.7v-39.4L86.6,255.8z
			 M188.9,275.5l-34.1,19.7v118.2l34.1,19.7v-78.8l34.1,19.7v-39.4l-34.1-19.7V275.5z"/>
		<path id="path4491" class="st1" d="M223,216.4l-102.3,59.1v39.4l68.2-39.4v39.4l34.1-19.7V216.4z M325.3,236.1l-34.1,19.7v39.4
			l34.1-19.7V236.1z M257.1,314.8L223,334.5v39.4l34.1-19.7V314.8z M223,373.9l-34.1-19.7V433l34.1-19.7V373.9z"/>
		<path id="path4506" class="st2" d="M223,177L86.6,255.8l34.1,19.7L223,216.4l68.2,39.4l34.1-19.7L223,177z M223,295.2l-34.1,19.7
			l34.1,19.7l34.1-19.7L223,295.2z"/>
	</g>
</g>
</svg>
