<?xml version="1.0" encoding="utf-8"?>
<!-- Generator: Adobe Illustrator 27.5.0, SVG Export Plug-In . SVG Version: 6.00 Build 0)  -->
<svg version="1.1" id="Calque_1" xmlns="http://www.w3.org/2000/svg" xmlns:xlink="http://www.w3.org/1999/xlink" x="0px" y="0px"
	 viewBox="0 0 256 256" style="enable-background:new 0 0 256 256;" xml:space="preserve">
<style type="text/css">
	.st0{clip-path:url(#SVGID_00000122687804543320089410000016044441022582081184_);}
	.st1{fill:url(#SVGID_00000153665517523087158440000000293300002890285718_);}
	.st2{clip-path:url(#SVGID_00000034060630431923673400000007923911904616965025_);}
	.st3{fill:url(#SVGID_00000155838269089569053680000000899964672047085494_);}
	.st4{fill:#425066;}
</style>
<g>
	<defs>
		<polygon id="SVGID_1_" points="160.9,77.5 128.9,59.2 128.9,134.2 141.7,126.8 141.7,105.7 151.3,111.3 151.3,96.8 141.7,91.3 
			141.7,82.9 161,94.1 		"/>
	</defs>
	<clipPath id="SVGID_00000045597144219320662940000012419548048854286485_">
		<use xlink:href="#SVGID_1_"  style="overflow:visible;"/>
	</clipPath>
	<g style="clip-path:url(#SVGID_00000045597144219320662940000012419548048854286485_);">
		
			<linearGradient id="SVGID_00000071551454859492746830000003517736228886376887_" gradientUnits="userSpaceOnUse" x1="90.9669" y1="159.3909" x2="169.693" y2="159.3909" gradientTransform="matrix(1 0 0 -1 0 256)">
			<stop  offset="0" style="stop-color:#FF6F00"/>
			<stop  offset="1" style="stop-color:#FFA800"/>
		</linearGradient>
		
			<rect x="91" y="58.9" style="fill:url(#SVGID_00000071551454859492746830000003517736228886376887_);" width="78.7" height="75.4"/>
	</g>
</g>
<g>
	<defs>
		<polygon id="SVGID_00000036251097859726131470000004623804629963484319_" points="93.9,77.5 126,59.2 126,134.2 113.2,126.8 
			113.2,82.9 93.9,94.1 		"/>
	</defs>
	<clipPath id="SVGID_00000086682760916292223080000013115179419268886919_">
		<use xlink:href="#SVGID_00000036251097859726131470000004623804629963484319_"  style="overflow:visible;"/>
	</clipPath>
	<g style="clip-path:url(#SVGID_00000086682760916292223080000013115179419268886919_);">
		
			<linearGradient id="SVGID_00000099647270486372919120000004551994741840788905_" gradientUnits="userSpaceOnUse" x1="90.4353" y1="159.3909" x2="169.1614" y2="159.3909" gradientTransform="matrix(1 0 0 -1 0 256)">
			<stop  offset="0" style="stop-color:#FF6F00"/>
			<stop  offset="1" style="stop-color:#FFA800"/>
		</linearGradient>
		
			<rect x="90.4" y="58.9" style="fill:url(#SVGID_00000099647270486372919120000004551994741840788905_);" width="78.7" height="75.4"/>
	</g>
</g>
<path class="st4" d="M29.4,164.4H17.8v31.9h-6.4v-31.9H0v-5.2h29.4V164.4z"/>
<path class="st4" d="M37.1,196.8c-3.9,0-7.1-1.2-9.5-3.7c-2.4-2.5-3.7-5.8-3.7-9.9v-0.8c0-2.5,0.5-5.1,1.6-7.4
	c1-2.1,2.5-3.8,4.5-5.1c1.9-1.2,4.1-1.8,6.4-1.8c3.8,0,6.7,1.2,8.7,3.6c2,2.4,3.1,5.8,3.1,10.2v2.5h-18c0.2,2.3,1,4.1,2.3,5.4
	c1.3,1.3,3.2,2,5,2c2.7,0.1,5.3-1.2,6.9-3.4l3.3,3.2c-1.1,1.6-2.6,3-4.4,3.8C41.4,196.4,39.3,196.9,37.1,196.8z M36.4,173.2
	c-1.6-0.1-3.1,0.6-4.1,1.8c-1,1.2-1.7,2.8-2,5h11.8v-0.4c-0.1-2.1-0.7-3.6-1.7-4.7C39.4,173.7,37.9,173.1,36.4,173.2L36.4,173.2z"/>
<path class="st4" d="M58.7,168.8l0.2,3.2c2-2.4,4.9-3.8,8-3.7c5.7,0,8.7,3.3,8.8,9.9v18.2h-6.2v-17.9c0-1.8-0.4-3-1.1-3.9
	c-0.8-0.8-2-1.3-3.7-1.3c-2.5,0-4.4,1.1-5.6,3.4v19.6h-6.2v-27.6H58.7z"/>
<path class="st4" d="M95.8,188.8c0-1-0.5-2-1.4-2.5c-0.9-0.6-2.4-1.1-4.5-1.5c-1.8-0.3-3.6-0.9-5.3-1.7c-3.1-1.5-4.6-3.7-4.6-6.5
	c0-2.4,1.1-4.6,3-6c2-1.6,4.6-2.4,7.6-2.4c3.3,0,6,0.8,8,2.4c2,1.5,3.1,3.9,3.1,6.3h-6.2c0-1.1-0.5-2.2-1.3-3
	c-1-0.8-2.2-1.2-3.5-1.2c-1.2-0.1-2.3,0.3-3.3,0.9c-0.8,0.6-1.3,1.5-1.3,2.5c0,0.9,0.4,1.7,1.2,2.2c0.8,0.5,2.4,1.1,4.8,1.6
	c2,0.4,3.9,1,5.7,1.9c1.2,0.6,2.3,1.5,3.1,2.7c0.7,1.1,1,2.4,1,3.8c0,2.4-1.1,4.7-3.1,6c-2.1,1.5-4.7,2.3-8.1,2.3
	c-2.1,0-4.1-0.4-6-1.2c-1.7-0.7-3.1-1.9-4.1-3.4c-1-1.3-1.5-3-1.5-4.6h6c0,1.3,0.6,2.6,1.7,3.4c1.2,0.8,2.6,1.3,4.1,1.2
	c1.6,0,2.9-0.3,3.7-0.9C95.3,190.7,95.8,189.8,95.8,188.8z"/>
<path class="st4" d="M105.1,182.3c0-2.5,0.5-5,1.6-7.3c1-2.1,2.6-3.8,4.5-5c2-1.2,4.3-1.8,6.7-1.7c3.7,0,6.7,1.2,9.1,3.6
	c2.3,2.4,3.6,5.6,3.8,9.5l0,1.5c0,2.5-0.5,5-1.6,7.3c-1,2.1-2.5,3.8-4.5,5c-2,1.2-4.4,1.8-6.7,1.8c-3.9,0-7-1.3-9.3-3.9
	c-2.3-2.6-3.5-6-3.5-10.4L105.1,182.3z M111.2,182.8c0,2.8,0.6,5.1,1.8,6.7c1.1,1.6,3,2.5,4.9,2.4c1.9,0.1,3.8-0.8,4.9-2.4
	c1.2-1.6,1.7-4,1.7-7.2c0-2.8-0.6-5-1.8-6.6c-2-2.7-5.8-3.2-8.5-1.3c-0.5,0.3-0.9,0.8-1.2,1.2C111.8,177.2,111.2,179.6,111.2,182.8z
	"/>
<path class="st4" d="M149.3,174.4c-0.8-0.1-1.7-0.2-2.5-0.2c-2.8,0-4.8,1.1-5.7,3.3v18.9h-6.2v-27.6h5.9l0.2,3.1
	c1.5-2.4,3.6-3.6,6.2-3.6c0.7,0,1.5,0.1,2.2,0.4L149.3,174.4z"/>
<path class="st4" d="M175.2,180.6h-14.9v15.7h-6.5v-37.1h23.6v5.2h-17.1v11h14.9V180.6z"/>
<path class="st4" d="M187.5,196.3h-6.2v-37.2h6.2V196.3z"/>
<path class="st4" d="M192,182.3c0-2.5,0.5-5,1.6-7.3c1-2.1,2.6-3.8,4.5-5c2-1.2,4.3-1.8,6.7-1.7c3.7,0,6.7,1.2,9.1,3.6
	c2.3,2.4,3.6,5.6,3.8,9.5v1.5c0.1,2.5-0.5,5-1.5,7.3c-1,2.1-2.5,3.8-4.5,5c-2,1.2-4.4,1.8-6.7,1.8c-3.9,0-7-1.3-9.3-3.9
	s-3.5-6-3.5-10.4L192,182.3z M198.2,182.8c0,2.8,0.6,5.1,1.8,6.7c2.1,2.7,5.9,3.2,8.6,1.2c0.4-0.3,0.8-0.7,1.2-1.2
	c1.2-1.6,1.7-4,1.7-7.2c0-2.8-0.6-5-1.8-6.6c-1.1-1.6-2.9-2.5-4.9-2.4c-1.9-0.1-3.7,0.8-4.8,2.4
	C198.8,177.2,198.2,179.6,198.2,182.8z"/>
<path class="st4" d="M245.6,187.8l4.4-19h6l-7.5,27.6h-5.1l-5.9-18.9l-5.8,18.9h-5.1l-7.5-27.6h6l4.5,18.8l5.7-18.8h4.7L245.6,187.8
	z"/>
</svg>
