<?xml version="1.0" encoding="utf-8"?>
<!-- Generator: Adobe Illustrator 16.0.0, SVG Export Plug-In . SVG Version: 6.00 Build 0)  -->
<!DOCTYPE svg PUBLIC "-//W3C//DTD SVG 1.1//EN" "http://www.w3.org/Graphics/SVG/1.1/DTD/svg11.dtd">
<svg version="1.1" id="Calque_1" xmlns="http://www.w3.org/2000/svg" xmlns:xlink="http://www.w3.org/1999/xlink" x="0px" y="0px"
	 width="283.46px" height="283.46px" viewBox="0 0 283.46 283.46" enable-background="new 0 0 283.46 283.46" xml:space="preserve">
<path fill-rule="evenodd" clip-rule="evenodd" fill="#231F20" d="M141.733,283.465C63.457,283.465,0,220.008,0,141.732
	S63.457,0,141.733,0c78.276,0,141.731,63.456,141.731,141.732S220.009,283.465,141.733,283.465"/>
<path fill-rule="evenodd" clip-rule="evenodd" fill="#FFFFFF" d="M238.21,63.249c-8.065,4.589-16.221,7.705-24.862,9.63
	c-1.34,0.302-2.16,0-3.157-0.903c-12.335-11.171-26.715-14.732-42.631-9.528c-15.987,5.226-25.325,16.602-28.314,32.855
	c-0.861,4.701-0.673,9.461,0.352,14.136c0.292,1.321-0.129,1.347-1.224,1.273c-27.172-1.805-50.979-11.568-71.49-29.084
	c-2.472-2.11-4.812-4.374-7.1-6.678c-2.246-2.26-4.347-4.659-6.51-6.995c-9.17,14.046-8.917,39.559,12.434,54.55
	c-3.55,0.448-11.311-1.097-18.266-4.669c-0.893,6.594,2.315,18.078,8.965,26.031c6.28,7.514,14.237,12.336,24.194,14.638
	c-3.257,1.061-6.307,1.271-9.349,1.459c-3.043,0.188-6.064-0.241-9.292-0.645c2.892,8.441,7.834,15.179,14.939,20.38
	c7.054,5.166,15.053,7.786,24.285,8.169c-18.477,13.717-38.882,19.184-61.499,17.299c3.867,2.602,7.915,4.779,12.092,6.729
	c20.453,9.556,41.976,13.014,64.49,10.867c22.237-2.121,42.427-9.456,60.061-22.998c22.383-17.192,36.447-39.679,43.316-66.593
	c2.611-10.237,3.734-20.653,3.238-31.207c-0.053-1.087,0.509-1.486,1.205-1.992c7.17-5.232,13.33-11.432,18.48-18.591
	c0.328-0.459,0.643-0.928,1.212-1.76c-7.726,3.199-15.341,5.341-23.372,6.194C228.789,80.314,234.817,73.065,238.21,63.249z"/>
</svg>
