<?xml version="1.0" encoding="utf-8"?>
<!-- Generator: Adobe Illustrator 16.0.0, SVG Export Plug-In . SVG Version: 6.00 Build 0)  -->
<!DOCTYPE svg PUBLIC "-//W3C//DTD SVG 1.1//EN" "http://www.w3.org/Graphics/SVG/1.1/DTD/svg11.dtd">
<svg version="1.1" id="Calque_1" xmlns="http://www.w3.org/2000/svg" xmlns:xlink="http://www.w3.org/1999/xlink" x="0px" y="0px"
	 width="16px" height="16px" viewBox="0 0 16 16" enable-background="new 0 0 16 16" xml:space="preserve">
<path fill-rule="evenodd" clip-rule="evenodd" fill="#376496" d="M16,1.732C16,0.676,15.322,0,14.266,0C10.088,0,5.91,0,1.732,0
	C0.676,0,0,0.677,0,1.734c0,4.178,0,8.356,0,12.534C0,15.324,0.677,16,1.734,16c4.178,0,8.356,0,12.534,0
	C15.324,16,16,15.323,16,14.266c0-2.097,0-4.194,0-6.291C16,5.894,16,3.813,16,1.732z M12.738,5.688
	c-0.133,0.104-0.197,0.214-0.197,0.385c0,0.423-0.066,0.841-0.152,1.254c-0.246,1.183-0.725,2.261-1.592,3.114
	c-1.672,1.644-3.68,2.12-5.937,1.588c-0.572-0.135-1.098-0.408-1.608-0.734c1.13,0.074,2.135-0.187,3.048-0.875
	C5.154,10.17,4.613,9.744,4.342,8.885c0.26,0.046,0.512,0.044,0.813-0.024C4.111,8.505,3.576,7.813,3.532,6.735
	C3.779,6.856,4.019,6.96,4.304,6.931C3.5,6.063,3.261,4.764,3.785,4.103c0.352,0.373,0.724,0.723,1.135,1.03
	C5.826,5.808,6.844,6.189,7.966,6.3c0.127,0.013,0.188,0.006,0.165-0.159C7.999,5.179,8.392,4.441,9.273,3.988
	c0.816-0.419,1.896-0.359,2.488,0.329c0.092,0.106,0.184,0.069,0.285,0.045c0.385-0.088,0.736-0.271,1.133-0.424
	c-0.115,0.5-0.445,0.812-0.805,1.151c0.389-0.038,0.711-0.156,1.066-0.271C13.303,5.224,13.025,5.463,12.738,5.688z"/>
</svg>
