<?xml version="1.0" encoding="utf-8"?>
<!-- Generator: Adobe Illustrator 27.3.1, SVG Export Plug-In . SVG Version: 6.00 Build 0)  -->
<svg version="1.1" id="Calque_1" xmlns="http://www.w3.org/2000/svg" xmlns:xlink="http://www.w3.org/1999/xlink" x="0px" y="0px"
	 viewBox="0 0 256 256" style="enable-background:new 0 0 256 256;" xml:space="preserve">
<style type="text/css">
	.st0{fill:#0866AA;}
	.st1{fill:#2178BD;}
	.st2{fill:#4096D2;}
</style>
<path class="st0" d="M246.9,27.7L194.2,2.3c-6.1-2.9-13.4-1.7-18.2,3.1L3.5,162.8c-4.6,4.2-4.6,11.5,0,15.8l14.1,12.8
	c3.8,3.5,9.5,3.7,13.6,0.6L239,34.3c7-5.3,17-0.3,17,8.4v-0.6C256,36,252.5,30.4,246.9,27.7z"/>
<g>
	<path class="st1" d="M246.9,228.3l-52.7,25.4c-6.1,2.9-13.4,1.7-18.2-3.1L3.5,93.2c-4.6-4.2-4.6-11.5,0-15.8l14.1-12.8
		c3.8-3.5,9.5-3.7,13.6-0.6L239,221.7c7,5.3,17,0.3,17-8.4v0.6C256,220,252.5,225.6,246.9,228.3z"/>
</g>
<g>
	<path class="st2" d="M194.2,253.7c-6.1,2.9-13.4,1.7-18.2-3.1c5.9,5.9,16,1.7,16-6.6V12c0-8.3-10.1-12.5-16-6.6
		c4.8-4.8,12.1-6,18.2-3.1l52.7,25.3c5.5,2.7,9.1,8.3,9.1,14.4v171.9c0,6.1-3.5,11.7-9.1,14.4L194.2,253.7z"/>
</g>
</svg>
