<?xml version="1.0" encoding="utf-8"?>
<!-- Generator: Adobe Illustrator 27.3.1, SVG Export Plug-In . SVG Version: 6.00 Build 0)  -->
<svg version="1.1" id="Calque_1" xmlns="http://www.w3.org/2000/svg" xmlns:xlink="http://www.w3.org/1999/xlink" x="0px" y="0px"
	 viewBox="0 0 256 256" style="enable-background:new 0 0 256 256;" xml:space="preserve">
<style type="text/css">
	.st0{fill:#231F20;}
</style>
<g>
	<path class="st0" d="M95.8,128.1c0,6.9,0.6,13.5,1.6,19.7h24.4v-37.1H97C96.2,116.2,95.8,122,95.8,128.1z"/>
	<path class="st0" d="M99.3,99h22.5V63C112.8,67,104,80.3,99.3,99z"/>
	<path class="st0" d="M121.7,193v-33.6H99.9C104.7,176.8,113.2,189.2,121.7,193z"/>
	<path class="st0" d="M84.2,128c0-6,0.4-11.8,1.1-17.4h-22C61.8,116.1,61,122,61,128c0,6.9,1.1,13.5,3,19.7h21.6
		C84.7,141.4,84.2,134.8,84.2,128z"/>
	<path class="st0" d="M68.9,159.4c6.9,12.7,17.9,23,31.2,29c-5.2-7.7-9.4-17.6-12.2-29H68.9z"/>
	<path class="st0" d="M132.5,62.6V99h23.6C151.2,79.6,141.9,65.9,132.5,62.6z"/>
	<path class="st0" d="M155.3,188.3c13.3-5.9,24.3-16.2,31.2-29h-19C164.8,170.7,160.5,180.6,155.3,188.3z"/>
	<path class="st0" d="M159.6,128c0-6.1-0.5-11.9-1.3-17.5h-25.8v37.2H158C159,141.6,159.6,134.9,159.6,128z"/>
	<path class="st0" d="M128,0C57.3,0,0,57.3,0,128s57.3,128,128,128s128-57.3,128-128S198.7,0,128,0z M200.2,157.5v1.9h-0.8
		c-12.1,27.3-39.4,46.4-71.2,46.4h-1c-31.8,0-59.1-19-71.2-46.4h-0.8v-1.9c-3.7-9.1-5.8-19.1-5.8-29.5c0-42.9,34.8-77.8,77.8-77.8h1
		c43,0,77.8,34.9,77.8,77.8C206,138.5,203.9,148.4,200.2,157.5z"/>
	<path class="st0" d="M171.2,128.1c0,6.8-0.5,13.4-1.4,19.7h21.6c2-6.3,3-12.9,3-19.7c0-6-0.8-11.8-2.3-17.4h-22
		C170.8,116.3,171.2,122.1,171.2,128.1z"/>
	<path class="st0" d="M155.3,67.7c5.6,8.2,10.1,19,12.8,31.3h19.6C180.9,85.1,169.4,74,155.3,67.7z"/>
	<path class="st0" d="M100.1,67.7C86,74,74.5,85.1,67.7,99h19.6C90.1,86.7,94.5,76,100.1,67.7z"/>
	<path class="st0" d="M132.6,159.4v34c8.9-3.2,17.9-15.9,22.9-34H132.6z"/>
</g>
</svg>
