<?xml version="1.0" encoding="utf-8"?>
<!-- Generator: Adobe Illustrator 27.3.1, SVG Export Plug-In . SVG Version: 6.00 Build 0)  -->
<svg version="1.1" id="Calque_1" xmlns="http://www.w3.org/2000/svg" xmlns:xlink="http://www.w3.org/1999/xlink" x="0px" y="0px"
	 viewBox="0 0 256 256" style="enable-background:new 0 0 256 256;" xml:space="preserve">
<style type="text/css">
	.st0{fill:#231F20;}
	.st1{fill:#FFFFFF;}
</style>
<g>
	<circle class="st0" cx="128" cy="128" r="128"/>
	<path class="st1" d="M128.2,50.2h-1c-43,0-77.8,34.9-77.8,77.8c0,10.4,2.1,20.4,5.8,29.5v1.9H56c12.1,27.4,39.4,46.4,71.2,46.4h1
		c31.8,0,59.1-19.1,71.2-46.4h0.8v-1.9c3.7-9.1,5.8-19,5.8-29.5C206,85.1,171.2,50.2,128.2,50.2z M187.7,99h-19.6
		c-2.7-12.3-7.2-23.1-12.8-31.3C169.4,74,180.9,85.1,187.7,99z M159.6,128c0,6.9-0.6,13.6-1.6,19.7h-25.5v-37.2h25.8
		C159.1,116.1,159.6,121.9,159.6,128z M156.1,99h-23.6V62.6C141.9,65.9,151.2,79.6,156.1,99z M121.8,63V99H99.3
		C104,80.3,112.8,67,121.8,63z M121.8,110.6v37.2H97.4c-1-6.2-1.6-12.8-1.6-19.7c0-6.1,0.4-11.9,1.2-17.4H121.8z M100.1,67.7
		c-5.6,8.3-10,19-12.8,31.3H67.7C74.5,85.1,86,74,100.1,67.7z M61,128c0-6,0.8-11.9,2.3-17.4h22c-0.7,5.6-1.1,11.4-1.1,17.4
		c0,6.8,0.5,13.4,1.4,19.7H64C62.1,141.5,61,134.9,61,128z M68.9,159.4h19c2.8,11.4,7,21.3,12.2,29
		C86.8,182.4,75.8,172.1,68.9,159.4z M99.9,159.4h21.8V193C113.2,189.2,104.7,176.8,99.9,159.4z M132.6,193.4v-34h22.9
		C150.5,177.5,141.5,190.2,132.6,193.4z M155.3,188.3c5.2-7.7,9.5-17.6,12.2-29h19C179.6,172.1,168.6,182.4,155.3,188.3z
		 M191.4,147.8h-21.6c0.9-6.3,1.4-12.9,1.4-19.7c0-6-0.4-11.8-1.1-17.4h22c1.5,5.6,2.3,11.4,2.3,17.4
		C194.4,134.9,193.4,141.5,191.4,147.8z"/>
</g>
</svg>
