<?xml version="1.0" encoding="utf-8"?>
<!-- Generator: Adobe Illustrator 16.0.0, SVG Export Plug-In . SVG Version: 6.00 Build 0)  -->
<!DOCTYPE svg PUBLIC "-//W3C//DTD SVG 1.1//EN" "http://www.w3.org/Graphics/SVG/1.1/DTD/svg11.dtd">
<svg version="1.1" id="Calque_1" xmlns="http://www.w3.org/2000/svg" xmlns:xlink="http://www.w3.org/1999/xlink" x="0px" y="0px"
	 width="566.93px" height="194.704px" viewBox="0 0 566.93 194.704" enable-background="new 0 0 566.93 194.704"
	 xml:space="preserve">
<g>
	<g>
		<g>
			<g>
				<path fill="#000100" d="M114.774,93.241h-8.227l-5.174-15.154H74.485l-5.088,15.154h-8.222L82.521,30.03h10.998L114.774,93.241z
					 M87.881,35.854L76.607,70.877h22.549L87.881,35.854z"/>
				<path fill="#000100" d="M125.031,39.551V28.09h7.945v11.461H125.031z M125.031,93.241V47.038h7.945v46.203H125.031z"/>
				<path fill="#000100" d="M142.216,93.241l15.159-23.29l-14.881-22.913h8.227l10.998,17.003l10.998-17.003h8.222L166.06,69.951
					l15.245,23.29h-8.318l-11.179-17.189L150.72,93.241H142.216z"/>
			</g>
			<g>
				<path fill="#000100" d="M245.992,41.954l-1.199,51.287h-7.854l2.217-63.211h10.348l18.207,48.888l18.204-48.888h10.348
					l2.222,63.211h-7.859l-1.199-51.287l-16.173,43.064h-10.993L245.992,41.954z"/>
				<path fill="#000100" d="M341.824,93.241h-6.746l-0.463-3.421c-4.07,2.866-9.426,4.343-14.973,4.343
					c-8.595,0-12.197-5.083-12.197-13.305c0-9.612,4.807-13.028,14.142-13.028h12.288V60.62c0-5.824-2.585-7.764-10.071-7.764
					c-4.438,0-8.781,0.463-12.383,1.204l-0.832-6.378c4.343-1.108,8.776-1.663,13.674-1.663c13.219,0,17.562,5.083,17.562,14.973
					V93.241L341.824,93.241z M333.875,74.484h-11.738c-4.897,0-6.746,1.477-6.746,6.187c0,4.715,0.831,6.655,6.564,6.655
					c3.97,0,8.408-1.477,11.92-3.789V74.484z"/>
				<path fill="#000100" d="M375.362,53.32c-4.338,2.126-9.421,5.36-13.21,7.945v31.884h-7.945V46.942h6.928l0.464,6.469
					c3.42-2.675,8.131-5.542,12.751-7.391L375.362,53.32z"/>
				<path fill="#000100" d="M396.249,94.163c-4.715,0-10.997-1.013-14.69-2.494l1.018-6.282c3.975,1.108,9.239,1.94,13.215,1.94
					c7.295,0,8.499-1.295,8.499-6.283c0-4.897-0.368-5.546-9.703-7.763c-11.461-2.867-12.569-5.174-12.569-14.786
					c0-8.504,3.788-12.474,15.99-12.474c4.434,0,9.33,0.554,13.118,1.572l-0.554,6.56c-3.88-0.741-9.054-1.295-12.842-1.295
					c-6.837,0-7.764,1.572-7.764,5.824c0,5.079,0.091,6.096,7.854,7.945c13.305,3.325,14.322,4.896,14.322,14.141
					C412.239,89.82,409.464,94.163,396.249,94.163z"/>
				<path fill="#000100" d="M440.608,87.326c4.528,0,9.612-0.832,14.6-2.217l1.018,6.377c-4.343,1.567-10.534,2.676-16.358,2.676
					c-13.678,0-18.297-6.56-18.297-16.999V63.3c0-9.612,4.343-17.28,18.111-17.28c13.678,0,17.375,7.854,17.375,17.462v9.708H429.52
					v3.879C429.61,84.369,431.641,87.326,440.608,87.326z M429.61,66.535h19.869v-3.789c0-6.468-2.221-10.071-9.703-10.071
					c-7.486,0-10.166,3.603-10.166,10.071V66.535z"/>
				<path fill="#000100" d="M467.591,39.551V28.09h7.945v11.461H467.591z M467.591,93.241V47.038h7.945v46.203H467.591z"/>
				<path fill="#000100" d="M490.69,93.241V28.09l7.949-1.108v66.259H490.69z"/>
				<path fill="#000100" d="M513.885,93.241V28.09l7.95-1.108v66.259H513.885z"/>
				<path fill="#000100" d="M550.48,87.326c4.529,0,9.612-0.832,14.6-2.217l1.018,6.377c-4.343,1.567-10.534,2.676-16.357,2.676
					c-13.674,0-18.293-6.56-18.293-16.999V63.3c0-9.612,4.342-17.28,18.111-17.28c13.678,0,17.37,7.854,17.37,17.462v9.708h-27.441
					v3.879C539.487,84.369,541.427,87.326,550.48,87.326z M539.487,66.535h19.864v-3.789c0-6.468-2.217-10.071-9.702-10.071
					c-7.486,0-10.162,3.603-10.162,10.071V66.535z"/>
			</g>
			<g>
				<path fill="#14B9ED" d="M170.403,111.165v36.963c0,3.421,1.753,4.625,4.992,4.625c3.789,0,11.825-2.222,17.557-5.27v-36.318
					h5.451v45.744h-4.806l-0.368-4.156c-4.897,2.308-13.033,5.078-18.575,5.078c-7.119,0-9.703-4.065-9.703-10.348v-36.318H170.403z
					"/>
				<path fill="#14B9ED" d="M243.498,156.909v-36.963c0-3.421-1.753-4.62-4.992-4.62c-3.789,0-11.829,2.217-17.558,5.265v36.318
					h-5.451v-45.744h4.806l0.372,4.161c4.897-2.313,13.028-5.083,18.57-5.083c7.118,0,9.703,4.065,9.703,10.348v36.318H243.498z"/>
				<path fill="#14B9ED" d="M263.181,120.963v-10.076h5.451v10.076H263.181z M263.181,156.909v-30.494h5.451v30.494H263.181z"/>
				<path fill="#14B9ED" d="M303.471,156.909h-8.317l-15.523-45.744h5.543l14.046,41.865l14.142-41.865h5.546L303.471,156.909z"/>
				<path fill="#14B9ED" d="M343.392,153.03c4.715,0,9.979-0.927,14.418-2.127l0.922,4.435c-4.252,1.48-10.257,2.493-15.804,2.493
					c-12.842,0-17.003-6.65-17.003-16.63v-14.323c0-9.426,4.252-16.635,17.099-16.635s16.631,7.209,16.631,16.635v8.776h-28.273
					v5.729C331.472,149.513,334.242,153.03,343.392,153.03z M331.472,130.756h22.917V126.6c0-7.672-2.68-11.738-11.274-11.738
					c-8.499,0-11.643,4.066-11.643,11.738V130.756z"/>
				<path fill="#14B9ED" d="M393.11,115.603c-4.806,2.03-10.075,5.546-14.418,8.408v32.897h-5.451v-45.744h4.896l0.277,6.932
					c4.896-3.234,9.794-6.282,14.046-7.854L393.11,115.603z"/>
				<path fill="#14B9ED" d="M415.746,157.831c-4.62,0-10.071-0.922-13.396-2.308l0.923-4.438c3.975,1.203,8.686,1.849,12.105,1.849
					c8.409,0,10.167-1.572,10.167-7.391c0-6.56-0.187-7.205-10.625-9.703c-11.462-2.681-12.384-5.542-12.384-13.859
					c0-7.577,3.693-11.738,14.877-11.738c4.252,0,9.422,0.554,12.938,1.571l-0.554,4.62c-3.698-0.74-8.963-1.295-12.752-1.295
					c-7.949,0-9.058,2.035-9.058,7.027c0,6.282,0.368,6.928,8.776,9.145c13.4,3.421,14.142,5.547,14.142,14.046
					C430.996,153.583,428.039,157.831,415.746,157.831z"/>
				<path fill="#14B9ED" d="M444.21,120.963v-10.076h5.451v10.076H444.21z M444.21,156.909v-30.494h5.451v30.494H444.21z"/>
				<path fill="#14B9ED" d="M489.027,156.354c-2.584,1.018-5.174,1.386-8.499,1.386c-7.209,0-10.353-2.589-10.353-9.885v-32.07
					h-8.776v-4.711h8.776v-9.239l5.456-0.741v9.98h12.474l-0.554,4.711h-11.92v31.512c0,4.065,0.554,5.733,5.265,5.733
					c2.494,0,4.343-0.096,7.118-0.927L489.027,156.354z"/>
				<path fill="#14B9ED" d="M514.071,153.03c4.715,0,9.98-0.927,14.418-2.127l0.923,4.435c-4.252,1.48-10.258,2.493-15.805,2.493
					c-12.842,0-16.998-6.65-16.998-16.63v-14.323c0-9.426,4.247-16.635,17.094-16.635s16.635,7.209,16.635,16.635v8.776h-28.282
					v5.729C502.151,149.513,504.923,153.03,514.071,153.03z M502.151,130.756h22.918V126.6c0-7.672-2.771-11.738-11.275-11.738
					s-11.643,4.066-11.643,11.738V130.756z"/>
			</g>
			<path fill="#14B9ED" d="M507.88,102.756c4.252-1.386,9.148-3.049,13.864-4.801l1.662,4.71c-4.62,1.849-9.799,3.325-14.046,4.528
				L507.88,102.756z"/>
			<path fill="#FABA05" d="M225.754,78.545l-12.474-7.205c0,0-0.187-0.095-0.554-0.372c0.182-0.091,0.368-0.182,0.554-0.368
				l12.474-7.209c0.554-0.368,0.741-0.832,0.832-1.29c0.091-0.464,0.091-0.927,0.091-1.295c0-0.554-0.091-0.927-0.091-0.927v-0.277
				l-0.277-0.187c-0.091,0-1.294-1.104-2.68-1.199c-0.277,0-0.555,0.095-0.736,0.187l-12.479,7.205
				c-0.182,0.095-0.368,0.186-0.554,0.372c0-0.186,0-0.463,0-0.649V39.088c-0.091-1.018-0.831-1.476-1.385-1.844
				c-0.554-0.373-1.108-0.649-1.199-0.649l-0.277-0.091l-0.277,0.091c0,0-0.559,0.277-1.204,0.649
				c-0.554,0.368-1.294,0.827-1.385,1.844v26.243c0,0.187,0,0.463,0,0.649c-0.187-0.091-0.368-0.186-0.554-0.372l-12.474-7.205
				c-0.277-0.187-0.554-0.187-0.74-0.187c-1.386,0.095-2.589,1.108-2.68,1.199l-0.277,0.187v0.277c0,0-0.091,0.463-0.091,0.927
				c0,0.368,0,0.831,0.091,1.295c0.091,0.458,0.277,0.922,0.832,1.29l12.479,7.209c0.182,0.095,0.368,0.186,0.549,0.368
				c-0.368,0.186-0.549,0.372-0.549,0.372l-12.479,7.205c-0.554,0.282-0.741,0.836-0.832,1.295
				c-0.091,0.463-0.091,0.927-0.091,1.294c0,0.554,0.091,0.927,0.091,0.927v0.272l0.277,0.187c0.091,0,1.294,1.108,2.68,1.204l0,0
				c0.277,0,0.554-0.095,0.74-0.186l12.474-7.205l0,0c0,0,0.186-0.096,0.554-0.373c0,0.463,0,0.645,0,0.645v14.418
				c0.091,1.017,0.831,1.476,1.385,1.849c0.554,0.368,1.108,0.645,1.204,0.645l0.277,0.095l0.277-0.095c0,0,0.554-0.277,1.199-0.645
				c0.554-0.373,1.294-0.832,1.385-1.849V76.605l0,0c0,0,0-0.272,0-0.645c0.373,0.186,0.554,0.373,0.554,0.373l12.479,7.205
				c0.277,0.186,0.554,0.186,0.736,0.186c1.385-0.095,2.589-1.108,2.68-1.204l0.277-0.187v-0.272c0,0,0.091-0.373,0.091-0.927
				c0-0.368,0-0.831-0.091-1.294C226.495,79.381,226.309,78.827,225.754,78.545z"/>
			<g>
				<path fill="#0570B7" d="M0,97.12c0-10.162,0.832-19.678,2.589-28.55c1.753-8.872,4.434-17.562,7.945-26.156
					c3.607-8.595,7.95-17.189,13.215-25.875c3.144-5.266,6.01-8.962,7.949-11.365C33.82,2.678,35.95,0,38.999,0
					c3.325,0,4.992,0.922,4.992,2.771c0,0.647-1.576,4.252-4.625,10.998c-3.144,6.745-6.005,13.768-8.776,21.067
					c-2.771,7.396-5.269,16.544-7.577,27.538c-2.312,10.998-3.511,22.645-3.511,34.933c0,12.104,1.108,23.657,3.416,34.468
					c2.312,10.812,5.546,20.238,8.504,28.183c2.957,7.95,5.265,15.063,8.131,21.351c2.957,6.282,4.438,9.698,4.438,10.257
					c0,1.85-1.667,2.771-4.992,2.771c-3.144,0-5.27-3.144-7.3-5.451c-2.126-2.403-4.715-6.101-7.949-11.37
					c-5.36-8.867-9.703-17.462-13.215-25.779c-3.511-8.227-6.096-16.821-7.945-25.784C0.927,116.988,0,107.38,0,97.12z"/>
			</g>
		</g>
		<g>
			<path fill="#0570B7" d="M167.445,176.778h2.217l-3.139,17.648h-2.221L167.445,176.778z"/>
			<path fill="#0570B7" d="M189.159,183.524c0,0.277,0,0.645-0.091,1.108l-1.753,9.794h-2.126l1.753-9.885
				c0-0.187,0.096-0.373,0.096-0.463c0-0.555-0.277-0.741-0.927-0.741c-1.29,0-3.325,0.923-4.897,1.94l-1.663,9.148h-2.126
				l2.217-12.751l1.939-0.277l-0.186,1.849c1.299-0.927,3.884-1.939,5.456-1.939C188.423,181.211,189.159,182.138,189.159,183.524z"
				/>
			<path fill="#0570B7" d="M199.975,181.675l2.217-0.277l-2.312,13.028h-2.126L199.975,181.675z M200.897,176.224l2.217-0.277
				l-0.554,3.325l-2.217,0.277L200.897,176.224z"/>
			<path fill="#0570B7" d="M211.527,192.582c0-0.095,0-0.281,0.091-0.559l1.571-8.686h-2.312l0.277-1.758h2.312l0.554-3.139
				l2.217-0.277l-0.649,3.512h3.516l-0.373,1.753h-3.511l-1.572,8.69c0,0.182,0,0.182,0,0.277c0,0.367,0.187,0.554,0.741,0.554
				c0.74,0,1.481-0.187,2.403-0.554l0.463,1.476c-1.108,0.555-2.217,0.832-3.516,0.832
				C212.263,194.704,211.527,193.781,211.527,192.582z"/>
			<path fill="#0570B7" d="M228.525,181.675l2.222-0.277l-2.313,13.028h-2.126L228.525,181.675z M229.452,176.224l2.217-0.277
				l-0.554,3.325l-2.217,0.277L229.452,176.224z"/>
			<path fill="#0570B7" d="M248.304,194.426h-1.758l0.096-1.572c-1.39,1.295-3.144,1.85-4.806,1.85c-1.94,0-2.68-1.108-2.68-2.585
				c0-0.277,0.091-0.649,0.091-1.018l0.927-5.083c0.554-3.144,1.753-4.711,5.819-4.711c1.571,0,3.33,0.368,4.62,0.831
				L248.304,194.426z M248.027,183.428c-0.649-0.182-1.572-0.272-2.494-0.272c-2.035,0-2.962,0.646-3.421,3.14l-0.831,4.619
				c-0.095,0.277-0.095,0.649-0.095,0.927c0,0.646,0.277,0.922,1.018,0.922c1.663,0,3.048-0.922,4.529-2.217L248.027,183.428z"/>
			<path fill="#0570B7" d="M259.947,192.582c0-0.095,0-0.281,0.091-0.559l1.572-8.686h-2.312l0.277-1.758h2.313l0.554-3.139
				l2.217-0.277l-0.645,3.512h3.511l-0.373,1.753h-3.507l-1.572,8.69c0,0.182,0,0.182,0,0.277c0,0.367,0.187,0.554,0.741,0.554
				c0.736,0,1.476-0.187,2.398-0.554l0.463,1.476c-1.108,0.555-2.217,0.832-3.512,0.832
				C260.688,194.704,259.947,193.781,259.947,192.582z"/>
			<path fill="#0570B7" d="M276.95,181.675l2.217-0.277l-2.308,13.028h-2.126L276.95,181.675z M277.872,176.224l2.217-0.277
				l-0.554,3.325l-2.217,0.277L277.872,176.224z"/>
			<path fill="#0570B7" d="M289.889,194.426l-2.035-12.751l2.126-0.277l1.662,11.274l3.698-7.668
				c0.367-0.836,0.463-1.299,0.463-1.943c0-0.368-0.096-1.018-0.186-1.386l2.125-0.277c0.092,0.459,0.187,1.013,0.187,1.663
				c0,0.645,0,1.385-0.463,2.217l-4.434,9.148H289.889z"/>
			<path fill="#0570B7" d="M307.536,191.005c-0.091,0.282-0.091,0.464-0.091,0.559c0,0.832,0.368,1.29,1.759,1.29
				c1.385,0,2.957-0.458,4.71-1.385l0.459,1.571c-1.662,0.927-3.325,1.572-5.446,1.572c-2.59,0-3.607-1.199-3.607-2.958
				c0-0.276,0-0.74,0.096-1.203l0.736-4.343c0.554-3.234,2.035-4.897,5.728-4.897c2.126,0,3.698,1.018,3.698,2.957
				c0,2.217-1.018,3.234-4.62,4.438c-1.571,0.55-2.03,0.646-3.144,1.013L307.536,191.005z M313.542,184.446
				c0-0.831-0.646-1.385-1.754-1.385c-2.03,0-2.957,0.74-3.325,2.866l-0.276,1.753c0.74-0.182,1.108-0.368,2.402-0.735
				C312.62,186.295,313.542,185.463,313.542,184.446z"/>
			<path fill="#0570B7" d="M344.868,194.426h-1.94l0.096-1.572c-1.477,1.295-3.234,1.85-4.896,1.85
				c-2.035,0-2.681-1.108-2.681-2.585c0-0.277,0-0.649,0.091-1.018l0.927-5.083c0.555-3.144,1.663-4.807,5.729-4.807
				c0.831,0,1.753,0.096,2.676,0.368l0.927-5.355l2.221-0.277L344.868,194.426z M344.596,183.428c-0.65-0.182-1.85-0.272-2.59-0.272
				c-2.308,0-2.957,0.646-3.421,3.14l-0.831,4.71c-0.091,0.282-0.091,0.559-0.091,0.836c0,0.646,0.277,1.013,1.018,1.013
				c1.571,0,3.144-0.922,4.62-2.121L344.596,183.428z"/>
			<path fill="#0570B7" d="M358.087,176.224h1.662l-1.108,6.469h-1.662L358.087,176.224z"/>
			<path fill="#0570B7" d="M369.361,191.005c-0.095,0.282-0.095,0.464-0.095,0.559c0,0.832,0.367,1.29,1.758,1.29
				c1.386,0,2.957-0.458,4.71-1.385l0.464,1.571c-1.663,0.927-3.325,1.572-5.451,1.572c-2.589,0-3.606-1.199-3.606-2.958
				c0-0.276,0-0.74,0.091-1.203l0.745-4.343c0.554-3.234,2.03-4.897,5.728-4.897c2.126,0,3.693,1.018,3.693,2.957
				c0,2.217-1.018,3.234-4.62,4.438c-1.567,0.55-2.03,0.646-3.144,1.013L369.361,191.005z M375.362,184.446
				c0-0.831-0.646-1.385-1.753-1.385c-2.031,0-2.958,0.74-3.326,2.866l-0.276,1.753c0.74-0.182,1.108-0.368,2.403-0.735
				C374.44,186.295,375.362,185.463,375.362,184.446z"/>
			<path fill="#0570B7" d="M389.23,187.958l-2.961-6.282l2.035-0.277l2.402,5.083l3.789-4.992h2.494l-5.36,6.65l3.052,6.287h-2.221
				l-2.217-4.62l-3.88,4.62h-2.402L389.23,187.958z"/>
			<path fill="#0570B7" d="M412.885,183.615c-0.927-0.277-1.94-0.459-2.771-0.459c-2.126,0-2.866,0.736-3.33,3.14l-0.831,4.806
				c0,0.187-0.091,0.368-0.091,0.554c0,0.832,0.464,1.108,1.572,1.108c1.199,0,2.68-0.367,3.97-0.831l0.282,1.758
				c-1.295,0.55-2.867,1.014-4.529,1.014c-2.403,0-3.512-1.108-3.512-2.862c0-0.187,0-0.554,0.091-1.018l0.831-4.806
				c0.65-3.607,2.126-4.711,5.547-4.711c0.922,0,2.217,0.182,3.144,0.55L412.885,183.615z"/>
			<path fill="#0570B7" d="M423.046,191.005c-0.091,0.282-0.091,0.464-0.091,0.559c0,0.832,0.373,1.29,1.758,1.29
				c1.386,0,2.958-0.458,4.716-1.385l0.459,1.571c-1.663,0.927-3.325,1.572-5.451,1.572c-2.59,0-3.603-1.199-3.603-2.958
				c0-0.276,0-0.74,0.091-1.203l0.74-4.343c0.55-3.234,2.03-4.897,5.729-4.897c2.126,0,3.693,1.018,3.693,2.957
				c0,2.217-1.018,3.234-4.615,4.438c-1.576,0.55-2.035,0.646-3.144,1.013L423.046,191.005z M429.056,184.446
				c0-0.831-0.645-1.385-1.753-1.385c-2.035,0-2.962,0.74-3.33,2.866l-0.277,1.753c0.741-0.182,1.109-0.368,2.403-0.735
				C428.13,186.295,429.056,185.463,429.056,184.446z"/>
			<path fill="#0570B7" d="M442.18,176.224l2.217-0.277l-3.234,18.479h-2.126L442.18,176.224z"/>
			<path fill="#0570B7" d="M454.836,176.224l2.221-0.277l-3.234,18.479h-2.126L454.836,176.224z"/>
			<path fill="#0570B7" d="M466.664,191.005c-0.091,0.282-0.091,0.464-0.091,0.559c0,0.832,0.368,1.29,1.759,1.29
				c1.381,0,2.957-0.458,4.71-1.385l0.459,1.571c-1.658,0.927-3.325,1.572-5.446,1.572c-2.59,0-3.607-1.199-3.607-2.958
				c0-0.276,0-0.74,0.096-1.203l0.736-4.343c0.554-3.234,2.035-4.897,5.728-4.897c2.131,0,3.698,1.018,3.698,2.957
				c0,2.217-1.018,3.234-4.62,4.438c-1.571,0.55-2.03,0.646-3.144,1.013L466.664,191.005z M472.675,184.446
				c0-0.831-0.65-1.385-1.759-1.385c-2.03,0-2.957,0.74-3.325,2.866l-0.276,1.753c0.74-0.182,1.108-0.368,2.398-0.735
				C471.843,186.295,472.675,185.463,472.675,184.446z"/>
			<path fill="#0570B7" d="M494.297,183.524c0,0.277,0,0.645-0.091,1.108l-1.758,9.794h-2.121l1.753-9.885
				c0-0.187,0.091-0.373,0.091-0.463c0-0.555-0.276-0.741-0.922-0.741c-1.295,0-3.33,0.923-4.901,1.94l-1.662,9.148h-2.127
				l2.222-12.751l1.939-0.277l-0.186,1.849c1.294-0.927,3.884-1.939,5.451-1.939C493.647,181.211,494.297,182.138,494.297,183.524z"
				/>
			<path fill="#0570B7" d="M512.041,183.615c-0.927-0.277-1.944-0.459-2.775-0.459c-2.126,0-2.862,0.736-3.326,3.14l-0.831,4.806
				c0,0.187-0.091,0.368-0.091,0.554c0,0.832,0.459,1.108,1.572,1.108c1.199,0,2.676-0.367,3.97-0.831l0.277,1.758
				c-1.295,0.55-2.862,1.014-4.529,1.014c-2.402,0-3.511-1.108-3.511-2.862c0-0.187,0-0.554,0.095-1.018l0.831-4.806
				c0.646-3.607,2.127-4.711,5.543-4.711c0.926,0,2.217,0.182,3.143,0.55L512.041,183.615z"/>
			<path fill="#0570B7" d="M522.298,191.005c-0.096,0.282-0.096,0.464-0.096,0.559c0,0.832,0.373,1.29,1.759,1.29
				c1.385,0,2.957-0.458,4.71-1.385l0.464,1.571c-1.663,0.927-3.33,1.572-5.451,1.572c-2.59,0-3.607-1.199-3.607-2.958
				c0-0.276,0-0.74,0.091-1.203l0.745-4.343c0.555-3.234,2.031-4.897,5.729-4.897c2.126,0,3.697,1.018,3.697,2.957
				c0,2.217-1.018,3.234-4.624,4.438c-1.571,0.55-2.03,0.646-3.139,1.013L522.298,191.005z M528.304,184.446
				c0-0.831-0.65-1.385-1.754-1.385c-2.035,0-2.957,0.74-3.33,2.866l-0.276,1.753c0.74-0.182,1.108-0.368,2.402-0.735
				C527.381,186.295,528.304,185.463,528.304,184.446z"/>
		</g>
	</g>
</g>
</svg>
