<?xml version="1.0" encoding="utf-8"?>
<!-- Generator: Adobe Illustrator 16.0.0, SVG Export Plug-In . SVG Version: 6.00 Build 0)  -->
<!DOCTYPE svg PUBLIC "-//W3C//DTD SVG 1.1//EN" "http://www.w3.org/Graphics/SVG/1.1/DTD/svg11.dtd">
<svg version="1.1" id="Calque_1_xA0_Image_1_" xmlns="http://www.w3.org/2000/svg" xmlns:xlink="http://www.w3.org/1999/xlink"
	 x="0px" y="0px" width="566.93px" height="511.133px" viewBox="0 27.277 566.93 511.133"
	 enable-background="new 0 27.277 566.93 511.133" xml:space="preserve">
<g>
	<path fill="#008FBF" d="M166.209,144.618c0.723-5.604-0.181-12.113,1.266-18.441c2.531-11.934,5.424-23.687,10.848-34.535
		c1.808-3.435,4.158-6.509,6.689-9.583c2.532-3.074,4.701-6.509,6.147-10.125c1.627-4.159,4.52-7.052,8.86-8.317
		c4.52-1.446,7.593-3.978,9.221-8.679c1.446-4.701,5.424-7.413,9.944-8.679c4.339-1.265,8.317-3.254,11.933-6.146
		c3.254-2.532,6.69-4.159,10.667-5.244c7.413-2.169,14.646-4.52,22.058-6.328c6.509-1.627,13.018-1.085,19.708-0.903
		c1.626,0,3.075,0.903,4.339,1.808c4.34,2.711,8.679,2.711,12.839-0.362c2.168-1.627,4.519-1.988,7.051-1.808
		c2.17,0.181,4.521,2.351,5.063,4.52c0.181,0.904,0,1.808-0.725,2.532c-1.266,1.085-2.53,1.627-4.158,1.808
		c-3.616,0.542-7.051,1.627-10.125,3.616c-3.073,1.989-5.967,1.989-8.859-0.181c-5.063-3.616-10.668-3.978-16.635-3.616
		c-6.509,0.362-12.656,1.989-18.804,4.159c-3.435,1.265-6.871,2.169-10.306,3.073c-3.616,0.904-7.051,2.712-9.944,5.063
		c-2.169,1.808-4.52,2.893-7.232,3.616c-4.158,1.085-7.955,3.254-10.306,7.052c-2.532,3.977-2.17,6.689,2.351,8.497
		c2.531,1.085,5.062,2.532,7.413,3.979c5.424,3.435,11.391,5.785,17.357,8.316c3.797,1.627,7.414,1.447,9.944-2.351
		c0.362-0.542,1.085-0.903,1.447-1.265c3.797-3.978,8.679-5.425,13.922-6.147c1.808-0.182,3.435-0.543,5.063-1.266
		c4.882-1.808,9.402-0.181,11.571,4.52c1.99,4.158,3.255,8.678,4.16,13.198c0.181,0.905,0.181,1.808,0.542,2.712
		c1.809,3.977,2.712,8.136,2.712,12.656c0,2.712,1.629,4.701,4.158,5.786c2.713,1.265,5.605,1.627,8.317,2.169
		c1.629,0.361,3.255,0.723,4.883,1.085c10.486,2.893,20.249,1.808,28.748-5.605c1.807-1.627,3.796-1.988,5.967-1.808
		c1.987,0.181,3.254,1.266,3.977,3.074c0.723,1.808,0.361,3.435-0.903,4.881c-2.712,2.712-6.147,3.254-9.763,3.616
		c-2.352,0.362-4.702,0.543-6.873,1.99c-5.422,3.435-11.027,4.158-17.355,2.892c-6.328-1.446-12.656-2.531-18.804-4.882
		c-3.255-1.265-6.147-0.542-8.861,1.447c-5.424,4.159-11.39,7.594-17.176,11.209c-1.627,1.085-3.074,2.17-4.339,3.617
		c-2.712,3.435-4.52,7.231-5.967,11.21c-1.627,4.159-0.542,8.316,0.542,12.476c2.712,9.944,6.509,19.708,9.944,29.471
		c1.085,3.074,1.266,6.328,0.904,9.402c-0.543,4.701-0.543,9.041,2.169,13.198c0.724,1.085,0.543,1.989-0.361,2.893
		c-2.169,2.712-3.797,5.605-5.243,8.679c-1.447,3.254-3.254,6.147-6.328,8.136c-3.254,1.989-5.243,5.243-7.413,8.136
		c-0.542,0.723-1.085,1.627-1.989,2.169c-2.712,1.809-6.147,1.447-7.413-0.903c-1.989-3.254-1.085-6.871,2.351-8.136
		c8.498-2.893,12.476-10.307,16.814-17.177c1.266-2.17,1.627-4.701,0.543-7.052c-1.627-3.977-1.989-8.317-1.989-12.476
		c0.181-4.52-0.723-8.497-2.531-12.656c-1.808-3.977-3.074-8.136-3.797-12.656c-0.542-3.435-2.351-6.689-3.797-9.944
		c-2.169-5.063-2.351-10.306-1.627-15.73c0.362-3.074,3.074-5.063,4.882-7.232c1.266-1.447,2.351-2.893,2.532-4.882
		c0.181-1.808-0.182-3.074-1.989-3.797c-2.712-1.265-5.605-2.35-8.498-2.892c-3.435-0.724-5.424,0.542-5.786,3.977
		c-0.542,3.979-1.627,7.775-2.893,11.571c-2.351,7.052-2.351,14.285,1.266,21.155c1.808,3.435,3.616,6.87,5.424,10.306
		c1.627,3.254,2.169,6.509,1.446,10.125c-0.362,2.169,0,3.979,0.904,5.786c1.627,3.074,2.351,6.328,2.17,9.763
		c-0.181,4.159,0.361,8.136,1.627,12.114c0.723,2.35,0.542,4.701-1.447,6.509c-1.809,1.627-3.978,1.988-6.328,1.085
		c-2.712-0.904-3.797-2.893-3.074-5.967c0.542-2.531,1.447-5.062,2.169-7.774c0.723-3.617-0.723-6.689-3.073-9.402
		c-0.904-1.085-1.989-0.904-3.255-0.543c-1.808,0.724-3.796,1.446-5.786,1.446c-2.531,0-4.52-0.903-5.786-3.074
		c-2.35-3.977-4.701-7.774-7.051-11.751c-1.266-1.989-1.627-4.34-2.351-6.509c-1.627-4.701-3.978-9.221-6.509-13.38
		c-1.084-1.988-2.17-3.977-3.074-5.967c-1.265-2.711-1.265-5.423-0.181-8.136c1.808-5.063,3.616-10.125,5.967-15.006
		c1.989-4.159,2.169-8.317-0.181-12.476c-0.904-1.627-1.627-3.617-0.723-5.605c1.446-3.435,6.147-3.979,8.859-0.905
		c1.265,1.447,1.988,3.254,2.169,5.244c0.724,6.87-0.362,13.56-3.616,19.707c-1.084,1.99-1.989,4.159-2.893,6.328
		c-1.988,3.978-1.627,7.774,0.362,11.392c4.159,8.316,7.775,16.633,11.029,25.313c1.808,5.062,6.509,7.232,10.848,9.944
		c0.723,0.361,1.447,0,1.989-0.542c1.808-1.808,2.532-3.979,1.808-6.509c-1.808-6.328-4.882-12.114-7.956-17.9
		c-1.808-3.435-3.796-6.689-4.339-10.486c-0.542-3.979-0.542-7.775,0.362-11.572c0.723-3.796,1.808-7.414,2.893-11.029
		c0.723-2.531,2.35-4.159,3.978-6.147c2.712-3.074,2.893-4.882,0.542-8.317c-2.351-3.254-4.52-6.689-7.232-9.763
		c-5.605-6.147-12.295-10.487-20.974-10.848c-3.436-0.181-4.881-1.266-5.786-4.521c-0.904-2.893,0.723-5.244,3.797-5.425
		c1.989-0.181,3.978,0.181,5.605,1.266c4.882,2.893,10.125,5.243,15.188,7.774c6.871,3.254,11.391,8.86,14.103,15.73
		c1.627,3.797,4.159,5.605,8.136,5.786c3.436,0.181,6.509,1.266,8.498,4.52c2.35,3.797,4.339,3.978,8.136,1.627
		c1.627-1.085,3.073-2.17,4.339-3.435c3.074-3.074,6.871-5.063,11.029-6.147c7.232-2.17,7.052-6.147,4.881-11.392
		c-0.361-0.723-0.542-1.627-1.084-2.169c-2.351-2.893-3.074-6.328-2.712-9.944c0.181-1.447-0.362-3.074-0.904-4.34
		c-2.531-6.328-7.232-8.136-13.379-4.881c-3.616,1.988-7.232,3.616-11.21,4.52c-5.062,1.447-6.509,4.882-3.978,9.402
		c2.531,4.158,5.424,6.147,9.583,4.882c1.989-0.543,3.254-2.17,4.521-3.435c2.169-2.351,4.701-2.893,7.594-2.17
		c2.712,0.724,3.616,2.17,2.351,4.701c-0.362,0.724-0.904,1.266-1.447,1.989c-2.712,2.712-5.786,5.063-9.041,7.052
		c-2.169,1.447-4.701,1.447-7.232,1.266c-6.147-0.543-12.295-5.967-13.018-12.114c-0.542-4.159-2.712-6.689-6.328-7.594
		c-6.871-1.988-12.656-6.328-19.346-8.497c-3.255-1.085-5.424-3.798-7.232-6.509c-2.351-3.437-4.52-3.979-8.317-2.17
		c-2.893,1.446-5.244,3.617-6.871,6.509c-2.893,5.244-6.328,10.306-9.944,15.188c-5.244,7.232-7.413,15.73-9.763,24.409
		c-2.351,8.678-2.712,17.538-3.978,26.216c-1.085,7.414-1.266,14.827,0.542,22.06c0.904,3.435,1.808,6.689,3.797,9.583
		c4.52,6.509,6.871,13.74,8.859,21.334c1.266,4.701,3.255,8.86,7.413,11.572c1.627,1.084,3.435,1.627,5.424,2.169
		c5.604,1.447,7.413,3.436,7.955,9.221c0.362,5.424,2.893,9.583,7.232,12.656c6.69,4.701,12.837,10.126,20.431,13.38
		c5.786,2.35,11.752,4.158,17.719,5.965c4.701,1.266,9.402,2.712,14.103,4.159c4.158,1.266,8.317,1.808,12.656,0
		c2.169-0.903,2.893-2.169,2.532-4.521c-0.362-1.808-0.724-3.435-0.182-5.423c0.543-2.351,2.712-3.617,5.967-3.254
		c2.712,0.361,3.617,1.627,3.256,4.52c-0.181,1.627-1.086,2.892-1.989,4.338c-1.267,1.808-1.809,3.979-1.086,6.147
		c0.544,1.447,0,2.532-1.445,3.254c-0.181,0-0.361,0.181-0.542,0.363c-5.787,4.881-12.477,4.158-19.167,2.169
		c-3.074-0.904-6.147-1.808-9.221-2.169c-3.978-0.363-7.593-1.809-11.21-3.074c-5.063-1.809-9.944-3.617-15.006-5.605
		c-1.627-0.542-3.074-1.447-4.34-2.35c-7.413-4.883-14.645-9.764-21.697-15.188c-3.435-2.712-5.966-5.967-6.146-10.487
		c-0.182-4.882-3.255-7.232-7.414-8.317c-4.52-1.085-7.232-3.797-9.04-7.955c-2.351-5.063-4.701-9.945-6.147-15.369
		c-0.904-3.254-2.17-6.328-3.797-9.221c-2.893-4.881-4.701-10.125-6.509-15.549c-0.723-2.532-0.723-5.062-0.904-7.774
		C166.209,154.02,166.209,149.682,166.209,144.618z"/>
	<path fill="#008FBF" d="M324.958,159.626c0,1.447,0,2.893,0,4.34c0,4.338-2.171,7.594-5.244,10.125
		c-1.629,1.446-3.616,2.351-5.425,3.435c-2.17,1.266-4.339,2.712-5.967,4.881c-1.807,2.17-2.351,4.521-1.445,7.233
		c1.445,4.159,1.987,8.316,1.084,12.656c-0.361,2.351,0.181,4.52,0.903,6.509c1.989,6.51,0.181,11.933-4.881,16.273
		c-1.267,0.903-2.351,1.084-3.615,0.361c-2.532-1.266-4.702-1.085-7.053,0.181c-2.35,1.266-4.881,2.351-7.231,3.254
		c-5.606,2.351-9.945,5.967-12.658,11.572c-1.265,2.53-3.073,3.977-5.786,4.158c-1.988,0.181-3.254-0.723-3.616-2.531
		c-0.542-2.712-0.542-5.605,1.989-7.232c5.243-3.435,9.401-7.956,13.741-12.114c4.52-4.158,9.583-4.338,14.827-2.169
		c1.807,0.723,2.712,0.181,3.796-1.085c1.99-2.35,2.894-5.243,3.074-8.136c0.181-3.254,0.181-6.509-0.723-9.763
		c-0.905-3.435-0.905-6.871-0.181-10.306c0.723-3.074,0.542-5.967-1.086-9.041c-1.988-3.616,0.181-8.316,4.34-8.858
		c10.125-1.266,14.102-9.583,12.837-18.804c-0.361-3.254,0-6.328-0.542-9.583c-0.542-3.437-2.351-6.147-5.244-7.594
		c-7.593-3.797-15.549-4.881-23.144-0.181c-8.136,4.882-10.848,14.103-7.232,23.324c1.809,4.701,3.797,9.22,5.606,13.921
		c2.712,7.232,3.254,14.827,2.712,22.42c-0.181,2.712-0.181,5.424-0.181,7.955c-0.181,2.712-1.086,4.701-3.799,5.604
		c-1.988,0.724-6.146-0.361-7.413-1.989c-0.723-0.723-0.723-1.627-0.181-2.35c0.542-0.905,1.085-1.99,1.989-2.893
		c3.074-3.074,3.435-6.871,2.893-10.848c-1.447-9.402-3.617-18.623-7.775-27.302c-2.35-4.882-3.978-9.944-3.797-15.549
		c0.181-4.519,1.447-8.136,4.701-11.21c2.531-2.35,5.243-4.52,7.775-7.051c3.797-3.797,8.679-4.339,13.741-4.159
		c5.786,0.361,11.572,1.266,17.178,3.254c4.521,1.808,7.593,4.52,9.04,9.402C324.413,146.789,324.958,153.117,324.958,159.626z"/>
	<path fill="#008FBF" d="M394.206,150.224c-0.542-9.041-0.361-18.442-1.81-27.663c-0.723-5.063-2.712-9.583-5.967-13.56
		c-3.073-3.617-5.425-7.594-5.967-12.475c-0.181-1.266-0.542-2.532-1.265-3.437c-2.893-4.158-1.809-8.858-1.989-13.379
		c0-1.627,0.723-2.17,2.351-1.808c5.244,1.265,6.87,2.893,6.509,8.316c-0.361,4.34,1.084,7.956,3.616,11.391
		c7.956,11.572,11.934,24.589,11.753,38.692c-0.181,7.594,0,15.369,0,22.962c0,2.893-0.542,5.785-1.626,8.498
		c-1.629,5.062-3.257,9.944-4.521,15.188c-0.903,3.435-2.713,6.689-4.7,9.763c-3.438,5.605-6.511,11.39-8.679,17.538
		c-1.99,5.605-5.786,8.679-12.114,8.499c-3.978-0.181-5.967,1.808-5.605,6.87c0.361,3.074-0.181,5.967-2.894,7.594
		c-8.315,5.063-15.549,11.752-24.409,15.73c-9.221,3.979-18.078,8.86-28.024,10.487c-3.073,0.542-5.604,2.53-8.859,2.893
		c-3.616,0.361-6.328-1.085-8.497-3.617c-1.086-1.266-0.723-2.169,0.904-2.711c2.17-0.724,4.338-1.447,6.689-1.627
		c5.604-0.362,10.668-2.351,15.729-4.339c6.689-2.712,13.381-4.882,19.528-8.499c6.509-3.796,12.837-7.775,18.623-12.476
		c1.987-1.627,3.074-3.796,3.978-5.966c0.542-1.085,0.361-2.17,0-3.436c-0.542-1.265-1.087-2.711-1.448-3.977
		c-1.084-4.521,1.448-7.052,5.786-5.786c1.448,0.361,2.894,0.904,4.341,1.446c1.265,0.542,2.529,0.361,3.797,0
		c4.699-1.988,7.773-5.243,8.315-10.306c0.183-1.446,0-3.074,1.086-4.338c4.881-5.786,6.87-12.838,9.944-19.347
		C392.758,168.486,394.025,159.806,394.206,150.224z"/>
	<path fill="#008FBF" d="M350.632,87.124c0,1.445,0.361,2.53,0,3.616c-0.723,3.796-3.797,5.062-6.87,2.712
		c-4.702-3.437-8.138-3.254-12.295,0.903c-0.181,0.181-0.181,0.181-0.361,0.361c-3.979,6.328-10.308,6.51-16.636,5.605
		c-0.542,0-1.084-0.181-1.445-0.181c-6.328-0.361-10.127-3.435-11.753-9.583c-0.903-3.798-1.809-7.775-2.713-11.572
		c-0.903-4.701-2.531-9.04-4.338-13.379c-1.629-4.159-5.063-6.509-9.224-7.414c-6.87-1.627-13.921-1.988-21.153-0.904
		c-2.351,0.362-4.521,1.266-6.509,2.712c-2.712,1.808-5.424,3.254-8.137,4.881c-4.158,2.17-8.679,2.17-13.018,1.447
		c-3.074-0.361-5.063-2.893-5.424-5.785c-0.362-3.074,1.988-5.425,4.881-4.159c6.69,2.712,12.114,0.903,17.538-3.254
		c4.34-3.254,9.402-4.701,15.007-4.701c7.051,0,13.921,0.181,20.793,2.531c7.412,2.712,12.114,7.594,14.102,15.188
		c1.447,5.425,3.438,10.848,3.618,16.634c0.361,7.594,7.051,11.391,14.282,9.221c3.254-1.085,5.786-2.893,7.775-5.425
		c2.532-3.074,5.605-4.52,9.764-3.435c5.244,1.266,7.231,0.361,8.859-4.881c1.807-5.967,6.509-7.594,11.934-8.317
		c1.807-0.182,3.255-0.904,4.881-1.809c2.712-1.627,5.605-3.074,9.04-2.169c3.616,0.904,5.967,7.052,4.158,10.125
		c-0.542,0.724-1.265,0.904-2.168,0.543c-1.99-0.543-4.16-0.904-6.147-1.446c-2.532-0.724-5.063-0.724-7.234,0.903
		c-3.073,1.99-6.147,3.978-8.857,6.69C351.174,84.05,350.451,85.677,350.632,87.124z"/>
	<path fill="#008FBF" d="M185.013,151.49c-0.361-5.967,0.181-11.21,2.17-16.454c0.723-1.988,0.904-4.158,0.904-6.147
		c0.362-8.859,3.978-16.814,5.605-25.313c0.362-2.532,2.351-4.159,4.52-5.243c1.989-1.085,3.797-0.362,4.521,1.808
		c0.904,2.893,0.542,5.604-1.085,8.136c-2.712,4.339-3.797,9.041-4.159,13.922c-0.361,4.882-1.084,9.763-2.531,14.645
		c-1.808,5.967-3.074,12.295-1.808,18.804c0.542,2.893,1.808,5.605,3.797,7.774c3.978,4.521,6.509,9.583,7.232,15.549
		c0.723,5.425,3.435,9.764,7.775,13.019c3.797,2.892,7.413,5.966,11.029,9.04c2.893,2.351,4.882,5.244,5.966,8.86
		c1.266,4.339,3.255,8.498,6.329,11.934c1.808,1.988,1.989,5.062,0.723,6.328c-1.809,1.808-5.786,1.627-7.774,0
		c-1.447-1.266-2.351-3.074-2.712-4.882c-1.447-7.594-6.328-13.38-10.306-19.527c-1.266-1.989-3.254-3.074-5.244-4.159
		c-1.989-1.084-3.797-2.35-5.786-3.435c-4.158-2.531-6.328-6.328-6.871-11.21c-0.723-6.87-3.074-12.837-7.594-18.08
		C185.375,162.338,184.109,157.094,185.013,151.49z"/>
	<path fill="#008FBF" d="M375.764,159.445c-1.81-9.945-0.361-20.069-1.81-30.013c-0.542-4.701-3.254-8.137-7.231-10.487
		c-1.989-1.266-4.338-2.169-6.328-3.254c-4.338-2.351-5.425-5.786-2.893-9.763c1.445-2.351,1.809-4.882,1.809-7.594
		c0-2.351,0.181-4.701,1.626-6.871c2.171-2.893,6.328-4.158,9.583-2.531c1.809,0.903,2.351,2.169,1.628,3.977
		c-0.725,1.808-1.989,3.254-3.618,4.521c-6.145,5.425-5.061,11.934,2.532,15.007c5.244,2.169,8.317,5.785,9.582,11.391
		c1.268,5.605,2.171,11.029,1.99,16.634c-0.181,6.689,0.723,13.379,0,20.068c-0.542,4.159-1.445,8.137-3.255,11.753
		c-1.628,3.616-5.244,5.424-9.763,4.882c-3.978-0.361-7.776-1.085-11.753-1.808c-2.352-0.361-4.52-1.266-6.328-2.712
		c-1.99-1.446-1.99-2.53,0-3.977c2.893-2.17,7.051-3.797,10.485-0.724c2.532,2.351,5.967,2.17,8.86,0.543
		c3.073-1.627,4.883-4.159,4.883-7.774C375.764,160.711,375.764,159.987,375.764,159.445z"/>
	<path fill="#008FBF" d="M369.436,197.956c-1.99,0-3.616-0.542-5.244-1.265c-1.626-0.724-3.255-1.266-4.881-1.627
		c-3.979-0.724-7.595,1.084-9.401,4.882c-2.894,5.967-4.16,12.476-5.967,18.804c-1.087,3.977-3.255,6.509-7.054,7.774
		c-1.626,0.542-3.254,1.266-4.88,1.808c-2.352,0.723-3.978,2.169-5.425,4.159c-1.084,1.627-2.352,3.073-3.978,4.158
		c-1.628,1.266-3.254,1.266-5.063,0.361c-1.626-0.903-2.168-2.53-2.168-4.158c0.181-3.074,1.445-5.605,4.52-6.871
		c1.809-0.723,3.615-1.447,5.425-1.989c8.135-2.35,12.656-7.594,13.74-15.911c0.723-5.605,2.531-10.667,6.147-15.188
		c3.254-4.158,6.689-6.87,12.295-5.785c3.615,0.723,7.231,1.084,10.847,1.808c2.713,0.542,4.883,1.989,6.328,4.521
		c1.087,2.169,0.184,4.158-2.168,4.519C371.062,197.594,370.158,197.775,369.436,197.956z"/>
	<path fill="#008FBF" d="M337.614,166.315c-0.364-5.786-0.726-9.944-1.81-13.922c-0.542-1.808-0.903-3.796-0.723-5.785
		c0.181-2.17,1.265-3.617,3.255-4.52c1.807-0.905,3.615-0.181,5.061,1.084c1.99,1.809,2.894,3.978,2.171,6.51
		c-0.903,3.254-1.445,6.509-1.445,9.763c0,3.074,0.361,5.786,2.168,8.498c1.086,1.446,0.905,3.074-0.361,4.339
		c-2.168,2.169-3.616,4.882-5.062,7.594c-1.447,2.712-3.254,5.062-5.967,6.689c-6.147,3.435-8.317,8.859-7.233,15.73
		c0.363,2.351,0.544,4.701,0.181,7.052c-0.542,3.074-2.71,4.701-5.604,4.338c-2.712-0.361-3.979-1.989-3.979-5.243
		c0-0.542,0-1.266,0.182-1.627c1.447-3.977,1.989-7.955,1.267-12.114c-0.903-5.243,1.445-8.678,5.786-11.029
		c3.615-1.989,6.147-4.882,8.679-7.956C336.708,172.643,338.156,169.028,337.614,166.315z"/>
	<path fill="#008FBF" d="M334.721,125.453c4.339,0.905,8.496-0.181,12.656-0.723c7.773-1.085,11.751,1.808,14.644,9.04
		c2.171,5.425,1.81,11.029,2.352,16.634c0.181,1.989,0.542,3.796,0,5.786c-0.542,1.989-1.445,3.796-3.074,5.063
		c-1.807,1.446-3.435,1.085-4.519-0.905c-1.448-2.711-1.087-5.785-0.906-8.678c0.364-3.798,0.545-7.775-0.181-11.572
		c-0.903-4.882-4.157-7.051-8.677-7.956c-2.712-0.542-5.244-0.181-7.775,1.085c-2.352,1.266-4.881,1.988-7.773,1.446
		c-2.713-0.542-3.799-1.627-3.618-4.159c0-2.711,1.809-4.701,4.16-5.063C333.273,125.453,333.996,125.453,334.721,125.453z"/>
	<path fill="#008FBF" d="M321.703,32.52c2.349,0,4.7,0.542,6.509,1.989c2.894,1.989,5.967,3.254,9.038,4.701
		c2.894,1.266,5.605,3.074,7.234,5.967c2.17,3.435,5.241,5.424,9.582,5.424c1.445,0,2.894,0.543,4.339,0.724
		c3.979,0.542,5.244,5.243,3.796,8.136c-0.723,1.627-1.987,2.35-3.977,1.988c-1.807-0.361-3.436-1.266-5.062-2.35
		c-2.712-2.17-5.605-3.979-9.221-4.159c-1.087,0-1.99-0.904-2.532-1.808c-2.712-3.435-6.147-5.786-9.763-8.136
		c-2.171-1.446-4.521-2.17-7.054-2.712c-2.71-0.724-5.061-1.988-6.509-4.52c-1.445-2.712-0.542-4.339,2.352-4.882
		C320.798,32.52,321.34,32.701,321.703,32.52z"/>
	<path fill="#008FBF" d="M343.036,62.173c0,4.158-3.073,7.774-7.051,8.136c-4.88,0.542-8.859,2.531-12.114,6.328
		c-2.351,2.531-5.241,3.435-8.679,2.531c-2.891-0.723-3.797-3.073-2.529-5.604c0.723-1.627,2.168-2.532,3.796-3.074
		c7.412-2.351,13.921-6.328,19.888-11.029c0.181-0.181,0.361-0.181,0.542-0.361c1.448-0.724,2.894-1.809,4.702-0.905
		C343.397,59.099,342.675,60.906,343.036,62.173z"/>
	<path fill="#008FBF" d="M304.164,150.585c-0.903,4.521-1.809,9.944-3.435,15.007c-0.725,1.989-2.352,2.531-4.16,2.35
		c-1.987-0.181-3.615-0.723-4.52-2.893c-0.723-1.989-0.542-4.158,0.181-5.966c1.266-3.436,1.81-6.871,2.532-10.487
		c0.542-3.074,3.073-5.243,5.605-5.063C302.717,143.896,304.164,146.246,304.164,150.585z"/>
	<path fill="#008FBF" d="M322.426,54.759c0,3.616-1.989,5.424-5.063,4.521c-3.615-1.085-7.231-2.351-10.305-4.34
		c-2.171-1.446-2.894-3.074-1.99-5.062c1.087-2.712,3.616-4.159,5.967-3.435c2.532,0.723,5.063,1.627,7.596,2.711
		C321.159,50.239,322.245,52.408,322.426,54.759z"/>
	<path fill="#008FBF" d="M297.655,240.083c0.181-3.796,1.808-5.965,3.797-8.316c0.542-0.723,1.265-0.723,2.17-0.542
		c2.894,0.723,5.242,4.881,4.339,7.955c-1.084,3.977-3.797,5.604-7.412,4.34C298.378,242.796,297.294,241.53,297.655,240.083z"/>
</g>
<g>
	<path fill="#0090BE" d="M477.921,534.975c1.084-2.352,1.987-4.159,2.713-6.147c2.168-5.063,4.338-10.126,6.509-15.008
		c0.361-0.723,0.542-1.266,1.084-1.808c0.903-1.266,2.351-1.085,3.615-0.723c1.267,0.361,1.084,1.446,1.084,2.35
		c0,7.956,0,15.911,0,23.866c0,1.085,0.183,2.171-1.445,2.171c-1.445,0-1.445-0.905-1.445-2.171c0-6.689,0-13.379,0-19.888
		c0-0.724,0.181-1.627-0.363-2.531c-0.903,1.808-1.626,3.435-2.168,5.062c-2.532,5.967-5.063,11.753-7.596,17.72
		c-0.361,0.903-0.723,1.988-1.987,1.809c-1.267,0-1.447-1.086-1.809-1.99c-2.894-6.87-5.605-13.56-8.499-20.431
		c-0.181-0.542-0.181-1.446-1.265-1.808c0,0.904-0.181,1.627-0.181,2.351c0,6.509,0,13.198,0,19.707
		c0,1.085,0.181,2.171-1.447,1.989c-1.445,0-1.265-1.085-1.265-1.989c0-7.955,0-15.91,0-23.866c0-0.904-0.361-2.169,1.084-2.531
		c1.447-0.181,2.893-0.361,3.979,1.085c0.542,0.724,0.903,1.627,1.265,2.532C472.135,521.234,475.028,527.923,477.921,534.975z"/>
	<path fill="#0090BE" d="M229.675,483.084c0-2.352,0-4.702,0-7.053c0-4.7,0-9.582,0-14.283c0-1.085,0.181-1.627,1.446-1.627
		c1.085,0,1.447,0.723,1.447,1.627c0,8.316,0,16.453,0,24.771c0,0.723,0,1.446-0.723,1.808c-0.904,0.361-1.627,0.181-2.531-0.361
		c-0.904-0.543-1.266-1.446-1.809-2.351c-3.616-6.509-7.413-13.018-11.029-19.707c-0.361-0.543-0.542-0.904-0.904-1.627
		c-0.543,0.542-0.362,1.265-0.362,1.808c0,6.509,0,13.198,0,19.707c0,1.085,0.362,2.531-1.446,2.531
		c-1.989,0-1.266-1.627-1.266-2.531c0-7.594,0-15.367,0-22.962c0-1.085-0.362-2.531,1.266-2.893s2.893,0.181,3.616,1.627
		c3.436,6.147,6.871,12.295,10.306,18.261c0.542,1.085,1.266,2.17,1.808,3.074C229.313,483.265,229.494,483.265,229.675,483.084z"/>
	<path fill="#0090BE" d="M358.227,464.642c0,6.689,0,13.56,0,20.25c0,0.723,0,1.446,0,2.169c0,1.085-0.542,1.446-1.445,1.446
		s-1.447-0.542-1.447-1.446c0-2.35,0-4.701,0-7.232c0-5.785,0-11.391,0-17.177c0-1.084-0.181-2.35,1.267-2.711
		c1.445-0.361,2.712,0,3.616,1.446c1.265,2.351,2.531,4.521,3.796,6.689c2.712,4.701,5.425,9.583,7.956,14.283
		c0.181,0.182,0.361,0.361,0.542,0.725c0.724-0.543,0.361-1.447,0.361-1.99c0-6.328,0-12.656,0-19.165
		c0-0.904-0.361-2.169,1.266-2.169c1.628,0,1.267,1.084,1.267,2.169c0,7.956,0,15.911,0,23.866c0,0.904,0.181,1.989-0.903,2.351
		c-1.086,0.361-2.171,0-2.894-0.904c-0.544-0.723-1.086-1.627-1.628-2.53c-3.797-6.69-7.593-13.561-11.392-20.431
		C358.588,464.642,358.407,464.642,358.227,464.642z"/>
	<path fill="#0090BE" d="M245.947,515.448c0,6.689,0,13.38,0,20.069c0,0.724,0,1.446,0,2.169c0,1.085-0.542,1.629-1.627,1.629
		c-0.904,0-1.447-0.544-1.447-1.447c0-8.317,0-16.634,0-24.951c0-0.904,0.181-1.627,1.084-1.808
		c1.085-0.182,2.351-0.362,3.255,0.723c0.542,0.542,0.904,1.266,1.266,1.988c3.616,6.328,7.051,12.656,10.667,18.984
		c0.361,0.544,0.361,1.267,1.084,1.628c0.543-0.542,0.362-1.266,0.362-1.809c0-6.509,0-12.837,0-19.346
		c0-0.904-0.362-2.17,1.265-2.17s1.447,1.085,1.447,2.17c0,7.956,0,15.911,0,23.866c0,0.904,0.181,1.988-0.904,2.351
		c-1.266,0.361-2.351,0-3.074-1.085c-1.266-2.169-2.531-4.158-3.797-6.328c-3.074-5.425-6.147-10.848-9.221-16.272
		C246.128,515.267,245.947,515.448,245.947,515.448z"/>
	<path fill="#0090BC" d="M69.663,525.03c0.181-1.265,0-2.711,0.361-3.977c1.266-7.053,5.967-10.849,12.837-10.487
		c6.509,0.181,10.487,4.159,11.21,11.391c0.361,2.893,0.181,5.967-0.542,8.859c-1.808,6.509-6.509,9.402-13.741,8.679
		c-5.424-0.543-9.221-4.7-9.763-10.848C69.663,527.381,69.663,526.295,69.663,525.03z M72.556,525.21c0,0.904,0,2.171,0.181,3.256
		c0.542,4.882,3.616,8.136,7.774,8.316c5.605,0.361,8.86-2.17,9.944-7.413c0.724-3.074,0.542-6.147,0-9.222
		c-0.904-4.52-3.797-7.051-8.317-7.231c-4.339-0.182-7.774,2.351-9.04,6.509C72.736,521.234,72.736,523.222,72.556,525.21z"/>
	<path fill="#0090BF" d="M267.282,479.828c0,1.085,0,1.989,0,3.074c0,3.797-0.181,3.978-3.797,5.063
		c-7.956,2.531-15.73-1.085-17.9-8.498c-2.531-8.678,1.446-17.177,9.221-19.165c3.616-0.904,7.232-0.542,10.487,1.085
		c0.542,0.361,1.265,0.723,1.627,1.265c0.361,0.544,0.542,1.447,0,1.99c-0.543,0.542-1.085,0-1.447-0.361
		c-1.446-0.905-2.893-1.629-4.52-1.81c-7.052-1.265-12.295,3.074-12.837,10.307c0,1.266-0.181,2.531,0,3.979
		c1.265,9.039,9.04,10.847,15.006,8.678c0.904-0.361,1.447-0.904,1.447-1.988c0-2.171,0-4.159,0-6.328
		c0-1.086-0.362-1.628-1.447-1.447c-1.627,0-3.254,0-5.063,0c-0.723,0-1.265-0.181-1.265-1.085c0-0.903,0.361-1.446,1.265-1.446
		c2.532,0,5.244,0,7.774,0c1.085,0,1.627,0.724,1.627,1.808C267.102,476.574,267.282,478.201,267.282,479.828z"/>
	<path fill="#0090BF" d="M298.02,530.635c0,1.085-0.181,2.35,0,3.436c0.361,2.351-0.723,3.435-2.894,4.339
		c-7.593,2.713-15.188,0-18.08-6.509c-3.255-7.594-0.542-16.814,6.147-20.069c4.34-2.17,8.679-1.808,13.017,0.181
		c0.726,0.361,1.448,0.723,1.81,1.446c0.361,0.542,0.361,1.267-0.181,1.809s-1.084,0-1.448-0.361
		c-2.71-1.628-5.603-2.532-8.857-1.989c-3.979,0.723-6.51,3.074-7.775,6.689c-1.085,3.255-1.085,6.509-0.181,9.764
		c1.808,6.147,9.04,9.04,14.826,6.328c0.723-0.361,1.265-0.723,1.084-1.627c0-0.361,0-0.723,0-1.086
		c0-2.169,0.723-4.881-0.361-6.328c-1.084-1.446-3.977-0.361-5.967-0.542c-0.903,0-1.626-0.181-1.626-1.266
		c0-1.084,0.542-1.266,1.626-1.266c2.352,0,4.702,0,7.231,0c1.448,0,1.99,0.724,1.81,1.989
		C298.02,527.562,298.02,529.008,298.02,530.635z"/>
	<path fill="#0090BC" d="M106.728,525.21c0-3.977,0-8.136,0-12.113c0-1.627,0.724-2.351,2.351-2.351
		c2.531,0.181,5.244-0.181,7.775,0.362c3.435,0.903,5.424,2.711,5.785,5.785c0.362,3.254-0.723,5.605-3.616,7.232
		c-0.904,0.542-1.266,0.723-0.362,1.808c3.074,3.255,3.797,7.775,5.605,11.752c0.362,0.724,0,1.085-0.723,1.266
		c-1.085,0.181-1.808,0-2.351-1.084c-1.084-2.712-1.989-5.244-3.074-7.774c-1.446-3.435-3.435-4.521-7.232-4.34
		c-1.085,0-1.447,0.361-1.447,1.447c0,2.893,0,5.786,0,8.678c0,1.266,0.905,3.073-1.446,3.073c-2.169,0-1.266-1.808-1.266-2.893
		C106.547,532.623,106.728,528.827,106.728,525.21z M109.621,518.159c0,5.605,0,5.605,5.063,5.243
		c3.074-0.181,4.881-2.169,5.063-4.882c0-2.893-1.628-4.701-4.701-5.063C109.621,512.916,109.621,512.916,109.621,518.159z"/>
	<path fill="#0090BF" d="M175.976,474.405c2.893,2.17,3.616,5.243,4.882,8.137c0.542,1.266,1.084,2.712,1.627,3.978
		c0.181,0.723,0.904,1.627-0.362,1.988c-0.904,0.361-1.989,0.181-2.351-0.904c-0.904-2.169-1.627-4.519-2.531-6.689
		c-1.808-4.521-3.616-5.786-7.955-5.604c-1.084,0-1.446,0.361-1.446,1.445c0,3.256,0,6.691,0,9.945c0,1.085,0,1.988-1.447,1.988
		c-1.446,0-1.446-0.903-1.446-1.988c0-7.955,0-16.091,0-24.048c0-1.808,0.723-2.711,2.532-2.53c2.35,0.181,4.701-0.181,7.051,0.361
		c3.435,0.724,5.604,2.531,6.147,5.605c0.542,3.615-0.542,5.966-3.797,7.955C176.699,474.043,176.518,474.224,175.976,474.405z
		 M167.84,468.076c0.362,1.266-0.904,3.616,0.542,4.521c1.627,1.085,3.978,0.361,5.966,0c0.723-0.181,1.446-0.542,2.169-1.085
		c0.723-0.542,1.266-1.266,1.447-1.989c0.361-1.988,0.542-3.978-1.085-5.424c-1.266-1.085-7.232-2.351-8.317-1.266
		s-0.361,2.893-0.542,4.339C167.84,467.172,167.84,467.534,167.84,468.076z"/>
	<path fill="#0090BE" d="M428.922,474.405c3.616,3.616,4.52,8.498,6.328,12.656c0.181,0.542,0.181,1.266-0.542,1.446
		c-0.903,0.181-1.809,0.181-2.351-0.904c-0.723-1.808-1.445-3.615-2.171-5.424c-0.542-1.085-0.903-2.351-1.445-3.435
		c-1.447-2.713-4.338-3.979-7.231-3.436c-1.086,0.181-0.905,0.904-0.905,1.628c0,3.254,0,6.509,0,9.763c0,0.903,0,1.988-1.445,1.988
		c-1.448,0-1.448-0.903-1.448-1.988c0-7.955,0-16.091,0-24.048c0-1.808,0.726-2.53,2.352-2.35c2.351,0.181,4.702-0.181,7.051,0.361
		c3.618,0.724,5.786,2.532,6.328,5.786c0.544,3.073-0.723,5.604-3.797,7.594C429.645,474.043,429.283,474.224,428.922,474.405z
		 M420.604,467.715c0,5.967,0,5.967,5.786,5.063c2.893-0.542,4.702-2.713,4.341-5.425c-0.364-3.435-3.074-5.063-8.68-4.52
		c-2.893,0.362-0.723,2.712-1.447,4.158C420.604,466.991,420.604,467.353,420.604,467.715z"/>
	<path fill="#0090BE" d="M130.594,470.789c0-2.894,0-5.605,0-8.499c0-0.903-0.361-2.35,1.446-2.35c1.627,0,1.266,1.266,1.266,2.169
		c0,4.882,0,9.764,0,14.465c0,1.085,0,1.989,0.181,3.073c0.723,4.521,3.254,6.69,7.774,6.51c4.158-0.182,6.509-2.712,6.69-7.232
		c0.181-5.605,0-11.21,0-16.635c0-1.084-0.181-2.35,1.446-2.169c1.627,0,1.446,1.085,1.446,2.169c0,5.244,0,10.487,0,15.73
		c-0.181,7.774-5.424,11.934-12.837,10.667c-4.339-0.723-7.232-4.52-7.413-9.221C130.413,476.574,130.594,473.682,130.594,470.789
		L130.594,470.789z"/>
	<path fill="#0090BE" d="M447.726,474.405c0-3.978,0-7.955,0-11.934c0-1.627,0.723-2.35,2.352-2.35c3.615,0,7.412,0,11.027,0
		c1.087,0,1.81,0.181,1.629,1.446c0,1.084-0.906,1.084-1.81,1.084c-2.893,0-5.786,0-8.679,0c-1.265,0-1.807,0.182-1.807,1.629
		c0.181,2.169,0,4.338,0,6.509c0,1.266,0.542,1.627,1.626,1.627c2.351,0,4.702,0,7.233,0c0.903,0,1.807,0,1.807,1.266
		c0,1.265-0.903,1.084-1.626,1.084c-2.351,0-4.702,0.181-6.87,0c-1.628,0-1.989,0.543-1.989,1.99c0.181,2.35,0.181,4.7,0,7.231
		c-0.181,1.808,0.542,2.17,2.17,2.17c2.894-0.182,5.604,0,8.496,0c0.726,0,1.629,0,1.629,1.084c0,1.085-0.542,1.266-1.448,1.266
		c-3.977,0-7.773,0-11.75,0c-1.448,0-1.99-0.723-1.99-2.169C447.726,482.36,447.726,478.382,447.726,474.405z"/>
	<path fill="#0091BE" d="M435.25,525.03c0-3.977,0-7.774,0-11.752c0-1.808,0.542-2.531,2.352-2.531c3.615,0,7.231,0,10.847,0
		c0.903,0,1.81,0,1.81,1.266s-0.906,1.266-1.81,1.266c-2.893,0-5.786,0-8.679,0c-1.265,0-1.807,0.361-1.807,1.809
		c0.181,2.169,0.181,4.158,0,6.328c0,1.446,0.542,1.808,1.807,1.627c2.351,0,4.702,0,7.233,0c0.903,0,1.626,0.181,1.626,1.266
		s-0.723,1.266-1.626,1.266c-2.531,0-4.883,0-7.414,0c-1.265,0-1.626,0.361-1.626,1.628c0,2.53,0,5.242,0,7.774
		c0,1.266,0.361,1.627,1.626,1.627c2.893,0,5.967,0,8.859,0c0.903,0,1.81,0,1.81,1.266c0,1.265-0.906,1.265-1.81,1.265
		c-3.796,0-7.593,0-11.208,0c-1.629,0-2.171-0.723-2.171-2.169C435.25,532.985,435.25,529.008,435.25,525.03z"/>
	<path fill="#0090BE" d="M203.639,534.975c1.627-4.701,3.254-9.402,4.881-14.283c0.904-2.713,1.989-5.605,2.893-8.318
		c0.361-1.446,1.266-1.988,2.531-1.627c1.627,0.543,0.542,1.627,0.181,2.351c-2.893,7.956-5.786,16.092-8.679,24.047
		c-0.361,1.085-0.723,2.171-2.169,2.171c-1.627,0-1.989-1.086-2.351-2.352c-2.893-7.955-5.786-15.91-8.679-24.047
		c-0.181-0.543-1.265-1.627,0-2.17c1.085-0.361,2.17-0.181,2.712,1.266c2.351,6.689,4.701,13.38,7.051,20.069
		c0.361,0.905,0.724,1.809,1.085,2.894C203.277,534.975,203.458,534.975,203.639,534.975z"/>
	<path fill="#008FBF" d="M327.492,474.224c0-3.978,0-7.774,0-11.753c0-1.808,0.542-2.53,2.349-2.53c3.615,0,7.053,0,10.669,0
		c0.903,0,1.987,0,1.987,1.446s-1.084,1.084-1.807,1.084c-2.713,0-5.425,0-8.318,0c-1.445,0-2.17,0.181-2.17,1.99
		c0.181,1.988,0.181,3.977,0,5.785c0,1.446,0.363,1.989,1.989,1.989c2.352-0.181,4.702,0,6.87,0c0.905,0,1.81,0,1.81,1.265
		c0,1.266-1.087,1.085-1.81,1.085c-2.351,0-4.699,0-7.231,0c-1.084,0-1.628,0.181-1.628,1.446c0,2.713,0,5.425,0,8.317
		c0,1.085,0.363,1.446,1.447,1.446c3.074,0,6.147,0,9.402,0c0.903,0,1.626,0,1.626,1.085s-0.723,1.266-1.626,1.266
		c-3.978,0-7.776,0-11.753,0c-1.445,0-1.807-0.724-1.807-1.988C327.492,482.36,327.492,478.382,327.492,474.224z"/>
	<path fill="#0090BE" d="M512.455,539.494c-2.352,0.182-4.16-0.362-5.967-1.266c-0.724-0.361-1.268-0.724-1.629-1.446
		c-0.181-0.542-0.361-1.266,0.181-1.808c0.542-0.543,1.086,0,1.629,0.181c1.987,1.266,4.157,1.988,6.509,1.808
		c2.712-0.181,4.699-1.446,5.244-3.615c0.723-2.352-0.182-4.34-2.532-5.786c-1.989-1.086-3.978-1.989-5.967-3.074
		c-3.797-2.169-5.244-5.605-3.978-9.221c1.085-3.255,5.062-5.063,9.041-4.521c1.445,0.181,2.891,0.543,4.158,1.266
		c1.084,0.542,1.265,1.627,0.902,2.532c-0.723,1.084-1.445,0-1.989-0.181c-1.987-0.905-3.977-1.629-6.328-0.905
		c-3.435,1.086-4.338,4.701-1.987,7.233c0.903,0.903,1.987,1.627,3.254,2.169c1.446,0.723,2.894,1.446,4.339,2.169
		c3.616,1.99,5.063,5.063,4.341,8.498c-0.905,3.436-3.799,5.967-7.775,6.148C513.178,539.494,512.635,539.494,512.455,539.494z"/>
	<path fill="#0090BE" d="M386.432,539.315c-1.987,0.18-3.977-0.363-5.783-1.267c-0.544-0.181-1.086-0.543-1.448-1.085
		c-0.542-0.723-0.723-1.446-0.181-2.169c0.543-0.724,1.266,0,1.81,0.181c1.987,1.084,3.977,1.808,6.328,1.627
		c2.71-0.181,4.699-1.446,5.423-3.617c0.725-2.53-0.182-4.52-2.713-5.965c-1.987-1.086-3.978-1.99-5.965-3.074
		c-3.437-1.989-4.883-5.063-3.979-8.498c0.905-3.255,3.798-5.243,7.595-5.243c1.807,0,3.615,0.361,5.241,1.266
		c0.545,0.361,1.087,0.542,1.268,1.265c0.181,0.724,0.181,1.266-0.361,1.81c-0.542,0.361-0.906-0.181-1.268-0.363
		c-2.168-1.084-4.338-1.988-6.87-1.265c-3.073,1.084-4.157,4.52-1.989,6.87c0.725,0.905,1.809,1.628,2.893,2.17
		c1.629,0.904,3.255,1.627,4.883,2.351c3.436,1.988,4.883,5.063,4.158,8.497c-0.723,3.255-3.616,5.786-7.231,6.147
		C387.699,539.494,386.977,539.315,386.432,539.315z"/>
	<path fill="#0090BF" d="M333.639,539.494c-2.531,0.182-4.34-0.543-6.146-1.266c-0.545-0.181-1.087-0.543-1.268-1.085
		c-0.361-0.542-0.542-1.446,0-1.988c0.542-0.724,1.268-0.181,1.629,0.181c1.987,1.085,3.977,1.808,6.328,1.808
		c2.893-0.181,4.699-1.446,5.422-3.796c0.725-2.352-0.181-4.34-2.71-5.786c-1.989-1.086-4.16-1.989-6.147-3.255
		c-2.17-1.266-3.799-2.893-3.979-5.605c-0.361-4.701,2.352-7.774,7.233-8.136c1.988-0.181,3.978,0.361,5.784,1.266
		c1.268,0.542,1.629,1.627,1.087,2.713c-0.724,1.265-1.448,0-2.171-0.181c-1.987-0.905-3.977-1.629-6.328-0.905
		c-3.254,1.086-4.157,4.521-1.807,7.051c0.903,0.905,1.987,1.628,3.255,2.171c1.445,0.723,3.073,1.446,4.519,2.169
		c3.616,1.989,4.883,4.882,4.158,8.679c-0.723,3.436-3.797,5.787-7.593,5.967C334.182,539.494,333.639,539.494,333.639,539.494z"/>
	<path fill="#0090BE" d="M307.06,488.688c-5.244,0-8.859-2.35-10.485-7.413c-1.81-5.424-1.629-10.666,1.084-15.729
		c3.254-5.785,11.392-7.594,16.813-3.797c0.545,0.361,1.087,0.723,1.268,1.447c0.181,0.542,0.181,1.266-0.181,1.627
		c-0.542,0.542-1.087,0-1.448-0.361c-1.445-0.904-2.893-1.81-4.519-1.99c-4.883-0.723-8.499,1.447-10.127,6.147
		c-1.084,3.617-1.265,7.232-0.181,10.849c1.628,5.425,6.511,7.774,11.753,5.967c0.905-0.361,1.809-0.904,2.712-1.266
		c0.723-0.361,1.448-1.447,1.99-0.542c0.542,0.903,0.181,1.988-0.723,2.712c-1.81,1.265-3.979,1.988-6.147,2.35
		C308.144,488.688,307.602,488.688,307.06,488.688z"/>
	<path fill="#008FB9" d="M45.073,525.21c0-3.977,0-8.136,0-12.113c0-1.627,0.542-2.17,2.17-2.17c3.435,0,6.871,0,10.486,0
		c0.904,0,1.809,0,1.809,1.266s-0.905,1.266-1.809,1.266c-2.531,0-5.243,0-7.774,0c-1.447,0-1.989,0.361-1.808,1.809
		c0.181,2.17,0.181,4.52,0,6.689c0,1.446,0.361,1.989,1.989,1.989c2.531-0.181,4.881,0,7.413,0c0.904,0,1.627,0,1.627,1.084
		c0,1.266-0.723,1.266-1.808,1.266c-2.531,0-5.063,0-7.594,0c-1.266,0-1.627,0.363-1.627,1.628c0,3.073,0,6.147,0,9.401
		c0,1.085-0.181,1.99-1.627,1.99c-1.447,0-1.266-1.086-1.266-1.99C45.073,533.166,45.073,529.189,45.073,525.21z"/>
	<path fill="#0090BE" d="M360.759,525.03c1.989-4.157,3.977-8.136,5.786-11.933c0.361-0.543,0.542-1.266,0.903-1.808
		c0.544-0.904,1.628-0.724,2.351-0.362c1.084,0.543,0.181,1.266,0,1.808c-1.989,4.159-4.158,8.318-6.147,12.476
		c-1.084,1.99-1.626,3.798-1.445,5.967c0.181,2.171,0,4.159,0,6.328c0,1.085,0,1.989-1.447,1.989c-1.446,0-1.627-0.904-1.446-1.989
		c0.904-6.87-1.086-13.018-4.701-18.804c-1.084-1.627-1.808-3.615-2.713-5.424c-0.361-0.724-1.265-1.627-0.361-1.988
		c0.905-0.543,2.17-0.543,2.894,0.903c0.723,1.808,1.628,3.436,2.531,5.243C358.227,519.606,359.493,522.137,360.759,525.03z"/>
	<path fill="#0090BC" d="M110.886,475.67c0,3.436,0,6.871,0,10.306c0,1.085,0.542,2.531-1.447,2.531
		c-1.808,0-1.446-1.446-1.446-2.531c0-7.051,0-13.922,0-20.973c0-1.808-0.361-2.713-2.531-2.532c-1.627,0.181-3.435,0-5.243,0
		c-0.904,0-1.446-0.361-1.446-1.265c0-0.904,0.361-1.266,1.265-1.266c6.147,0,12.114,0,18.262,0c0.904,0,1.447,0.361,1.447,1.266
		c0,1.084-0.543,1.265-1.628,1.265c-1.808,0-3.616,0-5.424,0c-1.627-0.181-2.169,0.362-2.169,1.99
		C111.067,468.257,110.886,472.054,110.886,475.67z"/>
	<path fill="#0091BE" d="M398.185,475.49c0,3.616,0,7.052,0,10.668c0,1.084,0.542,2.53-1.445,2.53c-1.809,0-1.447-1.446-1.447-2.53
		c0-7.052,0-14.103,0-21.154c0-1.808-0.361-2.532-2.168-2.352c-1.81,0.182-3.618,0-5.425,0c-0.903,0-1.447-0.361-1.447-1.265
		c0-0.904,0.361-1.266,1.267-1.266c6.147,0,12.114,0,18.262,0c0.903,0,1.445,0.361,1.445,1.266c0,0.903-0.542,1.265-1.445,1.265
		c-1.99,0-3.979,0-5.786,0c-1.448,0-1.81,0.362-1.81,1.81C398.365,468.076,398.185,471.693,398.185,475.49z"/>
	<path fill="#0090BF" d="M412.65,526.115c0-3.435-0.181-6.87,0-10.124c0.181-2.352-0.723-2.894-2.713-2.713
		c-1.628,0.181-3.254,0-4.702,0c-0.903,0-1.445-0.181-1.445-1.266s0.542-1.446,1.445-1.266c5.967,0,11.934,0,17.72,0
		c0.903,0,1.629,0.181,1.629,1.266s-0.726,1.266-1.629,1.266c-1.809,0-3.796,0-5.605,0c-1.445,0-1.807,0.361-1.807,1.809
		c0,7.413,0,14.826,0,22.058c0,0.724,0.361,1.627-0.905,1.988c-1.445,0.362-1.987-0.361-1.987-1.808
		C412.831,533.709,412.65,529.911,412.65,526.115z"/>
	<path fill="#0090BF" d="M153.014,524.668c0-3.977,0-8.136,0-12.114c0-0.903,0-1.808,1.266-1.808c1.447,0,1.447,0.724,1.447,1.808
		c0,7.232,0,14.646,0,21.878c0,1.809,0.542,2.17,2.169,2.17c2.532-0.181,4.882,0,7.414,0c0.904,0,1.988,0,1.988,1.266
		c0,1.447-1.084,1.265-1.988,1.265c-3.254,0-6.328,0-9.583,0c-1.989,0-2.712-0.542-2.712-2.53
		C153.014,532.623,153.014,528.647,153.014,524.668z"/>
	<path fill="#0090BC" d="M177.784,524.849c0-3.977,0-8.136,0-12.114c0-0.903-0.181-1.808,1.265-1.988
		c1.627,0,1.447,0.904,1.447,1.988c0,8.138,0,16.273,0,24.409c0,1.085,0,2.171-1.447,1.988c-1.627,0-1.446-1.084-1.446-2.169
		C177.784,532.985,177.784,529.008,177.784,524.849z"/>
	<path fill="#008FBF" d="M197.853,474.224c0,4.158,0,8.317,0,12.476c0,0.903,0,1.808-1.265,1.808c-1.266,0-1.447-0.723-1.447-1.627
		c0-8.316,0-16.815,0-25.132c0-0.904,0-1.808,1.266-1.808c1.446,0,1.446,0.903,1.446,1.808
		C197.672,466.088,197.853,470.065,197.853,474.224z"/>
	<path fill="#008FBF" d="M228.59,525.03c0,4.159,0,8.137,0,12.295c0,1.085-0.181,1.808-1.447,1.808s-1.266-0.903-1.266-1.808
		c0-8.316,0-16.633,0-24.951c0-1.084,0-1.808,1.446-1.808c1.447,0,1.266,0.904,1.266,1.808
		C228.59,516.713,228.59,520.872,228.59,525.03z"/>
</g>
<g>
	<path fill="#008FBF" d="M527.875,409.677c-6.871,0-13.561,0-20.069,0c-1.086,0-1.447-0.904-1.809-1.627
		c-5.425-9.041-10.667-17.9-16.091-26.939c-0.724-1.447-1.629-1.99-3.255-1.81c-2.531,0.182-5.244,0.182-7.775,0
		c-1.626,0-1.987,0.362-1.987,1.99c0,8.678,0,17.537,0,26.216c0,1.809-0.543,2.351-2.352,2.351c-4.52-0.181-9.04-0.181-13.74,0
		c-1.447,0-1.989-0.361-1.989-1.808c0-27.483,0-55.146,0-82.628c0-1.266,0.181-1.988,1.809-1.988c11.57,0,23.323-0.181,34.895,0.181
		c8.678,0.181,16.092,3.615,21.878,10.305c9.401,11.029,8.677,32.545-7.775,41.405c-1.808,0.903-1.808,1.627-0.724,3.254
		c5.786,9.583,11.572,19.165,17.358,28.748C526.79,407.689,527.332,408.592,527.875,409.677z M477.069,351.096
		c0,3.617,0,7.232,0,10.849c0,0.904,0,1.808,1.265,1.627c5.605-0.181,11.029,0.362,16.635-0.361
		c5.965-0.903,10.125-5.063,10.306-10.668c0.361-7.231-2.894-11.933-9.402-13.198c-5.785-1.085-11.752-0.361-17.719-0.542
		c-1.265,0-1.084,0.903-1.084,1.627C477.069,344.045,477.069,347.66,477.069,351.096z"/>
	<path fill="#008FBF" d="M196.279,361.764c0,15.368,0,30.194,0,45.021c0,3.254,0.362,2.893-2.893,2.893c-4.52,0-9.04,0-13.379,0
		c-1.447,0-1.808-0.361-1.808-1.808c0-28.206,0-56.411,0-84.616c0-0.544-0.181-1.086,0.542-1.628
		c16.815,16.453,33.63,32.725,50.625,49.359c0.723-0.903,0.362-1.627,0.362-2.35c0-14.466,0-28.749,0-43.213
		c0-1.627,0.543-2.169,2.17-2.169c4.701,0.181,9.221,0.181,13.921,0c1.809,0,2.17,0.723,2.17,2.35c0,27.844,0,55.688,0,83.532
		c0,0.542,0.362,1.445-0.361,1.808c-0.904,0.361-1.266-0.543-1.627-1.085c-15.912-15.368-31.641-30.918-47.552-46.286
		C197.725,363.03,197.183,362.488,196.279,361.764z"/>
	<path fill="#008FBF" d="M364.789,354.169c0-9.582,0-19.165,0-28.566c0-1.808,0.542-2.35,2.351-2.169
		c4.52,0.181,9.041,0.181,13.74,0c1.629,0,2.171,0.361,2.171,2.169c0,16.996,0,33.811,0,50.807c0,2.53,0.181,4.882,0.723,7.231
		c1.809,7.413,6.87,11.391,14.826,11.21c7.593-0.181,12.656-4.339,14.282-11.571c0.542-2.351,0.542-4.882,0.542-7.413
		c0-16.634,0-33.448,0-50.083c0-1.988,0.545-2.53,2.352-2.35c4.521,0.181,9.04,0.181,13.742,0c1.445,0,1.987,0.181,1.987,1.808
		c0,18.442,0.181,36.884-0.181,55.325c-0.181,11.21-4.338,20.612-14.463,26.398c-4.521,2.531-9.401,3.797-14.465,4.158
		c-5.967,0.361-11.934,0.181-17.72-1.808c-10.848-3.798-16.995-11.753-18.984-22.963c-1.084-5.966-0.723-11.933-0.723-17.898
		C364.789,363.572,364.789,358.87,364.789,354.169z"/>
	<path fill="#008FBF" d="M96.836,366.464c0-13.56,0-27.12,0-40.861c0-1.627,0.181-2.35,2.169-2.35c17.177,0,34.353,0,51.71,0
		c1.627,0,2.169,0.361,2.169,2.169c-0.181,3.977-0.181,8.136,0,12.114c0,1.988-0.723,2.169-2.35,2.169c-11.03,0-22.059,0-32.907,0
		c-1.988,0-2.531,0.361-2.531,2.532c0.181,4.7,0.181,9.401,0,14.103c0,1.627,0.543,1.988,1.989,1.988c9.402,0,18.984,0,28.386,0
		c1.808,0,2.351,0.361,2.351,2.169c-0.181,3.798-0.181,7.595,0,11.211c0,1.445-0.361,1.989-1.989,1.989c-9.402,0-18.985,0-28.387,0
		c-1.988,0-2.351,0.542-2.351,2.35c0.181,5.063,0.181,10.125,0,15.188c0,1.808,0.543,2.17,2.17,2.17c11.391,0,22.781,0,34.353,0
		c1.808,0,2.351,0.362,2.351,2.17c-0.181,4.157-0.181,8.316,0,12.656c0,1.446-0.362,1.627-1.808,1.627c-17.719,0-35.619,0-53.338,0
		c-1.808,0-1.808-0.724-1.808-2.169C97.017,393.948,96.836,380.205,96.836,366.464z"/>
	<path fill="#008FBF" d="M306.931,323.253c11.572,0,22.963,0,34.533,0c1.81,0,2.532,0.361,2.532,2.35
		c-0.181,3.615-0.181,7.413,0,11.029c0.181,2.17-0.723,2.531-2.532,2.351c-7.773-0.181-15.549,0-23.142,0
		c-1.99,0-2.352,0.542-2.352,2.53c0,21.878,0,43.755,0,65.813c0,1.989-0.361,2.712-2.529,2.531c-4.341-0.181-8.859-0.181-13.2,0
		c-1.807,0-2.349-0.361-2.349-2.169c0-21.878,0-43.755,0.181-65.814c0-2.169-0.542-2.711-2.713-2.711
		c-7.775,0.181-15.55,0-23.144,0.181c-1.627,0-2.169-0.542-1.989-1.988c0.181-3.979,0.181-7.774,0-11.753
		c0-1.627,0.542-1.988,2.169-1.988C283.607,323.253,295.36,323.253,306.931,323.253z"/>
	<path fill="#008EBD" d="M22.164,350.193c-4.52,8.858-5.243,17.899-2.169,27.301c5.966,17.72,28.386,23.144,41.766,10.126
		c0.904-0.905,1.808-1.628,2.712-2.713c3.435,3.979,6.87,8.136,10.486,12.114c0.904,1.084,0,1.446-0.542,2.169
		c-5.786,5.967-12.476,9.764-20.612,11.029c-13.018,2.171-25.313,0.543-36.342-7.594c-9.944-7.231-15.549-17.357-16.995-29.472
		c-1.627-13.018,0.904-24.949,9.04-35.437c1.266-1.627,2.351-3.074,3.978-4.159c1.446,0.904,2.35,1.808,1.085,3.436
		c-0.362,0.543-0.181,0.904,0.542,1.085c0.904,0.181,0.904,0.724,0.904,1.446c0,0.904,0.361,1.627,0.904,2.35
		c1.084,1.267,1.627,2.713,1.988,4.159C19.632,348.022,20.718,349.108,22.164,350.193z"/>
	<path fill="#008FBF" d="M566.93,366.645c0,13.742,0,27.303,0,41.044c0,1.627-0.364,2.169-2.171,2.169
		c-4.702-0.181-9.221-0.181-13.923,0c-1.626,0-2.168-0.361-2.168-1.988c0-27.482,0-54.965,0-82.447c0-1.627,0.542-2.169,2.168-1.988
		c4.521,0.181,9.04,0.181,13.742,0c1.807,0,2.352,0.361,2.352,2.35C566.746,339.163,566.93,352.905,566.93,366.645z"/>
	<path fill="#008FBF" d="M22.164,350.193c-1.446-1.085-2.712-2.171-3.254-4.34c-0.361-1.266-0.904-2.893-1.988-4.159
		c-0.543-0.723-0.904-1.446-0.904-2.35c0-0.724-0.181-1.266-0.904-1.446c-0.542-0.181-0.904-0.542-0.542-1.085
		c1.265-1.628,0.361-2.531-1.085-3.436c5.424-5.786,12.294-8.679,19.889-10.487c1.988-0.542,3.978-0.542,6.147-0.903
		c3.254,0,6.328,0,9.583,0c9.944,0.542,18.261,4.701,25.494,11.571c0.904,0.904,0.904,1.266,0,2.352
		c-3.255,3.615-6.329,7.231-9.402,10.848c-0.905,1.084-1.266,0.903-2.17,0c-3.616-3.978-7.955-6.69-13.199-7.774
		c-7.413-1.627-14.283-0.362-20.793,3.616C26.142,344.406,24.333,347.48,22.164,350.193z"/>
	<path fill="#4C9DB9" d="M49.285,321.987c-3.254,0-6.328,0-9.583,0C42.776,321.263,46.03,321.444,49.285,321.987z"/>
</g>
</svg>
