<?xml version="1.0" encoding="utf-8"?>
<!-- Generator: Adobe Illustrator 16.0.0, SVG Export Plug-In . SVG Version: 6.00 Build 0)  -->
<!DOCTYPE svg PUBLIC "-//W3C//DTD SVG 1.1//EN" "http://www.w3.org/Graphics/SVG/1.1/DTD/svg11.dtd">
<svg version="1.1" id="Calque_1" xmlns="http://www.w3.org/2000/svg" xmlns:xlink="http://www.w3.org/1999/xlink" x="0px" y="0px"
	 width="850.391px" height="236.823px" viewBox="0 173.067 850.391 236.823" enable-background="new 0 173.067 850.391 236.823"
	 xml:space="preserve">
<g>
	<g>
		<g>
			<path fill="#008EBF" d="M309.431,320.345c0,0.181,0,0.36,0,0.541s0,0.181-0.181,0.362c0,0.179-0.181,0.179-0.181,0.179
				s-0.181,0-0.36,0h-8.48v25.626v0.18l-0.182,0.181c-0.181,0-0.181,0-0.361,0.181c-0.18,0-0.36,0-0.722,0c-0.18,0-0.541,0-0.722,0
				c-0.181,0-0.361,0-0.361-0.181c-0.18,0-0.18-0.181-0.18-0.181v-0.18v-25.626h-8.482c-0.181,0-0.181,0-0.361,0l-0.181-0.179
				c0-0.183-0.18-0.183-0.18-0.362s0-0.36,0-0.541c0-0.182,0-0.362,0-0.541c0-0.181,0-0.361,0.18-0.361
				c0-0.18,0.181-0.18,0.181-0.18s0.181,0,0.361,0h19.669c0.181,0,0.181,0,0.361,0l0.181,0.18c0,0.182,0.181,0.182,0.181,0.361
				C309.431,319.982,309.431,320.163,309.431,320.345z"/>
			<path fill="#008EBF" d="M340.649,337.127c0,1.806-0.18,3.248-0.723,4.69c-0.541,1.265-1.263,2.526-2.164,3.43
				c-0.901,0.901-1.985,1.625-3.249,2.165c-1.264,0.543-2.707,0.723-4.332,0.723c-1.443,0-2.707-0.18-3.969-0.723
				c-1.264-0.54-2.347-1.082-3.248-1.984c-0.902-0.901-1.625-1.984-1.985-3.247c-0.541-1.264-0.723-2.888-0.723-4.513v-18.045
				v-0.182l0.182-0.18c0.181,0,0.181,0,0.361-0.181c0.18,0,0.36,0,0.723,0c0.179,0,0.541,0,0.722,0c0.179,0,0.359,0,0.359,0.181
				c0.182,0,0.182,0.18,0.182,0.18v0.182v17.504c0,1.442,0.181,2.706,0.541,3.79c0.361,1.082,0.902,1.983,1.443,2.707
				c0.723,0.721,1.444,1.263,2.347,1.623c0.901,0.361,1.984,0.542,3.248,0.542c1.263,0,2.166-0.181,3.248-0.542
				c0.902-0.36,1.805-0.902,2.346-1.623c0.722-0.724,1.083-1.625,1.444-2.707c0.36-1.084,0.541-2.348,0.541-3.609v-17.685v-0.182
				l0.181-0.18c0.181,0,0.181,0,0.362-0.181c0.179,0,0.359,0,0.72,0c0.181,0,0.542,0,0.722,0c0.182,0,0.362,0,0.362,0.181
				c0.181,0,0.181,0.18,0.181,0.18v0.182v17.504H340.649L340.649,337.127z"/>
			<path fill="#008EBF" d="M373.132,347.053c0,0.18,0,0.18,0,0.18l-0.181,0.181c-0.18,0-0.18,0.181-0.36,0.181s-0.362,0-0.722,0
				c-0.181,0-0.542,0-0.542,0c-0.181,0-0.361,0-0.361-0.181c-0.181,0-0.181-0.181-0.36-0.181c0-0.18-0.181-0.18-0.181-0.359
				l-2.707-6.857c-0.361-0.722-0.722-1.444-0.902-2.165c-0.36-0.723-0.723-1.265-1.264-1.805c-0.541-0.543-1.083-0.903-1.805-1.264
				c-0.721-0.361-1.624-0.361-2.526-0.361h-2.888v12.813v0.181l-0.18,0.181c-0.181,0-0.181,0-0.361,0.182c-0.181,0-0.362,0-0.722,0
				c-0.182,0-0.541,0-0.723,0c-0.181,0-0.359,0-0.359-0.182c-0.182,0-0.182-0.181-0.182-0.181v-0.181v-26.707
				c0-0.542,0.182-0.901,0.36-1.083c0.362-0.18,0.542-0.359,0.903-0.359h5.414c0.722,0,1.263,0,1.805,0c0.541,0,0.901,0,1.263,0.181
				c1.082,0.18,1.985,0.541,2.888,0.9c0.722,0.361,1.443,0.902,1.984,1.625c0.541,0.541,0.902,1.263,1.264,2.166
				c0.181,0.722,0.36,1.624,0.36,2.524c0,0.902-0.18,1.807-0.36,2.527c-0.182,0.722-0.723,1.444-1.083,1.984
				c-0.542,0.542-1.083,1.082-1.806,1.443c-0.722,0.36-1.443,0.723-2.166,1.082c0.542,0.182,0.903,0.541,1.265,0.902
				c0.359,0.36,0.722,0.722,1.082,1.082c0.361,0.543,0.722,0.902,0.902,1.625c0.361,0.541,0.542,1.263,0.902,1.984l2.708,6.678
				c0.179,0.541,0.36,0.901,0.36,1.083C373.132,346.872,373.132,347.053,373.132,347.053z M368.26,326.842
				c0-1.264-0.359-2.166-0.722-3.068c-0.541-0.902-1.444-1.443-2.707-1.805c-0.362-0.181-0.903-0.181-1.444-0.181s-1.083,0-1.984,0
				h-3.43v10.466h4.15c1.083,0,1.985-0.181,2.888-0.359c0.723-0.36,1.444-0.722,1.985-1.084c0.541-0.54,0.902-1.082,1.082-1.624
				C368.26,328.104,368.26,327.563,368.26,326.842z"/>
			<path fill="#008EBF" d="M388.29,347.232v0.181l-0.18,0.181c-0.182,0-0.182,0-0.361,0.182c-0.18,0-0.36,0-0.722,0
				c-0.181,0-0.542,0-0.723,0c-0.18,0-0.36,0-0.36-0.182c-0.182,0-0.182-0.181-0.182-0.181v-0.181v-27.608v-0.182l0.182-0.18
				c0.181,0,0.181,0,0.36-0.181c0.181,0,0.361,0,0.542,0s0.541,0,0.723,0c0.18,0,0.359,0,0.359,0.181c0.182,0,0.182,0.18,0.182,0.18
				v0.182v27.608H388.29z"/>
			<path fill="#008EBF" d="M423.3,346.33c0,0.181,0,0.542-0.181,0.723c0,0.18-0.182,0.359-0.362,0.359
				c-0.179,0.181-0.179,0.181-0.358,0.181c-0.182,0-0.362,0-0.362,0h-0.542c-0.36,0-0.541,0-0.721-0.181
				c-0.182,0-0.542-0.181-0.724-0.359c-0.181-0.181-0.541-0.361-0.721-0.723s-0.542-0.722-0.722-1.264l-10.105-17.686
				c-0.542-0.902-1.084-1.804-1.443-2.706c-0.542-0.902-0.902-1.806-1.443-2.707l0,0c0,1.082,0,2.166,0,3.248
				c0,1.083,0,2.165,0,3.248v18.407v0.181l-0.182,0.18c-0.181,0-0.181,0-0.36,0.181c-0.182,0-0.362,0-0.722,0
				c-0.181,0-0.542,0-0.723,0s-0.361,0-0.361-0.181c-0.181,0-0.181-0.18-0.181-0.18v-0.181v-26.709c0-0.54,0.181-0.9,0.362-1.081
				c0.36-0.183,0.542-0.362,0.902-0.362h1.082c0.361,0,0.722,0,0.902,0s0.361,0.181,0.723,0.362
				c0.182,0.181,0.359,0.359,0.541,0.541c0.182,0.181,0.36,0.54,0.542,0.901l7.761,13.533c0.541,0.902,0.901,1.625,1.442,2.526
				c0.362,0.723,0.902,1.625,1.264,2.348c0.36,0.72,0.902,1.442,1.263,2.163c0.362,0.723,0.722,1.444,1.265,2.166l0,0
				c0-1.263,0-2.525,0-3.788c0-1.264,0-2.707,0-3.79v-16.061v-0.182l0.18-0.18c0.181,0,0.181,0,0.361-0.181c0.182,0,0.361,0,0.724,0
				c0.181,0,0.358,0,0.54,0c0.181,0,0.361,0,0.361,0.181c0.181,0,0.181,0.18,0.181,0.18v0.182v26.707H423.3V346.33z"/>
			<path fill="#008EBF" d="M458.489,322.691c0,0.18,0,0.359,0,0.54c0,0.182,0,0.361-0.182,0.361c0,0.181-0.181,0.181-0.181,0.181
				h-0.181c-0.182,0-0.541-0.181-0.901-0.36c-0.362-0.361-0.902-0.542-1.625-0.901c-0.722-0.362-1.443-0.723-2.525-0.903
				c-0.902-0.358-2.165-0.358-3.429-0.358c-1.625,0-3.249,0.358-4.512,0.899c-1.263,0.543-2.347,1.444-3.429,2.527
				c-0.902,1.083-1.625,2.346-2.165,3.789c-0.543,1.443-0.724,3.068-0.724,4.872c0,1.984,0.36,3.608,0.902,5.053
				c0.541,1.443,1.264,2.706,2.166,3.791c0.901,1.081,2.166,1.804,3.429,2.346c1.264,0.541,2.706,0.901,4.331,0.901
				c1.082,0,1.985-0.18,3.067-0.36c1.083-0.181,1.983-0.541,2.887-1.083v-9.202h-7.218c-0.18,0-0.361-0.181-0.542-0.361
				s-0.181-0.541-0.181-0.902c0-0.181,0-0.359,0-0.541c0-0.181,0-0.359,0.181-0.359c0-0.182,0.181-0.182,0.181-0.182
				s0.183,0,0.361,0h8.662c0.181,0,0.181,0,0.36,0c0.181,0,0.36,0.182,0.36,0.182c0.18,0.18,0.18,0.18,0.361,0.359
				c0,0.182,0.18,0.36,0.18,0.723v10.646c0,0.361,0,0.723-0.18,0.902c-0.183,0.181-0.361,0.542-0.723,0.722
				c-0.36,0.181-0.902,0.542-1.625,0.723c-0.722,0.361-1.263,0.541-1.983,0.722c-0.723,0.181-1.444,0.361-2.165,0.361
				c-0.724,0.182-1.444,0.182-2.166,0.182c-2.166,0-4.15-0.362-5.775-1.083c-1.624-0.724-3.066-1.625-4.33-2.889
				c-1.083-1.264-1.984-2.707-2.708-4.511c-0.54-1.806-0.901-3.608-0.901-5.774c0-2.165,0.361-4.15,1.083-6.137
				c0.723-1.804,1.624-3.428,2.888-4.691s2.707-2.346,4.332-3.066c1.623-0.722,3.606-1.084,5.594-1.084
				c1.082,0,1.985,0.181,2.887,0.362c0.901,0.181,1.806,0.359,2.526,0.722c0.722,0.359,1.443,0.541,1.804,0.901
				c0.543,0.36,0.903,0.543,1.083,0.722c0.183,0.181,0.361,0.361,0.361,0.542C458.128,322.148,458.489,322.329,458.489,322.691z"/>
			<path fill="#008EBF" d="M507.574,343.805c0,0.18,0,0.359,0,0.359c0,0.181,0,0.181,0,0.361s0,0.181-0.183,0.36
				c0,0-0.181,0.181-0.36,0.36c-0.181,0.181-0.36,0.361-0.901,0.722c-0.541,0.361-1.084,0.542-1.805,0.903
				c-0.724,0.359-1.444,0.54-2.526,0.721c-0.901,0.182-1.983,0.362-3.066,0.362c-1.806,0-3.43-0.362-4.873-0.902
				c-1.443-0.542-2.706-1.443-3.789-2.708c-1.083-1.263-1.807-2.706-2.347-4.512c-0.542-1.804-0.902-3.788-0.902-5.954
				c0-2.347,0.36-4.331,0.902-6.316c0.54-1.804,1.443-3.428,2.525-4.691c1.083-1.264,2.347-2.346,3.79-2.889
				c1.444-0.721,3.068-1.082,4.872-1.082c0.903,0,1.624,0,2.526,0.183c0.722,0.18,1.625,0.359,2.164,0.541
				c0.724,0.181,1.266,0.54,1.807,0.901c0.541,0.36,0.902,0.541,1.082,0.724c0.181,0.179,0.36,0.358,0.36,0.358
				s0.181,0.182,0.181,0.361s0,0.18,0,0.36c0,0.182,0,0.361,0,0.541c0,0.181,0,0.36,0,0.542c0,0.181,0,0.36-0.181,0.36
				c0,0.182-0.181,0.182-0.181,0.182h-0.181c-0.181,0-0.541-0.182-0.901-0.542c-0.362-0.361-0.902-0.722-1.442-1.083
				c-0.544-0.36-1.266-0.723-2.166-1.081c-0.902-0.362-1.985-0.362-3.068-0.362c-1.263,0-2.526,0.181-3.608,0.722
				s-1.984,1.264-2.888,2.348c-0.723,1.081-1.443,2.345-1.805,3.787c-0.361,1.444-0.723,3.249-0.723,5.234
				c0,1.805,0.182,3.608,0.541,5.054c0.361,1.443,1.083,2.706,1.806,3.788c0.721,1.083,1.805,1.807,2.887,2.347
				c1.083,0.542,2.527,0.723,3.971,0.723c1.265,0,2.166-0.181,3.067-0.542c0.903-0.36,1.624-0.541,2.347-1.083
				c0.54-0.36,1.083-0.722,1.624-1.081c0.36-0.362,0.722-0.542,0.901-0.542h0.181l0.181,0.18c0,0.182,0,0.182,0,0.362
				C507.574,343.262,507.574,343.443,507.574,343.805z"/>
			<path fill="#008EBF" d="M534.641,346.33c0,0.181,0,0.36,0,0.542c0,0.181,0,0.359-0.181,0.359c0,0.181-0.18,0.181-0.18,0.181
				s-0.182,0-0.361,0h-13.354c-0.181,0-0.539-0.181-0.9-0.359c-0.361-0.181-0.361-0.542-0.361-1.084v-25.624
				c0-0.541,0.183-0.902,0.361-1.082c0.361-0.181,0.541-0.362,0.9-0.362h13.175c0.181,0,0.181,0,0.36,0l0.182,0.183
				c0,0.181,0.18,0.181,0.18,0.359c0,0.182,0,0.361,0,0.541c0,0.181,0,0.361,0,0.542c0,0.182,0,0.182-0.18,0.36
				c0,0.181-0.182,0.181-0.182,0.181s-0.181,0-0.36,0H522.01v9.925h10.106c0.18,0,0.18,0,0.358,0l0.182,0.183
				c0,0.18,0.182,0.18,0.182,0.359c0,0.181,0,0.361,0,0.54c0,0.182,0,0.362,0,0.543s0,0.181-0.182,0.36
				c-0.182,0.181-0.182,0.181-0.182,0.181s-0.18,0-0.358,0H522.01v11.369h11.91c0.181,0,0.181,0,0.361,0l0.18,0.181
				c0,0.181,0.181,0.181,0.181,0.36C534.641,345.969,534.641,346.149,534.641,346.33z"/>
			<path fill="#008EBF" d="M568.026,346.33c0,0.181,0,0.542-0.182,0.723c0,0.18-0.181,0.359-0.36,0.359
				c-0.18,0.181-0.18,0.181-0.359,0.181s-0.362,0-0.362,0h-0.541c-0.358,0-0.54,0-0.722-0.181c-0.181,0-0.541-0.181-0.722-0.359
				c-0.183-0.181-0.541-0.361-0.723-0.723c-0.181-0.362-0.541-0.722-0.723-1.264l-10.104-17.686
				c-0.542-0.902-1.084-1.804-1.442-2.706c-0.543-0.902-0.903-1.806-1.443-2.707l0,0c0,1.082,0,2.166,0,3.248
				c0,1.083,0,2.165,0,3.248v18.407v0.181l-0.182,0.18c-0.182,0-0.182,0-0.361,0.181c-0.18,0-0.36,0-0.72,0
				c-0.182,0-0.543,0-0.725,0c-0.18,0-0.36,0-0.36-0.181c-0.182,0-0.182-0.18-0.182-0.18v-0.181v-26.709
				c0-0.54,0.182-0.9,0.362-1.081c0.36-0.183,0.541-0.362,0.903-0.362h1.081c0.361,0,0.722,0,0.901,0
				c0.181,0,0.36,0.181,0.724,0.362c0.18,0.181,0.358,0.359,0.54,0.541c0.182,0.181,0.36,0.54,0.542,0.901l7.76,13.533
				c0.541,0.902,0.902,1.625,1.443,2.526c0.359,0.723,0.901,1.625,1.263,2.348c0.362,0.72,0.903,1.442,1.263,2.163
				c0.362,0.723,0.724,1.444,1.267,2.166l0,0c0-1.263,0-2.525,0-3.788c0-1.264,0-2.707,0-3.79v-16.061v-0.182l0.179-0.18
				c0.181,0,0.181,0,0.361-0.181c0.181,0,0.359,0,0.723,0c0.181,0,0.359,0,0.54,0s0.361,0,0.361,0.181
				c0.181,0,0.181,0.18,0.181,0.18v0.182v26.707h-0.181V346.33z"/>
			<path fill="#008EBF" d="M599.968,320.345c0,0.181,0,0.36,0,0.541s0,0.181-0.182,0.362c0,0.179-0.18,0.179-0.18,0.179
				s-0.182,0-0.36,0h-8.482v25.626v0.18l-0.181,0.181c-0.181,0-0.181,0-0.359,0.181c-0.181,0-0.361,0-0.723,0
				c-0.181,0-0.541,0-0.721,0c-0.183,0-0.362,0-0.362-0.181c-0.18,0-0.18-0.181-0.18-0.181v-0.18v-25.626h-8.482
				c-0.18,0-0.18,0-0.359,0l-0.182-0.179c0-0.183-0.18-0.183-0.18-0.362s0-0.36,0-0.541c0-0.182,0-0.362,0-0.541
				c0-0.181,0-0.361,0.18-0.361c0-0.18,0.182-0.18,0.182-0.18s0.181,0,0.359,0h19.67c0.18,0,0.18,0,0.36,0l0.182,0.18
				c0,0.182,0.182,0.182,0.182,0.361C599.968,319.982,599.968,320.163,599.968,320.345z"/>
			<path fill="#008EBF" d="M628.66,347.053c0,0.18,0,0.18,0,0.18l-0.183,0.181c-0.181,0-0.181,0.181-0.358,0.181
				c-0.182,0-0.361,0-0.723,0c-0.182,0-0.541,0-0.541,0c-0.181,0-0.36,0-0.36-0.181c-0.182,0-0.182-0.181-0.36-0.181
				c0-0.18-0.182-0.18-0.182-0.359l-2.706-6.857c-0.362-0.722-0.724-1.444-0.903-2.165c-0.358-0.723-0.722-1.265-1.263-1.805
				c-0.541-0.543-1.083-0.903-1.806-1.264c-0.722-0.361-1.622-0.361-2.525-0.361h-2.888v12.813v0.181l-0.182,0.181
				c-0.18,0-0.18,0-0.359,0.182c-0.182,0-0.36,0-0.723,0c-0.181,0-0.541,0-0.723,0c-0.181,0-0.36,0-0.36-0.182
				c-0.18,0-0.18-0.181-0.18-0.181v-0.181v-26.707c0-0.542,0.18-0.901,0.359-1.083c0.361-0.18,0.542-0.359,0.902-0.359h5.413
				c0.724,0,1.263,0,1.806,0c0.541,0,0.9,0,1.264,0.181c1.082,0.18,1.984,0.541,2.888,0.9c0.722,0.361,1.443,0.902,1.984,1.625
				c0.542,0.541,0.902,1.263,1.263,2.166c0.182,0.722,0.362,1.624,0.362,2.524c0,0.902-0.182,1.807-0.362,2.527
				c-0.181,0.722-0.721,1.444-1.081,1.984c-0.543,0.542-1.084,1.082-1.806,1.443c-0.723,0.36-1.444,0.723-2.166,1.082
				c0.541,0.182,0.902,0.541,1.265,0.902c0.359,0.36,0.721,0.722,1.082,1.082c0.36,0.543,0.723,0.902,0.902,1.625
				c0.359,0.541,0.541,1.263,0.901,1.984l2.707,6.678c0.181,0.541,0.36,0.901,0.36,1.083
				C628.479,346.872,628.66,347.053,628.66,347.053z M623.787,326.842c0-1.264-0.359-2.166-0.721-3.068
				c-0.542-0.902-1.444-1.443-2.707-1.805c-0.361-0.181-0.903-0.181-1.443-0.181c-0.542,0-1.083,0-1.985,0h-3.429v10.466h4.151
				c1.082,0,1.983-0.181,2.887-0.359c0.722-0.36,1.444-0.722,1.984-1.084c0.542-0.54,0.902-1.082,1.083-1.624
				C623.787,328.104,623.787,327.563,623.787,326.842z"/>
			<path fill="#008EBF" d="M656.27,346.33c0,0.181,0,0.36,0,0.542c0,0.181,0,0.359-0.181,0.359c0,0.181-0.182,0.181-0.182,0.181
				s-0.18,0-0.359,0h-13.354c-0.181,0-0.54-0.181-0.902-0.359c-0.361-0.181-0.361-0.542-0.361-1.084v-25.624
				c0-0.541,0.182-0.902,0.361-1.082c0.362-0.181,0.542-0.362,0.902-0.362h13.174c0.181,0,0.181,0,0.36,0l0.18,0.183
				c0,0.181,0.182,0.181,0.182,0.359c0,0.182,0,0.361,0,0.541c0,0.181,0,0.361,0,0.542c0,0.182,0,0.182-0.182,0.36
				c0,0.181-0.18,0.181-0.18,0.181s-0.181,0-0.36,0h-11.729v9.925h10.105c0.181,0,0.181,0,0.361,0l0.181,0.183
				c0,0.18,0.179,0.18,0.179,0.359c0,0.181,0,0.361,0,0.54c0,0.182,0,0.362,0,0.543s0,0.181-0.179,0.36l-0.181,0.181
				c0,0-0.182,0-0.361,0h-10.105v11.369h11.91c0.182,0,0.182,0,0.359,0l0.182,0.181c0,0.181,0.182,0.181,0.182,0.36
				C656.27,345.969,656.27,346.149,656.27,346.33z"/>
			<path fill="#008EBF" d="M306.724,371.594c0,0.181,0,0.361,0,0.542s0,0.181-0.181,0.361c0,0.18-0.18,0.18-0.18,0.18
				s-0.182,0-0.361,0h-11.009v10.828h10.468c0.179,0,0.179,0,0.36,0l0.181,0.181c0,0,0.181,0.179,0.181,0.36c0,0.181,0,0.36,0,0.541
				s0,0.36,0,0.543c0,0.179,0,0.179-0.181,0.358c0,0.182-0.181,0.182-0.181,0.182s-0.182,0-0.36,0h-10.468v12.451v0.182
				l-0.179,0.181c-0.181,0-0.181,0-0.362,0.181c-0.181,0-0.36,0-0.722,0c-0.18,0-0.541,0-0.722,0c-0.18,0-0.36,0-0.36-0.181
				c-0.181,0-0.181-0.181-0.181-0.181v-0.182v-26.707c0-0.541,0.181-0.903,0.361-1.083c0.361-0.182,0.542-0.36,0.901-0.36h12.452
				c0.182,0,0.182,0,0.361,0l0.181,0.18c0,0.182,0.181,0.182,0.181,0.36C306.724,371.233,306.724,371.414,306.724,371.594z"/>
			<path fill="#008EBF" d="M341.733,384.227c0,2.347-0.182,4.331-0.723,6.135c-0.541,1.807-1.263,3.43-2.347,4.693
				c-1.082,1.263-2.345,2.346-3.97,3.066c-1.625,0.723-3.429,1.083-5.595,1.083s-3.97-0.36-5.414-1.083
				c-1.442-0.722-2.707-1.624-3.789-2.888c-0.903-1.263-1.625-2.707-2.166-4.511c-0.542-1.806-0.723-3.791-0.723-6.137
				c0-2.165,0.181-4.33,0.723-6.136c0.541-1.805,1.263-3.43,2.347-4.691c1.082-1.263,2.345-2.346,3.969-3.068
				c1.625-0.721,3.429-1.082,5.594-1.082c1.984,0,3.79,0.361,5.414,0.901c1.443,0.723,2.708,1.625,3.79,2.888
				c0.902,1.266,1.805,2.708,2.166,4.513C341.552,380.076,341.733,382.062,341.733,384.227z M338.845,384.587
				c0-1.623-0.181-3.248-0.541-4.691c-0.361-1.443-0.902-2.707-1.625-3.791c-0.722-1.082-1.625-1.982-2.888-2.524
				c-1.263-0.54-2.707-0.902-4.511-0.902c-1.806,0-3.249,0.362-4.513,0.902c-1.263,0.723-2.166,1.442-2.887,2.706
				c-0.722,1.085-1.263,2.348-1.625,3.791c-0.359,1.442-0.541,3.066-0.541,4.69c0,1.807,0.182,3.429,0.362,4.873
				c0.36,1.443,0.722,2.706,1.443,3.97c0.722,1.082,1.622,1.985,2.887,2.526c1.263,0.541,2.707,0.902,4.511,0.902
				c1.806,0,3.248-0.361,4.512-1.084c1.264-0.722,2.166-1.624,2.888-2.706c0.721-1.082,1.263-2.347,1.624-3.971
				C338.664,387.655,338.845,386.212,338.845,384.587z"/>
			<path fill="#008EBF" d="M372.41,398.303c0,0.181,0,0.181,0,0.181l-0.182,0.181c-0.18,0-0.18,0.181-0.359,0.181
				c-0.181,0-0.362,0-0.722,0c-0.182,0-0.542,0-0.542,0c-0.181,0-0.361,0-0.361-0.181c-0.181,0-0.181-0.181-0.361-0.181
				c0-0.181-0.181-0.181-0.181-0.361l-2.707-6.856c-0.362-0.723-0.722-1.442-0.903-2.166c-0.359-0.723-0.722-1.263-1.263-1.804
				c-0.541-0.543-1.083-0.902-1.804-1.265c-0.723-0.36-1.625-0.36-2.527-0.36h-2.887v12.813v0.181l-0.182,0.181
				c-0.179,0-0.179,0-0.359,0.181c-0.182,0-0.36,0-0.723,0c-0.181,0-0.541,0-0.722,0s-0.36,0-0.36-0.181
				c-0.181,0-0.181-0.181-0.181-0.181v-0.181v-26.709c0-0.541,0.181-0.9,0.36-1.083c0.36-0.181,0.542-0.359,0.901-0.359h5.414
				c0.723,0,1.265,0,1.807,0c0.541,0,0.9,0,1.263,0.181c1.082,0.18,1.984,0.542,2.887,0.902c0.723,0.359,1.444,0.901,1.985,1.625
				c0.542,0.54,0.902,1.263,1.263,2.165c0.182,0.722,0.361,1.624,0.361,2.524c0,0.903-0.181,1.806-0.361,2.527
				s-0.722,1.443-1.083,1.985c-0.541,0.54-1.083,1.082-1.805,1.442s-1.444,0.723-2.166,1.082c0.542,0.182,0.902,0.541,1.264,0.902
				c0.36,0.359,0.723,0.723,1.082,1.082c0.362,0.543,0.723,0.902,0.903,1.624c0.36,0.542,0.541,1.265,0.901,1.984l2.708,6.679
				c0.18,0.541,0.36,0.9,0.36,1.082C372.41,398.121,372.41,398.303,372.41,398.303z M367.719,377.91
				c0-1.264-0.361-2.165-0.902-3.068c-0.541-0.901-1.443-1.443-2.706-1.803c-0.362-0.183-0.903-0.183-1.444-0.183
				c-0.542,0-1.083,0-1.985,0h-3.428v10.468h4.15c1.083,0,1.984-0.182,2.888-0.36c0.722-0.362,1.444-0.722,1.985-1.083
				c0.541-0.542,0.901-1.083,1.082-1.624C367.538,379.354,367.719,378.813,367.719,377.91z"/>
			<path fill="#008EBF" d="M415.54,397.58c0,0.181,0,0.359,0,0.541s0,0.361-0.181,0.361c0,0.181-0.182,0.181-0.182,0.181
				s-0.181,0-0.358,0h-12.272c-0.181,0-0.542-0.181-0.903-0.36c-0.36-0.182-0.36-0.542-0.36-1.083v-26.709v-0.18l0.181-0.182
				c0.18,0,0.18,0,0.361-0.18c0.181,0,0.361,0,0.722,0c0.181,0,0.541,0,0.722,0c0.182,0,0.361,0,0.361,0.18
				c0.18,0,0.18,0.182,0.18,0.182v0.18v25.626h10.828c0.182,0,0.182,0,0.36,0l0.181,0.181c0,0.181,0.182,0.181,0.182,0.36
				C415.54,397.22,415.54,397.4,415.54,397.58z"/>
			<path fill="#008EBF" d="M429.254,398.303v0.181l-0.181,0.181c-0.181,0-0.181,0-0.359,0.181c-0.181,0-0.361,0-0.723,0
				c-0.182,0-0.541,0-0.723,0c-0.18,0-0.36,0-0.36-0.181c-0.18,0-0.18-0.181-0.18-0.181v-0.181v-27.611v-0.181l0.18-0.18
				c0.182,0,0.182,0,0.36-0.182c0.182,0,0.36,0,0.541,0c0.182,0,0.542,0,0.724,0c0.181,0,0.359,0,0.359,0.182
				c0.181,0,0.181,0.18,0.181,0.18v0.181v27.611H429.254z"/>
			<path fill="#008EBF" d="M453.797,398.303c0,0.181-0.18,0.181-0.18,0.36c0,0-0.183,0.181-0.362,0.181s-0.358,0-0.54,0.181
				c-0.181,0-0.362,0-0.723,0c-0.182,0-0.361,0-0.54,0c-0.181,0-0.362,0-0.362,0c-0.181,0-0.181,0-0.359,0c0,0-0.182,0-0.182-0.181
				l-0.181-0.181c0,0,0-0.181-0.183-0.181l-9.742-27.068c0-0.182-0.181-0.36-0.181-0.541c0-0.183,0-0.183,0.181-0.362
				c0.181,0,0.181-0.18,0.542-0.18c0.179,0,0.541,0,0.9,0c0.361,0,0.54,0,0.723,0c0.181,0,0.36,0,0.36,0.18
				c0.181,0,0.181,0.181,0.181,0.181l0.181,0.183l8.843,25.082l0,0l8.661-25.082c0-0.183,0-0.183,0.181-0.183l0.182-0.181
				c0.181,0,0.181,0,0.542-0.18c0.181,0,0.359,0,0.722,0c0.36,0,0.541,0,0.722,0c0.182,0,0.361,0,0.361,0.18
				c0,0,0.181,0.181,0.181,0.362c0,0.181,0,0.359-0.181,0.541L453.797,398.303z"/>
			<path fill="#008EBF" d="M477.798,398.303v0.181l-0.182,0.181c-0.179,0-0.179,0-0.359,0.181c-0.181,0-0.36,0-0.723,0
				c-0.182,0-0.54,0-0.722,0c-0.181,0-0.361,0-0.361-0.181c-0.18,0-0.18-0.181-0.18-0.181v-0.181v-27.611v-0.181l0.18-0.18
				c0.182,0,0.182,0,0.361-0.182c0.182,0,0.359,0,0.54,0c0.182,0,0.542,0,0.724,0c0.181,0,0.36,0,0.36,0.182
				c0.18,0,0.18,0.18,0.18,0.18v0.181v27.611H477.798z"/>
			<path fill="#008EBF" d="M512.805,397.58c0,0.181,0,0.541-0.181,0.723c0,0.181-0.179,0.36-0.359,0.36
				c-0.181,0.181-0.181,0.181-0.36,0.181c-0.181,0-0.361,0-0.361,0h-0.541c-0.361,0-0.541,0-0.722-0.181
				c-0.182,0-0.541-0.181-0.722-0.36c-0.182-0.182-0.542-0.362-0.723-0.723c-0.181-0.361-0.542-0.723-0.723-1.264l-10.105-17.685
				c-0.542-0.903-1.082-1.806-1.442-2.707c-0.542-0.903-0.901-1.805-1.444-2.707l0,0c0,1.083,0,2.166,0,3.248
				c0,1.083,0,2.166,0,3.248v18.406v0.182l-0.18,0.181c-0.182,0-0.182,0-0.361,0.181c-0.181,0-0.359,0-0.722,0
				c-0.182,0-0.541,0-0.723,0c-0.181,0-0.359,0-0.359-0.181c-0.182,0-0.182-0.181-0.182-0.181v-0.182v-26.707
				c0-0.541,0.182-0.903,0.36-1.083c0.361-0.182,0.542-0.36,0.902-0.36h1.083c0.36,0,0.723,0,0.9,0c0.182,0,0.361,0.18,0.724,0.36
				c0.181,0.18,0.36,0.359,0.542,0.542c0.179,0.181,0.358,0.541,0.541,0.9l7.76,13.534c0.541,0.903,0.901,1.624,1.442,2.527
				c0.36,0.722,0.902,1.623,1.264,2.345c0.359,0.723,0.902,1.443,1.264,2.166c0.361,0.722,0.722,1.443,1.263,2.165l0,0
				c0-1.263,0-2.525,0-3.788c0-1.265,0-2.527,0-3.791v-16.602v-0.182l0.183-0.18c0.18,0,0.18,0,0.359-0.181c0.181,0,0.36,0,0.723,0
				c0.181,0,0.36,0,0.542,0c0.179,0,0.358,0,0.358,0.181c0.183,0,0.183,0.18,0.183,0.18v0.182v27.249h-0.183V397.58z"/>
			<path fill="#008EBF" d="M547.995,373.94c0,0.182,0,0.361,0,0.542c0,0.182,0,0.359-0.181,0.359c0,0.181-0.18,0.181-0.18,0.181
				h-0.181c-0.182,0-0.541-0.181-0.903-0.358c-0.359-0.361-0.902-0.542-1.624-0.903s-1.442-0.721-2.526-0.902
				c-0.902-0.359-2.166-0.359-3.429-0.359c-1.624,0-3.248,0.359-4.512,0.9c-1.263,0.542-2.345,1.443-3.429,2.527
				c-0.901,1.082-1.624,2.345-2.165,3.789c-0.541,1.443-0.724,3.066-0.724,4.872c0,1.985,0.362,3.608,0.903,5.054
				c0.541,1.443,1.263,2.706,2.346,3.789c0.902,1.082,2.166,1.805,3.43,2.346c1.264,0.542,2.706,0.902,4.331,0.902
				c1.081,0,1.984-0.181,3.066-0.36c1.083-0.181,1.985-0.542,2.888-1.083v-9.204h-7.219c-0.18,0-0.359-0.18-0.541-0.359
				c-0.181-0.18-0.181-0.54-0.181-0.902c0-0.181,0-0.359,0-0.541c0-0.181,0-0.361,0.181-0.361c0-0.18,0.182-0.18,0.182-0.18
				s0.181,0,0.36,0h8.661c0.181,0,0.362,0,0.362,0c0.18,0,0.359,0.18,0.359,0.18c0.182,0.182,0.182,0.182,0.361,0.361
				c0,0.182,0.179,0.36,0.179,0.723v10.646c0,0.359,0,0.722-0.179,0.901c-0.181,0.181-0.361,0.542-0.722,0.723
				c-0.362,0.181-0.902,0.541-1.625,0.721c-0.724,0.362-1.263,0.543-1.985,0.724c-0.721,0.181-1.442,0.36-2.165,0.36
				c-0.723,0.181-1.442,0.181-2.166,0.181c-2.165,0-4.149-0.36-5.773-1.083c-1.625-0.722-3.067-1.624-4.331-2.888
				c-1.083-1.263-1.985-2.707-2.706-4.511c-0.724-1.806-0.902-3.609-0.902-5.774c0-2.166,0.36-4.15,1.082-6.136
				c0.722-1.806,1.624-3.429,2.888-4.691c1.265-1.264,2.707-2.348,4.331-3.067c1.624-0.723,3.609-1.083,5.595-1.083
				c1.082,0,1.984,0.18,2.888,0.36c0.901,0.18,1.805,0.359,2.525,0.723c0.723,0.36,1.444,0.54,1.805,0.901
				c0.543,0.36,0.903,0.542,1.084,0.722c0.181,0.181,0.358,0.362,0.358,0.542C547.995,373.398,547.995,373.579,547.995,373.94z"/>
			<path fill="#008EBF" d="M592.929,391.084c0,1.263-0.181,2.346-0.722,3.428c-0.541,1.084-1.082,1.806-1.984,2.527
				s-1.806,1.264-2.889,1.624s-2.346,0.541-3.607,0.541c-0.903,0-1.806,0-2.525-0.181c-0.723-0.181-1.445-0.36-2.166-0.541
				c-0.542-0.181-1.083-0.543-1.625-0.723c-0.36-0.181-0.723-0.36-0.903-0.541c-0.179-0.181-0.358-0.361-0.358-0.542
				s-0.182-0.541-0.182-0.902c0-0.18,0-0.541,0-0.541c0-0.181,0-0.36,0.182-0.36c0-0.182,0.181-0.182,0.181-0.182h0.179
				c0.182,0,0.543,0.182,0.903,0.361c0.362,0.181,0.902,0.542,1.443,0.901c0.542,0.361,1.264,0.542,2.166,0.902
				c0.901,0.182,1.804,0.361,2.888,0.361c0.902,0,1.804-0.181,2.525-0.361c0.723-0.181,1.443-0.541,1.984-1.083
				c0.542-0.541,0.902-1.083,1.264-1.623c0.361-0.723,0.542-1.443,0.542-2.347s-0.181-1.625-0.542-2.347
				c-0.36-0.541-0.9-1.263-1.442-1.623c-0.543-0.543-1.263-0.903-2.166-1.263c-0.722-0.361-1.625-0.724-2.347-1.084
				c-0.902-0.359-1.625-0.723-2.346-1.264c-0.723-0.541-1.442-0.901-2.165-1.625c-0.543-0.54-1.084-1.263-1.442-2.165
				c-0.362-0.901-0.542-1.804-0.542-2.887s0.18-2.165,0.542-2.887c0.358-0.903,0.899-1.624,1.623-2.166
				c0.722-0.542,1.624-1.083,2.525-1.443c1.082-0.362,2.166-0.543,3.248-0.543c0.541,0,1.263,0,1.807,0.181
				c0.539,0.183,1.263,0.183,1.805,0.362c0.54,0.18,1.081,0.36,1.442,0.54c0.359,0.181,0.723,0.361,0.902,0.542
				s0.18,0.181,0.18,0.361c0,0,0,0.18,0.182,0.18c0,0.181,0,0.181,0,0.362c0,0.18,0,0.358,0,0.54c0,0.181,0,0.36,0,0.542
				c0,0.181,0,0.36-0.182,0.36c0,0.182-0.18,0.182-0.18,0.182h-0.181c-0.183,0-0.362-0.182-0.723-0.361
				c-0.361-0.181-0.723-0.542-1.264-0.723c-0.542-0.182-1.083-0.54-1.805-0.723c-0.724-0.181-1.444-0.359-2.347-0.359
				c-0.901,0-1.625,0.18-2.346,0.359c-0.723,0.183-1.263,0.541-1.625,0.902c-0.36,0.361-0.722,0.903-0.901,1.444
				c-0.182,0.541-0.36,1.081-0.36,1.623c0,0.901,0.18,1.624,0.541,2.346c0.36,0.542,0.901,1.264,1.442,1.625
				c0.541,0.541,1.264,0.902,2.166,1.264c0.722,0.359,1.624,0.722,2.525,1.082c0.903,0.361,1.625,0.722,2.528,1.265
				c0.721,0.359,1.442,0.9,2.165,1.623c0.541,0.543,1.081,1.265,1.442,2.166C592.749,389.099,592.929,390.001,592.929,391.084z"/>
			<path fill="#008EBF" d="M612.78,387.655v10.828v0.181l-0.182,0.181c-0.181,0-0.181,0-0.359,0.181c-0.182,0-0.362,0-0.724,0
				c-0.18,0-0.541,0-0.721,0c-0.182,0-0.362,0-0.362-0.181c-0.181,0-0.181-0.181-0.181-0.181v-0.181v-10.828l-8.119-16.422
				c-0.181-0.18-0.181-0.359-0.181-0.542c0-0.181,0-0.181,0.181-0.359c0,0,0.182-0.182,0.359-0.182c0.181,0,0.36,0,0.723,0
				s0.542,0,0.722,0c0.181,0,0.361,0,0.541,0.182c0.182,0,0.182,0.18,0.361,0.18l0.181,0.181l4.331,8.844
				c0.361,0.901,0.901,1.624,1.264,2.526c0.36,0.902,0.723,1.804,1.263,2.706l0,0c0.362-0.903,0.723-1.804,1.084-2.524
				c0.36-0.903,0.721-1.807,1.264-2.708l4.33-8.844c0-0.181,0.182-0.181,0.182-0.181l0.181-0.18c0.181,0,0.181,0,0.361-0.182
				c0.179,0,0.359,0,0.541,0c0.359,0,0.722,0,0.899,0c0.183,0,0.362,0,0.543,0.182c0,0,0.181,0.18,0.181,0.359
				c0,0.183,0,0.362-0.181,0.542L612.78,387.655z"/>
			<path fill="#008EBF" d="M646.526,391.084c0,1.263-0.182,2.346-0.724,3.428c-0.542,1.084-1.083,1.806-1.985,2.527
				c-0.9,0.722-1.804,1.264-2.887,1.624s-2.346,0.541-3.607,0.541c-0.903,0-1.807,0-2.528-0.181
				c-0.721-0.181-1.443-0.36-2.165-0.541c-0.541-0.181-1.083-0.543-1.623-0.723c-0.36-0.181-0.723-0.36-0.903-0.541
				c-0.18-0.181-0.36-0.361-0.36-0.542s-0.179-0.541-0.179-0.902c0-0.18,0-0.541,0-0.541c0-0.181,0-0.36,0.179-0.36
				c0-0.182,0.181-0.182,0.181-0.182h0.182c0.181,0,0.542,0.182,0.902,0.361c0.359,0.181,0.901,0.542,1.443,0.901
				c0.541,0.361,1.263,0.542,2.165,0.902c0.901,0.182,1.805,0.361,2.889,0.361c0.901,0,1.622-0.181,2.525-0.361
				c0.722-0.181,1.442-0.541,1.984-1.083c0.54-0.541,0.902-1.083,1.264-1.623c0.36-0.723,0.54-1.443,0.54-2.347
				s-0.18-1.625-0.54-2.347c-0.36-0.541-0.903-1.263-1.443-1.623c-0.542-0.543-1.264-0.903-2.166-1.263
				c-0.721-0.361-1.624-0.724-2.345-1.084c-0.903-0.359-1.625-0.723-2.348-1.264c-0.722-0.541-1.443-0.901-2.164-1.625
				c-0.542-0.54-1.083-1.263-1.445-2.165c-0.359-0.901-0.54-1.804-0.54-2.887s0.181-2.165,0.54-2.887
				c0.362-0.903,0.903-1.624,1.625-2.166s1.624-1.083,2.525-1.443c1.084-0.362,2.165-0.543,3.25-0.543c0.539,0,1.263,0,1.804,0.181
				c0.541,0.183,1.264,0.183,1.804,0.362c0.543,0.18,1.084,0.36,1.443,0.54c0.361,0.181,0.723,0.361,0.902,0.542
				c0.183,0.181,0.183,0.181,0.183,0.361c0,0,0,0.18,0.181,0.18c0,0.181,0,0.181,0,0.362c0,0.18,0,0.358,0,0.54
				c0,0.181,0,0.36,0,0.542c0,0.181,0,0.36-0.181,0.36c0,0.182-0.183,0.182-0.183,0.182h-0.181c-0.18,0-0.36-0.182-0.723-0.361
				c-0.359-0.181-0.721-0.542-1.264-0.723c-0.54-0.182-1.082-0.54-1.804-0.723c-0.722-0.181-1.444-0.359-2.346-0.359
				c-0.902,0-1.625,0.18-2.346,0.359c-0.723,0.183-1.266,0.541-1.625,0.902c-0.36,0.361-0.723,0.903-0.902,1.444
				s-0.36,1.081-0.36,1.623c0,0.901,0.181,1.624,0.541,2.346c0.361,0.542,0.902,1.264,1.444,1.625
				c0.541,0.541,1.263,0.902,2.166,1.264c0.721,0.359,1.622,0.722,2.524,1.082c0.902,0.361,1.624,0.722,2.525,1.265
				c0.724,0.359,1.443,0.9,2.166,1.623c0.543,0.543,1.083,1.265,1.444,2.166C646.345,389.099,646.526,390.001,646.526,391.084z"/>
			<path fill="#008EBF" d="M675.94,371.594c0,0.181,0,0.361,0,0.542s0,0.181-0.182,0.361c0,0.18-0.181,0.18-0.181,0.18
				s-0.182,0-0.36,0h-8.481v25.626v0.181l-0.182,0.181c-0.18,0-0.18,0-0.359,0.181c-0.181,0-0.36,0-0.723,0
				c-0.181,0-0.542,0-0.722,0c-0.181,0-0.361,0-0.361-0.181c-0.181,0-0.181-0.181-0.181-0.181v-0.181v-25.626h-8.482
				c-0.179,0-0.179,0-0.358,0l-0.182-0.18c0-0.182-0.181-0.182-0.181-0.361s0-0.361,0-0.542c0-0.18,0-0.36,0-0.54
				c0-0.181,0-0.362,0.181-0.362c0-0.181,0.182-0.181,0.182-0.181s0.181,0,0.358,0h19.672c0.181,0,0.181,0,0.36,0l0.182,0.181
				c0,0.183,0.18,0.183,0.18,0.362C675.94,371.233,675.94,371.414,675.94,371.594z"/>
			<path fill="#008EBF" d="M701.926,397.58c0,0.181,0,0.359,0,0.541s0,0.361-0.181,0.361c0,0.181-0.181,0.181-0.181,0.181
				s-0.181,0-0.359,0H687.85c-0.181,0-0.542-0.181-0.901-0.36c-0.362-0.182-0.362-0.542-0.362-1.083v-25.626
				c0-0.54,0.182-0.902,0.362-1.083c0.359-0.18,0.541-0.36,0.901-0.36h13.175c0.181,0,0.181,0,0.359,0l0.181,0.182
				c0,0.18,0.181,0.18,0.181,0.359c0,0.183,0,0.362,0,0.542c0,0.182,0,0.36,0,0.541c0,0.182,0,0.182-0.181,0.361
				c0,0.181-0.181,0.181-0.181,0.181s-0.18,0-0.359,0h-11.729v9.926h10.104c0.181,0,0.181,0,0.36,0l0.182,0.181
				c0,0.18,0.18,0.18,0.18,0.359c0,0.183,0,0.361,0,0.542c0,0.182,0,0.361,0,0.54c0,0.183,0,0.183-0.18,0.362l-0.182,0.181
				c0,0-0.181,0-0.36,0h-10.104v11.368h11.91c0.18,0,0.18,0,0.359,0l0.181,0.181c0,0.182,0.181,0.182,0.181,0.361
				C701.926,397.22,701.926,397.4,701.926,397.58z"/>
			<path fill="#008EBF" d="M744.694,398.303v0.181l-0.182,0.181c-0.181,0-0.181,0-0.36,0.181c-0.18,0-0.36,0-0.723,0
				c-0.18,0-0.359,0-0.541,0c-0.181,0-0.359,0-0.359-0.181c-0.182,0-0.182-0.181-0.182-0.181v-0.181v-25.626l0,0l-11.188,25.807
				c0,0,0,0.181-0.182,0.181l-0.181,0.181c-0.181,0-0.181,0-0.36,0c-0.181,0-0.36,0-0.541,0s-0.361,0-0.543,0
				c-0.18,0-0.18,0-0.359,0c-0.181,0-0.181,0-0.181-0.181l-0.18-0.181l-10.646-25.807l0,0v25.626v0.181l-0.182,0.181
				c-0.181,0-0.181,0-0.362,0.181c-0.18,0-0.359,0-0.722,0c-0.179,0-0.541,0-0.541,0c-0.18,0-0.359,0-0.359-0.181
				c-0.182,0-0.182-0.181-0.182-0.181v-0.181v-26.709c0-0.54,0.182-0.902,0.361-1.083c0.361-0.18,0.542-0.36,0.901-0.36h1.442
				c0.362,0,0.724,0,0.903,0.182c0.359,0,0.541,0.18,0.722,0.359c0.181,0.183,0.36,0.362,0.541,0.542
				c0.181,0.182,0.361,0.541,0.361,0.723l9.384,22.557h0.181l9.744-22.557c0.182-0.361,0.36-0.723,0.542-0.901
				c0.182-0.181,0.361-0.362,0.54-0.543c0.182-0.18,0.361-0.18,0.543-0.36c0.181,0,0.36,0,0.723,0h1.622c0.182,0,0.361,0,0.361,0
				c0.18,0,0.36,0.182,0.36,0.182c0.182,0.18,0.182,0.18,0.362,0.359c0,0.183,0.181,0.362,0.181,0.724v26.889h-0.721V398.303z"/>
			<path fill="#008EBF" d="M773.748,391.084c0,1.263-0.18,2.346-0.722,3.428c-0.542,1.084-1.083,1.806-1.985,2.527
				c-0.903,0.722-1.804,1.264-2.887,1.624s-2.348,0.541-3.61,0.541c-0.901,0-1.804,0-2.525-0.181
				c-0.723-0.181-1.442-0.36-2.166-0.541c-0.54-0.181-1.081-0.543-1.624-0.723c-0.359-0.181-0.722-0.36-0.9-0.541
				c-0.182-0.181-0.362-0.361-0.362-0.542s-0.181-0.541-0.181-0.902c0-0.18,0-0.541,0-0.541c0-0.181,0-0.36,0.181-0.36
				c0-0.182,0.183-0.182,0.183-0.182h0.181c0.18,0,0.541,0.182,0.901,0.361c0.36,0.181,0.901,0.542,1.442,0.901
				c0.541,0.361,1.265,0.542,2.166,0.902c0.902,0.182,1.805,0.361,2.887,0.361c0.902,0,1.807-0.181,2.526-0.361
				c0.723-0.181,1.443-0.541,1.986-1.083c0.541-0.541,0.899-1.083,1.263-1.623c0.36-0.723,0.541-1.443,0.541-2.347
				s-0.181-1.625-0.541-2.347c-0.362-0.541-0.902-1.263-1.444-1.623c-0.539-0.543-1.263-0.903-2.164-1.263
				c-0.723-0.361-1.625-0.724-2.348-1.084c-0.9-0.359-1.623-0.723-2.345-1.264c-0.723-0.541-1.443-0.901-2.166-1.625
				c-0.541-0.54-1.083-1.263-1.443-2.165c-0.36-0.901-0.542-1.804-0.542-2.887s0.183-2.165,0.542-2.887
				c0.36-0.903,0.902-1.624,1.624-2.166c0.724-0.542,1.624-1.083,2.526-1.443c1.084-0.362,2.166-0.543,3.248-0.543
				c0.542,0,1.263,0,1.805,0.181c0.542,0.183,1.263,0.183,1.806,0.362c0.539,0.18,1.082,0.36,1.442,0.54
				c0.362,0.181,0.722,0.361,0.902,0.542c0.18,0.181,0.181,0.181,0.181,0.361c0,0,0,0.18,0.18,0.18c0,0.181,0,0.181,0,0.362
				c0,0.18,0,0.358,0,0.54c0,0.181,0,0.36,0,0.542c0,0.181,0,0.36-0.18,0.36c0,0.182-0.181,0.182-0.181,0.182h-0.182
				c-0.18,0-0.359-0.182-0.722-0.361c-0.36-0.181-0.723-0.542-1.263-0.723c-0.541-0.182-1.084-0.54-1.806-0.723
				c-0.723-0.181-1.442-0.359-2.347-0.359c-0.901,0-1.623,0.18-2.346,0.359c-0.724,0.183-1.263,0.541-1.624,0.902
				s-0.721,0.903-0.901,1.444c-0.18,0.541-0.36,1.081-0.36,1.623c0,0.901,0.181,1.624,0.541,2.346
				c0.359,0.542,0.901,1.264,1.442,1.625c0.542,0.541,1.264,0.902,2.165,1.264c0.723,0.359,1.625,0.722,2.527,1.082
				c0.901,0.361,1.623,0.722,2.525,1.265c0.722,0.359,1.443,0.9,2.165,1.623c0.541,0.543,1.083,1.265,1.443,2.166
				C773.568,389.099,773.748,390.001,773.748,391.084z"/>
		</g>
		<g>
			<path fill="#008EBF" d="M353.643,203.047l-11.369,13.174c-4.691-5.414-11.188-9.745-20.211-9.745
				c-16.062,0-26.527,11.91-26.527,28.512c0,16.603,10.466,28.693,26.527,28.693c9.022,0,15.698-4.332,20.392-9.925l11.188,13.173
				c-8.662,9.565-18.948,13.354-31.761,13.354c-26.167,0-44.753-19.311-44.753-45.296c0-25.805,18.586-45.113,44.753-45.113
				C335.777,190.054,345.161,194.385,353.643,203.047z"/>
			<path fill="#008EBF" d="M431.601,208.1h-38.258v18.948h33.024v15.338h-33.024v20.031h39.159v16.422h-57.385v-87.342h56.303V208.1
				H431.601z"/>
			<path fill="#008EBF" d="M527.424,280.283h-0.542l-51.431-50.167v48.724h-18.227v-88.786h0.541l51.611,50.167v-48.724h18.227
				v88.786H527.424z"/>
			<path fill="#008EBF" d="M624.69,207.559h-28.332v71.281h-18.046v-71.281H549.98v-16.061h74.71V207.559L624.69,207.559z"/>
			<path fill="#008EBF" d="M713.115,247.44c0,19.851-11.551,32.844-33.565,32.844c-22.017,0-33.564-12.993-33.564-32.844v-55.941
				h18.226v54.68c0,10.466,5.054,17.504,15.34,17.504c10.285,0,15.52-7.038,15.52-17.504v-54.68h18.047v55.941H713.115z"/>
			<path fill="#008EBF" d="M806.411,219.83c0,12.271-6.678,20.933-16.062,25.083l20.211,33.747h-20.933l-18.227-30.68h-11.91v30.68
				h-18.047v-87.162h34.106C792.154,191.498,806.411,201.784,806.411,219.83z M759.313,207.198v25.083h14.436
				c8.479,0,14.257-4.331,14.257-12.632c0-8.121-5.776-12.632-14.257-12.632h-14.436V207.198z"/>
			<path fill="#008EBF" d="M850.081,278.839h-18.228v-87.342h18.228V278.839z"/>
		</g>
	</g>
	<g>
		<path fill="#008EBF" d="M73.934,222.717L73.934,222.717L73.934,222.717z"/>
		<path fill="#008EBF" d="M27.195,233.003c1.083-1.083,1.985-2.346,2.707-3.429c0.903-1.443,1.805-3.067,2.527-4.691
			c0.901-1.805,1.804-3.249,2.707-4.512c2.706-3.609,5.413-5.414,8.662-6.316c1.805-0.541,4.151,0.361,5.052,1.804l0.362,0.542
			c0.722,1.083,1.263,1.985,1.985,2.889c2.166,2.887,5.053,4.872,9.203,5.955c0.903,0.36,1.805,0.542,2.347,0.902
			c1.804,0.902,3.429,1.805,4.873,2.707c1.804,1.083,3.789,1.985,5.773,2.527c2.346,0.722,4.512,1.443,6.316,2.707
			c1.986,1.444,3.068,3.248,3.068,5.594c0,0.902,0.181,1.984,0.541,2.887c0.722,2.347,2.166,4.331,4.332,5.956
			c0.541,0.541,1.263,0.901,1.985,1.264l0.181,0.181c0.181,0.18,0.541,0.361,0.722,0.541c2.166,1.444,4.692,1.805,6.676,1.985
			c0.362,0,0.722,0,1.264-0.181c0.36,0,0.722-0.181,0.901-0.181c1.444,0,2.887-0.542,4.512-1.624
			c1.083-0.722,2.347-1.624,3.429-2.346l0.722-0.542c1.625-1.264,3.068-2.526,4.331-3.79c0.541-0.542,1.263-1.264,1.444-2.166
			c0.18-1.083,0.36-2.166-0.181-3.067c-0.36-0.541-1.082-0.902-2.346-1.083c-0.18,0-0.18,0-0.361,0
			c-0.181,0-0.361-0.181-0.541-0.181c-2.887-0.36-4.873,0.181-6.316,1.805l-0.362,0.36c-0.36,0.361-0.722,0.722-1.082,1.083
			l-0.542,0.542c-0.722,0.722-1.442,1.263-2.165,1.624c-0.902,0.542-1.805,0.722-3.43,0.722c-1.985,0-3.608-0.722-4.873-1.985
			c-0.36-0.542-0.901-0.902-1.444-1.443c-0.722-0.542-1.082-1.444-1.443-2.166l-0.18-0.181c-0.541-1.264-0.902-2.708-0.722-4.691
			c0-0.722,0.361-1.444,0.722-1.985c1.083-1.263,2.526-1.984,4.332-2.525c1.984-0.541,3.969-1.083,5.954-1.985
			c1.444-0.542,2.888-1.444,4.15-2.166c0.722-0.361,1.443-0.722,2.166-1.083c1.443-0.722,2.707-1.083,4.15-1.083h0.362
			c3.248,0,5.414,1.984,6.496,3.609c1.625,2.346,2.527,5.232,2.708,8.301v0.722c0,0.722,0,1.263,0,1.985
			c-0.181,1.625,0.541,3.067,1.082,4.331c0,0.181,0.181,0.181,0.36,0.541c1.264,1.805,1.986,3.609,2.887,5.774v0.181
			c0.542,1.263,0.722,2.525,0.542,3.79c-0.181,2.346-1.083,3.79-2.888,4.691c-1.625,0.721-3.249,1.263-4.692,1.804l-1.804,0.723
			c-1.804,0.722-3.79,1.263-5.234,2.888c-0.901,0.902-1.804,1.624-2.707,2.346c-0.902,0.723-1.804,1.444-2.526,2.166
			c-1.443,1.264-3.068,2.166-5.053,2.707c-1.625,0.361-3.068,0-3.97-1.263c-0.181-0.361-0.541-0.722-0.722-1.083
			c-0.541-0.722-0.903-1.263-1.444-1.984c-0.903-1.625-2.346-2.347-4.331-2.888c-1.625-0.361-3.248-0.722-4.873-0.722
			c-0.722,0-1.625-0.361-2.346-0.542h-0.18c-1.624-0.541-2.527-1.806-3.249-3.248c-0.361-0.542-0.542-1.083-0.723-1.625
			c-0.18-0.723-0.541-1.263-0.722-1.804c-0.36-0.723-0.722-1.264-1.082-1.805c-0.541-0.902-1.083-1.625-1.443-2.526
			c-0.541-1.264-1.444-2.166-2.347-3.067c-0.722-0.723-1.083-1.264-1.625-1.805c-0.36-0.542-0.901-0.902-1.263-1.083
			c-0.18-0.181-0.361-0.181-0.542-0.36l-0.18-0.722c-0.723-0.542-1.624-1.265-2.345-1.806c-0.722-0.542-1.625-0.902-2.347-1.443
			l-0.902-0.541c-0.18,0-0.18-0.182-0.361-0.182c-0.541-0.36-0.902-0.541-1.444-0.722c-2.166-0.541-3.969-1.444-5.774-2.527
			c-0.541-0.36-1.263-0.722-1.985-1.083l-0.542-0.18c-0.722-0.361-1.625-0.722-2.346-1.263c-1.444-1.083-3.248-1.805-5.594-2.346
			c-1.804-0.361-3.429-0.181-4.692,0.722c-1.083,0.722-1.625,1.442-1.805,2.345c-0.36,1.986,1.264,5.414,3.068,6.316
			c0.181,0.181,0.36,0.181,0.541,0.181l1.263,0.18c1.083,0.182,2.166,0.182,3.249,0.182c2.345,0,4.331,0.722,6.496,1.805
			c0.542,0.18,1.083,0.541,1.443,0.902h0.181c0.722,0.36,1.443,0.902,2.165,1.264c4.151,1.985,7.76,5.233,10.647,9.564
			c1.625,2.166,3.068,4.331,4.873,6.677c1.082,1.443,1.804,2.887,1.984,4.331c0.181,1.083,0,1.984-0.541,2.888
			c-0.722,1.083-1.625,1.985-2.346,2.887c-0.361,0.361-0.722,0.903-1.083,1.265c-1.263,1.442-1.984,3.066-2.346,4.691
			c-0.541,2.707-1.263,5.414-1.985,7.761l-0.181,0.54c-0.541,1.805-0.903,3.608-0.903,5.595c-0.179,2.165-0.179,4.331,0,6.497
			c0,1.804,0.362,3.428,1.083,4.872c0.903,2.166,1.804,4.149,2.707,5.954c0.362,0.723,0.722,1.264,1.083,1.984l0.18,0.361
			c0.361,0.542,0.541,1.082,0.903,1.625c1.263,2.345,2.166,4.33,3.068,6.135c0.179,0.542,0.541,1.082,0.722,1.625
			c0.179,0.72,0.541,1.442,0.901,2.164c0.902,1.624,1.443,3.249,1.805,5.053l0.36,0.902c0.362,1.264,0.362,1.444,0.181,2.708v0.361
			c-0.361,1.44-1.083,2.524-2.346,3.606c-0.722,0.543-1.082,0.723-1.804,0.181l-1.083-0.722c-1.804-1.082-3.608-2.165-5.232-3.428
			c-1.985-1.625-3.609-3.61-4.692-6.858c-0.181-0.721-0.542-1.263-0.722-1.982c-0.542-1.807-1.264-3.61-2.166-5.415
			c-0.181-0.182-0.181-0.182-0.181-0.361c-0.903-3.428-2.526-6.677-4.15-9.744l-0.902-1.983c-0.361-0.723-0.722-1.444-1.083-2.166
			c-0.542-1.083-1.083-1.984-1.444-2.889c-0.722-1.625-1.263-3.249-1.625-5.232c-0.181-0.722-0.181-1.624,0-2.346
			c0.542-2.347,1.444-4.513,2.346-6.496l0.18-0.36c0.902-1.986,2.166-4.332,3.068-6.498c0.722-1.624,1.263-3.428,1.985-5.594
			c0.362-1.444,0.542-2.707,0.542-3.609c0-0.903,0-1.804,0-2.707c0-2.165,0-4.149-0.361-6.315c-0.541-3.068-3.068-6.497-7.038-5.955
			c-1.984,0.181-3.969,2.346-3.969,4.149c0,1.265,0.179,2.708,0.901,3.972c0.181,0.36,0.361,0.722,0.542,0.901
			c0.541,0.902,0.901,1.624,1.082,2.346c0.902,3.067,0.541,6.136-0.903,9.203l-0.722,1.444c-0.901,1.985-2.166,4.512-3.248,7.038
			c-0.542,1.082-0.903,2.344-1.083,3.428l-0.181,0.723c-0.181,0.722-0.361,1.264-0.722,1.805v0.181
			c-0.541,1.083-0.902,2.347-1.083,3.608c-0.18,0.901-0.18,1.984,0,3.068c0.722,3.066,2.347,5.773,3.79,8.48
			c1.625,2.887,2.887,5.232,3.969,7.398c0.362,0.723,0.722,1.625,0.903,2.348c0.181,0.358,0.181,0.72,0.362,1.082
			c0.18,0.54,0.36,0.9,0.541,1.442v0.182c0.541,1.263,0.901,2.345,1.263,3.429c0.722,2.888,2.166,5.413,3.791,7.938l0.722,1.265
			c0.179,0.36,0.541,0.901,0.72,1.264l0.181,0.182c0.181,0.358,0.542,0.722,0.722,1.082c0.181,0.36,0.362,0.721,0.542,1.083
			l0.361,0.541c0.541,0.9,1.083,1.804,1.625,2.707c0.722,1.082,1.624,2.346,3.067,2.705c1.806,0.542,3.609,0.724,5.414,0.182
			c1.625-0.361,2.708-0.721,3.79-1.263c1.083-0.542,1.805-0.361,2.887,0.542c0.181,0.18,0.181,0.358,0.361,0.358
			c0.18,0.181,0.18,0.361,0.361,0.543c2.888,3.607,3.429,7.578,1.443,12.09c-0.18,0.361-0.361,0.722-0.361,1.264
			c-0.18,0.36-0.18,0.722-0.361,1.264c-0.361,1.083-0.541,2.166-0.722,3.248c-0.181,2.166,0.541,3.429,1.985,4.15
			c0.903,0.36,2.347,1.084,3.79,0.901c3.067-0.181,5.414-2.706,5.594-5.773c0-1.083-0.361-2.166-0.722-3.248
			c-0.18-0.361-0.18-0.542-0.361-0.903c-0.901-2.887-1.263-5.594-1.263-8.119v-1.442v-0.724c0-0.901,0-1.806,0-2.706
			c0-1.083-0.18-1.985-0.541-3.067l-0.181-0.542c-0.36-1.443-1.082-2.706-1.625-4.149l-0.18-0.182
			c-0.902-1.624-1.083-3.609-0.722-5.595c0.541-2.347,0.36-4.69-0.542-7.578c-0.36-1.085-0.901-1.985-1.263-2.888
			c-0.18-0.361-0.36-0.723-0.541-1.084c-0.541-0.9-1.083-1.983-1.444-2.888l-0.542-0.901c-1.083-2.166-2.346-4.331-3.428-6.497
			c-1.263-2.706-1.985-5.594-1.985-8.479c0-0.542,0-1.264,0-1.807c0-0.901,0-1.622,0-2.525c0-1.984,0.36-4.15,1.082-7.038
			c0.181-0.722,0.541-1.263,0.722-1.985c0.181-0.359,0.36-0.902,0.541-1.263c0.902-2.346,1.263-4.692,1.443-7.038v-0.542
			c0-0.542,0.181-0.902,0.181-1.444c0.541-3.247,2.166-4.511,5.232-4.149c0.181,0,0.181,0,0.542,0.181c0.179,0,0.36,0.18,0.541,0.18
			c3.068,0.542,5.955,1.806,9.022,3.249c0.903,0.361,1.263,1.083,1.444,2.347c0.181,2.166-0.541,3.97-2.346,5.954
			c-1.444,1.625-2.707,3.249-3.969,4.692c-0.542,0.723-0.903,1.264-1.083,1.806c-0.362,1.082-0.542,2.165-0.542,3.066
			c0,0.723-0.18,1.623-0.361,2.348c0,0.18,0,0.358,0,0.54c0.361,0.722,0.361,1.443,0.361,2.347c0,0.359,0,0.721,0,1.083
			c0,2.165,0.542,4.331,1.443,6.314c0.542,1.265,1.083,2.348,1.444,3.43c0.722,1.624,1.263,3.066,1.984,4.512
			c0.543,1.443,0.903,2.888,1.265,4.691c0.36,2.347,0.901,4.512,1.623,6.496c0.361,0.901,0.722,1.805,1.083,2.706l0.18,0.361
			c0.722,1.985,1.444,3.789,2.166,5.594c0.722,2.166,1.083,4.331,1.083,6.315c0,2.888,0,5.956,0.36,9.385c0,0.181,0,0.36,0.181,0.36
			c0,0.181,0.181,0.361,0.181,0.361c0,1.264,0.541,2.347,0.903,3.608c0.36,0.723,0.541,1.443,0.72,2.166
			c0.362,1.443,0.362,2.525,0.181,3.608c-0.722,3.066-2.345,5.595-3.97,7.578c-0.361,0.36-0.722,0.902-1.083,1.265l-0.36,0.358
			c-0.903,1.085-1.804,2.349-2.707,3.61c-0.903,1.262-1.985,2.526-3.249,3.789c-0.541,0.361-1.082,0.723-1.804,1.083l-0.361,0.181
			c-1.986,0.902-3.971,1.807-5.956,2.707c-1.083,0.542-1.804,1.443-1.985,2.526c-0.181,1.443-0.181,3.429,0.722,5.233
			c0.36,0.722,1.082,1.263,1.624,1.442c1.624,0.541,3.248,0.362,4.511-0.181c1.083-0.541,1.985-1.082,2.707-2.166
			c0.361-0.54,0.903-1.263,1.263-1.804l0.181-0.182c0.541-0.722,1.083-1.442,1.624-2.346c0.36-0.721,0.903-1.443,1.625-1.986
			c0.722-0.54,1.442-1.263,2.164-1.803c0.542-0.361,0.903-0.723,1.264-1.083c0.36-0.18,0.722-0.542,0.901-0.722
			c0.903-0.542,1.625-1.265,2.166-1.986c1.625-2.164,2.887-4.511,3.79-7.037c0.722-1.624,1.263-2.887,2.166-4.15
			c0.361-0.54,0.902-1.082,1.083-1.622c0.541-0.724,0.903-1.266,1.263-1.807c0.722-0.723,0.542-1.442,0.362-2.166
			c0-0.18-0.181-0.359-0.362-0.54c-0.179-0.182-0.179-0.182-0.179-0.182c-1.625-2.886-2.346-5.595-2.346-8.12v-0.361
			c0-1.264,0-2.345,0.18-3.607c0.18-1.084,0.18-2.166,0.18-3.249c0-0.722,0-1.263,0-1.804c0-1.444-0.18-2.889-0.721-4.693
			c-0.722-2.525-1.444-4.691-2.346-6.857c-0.541-1.442-1.083-2.887-1.625-4.331c-0.36-0.72-0.541-1.442-0.903-2.345l-0.541-1.263
			c-0.36-1.084-0.901-2.166-1.263-3.249c-0.181-0.36-0.181-0.723-0.361-1.082c-0.361-1.084-0.722-2.166-0.902-3.249
			c-0.541-2.526-1.263-5.233-2.166-7.76c-1.083-2.526-1.263-5.233-1.625-8.12c0-0.723,0.181-1.444,0.181-1.985l0.181-0.36
			c0-0.182,0-0.36,0.18-0.722v-0.181c0.18-0.902,0.361-1.805,0.722-2.527c0.542-1.082,0.903-1.983,1.444-3.065
			c0.902-1.986,1.805-3.971,3.068-5.775c1.444-2.166,3.248-3.79,5.053-5.053l0.903-0.541c2.165-1.444,4.511-2.889,6.857-4.151
			c2.707-1.625,5.413-3.429,8.481-5.773l0.541-0.361c0.903-0.722,1.804-1.263,2.707-1.804c2.346-1.083,4.15-1.265,5.774-0.902
			c2.526,0.541,4.873,1.444,7.219,2.346c3.067,1.264,6.314,1.806,8.842,2.166c1.984,0.182,3.97,0.723,5.775,1.083
			c1.623,0.361,2.887,0.541,3.969,0.723c1.263,0.18,2.526,0,3.61-0.361c2.707-0.722,5.594-1.263,7.94-3.068
			c1.985-1.442,4.33-2.165,7.398-2.346c0.36,0,0.902,0,1.263,0c1.263-0.361,2.887-0.541,4.15-1.083
			c2.527-0.722,4.151-1.984,5.234-3.79c0.542-1.083,0.542-2.707-0.18-4.15c-0.722-1.264-1.804-2.166-2.888-2.346
			c-0.722,0-1.263-0.181-1.625-0.181c-2.164,0-3.969,0.542-5.232,1.984c-1.263,1.083-2.525,2.166-3.969,3.068
			c-2.166,1.444-4.512,2.346-7.219,2.888c-3.068,0.722-5.594,0.902-7.941,0.902h-0.541c-1.082,0-2.166,0-3.248,0h-0.361
			c-1.444,0-2.707-0.181-3.97-0.722c-3.428-1.444-7.218-1.985-10.466-2.346c-1.806-0.36-3.609-0.902-5.415-1.805
			c-1.263-0.722-2.526-1.443-3.067-3.067c-0.362-1.443-0.903-2.706-0.722-4.15c0-0.901,0-1.804-0.181-2.707l-0.181-0.902
			c-0.179-1.625-0.722-3.067-1.263-4.512l-0.181-0.36c-0.179-0.36-0.36-0.902-0.541-1.264c-0.541-1.443-1.082-2.526-1.082-3.97
			c-0.181-1.443-0.542-2.707-0.903-3.97c-0.361-0.902-0.542-1.805-0.903-2.526v-0.18c-0.36-1.264-0.722-2.347-1.083-3.609
			c-0.541-2.166-1.263-3.79-2.346-5.053c-2.526-3.248-6.497-4.512-9.925-2.889c-1.804,0.723-3.969,1.265-6.316,1.444
			c-0.722,0-1.623,0.181-2.345,0.361l-0.722,0.181c-1.985,0.36-3.79,1.263-5.594,2.166l0.722,1.263
			c-1.263,0.542-2.166,1.444-3.249,2.527c-0.541,0.541-1.082,1.083-1.804,1.624c-0.362,0.36-0.722,0.722-1.083,1.082
			c-0.361,0.361-0.542,0.723-0.903,0.903c-1.443,1.083-2.707,1.623-4.15,1.623c-2.527,0-4.873-0.901-7.219-1.984
			c-0.541-0.181-1.082-0.542-1.625-0.722c-0.541-0.182-1.082-0.542-1.444-0.723h-0.179c-0.722-0.36-1.444-0.722-2.166-1.083
			c-2.527-0.902-5.053-1.984-8.121-3.97c-3.248-1.985-6.496-3.971-10.286-5.594c-1.985-0.723-3.068-2.707-2.707-4.331
			c0.361-1.806,1.263-3.43,2.346-4.692c1.805-2.166,4.151-3.79,7.038-5.053c1.264-0.541,2.527-0.902,3.971-1.263l0.722-0.182
			c1.082-0.36,2.166-0.901,3.428-1.624c0.541-0.359,1.263-0.901,1.804-1.263c0.542-0.542,1.083-0.903,1.805-1.264
			c3.248-2.166,6.496-3.609,9.745-4.331c1.804-0.361,3.609-0.903,5.053-1.444c1.263-0.361,2.526-0.902,3.789-1.263
			c1.083-0.361,2.165-0.723,3.068-1.083c1.985-0.723,4.331-1.444,6.676-2.165c0.903-0.182,1.625-0.361,2.707-0.361
			c0.722,0,1.083-0.18,1.624-0.18c1.444-0.181,3.069-0.361,4.512-0.361c0.541,0,1.263,0,1.804-0.18
			c3.429-0.182,5.775-0.182,8.301,0.36c0.361,0,0.542,0.181,0.902,0.181c1.083,0.18,2.347,0.36,3.429,1.083l1.443,0.901
			c0.722,0.542,1.625,0.902,2.347,1.443c1.443,0.903,3.067,1.625,5.232,1.444c1.625-0.182,2.887-0.902,4.331-1.806
			c1.805-1.083,3.609-2.165,5.775-2.525c0.722-0.182,1.263-0.361,1.985-0.361c0.903-0.18,1.804-0.36,2.707-0.542
			c1.263-0.18,1.985-0.902,2.888-1.443l0.541-0.36c0.542-0.541,0.722-1.083,0.722-1.624c0-0.902-0.36-1.624-0.901-2.346
			l-0.181-0.361c-1.263-1.985-2.887-2.707-4.872-2.526c-0.362,0-0.541,0-0.903,0h-0.36c-1.805,0-3.43,0.541-4.872,1.805
			c-0.722,0.541-1.625,1.083-2.708,1.623c-1.263,0.541-2.886,1.083-4.691,0.903c-2.166-0.181-4.151-0.903-5.775-1.985
			c-1.804-1.264-3.789-1.805-5.594-1.805h-0.36c-1.625,0-3.428,0-5.053,0c-0.722,0-1.624,0-2.346,0c-1.985,0-4.331,0-6.677,0.36
			h-0.722c-1.083,0.181-2.166,0.181-3.248,0.542c-1.083,0.361-2.166,0.541-3.249,0.902c-1.263,0.36-2.707,0.902-4.151,1.264
			c-1.443,0.359-2.707,0.722-3.969,1.082l-0.902,0.36c-1.444,0.542-3.068,1.083-4.513,1.443c-2.525,0.542-4.691,1.083-6.856,1.805
			c-0.361,0.182-0.723,0.361-1.083,0.361c-0.722,0.181-1.444,0.542-1.985,0.722l-0.542,0.182c-0.901,0.36-1.984,0.901-2.887,1.442
			c-1.985,1.443-4.511,3.249-7.037,4.873c-2.166,1.264-3.971,2.165-5.775,2.525c-1.444,0.361-3.249,0.722-4.873,1.805h-1.264
			c-0.361,0.182-0.541,0.361-0.902,0.542c-2.527,1.444-4.15,3.43-5.234,5.596l-0.36,0.722c-0.181,0.541-0.542,1.083-0.722,1.624
			c-0.723,2.887-2.527,4.872-4.873,5.955l-0.542,0.36c-1.263,0.541-2.526,1.083-3.789,1.444c-2.707,0.722-4.512,2.707-5.956,4.511
			c-0.541,0.723-1.263,1.624-1.623,2.526l-0.362,0.722c-0.722,1.805-1.443,3.429-2.526,5.053c-1.444,2.166-2.707,4.15-4.15,5.774
			c-0.902,1.083-1.625,1.985-2.527,3.249c-0.722,0.902-1.444,1.984-2.346,3.428c-0.542,0.723-0.902,1.444-1.264,2.347
			c-0.18,0.36-0.361,0.722-0.542,1.083c-0.18,0.181-0.18,0.36-0.18,0.542l-1.264,2.707c-0.901,2.166-1.804,4.149-2.706,6.314
			c-0.361,1.083-0.722,2.166-1.083,3.068l-0.361,1.083c-0.181,0.542-0.361,1.083-0.541,1.624l-0.181,0.902
			c-0.18,0.723-0.361,1.443-0.722,2.166c-0.542,1.984-1.263,4.33-1.624,6.496c-0.361,2.347-0.902,4.692-1.805,7.58
			c-0.36,1.443-0.541,2.888-0.722,4.151l-0.181,1.083c-0.179,1.083-0.179,2.345-0.179,3.428c0,0.723,0,1.263-0.181,1.986
			c-0.181,1.623-0.181,3.248-0.181,4.871c0,1.984,0,3.971-0.181,5.956c-0.179,1.263-0.179,2.707,0,3.97c0,0.721,0,1.264,0,1.805
			v2.347c0,1.083,0,2.347,0,3.43c0,1.804,0.181,3.429,0.362,5.231v0.723c0,0.902,0.181,1.806,0.36,2.706
			c0.722,2.348,1.444,4.692,2.347,7.22l0.902,2.525c0,0.181,0,0.181,0.181,0.361l1.083,2.165c0.902,1.623,1.804,3.429,2.707,5.053
			c1.443,2.707,2.527,5.595,3.428,8.121c0.361,0.901,0.542,1.624,0.722,2.525c0.362,1.264,0.722,2.346,1.083,3.429
			c0.902,2.347,1.985,4.513,3.067,6.678c0.361,0.902,0.722,1.625,1.264,2.525c0.36,0.902,0.722,1.625,1.263,2.527
			c1.624,3.065,3.97,4.872,7.038,5.594c1.444,0.36,2.887,1.083,4.331,1.623c2.526,1.443,3.97,3.249,4.15,5.956
			c0,0.722,0.18,1.264,0.361,1.984c0.181,0.723,0.362,1.443,0.362,1.984c0.179,2.527,1.804,4.15,3.248,5.594l0.181,0.182
			c1.082,1.083,2.345,1.984,3.609,2.707c0.542,0.36,1.083,0.723,1.623,1.263c0.362,0.181,0.722,0.543,1.084,0.903l0.722,0.54
			c0.541,0.361,0.901,0.723,1.443,1.084c1.263,1.082,2.526,1.983,3.789,2.888c1.083,0.54,1.985,1.263,2.887,1.805l0.362,0.182
			c0.36,0.358,0.901,0.54,1.263,0.901c1.623,1.082,3.248,2.166,5.053,3.248c1.263,0.901,2.526,1.624,3.789,2.525
			c0.541,0.361,1.263,0.723,1.985,0.903c1.444,0.54,2.707,1.083,4.15,1.624l0.361,0.18c1.444,0.542,2.707,1.083,4.15,1.444
			c0.542,0.18,1.083,0.359,1.625,0.54c0.722,0.181,1.443,0.36,1.985,0.724c0.541,0.179,1.082,0.358,1.625,0.721
			c0.901,0.361,1.442,0.723,2.164,0.901c0.903,0.361,1.986,0.723,3.069,0.902h0.18c0.903,0.182,1.624,0.542,2.526,0.723
			c2.166,0.722,4.331,1.264,7.219,1.443c1.625,0.181,3.068,0.359,4.511,0.902c0.542,0.18,0.902,0.36,1.444,0.541h0.18
			c0.722,0.181,1.444,0.541,1.985,0.722c2.346,0.724,4.692,1.264,7.218,1.082c1.083,0,2.166,0,3.429,0c0.181,0,0.362,0,0.541,0l0,0
			c1.625,0,3.249-0.54,5.234-1.623c0.542-0.36,0.902-0.542,1.444-0.901c0.722-0.542,1.444-1.082,2.346-1.444
			c0.18-0.181,0.36-0.36,0.542-0.541c0-0.181,0.181-0.181,0.181-0.181c0.541-0.36,0.541-0.902,0.36-1.444
			c-0.36-1.263-0.541-2.706-0.541-3.969v-0.181c0-0.361,0-0.541,0.179-0.723c0.722-1.442,1.443-2.525,2.346-3.79
			c0.722-1.082,1.083-2.346,1.083-3.97c0-1.263-0.542-2.166-1.805-2.708c-1.985-0.721-3.789-0.721-5.414,0
			c-1.083,0.542-2.346,1.265-2.166,3.069c0,0.179,0,0.359,0,0.359c0,0.182-0.181,0.361-0.181,0.541c0,0.543,0,1.083,0,1.625
			c0,0.54,0.181,0.901,0.181,1.443c0.181,1.082,0.361,1.984,0.361,3.067c0,0.9-0.361,1.442-1.083,1.805
			c-0.903,0.541-1.804,0.901-2.707,1.263l-0.541,0.182c-0.542,0.182-1.265,0.54-1.986,0.54c-0.721,0-1.263,0-1.984,0
			c-2.888,0-5.595-0.358-7.94-1.263c-1.805-0.722-3.609-1.263-5.233-1.625c-0.722-0.18-1.444-0.359-2.166-0.54
			c-1.264-0.36-2.707-0.723-3.97-1.083h-0.181c-1.625-0.36-3.428-0.722-5.053-1.443c-2.166-0.722-4.511-1.443-6.676-2.164
			l-0.722-0.182c-1.625-0.542-3.068-0.903-4.692-1.443c-1.805-0.541-3.609-1.443-5.234-2.166c-0.902-0.36-1.625-0.902-2.346-1.264
			l-0.901-0.541c-0.362-0.182-0.722-0.36-1.083-0.542l-2.347-1.623c-1.984-1.443-3.969-2.707-5.955-4.149
			c-0.541-0.361-1.263-0.903-1.804-1.265h-0.181c-0.541-0.542-1.083-0.901-1.805-1.264c-2.346-1.624-4.692-3.248-6.496-5.594
			c-1.083-1.265-1.625-2.348-1.986-3.61c-0.721-1.984-0.901-3.969-1.082-5.954c-0.181-2.707-1.083-4.69-2.707-6.136
			c-1.443-1.263-3.248-1.985-4.691-2.346l-0.362-0.36c-1.083-0.362-2.166-0.543-3.248-0.903c-1.263-0.359-2.166-1.083-3.249-1.983
			l-0.722-0.542c-2.345-1.624-3.969-3.971-5.052-7.218c-0.542-1.443-0.903-2.888-1.264-4.15v-0.181
			c-0.18-0.903-0.542-1.806-0.722-2.706c-0.18-0.724-0.542-1.445-0.722-1.985c-0.36-1.084-0.722-1.986-0.901-2.888
			c-0.902-3.972-2.887-7.398-4.873-10.466c-1.625-2.528-2.706-4.692-3.609-6.858c-0.541-1.444-0.903-2.888-1.263-4.15l-0.181-0.36
			c-1.083-3.971-1.625-7.761-1.625-11.369c0-0.54,0-1.082,0-1.803v-0.183c0-1.084,0-1.983,0-3.066v-0.724
			c0-1.263,0-2.524,0.361-3.79c0.542-1.982,0.722-4.149,0.901-6.134c0.181-0.904,0.181-1.806,0.362-2.708
			c0.181-1.082,0.181-2.166,0.181-3.248s0-2.166,0.179-3.067v-0.541c0.361-2.347,0.542-4.692,1.443-6.857
			c0.362-1.263,0.722-2.346,0.903-3.609l0.181-0.901c0.36-1.443,0.722-3.068,0.902-4.513c0.361-1.805,0.903-3.429,1.625-5.232
			c0.541-1.444,1.083-2.707,1.263-4.151c0.362-1.083,0.722-2.346,1.444-3.428c0.542-0.902,0.903-1.805,1.263-2.526
			c0.542-1.083,0.903-2.346,1.625-3.249c0.362-0.722,0.903-1.263,1.263-1.984l0.542,0.18l0,0l-0.542-0.361
			C24.85,236.071,25.932,234.447,27.195,233.003z"/>
		<path fill="#008EBF" d="M108.04,298.509L108.04,298.509c0,0.541,0,1.084,0,1.443c0,1.984,0.36,3.791,0.903,5.414l0.901,2.346
			c0.181,0.542,0.362,0.903,0.542,1.442c0.36,1.083,0.722,2.166,1.263,3.248c0.181,0.543,0.541,1.084,0.722,1.625
			c0.541,1.264,1.083,2.348,1.444,3.609c0.181,0.722,0.541,1.625,0.901,2.346c0.181,0.542,0.362,0.902,0.542,1.443
			c0.723,1.985,1.624,4.332,1.985,6.858c0.181,1.263,0.36,2.345,0.722,3.429l0.36,1.623c0.722,3.608,1.625,7.58,1.443,11.369
			c0,1.624-0.36,2.887-1.082,3.971c-0.541,0.722-1.083,1.444-1.625,2.165c-0.36,0.361-0.722,0.901-0.902,1.264
			c-0.541,0.723-1.082,1.443-1.444,2.166c-0.541,1.081-0.36,1.984,0.722,2.706c0.903,0.723,1.986,1.082,3.068,1.443l0.181,0.18
			c0.541,0.182,1.263,0.362,1.804,0.362c1.625,0,2.888-0.724,3.971-1.625c0.18-0.181,0.722-0.541,0.901-1.082
			c0-0.361,0.181-0.541,0.181-0.723v-0.182c0.181-0.721,0.541-1.624,0.541-2.706c0-0.723,0-1.624,0-2.347
			c0-1.984,0-4.15,0.181-6.315c0.36-2.525,0.36-5.232,0-7.76c-0.181-0.902-0.181-1.805-0.181-2.707c0-1.082-0.18-1.984-0.36-3.066
			l-0.181-0.723c-0.181-1.442-0.541-2.887-1.083-4.331c-0.722-1.984-1.625-4.331-2.346-6.497c-0.361-1.082-0.722-2.166-1.263-3.066
			l-0.361-0.901c-0.722-1.806-1.623-3.61-2.345-5.415c-0.902-1.985-1.443-4.15-1.805-6.495c0-0.36,0-0.543,0-0.902
			c0-0.723,0-1.264-0.181-1.806c-0.179-0.541,0-1.264,0.181-1.984c0-0.36,0.181-0.541,0.181-1.082c0-0.362,0-0.541,0.181-0.902
			c0.36-1.624,1.082-3.068,1.984-4.512c1.985-3.429,4.511-5.774,7.579-7.398c2.346-1.263,4.873-1.985,7.941-2.347
			c2.707-0.36,5.413,0,8.481,0.723c0.361,0,0.722,0.179,1.083,0.36c0.362,0.181,0.722,0.181,1.082,0.359
			c2.708,0.725,4.692,1.807,6.137,3.431c0.36,0.541,0.901,0.901,1.263,1.263c0.541,0.542,0.903,1.083,1.082,1.805
			c0.722,1.985,1.083,4.151,1.083,6.316v0.902c0,1.624,0,3.429,0.36,5.231c0.362,2.527,0,5.233-0.36,7.76
			c-0.361,2.527-1.625,4.693-3.79,7.22c-1.985,2.166-4.872,3.429-8.481,3.97c-1.985,0.181-3.608,1.265-4.511,3.067
			c-1.263,2.165-1.263,4.513,0.181,6.679c0.541,0.899,1.082,1.983,1.082,3.065c0.181,1.807,0,3.61-0.36,5.413
			c-0.903,3.068-0.903,6.316,0,9.565v0.359c0.36,1.444,0.721,2.889,0.721,4.513v1.082c0,2.166,0,4.331-0.18,6.497
			c-0.541,3.067-1.805,5.413-3.79,7.579c-0.541,0.36-0.722,0.543-1.263,0.543c-0.361,0-0.542-0.183-0.722-0.183
			c-1.985-0.901-4.151-1.263-6.135-1.805c-0.722-0.18-1.263-0.18-1.985-0.18c-1.805,0-3.429,0.541-5.233,1.804
			c-0.541,0.361-0.903,0.722-1.444,1.082c-0.36,0.362-0.903,0.723-1.263,0.903c-2.166,1.442-3.79,3.428-5.414,5.232
			c-1.264,1.443-2.527,2.706-3.971,3.609c-1.624,0.9-2.888,1.984-4.151,2.887c-0.722,0.542-1.263,1.264-1.624,1.805
			c-1.263,1.805-1.083,3.971-0.901,5.595c0.179,1.443,1.804,2.888,3.247,2.888c2.527-0.361,4.513-1.443,5.595-3.249
			c0.361-0.359,0.541-0.901,0.722-1.443c0.181-0.541,0.542-0.9,0.722-1.263l0.362-0.723c0.541-0.901,1.082-1.984,1.804-2.706
			c1.985-2.347,4.692-4.331,8.121-5.955c1.443-0.721,2.708-1.263,4.151-1.807c0.721-0.358,1.623-0.721,2.345-1.08
			c1.805-0.723,3.609-1.625,5.233-2.527c0.542-0.18,0.902-0.36,1.444,0c0.36,0.181,0.901,0.362,1.263,0.542
			c0.722,0.18,1.444,0.541,2.166,0.722c0.361,0.182,0.902,0.361,1.263,0.361c0.903,0,1.625-0.542,2.166-1.083
			c1.263-1.264,2.888-2.888,3.97-5.053c0.902-1.443,1.263-2.888,1.624-4.513c0.361-2.166,0-4.332-0.722-6.496
			c-0.722-1.985-1.263-3.97-0.902-6.136c0-0.542,0.181-1.082,0.181-1.805c0-1.083,0.181-1.985,0.181-2.707
			c0.18-1.443,0-2.887-0.361-4.149c-0.36-2.166-1.082-4.15-1.623-6.137c-0.362-1.623,0-2.888,0.72-4.151
			c1.444-3.065,4.332-4.871,6.858-6.496c0.541-0.359,0.901-0.54,1.444-0.9l0.36-0.183c1.083-0.721,2.346-1.263,3.249-2.164
			c0.18-0.182,0.541-0.36,0.722-0.541c1.083-0.723,2.165-1.443,2.707-2.889c0.179-0.541,0.541-0.9,0.901-1.263
			c0.903-0.722,1.083-1.624,1.444-2.706c0.181-1.084,0.362-2.166,0.542-3.61c0-1.083,0-2.166,0-3.066v-1.082h0.179l-0.179-2.889
			c-0.181-2.347-0.181-4.512-0.362-6.678c0-1.442-0.181-2.888-0.541-4.149c-0.181-0.722-0.361-1.264-0.541-1.985
			c-0.362-1.263-0.723-2.165-0.903-3.248c-0.722-3.067-2.166-5.593-4.513-7.218c-0.179-0.182-0.541-0.362-0.722-0.541
			c-0.901-0.722-1.804-1.444-2.887-1.625c-1.082-0.361-2.345-0.722-3.428-1.083c-2.526-0.902-5.233-1.805-8.121-1.805h-0.18
			c-0.903-0.36-1.805-0.36-2.707-0.36h-0.722c-0.722,0-1.443,0-2.166-0.181c-0.541-0.182-1.263-0.182-2.346-0.182
			c-0.541,0-0.901,0-1.263,0c-2.166-0.18-4.151,0.362-5.955,0.723c-0.722,0.181-1.443,0.542-1.985,0.902
			c-2.347,1.807-5.053,3.789-7.219,6.135l-0.181,0.182c-0.541,0.541-0.903,1.083-1.444,1.443c-1.623,1.264-2.887,2.527-4.15,4.15
			c-1.985,2.706-2.707,5.413-2.526,8.3C108.04,296.884,108.04,297.606,108.04,298.509z"/>
		<polygon fill="#008EBF" points="107.319,298.509 107.319,298.509 107.499,298.509 		"/>
		<path fill="#008EBF" d="M240.135,285.697v-0.542c0-3.429,0-7.037-0.362-10.646v-0.361c-0.181-2.346-0.541-4.511-1.263-6.856
			c-0.36-0.902-0.542-1.806-0.722-2.527l-0.181-0.902c-0.18-0.542-0.18-1.083-0.36-1.443c-0.361-1.444-0.722-3.068-1.444-4.512
			c-0.181-0.36-0.361-0.54-0.361-0.902c-0.361-0.722-0.722-1.264-0.902-1.805c-0.722-2.165-1.805-4.15-3.068-6.136l-0.181-0.181
			c-0.18-0.36-0.541-0.902-0.722-1.263c-1.444-2.526-3.067-4.873-4.873-7.399c-0.722-1.082-0.901-2.346-1.082-3.609
			c0-0.359-0.181-0.722-0.181-1.083v-0.181v-0.18c0.361-0.903,0.361-1.986,0.361-2.889c0-0.541,0-0.901,0-1.263
			c0-1.444-0.361-2.707-0.902-3.608c-0.181-0.543-0.722-0.902-1.083-1.264c-1.444-1.083-2.888-1.443-4.511-1.985l-0.361-0.181
			c-1.444-0.36-1.985,0.181-1.985,1.624v1.264c0,2.525,0,5.233,0,7.76c0,0.722,0.362,1.625,0.722,2.347
			c1.444,2.346,2.347,4.872,2.707,7.76c0.541,2.888,1.625,5.413,3.249,7.579l1.082,1.264c0.541,0.542,0.903,1.263,1.444,1.984
			l0.362,0.542c0.541,0.721,1.082,1.443,1.624,2.166c0.541,0.901,1.083,1.984,1.443,2.887c0.541,1.443,1.083,3.067,1.625,4.512
			l0.18,0.36c0.722,1.806,0.902,3.609,1.083,5.413c0.181,0.903,0.181,1.986,0.362,2.889c0.179,1.083,0.179,2.166,0.179,3.247
			c0,1.083,0,1.985,0.181,3.067c0.181,1.444,0.181,2.708,0.181,4.151c0,1.442,0,2.887,0.181,4.331c0.36,2.346,0.36,4.692,0.36,7.219
			v0.361c0,1.082,0,2.345,0,3.607l-0.36,5.414c0,0,0,0.182,0,0.36c0,0.181,0,0.36-0.181,0.36l-0.362,1.623
			c-0.179,1.083-0.36,2.166-0.541,3.249c-0.181,0.542-0.181,1.082-0.181,1.444c0,0.722-0.18,1.263-0.36,1.804
			c-0.542,2.348-1.444,4.693-2.346,6.857l-0.181,0.36c-0.18,0.541-0.361,1.082-0.722,1.624c-0.541,1.265-1.083,2.526-1.623,3.609
			c-0.362,0.721-0.541,1.264-0.903,1.985l-1.082,2.346c-0.362,0.901-0.722,1.805-1.083,2.706c-0.541,1.083-1.083,2.166-1.444,3.43
			c-0.541,1.264-1.263,2.345-2.166,3.248c-0.722,0.722-1.263,1.804-1.804,2.707l-0.541,0.721c-0.181,0.362-0.362,0.724-0.362,1.083
			c0,0.362,0,0.723-0.181,1.083c0,0.902-0.179,1.625-0.36,2.348c-0.362,1.804-0.903,3.429-1.985,4.872
			c-1.444,1.804-3.249,3.608-5.594,4.511h-0.181c-1.083,0.361-2.166,0.723-3.248,0.541c-0.902-0.18-1.805-0.541-2.708-0.9
			l-1.082-0.361c-1.083-0.36-2.347-0.902-3.79-0.902c-1.263,0-2.526,0.542-3.248,1.443c-0.722,0.902-1.083,1.985-0.903,3.067
			l0.181,0.541c0.18,0.903,0.18,1.807,0.722,2.708c0.18,0.36,0.36,0.721,0.541,1.265c0,0.179,0.181,0.358,0.181,0.721
			c0.722,1.624,0.722,3.066,0,4.33c-0.362,0.902-1.083,1.985-1.625,2.708l-0.18,0.18c-0.181,0.181-0.362,0.542-0.542,0.723
			c-0.361,0.722-1.083,1.265-1.804,1.806c-0.361,0.358-0.903,0.722-1.263,1.082c-0.361,0.361-0.542,0.542-0.902,0.722l-0.541,0.361
			c-1.625,1.082-3.249,2.166-4.693,3.248c-1.444,0.902-3.248,1.984-4.691,3.067c-2.166,1.623-4.331,2.889-6.497,4.15l-0.179,0.18
			c-1.625,0.903-3.43,1.986-5.415,2.708c-0.361,0.179-0.722,0.179-1.083,0.36c-0.541,0.181-1.083,0.36-1.444,0.541
			c-1.625,0.901-3.428,1.625-5.234,2.165c-1.443,0.543-3.067,1.084-4.691,1.806c-1.263,0.541-2.526,1.083-3.79,1.443
			c-1.624,0.542-3.067,0.901-4.511,1.805h-0.181h-0.36c-2.346,0.903-4.693,1.263-7.219,1.624c-0.903,0.18-1.985,0.18-2.888,0.36
			c-2.165,0.361-4.15,0.901-6.316,1.625c-0.722,0.181-1.082,0.54-1.263,0.901c-0.181,0.541,0.36,1.264,0.541,1.443
			c1.263,1.624,2.707,2.707,4.332,3.429c0.902,0.361,1.804,0.542,2.887,0.542c1.082,0,1.984-0.181,2.887-0.362
			c1.624-0.359,3.248-1.082,4.331-1.623c1.442-0.723,3.067-1.083,4.511-1.442c1.806-0.362,3.248-0.723,4.692-1.083
			c1.083-0.361,1.986-0.723,3.068-1.083c1.083-0.362,1.985-0.722,2.888-1.083c1.985-0.542,3.97-1.624,5.775-2.526
			c1.082-0.541,2.345-1.083,3.609-1.624c0.36-0.18,0.721-0.359,1.083-0.542l0.181-0.181c0.901-0.36,1.804-0.721,2.525-1.082
			c1.084-0.361,2.166-0.722,3.429-1.443c0.722-0.36,1.263-0.723,1.984-1.084c1.806-0.9,3.609-1.804,5.234-3.065l1.263-0.903
			c1.805-1.263,3.609-2.525,5.413-3.969c1.805-1.444,3.79-2.528,5.594-3.61l0.542-0.361c0.542-0.358,0.902-0.539,1.444-0.9
			c1.443-0.902,2.525-1.624,3.608-2.526c1.986-1.805,2.166-3.971,2.347-6.315v-0.36l0,0c-0.542-1.083-0.181-1.985,0-3.249v-0.18
			c0.361-2.165,1.263-3.068,3.428-3.79c1.083-0.36,2.166-0.36,3.249-0.36h0.18h0.542c2.526,0,4.873-0.902,6.676-2.706
			c2.166-2.166,3.248-4.874,4.151-7.398c1.083-2.89,2.346-5.775,3.609-8.121c0.903-1.806,1.985-3.43,2.887-5.233
			c0.722-1.082,1.444-2.346,1.985-3.428c1.263-2.166,2.346-4.332,3.248-6.316l0.362-0.723c0.36-0.721,0.541-1.624,0.722-2.165
			c0.36-1.985,0.903-3.97,1.444-5.775l0.36-0.9c0.181-0.361,0.361-0.722,0.361-1.265c0.181-0.723,0.361-1.441,0.541-2.165v-0.181
			c0.542-1.625,0.903-3.249,1.625-4.872c1.083-2.527,1.624-5.053,1.624-8.48c0.181-5.233,0.181-10.647,0-15.7
			C240.135,288.945,240.135,287.321,240.135,285.697z"/>
		<path fill="#008EBF" d="M215.773,217.483c0-0.18,0-0.359-0.179-0.541c-0.181-1.442-0.543-2.708-1.625-3.789
			c-1.985-1.625-4.512-2.166-7.398-1.083c-1.625,0.541-3.43,1.264-4.874,2.347c-1.263,1.083-2.886,1.263-4.33,1.442
			c-1.986,0.182-4.512,0.723-7.038,1.985c-1.985,1.083-3.249,2.346-3.971,4.15c-0.541,1.083-0.901,2.347-1.443,3.608l-0.18,0.542
			c-0.902,2.526-3.428,4.15-5.955,3.79c-0.36,0-0.903-0.181-1.263-0.361c-0.542-0.181-0.902-0.181-1.263-0.359
			c-0.361,0-0.541-0.181-0.902-0.181c-0.902-0.181-1.804-0.36-2.707-0.181c-2.526,0.361-4.691,1.624-6.316,3.97
			c-0.722,0.902-1.625,1.624-2.346,2.347c-0.722,0.541-1.263,1.083-1.985,1.805c-0.181,0.18-0.36,0.18-0.722,0.36l-1.625,0.541
			c-0.902,0.36-1.985,0.722-2.886,1.083c-1.265,0.542-2.708,0.542-4.152,0.181c-2.165-0.542-4.33-1.264-5.955-3.249
			c-1.263-1.625-2.166-3.428-2.707-5.594c-0.361-1.265-0.361-2.346-0.361-3.79c0-0.542,0-1.083,0-1.444
			c0-0.722-0.18-1.263-0.36-1.984c-0.181-0.902-0.542-1.806-0.722-2.707v-0.361c-0.181-0.541-0.362-1.263-0.542-1.805
			c-0.181-0.723-0.361-1.444-0.542-2.166c-0.361-1.443-0.722-2.707-1.083-3.971c-0.181-0.722-0.541-1.443-0.902-2.166
			c-0.361-0.722-0.722-1.443-0.901-2.346c-0.722-2.526-2.527-4.331-4.152-5.955c-1.082-1.082-2.707-2.165-4.511-2.887
			c-3.97-1.805-7.399-3.249-11.188-3.79c-0.541,0-0.902-0.181-1.443-0.181h-0.181c-1.625-0.181-3.429-0.541-5.232-0.541h-3.79
			c-0.722,0-1.444,0-2.166,0c-2.166,0-4.15,0.18-5.955,0.36c-1.264,0.181-2.166,0.361-2.888,0.723
			c-2.166,0.901-3.79,1.805-5.415,2.525c-1.082,0.723-2.345,1.444-3.428,2.166c-0.541,0.361-1.263,0.903-1.985,1.265
			c-3.068,1.983-5.594,2.707-8.301,2.164c-1.443-0.181-2.707-0.542-3.969-0.901c-0.542-0.181-1.625-0.722-2.888-0.722
			c-0.542,0-0.902,0-1.444,0.181c-0.541,0.18-1.083,0.541-1.444,0.902c-0.541,0.722-1.083,1.984-0.902,3.429
			c0.362,2.526,1.985,4.511,4.332,5.414c0.902,0.36,2.166,0.541,3.428,0.541c2.346,0,4.512-0.181,6.857-0.361
			c0.722,0,1.444-0.18,1.985-0.542l0.903-0.36c1.805-0.902,3.79-1.984,5.775-3.067c1.444-0.903,2.707-1.625,3.97-2.527
			c3.609-2.346,7.579-2.887,11.008-3.066c1.264,0,2.346,0,3.608,0c2.346,0,4.512,0.18,6.316,0.36
			c0.722,0.181,1.444,0.181,2.166,0.181s1.444,0.18,2.166,0.18c0.362,0,0.903,0.181,1.264,0.36c0.361,0.181,0.722,0.181,0.902,0.181
			c1.805,0.36,3.428,1.443,5.053,2.346l0.181,0.181c2.166,1.443,3.789,3.43,4.691,5.955c0.36,0.902,0.541,1.624,0.902,2.526
			l0.542,1.263c0.18,0.361,0.18,0.723,0.36,1.083l0.181,0.361c0.362,1.083,0.903,2.166,1.083,3.428
			c0.36,1.444,0.722,2.707,0.901,4.151c0.181,0.901,0.362,1.624,0.543,2.525c0.179,0.723,0.36,1.444,0.541,2.166
			c0.36,1.265,0.541,2.347,0.902,3.609c0.541,3.069,1.082,5.775,2.886,8.121c1.625,2.346,3.609,3.79,5.956,4.511
			c1.263,0.362,2.526,0.362,3.609,0.542c0.722,0,1.624,0,2.526,0.181c0.541,0.181,1.444,0.181,2.347,0c0.722,0,1.443,0,2.166,0
			h1.082c0.541,0,0.903,0,1.444,0c1.263,0,2.887-0.36,4.331-1.083c1.625-0.902,2.707-2.166,3.429-3.248
			c1.804-2.347,3.79-3.79,6.135-4.692c1.625-0.722,3.068-0.722,4.15-0.361c1.443,0.361,2.527,1.083,3.249,1.986
			c0.901,1.082,2.345,1.624,4.15,1.624c0.903,0,1.625-0.361,2.166-0.902c0.901-0.902,1.444-3.429,1.263-4.691
			c-0.362-2.527,0-4.331,1.263-5.775c0.903-0.902,1.805-1.804,3.068-2.887c0.542-0.361,1.082-0.903,1.804-1.265
			c0.902-0.54,1.805-1.082,2.527-1.805c1.082-0.9,2.345-1.624,3.789-2.165c1.083-0.542,2.527-0.722,3.79-0.359
			c1.082,0.18,1.985,0.359,3.067,0.722c0.361,0.18,0.902,0.18,1.264,0.36l1.263,0.36c1.264,0.361,2.346,0.542,3.429,0.723h0.181
			c0.36,0,1.082-0.361,1.263-0.723c0.181-0.901,0.36-1.804,0.36-3.066C215.953,218.386,215.773,218.025,215.773,217.483z"/>
		<path fill="#008EBF" d="M22.504,308.254c1.082,1.983,2.165,3.971,3.609,5.773c2.526,2.889,4.151,5.775,5.233,8.663
			c0.181,0.359,0.181,0.54,0.361,0.901c0.181,0.542,0.36,0.901,0.541,1.264c0.362,1.623,0.903,3.43,1.264,5.233
			c0.18,0.721,0.18,1.442,0.361,1.982c0.18,1.084,0.18,1.985,0.541,2.889c0.723,2.889,2.346,5.233,4.512,6.856
			c2.345,1.625,4.691,3.249,7.398,4.692c3.248,1.805,5.594,3.789,7.218,6.496c1.804,3.067,3.61,6.314,5.594,9.385
			c1.263,1.984,2.166,4.512,2.707,7.399c0.181,1.441,0.722,2.886,1.625,4.148c0.722,1.265,1.624,1.985,2.886,2.526
			c1.444,0.541,3.068,0.541,4.873,0c1.264-0.36,1.986-1.082,2.166-1.984c0.362-1.984,0-3.608-1.082-4.873
			c-0.362-0.36-0.541-0.722-0.903-1.084c-0.722-0.721-1.083-1.442-1.623-2.165L69.603,366c-0.722-1.264-1.625-2.347-2.166-3.789
			c-0.541-1.624-1.263-3.248-1.805-4.873l-0.541-1.263c-0.903-2.707-2.345-4.872-4.331-6.678c-0.902-0.901-1.985-1.806-2.887-2.525
			l-1.805-1.444c-0.722-0.541-1.443-1.264-2.165-1.804c-0.361-0.362-0.903-0.724-1.263-1.084l-0.181-0.18
			c-1.083-0.902-2.166-1.806-3.248-2.709c-1.805-1.263-3.249-2.886-4.873-4.511l-0.361-0.359c0,0-0.18-0.181-0.18-0.361v-0.181
			c-1.625-2.888-2.708-5.954-3.249-9.203l-0.18-0.724c-0.18-1.082-0.361-2.165-0.542-3.247v-0.359
			c-0.36-1.083-0.541-2.348-1.082-3.249c-1.444-2.706-3.068-4.872-4.873-6.856c-0.903-1.084-1.625-2.166-2.346-3.249
			c-1.625-2.887-2.166-5.955-2.346-8.843c-0.18-2.165,0.181-4.33,0.542-6.496l0.179-0.9c0.181-0.725,0.181-1.444,0.362-2.166
			c0-1.985,0.722-3.973,1.263-5.956c0.181-0.541,0.362-0.902,0.541-1.264c0.362-0.722,0.542-1.263,0.722-1.983
			c0.541-2.527,1.263-5.234,1.083-8.121v-0.361L33.51,270.9l0.18-0.18c0.36-0.542,0.36-1.263,0.36-1.804c0-0.181,0-0.542,0-0.722
			c0-0.361,0-0.542,0.181-0.903c0.18-0.541,0.18-1.083,0.18-1.624c0-1.444,0.361-2.707,0.723-3.97
			c0.722-2.527,1.443-4.692,2.887-6.678c1.263-1.984,1.984-4.15,1.804-6.677c0-0.902-0.36-1.805-0.722-2.707
			c-0.541-0.9-1.444-1.442-2.346-1.442c-0.361,0-0.542,0-0.902,0.181c-0.722,0.181-1.444,0.541-2.166,1.083
			c-0.902,0.901-1.985,1.804-2.707,2.887s-0.903,2.526-1.083,3.79c-0.722,3.79-1.623,7.58-2.887,11.73l-0.18,0.36
			c-0.541,1.624-1.083,3.429-1.443,5.233c-0.181,1.624-0.361,3.249-0.541,4.691v1.264c-0.181,2.525-0.542,5.231-1.444,7.76
			c-1.264,3.428-1.805,7.217-1.805,11.548c0,0.725,0,1.625,0,2.346v2.889c0,1.264,0,2.525,0,3.971
			C21.601,305.006,21.601,306.63,22.504,308.254z"/>
		<path fill="#008EBF" d="M195.381,253.034c-0.902,1.443-1.082,2.526-0.721,3.79c0.542,2.346,1.985,3.97,3.97,5.053
			c1.082,0.541,2.166,1.083,3.067,1.624l0.181,0.181c1.263,0.541,2.526,1.263,3.609,1.804c2.526,1.265,4.15,3.609,5.414,5.595
			c1.444,2.166,1.625,4.872,1.805,7.218v0.181c0.181,2.889,0.36,5.955,0.36,8.843v1.805c0,1.263,0,2.526,0,3.79s0,2.706,0,3.969
			c0,1.266,0,2.709,0.541,4.152c0.542,1.624,0.542,3.248,0.542,5.231v1.985c0,2.347-1.083,4.512-2.888,6.314
			c-1.083,1.083-2.527,1.807-3.969,2.165h-0.362c-0.36,0.183-0.722,0.183-1.082,0.183c-2.166,0.181-4.152-0.361-6.497-2.165
			c-1.083-0.903-2.166-1.265-3.428-1.265c-0.542,0-1.263,0.183-1.806,0.36c-0.541,0.181-1.263,0.541-1.985,0.722
			c-1.263,0.362-2.346,1.083-3.428,2.348c-0.722,0.901-0.722,1.442,0,2.347c0.181,0.18,0.541,0.541,0.902,0.72
			c2.707,1.986,6.135,2.889,10.647,3.249c1.263,0.182,2.707,0.182,3.97,0.542l1.082,0.182c1.264,0.181,2.527,0.539,3.971,0.539
			c0.722,0,1.263,0,1.985-0.181c1.263-0.179,2.707-0.54,3.789-1.442c1.625-1.264,2.708-2.707,3.249-4.33
			c1.264-3.249,2.346-6.496,2.707-10.105c0.181-2.707,0.36-5.413,0.36-7.579c0-1.625,0-3.067-0.18-4.691v-0.722
			c0-0.542,0-0.902,0-1.443c-0.181-1.985-0.181-4.15-0.181-5.955v-0.362c0-3.066,0-6.314-0.361-9.563c0-0.542-0.18-1.265-0.36-1.806
			l-0.362-1.625c-0.541-1.983-0.901-4.149-1.442-6.135c-0.722-2.707-1.986-4.872-3.609-6.497c-1.443-1.263-3.249-2.346-5.053-3.067
			c-3.248-1.264-5.414-3.249-6.497-6.136c-0.541-1.264-0.541-2.525-0.36-3.79c0.542-1.984,1.804-3.97,3.97-5.594
			c1.625-1.263,2.707-2.707,3.429-4.331c1.083-2.527-0.181-3.609-1.625-4.151c-1.444-0.722-3.067-0.722-5.232-0.36
			c-1.084,0.181-3.069,0.542-3.791,2.525l-0.18,0.182l-0.181,0.181c-0.903,1.263-1.805,2.707-1.625,4.511c0,0.182,0,0.182,0,0.542
			c0,0.181,0,0.361-0.181,0.542c0,0.361,0,0.902,0,1.264c0,0.181,0,0.181,0,0.36c0,0.181,0,0.181,0,0.181c0,0.181,0,0.36,0,0.542
			v0.18c0,0.542-0.18,1.083-0.18,1.444c0,1.083-0.181,2.166-0.722,3.067C196.465,251.229,195.924,252.131,195.381,253.034
			L195.381,253.034z"/>
		<path fill="#008EBF" d="M155.321,384.227c1.804,0.903,3.428,0.903,4.873-0.181c1.444-1.082,2.887-2.346,4.15-4.331
			c1.082-1.444,2.346-2.888,4.151-3.789l1.444-0.541c1.443-0.543,2.887-1.264,4.511-1.625c2.166-0.541,3.971-1.624,5.415-3.429
			c1.082-1.264,1.623-2.706,1.984-3.972c0.181-0.359,0.181-0.899,0.36-1.263c0.181-0.901,0.362-1.443,0.542-2.166
			c0.901-2.524,1.804-5.413,2.525-8.479c0.723-2.527,1.625-5.233,2.888-7.761c0.901-1.805,2.166-3.066,3.969-3.971
			c1.805-0.902,4.15-1.082,6.497-0.54c1.443,0.359,2.887,0.901,4.331,1.624c1.623,0.722,3.067,1.082,5.052,1.082l0.902-0.181
			c0.903-0.181,1.625-0.181,2.527-0.361c0.722-0.181,1.444-0.721,1.624-1.443l0.181-0.181c0.181-0.54,0.36-1.082,0.181-1.984
			c-0.903-2.347-2.527-3.79-5.054-4.872c-1.984-0.723-3.79-0.902-5.774-1.083c-0.722,0-1.624-0.18-2.345-0.36
			c-0.542,0-1.265-0.182-1.806-0.361c-1.263-0.359-2.346-0.541-3.609-0.359h-0.18h-0.181c-0.361-0.182-0.902-0.361-1.443-0.361
			s-1.444,0.181-2.166,0.361l-0.722,0.181c-1.625,0.359-3.248,1.442-4.873,3.429c-0.902,1.082-1.624,2.166-2.525,3.248l-0.181,0.181
			c-0.362,0.541-0.903,1.264-1.263,1.805c-1.986,2.526-2.708,5.595-3.249,8.481l-0.181,1.264c-0.36,1.985-0.722,4.149-1.263,6.136
			c-0.541,1.985-1.083,3.429-1.805,4.691c-1.443,2.166-3.428,3.79-5.053,5.054c-1.263,0.901-2.166,1.442-3.248,1.805
			c-2.527,0.902-5.594,1.804-8.302,2.887c-1.442,0.541-2.526,1.444-3.248,2.527c-1.082,1.443-1.443,3.066-1.443,4.872
			C153.155,382.242,153.877,383.505,155.321,384.227z"/>
		<path fill="#008EBF" d="M170.479,324.676c-0.181,0.181-0.181,0.36-0.362,0.541l-0.179,0.361c-1.625,1.983-3.429,3.607-5.234,4.691
			c-1.985,1.263-3.789,2.525-5.232,3.788c-1.264,1.264-1.986,2.888-1.986,4.512c0,0.724,0,1.264,0,1.985
			c0,1.625,0,3.068,0.181,4.692c0.361,2.707-0.36,5.231-1.083,7.759l-0.181,0.901c-0.36,1.083-0.36,1.985-0.36,2.889
			c0,1.263,0.541,2.166,1.263,3.248c0.722,0.901,1.804,1.083,2.707,1.083h0.181c0.179,0,0.36,0,0.541,0c0.18,0,0.18,0,0.36,0
			c1.625,0,3.609-1.444,4.331-3.247c0.723-1.986,0.542-3.973,0.362-5.957v-0.722c0-0.723-0.181-1.443-0.181-2.347
			c0-0.359-0.181-0.541-0.181-0.9c-0.18-0.543-0.18-1.083-0.18-1.444c0.18-1.624,0.361-3.249,0.722-4.692
			c0.542-2.164,1.806-4.149,3.249-5.594c1.444-1.264,3.067-2.346,4.511-3.248c1.805-1.082,3.429-2.887,4.693-5.053
			c0.179-0.542,0.541-0.901,0.722-1.444l0.179-0.18c0.543-1.083,1.084-2.165,1.806-3.249c0.722-1.263,1.624-2.525,2.707-3.608
			c1.443-1.442,1.625-2.708,0.542-4.511l-0.181-0.362c-0.18-0.181-0.18-0.359-0.36-0.359c-1.083-1.807-1.805-3.608-1.625-5.595
			c0-0.902,0-1.984,0-2.888v-0.36c0-0.901,0-1.806,0-2.706c0-0.542,0.181-1.083,0.181-1.444c0.181-0.902,0.361-1.623,0.542-2.526
			l0.361-1.083c0.18-0.723,0.36-1.442,0.541-2.164c0.181-0.36,0.181-0.723,0-1.084c-0.361-1.623-0.902-3.247-2.347-4.331
			c-1.082-0.901-2.345-1.441-3.428-1.441c-1.443,0-2.707,0.721-3.789,1.982c-1.625,1.806-1.264,3.972-0.902,5.956
			c0.181,1.264,0.541,2.347,0.902,3.429c0.36,1.443,0.722,2.708,0.902,4.332c0,0.722,0.181,1.625,0.361,2.346
			c0.18,1.263,0.36,2.346,0.36,3.429v1.624v1.624c0,0.722,0,1.444,0,2.165c0,1.444-0.36,2.888-1.443,4.511l-0.542,0.724
			C172.825,321.969,171.922,323.412,170.479,324.676z"/>
		<path fill="#008EBF" d="M188.344,271.08c-2.527,0-5.053,0.359-7.399,0.901c-1.804,0.361-3.609,0.361-5.775,0.181
			c-1.444-0.181-2.888-0.181-4.332-0.181c-2.525,0-4.691,2.166-4.691,4.692v0.18c0,0.361,0,0.541,0,0.902
			c0,1.625,0.722,2.527,2.166,3.067c1.625,0.544,3.247,0.724,5.233,0.362c1.624-0.362,3.067-0.901,4.873-1.805
			c1.263-0.721,2.707-1.083,4.15-1.083c0.18,0,0.36,0,0.541,0c2.347,0.181,4.332,0.722,5.955,1.444
			c2.527,1.263,3.971,2.887,4.693,5.052c0.542,1.624,0.903,3.067,1.083,4.512c0.181,2.888,0.181,6.137-0.361,9.384
			c-0.18,1.443-0.361,3.067-0.18,4.691c0,1.084,0.361,2.166,1.082,3.609c0.722,1.805,1.986,1.984,2.527,1.984
			c0.722,0,1.625-0.36,2.347-1.083c1.804-1.805,2.886-3.97,2.886-6.855c0-1.265-0.18-2.527-0.36-3.79
			c-0.181-1.805-0.362-3.609-0.362-5.233c0-0.722,0-1.625-0.18-2.526c0-0.181,0-0.541,0-0.901c0-0.723,0-1.442-0.181-2.348
			c-0.18-0.9-0.541-1.804-0.902-2.887l-0.18-0.361c-0.181-0.722-0.362-1.441-0.722-2.165c-0.542-2.164-1.625-3.971-2.708-5.595
			l-0.18-0.18c-0.902-1.083-1.805-2.346-3.249-2.888c-1.082-0.361-2.345-0.723-3.789-0.902
			C189.968,271.08,189.246,271.08,188.344,271.08z"/>
		<path fill="#008EBF" d="M159.471,186.445c1.263,0.541,2.707,1.083,4.15,1.444c1.624,0.361,3.067,0.722,4.331,1.443
			c3.429,1.984,5.955,3.608,8.121,5.414c0.722,0.542,1.263,1.263,1.984,1.983l0.362,0.361c0.179,0.181,0.36,0.542,0.722,0.722
			l0.179,0.182c0.362,0.36,0.722,0.901,1.265,1.443c0.36,0.36,1.082,0.723,1.623,0.902c2.707,0.181,4.692,0.903,6.497,2.166
			c0.36,0.361,0.722,0.541,1.263,0.901c0.542,0.36,1.083,0.723,1.625,1.264c1.804,1.263,3.429,2.166,5.232,2.526
			c1.806,0.36,3.429-0.722,3.971-2.347c0.18-0.361,0.18-0.902,0.36-1.263l0.181-0.902h-0.181v-0.36c0-0.182,0-0.36,0-0.541
			c-0.36-1.806-0.902-3.79-3.067-4.331c-1.986-0.724-4.152-1.083-6.497-1.083c-1.263,0-2.527-0.361-3.79-0.902
			c-0.902-0.36-1.624-0.902-2.345-1.624c-1.083-1.083-1.986-2.346-2.887-3.609c-1.986-2.887-4.873-4.331-7.219-5.414l-0.361-0.18
			c-2.707-1.264-5.595-2.346-8.12-4.331c-0.361-0.181-0.722-0.36-1.083-0.541c-0.362-0.181-0.542-0.181-0.722-0.36
			c-1.265-0.723-2.527-0.903-3.79-1.083l-0.722-0.182c-0.36,0-0.541,0-0.902,0c-1.804,0-3.429,0.903-4.33,2.166
			c-0.181,0.182-0.181,0.723-0.181,1.083C156.042,183.197,157.124,185.362,159.471,186.445z"/>
		<path fill="#008EBF" d="M178.96,203.408h-0.181c-0.903,0.18-1.805,0.359-2.526,0.722c-1.263,0.722-2.527,1.444-3.609,2.166
			c-1.083,0.722-2.165,1.624-3.248,2.346l-0.902,0.542c-1.083,0.722-2.166,1.444-3.249,2.166c-0.722,0.361-1.263,0.722-1.985,1.083
			c-0.722,0.18-1.443,0.541-1.984,0.722c-0.722,0.181-1.444,0.541-1.985,0.723l-0.903,0.359c-1.623,0.723-3.248,1.265-4.691,2.166
			c-1.805,0.903-2.887,2.166-3.248,3.79c-0.542,1.805,0.361,3.79,1.985,4.331c0.722,0.182,1.443,0.361,1.984,0.361h0.181
			c0.179,0,0.36,0,0.541,0l0,0l0,0c2.166-0.181,4.691-0.542,6.497-2.527c0.722-0.722,1.263-1.442,1.984-1.984l1.263-1.264
			c0.181-0.181,0.361-0.359,0.541-0.542c2.527-1.442,5.234-2.707,8.482-2.887c3.068-0.18,5.053-2.346,6.316-3.79
			c0.541-0.542,0.722-1.263,0.903-1.805c0.181-0.723,0.181-1.624,0.181-2.347c0-0.901,0-1.623-0.181-2.346
			C180.764,204.311,180.042,203.408,178.96,203.408z"/>
		<path fill="#008EBF" d="M129.335,310.601c0.18,1.082,0.36,1.984,1.263,2.706c1.263,1.082,3.067,1.444,5.053,1.082
			c1.082-0.18,1.985-0.901,2.526-1.804c0.722-1.625,1.263-3.609,1.443-5.232c0.181-1.442,0.542-2.709,0.903-4.151v-0.18
			c0.361-1.625,0.722-3.249,1.083-4.872c0.361-2.527,0.181-4.513-0.903-6.316c-0.541-1.083-1.984-1.806-3.248-1.806
			c-0.36,0-0.722,0-1.082,0.182c-1.625,0.541-3.43,2.526-3.79,3.971c-0.361,1.623-0.722,3.067-0.722,4.511
			c-0.181,1.443-0.542,3.067-1.083,4.691c-0.902,2.166-1.264,3.971-1.443,5.956v0.36c0,0.181,0,0.54,0,0.723V310.601z"/>
		<path fill="#008EBF" d="M146.658,191.859c-1.625,0.36-2.525,1.443-3.248,2.707c-1.444,2.165-0.902,4.331,1.442,5.774
			c1.083,0.722,1.986,1.263,2.888,1.625c1.805,0.721,3.068,1.263,4.512,1.624c0.36,0.18,0.722,0.361,1.082,0.361
			c1.083,0.54,1.986,0.901,3.249,0.722l0,0l0,0c1.083,0.18,1.985-0.182,2.707-0.903c0.903-1.263,1.263-2.706,1.082-3.97
			c-0.722-3.068-2.526-5.053-5.232-5.774c-0.541-0.181-1.083-0.36-1.625-0.541c-0.36-0.181-0.722-0.181-0.903-0.36l-1.082-0.361
			c-0.903-0.361-1.804-0.722-2.707-0.902C148.102,191.678,147.38,191.678,146.658,191.859z"/>
		<path fill="#008EBF" d="M142.688,379.354c-0.902-0.54-1.444-0.721-1.986-0.721c-1.083,0-1.804,0.901-2.345,1.804l-0.181,0.182
			c-0.722,0.901-1.263,1.983-1.804,2.888c-0.543,1.263-0.903,2.346-0.903,3.607c-0.181,1.264,0.181,2.166,1.082,2.889
			c0.902,0.723,2.527,1.264,3.971,1.264c1.083,0,1.985-0.181,2.707-0.723c0.181-0.182,0.541-0.182,0.541-0.541
			c1.444-2.347,2.887-4.871,1.263-7.939C144.674,381.339,143.951,380.076,142.688,379.354z"/>
	</g>
</g>
</svg>
